%TF.GenerationSoftware,KiCad,Pcbnew,9.0.6*%
%TF.CreationDate,2025-11-21T13:35:58+01:00*%
%TF.ProjectId,07_io,30375f69-6f2e-46b6-9963-61645f706362,rev?*%
%TF.SameCoordinates,Original*%
%TF.FileFunction,Copper,L2,Bot*%
%TF.FilePolarity,Positive*%
%FSLAX46Y46*%
G04 Gerber Fmt 4.6, Leading zero omitted, Abs format (unit mm)*
G04 Created by KiCad (PCBNEW 9.0.6) date 2025-11-21 13:35:58*
%MOMM*%
%LPD*%
G01*
G04 APERTURE LIST*
G04 Aperture macros list*
%AMRoundRect*
0 Rectangle with rounded corners*
0 $1 Rounding radius*
0 $2 $3 $4 $5 $6 $7 $8 $9 X,Y pos of 4 corners*
0 Add a 4 corners polygon primitive as box body*
4,1,4,$2,$3,$4,$5,$6,$7,$8,$9,$2,$3,0*
0 Add four circle primitives for the rounded corners*
1,1,$1+$1,$2,$3*
1,1,$1+$1,$4,$5*
1,1,$1+$1,$6,$7*
1,1,$1+$1,$8,$9*
0 Add four rect primitives between the rounded corners*
20,1,$1+$1,$2,$3,$4,$5,0*
20,1,$1+$1,$4,$5,$6,$7,0*
20,1,$1+$1,$6,$7,$8,$9,0*
20,1,$1+$1,$8,$9,$2,$3,0*%
G04 Aperture macros list end*
%TA.AperFunction,ComponentPad*%
%ADD10C,4.000000*%
%TD*%
%TA.AperFunction,ComponentPad*%
%ADD11C,2.000000*%
%TD*%
%TA.AperFunction,ComponentPad*%
%ADD12C,1.600000*%
%TD*%
%TA.AperFunction,ComponentPad*%
%ADD13RoundRect,0.250000X-0.650000X-0.650000X0.650000X-0.650000X0.650000X0.650000X-0.650000X0.650000X0*%
%TD*%
%TA.AperFunction,ComponentPad*%
%ADD14C,1.800000*%
%TD*%
%TA.AperFunction,ComponentPad*%
%ADD15R,1.050000X1.500000*%
%TD*%
%TA.AperFunction,ComponentPad*%
%ADD16O,1.050000X1.500000*%
%TD*%
%TA.AperFunction,ComponentPad*%
%ADD17R,1.800000X1.800000*%
%TD*%
%TA.AperFunction,ComponentPad*%
%ADD18RoundRect,0.250000X0.650000X0.650000X-0.650000X0.650000X-0.650000X-0.650000X0.650000X-0.650000X0*%
%TD*%
%TA.AperFunction,ComponentPad*%
%ADD19RoundRect,0.250000X0.600000X0.725000X-0.600000X0.725000X-0.600000X-0.725000X0.600000X-0.725000X0*%
%TD*%
%TA.AperFunction,ComponentPad*%
%ADD20O,1.700000X1.950000*%
%TD*%
%TA.AperFunction,ViaPad*%
%ADD21C,0.600000*%
%TD*%
%TA.AperFunction,Conductor*%
%ADD22C,0.200000*%
%TD*%
G04 APERTURE END LIST*
D10*
%TO.P,RV4,*%
%TO.N,*%
X52960000Y-43000000D03*
X61960000Y-43000000D03*
D11*
%TO.P,RV4,1,1*%
%TO.N,S4*%
X54920000Y-50000000D03*
%TO.P,RV4,2,2*%
%TO.N,Net-(D7-A)*%
X57460000Y-50000000D03*
%TO.P,RV4,3,3*%
%TO.N,GND*%
X60000000Y-50000000D03*
%TD*%
D12*
%TO.P,R1,1*%
%TO.N,S1*%
X27700000Y-34050000D03*
%TO.P,R1,2*%
%TO.N,Net-(Q1-B)*%
X37860000Y-34050000D03*
%TD*%
D13*
%TO.P,D3,1,K*%
%TO.N,raw CV*%
X54370000Y-34050000D03*
D14*
%TO.P,D3,2,A*%
%TO.N,Net-(D3-A)*%
X61990000Y-34050000D03*
%TD*%
D15*
%TO.P,Q3,1,C*%
%TO.N,Net-(D6-K)*%
X34050000Y-48020000D03*
D16*
%TO.P,Q3,2,B*%
%TO.N,Net-(Q3-B)*%
X32780000Y-48020000D03*
%TO.P,Q3,3,E*%
%TO.N,GND*%
X31510000Y-48020000D03*
%TD*%
D10*
%TO.P,RV2,*%
%TO.N,*%
X52410000Y-21970000D03*
X61410000Y-21970000D03*
D11*
%TO.P,RV2,1,1*%
%TO.N,S2*%
X54370000Y-28970000D03*
%TO.P,RV2,2,2*%
%TO.N,Net-(D3-A)*%
X56910000Y-28970000D03*
%TO.P,RV2,3,3*%
%TO.N,GND*%
X59450000Y-28970000D03*
%TD*%
D12*
%TO.P,R7,1*%
%TO.N,S4*%
X51830000Y-55640000D03*
%TO.P,R7,2*%
%TO.N,Net-(Q4-B)*%
X41670000Y-55640000D03*
%TD*%
%TO.P,R8,1*%
%TO.N,+12V*%
X41670000Y-50560000D03*
%TO.P,R8,2*%
%TO.N,Net-(D8-A)*%
X41670000Y-40400000D03*
%TD*%
%TO.P,R2,1*%
%TO.N,+12V*%
X37860000Y-30240000D03*
%TO.P,R2,2*%
%TO.N,Net-(D2-A)*%
X37860000Y-20080000D03*
%TD*%
D17*
%TO.P,D4,1,K*%
%TO.N,Net-(D4-K)*%
X45480000Y-20080000D03*
D14*
%TO.P,D4,2,A*%
%TO.N,Net-(D4-A)*%
X48020000Y-20080000D03*
%TD*%
D12*
%TO.P,R3,1*%
%TO.N,S2*%
X51830000Y-34050000D03*
%TO.P,R3,2*%
%TO.N,Net-(Q2-B)*%
X41670000Y-34050000D03*
%TD*%
D17*
%TO.P,D6,1,K*%
%TO.N,Net-(D6-K)*%
X31510000Y-40400000D03*
D14*
%TO.P,D6,2,A*%
%TO.N,Net-(D6-A)*%
X34050000Y-40400000D03*
%TD*%
D12*
%TO.P,R4,1*%
%TO.N,+12V*%
X41670000Y-30240000D03*
%TO.P,R4,2*%
%TO.N,Net-(D4-A)*%
X41670000Y-20080000D03*
%TD*%
D18*
%TO.P,D1,1,K*%
%TO.N,raw CV*%
X25160000Y-34050000D03*
D14*
%TO.P,D1,2,A*%
%TO.N,Net-(D1-A)*%
X17540000Y-34050000D03*
%TD*%
D15*
%TO.P,Q1,1,C*%
%TO.N,Net-(D2-K)*%
X34050000Y-27700000D03*
D16*
%TO.P,Q1,2,B*%
%TO.N,Net-(Q1-B)*%
X32780000Y-27700000D03*
%TO.P,Q1,3,E*%
%TO.N,GND*%
X31510000Y-27700000D03*
%TD*%
D15*
%TO.P,Q2,1,C*%
%TO.N,Net-(D4-K)*%
X48020000Y-27700000D03*
D16*
%TO.P,Q2,2,B*%
%TO.N,Net-(Q2-B)*%
X46750000Y-27700000D03*
%TO.P,Q2,3,E*%
%TO.N,GND*%
X45480000Y-27700000D03*
%TD*%
D15*
%TO.P,Q4,1,C*%
%TO.N,Net-(D8-K)*%
X48020000Y-48020000D03*
D16*
%TO.P,Q4,2,B*%
%TO.N,Net-(Q4-B)*%
X46750000Y-48020000D03*
%TO.P,Q4,3,E*%
%TO.N,GND*%
X45480000Y-48020000D03*
%TD*%
D13*
%TO.P,D7,1,K*%
%TO.N,raw CV*%
X54370000Y-55640000D03*
D14*
%TO.P,D7,2,A*%
%TO.N,Net-(D7-A)*%
X61990000Y-55640000D03*
%TD*%
D18*
%TO.P,D5,1,K*%
%TO.N,raw CV*%
X25160000Y-55640000D03*
D14*
%TO.P,D5,2,A*%
%TO.N,Net-(D5-A)*%
X17540000Y-55640000D03*
%TD*%
D17*
%TO.P,D8,1,K*%
%TO.N,Net-(D8-K)*%
X45480000Y-40400000D03*
D14*
%TO.P,D8,2,A*%
%TO.N,Net-(D8-A)*%
X48020000Y-40400000D03*
%TD*%
D12*
%TO.P,R5,1*%
%TO.N,S3*%
X27700000Y-55640000D03*
%TO.P,R5,2*%
%TO.N,Net-(Q3-B)*%
X37860000Y-55640000D03*
%TD*%
D10*
%TO.P,RV1,*%
%TO.N,*%
X18120000Y-21970000D03*
X27120000Y-21970000D03*
D11*
%TO.P,RV1,1,1*%
%TO.N,S1*%
X20080000Y-28970000D03*
%TO.P,RV1,2,2*%
%TO.N,Net-(D1-A)*%
X22620000Y-28970000D03*
%TO.P,RV1,3,3*%
%TO.N,GND*%
X25160000Y-28970000D03*
%TD*%
D10*
%TO.P,RV3,*%
%TO.N,*%
X18120000Y-42940000D03*
X27120000Y-42940000D03*
D11*
%TO.P,RV3,1,1*%
%TO.N,S3*%
X20080000Y-49940000D03*
%TO.P,RV3,2,2*%
%TO.N,Net-(D5-A)*%
X22620000Y-49940000D03*
%TO.P,RV3,3,3*%
%TO.N,GND*%
X25160000Y-49940000D03*
%TD*%
D19*
%TO.P,J1,1,Pin_1*%
%TO.N,S1*%
X47300700Y-61624900D03*
D20*
%TO.P,J1,2,Pin_2*%
%TO.N,S2*%
X44800700Y-61624900D03*
%TO.P,J1,3,Pin_3*%
%TO.N,S3*%
X42300700Y-61624900D03*
%TO.P,J1,4,Pin_4*%
%TO.N,S4*%
X39800700Y-61624900D03*
%TO.P,J1,5,Pin_5*%
%TO.N,raw CV*%
X37300700Y-61624900D03*
%TO.P,J1,6,Pin_6*%
%TO.N,+12V*%
X34800700Y-61624900D03*
%TO.P,J1,7,Pin_7*%
%TO.N,GND*%
X32300700Y-61624900D03*
%TD*%
D12*
%TO.P,R6,1*%
%TO.N,+12V*%
X37860000Y-50560000D03*
%TO.P,R6,2*%
%TO.N,Net-(D6-A)*%
X37860000Y-40400000D03*
%TD*%
D17*
%TO.P,D2,1,K*%
%TO.N,Net-(D2-K)*%
X31510000Y-20080000D03*
D14*
%TO.P,D2,2,A*%
%TO.N,Net-(D2-A)*%
X34050000Y-20080000D03*
%TD*%
D21*
%TO.N,S1*%
X49628000Y-40751600D03*
%TD*%
D22*
%TO.N,Net-(D8-K)*%
X48020000Y-44141700D02*
X45480000Y-41601700D01*
X48020000Y-48020000D02*
X48020000Y-44141700D01*
X45480000Y-40400000D02*
X45480000Y-41601700D01*
%TO.N,Net-(D6-K)*%
X34050000Y-44141700D02*
X31510000Y-41601700D01*
X34050000Y-48020000D02*
X34050000Y-44141700D01*
X31510000Y-40400000D02*
X31510000Y-41601700D01*
%TO.N,Net-(D4-K)*%
X48020000Y-23821700D02*
X48020000Y-27700000D01*
X45480000Y-21281700D02*
X48020000Y-23821700D01*
X45480000Y-20080000D02*
X45480000Y-21281700D01*
%TO.N,Net-(Q4-B)*%
X46750000Y-50560000D02*
X46750000Y-48020000D01*
X41670000Y-55640000D02*
X46750000Y-50560000D01*
%TO.N,Net-(Q2-B)*%
X46750000Y-28970000D02*
X46750000Y-27700000D01*
X41670000Y-34050000D02*
X46750000Y-28970000D01*
%TO.N,Net-(Q1-B)*%
X32780000Y-28970000D02*
X37860000Y-34050000D01*
X32780000Y-27700000D02*
X32780000Y-28970000D01*
%TO.N,+12V*%
X34800700Y-53619300D02*
X37860000Y-50560000D01*
X34800700Y-61624900D02*
X34800700Y-53619300D01*
X40537200Y-49427200D02*
X41670000Y-50560000D01*
X40537200Y-31372800D02*
X40537200Y-49427200D01*
X41670000Y-30240000D02*
X40537200Y-31372800D01*
%TO.N,S1*%
X49628000Y-40751600D02*
X49628000Y-40286900D01*
X49628000Y-40286900D02*
X49628000Y-40751600D01*
X49628000Y-59297600D02*
X47300700Y-61624900D01*
X49628000Y-40751600D02*
X49628000Y-59297600D01*
%TO.N,S2*%
X51830000Y-31510000D02*
X54370000Y-28970000D01*
X51830000Y-34050000D02*
X51830000Y-31510000D01*
X50658300Y-35221700D02*
X51830000Y-34050000D01*
X50658300Y-60451300D02*
X50658300Y-35221700D01*
X48199100Y-62910500D02*
X50658300Y-60451300D01*
X46446200Y-62910500D02*
X48199100Y-62910500D01*
X45952400Y-62416700D02*
X46446200Y-62910500D01*
X45952400Y-61624900D02*
X45952400Y-62416700D01*
X44800700Y-61624900D02*
X45952400Y-61624900D01*
%TO.N,Net-(D7-A)*%
X61990000Y-54530000D02*
X61990000Y-55640000D01*
X57460000Y-50000000D02*
X61990000Y-54530000D01*
%TO.N,Net-(D5-A)*%
X22620000Y-50560000D02*
X17540000Y-55640000D01*
X22620000Y-49940000D02*
X22620000Y-50560000D01*
%TO.N,Net-(D3-A)*%
X61990000Y-34050000D02*
X56910000Y-28970000D01*
%TO.N,Net-(D2-K)*%
X34050000Y-23821700D02*
X34050000Y-27700000D01*
X31510000Y-21281700D02*
X34050000Y-23821700D01*
X31510000Y-20080000D02*
X31510000Y-21281700D01*
%TO.N,Net-(D1-A)*%
X17540000Y-34050000D02*
X22620000Y-28970000D01*
%TO.N,raw CV*%
X55288900Y-34968900D02*
X54370000Y-34050000D01*
X55288900Y-45584600D02*
X55288900Y-34968900D01*
X53609100Y-47264400D02*
X55288900Y-45584600D01*
X53609100Y-54879100D02*
X53609100Y-47264400D01*
X54370000Y-55640000D02*
X53609100Y-54879100D01*
X26509800Y-54290200D02*
X25160000Y-55640000D01*
X26509800Y-47496000D02*
X26509800Y-54290200D01*
X24779200Y-45765400D02*
X26509800Y-47496000D01*
X24779200Y-34430800D02*
X24779200Y-45765400D01*
X25160000Y-34050000D02*
X24779200Y-34430800D01*
%TD*%
%TA.AperFunction,Conductor*%
%TO.N,GND*%
G36*
X63943039Y-16019685D02*
G01*
X63988794Y-16072489D01*
X64000000Y-16124000D01*
X64000000Y-21071112D01*
X63980315Y-21138151D01*
X63927511Y-21183906D01*
X63858353Y-21193850D01*
X63794797Y-21164825D01*
X63758959Y-21112067D01*
X63746660Y-21076919D01*
X63723801Y-21011592D01*
X63601945Y-20758555D01*
X63452523Y-20520752D01*
X63277416Y-20301175D01*
X63078825Y-20102584D01*
X62859248Y-19927477D01*
X62621445Y-19778055D01*
X62621442Y-19778053D01*
X62368411Y-19656200D01*
X62103329Y-19563443D01*
X62103317Y-19563439D01*
X61829512Y-19500945D01*
X61829494Y-19500942D01*
X61550431Y-19469500D01*
X61550425Y-19469500D01*
X61269575Y-19469500D01*
X61269568Y-19469500D01*
X60990505Y-19500942D01*
X60990487Y-19500945D01*
X60716682Y-19563439D01*
X60716670Y-19563443D01*
X60451588Y-19656200D01*
X60198557Y-19778053D01*
X59960753Y-19927476D01*
X59741175Y-20102583D01*
X59542583Y-20301175D01*
X59367476Y-20520753D01*
X59218053Y-20758557D01*
X59096200Y-21011588D01*
X59003443Y-21276670D01*
X59003439Y-21276682D01*
X58940945Y-21550487D01*
X58940942Y-21550505D01*
X58909500Y-21829568D01*
X58909500Y-22110431D01*
X58940942Y-22389494D01*
X58940945Y-22389512D01*
X59003439Y-22663317D01*
X59003443Y-22663329D01*
X59096200Y-22928411D01*
X59218053Y-23181442D01*
X59218055Y-23181445D01*
X59367477Y-23419248D01*
X59542584Y-23638825D01*
X59741175Y-23837416D01*
X59960752Y-24012523D01*
X60198555Y-24161945D01*
X60451592Y-24283801D01*
X60650680Y-24353465D01*
X60716670Y-24376556D01*
X60716682Y-24376560D01*
X60990491Y-24439055D01*
X60990497Y-24439055D01*
X60990505Y-24439057D01*
X61176547Y-24460018D01*
X61269569Y-24470499D01*
X61269572Y-24470500D01*
X61269575Y-24470500D01*
X61550428Y-24470500D01*
X61550429Y-24470499D01*
X61693055Y-24454429D01*
X61829494Y-24439057D01*
X61829499Y-24439056D01*
X61829509Y-24439055D01*
X62103318Y-24376560D01*
X62368408Y-24283801D01*
X62621445Y-24161945D01*
X62859248Y-24012523D01*
X63078825Y-23837416D01*
X63277416Y-23638825D01*
X63452523Y-23419248D01*
X63601945Y-23181445D01*
X63723801Y-22928408D01*
X63758959Y-22827931D01*
X63799680Y-22771156D01*
X63864633Y-22745409D01*
X63933195Y-22758865D01*
X63983597Y-22807253D01*
X64000000Y-22868887D01*
X64000000Y-41204397D01*
X63980315Y-41271436D01*
X63927511Y-41317191D01*
X63858353Y-41327135D01*
X63794797Y-41298110D01*
X63788319Y-41292078D01*
X63628824Y-41132583D01*
X63519427Y-41045342D01*
X63409248Y-40957477D01*
X63171445Y-40808055D01*
X63171442Y-40808053D01*
X62918411Y-40686200D01*
X62653329Y-40593443D01*
X62653317Y-40593439D01*
X62379512Y-40530945D01*
X62379494Y-40530942D01*
X62100431Y-40499500D01*
X62100425Y-40499500D01*
X61819575Y-40499500D01*
X61819568Y-40499500D01*
X61540505Y-40530942D01*
X61540487Y-40530945D01*
X61266682Y-40593439D01*
X61266670Y-40593443D01*
X61001588Y-40686200D01*
X60748557Y-40808053D01*
X60510753Y-40957476D01*
X60291175Y-41132583D01*
X60092583Y-41331175D01*
X59917476Y-41550753D01*
X59768053Y-41788557D01*
X59646200Y-42041588D01*
X59553443Y-42306670D01*
X59553439Y-42306682D01*
X59490945Y-42580487D01*
X59490942Y-42580505D01*
X59459500Y-42859568D01*
X59459500Y-43140431D01*
X59490942Y-43419494D01*
X59490945Y-43419512D01*
X59553439Y-43693317D01*
X59553443Y-43693329D01*
X59646200Y-43958411D01*
X59768053Y-44211442D01*
X59768055Y-44211445D01*
X59917477Y-44449248D01*
X60092584Y-44668825D01*
X60291175Y-44867416D01*
X60510752Y-45042523D01*
X60748555Y-45191945D01*
X61001592Y-45313801D01*
X61168438Y-45372183D01*
X61266670Y-45406556D01*
X61266682Y-45406560D01*
X61540491Y-45469055D01*
X61540497Y-45469055D01*
X61540505Y-45469057D01*
X61726547Y-45490018D01*
X61819569Y-45500499D01*
X61819572Y-45500500D01*
X61819575Y-45500500D01*
X62100428Y-45500500D01*
X62100429Y-45500499D01*
X62243055Y-45484429D01*
X62379494Y-45469057D01*
X62379499Y-45469056D01*
X62379509Y-45469055D01*
X62653318Y-45406560D01*
X62918408Y-45313801D01*
X63171445Y-45191945D01*
X63409248Y-45042523D01*
X63628825Y-44867416D01*
X63788319Y-44707922D01*
X63849642Y-44674437D01*
X63919334Y-44679421D01*
X63975267Y-44721293D01*
X63999684Y-44786757D01*
X64000000Y-44795603D01*
X64000000Y-63876000D01*
X63980315Y-63943039D01*
X63927511Y-63988794D01*
X63876000Y-64000000D01*
X16124000Y-64000000D01*
X16056961Y-63980315D01*
X16011206Y-63927511D01*
X16000000Y-63876000D01*
X16000000Y-61374900D01*
X30953670Y-61374900D01*
X31896554Y-61374900D01*
X31858070Y-61441557D01*
X31825700Y-61562365D01*
X31825700Y-61687435D01*
X31858070Y-61808243D01*
X31896554Y-61874900D01*
X30953670Y-61874900D01*
X30983942Y-62066027D01*
X30983942Y-62066030D01*
X31049604Y-62268117D01*
X31146079Y-62457457D01*
X31270972Y-62629359D01*
X31270976Y-62629364D01*
X31421235Y-62779623D01*
X31421240Y-62779627D01*
X31593142Y-62904520D01*
X31782482Y-63000995D01*
X31984571Y-63066657D01*
X32050700Y-63077131D01*
X32050700Y-62029045D01*
X32117357Y-62067530D01*
X32238165Y-62099900D01*
X32363235Y-62099900D01*
X32484043Y-62067530D01*
X32550700Y-62029045D01*
X32550700Y-63077130D01*
X32616826Y-63066657D01*
X32616829Y-63066657D01*
X32818917Y-63000995D01*
X33008257Y-62904520D01*
X33180159Y-62779627D01*
X33180164Y-62779623D01*
X33330421Y-62629366D01*
X33450071Y-62464681D01*
X33505401Y-62422015D01*
X33575014Y-62416036D01*
X33636810Y-62448641D01*
X33650708Y-62464681D01*
X33770590Y-62629685D01*
X33770594Y-62629690D01*
X33920913Y-62780009D01*
X34092879Y-62904948D01*
X34092881Y-62904949D01*
X34092884Y-62904951D01*
X34282288Y-63001457D01*
X34484457Y-63067146D01*
X34694413Y-63100400D01*
X34694414Y-63100400D01*
X34906986Y-63100400D01*
X34906987Y-63100400D01*
X35116943Y-63067146D01*
X35319112Y-63001457D01*
X35508516Y-62904951D01*
X35530489Y-62888986D01*
X35680486Y-62780009D01*
X35680488Y-62780006D01*
X35680492Y-62780004D01*
X35830804Y-62629692D01*
X35950383Y-62465104D01*
X36005711Y-62422440D01*
X36075324Y-62416461D01*
X36137120Y-62449066D01*
X36151013Y-62465099D01*
X36270354Y-62629359D01*
X36270596Y-62629692D01*
X36420913Y-62780009D01*
X36592879Y-62904948D01*
X36592881Y-62904949D01*
X36592884Y-62904951D01*
X36782288Y-63001457D01*
X36984457Y-63067146D01*
X37194413Y-63100400D01*
X37194414Y-63100400D01*
X37406986Y-63100400D01*
X37406987Y-63100400D01*
X37616943Y-63067146D01*
X37819112Y-63001457D01*
X38008516Y-62904951D01*
X38030489Y-62888986D01*
X38180486Y-62780009D01*
X38180488Y-62780006D01*
X38180492Y-62780004D01*
X38330804Y-62629692D01*
X38450383Y-62465104D01*
X38505711Y-62422440D01*
X38575324Y-62416461D01*
X38637120Y-62449066D01*
X38651013Y-62465099D01*
X38770354Y-62629359D01*
X38770596Y-62629692D01*
X38920913Y-62780009D01*
X39092879Y-62904948D01*
X39092881Y-62904949D01*
X39092884Y-62904951D01*
X39282288Y-63001457D01*
X39484457Y-63067146D01*
X39694413Y-63100400D01*
X39694414Y-63100400D01*
X39906986Y-63100400D01*
X39906987Y-63100400D01*
X40116943Y-63067146D01*
X40319112Y-63001457D01*
X40508516Y-62904951D01*
X40530489Y-62888986D01*
X40680486Y-62780009D01*
X40680488Y-62780006D01*
X40680492Y-62780004D01*
X40830804Y-62629692D01*
X40950383Y-62465104D01*
X41005711Y-62422440D01*
X41075324Y-62416461D01*
X41137120Y-62449066D01*
X41151013Y-62465099D01*
X41270354Y-62629359D01*
X41270596Y-62629692D01*
X41420913Y-62780009D01*
X41592879Y-62904948D01*
X41592881Y-62904949D01*
X41592884Y-62904951D01*
X41782288Y-63001457D01*
X41984457Y-63067146D01*
X42194413Y-63100400D01*
X42194414Y-63100400D01*
X42406986Y-63100400D01*
X42406987Y-63100400D01*
X42616943Y-63067146D01*
X42819112Y-63001457D01*
X43008516Y-62904951D01*
X43030489Y-62888986D01*
X43180486Y-62780009D01*
X43180488Y-62780006D01*
X43180492Y-62780004D01*
X43330804Y-62629692D01*
X43450383Y-62465104D01*
X43505711Y-62422440D01*
X43575324Y-62416461D01*
X43637120Y-62449066D01*
X43651013Y-62465099D01*
X43770354Y-62629359D01*
X43770596Y-62629692D01*
X43920913Y-62780009D01*
X44092879Y-62904948D01*
X44092881Y-62904949D01*
X44092884Y-62904951D01*
X44282288Y-63001457D01*
X44484457Y-63067146D01*
X44694413Y-63100400D01*
X44694414Y-63100400D01*
X44906986Y-63100400D01*
X44906987Y-63100400D01*
X45116943Y-63067146D01*
X45319112Y-63001457D01*
X45483164Y-62917868D01*
X45551830Y-62904973D01*
X45616570Y-62931249D01*
X45627137Y-62940673D01*
X46077484Y-63391020D01*
X46077486Y-63391021D01*
X46077490Y-63391024D01*
X46214409Y-63470073D01*
X46214416Y-63470077D01*
X46367143Y-63511001D01*
X46367145Y-63511001D01*
X46532854Y-63511001D01*
X46532870Y-63511000D01*
X48112431Y-63511000D01*
X48112447Y-63511001D01*
X48120043Y-63511001D01*
X48278154Y-63511001D01*
X48278157Y-63511001D01*
X48430885Y-63470077D01*
X48481004Y-63441139D01*
X48567816Y-63391020D01*
X48679620Y-63279216D01*
X48679620Y-63279214D01*
X48689828Y-63269007D01*
X48689830Y-63269004D01*
X51016806Y-60942028D01*
X51016811Y-60942024D01*
X51027014Y-60931820D01*
X51027016Y-60931820D01*
X51138820Y-60820016D01*
X51215681Y-60686888D01*
X51217877Y-60683085D01*
X51258801Y-60530357D01*
X51258801Y-60372243D01*
X51258801Y-60364648D01*
X51258800Y-60364630D01*
X51258800Y-56992503D01*
X51278485Y-56925464D01*
X51331289Y-56879709D01*
X51400447Y-56869765D01*
X51421112Y-56874570D01*
X51488795Y-56896562D01*
X51525465Y-56908477D01*
X51626557Y-56924488D01*
X51727648Y-56940500D01*
X51727649Y-56940500D01*
X51932351Y-56940500D01*
X51932352Y-56940500D01*
X52134534Y-56908477D01*
X52329219Y-56845220D01*
X52511610Y-56752287D01*
X52677219Y-56631966D01*
X52809574Y-56499610D01*
X52870893Y-56466128D01*
X52940585Y-56471112D01*
X52996519Y-56512983D01*
X53014957Y-56548287D01*
X53035185Y-56609331D01*
X53035186Y-56609333D01*
X53035187Y-56609336D01*
X53049149Y-56631972D01*
X53127288Y-56758656D01*
X53251344Y-56882712D01*
X53400666Y-56974814D01*
X53567203Y-57029999D01*
X53669991Y-57040500D01*
X55070008Y-57040499D01*
X55172797Y-57029999D01*
X55339334Y-56974814D01*
X55488656Y-56882712D01*
X55612712Y-56758656D01*
X55704814Y-56609334D01*
X55759999Y-56442797D01*
X55770500Y-56340009D01*
X55770499Y-54939992D01*
X55767024Y-54905978D01*
X55759999Y-54837203D01*
X55759998Y-54837200D01*
X55745301Y-54792847D01*
X55704814Y-54670666D01*
X55612712Y-54521344D01*
X55488656Y-54397288D01*
X55345002Y-54308682D01*
X55339336Y-54305187D01*
X55339331Y-54305185D01*
X55337862Y-54304698D01*
X55172797Y-54250001D01*
X55172795Y-54250000D01*
X55070016Y-54239500D01*
X55070009Y-54239500D01*
X54333600Y-54239500D01*
X54266561Y-54219815D01*
X54220806Y-54167011D01*
X54209600Y-54115500D01*
X54209600Y-51517567D01*
X54229285Y-51450528D01*
X54282089Y-51404773D01*
X54351247Y-51394829D01*
X54371909Y-51399633D01*
X54506405Y-51443334D01*
X54568631Y-51463553D01*
X54801903Y-51500500D01*
X54801908Y-51500500D01*
X55038097Y-51500500D01*
X55271368Y-51463553D01*
X55304468Y-51452798D01*
X55495992Y-51390568D01*
X55706433Y-51283343D01*
X55897510Y-51144517D01*
X56064517Y-50977510D01*
X56089682Y-50942872D01*
X56145011Y-50900207D01*
X56214625Y-50894228D01*
X56276420Y-50926833D01*
X56290315Y-50942870D01*
X56315483Y-50977510D01*
X56482490Y-51144517D01*
X56673567Y-51283343D01*
X56765337Y-51330102D01*
X56884003Y-51390566D01*
X56884005Y-51390566D01*
X56884008Y-51390568D01*
X56976292Y-51420553D01*
X57108631Y-51463553D01*
X57341903Y-51500500D01*
X57341908Y-51500500D01*
X57578097Y-51500500D01*
X57684126Y-51483705D01*
X57811368Y-51463553D01*
X57937566Y-51422547D01*
X58007404Y-51420553D01*
X58063563Y-51452798D01*
X61042398Y-54431633D01*
X61075883Y-54492956D01*
X61070899Y-54562648D01*
X61042398Y-54606995D01*
X60921756Y-54727636D01*
X60921752Y-54727641D01*
X60792187Y-54905974D01*
X60692104Y-55102393D01*
X60692103Y-55102396D01*
X60623985Y-55312047D01*
X60589500Y-55529778D01*
X60589500Y-55750221D01*
X60623985Y-55967952D01*
X60692103Y-56177603D01*
X60692104Y-56177606D01*
X60738265Y-56268199D01*
X60774854Y-56340009D01*
X60792187Y-56374025D01*
X60921752Y-56552358D01*
X60921756Y-56552363D01*
X61077636Y-56708243D01*
X61077641Y-56708247D01*
X61215688Y-56808543D01*
X61255978Y-56837815D01*
X61384375Y-56903237D01*
X61452393Y-56937895D01*
X61452396Y-56937896D01*
X61557221Y-56971955D01*
X61662049Y-57006015D01*
X61879778Y-57040500D01*
X61879779Y-57040500D01*
X62100221Y-57040500D01*
X62100222Y-57040500D01*
X62317951Y-57006015D01*
X62527606Y-56937895D01*
X62724022Y-56837815D01*
X62902365Y-56708242D01*
X63058242Y-56552365D01*
X63187815Y-56374022D01*
X63287895Y-56177606D01*
X63356015Y-55967951D01*
X63390500Y-55750222D01*
X63390500Y-55529778D01*
X63356015Y-55312049D01*
X63288127Y-55103107D01*
X63287896Y-55102396D01*
X63287895Y-55102393D01*
X63253237Y-55034375D01*
X63187815Y-54905978D01*
X63137848Y-54837204D01*
X63058247Y-54727641D01*
X63058243Y-54727636D01*
X62902363Y-54571756D01*
X62902358Y-54571752D01*
X62724025Y-54442187D01*
X62724024Y-54442186D01*
X62724022Y-54442185D01*
X62615859Y-54387072D01*
X62565065Y-54339099D01*
X62552381Y-54308682D01*
X62552370Y-54308641D01*
X62549577Y-54298216D01*
X62531301Y-54266561D01*
X62470524Y-54161290D01*
X62470521Y-54161286D01*
X62470520Y-54161284D01*
X62358716Y-54049480D01*
X62358715Y-54049479D01*
X62354385Y-54045149D01*
X62354374Y-54045139D01*
X60020916Y-51711681D01*
X59987431Y-51650358D01*
X59992415Y-51580666D01*
X60034287Y-51524733D01*
X60099751Y-51500316D01*
X60108597Y-51500000D01*
X60118052Y-51500000D01*
X60351247Y-51463065D01*
X60575802Y-51390102D01*
X60786163Y-51282918D01*
X60786169Y-51282914D01*
X60869104Y-51222658D01*
X60869105Y-51222658D01*
X60129408Y-50482962D01*
X60192993Y-50465925D01*
X60307007Y-50400099D01*
X60400099Y-50307007D01*
X60465925Y-50192993D01*
X60482962Y-50129408D01*
X61222658Y-50869105D01*
X61222658Y-50869104D01*
X61282914Y-50786169D01*
X61282918Y-50786163D01*
X61390102Y-50575802D01*
X61463065Y-50351247D01*
X61500000Y-50118052D01*
X61500000Y-49881947D01*
X61463065Y-49648752D01*
X61390102Y-49424197D01*
X61282914Y-49213828D01*
X61222658Y-49130894D01*
X61222658Y-49130893D01*
X60482962Y-49870590D01*
X60465925Y-49807007D01*
X60400099Y-49692993D01*
X60307007Y-49599901D01*
X60192993Y-49534075D01*
X60129409Y-49517037D01*
X60869105Y-48777340D01*
X60869104Y-48777338D01*
X60786174Y-48717087D01*
X60575802Y-48609897D01*
X60351247Y-48536934D01*
X60351248Y-48536934D01*
X60118052Y-48500000D01*
X59881948Y-48500000D01*
X59648752Y-48536934D01*
X59424197Y-48609897D01*
X59213830Y-48717084D01*
X59130894Y-48777340D01*
X59870591Y-49517037D01*
X59807007Y-49534075D01*
X59692993Y-49599901D01*
X59599901Y-49692993D01*
X59534075Y-49807007D01*
X59517037Y-49870591D01*
X58777340Y-49130893D01*
X58757593Y-49132448D01*
X58753860Y-49131663D01*
X58750222Y-49132808D01*
X58719936Y-49124537D01*
X58689215Y-49118084D01*
X58685429Y-49115114D01*
X58682821Y-49114402D01*
X58673431Y-49105701D01*
X58655712Y-49091800D01*
X58651370Y-49086978D01*
X58604517Y-49022490D01*
X58437510Y-48855483D01*
X58246433Y-48716657D01*
X58035996Y-48609433D01*
X57811368Y-48536446D01*
X57578097Y-48499500D01*
X57578092Y-48499500D01*
X57341908Y-48499500D01*
X57341903Y-48499500D01*
X57108631Y-48536446D01*
X56884003Y-48609433D01*
X56673566Y-48716657D01*
X56654161Y-48730756D01*
X56482490Y-48855483D01*
X56482488Y-48855485D01*
X56482487Y-48855485D01*
X56315484Y-49022488D01*
X56290318Y-49057127D01*
X56234987Y-49099792D01*
X56165374Y-49105771D01*
X56103579Y-49073165D01*
X56089682Y-49057127D01*
X56064517Y-49022490D01*
X55897510Y-48855483D01*
X55706433Y-48716657D01*
X55495996Y-48609433D01*
X55271368Y-48536446D01*
X55038097Y-48499500D01*
X55038092Y-48499500D01*
X54801908Y-48499500D01*
X54801903Y-48499500D01*
X54568630Y-48536447D01*
X54568627Y-48536447D01*
X54371918Y-48600363D01*
X54302077Y-48602358D01*
X54242244Y-48566278D01*
X54211416Y-48503577D01*
X54209600Y-48482432D01*
X54209600Y-47564496D01*
X54229285Y-47497457D01*
X54245914Y-47476820D01*
X55647406Y-46075327D01*
X55647411Y-46075324D01*
X55657614Y-46065120D01*
X55657616Y-46065120D01*
X55769420Y-45953316D01*
X55832269Y-45844457D01*
X55848477Y-45816385D01*
X55889401Y-45663657D01*
X55889401Y-45505543D01*
X55889401Y-45497948D01*
X55889400Y-45497930D01*
X55889400Y-35057959D01*
X55889401Y-35057946D01*
X55889401Y-34889845D01*
X55889401Y-34889843D01*
X55848477Y-34737115D01*
X55798470Y-34650501D01*
X55787110Y-34630826D01*
X55770499Y-34568828D01*
X55770499Y-33349998D01*
X55770498Y-33349981D01*
X55759999Y-33247203D01*
X55759998Y-33247200D01*
X55752965Y-33225977D01*
X55704814Y-33080666D01*
X55612712Y-32931344D01*
X55488656Y-32807288D01*
X55339334Y-32715186D01*
X55172797Y-32660001D01*
X55172795Y-32660000D01*
X55070010Y-32649500D01*
X53669998Y-32649500D01*
X53669981Y-32649501D01*
X53567203Y-32660000D01*
X53567200Y-32660001D01*
X53400668Y-32715185D01*
X53400663Y-32715187D01*
X53251342Y-32807289D01*
X53127289Y-32931342D01*
X53035187Y-33080663D01*
X53035186Y-33080666D01*
X53014958Y-33141710D01*
X52975184Y-33199155D01*
X52910668Y-33225977D01*
X52841893Y-33213661D01*
X52809571Y-33190386D01*
X52677213Y-33058028D01*
X52511610Y-32937712D01*
X52498200Y-32930879D01*
X52447406Y-32882903D01*
X52430500Y-32820397D01*
X52430500Y-31810096D01*
X52450185Y-31743057D01*
X52466814Y-31722420D01*
X53766437Y-30422796D01*
X53827758Y-30389313D01*
X53892433Y-30392547D01*
X54018632Y-30433553D01*
X54106110Y-30447408D01*
X54251903Y-30470500D01*
X54251908Y-30470500D01*
X54488097Y-30470500D01*
X54721368Y-30433553D01*
X54754468Y-30422798D01*
X54945992Y-30360568D01*
X55156433Y-30253343D01*
X55347510Y-30114517D01*
X55514517Y-29947510D01*
X55539682Y-29912872D01*
X55595011Y-29870207D01*
X55664625Y-29864228D01*
X55726420Y-29896833D01*
X55740315Y-29912870D01*
X55765483Y-29947510D01*
X55932490Y-30114517D01*
X56123567Y-30253343D01*
X56222991Y-30304002D01*
X56334003Y-30360566D01*
X56334005Y-30360566D01*
X56334008Y-30360568D01*
X56422476Y-30389313D01*
X56558631Y-30433553D01*
X56791903Y-30470500D01*
X56791908Y-30470500D01*
X57028097Y-30470500D01*
X57134126Y-30453705D01*
X57261368Y-30433553D01*
X57387566Y-30392547D01*
X57457404Y-30390553D01*
X57513563Y-30422798D01*
X60616561Y-33525796D01*
X60650046Y-33587119D01*
X60646811Y-33651794D01*
X60623985Y-33722045D01*
X60589500Y-33939778D01*
X60589500Y-34160221D01*
X60623985Y-34377952D01*
X60692103Y-34587603D01*
X60692104Y-34587606D01*
X60724152Y-34650502D01*
X60774854Y-34750009D01*
X60792187Y-34784025D01*
X60921752Y-34962358D01*
X60921756Y-34962363D01*
X61077636Y-35118243D01*
X61077641Y-35118247D01*
X61233192Y-35231260D01*
X61255978Y-35247815D01*
X61363004Y-35302348D01*
X61452393Y-35347895D01*
X61452396Y-35347896D01*
X61543304Y-35377433D01*
X61662049Y-35416015D01*
X61879778Y-35450500D01*
X61879779Y-35450500D01*
X62100221Y-35450500D01*
X62100222Y-35450500D01*
X62317951Y-35416015D01*
X62527606Y-35347895D01*
X62724022Y-35247815D01*
X62902365Y-35118242D01*
X63058242Y-34962365D01*
X63187815Y-34784022D01*
X63287895Y-34587606D01*
X63356015Y-34377951D01*
X63390500Y-34160222D01*
X63390500Y-33939778D01*
X63356015Y-33722049D01*
X63288127Y-33513107D01*
X63287896Y-33512396D01*
X63287895Y-33512393D01*
X63253237Y-33444375D01*
X63187815Y-33315978D01*
X63137848Y-33247204D01*
X63058247Y-33137641D01*
X63058243Y-33137636D01*
X62902363Y-32981756D01*
X62902358Y-32981752D01*
X62724025Y-32852187D01*
X62724024Y-32852186D01*
X62724022Y-32852185D01*
X62635908Y-32807288D01*
X62527606Y-32752104D01*
X62527603Y-32752103D01*
X62317952Y-32683985D01*
X62166516Y-32660000D01*
X62100222Y-32649500D01*
X61879778Y-32649500D01*
X61836232Y-32656397D01*
X61662045Y-32683985D01*
X61591794Y-32706811D01*
X61521953Y-32708806D01*
X61465796Y-32676561D01*
X59470916Y-30681681D01*
X59437431Y-30620358D01*
X59442415Y-30550666D01*
X59484287Y-30494733D01*
X59549751Y-30470316D01*
X59558597Y-30470000D01*
X59568052Y-30470000D01*
X59801247Y-30433065D01*
X60025802Y-30360102D01*
X60236163Y-30252918D01*
X60236169Y-30252914D01*
X60319104Y-30192658D01*
X60319105Y-30192658D01*
X59579408Y-29452962D01*
X59642993Y-29435925D01*
X59757007Y-29370099D01*
X59850099Y-29277007D01*
X59915925Y-29162993D01*
X59932962Y-29099409D01*
X60672658Y-29839105D01*
X60672658Y-29839104D01*
X60732914Y-29756169D01*
X60732918Y-29756163D01*
X60840102Y-29545802D01*
X60913065Y-29321247D01*
X60950000Y-29088052D01*
X60950000Y-28851947D01*
X60913065Y-28618752D01*
X60840102Y-28394197D01*
X60732914Y-28183828D01*
X60672658Y-28100894D01*
X60672658Y-28100893D01*
X59932962Y-28840590D01*
X59915925Y-28777007D01*
X59850099Y-28662993D01*
X59757007Y-28569901D01*
X59642993Y-28504075D01*
X59579409Y-28487037D01*
X60319105Y-27747340D01*
X60319104Y-27747338D01*
X60236174Y-27687087D01*
X60025802Y-27579897D01*
X59801247Y-27506934D01*
X59801248Y-27506934D01*
X59568052Y-27470000D01*
X59331948Y-27470000D01*
X59098752Y-27506934D01*
X58874197Y-27579897D01*
X58663830Y-27687084D01*
X58580894Y-27747340D01*
X59320591Y-28487037D01*
X59257007Y-28504075D01*
X59142993Y-28569901D01*
X59049901Y-28662993D01*
X58984075Y-28777007D01*
X58967037Y-28840591D01*
X58227340Y-28100893D01*
X58207593Y-28102448D01*
X58203860Y-28101663D01*
X58200222Y-28102808D01*
X58169936Y-28094537D01*
X58139215Y-28088084D01*
X58135429Y-28085114D01*
X58132821Y-28084402D01*
X58123431Y-28075701D01*
X58105712Y-28061800D01*
X58101370Y-28056978D01*
X58054517Y-27992490D01*
X57887510Y-27825483D01*
X57696433Y-27686657D01*
X57485996Y-27579433D01*
X57261368Y-27506446D01*
X57028097Y-27469500D01*
X57028092Y-27469500D01*
X56791908Y-27469500D01*
X56791903Y-27469500D01*
X56558631Y-27506446D01*
X56334003Y-27579433D01*
X56123566Y-27686657D01*
X56040047Y-27747338D01*
X55932490Y-27825483D01*
X55932488Y-27825485D01*
X55932487Y-27825485D01*
X55765484Y-27992488D01*
X55765483Y-27992490D01*
X55741135Y-28026003D01*
X55740318Y-28027127D01*
X55684987Y-28069792D01*
X55615374Y-28075771D01*
X55553579Y-28043165D01*
X55539682Y-28027127D01*
X55514517Y-27992490D01*
X55347510Y-27825483D01*
X55156433Y-27686657D01*
X54945996Y-27579433D01*
X54721368Y-27506446D01*
X54488097Y-27469500D01*
X54488092Y-27469500D01*
X54251908Y-27469500D01*
X54251903Y-27469500D01*
X54018631Y-27506446D01*
X53794003Y-27579433D01*
X53583566Y-27686657D01*
X53500047Y-27747338D01*
X53392490Y-27825483D01*
X53392488Y-27825485D01*
X53392487Y-27825485D01*
X53225485Y-27992487D01*
X53225485Y-27992488D01*
X53225483Y-27992490D01*
X53175126Y-28061800D01*
X53086657Y-28183566D01*
X52979433Y-28394003D01*
X52906446Y-28618631D01*
X52869500Y-28851902D01*
X52869500Y-29088097D01*
X52906447Y-29321369D01*
X52906447Y-29321372D01*
X52947450Y-29447564D01*
X52949445Y-29517405D01*
X52917200Y-29573563D01*
X51461286Y-31029478D01*
X51349481Y-31141282D01*
X51349479Y-31141285D01*
X51299361Y-31228094D01*
X51299359Y-31228096D01*
X51270425Y-31278209D01*
X51270424Y-31278210D01*
X51254544Y-31337472D01*
X51229499Y-31430943D01*
X51229499Y-31430945D01*
X51229499Y-31599046D01*
X51229500Y-31599059D01*
X51229500Y-32820397D01*
X51209815Y-32887436D01*
X51161800Y-32930879D01*
X51148389Y-32937712D01*
X50982786Y-33058028D01*
X50838028Y-33202786D01*
X50717715Y-33368386D01*
X50624781Y-33550776D01*
X50561522Y-33745465D01*
X50529500Y-33947648D01*
X50529500Y-34152351D01*
X50561522Y-34354534D01*
X50566173Y-34368848D01*
X50568165Y-34438690D01*
X50535921Y-34494842D01*
X50289586Y-34741178D01*
X50177781Y-34852982D01*
X50177779Y-34852985D01*
X50161540Y-34881112D01*
X50135811Y-34925678D01*
X50127661Y-34939794D01*
X50127659Y-34939796D01*
X50098725Y-34989909D01*
X50098724Y-34989910D01*
X50084776Y-35041966D01*
X50057799Y-35142643D01*
X50057799Y-35142645D01*
X50057799Y-35310746D01*
X50057800Y-35310759D01*
X50057800Y-39626873D01*
X50038115Y-39693912D01*
X49985311Y-39739667D01*
X49916153Y-39749611D01*
X49871802Y-39734261D01*
X49859788Y-39727325D01*
X49859786Y-39727324D01*
X49859784Y-39727323D01*
X49707057Y-39686400D01*
X49548943Y-39686400D01*
X49396216Y-39727323D01*
X49396207Y-39727326D01*
X49395672Y-39727636D01*
X49395163Y-39727759D01*
X49388706Y-39730434D01*
X49388288Y-39729426D01*
X49327770Y-39744103D01*
X49261745Y-39721245D01*
X49223196Y-39676539D01*
X49217815Y-39665978D01*
X49135573Y-39552781D01*
X49088247Y-39487641D01*
X49088243Y-39487636D01*
X48932363Y-39331756D01*
X48932358Y-39331752D01*
X48754025Y-39202187D01*
X48754024Y-39202186D01*
X48754022Y-39202185D01*
X48691096Y-39170122D01*
X48557606Y-39102104D01*
X48557603Y-39102103D01*
X48347952Y-39033985D01*
X48239086Y-39016742D01*
X48130222Y-38999500D01*
X47909778Y-38999500D01*
X47837201Y-39010995D01*
X47692047Y-39033985D01*
X47482396Y-39102103D01*
X47482393Y-39102104D01*
X47285974Y-39202187D01*
X47107641Y-39331752D01*
X47107636Y-39331756D01*
X47057463Y-39381929D01*
X46996140Y-39415413D01*
X46926448Y-39410428D01*
X46870515Y-39368557D01*
X46853601Y-39337580D01*
X46823797Y-39257671D01*
X46823793Y-39257664D01*
X46737547Y-39142455D01*
X46737544Y-39142452D01*
X46622335Y-39056206D01*
X46622328Y-39056202D01*
X46487482Y-39005908D01*
X46487483Y-39005908D01*
X46427883Y-38999501D01*
X46427881Y-38999500D01*
X46427873Y-38999500D01*
X46427864Y-38999500D01*
X44532129Y-38999500D01*
X44532123Y-38999501D01*
X44472516Y-39005908D01*
X44337671Y-39056202D01*
X44337664Y-39056206D01*
X44222455Y-39142452D01*
X44222452Y-39142455D01*
X44136206Y-39257664D01*
X44136202Y-39257671D01*
X44085908Y-39392517D01*
X44079501Y-39452116D01*
X44079500Y-39452135D01*
X44079500Y-41347870D01*
X44079501Y-41347876D01*
X44085908Y-41407483D01*
X44136202Y-41542328D01*
X44136206Y-41542335D01*
X44222452Y-41657544D01*
X44222455Y-41657547D01*
X44337664Y-41743793D01*
X44337671Y-41743797D01*
X44382618Y-41760561D01*
X44472517Y-41794091D01*
X44532127Y-41800500D01*
X44829787Y-41800499D01*
X44896826Y-41820183D01*
X44937174Y-41862499D01*
X44999477Y-41970412D01*
X44999481Y-41970417D01*
X45118349Y-42089285D01*
X45118355Y-42089290D01*
X47383181Y-44354116D01*
X47416666Y-44415439D01*
X47419500Y-44441797D01*
X47419500Y-46677884D01*
X47413978Y-46696687D01*
X47413406Y-46716280D01*
X47404336Y-46729524D01*
X47399815Y-46744923D01*
X47385004Y-46757756D01*
X47373930Y-46773929D01*
X47351464Y-46786819D01*
X47347011Y-46790678D01*
X47343694Y-46792135D01*
X47341260Y-46793161D01*
X47252669Y-46826204D01*
X47239423Y-46836119D01*
X47225447Y-46842015D01*
X47205193Y-46844325D01*
X47186090Y-46851449D01*
X47168186Y-46848547D01*
X47156028Y-46849934D01*
X47145865Y-46844928D01*
X47129800Y-46842325D01*
X47049127Y-46808909D01*
X47049119Y-46808907D01*
X46851007Y-46769500D01*
X46851003Y-46769500D01*
X46648997Y-46769500D01*
X46648992Y-46769500D01*
X46450880Y-46808907D01*
X46450872Y-46808909D01*
X46264243Y-46886214D01*
X46183439Y-46940204D01*
X46116761Y-46961081D01*
X46049382Y-46942595D01*
X46045659Y-46940203D01*
X45965526Y-46886659D01*
X45965513Y-46886652D01*
X45778984Y-46809390D01*
X45778977Y-46809388D01*
X45730000Y-46799645D01*
X45730000Y-47654134D01*
X45727617Y-47678326D01*
X45724500Y-47693995D01*
X45724500Y-47734170D01*
X45710255Y-47719925D01*
X45624745Y-47670556D01*
X45529370Y-47645000D01*
X45430630Y-47645000D01*
X45335255Y-47670556D01*
X45249745Y-47719925D01*
X45230000Y-47739670D01*
X45230000Y-46799646D01*
X45229999Y-46799645D01*
X45181022Y-46809388D01*
X45181015Y-46809390D01*
X44994486Y-46886652D01*
X44994473Y-46886659D01*
X44826600Y-46998829D01*
X44826596Y-46998832D01*
X44683832Y-47141596D01*
X44683829Y-47141600D01*
X44571659Y-47309473D01*
X44571652Y-47309486D01*
X44494390Y-47496016D01*
X44494387Y-47496025D01*
X44455000Y-47694041D01*
X44455000Y-47770000D01*
X45199670Y-47770000D01*
X45179925Y-47789745D01*
X45130556Y-47875255D01*
X45105000Y-47970630D01*
X45105000Y-48069370D01*
X45130556Y-48164745D01*
X45179925Y-48250255D01*
X45199670Y-48270000D01*
X44455000Y-48270000D01*
X44455000Y-48345958D01*
X44494387Y-48543974D01*
X44494390Y-48543983D01*
X44571652Y-48730513D01*
X44571659Y-48730526D01*
X44683829Y-48898399D01*
X44683832Y-48898403D01*
X44826596Y-49041167D01*
X44826600Y-49041170D01*
X44994473Y-49153340D01*
X44994486Y-49153347D01*
X45181016Y-49230609D01*
X45181025Y-49230612D01*
X45230000Y-49240353D01*
X45230000Y-48300330D01*
X45249745Y-48320075D01*
X45335255Y-48369444D01*
X45430630Y-48395000D01*
X45529370Y-48395000D01*
X45624745Y-48369444D01*
X45710255Y-48320075D01*
X45724500Y-48305830D01*
X45724500Y-48346002D01*
X45727617Y-48361671D01*
X45730000Y-48385865D01*
X45730000Y-49240352D01*
X45778974Y-49230612D01*
X45778983Y-49230609D01*
X45965506Y-49153350D01*
X45967029Y-49152536D01*
X45967920Y-49152350D01*
X45971149Y-49151013D01*
X45971402Y-49151624D01*
X46035430Y-49138283D01*
X46100678Y-49163273D01*
X46142057Y-49219572D01*
X46149500Y-49261885D01*
X46149500Y-50259902D01*
X46129815Y-50326941D01*
X46113181Y-50347583D01*
X42114842Y-54345921D01*
X42053519Y-54379406D01*
X41988848Y-54376173D01*
X41974534Y-54371522D01*
X41788799Y-54342105D01*
X41772352Y-54339500D01*
X41567648Y-54339500D01*
X41551201Y-54342105D01*
X41365465Y-54371522D01*
X41170776Y-54434781D01*
X40988386Y-54527715D01*
X40822786Y-54648028D01*
X40678028Y-54792786D01*
X40557715Y-54958386D01*
X40464781Y-55140776D01*
X40401522Y-55335465D01*
X40369500Y-55537648D01*
X40369500Y-55742351D01*
X40401522Y-55944534D01*
X40464781Y-56139223D01*
X40557715Y-56321613D01*
X40678028Y-56487213D01*
X40822786Y-56631971D01*
X40977749Y-56744556D01*
X40988390Y-56752287D01*
X41104607Y-56811503D01*
X41170776Y-56845218D01*
X41170778Y-56845218D01*
X41170781Y-56845220D01*
X41246323Y-56869765D01*
X41365465Y-56908477D01*
X41466557Y-56924488D01*
X41567648Y-56940500D01*
X41567649Y-56940500D01*
X41772351Y-56940500D01*
X41772352Y-56940500D01*
X41974534Y-56908477D01*
X42169219Y-56845220D01*
X42351610Y-56752287D01*
X42444590Y-56684732D01*
X42517213Y-56631971D01*
X42517215Y-56631968D01*
X42517219Y-56631966D01*
X42661966Y-56487219D01*
X42661968Y-56487215D01*
X42661971Y-56487213D01*
X42714732Y-56414590D01*
X42782287Y-56321610D01*
X42875220Y-56139219D01*
X42938477Y-55944534D01*
X42970500Y-55742352D01*
X42970500Y-55537648D01*
X42938477Y-55335466D01*
X42933825Y-55321151D01*
X42931832Y-55251312D01*
X42964075Y-55195158D01*
X47108506Y-51050728D01*
X47108511Y-51050724D01*
X47118714Y-51040520D01*
X47118716Y-51040520D01*
X47230520Y-50928716D01*
X47289458Y-50826632D01*
X47300475Y-50807551D01*
X47309574Y-50791790D01*
X47309575Y-50791789D01*
X47309575Y-50791787D01*
X47309577Y-50791785D01*
X47350501Y-50639057D01*
X47350501Y-50480943D01*
X47350501Y-50473348D01*
X47350500Y-50473330D01*
X47350500Y-49394499D01*
X47370185Y-49327460D01*
X47422989Y-49281705D01*
X47474495Y-49270499D01*
X48592872Y-49270499D01*
X48652483Y-49264091D01*
X48787331Y-49213796D01*
X48829190Y-49182460D01*
X48894652Y-49158043D01*
X48962925Y-49172894D01*
X49012331Y-49222298D01*
X49027500Y-49281727D01*
X49027500Y-58997502D01*
X49007815Y-59064541D01*
X48991181Y-59085183D01*
X47963282Y-60113081D01*
X47901959Y-60146566D01*
X47875601Y-60149400D01*
X46650698Y-60149400D01*
X46650681Y-60149401D01*
X46547903Y-60159900D01*
X46547900Y-60159901D01*
X46381368Y-60215085D01*
X46381363Y-60215087D01*
X46232042Y-60307189D01*
X46107989Y-60431242D01*
X46012521Y-60586021D01*
X45960573Y-60632745D01*
X45891610Y-60643968D01*
X45827528Y-60616124D01*
X45819301Y-60608605D01*
X45680486Y-60469790D01*
X45508520Y-60344851D01*
X45319114Y-60248344D01*
X45319113Y-60248343D01*
X45319112Y-60248343D01*
X45116943Y-60182654D01*
X45116941Y-60182653D01*
X45116940Y-60182653D01*
X44918364Y-60151202D01*
X44906987Y-60149400D01*
X44694413Y-60149400D01*
X44683036Y-60151202D01*
X44484460Y-60182653D01*
X44282285Y-60248344D01*
X44092879Y-60344851D01*
X43920913Y-60469790D01*
X43770594Y-60620109D01*
X43770590Y-60620114D01*
X43651018Y-60784693D01*
X43595689Y-60827359D01*
X43526075Y-60833338D01*
X43464280Y-60800733D01*
X43450382Y-60784693D01*
X43330809Y-60620114D01*
X43330805Y-60620109D01*
X43180486Y-60469790D01*
X43008520Y-60344851D01*
X42819114Y-60248344D01*
X42819113Y-60248343D01*
X42819112Y-60248343D01*
X42616943Y-60182654D01*
X42616941Y-60182653D01*
X42616940Y-60182653D01*
X42418364Y-60151202D01*
X42406987Y-60149400D01*
X42194413Y-60149400D01*
X42183036Y-60151202D01*
X41984460Y-60182653D01*
X41782285Y-60248344D01*
X41592879Y-60344851D01*
X41420913Y-60469790D01*
X41270594Y-60620109D01*
X41270590Y-60620114D01*
X41151018Y-60784693D01*
X41095689Y-60827359D01*
X41026075Y-60833338D01*
X40964280Y-60800733D01*
X40950382Y-60784693D01*
X40830809Y-60620114D01*
X40830805Y-60620109D01*
X40680486Y-60469790D01*
X40508520Y-60344851D01*
X40319114Y-60248344D01*
X40319113Y-60248343D01*
X40319112Y-60248343D01*
X40116943Y-60182654D01*
X40116941Y-60182653D01*
X40116940Y-60182653D01*
X39918364Y-60151202D01*
X39906987Y-60149400D01*
X39694413Y-60149400D01*
X39683036Y-60151202D01*
X39484460Y-60182653D01*
X39282285Y-60248344D01*
X39092879Y-60344851D01*
X38920913Y-60469790D01*
X38770594Y-60620109D01*
X38770590Y-60620114D01*
X38651018Y-60784693D01*
X38595689Y-60827359D01*
X38526075Y-60833338D01*
X38464280Y-60800733D01*
X38450382Y-60784693D01*
X38330809Y-60620114D01*
X38330805Y-60620109D01*
X38180486Y-60469790D01*
X38008520Y-60344851D01*
X37819114Y-60248344D01*
X37819113Y-60248343D01*
X37819112Y-60248343D01*
X37616943Y-60182654D01*
X37616941Y-60182653D01*
X37616940Y-60182653D01*
X37418364Y-60151202D01*
X37406987Y-60149400D01*
X37194413Y-60149400D01*
X37183036Y-60151202D01*
X36984460Y-60182653D01*
X36782285Y-60248344D01*
X36592879Y-60344851D01*
X36420913Y-60469790D01*
X36270594Y-60620109D01*
X36270590Y-60620114D01*
X36151018Y-60784693D01*
X36095689Y-60827359D01*
X36026075Y-60833338D01*
X35964280Y-60800733D01*
X35950382Y-60784693D01*
X35830809Y-60620114D01*
X35830805Y-60620109D01*
X35680486Y-60469790D01*
X35508515Y-60344848D01*
X35508514Y-60344847D01*
X35468905Y-60324665D01*
X35418109Y-60276691D01*
X35401200Y-60214181D01*
X35401200Y-55537648D01*
X36559500Y-55537648D01*
X36559500Y-55742351D01*
X36591522Y-55944534D01*
X36654781Y-56139223D01*
X36747715Y-56321613D01*
X36868028Y-56487213D01*
X37012786Y-56631971D01*
X37167749Y-56744556D01*
X37178390Y-56752287D01*
X37294607Y-56811503D01*
X37360776Y-56845218D01*
X37360778Y-56845218D01*
X37360781Y-56845220D01*
X37436323Y-56869765D01*
X37555465Y-56908477D01*
X37656557Y-56924488D01*
X37757648Y-56940500D01*
X37757649Y-56940500D01*
X37962351Y-56940500D01*
X37962352Y-56940500D01*
X38164534Y-56908477D01*
X38359219Y-56845220D01*
X38541610Y-56752287D01*
X38634590Y-56684732D01*
X38707213Y-56631971D01*
X38707215Y-56631968D01*
X38707219Y-56631966D01*
X38851966Y-56487219D01*
X38851968Y-56487215D01*
X38851971Y-56487213D01*
X38904732Y-56414590D01*
X38972287Y-56321610D01*
X39065220Y-56139219D01*
X39128477Y-55944534D01*
X39160500Y-55742352D01*
X39160500Y-55537648D01*
X39128477Y-55335465D01*
X39098041Y-55241794D01*
X39065220Y-55140781D01*
X39065218Y-55140778D01*
X39065218Y-55140776D01*
X39026409Y-55064610D01*
X38972287Y-54958390D01*
X38958920Y-54939992D01*
X38851971Y-54792786D01*
X38707213Y-54648028D01*
X38541613Y-54527715D01*
X38541612Y-54527714D01*
X38541610Y-54527713D01*
X38431200Y-54471456D01*
X38359223Y-54434781D01*
X38164534Y-54371522D01*
X37978799Y-54342105D01*
X37962352Y-54339500D01*
X37757648Y-54339500D01*
X37741201Y-54342105D01*
X37555465Y-54371522D01*
X37360776Y-54434781D01*
X37178386Y-54527715D01*
X37012786Y-54648028D01*
X36868028Y-54792786D01*
X36747715Y-54958386D01*
X36654781Y-55140776D01*
X36591522Y-55335465D01*
X36559500Y-55537648D01*
X35401200Y-55537648D01*
X35401200Y-53919397D01*
X35420885Y-53852358D01*
X35437519Y-53831716D01*
X36130457Y-53138778D01*
X37415159Y-51854075D01*
X37476480Y-51820592D01*
X37541154Y-51823826D01*
X37555466Y-51828477D01*
X37757648Y-51860500D01*
X37757649Y-51860500D01*
X37962351Y-51860500D01*
X37962352Y-51860500D01*
X38164534Y-51828477D01*
X38359219Y-51765220D01*
X38541610Y-51672287D01*
X38667717Y-51580666D01*
X38707213Y-51551971D01*
X38707215Y-51551968D01*
X38707219Y-51551966D01*
X38851966Y-51407219D01*
X38851968Y-51407215D01*
X38851971Y-51407213D01*
X38908610Y-51329254D01*
X38972287Y-51241610D01*
X39065220Y-51059219D01*
X39128477Y-50864534D01*
X39160500Y-50662352D01*
X39160500Y-50457648D01*
X39143667Y-50351368D01*
X39128477Y-50255465D01*
X39082888Y-50115157D01*
X39065220Y-50060781D01*
X39065218Y-50060778D01*
X39065218Y-50060776D01*
X39031503Y-49994607D01*
X38972287Y-49878390D01*
X38964556Y-49867749D01*
X38851971Y-49712786D01*
X38707213Y-49568028D01*
X38622187Y-49506254D01*
X39936698Y-49506254D01*
X39977623Y-49658986D01*
X39977624Y-49658987D01*
X40006017Y-49708165D01*
X40028442Y-49747007D01*
X40056681Y-49795917D01*
X40175549Y-49914785D01*
X40175555Y-49914790D01*
X40375922Y-50115157D01*
X40409407Y-50176480D01*
X40406173Y-50241155D01*
X40401522Y-50255468D01*
X40369500Y-50457648D01*
X40369500Y-50662351D01*
X40401522Y-50864534D01*
X40464781Y-51059223D01*
X40517485Y-51162658D01*
X40548405Y-51223343D01*
X40557715Y-51241613D01*
X40678028Y-51407213D01*
X40822786Y-51551971D01*
X40958207Y-51650358D01*
X40988390Y-51672287D01*
X41104607Y-51731503D01*
X41170776Y-51765218D01*
X41170778Y-51765218D01*
X41170781Y-51765220D01*
X41275137Y-51799127D01*
X41365465Y-51828477D01*
X41466557Y-51844488D01*
X41567648Y-51860500D01*
X41567649Y-51860500D01*
X41772351Y-51860500D01*
X41772352Y-51860500D01*
X41974534Y-51828477D01*
X42169219Y-51765220D01*
X42351610Y-51672287D01*
X42477717Y-51580666D01*
X42517213Y-51551971D01*
X42517215Y-51551968D01*
X42517219Y-51551966D01*
X42661966Y-51407219D01*
X42661968Y-51407215D01*
X42661971Y-51407213D01*
X42718610Y-51329254D01*
X42782287Y-51241610D01*
X42875220Y-51059219D01*
X42938477Y-50864534D01*
X42970500Y-50662352D01*
X42970500Y-50457648D01*
X42953667Y-50351368D01*
X42938477Y-50255465D01*
X42892888Y-50115157D01*
X42875220Y-50060781D01*
X42875218Y-50060778D01*
X42875218Y-50060776D01*
X42841503Y-49994607D01*
X42782287Y-49878390D01*
X42774556Y-49867749D01*
X42661971Y-49712786D01*
X42517213Y-49568028D01*
X42351613Y-49447715D01*
X42351612Y-49447714D01*
X42351610Y-49447713D01*
X42294653Y-49418691D01*
X42169223Y-49354781D01*
X41974534Y-49291522D01*
X41787410Y-49261885D01*
X41772352Y-49259500D01*
X41567648Y-49259500D01*
X41538662Y-49264091D01*
X41365468Y-49291522D01*
X41356717Y-49294365D01*
X41351154Y-49296173D01*
X41335941Y-49296607D01*
X41321684Y-49301925D01*
X41301729Y-49297584D01*
X41281313Y-49298167D01*
X41267226Y-49290078D01*
X41253411Y-49287073D01*
X41225157Y-49265922D01*
X41174019Y-49214784D01*
X41140534Y-49153461D01*
X41137700Y-49127103D01*
X41137700Y-41765142D01*
X41157385Y-41698103D01*
X41210189Y-41652348D01*
X41279347Y-41642404D01*
X41300016Y-41647211D01*
X41315826Y-41652348D01*
X41365458Y-41668475D01*
X41365461Y-41668475D01*
X41365466Y-41668477D01*
X41567648Y-41700500D01*
X41567649Y-41700500D01*
X41772351Y-41700500D01*
X41772352Y-41700500D01*
X41974534Y-41668477D01*
X42169219Y-41605220D01*
X42351610Y-41512287D01*
X42444590Y-41444732D01*
X42517213Y-41391971D01*
X42517215Y-41391968D01*
X42517219Y-41391966D01*
X42661966Y-41247219D01*
X42661968Y-41247215D01*
X42661971Y-41247213D01*
X42721731Y-41164959D01*
X42782287Y-41081610D01*
X42875220Y-40899219D01*
X42938477Y-40704534D01*
X42970500Y-40502352D01*
X42970500Y-40297648D01*
X42938477Y-40095465D01*
X42875218Y-39900776D01*
X42820285Y-39792965D01*
X42782287Y-39718390D01*
X42715797Y-39626873D01*
X42661971Y-39552786D01*
X42517213Y-39408028D01*
X42351613Y-39287715D01*
X42351612Y-39287714D01*
X42351610Y-39287713D01*
X42292636Y-39257664D01*
X42169223Y-39194781D01*
X41974534Y-39131522D01*
X41788799Y-39102105D01*
X41772352Y-39099500D01*
X41567648Y-39099500D01*
X41500254Y-39110174D01*
X41365464Y-39131523D01*
X41365457Y-39131524D01*
X41300017Y-39152787D01*
X41230176Y-39154782D01*
X41170343Y-39118701D01*
X41139516Y-39056000D01*
X41137700Y-39034856D01*
X41137700Y-35415142D01*
X41157385Y-35348103D01*
X41210189Y-35302348D01*
X41279347Y-35292404D01*
X41300016Y-35297211D01*
X41310939Y-35300760D01*
X41365458Y-35318475D01*
X41365461Y-35318475D01*
X41365466Y-35318477D01*
X41567648Y-35350500D01*
X41567649Y-35350500D01*
X41772351Y-35350500D01*
X41772352Y-35350500D01*
X41974534Y-35318477D01*
X42169219Y-35255220D01*
X42351610Y-35162287D01*
X42444590Y-35094732D01*
X42517213Y-35041971D01*
X42517215Y-35041968D01*
X42517219Y-35041966D01*
X42661966Y-34897219D01*
X42661968Y-34897215D01*
X42661971Y-34897213D01*
X42714732Y-34824590D01*
X42782287Y-34731610D01*
X42875220Y-34549219D01*
X42938477Y-34354534D01*
X42970500Y-34152352D01*
X42970500Y-33947648D01*
X42938477Y-33745466D01*
X42933825Y-33731151D01*
X42931832Y-33661312D01*
X42964075Y-33605158D01*
X47108506Y-29460728D01*
X47108511Y-29460724D01*
X47118714Y-29450520D01*
X47118716Y-29450520D01*
X47230520Y-29338716D01*
X47282875Y-29248034D01*
X47309577Y-29201785D01*
X47350501Y-29049057D01*
X47350501Y-29046541D01*
X47354919Y-29033820D01*
X47372711Y-29008889D01*
X47388647Y-28982745D01*
X47392814Y-28980720D01*
X47395507Y-28976948D01*
X47423953Y-28965594D01*
X47451494Y-28952216D01*
X47459054Y-28951584D01*
X47460399Y-28951048D01*
X47461929Y-28951344D01*
X47472045Y-28950499D01*
X48592872Y-28950499D01*
X48652483Y-28944091D01*
X48787331Y-28893796D01*
X48902546Y-28807546D01*
X48988796Y-28692331D01*
X49039091Y-28557483D01*
X49045500Y-28497873D01*
X49045499Y-26902128D01*
X49039091Y-26842517D01*
X49031289Y-26821600D01*
X48988797Y-26707671D01*
X48988793Y-26707664D01*
X48902547Y-26592455D01*
X48902544Y-26592452D01*
X48787335Y-26506206D01*
X48787330Y-26506203D01*
X48701166Y-26474066D01*
X48645233Y-26432194D01*
X48620816Y-26366730D01*
X48620500Y-26357884D01*
X48620500Y-23742645D01*
X48620500Y-23742643D01*
X48579577Y-23589916D01*
X48579573Y-23589909D01*
X48500524Y-23452990D01*
X48500521Y-23452986D01*
X48500520Y-23452984D01*
X48388716Y-23341180D01*
X48388715Y-23341179D01*
X48384385Y-23336849D01*
X48384374Y-23336839D01*
X46877103Y-21829568D01*
X49909500Y-21829568D01*
X49909500Y-22110431D01*
X49940942Y-22389494D01*
X49940945Y-22389512D01*
X50003439Y-22663317D01*
X50003443Y-22663329D01*
X50096200Y-22928411D01*
X50218053Y-23181442D01*
X50218055Y-23181445D01*
X50367477Y-23419248D01*
X50542584Y-23638825D01*
X50741175Y-23837416D01*
X50960752Y-24012523D01*
X51198555Y-24161945D01*
X51451592Y-24283801D01*
X51650680Y-24353465D01*
X51716670Y-24376556D01*
X51716682Y-24376560D01*
X51990491Y-24439055D01*
X51990497Y-24439055D01*
X51990505Y-24439057D01*
X52176547Y-24460018D01*
X52269569Y-24470499D01*
X52269572Y-24470500D01*
X52269575Y-24470500D01*
X52550428Y-24470500D01*
X52550429Y-24470499D01*
X52693055Y-24454429D01*
X52829494Y-24439057D01*
X52829499Y-24439056D01*
X52829509Y-24439055D01*
X53103318Y-24376560D01*
X53368408Y-24283801D01*
X53621445Y-24161945D01*
X53859248Y-24012523D01*
X54078825Y-23837416D01*
X54277416Y-23638825D01*
X54452523Y-23419248D01*
X54601945Y-23181445D01*
X54723801Y-22928408D01*
X54816560Y-22663318D01*
X54879055Y-22389509D01*
X54910500Y-22110425D01*
X54910500Y-21829575D01*
X54879055Y-21550491D01*
X54816560Y-21276682D01*
X54723801Y-21011592D01*
X54601945Y-20758555D01*
X54452523Y-20520752D01*
X54277416Y-20301175D01*
X54078825Y-20102584D01*
X53859248Y-19927477D01*
X53621445Y-19778055D01*
X53621442Y-19778053D01*
X53368411Y-19656200D01*
X53103329Y-19563443D01*
X53103317Y-19563439D01*
X52829512Y-19500945D01*
X52829494Y-19500942D01*
X52550431Y-19469500D01*
X52550425Y-19469500D01*
X52269575Y-19469500D01*
X52269568Y-19469500D01*
X51990505Y-19500942D01*
X51990487Y-19500945D01*
X51716682Y-19563439D01*
X51716670Y-19563443D01*
X51451588Y-19656200D01*
X51198557Y-19778053D01*
X50960753Y-19927476D01*
X50741175Y-20102583D01*
X50542583Y-20301175D01*
X50367476Y-20520753D01*
X50218053Y-20758557D01*
X50096200Y-21011588D01*
X50003443Y-21276670D01*
X50003439Y-21276682D01*
X49940945Y-21550487D01*
X49940942Y-21550505D01*
X49909500Y-21829568D01*
X46877103Y-21829568D01*
X46637165Y-21589630D01*
X46603680Y-21528307D01*
X46608664Y-21458615D01*
X46650534Y-21402683D01*
X46737546Y-21337546D01*
X46823796Y-21222331D01*
X46851429Y-21148243D01*
X46853601Y-21142420D01*
X46895471Y-21086486D01*
X46960936Y-21062068D01*
X47029209Y-21076919D01*
X47057464Y-21098071D01*
X47107636Y-21148243D01*
X47107641Y-21148247D01*
X47168258Y-21192287D01*
X47285978Y-21277815D01*
X47414375Y-21343237D01*
X47482393Y-21377895D01*
X47482396Y-21377896D01*
X47587221Y-21411955D01*
X47692049Y-21446015D01*
X47909778Y-21480500D01*
X47909779Y-21480500D01*
X48130221Y-21480500D01*
X48130222Y-21480500D01*
X48347951Y-21446015D01*
X48557606Y-21377895D01*
X48754022Y-21277815D01*
X48932365Y-21148242D01*
X49088242Y-20992365D01*
X49217815Y-20814022D01*
X49317895Y-20617606D01*
X49386015Y-20407951D01*
X49420500Y-20190222D01*
X49420500Y-19969778D01*
X49386015Y-19752049D01*
X49317895Y-19542394D01*
X49317895Y-19542393D01*
X49280753Y-19469500D01*
X49217815Y-19345978D01*
X49135573Y-19232781D01*
X49088247Y-19167641D01*
X49088243Y-19167636D01*
X48932363Y-19011756D01*
X48932358Y-19011752D01*
X48754025Y-18882187D01*
X48754024Y-18882186D01*
X48754022Y-18882185D01*
X48636791Y-18822452D01*
X48557606Y-18782104D01*
X48557603Y-18782103D01*
X48347952Y-18713985D01*
X48239086Y-18696742D01*
X48130222Y-18679500D01*
X47909778Y-18679500D01*
X47837201Y-18690995D01*
X47692047Y-18713985D01*
X47482396Y-18782103D01*
X47482393Y-18782104D01*
X47285974Y-18882187D01*
X47107641Y-19011752D01*
X47107636Y-19011756D01*
X47057463Y-19061929D01*
X46996140Y-19095413D01*
X46926448Y-19090428D01*
X46870515Y-19048557D01*
X46853601Y-19017580D01*
X46823797Y-18937671D01*
X46823793Y-18937664D01*
X46737547Y-18822455D01*
X46737544Y-18822452D01*
X46622335Y-18736206D01*
X46622328Y-18736202D01*
X46487482Y-18685908D01*
X46487483Y-18685908D01*
X46427883Y-18679501D01*
X46427881Y-18679500D01*
X46427873Y-18679500D01*
X46427864Y-18679500D01*
X44532129Y-18679500D01*
X44532123Y-18679501D01*
X44472516Y-18685908D01*
X44337671Y-18736202D01*
X44337664Y-18736206D01*
X44222455Y-18822452D01*
X44222452Y-18822455D01*
X44136206Y-18937664D01*
X44136202Y-18937671D01*
X44085908Y-19072517D01*
X44079501Y-19132116D01*
X44079500Y-19132135D01*
X44079500Y-21027870D01*
X44079501Y-21027876D01*
X44085908Y-21087483D01*
X44136202Y-21222328D01*
X44136206Y-21222335D01*
X44222452Y-21337544D01*
X44222455Y-21337547D01*
X44337664Y-21423793D01*
X44337671Y-21423797D01*
X44382618Y-21440561D01*
X44472517Y-21474091D01*
X44532127Y-21480500D01*
X44829788Y-21480499D01*
X44841303Y-21483880D01*
X44853252Y-21482739D01*
X44874206Y-21493541D01*
X44896827Y-21500183D01*
X44906239Y-21510054D01*
X44915356Y-21514754D01*
X44937172Y-21542494D01*
X44941789Y-21550491D01*
X44964386Y-21589630D01*
X44999479Y-21650415D01*
X45118349Y-21769285D01*
X45118355Y-21769290D01*
X47383181Y-24034116D01*
X47416666Y-24095439D01*
X47419500Y-24121797D01*
X47419500Y-26357884D01*
X47413978Y-26376687D01*
X47413406Y-26396280D01*
X47404336Y-26409524D01*
X47399815Y-26424923D01*
X47385004Y-26437756D01*
X47373930Y-26453929D01*
X47351464Y-26466819D01*
X47347011Y-26470678D01*
X47343694Y-26472135D01*
X47341260Y-26473161D01*
X47252669Y-26506204D01*
X47239423Y-26516119D01*
X47225447Y-26522015D01*
X47205193Y-26524325D01*
X47186090Y-26531449D01*
X47168186Y-26528547D01*
X47156028Y-26529934D01*
X47145865Y-26524928D01*
X47129800Y-26522325D01*
X47049127Y-26488909D01*
X47049119Y-26488907D01*
X46851007Y-26449500D01*
X46851003Y-26449500D01*
X46648997Y-26449500D01*
X46648992Y-26449500D01*
X46450880Y-26488907D01*
X46450872Y-26488909D01*
X46264243Y-26566214D01*
X46183439Y-26620204D01*
X46116761Y-26641081D01*
X46049382Y-26622595D01*
X46045659Y-26620203D01*
X45965526Y-26566659D01*
X45965513Y-26566652D01*
X45778984Y-26489390D01*
X45778977Y-26489388D01*
X45730000Y-26479645D01*
X45730000Y-27334134D01*
X45727617Y-27358326D01*
X45724500Y-27373995D01*
X45724500Y-27414170D01*
X45710255Y-27399925D01*
X45624745Y-27350556D01*
X45529370Y-27325000D01*
X45430630Y-27325000D01*
X45335255Y-27350556D01*
X45249745Y-27399925D01*
X45230000Y-27419670D01*
X45230000Y-26479646D01*
X45229999Y-26479645D01*
X45181022Y-26489388D01*
X45181015Y-26489390D01*
X44994486Y-26566652D01*
X44994473Y-26566659D01*
X44826600Y-26678829D01*
X44826596Y-26678832D01*
X44683832Y-26821596D01*
X44683829Y-26821600D01*
X44571659Y-26989473D01*
X44571652Y-26989486D01*
X44494390Y-27176016D01*
X44494387Y-27176025D01*
X44455000Y-27374041D01*
X44455000Y-27450000D01*
X45199670Y-27450000D01*
X45179925Y-27469745D01*
X45130556Y-27555255D01*
X45105000Y-27650630D01*
X45105000Y-27749370D01*
X45130556Y-27844745D01*
X45179925Y-27930255D01*
X45199670Y-27950000D01*
X44455000Y-27950000D01*
X44455000Y-28025958D01*
X44494387Y-28223974D01*
X44494390Y-28223983D01*
X44571652Y-28410513D01*
X44571659Y-28410526D01*
X44683829Y-28578399D01*
X44683832Y-28578403D01*
X44826596Y-28721167D01*
X44826600Y-28721170D01*
X44994473Y-28833340D01*
X44994486Y-28833347D01*
X45181016Y-28910609D01*
X45181025Y-28910612D01*
X45230000Y-28920353D01*
X45230000Y-27980330D01*
X45249745Y-28000075D01*
X45335255Y-28049444D01*
X45430630Y-28075000D01*
X45529370Y-28075000D01*
X45624745Y-28049444D01*
X45710255Y-28000075D01*
X45724500Y-27985830D01*
X45724500Y-28026002D01*
X45727617Y-28041671D01*
X45730000Y-28065865D01*
X45730000Y-28920352D01*
X45745301Y-28932910D01*
X45784636Y-28990656D01*
X45786507Y-29060501D01*
X45754318Y-29116445D01*
X42114842Y-32755921D01*
X42053519Y-32789406D01*
X41988848Y-32786173D01*
X41974534Y-32781522D01*
X41788799Y-32752105D01*
X41772352Y-32749500D01*
X41567648Y-32749500D01*
X41527108Y-32755921D01*
X41365464Y-32781523D01*
X41365457Y-32781524D01*
X41300017Y-32802787D01*
X41230176Y-32804782D01*
X41170343Y-32768701D01*
X41139516Y-32706000D01*
X41137700Y-32684856D01*
X41137700Y-31672897D01*
X41146343Y-31643460D01*
X41152867Y-31613471D01*
X41156622Y-31608454D01*
X41157385Y-31605858D01*
X41174018Y-31585217D01*
X41225156Y-31534078D01*
X41286479Y-31500592D01*
X41351154Y-31503826D01*
X41365466Y-31508477D01*
X41567648Y-31540500D01*
X41567649Y-31540500D01*
X41772351Y-31540500D01*
X41772352Y-31540500D01*
X41974534Y-31508477D01*
X42169219Y-31445220D01*
X42351610Y-31352287D01*
X42453569Y-31278210D01*
X42517213Y-31231971D01*
X42517215Y-31231968D01*
X42517219Y-31231966D01*
X42661966Y-31087219D01*
X42661968Y-31087215D01*
X42661971Y-31087213D01*
X42722369Y-31004081D01*
X42782287Y-30921610D01*
X42875220Y-30739219D01*
X42938477Y-30544534D01*
X42970500Y-30342352D01*
X42970500Y-30137648D01*
X42938477Y-29935466D01*
X42925924Y-29896833D01*
X42908045Y-29841806D01*
X42875220Y-29740781D01*
X42875218Y-29740778D01*
X42875218Y-29740776D01*
X42841503Y-29674607D01*
X42782287Y-29558390D01*
X42752510Y-29517405D01*
X42661971Y-29392786D01*
X42517213Y-29248028D01*
X42351613Y-29127715D01*
X42351612Y-29127714D01*
X42351610Y-29127713D01*
X42294653Y-29098691D01*
X42169223Y-29034781D01*
X41974534Y-28971522D01*
X41787416Y-28941886D01*
X41772352Y-28939500D01*
X41567648Y-28939500D01*
X41552584Y-28941886D01*
X41365465Y-28971522D01*
X41170776Y-29034781D01*
X40988386Y-29127715D01*
X40822786Y-29248028D01*
X40678028Y-29392786D01*
X40557715Y-29558386D01*
X40464781Y-29740776D01*
X40401522Y-29935465D01*
X40369500Y-30137648D01*
X40369500Y-30342351D01*
X40401522Y-30544534D01*
X40406173Y-30558848D01*
X40408165Y-30628690D01*
X40375921Y-30684842D01*
X40168486Y-30892278D01*
X40056682Y-31004081D01*
X40056678Y-31004087D01*
X40008682Y-31087219D01*
X39977624Y-31141012D01*
X39977623Y-31141013D01*
X39962371Y-31197934D01*
X39936699Y-31293743D01*
X39936699Y-31451857D01*
X39936699Y-31451859D01*
X39936700Y-31461853D01*
X39936700Y-49340530D01*
X39936699Y-49340548D01*
X39936699Y-49506254D01*
X39936698Y-49506254D01*
X38622187Y-49506254D01*
X38541613Y-49447715D01*
X38541612Y-49447714D01*
X38541610Y-49447713D01*
X38484653Y-49418691D01*
X38359223Y-49354781D01*
X38164534Y-49291522D01*
X37977410Y-49261885D01*
X37962352Y-49259500D01*
X37757648Y-49259500D01*
X37742590Y-49261885D01*
X37555465Y-49291522D01*
X37360776Y-49354781D01*
X37178386Y-49447715D01*
X37012786Y-49568028D01*
X36868028Y-49712786D01*
X36747715Y-49878386D01*
X36654781Y-50060776D01*
X36591522Y-50255465D01*
X36559500Y-50457648D01*
X36559500Y-50662351D01*
X36591523Y-50864535D01*
X36596172Y-50878845D01*
X36598165Y-50948687D01*
X36565921Y-51004841D01*
X34431986Y-53138778D01*
X34320181Y-53250582D01*
X34320179Y-53250585D01*
X34270061Y-53337394D01*
X34270059Y-53337396D01*
X34241125Y-53387509D01*
X34241124Y-53387510D01*
X34241123Y-53387515D01*
X34200199Y-53540243D01*
X34200199Y-53540245D01*
X34200199Y-53708346D01*
X34200200Y-53708359D01*
X34200200Y-60214181D01*
X34180515Y-60281220D01*
X34132495Y-60324665D01*
X34092885Y-60344847D01*
X34092884Y-60344848D01*
X33920913Y-60469790D01*
X33770594Y-60620109D01*
X33770590Y-60620114D01*
X33650708Y-60785118D01*
X33595378Y-60827784D01*
X33525765Y-60833763D01*
X33463970Y-60801157D01*
X33450072Y-60785118D01*
X33330427Y-60620440D01*
X33330423Y-60620435D01*
X33180164Y-60470176D01*
X33180159Y-60470172D01*
X33008257Y-60345279D01*
X32818915Y-60248803D01*
X32616824Y-60183141D01*
X32550700Y-60172668D01*
X32550700Y-61220754D01*
X32484043Y-61182270D01*
X32363235Y-61149900D01*
X32238165Y-61149900D01*
X32117357Y-61182270D01*
X32050700Y-61220754D01*
X32050700Y-60172668D01*
X32050699Y-60172668D01*
X31984575Y-60183141D01*
X31782484Y-60248803D01*
X31593142Y-60345279D01*
X31421240Y-60470172D01*
X31421235Y-60470176D01*
X31270976Y-60620435D01*
X31270972Y-60620440D01*
X31146079Y-60792342D01*
X31049604Y-60981682D01*
X30983942Y-61183769D01*
X30983942Y-61183772D01*
X30953670Y-61374900D01*
X16000000Y-61374900D01*
X16000000Y-56215389D01*
X16019685Y-56148350D01*
X16072489Y-56102595D01*
X16141647Y-56092651D01*
X16205203Y-56121676D01*
X16239503Y-56173411D01*
X16240241Y-56173106D01*
X16241806Y-56176885D01*
X16241932Y-56177075D01*
X16242103Y-56177601D01*
X16242104Y-56177606D01*
X16288265Y-56268199D01*
X16324854Y-56340009D01*
X16342187Y-56374025D01*
X16471752Y-56552358D01*
X16471756Y-56552363D01*
X16627636Y-56708243D01*
X16627641Y-56708247D01*
X16765688Y-56808543D01*
X16805978Y-56837815D01*
X16934375Y-56903237D01*
X17002393Y-56937895D01*
X17002396Y-56937896D01*
X17107221Y-56971955D01*
X17212049Y-57006015D01*
X17429778Y-57040500D01*
X17429779Y-57040500D01*
X17650221Y-57040500D01*
X17650222Y-57040500D01*
X17867951Y-57006015D01*
X18077606Y-56937895D01*
X18274022Y-56837815D01*
X18452365Y-56708242D01*
X18608242Y-56552365D01*
X18737815Y-56374022D01*
X18837895Y-56177606D01*
X18906015Y-55967951D01*
X18940500Y-55750222D01*
X18940500Y-55529778D01*
X18906015Y-55312049D01*
X18889444Y-55261051D01*
X18883188Y-55241794D01*
X18881193Y-55171953D01*
X18913436Y-55115797D01*
X22552416Y-51476819D01*
X22613739Y-51443334D01*
X22640097Y-51440500D01*
X22738097Y-51440500D01*
X22971368Y-51403553D01*
X22985670Y-51398906D01*
X23195992Y-51330568D01*
X23198750Y-51329163D01*
X23225508Y-51315529D01*
X23406433Y-51223343D01*
X23597510Y-51084517D01*
X23764517Y-50917510D01*
X23807547Y-50858283D01*
X23862877Y-50815618D01*
X23917594Y-50807551D01*
X23937340Y-50809105D01*
X24677037Y-50069408D01*
X24694075Y-50132993D01*
X24759901Y-50247007D01*
X24852993Y-50340099D01*
X24967007Y-50405925D01*
X25030589Y-50422962D01*
X24290893Y-51162658D01*
X24373828Y-51222914D01*
X24584197Y-51330102D01*
X24808752Y-51403065D01*
X24808751Y-51403065D01*
X25041948Y-51440000D01*
X25278052Y-51440000D01*
X25511247Y-51403065D01*
X25735797Y-51330104D01*
X25737851Y-51329254D01*
X25738693Y-51329163D01*
X25740434Y-51328598D01*
X25740552Y-51328963D01*
X25807321Y-51321788D01*
X25869799Y-51353065D01*
X25905449Y-51413155D01*
X25909300Y-51443817D01*
X25909300Y-53990102D01*
X25900655Y-54019542D01*
X25894132Y-54049529D01*
X25890377Y-54054544D01*
X25889615Y-54057141D01*
X25872981Y-54077783D01*
X25747583Y-54203181D01*
X25686260Y-54236666D01*
X25659902Y-54239500D01*
X24459998Y-54239500D01*
X24459981Y-54239501D01*
X24357203Y-54250000D01*
X24357200Y-54250001D01*
X24190668Y-54305185D01*
X24190663Y-54305187D01*
X24041342Y-54397289D01*
X23917289Y-54521342D01*
X23825187Y-54670663D01*
X23825186Y-54670666D01*
X23770001Y-54837203D01*
X23770001Y-54837204D01*
X23770000Y-54837204D01*
X23759500Y-54939983D01*
X23759500Y-56340001D01*
X23759501Y-56340018D01*
X23770000Y-56442796D01*
X23770001Y-56442799D01*
X23825185Y-56609331D01*
X23825187Y-56609336D01*
X23839149Y-56631972D01*
X23917288Y-56758656D01*
X24041344Y-56882712D01*
X24190666Y-56974814D01*
X24357203Y-57029999D01*
X24459991Y-57040500D01*
X25860008Y-57040499D01*
X25962797Y-57029999D01*
X26129334Y-56974814D01*
X26278656Y-56882712D01*
X26402712Y-56758656D01*
X26494814Y-56609334D01*
X26515042Y-56548289D01*
X26554813Y-56490846D01*
X26619329Y-56464022D01*
X26688104Y-56476337D01*
X26720428Y-56499613D01*
X26852786Y-56631971D01*
X27007749Y-56744556D01*
X27018390Y-56752287D01*
X27134607Y-56811503D01*
X27200776Y-56845218D01*
X27200778Y-56845218D01*
X27200781Y-56845220D01*
X27276323Y-56869765D01*
X27395465Y-56908477D01*
X27496557Y-56924488D01*
X27597648Y-56940500D01*
X27597649Y-56940500D01*
X27802351Y-56940500D01*
X27802352Y-56940500D01*
X28004534Y-56908477D01*
X28199219Y-56845220D01*
X28381610Y-56752287D01*
X28474590Y-56684732D01*
X28547213Y-56631971D01*
X28547215Y-56631968D01*
X28547219Y-56631966D01*
X28691966Y-56487219D01*
X28691968Y-56487215D01*
X28691971Y-56487213D01*
X28744732Y-56414590D01*
X28812287Y-56321610D01*
X28905220Y-56139219D01*
X28968477Y-55944534D01*
X29000500Y-55742352D01*
X29000500Y-55537648D01*
X28968477Y-55335465D01*
X28938041Y-55241794D01*
X28905220Y-55140781D01*
X28905218Y-55140778D01*
X28905218Y-55140776D01*
X28866409Y-55064610D01*
X28812287Y-54958390D01*
X28798920Y-54939992D01*
X28691971Y-54792786D01*
X28547213Y-54648028D01*
X28381613Y-54527715D01*
X28381612Y-54527714D01*
X28381610Y-54527713D01*
X28271200Y-54471456D01*
X28199223Y-54434781D01*
X28004534Y-54371522D01*
X27818799Y-54342105D01*
X27802352Y-54339500D01*
X27597648Y-54339500D01*
X27557108Y-54345921D01*
X27395464Y-54371523D01*
X27395461Y-54371523D01*
X27272618Y-54411438D01*
X27202777Y-54413433D01*
X27142944Y-54377353D01*
X27112116Y-54314652D01*
X27110300Y-54293507D01*
X27110300Y-47585059D01*
X27110301Y-47585046D01*
X27110301Y-47416945D01*
X27110301Y-47416943D01*
X27069377Y-47264215D01*
X27019684Y-47178145D01*
X26990320Y-47127284D01*
X26878516Y-47015480D01*
X26878515Y-47015479D01*
X26874185Y-47011149D01*
X26874174Y-47011139D01*
X25416019Y-45552984D01*
X25382534Y-45491661D01*
X25379700Y-45465303D01*
X25379700Y-45007905D01*
X25399385Y-44940866D01*
X25452189Y-44895111D01*
X25521347Y-44885167D01*
X25581011Y-44910957D01*
X25670752Y-44982523D01*
X25908555Y-45131945D01*
X26161592Y-45253801D01*
X26333062Y-45313801D01*
X26426670Y-45346556D01*
X26426682Y-45346560D01*
X26700491Y-45409055D01*
X26700497Y-45409055D01*
X26700505Y-45409057D01*
X26886547Y-45430018D01*
X26979569Y-45440499D01*
X26979572Y-45440500D01*
X26979575Y-45440500D01*
X27260428Y-45440500D01*
X27260429Y-45440499D01*
X27403055Y-45424429D01*
X27539494Y-45409057D01*
X27539499Y-45409056D01*
X27539509Y-45409055D01*
X27813318Y-45346560D01*
X28078408Y-45253801D01*
X28331445Y-45131945D01*
X28569248Y-44982523D01*
X28788825Y-44807416D01*
X28987416Y-44608825D01*
X29162523Y-44389248D01*
X29311945Y-44151445D01*
X29433801Y-43898408D01*
X29526560Y-43633318D01*
X29589055Y-43359509D01*
X29620500Y-43080425D01*
X29620500Y-42799575D01*
X29595817Y-42580505D01*
X29589057Y-42520505D01*
X29589054Y-42520487D01*
X29526560Y-42246682D01*
X29526556Y-42246670D01*
X29471484Y-42089285D01*
X29433801Y-41981592D01*
X29311945Y-41728555D01*
X29162523Y-41490752D01*
X28987416Y-41271175D01*
X28788825Y-41072584D01*
X28569248Y-40897477D01*
X28331445Y-40748055D01*
X28331442Y-40748053D01*
X28078411Y-40626200D01*
X27813329Y-40533443D01*
X27813317Y-40533439D01*
X27539512Y-40470945D01*
X27539494Y-40470942D01*
X27260431Y-40439500D01*
X27260425Y-40439500D01*
X26979575Y-40439500D01*
X26979568Y-40439500D01*
X26700505Y-40470942D01*
X26700487Y-40470945D01*
X26426682Y-40533439D01*
X26426670Y-40533443D01*
X26161588Y-40626200D01*
X25908557Y-40748053D01*
X25670749Y-40897478D01*
X25670747Y-40897479D01*
X25581012Y-40969041D01*
X25516326Y-40995450D01*
X25447630Y-40982693D01*
X25396737Y-40934822D01*
X25379700Y-40872094D01*
X25379700Y-39452135D01*
X30109500Y-39452135D01*
X30109500Y-41347870D01*
X30109501Y-41347876D01*
X30115908Y-41407483D01*
X30166202Y-41542328D01*
X30166206Y-41542335D01*
X30252452Y-41657544D01*
X30252455Y-41657547D01*
X30367664Y-41743793D01*
X30367671Y-41743797D01*
X30412618Y-41760561D01*
X30502517Y-41794091D01*
X30562127Y-41800500D01*
X30859787Y-41800499D01*
X30926826Y-41820183D01*
X30967174Y-41862499D01*
X31029477Y-41970412D01*
X31029481Y-41970417D01*
X31148349Y-42089285D01*
X31148355Y-42089290D01*
X33413181Y-44354116D01*
X33446666Y-44415439D01*
X33449500Y-44441797D01*
X33449500Y-46677884D01*
X33443978Y-46696687D01*
X33443406Y-46716280D01*
X33434336Y-46729524D01*
X33429815Y-46744923D01*
X33415004Y-46757756D01*
X33403930Y-46773929D01*
X33381464Y-46786819D01*
X33377011Y-46790678D01*
X33373694Y-46792135D01*
X33371260Y-46793161D01*
X33282669Y-46826204D01*
X33269423Y-46836119D01*
X33255447Y-46842015D01*
X33235193Y-46844325D01*
X33216090Y-46851449D01*
X33198186Y-46848547D01*
X33186028Y-46849934D01*
X33175865Y-46844928D01*
X33159800Y-46842325D01*
X33079127Y-46808909D01*
X33079119Y-46808907D01*
X32881007Y-46769500D01*
X32881003Y-46769500D01*
X32678997Y-46769500D01*
X32678992Y-46769500D01*
X32480880Y-46808907D01*
X32480872Y-46808909D01*
X32294243Y-46886214D01*
X32213439Y-46940204D01*
X32146761Y-46961081D01*
X32079382Y-46942595D01*
X32075659Y-46940203D01*
X31995526Y-46886659D01*
X31995513Y-46886652D01*
X31808984Y-46809390D01*
X31808977Y-46809388D01*
X31760000Y-46799645D01*
X31760000Y-47654134D01*
X31757617Y-47678326D01*
X31754500Y-47693995D01*
X31754500Y-47734170D01*
X31740255Y-47719925D01*
X31654745Y-47670556D01*
X31559370Y-47645000D01*
X31460630Y-47645000D01*
X31365255Y-47670556D01*
X31279745Y-47719925D01*
X31260000Y-47739670D01*
X31260000Y-46799646D01*
X31259999Y-46799645D01*
X31211022Y-46809388D01*
X31211015Y-46809390D01*
X31024486Y-46886652D01*
X31024473Y-46886659D01*
X30856600Y-46998829D01*
X30856596Y-46998832D01*
X30713832Y-47141596D01*
X30713829Y-47141600D01*
X30601659Y-47309473D01*
X30601652Y-47309486D01*
X30524390Y-47496016D01*
X30524387Y-47496025D01*
X30485000Y-47694041D01*
X30485000Y-47770000D01*
X31229670Y-47770000D01*
X31209925Y-47789745D01*
X31160556Y-47875255D01*
X31135000Y-47970630D01*
X31135000Y-48069370D01*
X31160556Y-48164745D01*
X31209925Y-48250255D01*
X31229670Y-48270000D01*
X30485000Y-48270000D01*
X30485000Y-48345958D01*
X30524387Y-48543974D01*
X30524390Y-48543983D01*
X30601652Y-48730513D01*
X30601659Y-48730526D01*
X30713829Y-48898399D01*
X30713832Y-48898403D01*
X30856596Y-49041167D01*
X30856600Y-49041170D01*
X31024473Y-49153340D01*
X31024486Y-49153347D01*
X31211016Y-49230609D01*
X31211025Y-49230612D01*
X31260000Y-49240353D01*
X31260000Y-48300330D01*
X31279745Y-48320075D01*
X31365255Y-48369444D01*
X31460630Y-48395000D01*
X31559370Y-48395000D01*
X31654745Y-48369444D01*
X31740255Y-48320075D01*
X31754500Y-48305830D01*
X31754500Y-48346002D01*
X31757617Y-48361671D01*
X31760000Y-48385865D01*
X31760000Y-49240352D01*
X31808974Y-49230612D01*
X31808983Y-49230609D01*
X31995515Y-49153346D01*
X31995518Y-49153344D01*
X32075658Y-49099796D01*
X32142335Y-49078917D01*
X32209716Y-49097401D01*
X32213422Y-49099783D01*
X32294244Y-49153786D01*
X32480873Y-49231091D01*
X32646777Y-49264091D01*
X32678992Y-49270499D01*
X32678996Y-49270500D01*
X32678997Y-49270500D01*
X32881004Y-49270500D01*
X32881005Y-49270499D01*
X33079127Y-49231091D01*
X33080284Y-49230612D01*
X33118495Y-49214784D01*
X33159798Y-49197674D01*
X33229267Y-49190205D01*
X33274658Y-49209962D01*
X33274886Y-49209546D01*
X33279540Y-49212087D01*
X33281562Y-49212967D01*
X33282669Y-49213796D01*
X33282670Y-49213796D01*
X33282671Y-49213797D01*
X33417517Y-49264091D01*
X33417516Y-49264091D01*
X33424444Y-49264835D01*
X33477127Y-49270500D01*
X34622872Y-49270499D01*
X34682483Y-49264091D01*
X34817331Y-49213796D01*
X34932546Y-49127546D01*
X35018796Y-49012331D01*
X35069091Y-48877483D01*
X35075500Y-48817873D01*
X35075499Y-47222128D01*
X35069091Y-47162517D01*
X35061289Y-47141600D01*
X35018797Y-47027671D01*
X35018793Y-47027664D01*
X34932547Y-46912455D01*
X34932544Y-46912452D01*
X34817335Y-46826206D01*
X34817330Y-46826203D01*
X34731166Y-46794066D01*
X34675233Y-46752194D01*
X34650816Y-46686730D01*
X34650500Y-46677884D01*
X34650500Y-44062645D01*
X34650500Y-44062643D01*
X34609577Y-43909916D01*
X34602933Y-43898408D01*
X34530524Y-43772990D01*
X34530521Y-43772986D01*
X34530520Y-43772984D01*
X34418716Y-43661180D01*
X34418715Y-43661179D01*
X34414385Y-43656849D01*
X34414374Y-43656839D01*
X32667165Y-41909630D01*
X32633680Y-41848307D01*
X32638664Y-41778615D01*
X32680534Y-41722683D01*
X32767546Y-41657546D01*
X32853796Y-41542331D01*
X32881429Y-41468243D01*
X32883601Y-41462420D01*
X32925471Y-41406486D01*
X32990936Y-41382068D01*
X33059209Y-41396919D01*
X33087464Y-41418071D01*
X33137636Y-41468243D01*
X33137641Y-41468247D01*
X33198258Y-41512287D01*
X33315978Y-41597815D01*
X33444375Y-41663237D01*
X33512393Y-41697895D01*
X33512396Y-41697896D01*
X33606757Y-41728555D01*
X33722049Y-41766015D01*
X33939778Y-41800500D01*
X33939779Y-41800500D01*
X34160221Y-41800500D01*
X34160222Y-41800500D01*
X34377951Y-41766015D01*
X34587606Y-41697895D01*
X34784022Y-41597815D01*
X34962365Y-41468242D01*
X35118242Y-41312365D01*
X35247815Y-41134022D01*
X35347895Y-40937606D01*
X35416015Y-40727951D01*
X35450500Y-40510222D01*
X35450500Y-40297648D01*
X36559500Y-40297648D01*
X36559500Y-40502351D01*
X36591522Y-40704534D01*
X36654781Y-40899223D01*
X36747715Y-41081613D01*
X36868028Y-41247213D01*
X37012786Y-41391971D01*
X37148749Y-41490752D01*
X37178390Y-41512287D01*
X37253882Y-41550752D01*
X37360776Y-41605218D01*
X37360778Y-41605218D01*
X37360781Y-41605220D01*
X37465137Y-41639127D01*
X37555465Y-41668477D01*
X37656557Y-41684488D01*
X37757648Y-41700500D01*
X37757649Y-41700500D01*
X37962351Y-41700500D01*
X37962352Y-41700500D01*
X38164534Y-41668477D01*
X38359219Y-41605220D01*
X38541610Y-41512287D01*
X38634590Y-41444732D01*
X38707213Y-41391971D01*
X38707215Y-41391968D01*
X38707219Y-41391966D01*
X38851966Y-41247219D01*
X38851968Y-41247215D01*
X38851971Y-41247213D01*
X38911731Y-41164959D01*
X38972287Y-41081610D01*
X39065220Y-40899219D01*
X39128477Y-40704534D01*
X39160500Y-40502352D01*
X39160500Y-40297648D01*
X39128477Y-40095465D01*
X39065218Y-39900776D01*
X39010285Y-39792965D01*
X38972287Y-39718390D01*
X38905797Y-39626873D01*
X38851971Y-39552786D01*
X38707213Y-39408028D01*
X38541613Y-39287715D01*
X38541612Y-39287714D01*
X38541610Y-39287713D01*
X38482636Y-39257664D01*
X38359223Y-39194781D01*
X38164534Y-39131522D01*
X37978799Y-39102105D01*
X37962352Y-39099500D01*
X37757648Y-39099500D01*
X37741201Y-39102105D01*
X37555465Y-39131522D01*
X37360776Y-39194781D01*
X37178386Y-39287715D01*
X37012786Y-39408028D01*
X36868028Y-39552786D01*
X36747715Y-39718386D01*
X36654781Y-39900776D01*
X36591522Y-40095465D01*
X36559500Y-40297648D01*
X35450500Y-40297648D01*
X35450500Y-40289778D01*
X35416015Y-40072049D01*
X35360366Y-39900776D01*
X35347896Y-39862396D01*
X35347895Y-39862393D01*
X35312519Y-39792965D01*
X35247815Y-39665978D01*
X35165573Y-39552781D01*
X35118247Y-39487641D01*
X35118243Y-39487636D01*
X34962363Y-39331756D01*
X34962358Y-39331752D01*
X34784025Y-39202187D01*
X34784024Y-39202186D01*
X34784022Y-39202185D01*
X34721096Y-39170122D01*
X34587606Y-39102104D01*
X34587603Y-39102103D01*
X34377952Y-39033985D01*
X34269086Y-39016742D01*
X34160222Y-38999500D01*
X33939778Y-38999500D01*
X33867201Y-39010995D01*
X33722047Y-39033985D01*
X33512396Y-39102103D01*
X33512393Y-39102104D01*
X33315974Y-39202187D01*
X33137641Y-39331752D01*
X33137636Y-39331756D01*
X33087463Y-39381929D01*
X33026140Y-39415413D01*
X32956448Y-39410428D01*
X32900515Y-39368557D01*
X32883601Y-39337580D01*
X32853797Y-39257671D01*
X32853793Y-39257664D01*
X32767547Y-39142455D01*
X32767544Y-39142452D01*
X32652335Y-39056206D01*
X32652328Y-39056202D01*
X32517482Y-39005908D01*
X32517483Y-39005908D01*
X32457883Y-38999501D01*
X32457881Y-38999500D01*
X32457873Y-38999500D01*
X32457864Y-38999500D01*
X30562129Y-38999500D01*
X30562123Y-38999501D01*
X30502516Y-39005908D01*
X30367671Y-39056202D01*
X30367664Y-39056206D01*
X30252455Y-39142452D01*
X30252452Y-39142455D01*
X30166206Y-39257664D01*
X30166202Y-39257671D01*
X30115908Y-39392517D01*
X30109501Y-39452116D01*
X30109500Y-39452135D01*
X25379700Y-39452135D01*
X25379700Y-35574499D01*
X25399385Y-35507460D01*
X25452189Y-35461705D01*
X25503700Y-35450499D01*
X25860002Y-35450499D01*
X25860008Y-35450499D01*
X25962797Y-35439999D01*
X26129334Y-35384814D01*
X26278656Y-35292712D01*
X26402712Y-35168656D01*
X26494814Y-35019334D01*
X26515042Y-34958289D01*
X26554813Y-34900846D01*
X26619329Y-34874022D01*
X26688104Y-34886337D01*
X26720428Y-34909613D01*
X26852786Y-35041971D01*
X26991352Y-35142643D01*
X27018390Y-35162287D01*
X27134607Y-35221503D01*
X27200776Y-35255218D01*
X27200778Y-35255218D01*
X27200781Y-35255220D01*
X27305137Y-35289127D01*
X27395465Y-35318477D01*
X27496557Y-35334488D01*
X27597648Y-35350500D01*
X27597649Y-35350500D01*
X27802351Y-35350500D01*
X27802352Y-35350500D01*
X28004534Y-35318477D01*
X28199219Y-35255220D01*
X28381610Y-35162287D01*
X28474590Y-35094732D01*
X28547213Y-35041971D01*
X28547215Y-35041968D01*
X28547219Y-35041966D01*
X28691966Y-34897219D01*
X28691968Y-34897215D01*
X28691971Y-34897213D01*
X28744732Y-34824590D01*
X28812287Y-34731610D01*
X28905220Y-34549219D01*
X28968477Y-34354534D01*
X29000500Y-34152352D01*
X29000500Y-33947648D01*
X28968477Y-33745465D01*
X28922888Y-33605157D01*
X28905220Y-33550781D01*
X28905218Y-33550778D01*
X28905218Y-33550776D01*
X28866409Y-33474610D01*
X28812287Y-33368390D01*
X28798920Y-33349992D01*
X28691971Y-33202786D01*
X28547213Y-33058028D01*
X28381613Y-32937715D01*
X28381612Y-32937714D01*
X28381610Y-32937713D01*
X28324653Y-32908691D01*
X28199223Y-32844781D01*
X28004534Y-32781522D01*
X27818799Y-32752105D01*
X27802352Y-32749500D01*
X27597648Y-32749500D01*
X27581201Y-32752105D01*
X27395465Y-32781522D01*
X27200776Y-32844781D01*
X27018386Y-32937715D01*
X26852788Y-33058027D01*
X26720428Y-33190387D01*
X26659105Y-33223871D01*
X26589413Y-33218887D01*
X26533480Y-33177015D01*
X26515042Y-33141710D01*
X26494814Y-33080666D01*
X26402712Y-32931344D01*
X26278656Y-32807288D01*
X26129334Y-32715186D01*
X25962797Y-32660001D01*
X25962795Y-32660000D01*
X25860010Y-32649500D01*
X24459998Y-32649500D01*
X24459981Y-32649501D01*
X24357203Y-32660000D01*
X24357200Y-32660001D01*
X24190668Y-32715185D01*
X24190663Y-32715187D01*
X24041342Y-32807289D01*
X23917289Y-32931342D01*
X23825187Y-33080663D01*
X23825186Y-33080666D01*
X23770001Y-33247203D01*
X23770001Y-33247204D01*
X23770000Y-33247204D01*
X23759500Y-33349983D01*
X23759500Y-34750001D01*
X23759501Y-34750018D01*
X23770000Y-34852796D01*
X23770001Y-34852799D01*
X23825185Y-35019331D01*
X23825187Y-35019336D01*
X23849002Y-35057946D01*
X23917288Y-35168656D01*
X24041344Y-35292712D01*
X24119798Y-35341102D01*
X24166521Y-35393047D01*
X24178700Y-35446639D01*
X24178700Y-45678730D01*
X24178699Y-45678748D01*
X24178699Y-45844454D01*
X24178698Y-45844454D01*
X24219623Y-45997185D01*
X24248558Y-46047300D01*
X24248559Y-46047304D01*
X24248560Y-46047304D01*
X24298679Y-46134114D01*
X24298681Y-46134117D01*
X24417549Y-46252985D01*
X24417555Y-46252990D01*
X25872981Y-47708416D01*
X25906466Y-47769739D01*
X25909300Y-47796097D01*
X25909300Y-48436182D01*
X25889615Y-48503221D01*
X25836811Y-48548976D01*
X25767653Y-48558920D01*
X25737866Y-48550751D01*
X25735807Y-48549898D01*
X25511247Y-48476934D01*
X25511248Y-48476934D01*
X25278052Y-48440000D01*
X25041948Y-48440000D01*
X24808752Y-48476934D01*
X24584197Y-48549897D01*
X24373830Y-48657084D01*
X24290894Y-48717340D01*
X25030591Y-49457037D01*
X24967007Y-49474075D01*
X24852993Y-49539901D01*
X24759901Y-49632993D01*
X24694075Y-49747007D01*
X24677037Y-49810590D01*
X23937340Y-49070893D01*
X23917593Y-49072448D01*
X23849215Y-49058084D01*
X23807547Y-49021716D01*
X23764517Y-48962490D01*
X23597510Y-48795483D01*
X23406433Y-48656657D01*
X23195996Y-48549433D01*
X22971368Y-48476446D01*
X22738097Y-48439500D01*
X22738092Y-48439500D01*
X22501908Y-48439500D01*
X22501903Y-48439500D01*
X22268631Y-48476446D01*
X22044003Y-48549433D01*
X21833566Y-48656657D01*
X21750044Y-48717340D01*
X21642490Y-48795483D01*
X21642488Y-48795485D01*
X21642487Y-48795485D01*
X21475484Y-48962488D01*
X21450318Y-48997127D01*
X21394987Y-49039792D01*
X21325374Y-49045771D01*
X21263579Y-49013165D01*
X21249682Y-48997127D01*
X21224519Y-48962493D01*
X21224517Y-48962490D01*
X21057510Y-48795483D01*
X20866433Y-48656657D01*
X20655996Y-48549433D01*
X20431368Y-48476446D01*
X20198097Y-48439500D01*
X20198092Y-48439500D01*
X19961908Y-48439500D01*
X19961903Y-48439500D01*
X19728631Y-48476446D01*
X19504003Y-48549433D01*
X19293566Y-48656657D01*
X19210044Y-48717340D01*
X19102490Y-48795483D01*
X19102488Y-48795485D01*
X19102487Y-48795485D01*
X18935485Y-48962487D01*
X18935485Y-48962488D01*
X18935483Y-48962490D01*
X18891892Y-49022488D01*
X18796657Y-49153566D01*
X18689433Y-49364003D01*
X18616446Y-49588631D01*
X18579500Y-49821902D01*
X18579500Y-50058097D01*
X18616446Y-50291368D01*
X18689433Y-50515996D01*
X18764006Y-50662352D01*
X18796657Y-50726433D01*
X18935483Y-50917510D01*
X19102490Y-51084517D01*
X19293567Y-51223343D01*
X19392991Y-51274002D01*
X19504003Y-51330566D01*
X19504005Y-51330566D01*
X19504008Y-51330568D01*
X19624412Y-51369689D01*
X19728631Y-51403553D01*
X19961903Y-51440500D01*
X19961908Y-51440500D01*
X20198097Y-51440500D01*
X20431368Y-51403553D01*
X20445670Y-51398906D01*
X20655992Y-51330568D01*
X20660190Y-51328428D01*
X20728857Y-51315529D01*
X20793599Y-51341802D01*
X20833860Y-51398906D01*
X20836856Y-51468712D01*
X20804171Y-51526592D01*
X18064202Y-54266561D01*
X18002879Y-54300046D01*
X17938203Y-54296811D01*
X17909534Y-54287496D01*
X17867952Y-54273985D01*
X17716516Y-54250000D01*
X17650222Y-54239500D01*
X17429778Y-54239500D01*
X17363484Y-54250000D01*
X17212047Y-54273985D01*
X17002396Y-54342103D01*
X17002393Y-54342104D01*
X16805974Y-54442187D01*
X16627641Y-54571752D01*
X16627636Y-54571756D01*
X16471756Y-54727636D01*
X16471752Y-54727641D01*
X16342187Y-54905974D01*
X16242104Y-55102393D01*
X16242103Y-55102398D01*
X16241930Y-55102931D01*
X16241809Y-55103107D01*
X16240241Y-55106894D01*
X16239445Y-55106564D01*
X16202491Y-55160605D01*
X16138132Y-55187802D01*
X16069286Y-55175886D01*
X16017811Y-55128641D01*
X16000000Y-55064610D01*
X16000000Y-44646466D01*
X16019685Y-44579427D01*
X16072489Y-44533672D01*
X16141647Y-44523728D01*
X16205203Y-44552753D01*
X16220944Y-44569150D01*
X16252584Y-44608825D01*
X16451175Y-44807416D01*
X16670752Y-44982523D01*
X16908555Y-45131945D01*
X17161592Y-45253801D01*
X17333062Y-45313801D01*
X17426670Y-45346556D01*
X17426682Y-45346560D01*
X17700491Y-45409055D01*
X17700497Y-45409055D01*
X17700505Y-45409057D01*
X17886547Y-45430018D01*
X17979569Y-45440499D01*
X17979572Y-45440500D01*
X17979575Y-45440500D01*
X18260428Y-45440500D01*
X18260429Y-45440499D01*
X18403055Y-45424429D01*
X18539494Y-45409057D01*
X18539499Y-45409056D01*
X18539509Y-45409055D01*
X18813318Y-45346560D01*
X19078408Y-45253801D01*
X19331445Y-45131945D01*
X19569248Y-44982523D01*
X19788825Y-44807416D01*
X19987416Y-44608825D01*
X20162523Y-44389248D01*
X20311945Y-44151445D01*
X20433801Y-43898408D01*
X20526560Y-43633318D01*
X20589055Y-43359509D01*
X20620500Y-43080425D01*
X20620500Y-42799575D01*
X20595817Y-42580505D01*
X20589057Y-42520505D01*
X20589054Y-42520487D01*
X20526560Y-42246682D01*
X20526556Y-42246670D01*
X20471484Y-42089285D01*
X20433801Y-41981592D01*
X20311945Y-41728555D01*
X20162523Y-41490752D01*
X19987416Y-41271175D01*
X19788825Y-41072584D01*
X19569248Y-40897477D01*
X19331445Y-40748055D01*
X19331442Y-40748053D01*
X19078411Y-40626200D01*
X18813329Y-40533443D01*
X18813317Y-40533439D01*
X18539512Y-40470945D01*
X18539494Y-40470942D01*
X18260431Y-40439500D01*
X18260425Y-40439500D01*
X17979575Y-40439500D01*
X17979568Y-40439500D01*
X17700505Y-40470942D01*
X17700487Y-40470945D01*
X17426682Y-40533439D01*
X17426670Y-40533443D01*
X17161588Y-40626200D01*
X16908557Y-40748053D01*
X16670753Y-40897476D01*
X16451175Y-41072583D01*
X16252583Y-41271175D01*
X16220947Y-41310846D01*
X16163758Y-41350986D01*
X16093947Y-41353836D01*
X16033677Y-41318490D01*
X16002084Y-41256171D01*
X16000000Y-41233533D01*
X16000000Y-34625389D01*
X16019685Y-34558350D01*
X16072489Y-34512595D01*
X16141647Y-34502651D01*
X16205203Y-34531676D01*
X16239503Y-34583411D01*
X16240241Y-34583106D01*
X16241806Y-34586885D01*
X16241932Y-34587075D01*
X16242103Y-34587601D01*
X16242104Y-34587606D01*
X16274152Y-34650502D01*
X16324854Y-34750009D01*
X16342187Y-34784025D01*
X16471752Y-34962358D01*
X16471756Y-34962363D01*
X16627636Y-35118243D01*
X16627641Y-35118247D01*
X16783192Y-35231260D01*
X16805978Y-35247815D01*
X16913004Y-35302348D01*
X17002393Y-35347895D01*
X17002396Y-35347896D01*
X17093304Y-35377433D01*
X17212049Y-35416015D01*
X17429778Y-35450500D01*
X17429779Y-35450500D01*
X17650221Y-35450500D01*
X17650222Y-35450500D01*
X17867951Y-35416015D01*
X18077606Y-35347895D01*
X18274022Y-35247815D01*
X18452365Y-35118242D01*
X18608242Y-34962365D01*
X18737815Y-34784022D01*
X18837895Y-34587606D01*
X18906015Y-34377951D01*
X18940500Y-34160222D01*
X18940500Y-33939778D01*
X18906015Y-33722049D01*
X18887960Y-33666480D01*
X18883188Y-33651794D01*
X18881193Y-33581953D01*
X18913436Y-33525797D01*
X22016437Y-30422796D01*
X22077758Y-30389313D01*
X22142433Y-30392547D01*
X22268632Y-30433553D01*
X22356110Y-30447408D01*
X22501903Y-30470500D01*
X22501908Y-30470500D01*
X22738097Y-30470500D01*
X22971368Y-30433553D01*
X23004468Y-30422798D01*
X23195992Y-30360568D01*
X23406433Y-30253343D01*
X23597510Y-30114517D01*
X23764517Y-29947510D01*
X23811370Y-29883022D01*
X23815713Y-29878199D01*
X23840150Y-29863142D01*
X23862877Y-29845618D01*
X23870393Y-29844509D01*
X23875199Y-29841549D01*
X23888730Y-29841806D01*
X23917594Y-29837551D01*
X23937340Y-29839105D01*
X24677037Y-29099408D01*
X24694075Y-29162993D01*
X24759901Y-29277007D01*
X24852993Y-29370099D01*
X24967007Y-29435925D01*
X25030590Y-29452962D01*
X24290893Y-30192658D01*
X24373828Y-30252914D01*
X24584197Y-30360102D01*
X24808752Y-30433065D01*
X24808751Y-30433065D01*
X25041948Y-30470000D01*
X25278052Y-30470000D01*
X25511247Y-30433065D01*
X25735802Y-30360102D01*
X25946163Y-30252918D01*
X25946169Y-30252914D01*
X26029104Y-30192658D01*
X26029105Y-30192658D01*
X25289408Y-29452962D01*
X25352993Y-29435925D01*
X25467007Y-29370099D01*
X25560099Y-29277007D01*
X25625925Y-29162993D01*
X25642962Y-29099408D01*
X26382658Y-29839105D01*
X26382658Y-29839104D01*
X26442914Y-29756169D01*
X26442918Y-29756163D01*
X26550102Y-29545802D01*
X26623065Y-29321247D01*
X26660000Y-29088052D01*
X26660000Y-28851947D01*
X26623065Y-28618752D01*
X26550102Y-28394197D01*
X26442914Y-28183828D01*
X26382658Y-28100894D01*
X26382658Y-28100893D01*
X25642962Y-28840590D01*
X25625925Y-28777007D01*
X25560099Y-28662993D01*
X25467007Y-28569901D01*
X25352993Y-28504075D01*
X25289409Y-28487037D01*
X25965489Y-27810957D01*
X26029105Y-27747340D01*
X26029104Y-27747338D01*
X25946174Y-27687087D01*
X25735802Y-27579897D01*
X25511247Y-27506934D01*
X25511248Y-27506934D01*
X25407024Y-27490427D01*
X25278052Y-27470000D01*
X25041948Y-27470000D01*
X24808752Y-27506934D01*
X24584197Y-27579897D01*
X24373830Y-27687084D01*
X24290894Y-27747340D01*
X25030591Y-28487037D01*
X24967007Y-28504075D01*
X24852993Y-28569901D01*
X24759901Y-28662993D01*
X24694075Y-28777007D01*
X24677037Y-28840590D01*
X23937340Y-28100893D01*
X23917593Y-28102448D01*
X23913860Y-28101663D01*
X23910222Y-28102808D01*
X23879936Y-28094537D01*
X23849215Y-28088084D01*
X23845429Y-28085114D01*
X23842821Y-28084402D01*
X23833431Y-28075701D01*
X23815712Y-28061800D01*
X23811370Y-28056978D01*
X23764517Y-27992490D01*
X23597510Y-27825483D01*
X23406433Y-27686657D01*
X23195996Y-27579433D01*
X22971368Y-27506446D01*
X22738097Y-27469500D01*
X22738092Y-27469500D01*
X22501908Y-27469500D01*
X22501903Y-27469500D01*
X22268631Y-27506446D01*
X22044003Y-27579433D01*
X21833566Y-27686657D01*
X21750047Y-27747338D01*
X21642490Y-27825483D01*
X21642488Y-27825485D01*
X21642487Y-27825485D01*
X21475484Y-27992488D01*
X21475483Y-27992490D01*
X21451135Y-28026003D01*
X21450318Y-28027127D01*
X21394987Y-28069792D01*
X21325374Y-28075771D01*
X21263579Y-28043165D01*
X21249682Y-28027127D01*
X21224517Y-27992490D01*
X21057510Y-27825483D01*
X20866433Y-27686657D01*
X20655996Y-27579433D01*
X20431368Y-27506446D01*
X20198097Y-27469500D01*
X20198092Y-27469500D01*
X19961908Y-27469500D01*
X19961903Y-27469500D01*
X19728631Y-27506446D01*
X19504003Y-27579433D01*
X19293566Y-27686657D01*
X19210047Y-27747338D01*
X19102490Y-27825483D01*
X19102488Y-27825485D01*
X19102487Y-27825485D01*
X18935485Y-27992487D01*
X18935485Y-27992488D01*
X18935483Y-27992490D01*
X18885126Y-28061800D01*
X18796657Y-28183566D01*
X18689433Y-28394003D01*
X18616446Y-28618631D01*
X18579500Y-28851902D01*
X18579500Y-29088097D01*
X18616446Y-29321368D01*
X18689433Y-29545996D01*
X18788679Y-29740776D01*
X18796657Y-29756433D01*
X18935483Y-29947510D01*
X19102490Y-30114517D01*
X19293567Y-30253343D01*
X19392991Y-30304002D01*
X19504003Y-30360566D01*
X19504005Y-30360566D01*
X19504008Y-30360568D01*
X19592476Y-30389313D01*
X19728631Y-30433553D01*
X19961903Y-30470500D01*
X19970902Y-30470500D01*
X20037941Y-30490185D01*
X20083696Y-30542989D01*
X20093640Y-30612147D01*
X20064615Y-30675703D01*
X20058583Y-30682181D01*
X18064202Y-32676561D01*
X18002879Y-32710046D01*
X17938203Y-32706811D01*
X17913584Y-32698812D01*
X17867952Y-32683985D01*
X17716516Y-32660000D01*
X17650222Y-32649500D01*
X17429778Y-32649500D01*
X17363484Y-32660000D01*
X17212047Y-32683985D01*
X17002396Y-32752103D01*
X17002393Y-32752104D01*
X16805974Y-32852187D01*
X16627641Y-32981752D01*
X16627636Y-32981756D01*
X16471756Y-33137636D01*
X16471752Y-33137641D01*
X16342187Y-33315974D01*
X16242104Y-33512393D01*
X16242103Y-33512398D01*
X16241930Y-33512931D01*
X16241809Y-33513107D01*
X16240241Y-33516894D01*
X16239445Y-33516564D01*
X16202491Y-33570605D01*
X16138132Y-33597802D01*
X16069286Y-33585886D01*
X16017811Y-33538641D01*
X16000000Y-33474610D01*
X16000000Y-23676466D01*
X16019685Y-23609427D01*
X16072489Y-23563672D01*
X16141647Y-23553728D01*
X16205203Y-23582753D01*
X16220944Y-23599150D01*
X16252584Y-23638825D01*
X16451175Y-23837416D01*
X16670752Y-24012523D01*
X16908555Y-24161945D01*
X17161592Y-24283801D01*
X17360680Y-24353465D01*
X17426670Y-24376556D01*
X17426682Y-24376560D01*
X17700491Y-24439055D01*
X17700497Y-24439055D01*
X17700505Y-24439057D01*
X17886547Y-24460018D01*
X17979569Y-24470499D01*
X17979572Y-24470500D01*
X17979575Y-24470500D01*
X18260428Y-24470500D01*
X18260429Y-24470499D01*
X18403055Y-24454429D01*
X18539494Y-24439057D01*
X18539499Y-24439056D01*
X18539509Y-24439055D01*
X18813318Y-24376560D01*
X19078408Y-24283801D01*
X19331445Y-24161945D01*
X19569248Y-24012523D01*
X19788825Y-23837416D01*
X19987416Y-23638825D01*
X20162523Y-23419248D01*
X20311945Y-23181445D01*
X20433801Y-22928408D01*
X20526560Y-22663318D01*
X20589055Y-22389509D01*
X20620500Y-22110425D01*
X20620500Y-21829575D01*
X20620499Y-21829568D01*
X24619500Y-21829568D01*
X24619500Y-22110431D01*
X24650942Y-22389494D01*
X24650945Y-22389512D01*
X24713439Y-22663317D01*
X24713443Y-22663329D01*
X24806200Y-22928411D01*
X24928053Y-23181442D01*
X24928055Y-23181445D01*
X25077477Y-23419248D01*
X25252584Y-23638825D01*
X25451175Y-23837416D01*
X25670752Y-24012523D01*
X25908555Y-24161945D01*
X26161592Y-24283801D01*
X26360680Y-24353465D01*
X26426670Y-24376556D01*
X26426682Y-24376560D01*
X26700491Y-24439055D01*
X26700497Y-24439055D01*
X26700505Y-24439057D01*
X26886547Y-24460018D01*
X26979569Y-24470499D01*
X26979572Y-24470500D01*
X26979575Y-24470500D01*
X27260428Y-24470500D01*
X27260429Y-24470499D01*
X27403055Y-24454429D01*
X27539494Y-24439057D01*
X27539499Y-24439056D01*
X27539509Y-24439055D01*
X27813318Y-24376560D01*
X28078408Y-24283801D01*
X28331445Y-24161945D01*
X28569248Y-24012523D01*
X28788825Y-23837416D01*
X28987416Y-23638825D01*
X29162523Y-23419248D01*
X29311945Y-23181445D01*
X29433801Y-22928408D01*
X29526560Y-22663318D01*
X29589055Y-22389509D01*
X29620500Y-22110425D01*
X29620500Y-21829575D01*
X29589055Y-21550491D01*
X29526560Y-21276682D01*
X29433801Y-21011592D01*
X29311945Y-20758555D01*
X29162523Y-20520752D01*
X28987416Y-20301175D01*
X28788825Y-20102584D01*
X28569248Y-19927477D01*
X28331445Y-19778055D01*
X28331442Y-19778053D01*
X28078411Y-19656200D01*
X27813329Y-19563443D01*
X27813317Y-19563439D01*
X27539512Y-19500945D01*
X27539494Y-19500942D01*
X27260431Y-19469500D01*
X27260425Y-19469500D01*
X26979575Y-19469500D01*
X26979568Y-19469500D01*
X26700505Y-19500942D01*
X26700487Y-19500945D01*
X26426682Y-19563439D01*
X26426670Y-19563443D01*
X26161588Y-19656200D01*
X25908557Y-19778053D01*
X25670753Y-19927476D01*
X25451175Y-20102583D01*
X25252583Y-20301175D01*
X25077476Y-20520753D01*
X24928053Y-20758557D01*
X24806200Y-21011588D01*
X24713443Y-21276670D01*
X24713439Y-21276682D01*
X24650945Y-21550487D01*
X24650942Y-21550505D01*
X24619500Y-21829568D01*
X20620499Y-21829568D01*
X20589055Y-21550491D01*
X20526560Y-21276682D01*
X20433801Y-21011592D01*
X20311945Y-20758555D01*
X20162523Y-20520752D01*
X19987416Y-20301175D01*
X19788825Y-20102584D01*
X19569248Y-19927477D01*
X19331445Y-19778055D01*
X19331442Y-19778053D01*
X19078411Y-19656200D01*
X18813329Y-19563443D01*
X18813317Y-19563439D01*
X18539512Y-19500945D01*
X18539494Y-19500942D01*
X18260431Y-19469500D01*
X18260425Y-19469500D01*
X17979575Y-19469500D01*
X17979568Y-19469500D01*
X17700505Y-19500942D01*
X17700487Y-19500945D01*
X17426682Y-19563439D01*
X17426670Y-19563443D01*
X17161588Y-19656200D01*
X16908557Y-19778053D01*
X16670753Y-19927476D01*
X16451175Y-20102583D01*
X16252583Y-20301175D01*
X16220947Y-20340846D01*
X16163758Y-20380986D01*
X16093947Y-20383836D01*
X16033677Y-20348490D01*
X16002084Y-20286171D01*
X16000000Y-20263533D01*
X16000000Y-19132135D01*
X30109500Y-19132135D01*
X30109500Y-21027870D01*
X30109501Y-21027876D01*
X30115908Y-21087483D01*
X30166202Y-21222328D01*
X30166206Y-21222335D01*
X30252452Y-21337544D01*
X30252455Y-21337547D01*
X30367664Y-21423793D01*
X30367671Y-21423797D01*
X30412618Y-21440561D01*
X30502517Y-21474091D01*
X30562127Y-21480500D01*
X30859788Y-21480499D01*
X30871303Y-21483880D01*
X30883252Y-21482739D01*
X30904206Y-21493541D01*
X30926827Y-21500183D01*
X30936239Y-21510054D01*
X30945356Y-21514754D01*
X30967172Y-21542494D01*
X30971789Y-21550491D01*
X30994386Y-21589630D01*
X31029479Y-21650415D01*
X31148349Y-21769285D01*
X31148355Y-21769290D01*
X33413181Y-24034116D01*
X33446666Y-24095439D01*
X33449500Y-24121797D01*
X33449500Y-26357884D01*
X33443978Y-26376687D01*
X33443406Y-26396280D01*
X33434336Y-26409524D01*
X33429815Y-26424923D01*
X33415004Y-26437756D01*
X33403930Y-26453929D01*
X33381464Y-26466819D01*
X33377011Y-26470678D01*
X33373694Y-26472135D01*
X33371260Y-26473161D01*
X33282669Y-26506204D01*
X33269423Y-26516119D01*
X33255447Y-26522015D01*
X33235193Y-26524325D01*
X33216090Y-26531449D01*
X33198186Y-26528547D01*
X33186028Y-26529934D01*
X33175865Y-26524928D01*
X33159800Y-26522325D01*
X33079127Y-26488909D01*
X33079119Y-26488907D01*
X32881007Y-26449500D01*
X32881003Y-26449500D01*
X32678997Y-26449500D01*
X32678992Y-26449500D01*
X32480880Y-26488907D01*
X32480872Y-26488909D01*
X32294243Y-26566214D01*
X32213439Y-26620204D01*
X32146761Y-26641081D01*
X32079382Y-26622595D01*
X32075659Y-26620203D01*
X31995526Y-26566659D01*
X31995513Y-26566652D01*
X31808984Y-26489390D01*
X31808977Y-26489388D01*
X31760000Y-26479645D01*
X31760000Y-27334134D01*
X31757617Y-27358326D01*
X31754500Y-27373995D01*
X31754500Y-27414170D01*
X31740255Y-27399925D01*
X31654745Y-27350556D01*
X31559370Y-27325000D01*
X31460630Y-27325000D01*
X31365255Y-27350556D01*
X31279745Y-27399925D01*
X31260000Y-27419670D01*
X31260000Y-26479646D01*
X31259999Y-26479645D01*
X31211022Y-26489388D01*
X31211015Y-26489390D01*
X31024486Y-26566652D01*
X31024473Y-26566659D01*
X30856600Y-26678829D01*
X30856596Y-26678832D01*
X30713832Y-26821596D01*
X30713829Y-26821600D01*
X30601659Y-26989473D01*
X30601652Y-26989486D01*
X30524390Y-27176016D01*
X30524387Y-27176025D01*
X30485000Y-27374041D01*
X30485000Y-27450000D01*
X31229670Y-27450000D01*
X31209925Y-27469745D01*
X31160556Y-27555255D01*
X31135000Y-27650630D01*
X31135000Y-27749370D01*
X31160556Y-27844745D01*
X31209925Y-27930255D01*
X31229670Y-27950000D01*
X30485000Y-27950000D01*
X30485000Y-28025958D01*
X30524387Y-28223974D01*
X30524390Y-28223983D01*
X30601652Y-28410513D01*
X30601659Y-28410526D01*
X30713829Y-28578399D01*
X30713832Y-28578403D01*
X30856596Y-28721167D01*
X30856600Y-28721170D01*
X31024473Y-28833340D01*
X31024486Y-28833347D01*
X31211016Y-28910609D01*
X31211025Y-28910612D01*
X31260000Y-28920353D01*
X31260000Y-27980330D01*
X31279745Y-28000075D01*
X31365255Y-28049444D01*
X31460630Y-28075000D01*
X31559370Y-28075000D01*
X31654745Y-28049444D01*
X31740255Y-28000075D01*
X31754500Y-27985830D01*
X31754500Y-28026002D01*
X31757617Y-28041671D01*
X31760000Y-28065865D01*
X31760000Y-28920352D01*
X31808974Y-28910612D01*
X31808983Y-28910609D01*
X31995510Y-28833348D01*
X31997034Y-28832534D01*
X31997925Y-28832348D01*
X32001149Y-28831013D01*
X32001402Y-28831624D01*
X32065435Y-28818285D01*
X32130682Y-28843278D01*
X32172058Y-28899579D01*
X32179499Y-28941886D01*
X32179499Y-29049054D01*
X32179498Y-29049054D01*
X32179499Y-29049057D01*
X32220423Y-29201785D01*
X32247125Y-29248034D01*
X32247125Y-29248035D01*
X32299475Y-29338709D01*
X32299481Y-29338717D01*
X32418349Y-29457585D01*
X32418355Y-29457590D01*
X36565922Y-33605157D01*
X36599407Y-33666480D01*
X36596173Y-33731155D01*
X36591522Y-33745468D01*
X36559500Y-33947648D01*
X36559500Y-34152351D01*
X36591522Y-34354534D01*
X36654781Y-34549223D01*
X36747715Y-34731613D01*
X36868028Y-34897213D01*
X37012786Y-35041971D01*
X37151352Y-35142643D01*
X37178390Y-35162287D01*
X37294607Y-35221503D01*
X37360776Y-35255218D01*
X37360778Y-35255218D01*
X37360781Y-35255220D01*
X37465137Y-35289127D01*
X37555465Y-35318477D01*
X37656557Y-35334488D01*
X37757648Y-35350500D01*
X37757649Y-35350500D01*
X37962351Y-35350500D01*
X37962352Y-35350500D01*
X38164534Y-35318477D01*
X38359219Y-35255220D01*
X38541610Y-35162287D01*
X38634590Y-35094732D01*
X38707213Y-35041971D01*
X38707215Y-35041968D01*
X38707219Y-35041966D01*
X38851966Y-34897219D01*
X38851968Y-34897215D01*
X38851971Y-34897213D01*
X38904732Y-34824590D01*
X38972287Y-34731610D01*
X39065220Y-34549219D01*
X39128477Y-34354534D01*
X39160500Y-34152352D01*
X39160500Y-33947648D01*
X39128477Y-33745465D01*
X39082888Y-33605157D01*
X39065220Y-33550781D01*
X39065218Y-33550778D01*
X39065218Y-33550776D01*
X39026409Y-33474610D01*
X38972287Y-33368390D01*
X38958920Y-33349992D01*
X38851971Y-33202786D01*
X38707213Y-33058028D01*
X38541613Y-32937715D01*
X38541612Y-32937714D01*
X38541610Y-32937713D01*
X38484653Y-32908691D01*
X38359223Y-32844781D01*
X38164534Y-32781522D01*
X37978799Y-32752105D01*
X37962352Y-32749500D01*
X37757648Y-32749500D01*
X37719599Y-32755526D01*
X37555468Y-32781522D01*
X37546717Y-32784365D01*
X37541154Y-32786173D01*
X37471313Y-32788167D01*
X37415157Y-32755922D01*
X34796883Y-30137648D01*
X36559500Y-30137648D01*
X36559500Y-30342351D01*
X36591522Y-30544534D01*
X36654781Y-30739223D01*
X36747715Y-30921613D01*
X36868028Y-31087213D01*
X37012786Y-31231971D01*
X37167749Y-31344556D01*
X37178390Y-31352287D01*
X37294607Y-31411503D01*
X37360776Y-31445218D01*
X37360778Y-31445218D01*
X37360781Y-31445220D01*
X37465137Y-31479127D01*
X37555465Y-31508477D01*
X37656557Y-31524488D01*
X37757648Y-31540500D01*
X37757649Y-31540500D01*
X37962351Y-31540500D01*
X37962352Y-31540500D01*
X38164534Y-31508477D01*
X38359219Y-31445220D01*
X38541610Y-31352287D01*
X38643569Y-31278210D01*
X38707213Y-31231971D01*
X38707215Y-31231968D01*
X38707219Y-31231966D01*
X38851966Y-31087219D01*
X38851968Y-31087215D01*
X38851971Y-31087213D01*
X38912369Y-31004081D01*
X38972287Y-30921610D01*
X39065220Y-30739219D01*
X39128477Y-30544534D01*
X39160500Y-30342352D01*
X39160500Y-30137648D01*
X39128477Y-29935466D01*
X39115924Y-29896833D01*
X39098045Y-29841806D01*
X39065220Y-29740781D01*
X39065218Y-29740778D01*
X39065218Y-29740776D01*
X39031503Y-29674607D01*
X38972287Y-29558390D01*
X38942510Y-29517405D01*
X38851971Y-29392786D01*
X38707213Y-29248028D01*
X38541613Y-29127715D01*
X38541612Y-29127714D01*
X38541610Y-29127713D01*
X38484653Y-29098691D01*
X38359223Y-29034781D01*
X38164534Y-28971522D01*
X37977416Y-28941886D01*
X37962352Y-28939500D01*
X37757648Y-28939500D01*
X37742584Y-28941886D01*
X37555465Y-28971522D01*
X37360776Y-29034781D01*
X37178386Y-29127715D01*
X37012786Y-29248028D01*
X36868028Y-29392786D01*
X36747715Y-29558386D01*
X36654781Y-29740776D01*
X36591522Y-29935465D01*
X36559500Y-30137648D01*
X34796883Y-30137648D01*
X33821415Y-29162180D01*
X33787930Y-29100857D01*
X33792914Y-29031165D01*
X33834786Y-28975232D01*
X33900250Y-28950815D01*
X33909096Y-28950499D01*
X34622871Y-28950499D01*
X34622872Y-28950499D01*
X34682483Y-28944091D01*
X34817331Y-28893796D01*
X34932546Y-28807546D01*
X35018796Y-28692331D01*
X35069091Y-28557483D01*
X35075500Y-28497873D01*
X35075499Y-26902128D01*
X35069091Y-26842517D01*
X35061289Y-26821600D01*
X35018797Y-26707671D01*
X35018793Y-26707664D01*
X34932547Y-26592455D01*
X34932544Y-26592452D01*
X34817335Y-26506206D01*
X34817330Y-26506203D01*
X34731166Y-26474066D01*
X34675233Y-26432194D01*
X34650816Y-26366730D01*
X34650500Y-26357884D01*
X34650500Y-23742645D01*
X34650500Y-23742643D01*
X34609577Y-23589916D01*
X34609573Y-23589909D01*
X34530524Y-23452990D01*
X34530521Y-23452986D01*
X34530520Y-23452984D01*
X34418716Y-23341180D01*
X34418715Y-23341179D01*
X34414385Y-23336849D01*
X34414374Y-23336839D01*
X32667165Y-21589630D01*
X32633680Y-21528307D01*
X32638664Y-21458615D01*
X32680534Y-21402683D01*
X32767546Y-21337546D01*
X32853796Y-21222331D01*
X32881429Y-21148243D01*
X32883601Y-21142420D01*
X32925471Y-21086486D01*
X32990936Y-21062068D01*
X33059209Y-21076919D01*
X33087464Y-21098071D01*
X33137636Y-21148243D01*
X33137641Y-21148247D01*
X33198258Y-21192287D01*
X33315978Y-21277815D01*
X33444375Y-21343237D01*
X33512393Y-21377895D01*
X33512396Y-21377896D01*
X33617221Y-21411955D01*
X33722049Y-21446015D01*
X33939778Y-21480500D01*
X33939779Y-21480500D01*
X34160221Y-21480500D01*
X34160222Y-21480500D01*
X34377951Y-21446015D01*
X34587606Y-21377895D01*
X34784022Y-21277815D01*
X34962365Y-21148242D01*
X35118242Y-20992365D01*
X35247815Y-20814022D01*
X35347895Y-20617606D01*
X35416015Y-20407951D01*
X35450500Y-20190222D01*
X35450500Y-19977648D01*
X36559500Y-19977648D01*
X36559500Y-20182351D01*
X36591522Y-20384534D01*
X36654781Y-20579223D01*
X36718691Y-20704653D01*
X36746157Y-20758557D01*
X36747715Y-20761613D01*
X36868028Y-20927213D01*
X37012786Y-21071971D01*
X37140591Y-21164825D01*
X37178390Y-21192287D01*
X37294607Y-21251503D01*
X37360776Y-21285218D01*
X37360778Y-21285218D01*
X37360781Y-21285220D01*
X37465137Y-21319127D01*
X37555465Y-21348477D01*
X37656557Y-21364488D01*
X37757648Y-21380500D01*
X37757649Y-21380500D01*
X37962351Y-21380500D01*
X37962352Y-21380500D01*
X38164534Y-21348477D01*
X38359219Y-21285220D01*
X38541610Y-21192287D01*
X38652024Y-21112067D01*
X38707213Y-21071971D01*
X38707215Y-21071968D01*
X38707219Y-21071966D01*
X38851966Y-20927219D01*
X38851968Y-20927215D01*
X38851971Y-20927213D01*
X38904732Y-20854590D01*
X38972287Y-20761610D01*
X39065220Y-20579219D01*
X39128477Y-20384534D01*
X39160500Y-20182352D01*
X39160500Y-19977648D01*
X40369500Y-19977648D01*
X40369500Y-20182351D01*
X40401522Y-20384534D01*
X40464781Y-20579223D01*
X40528691Y-20704653D01*
X40556157Y-20758557D01*
X40557715Y-20761613D01*
X40678028Y-20927213D01*
X40822786Y-21071971D01*
X40950591Y-21164825D01*
X40988390Y-21192287D01*
X41104607Y-21251503D01*
X41170776Y-21285218D01*
X41170778Y-21285218D01*
X41170781Y-21285220D01*
X41275137Y-21319127D01*
X41365465Y-21348477D01*
X41466557Y-21364488D01*
X41567648Y-21380500D01*
X41567649Y-21380500D01*
X41772351Y-21380500D01*
X41772352Y-21380500D01*
X41974534Y-21348477D01*
X42169219Y-21285220D01*
X42351610Y-21192287D01*
X42462024Y-21112067D01*
X42517213Y-21071971D01*
X42517215Y-21071968D01*
X42517219Y-21071966D01*
X42661966Y-20927219D01*
X42661968Y-20927215D01*
X42661971Y-20927213D01*
X42714732Y-20854590D01*
X42782287Y-20761610D01*
X42875220Y-20579219D01*
X42938477Y-20384534D01*
X42970500Y-20182352D01*
X42970500Y-19977648D01*
X42938477Y-19775465D01*
X42875218Y-19580776D01*
X42818519Y-19469500D01*
X42782287Y-19398390D01*
X42744205Y-19345974D01*
X42661971Y-19232786D01*
X42517213Y-19088028D01*
X42351613Y-18967715D01*
X42351612Y-18967714D01*
X42351610Y-18967713D01*
X42292636Y-18937664D01*
X42169223Y-18874781D01*
X41974534Y-18811522D01*
X41788799Y-18782105D01*
X41772352Y-18779500D01*
X41567648Y-18779500D01*
X41551201Y-18782105D01*
X41365465Y-18811522D01*
X41170776Y-18874781D01*
X40988386Y-18967715D01*
X40822786Y-19088028D01*
X40678028Y-19232786D01*
X40557715Y-19398386D01*
X40464781Y-19580776D01*
X40401522Y-19775465D01*
X40369500Y-19977648D01*
X39160500Y-19977648D01*
X39128477Y-19775465D01*
X39065218Y-19580776D01*
X39008519Y-19469500D01*
X38972287Y-19398390D01*
X38934205Y-19345974D01*
X38851971Y-19232786D01*
X38707213Y-19088028D01*
X38541613Y-18967715D01*
X38541612Y-18967714D01*
X38541610Y-18967713D01*
X38482636Y-18937664D01*
X38359223Y-18874781D01*
X38164534Y-18811522D01*
X37978799Y-18782105D01*
X37962352Y-18779500D01*
X37757648Y-18779500D01*
X37741201Y-18782105D01*
X37555465Y-18811522D01*
X37360776Y-18874781D01*
X37178386Y-18967715D01*
X37012786Y-19088028D01*
X36868028Y-19232786D01*
X36747715Y-19398386D01*
X36654781Y-19580776D01*
X36591522Y-19775465D01*
X36559500Y-19977648D01*
X35450500Y-19977648D01*
X35450500Y-19969778D01*
X35416015Y-19752049D01*
X35347895Y-19542394D01*
X35347895Y-19542393D01*
X35310753Y-19469500D01*
X35247815Y-19345978D01*
X35165573Y-19232781D01*
X35118247Y-19167641D01*
X35118243Y-19167636D01*
X34962363Y-19011756D01*
X34962358Y-19011752D01*
X34784025Y-18882187D01*
X34784024Y-18882186D01*
X34784022Y-18882185D01*
X34666791Y-18822452D01*
X34587606Y-18782104D01*
X34587603Y-18782103D01*
X34377952Y-18713985D01*
X34269086Y-18696742D01*
X34160222Y-18679500D01*
X33939778Y-18679500D01*
X33867201Y-18690995D01*
X33722047Y-18713985D01*
X33512396Y-18782103D01*
X33512393Y-18782104D01*
X33315974Y-18882187D01*
X33137641Y-19011752D01*
X33137636Y-19011756D01*
X33087463Y-19061929D01*
X33026140Y-19095413D01*
X32956448Y-19090428D01*
X32900515Y-19048557D01*
X32883601Y-19017580D01*
X32853797Y-18937671D01*
X32853793Y-18937664D01*
X32767547Y-18822455D01*
X32767544Y-18822452D01*
X32652335Y-18736206D01*
X32652328Y-18736202D01*
X32517482Y-18685908D01*
X32517483Y-18685908D01*
X32457883Y-18679501D01*
X32457881Y-18679500D01*
X32457873Y-18679500D01*
X32457864Y-18679500D01*
X30562129Y-18679500D01*
X30562123Y-18679501D01*
X30502516Y-18685908D01*
X30367671Y-18736202D01*
X30367664Y-18736206D01*
X30252455Y-18822452D01*
X30252452Y-18822455D01*
X30166206Y-18937664D01*
X30166202Y-18937671D01*
X30115908Y-19072517D01*
X30109501Y-19132116D01*
X30109500Y-19132135D01*
X16000000Y-19132135D01*
X16000000Y-16124000D01*
X16019685Y-16056961D01*
X16072489Y-16011206D01*
X16124000Y-16000000D01*
X63876000Y-16000000D01*
X63943039Y-16019685D01*
G37*
%TD.AperFunction*%
%TD*%
M02*
