M48
; DRILL file {KiCad 9.0.6} date 2025-11-21T13:35:59+0100
; FORMAT={-:-/ absolute / metric / decimal}
; #@! TF.CreationDate,2025-11-21T13:35:59+01:00
; #@! TF.GenerationSoftware,Kicad,Pcbnew,9.0.6
; #@! TF.FileFunction,Plated,1,2,PTH
FMAT,2
METRIC
; #@! TA.AperFunction,Plated,PTH,ViaDrill
T1C0.300
; #@! TA.AperFunction,Plated,PTH,ComponentDrill
T2C0.750
; #@! TA.AperFunction,Plated,PTH,ComponentDrill
T3C0.800
; #@! TA.AperFunction,Plated,PTH,ComponentDrill
T4C0.900
; #@! TA.AperFunction,Plated,PTH,ComponentDrill
T5C0.950
; #@! TA.AperFunction,Plated,PTH,ComponentDrill
T6C1.000
; #@! TA.AperFunction,Plated,PTH,ComponentDrill
T7C2.000
%
G90
G05
T1
X49.628Y-40.752
T2
X31.51Y-27.7
X31.51Y-48.02
X32.78Y-27.7
X32.78Y-48.02
X34.05Y-27.7
X34.05Y-48.02
X45.48Y-27.7
X45.48Y-48.02
X46.75Y-27.7
X46.75Y-48.02
X48.02Y-27.7
X48.02Y-48.02
T3
X27.7Y-34.05
X27.7Y-55.64
X37.86Y-20.08
X37.86Y-30.24
X37.86Y-34.05
X37.86Y-40.4
X37.86Y-50.56
X37.86Y-55.64
X41.67Y-20.08
X41.67Y-30.24
X41.67Y-34.05
X41.67Y-40.4
X41.67Y-50.56
X41.67Y-55.64
X51.83Y-34.05
X51.83Y-55.64
T4
X17.54Y-34.05
X17.54Y-55.64
X25.16Y-34.05
X25.16Y-55.64
X31.51Y-20.08
X31.51Y-40.4
X34.05Y-20.08
X34.05Y-40.4
X45.48Y-20.08
X45.48Y-40.4
X48.02Y-20.08
X48.02Y-40.4
X54.37Y-34.05
X54.37Y-55.64
X61.99Y-34.05
X61.99Y-55.64
T5
X32.301Y-61.625
X34.801Y-61.625
X37.301Y-61.625
X39.801Y-61.625
X42.301Y-61.625
X44.801Y-61.625
X47.301Y-61.625
T6
X20.08Y-28.97
X20.08Y-49.94
X22.62Y-28.97
X22.62Y-49.94
X25.16Y-28.97
X25.16Y-49.94
X54.37Y-28.97
X54.92Y-50.0
X56.91Y-28.97
X57.46Y-50.0
X59.45Y-28.97
X60.0Y-50.0
T7
X18.12Y-21.97
X18.12Y-42.94
X27.12Y-21.97
X27.12Y-42.94
X52.41Y-21.97
X52.96Y-43.0
X61.41Y-21.97
X61.96Y-43.0
M30
