%TF.GenerationSoftware,KiCad,Pcbnew,9.0.6*%
%TF.CreationDate,2025-11-21T13:35:58+01:00*%
%TF.ProjectId,07_io,30375f69-6f2e-46b6-9963-61645f706362,rev?*%
%TF.SameCoordinates,Original*%
%TF.FileFunction,Copper,L1,Top*%
%TF.FilePolarity,Positive*%
%FSLAX46Y46*%
G04 Gerber Fmt 4.6, Leading zero omitted, Abs format (unit mm)*
G04 Created by KiCad (PCBNEW 9.0.6) date 2025-11-21 13:35:58*
%MOMM*%
%LPD*%
G01*
G04 APERTURE LIST*
G04 Aperture macros list*
%AMRoundRect*
0 Rectangle with rounded corners*
0 $1 Rounding radius*
0 $2 $3 $4 $5 $6 $7 $8 $9 X,Y pos of 4 corners*
0 Add a 4 corners polygon primitive as box body*
4,1,4,$2,$3,$4,$5,$6,$7,$8,$9,$2,$3,0*
0 Add four circle primitives for the rounded corners*
1,1,$1+$1,$2,$3*
1,1,$1+$1,$4,$5*
1,1,$1+$1,$6,$7*
1,1,$1+$1,$8,$9*
0 Add four rect primitives between the rounded corners*
20,1,$1+$1,$2,$3,$4,$5,0*
20,1,$1+$1,$4,$5,$6,$7,0*
20,1,$1+$1,$6,$7,$8,$9,0*
20,1,$1+$1,$8,$9,$2,$3,0*%
G04 Aperture macros list end*
%TA.AperFunction,ComponentPad*%
%ADD10C,4.000000*%
%TD*%
%TA.AperFunction,ComponentPad*%
%ADD11C,2.000000*%
%TD*%
%TA.AperFunction,ComponentPad*%
%ADD12C,1.600000*%
%TD*%
%TA.AperFunction,ComponentPad*%
%ADD13RoundRect,0.250000X-0.650000X-0.650000X0.650000X-0.650000X0.650000X0.650000X-0.650000X0.650000X0*%
%TD*%
%TA.AperFunction,ComponentPad*%
%ADD14C,1.800000*%
%TD*%
%TA.AperFunction,ComponentPad*%
%ADD15R,1.050000X1.500000*%
%TD*%
%TA.AperFunction,ComponentPad*%
%ADD16O,1.050000X1.500000*%
%TD*%
%TA.AperFunction,ComponentPad*%
%ADD17R,1.800000X1.800000*%
%TD*%
%TA.AperFunction,ComponentPad*%
%ADD18RoundRect,0.250000X0.650000X0.650000X-0.650000X0.650000X-0.650000X-0.650000X0.650000X-0.650000X0*%
%TD*%
%TA.AperFunction,ComponentPad*%
%ADD19RoundRect,0.250000X0.600000X0.725000X-0.600000X0.725000X-0.600000X-0.725000X0.600000X-0.725000X0*%
%TD*%
%TA.AperFunction,ComponentPad*%
%ADD20O,1.700000X1.950000*%
%TD*%
%TA.AperFunction,ViaPad*%
%ADD21C,0.600000*%
%TD*%
%TA.AperFunction,Conductor*%
%ADD22C,0.200000*%
%TD*%
G04 APERTURE END LIST*
D10*
%TO.P,RV4,*%
%TO.N,*%
X52960000Y-43000000D03*
X61960000Y-43000000D03*
D11*
%TO.P,RV4,1,1*%
%TO.N,S4*%
X54920000Y-50000000D03*
%TO.P,RV4,2,2*%
%TO.N,Net-(D7-A)*%
X57460000Y-50000000D03*
%TO.P,RV4,3,3*%
%TO.N,GND*%
X60000000Y-50000000D03*
%TD*%
D12*
%TO.P,R1,1*%
%TO.N,S1*%
X27700000Y-34050000D03*
%TO.P,R1,2*%
%TO.N,Net-(Q1-B)*%
X37860000Y-34050000D03*
%TD*%
D13*
%TO.P,D3,1,K*%
%TO.N,raw CV*%
X54370000Y-34050000D03*
D14*
%TO.P,D3,2,A*%
%TO.N,Net-(D3-A)*%
X61990000Y-34050000D03*
%TD*%
D15*
%TO.P,Q3,1,C*%
%TO.N,Net-(D6-K)*%
X34050000Y-48020000D03*
D16*
%TO.P,Q3,2,B*%
%TO.N,Net-(Q3-B)*%
X32780000Y-48020000D03*
%TO.P,Q3,3,E*%
%TO.N,GND*%
X31510000Y-48020000D03*
%TD*%
D10*
%TO.P,RV2,*%
%TO.N,*%
X52410000Y-21970000D03*
X61410000Y-21970000D03*
D11*
%TO.P,RV2,1,1*%
%TO.N,S2*%
X54370000Y-28970000D03*
%TO.P,RV2,2,2*%
%TO.N,Net-(D3-A)*%
X56910000Y-28970000D03*
%TO.P,RV2,3,3*%
%TO.N,GND*%
X59450000Y-28970000D03*
%TD*%
D12*
%TO.P,R7,1*%
%TO.N,S4*%
X51830000Y-55640000D03*
%TO.P,R7,2*%
%TO.N,Net-(Q4-B)*%
X41670000Y-55640000D03*
%TD*%
%TO.P,R8,1*%
%TO.N,+12V*%
X41670000Y-50560000D03*
%TO.P,R8,2*%
%TO.N,Net-(D8-A)*%
X41670000Y-40400000D03*
%TD*%
%TO.P,R2,1*%
%TO.N,+12V*%
X37860000Y-30240000D03*
%TO.P,R2,2*%
%TO.N,Net-(D2-A)*%
X37860000Y-20080000D03*
%TD*%
D17*
%TO.P,D4,1,K*%
%TO.N,Net-(D4-K)*%
X45480000Y-20080000D03*
D14*
%TO.P,D4,2,A*%
%TO.N,Net-(D4-A)*%
X48020000Y-20080000D03*
%TD*%
D12*
%TO.P,R3,1*%
%TO.N,S2*%
X51830000Y-34050000D03*
%TO.P,R3,2*%
%TO.N,Net-(Q2-B)*%
X41670000Y-34050000D03*
%TD*%
D17*
%TO.P,D6,1,K*%
%TO.N,Net-(D6-K)*%
X31510000Y-40400000D03*
D14*
%TO.P,D6,2,A*%
%TO.N,Net-(D6-A)*%
X34050000Y-40400000D03*
%TD*%
D12*
%TO.P,R4,1*%
%TO.N,+12V*%
X41670000Y-30240000D03*
%TO.P,R4,2*%
%TO.N,Net-(D4-A)*%
X41670000Y-20080000D03*
%TD*%
D18*
%TO.P,D1,1,K*%
%TO.N,raw CV*%
X25160000Y-34050000D03*
D14*
%TO.P,D1,2,A*%
%TO.N,Net-(D1-A)*%
X17540000Y-34050000D03*
%TD*%
D15*
%TO.P,Q1,1,C*%
%TO.N,Net-(D2-K)*%
X34050000Y-27700000D03*
D16*
%TO.P,Q1,2,B*%
%TO.N,Net-(Q1-B)*%
X32780000Y-27700000D03*
%TO.P,Q1,3,E*%
%TO.N,GND*%
X31510000Y-27700000D03*
%TD*%
D15*
%TO.P,Q2,1,C*%
%TO.N,Net-(D4-K)*%
X48020000Y-27700000D03*
D16*
%TO.P,Q2,2,B*%
%TO.N,Net-(Q2-B)*%
X46750000Y-27700000D03*
%TO.P,Q2,3,E*%
%TO.N,GND*%
X45480000Y-27700000D03*
%TD*%
D15*
%TO.P,Q4,1,C*%
%TO.N,Net-(D8-K)*%
X48020000Y-48020000D03*
D16*
%TO.P,Q4,2,B*%
%TO.N,Net-(Q4-B)*%
X46750000Y-48020000D03*
%TO.P,Q4,3,E*%
%TO.N,GND*%
X45480000Y-48020000D03*
%TD*%
D13*
%TO.P,D7,1,K*%
%TO.N,raw CV*%
X54370000Y-55640000D03*
D14*
%TO.P,D7,2,A*%
%TO.N,Net-(D7-A)*%
X61990000Y-55640000D03*
%TD*%
D18*
%TO.P,D5,1,K*%
%TO.N,raw CV*%
X25160000Y-55640000D03*
D14*
%TO.P,D5,2,A*%
%TO.N,Net-(D5-A)*%
X17540000Y-55640000D03*
%TD*%
D17*
%TO.P,D8,1,K*%
%TO.N,Net-(D8-K)*%
X45480000Y-40400000D03*
D14*
%TO.P,D8,2,A*%
%TO.N,Net-(D8-A)*%
X48020000Y-40400000D03*
%TD*%
D12*
%TO.P,R5,1*%
%TO.N,S3*%
X27700000Y-55640000D03*
%TO.P,R5,2*%
%TO.N,Net-(Q3-B)*%
X37860000Y-55640000D03*
%TD*%
D10*
%TO.P,RV1,*%
%TO.N,*%
X18120000Y-21970000D03*
X27120000Y-21970000D03*
D11*
%TO.P,RV1,1,1*%
%TO.N,S1*%
X20080000Y-28970000D03*
%TO.P,RV1,2,2*%
%TO.N,Net-(D1-A)*%
X22620000Y-28970000D03*
%TO.P,RV1,3,3*%
%TO.N,GND*%
X25160000Y-28970000D03*
%TD*%
D10*
%TO.P,RV3,*%
%TO.N,*%
X18120000Y-42940000D03*
X27120000Y-42940000D03*
D11*
%TO.P,RV3,1,1*%
%TO.N,S3*%
X20080000Y-49940000D03*
%TO.P,RV3,2,2*%
%TO.N,Net-(D5-A)*%
X22620000Y-49940000D03*
%TO.P,RV3,3,3*%
%TO.N,GND*%
X25160000Y-49940000D03*
%TD*%
D19*
%TO.P,J1,1,Pin_1*%
%TO.N,S1*%
X47300700Y-61624900D03*
D20*
%TO.P,J1,2,Pin_2*%
%TO.N,S2*%
X44800700Y-61624900D03*
%TO.P,J1,3,Pin_3*%
%TO.N,S3*%
X42300700Y-61624900D03*
%TO.P,J1,4,Pin_4*%
%TO.N,S4*%
X39800700Y-61624900D03*
%TO.P,J1,5,Pin_5*%
%TO.N,raw CV*%
X37300700Y-61624900D03*
%TO.P,J1,6,Pin_6*%
%TO.N,+12V*%
X34800700Y-61624900D03*
%TO.P,J1,7,Pin_7*%
%TO.N,GND*%
X32300700Y-61624900D03*
%TD*%
D12*
%TO.P,R6,1*%
%TO.N,+12V*%
X37860000Y-50560000D03*
%TO.P,R6,2*%
%TO.N,Net-(D6-A)*%
X37860000Y-40400000D03*
%TD*%
D17*
%TO.P,D2,1,K*%
%TO.N,Net-(D2-K)*%
X31510000Y-20080000D03*
D14*
%TO.P,D2,2,A*%
%TO.N,Net-(D2-A)*%
X34050000Y-20080000D03*
%TD*%
D21*
%TO.N,S1*%
X49628000Y-40751600D03*
%TD*%
D22*
%TO.N,Net-(D8-A)*%
X46746700Y-41673300D02*
X48020000Y-40400000D01*
X42943300Y-41673300D02*
X46746700Y-41673300D01*
X41670000Y-40400000D02*
X42943300Y-41673300D01*
%TO.N,Net-(Q3-B)*%
X32780000Y-50560000D02*
X37860000Y-55640000D01*
X32780000Y-48020000D02*
X32780000Y-50560000D01*
%TO.N,+12V*%
X37860000Y-30240000D02*
X41670000Y-30240000D01*
X41670000Y-50560000D02*
X37860000Y-50560000D01*
%TO.N,S3*%
X25388000Y-53328000D02*
X27700000Y-55640000D01*
X23468000Y-53328000D02*
X25388000Y-53328000D01*
X20080000Y-49940000D02*
X23468000Y-53328000D01*
X33072900Y-55640000D02*
X27700000Y-55640000D01*
X38550700Y-61117800D02*
X33072900Y-55640000D01*
X38550700Y-62134300D02*
X38550700Y-61117800D01*
X39359700Y-62943300D02*
X38550700Y-62134300D01*
X40982300Y-62943300D02*
X39359700Y-62943300D01*
X42300700Y-61624900D02*
X40982300Y-62943300D01*
%TO.N,S4*%
X51830000Y-53090000D02*
X54920000Y-50000000D01*
X51830000Y-55640000D02*
X51830000Y-53090000D01*
X39800700Y-61624900D02*
X40952400Y-61624900D01*
X40952400Y-61173200D02*
X40952400Y-61624900D01*
X46485600Y-55640000D02*
X40952400Y-61173200D01*
X51830000Y-55640000D02*
X46485600Y-55640000D01*
%TO.N,S1*%
X26378500Y-32728500D02*
X27700000Y-34050000D01*
X23838500Y-32728500D02*
X26378500Y-32728500D01*
X20080000Y-28970000D02*
X23838500Y-32728500D01*
X49628000Y-40286900D02*
X49628000Y-40751600D01*
X48442400Y-39101300D02*
X49628000Y-40286900D01*
X32751300Y-39101300D02*
X48442400Y-39101300D01*
X27700000Y-34050000D02*
X32751300Y-39101300D01*
X49628000Y-40751600D02*
X49628000Y-40286900D01*
X49628000Y-40286900D02*
X49628000Y-40751600D01*
%TO.N,Net-(D6-A)*%
X34050000Y-40400000D02*
X37860000Y-40400000D01*
%TO.N,Net-(D4-A)*%
X42875200Y-21285200D02*
X41670000Y-20080000D01*
X46814800Y-21285200D02*
X42875200Y-21285200D01*
X48020000Y-20080000D02*
X46814800Y-21285200D01*
%TO.N,Net-(D2-A)*%
X34050000Y-20080000D02*
X37860000Y-20080000D01*
%TO.N,raw CV*%
X37300700Y-61624900D02*
X36149000Y-61624900D01*
X36149000Y-61214200D02*
X36149000Y-61624900D01*
X35245900Y-60311100D02*
X36149000Y-61214200D01*
X29831100Y-60311100D02*
X35245900Y-60311100D01*
X25160000Y-55640000D02*
X29831100Y-60311100D01*
X52101600Y-57908400D02*
X54370000Y-55640000D01*
X46728200Y-57908400D02*
X52101600Y-57908400D01*
X43550700Y-61085900D02*
X46728200Y-57908400D01*
X43550700Y-62159500D02*
X43550700Y-61085900D01*
X42293300Y-63416900D02*
X43550700Y-62159500D01*
X39092700Y-63416900D02*
X42293300Y-63416900D01*
X37300700Y-61624900D02*
X39092700Y-63416900D01*
%TD*%
M02*
