M48
; DRILL file {KiCad 9.0.5} date 2025-10-05T20:16:53+0200
; FORMAT={-:-/ absolute / metric / decimal}
; #@! TF.CreationDate,2025-10-05T20:16:53+02:00
; #@! TF.GenerationSoftware,Kicad,Pcbnew,9.0.5
; #@! TF.FileFunction,Plated,1,2,PTH
FMAT,2
METRIC
; #@! TA.AperFunction,Plated,PTH,ViaDrill
T1C0.300
; #@! TA.AperFunction,Plated,PTH,ComponentDrill
T2C0.800
; #@! TA.AperFunction,Plated,PTH,ComponentDrill
T3C1.000
; #@! TA.AperFunction,Plated,PTH,ComponentDrill
T4C2.000
%
G90
G05
T1
X87.714Y-89.705
X95.127Y-66.81
X101.458Y-73.139
T2
X95.0Y-43.92
X95.0Y-54.08
X95.0Y-91.0
X95.0Y-101.16
T3
X82.46Y-56.0
X82.46Y-74.0
X82.46Y-92.0
X85.0Y-56.0
X85.0Y-74.0
X85.0Y-92.0
X87.54Y-56.0
X87.54Y-74.0
X87.54Y-92.0
X94.46Y-63.0
X94.46Y-65.54
X94.46Y-68.08
X94.46Y-70.62
X94.46Y-73.16
X94.46Y-75.7
X94.46Y-78.24
X94.46Y-80.78
X94.46Y-83.32
X94.46Y-85.86
X97.0Y-63.0
X97.0Y-65.54
X97.0Y-68.08
X97.0Y-70.62
X97.0Y-73.16
X97.0Y-75.7
X97.0Y-78.24
X97.0Y-80.78
X97.0Y-83.32
X97.0Y-85.86
X103.46Y-56.0
X103.46Y-74.0
X103.46Y-92.0
X106.0Y-56.0
X106.0Y-74.0
X106.0Y-92.0
X108.54Y-56.0
X108.54Y-74.0
X108.54Y-92.0
T4
X80.5Y-49.0
X80.5Y-67.0
X80.5Y-85.0
X89.5Y-49.0
X89.5Y-67.0
X89.5Y-85.0
X101.5Y-49.0
X101.5Y-67.0
X101.5Y-85.0
X110.5Y-49.0
X110.5Y-67.0
X110.5Y-85.0
T3
G00X81.0Y-99.5
M15
G01X81.0Y-100.5
M16
G05
G00X85.5Y-99.5
M15
G01X85.5Y-100.5
M16
G05
G00X90.0Y-99.5
M15
G01X90.0Y-100.5
M16
G05
G00X101.5Y-99.5
M15
G01X101.5Y-100.5
M16
G05
G00X106.0Y-99.5
M15
G01X106.0Y-100.5
M16
G05
G00X110.5Y-99.5
M15
G01X110.5Y-100.5
M16
G05
M30
