%TF.GenerationSoftware,KiCad,Pcbnew,9.0.5*%
%TF.CreationDate,2025-10-05T20:16:51+02:00*%
%TF.ProjectId,11_fm_drum_io,31315f66-6d5f-4647-9275-6d5f696f2e6b,rev?*%
%TF.SameCoordinates,Original*%
%TF.FileFunction,Legend,Top*%
%TF.FilePolarity,Positive*%
%FSLAX46Y46*%
G04 Gerber Fmt 4.6, Leading zero omitted, Abs format (unit mm)*
G04 Created by KiCad (PCBNEW 9.0.5) date 2025-10-05 20:16:51*
%MOMM*%
%LPD*%
G01*
G04 APERTURE LIST*
%ADD10C,0.150000*%
%ADD11C,0.100000*%
G04 APERTURE END LIST*
D10*
X76670112Y-107346009D02*
X76336779Y-107346009D01*
X76336779Y-107869819D02*
X76336779Y-106869819D01*
X76336779Y-106869819D02*
X76812969Y-106869819D01*
X77193922Y-107869819D02*
X77193922Y-106869819D01*
X77193922Y-106869819D02*
X77527255Y-107584104D01*
X77527255Y-107584104D02*
X77860588Y-106869819D01*
X77860588Y-106869819D02*
X77860588Y-107869819D01*
X79098684Y-107869819D02*
X79098684Y-106869819D01*
X79098684Y-106869819D02*
X79336779Y-106869819D01*
X79336779Y-106869819D02*
X79479636Y-106917438D01*
X79479636Y-106917438D02*
X79574874Y-107012676D01*
X79574874Y-107012676D02*
X79622493Y-107107914D01*
X79622493Y-107107914D02*
X79670112Y-107298390D01*
X79670112Y-107298390D02*
X79670112Y-107441247D01*
X79670112Y-107441247D02*
X79622493Y-107631723D01*
X79622493Y-107631723D02*
X79574874Y-107726961D01*
X79574874Y-107726961D02*
X79479636Y-107822200D01*
X79479636Y-107822200D02*
X79336779Y-107869819D01*
X79336779Y-107869819D02*
X79098684Y-107869819D01*
X80098684Y-107869819D02*
X80098684Y-107203152D01*
X80098684Y-107393628D02*
X80146303Y-107298390D01*
X80146303Y-107298390D02*
X80193922Y-107250771D01*
X80193922Y-107250771D02*
X80289160Y-107203152D01*
X80289160Y-107203152D02*
X80384398Y-107203152D01*
X81146303Y-107203152D02*
X81146303Y-107869819D01*
X80717732Y-107203152D02*
X80717732Y-107726961D01*
X80717732Y-107726961D02*
X80765351Y-107822200D01*
X80765351Y-107822200D02*
X80860589Y-107869819D01*
X80860589Y-107869819D02*
X81003446Y-107869819D01*
X81003446Y-107869819D02*
X81098684Y-107822200D01*
X81098684Y-107822200D02*
X81146303Y-107774580D01*
X81622494Y-107869819D02*
X81622494Y-107203152D01*
X81622494Y-107298390D02*
X81670113Y-107250771D01*
X81670113Y-107250771D02*
X81765351Y-107203152D01*
X81765351Y-107203152D02*
X81908208Y-107203152D01*
X81908208Y-107203152D02*
X82003446Y-107250771D01*
X82003446Y-107250771D02*
X82051065Y-107346009D01*
X82051065Y-107346009D02*
X82051065Y-107869819D01*
X82051065Y-107346009D02*
X82098684Y-107250771D01*
X82098684Y-107250771D02*
X82193922Y-107203152D01*
X82193922Y-107203152D02*
X82336779Y-107203152D01*
X82336779Y-107203152D02*
X82432018Y-107250771D01*
X82432018Y-107250771D02*
X82479637Y-107346009D01*
X82479637Y-107346009D02*
X82479637Y-107869819D01*
X83717732Y-107869819D02*
X83717732Y-106869819D01*
X84384398Y-106869819D02*
X84574874Y-106869819D01*
X84574874Y-106869819D02*
X84670112Y-106917438D01*
X84670112Y-106917438D02*
X84765350Y-107012676D01*
X84765350Y-107012676D02*
X84812969Y-107203152D01*
X84812969Y-107203152D02*
X84812969Y-107536485D01*
X84812969Y-107536485D02*
X84765350Y-107726961D01*
X84765350Y-107726961D02*
X84670112Y-107822200D01*
X84670112Y-107822200D02*
X84574874Y-107869819D01*
X84574874Y-107869819D02*
X84384398Y-107869819D01*
X84384398Y-107869819D02*
X84289160Y-107822200D01*
X84289160Y-107822200D02*
X84193922Y-107726961D01*
X84193922Y-107726961D02*
X84146303Y-107536485D01*
X84146303Y-107536485D02*
X84146303Y-107203152D01*
X84146303Y-107203152D02*
X84193922Y-107012676D01*
X84193922Y-107012676D02*
X84289160Y-106917438D01*
X84289160Y-106917438D02*
X84384398Y-106869819D01*
X86003446Y-107869819D02*
X86003446Y-106869819D01*
X86003446Y-107250771D02*
X86098684Y-107203152D01*
X86098684Y-107203152D02*
X86289160Y-107203152D01*
X86289160Y-107203152D02*
X86384398Y-107250771D01*
X86384398Y-107250771D02*
X86432017Y-107298390D01*
X86432017Y-107298390D02*
X86479636Y-107393628D01*
X86479636Y-107393628D02*
X86479636Y-107679342D01*
X86479636Y-107679342D02*
X86432017Y-107774580D01*
X86432017Y-107774580D02*
X86384398Y-107822200D01*
X86384398Y-107822200D02*
X86289160Y-107869819D01*
X86289160Y-107869819D02*
X86098684Y-107869819D01*
X86098684Y-107869819D02*
X86003446Y-107822200D01*
X87051065Y-107869819D02*
X86955827Y-107822200D01*
X86955827Y-107822200D02*
X86908208Y-107774580D01*
X86908208Y-107774580D02*
X86860589Y-107679342D01*
X86860589Y-107679342D02*
X86860589Y-107393628D01*
X86860589Y-107393628D02*
X86908208Y-107298390D01*
X86908208Y-107298390D02*
X86955827Y-107250771D01*
X86955827Y-107250771D02*
X87051065Y-107203152D01*
X87051065Y-107203152D02*
X87193922Y-107203152D01*
X87193922Y-107203152D02*
X87289160Y-107250771D01*
X87289160Y-107250771D02*
X87336779Y-107298390D01*
X87336779Y-107298390D02*
X87384398Y-107393628D01*
X87384398Y-107393628D02*
X87384398Y-107679342D01*
X87384398Y-107679342D02*
X87336779Y-107774580D01*
X87336779Y-107774580D02*
X87289160Y-107822200D01*
X87289160Y-107822200D02*
X87193922Y-107869819D01*
X87193922Y-107869819D02*
X87051065Y-107869819D01*
X88241541Y-107869819D02*
X88241541Y-107346009D01*
X88241541Y-107346009D02*
X88193922Y-107250771D01*
X88193922Y-107250771D02*
X88098684Y-107203152D01*
X88098684Y-107203152D02*
X87908208Y-107203152D01*
X87908208Y-107203152D02*
X87812970Y-107250771D01*
X88241541Y-107822200D02*
X88146303Y-107869819D01*
X88146303Y-107869819D02*
X87908208Y-107869819D01*
X87908208Y-107869819D02*
X87812970Y-107822200D01*
X87812970Y-107822200D02*
X87765351Y-107726961D01*
X87765351Y-107726961D02*
X87765351Y-107631723D01*
X87765351Y-107631723D02*
X87812970Y-107536485D01*
X87812970Y-107536485D02*
X87908208Y-107488866D01*
X87908208Y-107488866D02*
X88146303Y-107488866D01*
X88146303Y-107488866D02*
X88241541Y-107441247D01*
X88717732Y-107869819D02*
X88717732Y-107203152D01*
X88717732Y-107393628D02*
X88765351Y-107298390D01*
X88765351Y-107298390D02*
X88812970Y-107250771D01*
X88812970Y-107250771D02*
X88908208Y-107203152D01*
X88908208Y-107203152D02*
X89003446Y-107203152D01*
X89765351Y-107869819D02*
X89765351Y-106869819D01*
X89765351Y-107822200D02*
X89670113Y-107869819D01*
X89670113Y-107869819D02*
X89479637Y-107869819D01*
X89479637Y-107869819D02*
X89384399Y-107822200D01*
X89384399Y-107822200D02*
X89336780Y-107774580D01*
X89336780Y-107774580D02*
X89289161Y-107679342D01*
X89289161Y-107679342D02*
X89289161Y-107393628D01*
X89289161Y-107393628D02*
X89336780Y-107298390D01*
X89336780Y-107298390D02*
X89384399Y-107250771D01*
X89384399Y-107250771D02*
X89479637Y-107203152D01*
X89479637Y-107203152D02*
X89670113Y-107203152D01*
X89670113Y-107203152D02*
X89765351Y-107250771D01*
X91003447Y-107869819D02*
X91003447Y-107203152D01*
X91003447Y-107393628D02*
X91051066Y-107298390D01*
X91051066Y-107298390D02*
X91098685Y-107250771D01*
X91098685Y-107250771D02*
X91193923Y-107203152D01*
X91193923Y-107203152D02*
X91289161Y-107203152D01*
X92003447Y-107822200D02*
X91908209Y-107869819D01*
X91908209Y-107869819D02*
X91717733Y-107869819D01*
X91717733Y-107869819D02*
X91622495Y-107822200D01*
X91622495Y-107822200D02*
X91574876Y-107726961D01*
X91574876Y-107726961D02*
X91574876Y-107346009D01*
X91574876Y-107346009D02*
X91622495Y-107250771D01*
X91622495Y-107250771D02*
X91717733Y-107203152D01*
X91717733Y-107203152D02*
X91908209Y-107203152D01*
X91908209Y-107203152D02*
X92003447Y-107250771D01*
X92003447Y-107250771D02*
X92051066Y-107346009D01*
X92051066Y-107346009D02*
X92051066Y-107441247D01*
X92051066Y-107441247D02*
X91574876Y-107536485D01*
X92384400Y-107203152D02*
X92622495Y-107869819D01*
X92622495Y-107869819D02*
X92860590Y-107203152D01*
X94527257Y-107869819D02*
X93955829Y-107869819D01*
X94241543Y-107869819D02*
X94241543Y-106869819D01*
X94241543Y-106869819D02*
X94146305Y-107012676D01*
X94146305Y-107012676D02*
X94051067Y-107107914D01*
X94051067Y-107107914D02*
X93955829Y-107155533D01*
D11*
X100066667Y-105409800D02*
X100209524Y-105457419D01*
X100209524Y-105457419D02*
X100447619Y-105457419D01*
X100447619Y-105457419D02*
X100542857Y-105409800D01*
X100542857Y-105409800D02*
X100590476Y-105362180D01*
X100590476Y-105362180D02*
X100638095Y-105266942D01*
X100638095Y-105266942D02*
X100638095Y-105171704D01*
X100638095Y-105171704D02*
X100590476Y-105076466D01*
X100590476Y-105076466D02*
X100542857Y-105028847D01*
X100542857Y-105028847D02*
X100447619Y-104981228D01*
X100447619Y-104981228D02*
X100257143Y-104933609D01*
X100257143Y-104933609D02*
X100161905Y-104885990D01*
X100161905Y-104885990D02*
X100114286Y-104838371D01*
X100114286Y-104838371D02*
X100066667Y-104743133D01*
X100066667Y-104743133D02*
X100066667Y-104647895D01*
X100066667Y-104647895D02*
X100114286Y-104552657D01*
X100114286Y-104552657D02*
X100161905Y-104505038D01*
X100161905Y-104505038D02*
X100257143Y-104457419D01*
X100257143Y-104457419D02*
X100495238Y-104457419D01*
X100495238Y-104457419D02*
X100638095Y-104505038D01*
X100971429Y-104457419D02*
X101209524Y-105457419D01*
X101209524Y-105457419D02*
X101400000Y-104743133D01*
X101400000Y-104743133D02*
X101590476Y-105457419D01*
X101590476Y-105457419D02*
X101828572Y-104457419D01*
X102161905Y-104552657D02*
X102209524Y-104505038D01*
X102209524Y-104505038D02*
X102304762Y-104457419D01*
X102304762Y-104457419D02*
X102542857Y-104457419D01*
X102542857Y-104457419D02*
X102638095Y-104505038D01*
X102638095Y-104505038D02*
X102685714Y-104552657D01*
X102685714Y-104552657D02*
X102733333Y-104647895D01*
X102733333Y-104647895D02*
X102733333Y-104743133D01*
X102733333Y-104743133D02*
X102685714Y-104885990D01*
X102685714Y-104885990D02*
X102114286Y-105457419D01*
X102114286Y-105457419D02*
X102733333Y-105457419D01*
D10*
X104396553Y-105307200D02*
X104491791Y-105354819D01*
X104491791Y-105354819D02*
X104682267Y-105354819D01*
X104682267Y-105354819D02*
X104777505Y-105307200D01*
X104777505Y-105307200D02*
X104825124Y-105211961D01*
X104825124Y-105211961D02*
X104825124Y-105164342D01*
X104825124Y-105164342D02*
X104777505Y-105069104D01*
X104777505Y-105069104D02*
X104682267Y-105021485D01*
X104682267Y-105021485D02*
X104539410Y-105021485D01*
X104539410Y-105021485D02*
X104444172Y-104973866D01*
X104444172Y-104973866D02*
X104396553Y-104878628D01*
X104396553Y-104878628D02*
X104396553Y-104831009D01*
X104396553Y-104831009D02*
X104444172Y-104735771D01*
X104444172Y-104735771D02*
X104539410Y-104688152D01*
X104539410Y-104688152D02*
X104682267Y-104688152D01*
X104682267Y-104688152D02*
X104777505Y-104735771D01*
X105253696Y-105354819D02*
X105253696Y-104688152D01*
X105253696Y-104354819D02*
X105206077Y-104402438D01*
X105206077Y-104402438D02*
X105253696Y-104450057D01*
X105253696Y-104450057D02*
X105301315Y-104402438D01*
X105301315Y-104402438D02*
X105253696Y-104354819D01*
X105253696Y-104354819D02*
X105253696Y-104450057D01*
X105729886Y-104688152D02*
X105729886Y-105354819D01*
X105729886Y-104783390D02*
X105777505Y-104735771D01*
X105777505Y-104735771D02*
X105872743Y-104688152D01*
X105872743Y-104688152D02*
X106015600Y-104688152D01*
X106015600Y-104688152D02*
X106110838Y-104735771D01*
X106110838Y-104735771D02*
X106158457Y-104831009D01*
X106158457Y-104831009D02*
X106158457Y-105354819D01*
X107015600Y-105307200D02*
X106920362Y-105354819D01*
X106920362Y-105354819D02*
X106729886Y-105354819D01*
X106729886Y-105354819D02*
X106634648Y-105307200D01*
X106634648Y-105307200D02*
X106587029Y-105211961D01*
X106587029Y-105211961D02*
X106587029Y-104831009D01*
X106587029Y-104831009D02*
X106634648Y-104735771D01*
X106634648Y-104735771D02*
X106729886Y-104688152D01*
X106729886Y-104688152D02*
X106920362Y-104688152D01*
X106920362Y-104688152D02*
X107015600Y-104735771D01*
X107015600Y-104735771D02*
X107063219Y-104831009D01*
X107063219Y-104831009D02*
X107063219Y-104926247D01*
X107063219Y-104926247D02*
X106587029Y-105021485D01*
X108206076Y-104307200D02*
X107348934Y-105592914D01*
X108539410Y-104688152D02*
X108539410Y-105688152D01*
X108539410Y-104735771D02*
X108634648Y-104688152D01*
X108634648Y-104688152D02*
X108825124Y-104688152D01*
X108825124Y-104688152D02*
X108920362Y-104735771D01*
X108920362Y-104735771D02*
X108967981Y-104783390D01*
X108967981Y-104783390D02*
X109015600Y-104878628D01*
X109015600Y-104878628D02*
X109015600Y-105164342D01*
X109015600Y-105164342D02*
X108967981Y-105259580D01*
X108967981Y-105259580D02*
X108920362Y-105307200D01*
X108920362Y-105307200D02*
X108825124Y-105354819D01*
X108825124Y-105354819D02*
X108634648Y-105354819D01*
X108634648Y-105354819D02*
X108539410Y-105307200D01*
X109872743Y-104688152D02*
X109872743Y-105354819D01*
X109444172Y-104688152D02*
X109444172Y-105211961D01*
X109444172Y-105211961D02*
X109491791Y-105307200D01*
X109491791Y-105307200D02*
X109587029Y-105354819D01*
X109587029Y-105354819D02*
X109729886Y-105354819D01*
X109729886Y-105354819D02*
X109825124Y-105307200D01*
X109825124Y-105307200D02*
X109872743Y-105259580D01*
X110491791Y-105354819D02*
X110396553Y-105307200D01*
X110396553Y-105307200D02*
X110348934Y-105211961D01*
X110348934Y-105211961D02*
X110348934Y-104354819D01*
X110825125Y-105307200D02*
X110920363Y-105354819D01*
X110920363Y-105354819D02*
X111110839Y-105354819D01*
X111110839Y-105354819D02*
X111206077Y-105307200D01*
X111206077Y-105307200D02*
X111253696Y-105211961D01*
X111253696Y-105211961D02*
X111253696Y-105164342D01*
X111253696Y-105164342D02*
X111206077Y-105069104D01*
X111206077Y-105069104D02*
X111110839Y-105021485D01*
X111110839Y-105021485D02*
X110967982Y-105021485D01*
X110967982Y-105021485D02*
X110872744Y-104973866D01*
X110872744Y-104973866D02*
X110825125Y-104878628D01*
X110825125Y-104878628D02*
X110825125Y-104831009D01*
X110825125Y-104831009D02*
X110872744Y-104735771D01*
X110872744Y-104735771D02*
X110967982Y-104688152D01*
X110967982Y-104688152D02*
X111110839Y-104688152D01*
X111110839Y-104688152D02*
X111206077Y-104735771D01*
X112063220Y-105307200D02*
X111967982Y-105354819D01*
X111967982Y-105354819D02*
X111777506Y-105354819D01*
X111777506Y-105354819D02*
X111682268Y-105307200D01*
X111682268Y-105307200D02*
X111634649Y-105211961D01*
X111634649Y-105211961D02*
X111634649Y-104831009D01*
X111634649Y-104831009D02*
X111682268Y-104735771D01*
X111682268Y-104735771D02*
X111777506Y-104688152D01*
X111777506Y-104688152D02*
X111967982Y-104688152D01*
X111967982Y-104688152D02*
X112063220Y-104735771D01*
X112063220Y-104735771D02*
X112110839Y-104831009D01*
X112110839Y-104831009D02*
X112110839Y-104926247D01*
X112110839Y-104926247D02*
X111634649Y-105021485D01*
D11*
X79904761Y-76957419D02*
X79571428Y-76481228D01*
X79333333Y-76957419D02*
X79333333Y-75957419D01*
X79333333Y-75957419D02*
X79714285Y-75957419D01*
X79714285Y-75957419D02*
X79809523Y-76005038D01*
X79809523Y-76005038D02*
X79857142Y-76052657D01*
X79857142Y-76052657D02*
X79904761Y-76147895D01*
X79904761Y-76147895D02*
X79904761Y-76290752D01*
X79904761Y-76290752D02*
X79857142Y-76385990D01*
X79857142Y-76385990D02*
X79809523Y-76433609D01*
X79809523Y-76433609D02*
X79714285Y-76481228D01*
X79714285Y-76481228D02*
X79333333Y-76481228D01*
X80190476Y-75957419D02*
X80523809Y-76957419D01*
X80523809Y-76957419D02*
X80857142Y-75957419D01*
X81714285Y-76957419D02*
X81142857Y-76957419D01*
X81428571Y-76957419D02*
X81428571Y-75957419D01*
X81428571Y-75957419D02*
X81333333Y-76100276D01*
X81333333Y-76100276D02*
X81238095Y-76195514D01*
X81238095Y-76195514D02*
X81142857Y-76243133D01*
D10*
X88496553Y-76954819D02*
X87925125Y-76954819D01*
X88210839Y-76954819D02*
X88210839Y-75954819D01*
X88210839Y-75954819D02*
X88115601Y-76097676D01*
X88115601Y-76097676D02*
X88020363Y-76192914D01*
X88020363Y-76192914D02*
X87925125Y-76240533D01*
X89115601Y-75954819D02*
X89210839Y-75954819D01*
X89210839Y-75954819D02*
X89306077Y-76002438D01*
X89306077Y-76002438D02*
X89353696Y-76050057D01*
X89353696Y-76050057D02*
X89401315Y-76145295D01*
X89401315Y-76145295D02*
X89448934Y-76335771D01*
X89448934Y-76335771D02*
X89448934Y-76573866D01*
X89448934Y-76573866D02*
X89401315Y-76764342D01*
X89401315Y-76764342D02*
X89353696Y-76859580D01*
X89353696Y-76859580D02*
X89306077Y-76907200D01*
X89306077Y-76907200D02*
X89210839Y-76954819D01*
X89210839Y-76954819D02*
X89115601Y-76954819D01*
X89115601Y-76954819D02*
X89020363Y-76907200D01*
X89020363Y-76907200D02*
X88972744Y-76859580D01*
X88972744Y-76859580D02*
X88925125Y-76764342D01*
X88925125Y-76764342D02*
X88877506Y-76573866D01*
X88877506Y-76573866D02*
X88877506Y-76335771D01*
X88877506Y-76335771D02*
X88925125Y-76145295D01*
X88925125Y-76145295D02*
X88972744Y-76050057D01*
X88972744Y-76050057D02*
X89020363Y-76002438D01*
X89020363Y-76002438D02*
X89115601Y-75954819D01*
X90067982Y-75954819D02*
X90163220Y-75954819D01*
X90163220Y-75954819D02*
X90258458Y-76002438D01*
X90258458Y-76002438D02*
X90306077Y-76050057D01*
X90306077Y-76050057D02*
X90353696Y-76145295D01*
X90353696Y-76145295D02*
X90401315Y-76335771D01*
X90401315Y-76335771D02*
X90401315Y-76573866D01*
X90401315Y-76573866D02*
X90353696Y-76764342D01*
X90353696Y-76764342D02*
X90306077Y-76859580D01*
X90306077Y-76859580D02*
X90258458Y-76907200D01*
X90258458Y-76907200D02*
X90163220Y-76954819D01*
X90163220Y-76954819D02*
X90067982Y-76954819D01*
X90067982Y-76954819D02*
X89972744Y-76907200D01*
X89972744Y-76907200D02*
X89925125Y-76859580D01*
X89925125Y-76859580D02*
X89877506Y-76764342D01*
X89877506Y-76764342D02*
X89829887Y-76573866D01*
X89829887Y-76573866D02*
X89829887Y-76335771D01*
X89829887Y-76335771D02*
X89877506Y-76145295D01*
X89877506Y-76145295D02*
X89925125Y-76050057D01*
X89925125Y-76050057D02*
X89972744Y-76002438D01*
X89972744Y-76002438D02*
X90067982Y-75954819D01*
X90829887Y-76954819D02*
X90829887Y-75954819D01*
X90925125Y-76573866D02*
X91210839Y-76954819D01*
X91210839Y-76288152D02*
X90829887Y-76669104D01*
X78293922Y-59654819D02*
X78865350Y-59654819D01*
X78579636Y-60654819D02*
X78579636Y-59654819D01*
X79627255Y-59988152D02*
X79627255Y-60654819D01*
X79198684Y-59988152D02*
X79198684Y-60511961D01*
X79198684Y-60511961D02*
X79246303Y-60607200D01*
X79246303Y-60607200D02*
X79341541Y-60654819D01*
X79341541Y-60654819D02*
X79484398Y-60654819D01*
X79484398Y-60654819D02*
X79579636Y-60607200D01*
X79579636Y-60607200D02*
X79627255Y-60559580D01*
X80103446Y-59988152D02*
X80103446Y-60654819D01*
X80103446Y-60083390D02*
X80151065Y-60035771D01*
X80151065Y-60035771D02*
X80246303Y-59988152D01*
X80246303Y-59988152D02*
X80389160Y-59988152D01*
X80389160Y-59988152D02*
X80484398Y-60035771D01*
X80484398Y-60035771D02*
X80532017Y-60131009D01*
X80532017Y-60131009D02*
X80532017Y-60654819D01*
X81389160Y-60607200D02*
X81293922Y-60654819D01*
X81293922Y-60654819D02*
X81103446Y-60654819D01*
X81103446Y-60654819D02*
X81008208Y-60607200D01*
X81008208Y-60607200D02*
X80960589Y-60511961D01*
X80960589Y-60511961D02*
X80960589Y-60131009D01*
X80960589Y-60131009D02*
X81008208Y-60035771D01*
X81008208Y-60035771D02*
X81103446Y-59988152D01*
X81103446Y-59988152D02*
X81293922Y-59988152D01*
X81293922Y-59988152D02*
X81389160Y-60035771D01*
X81389160Y-60035771D02*
X81436779Y-60131009D01*
X81436779Y-60131009D02*
X81436779Y-60226247D01*
X81436779Y-60226247D02*
X80960589Y-60321485D01*
X82770113Y-60654819D02*
X82674875Y-60607200D01*
X82674875Y-60607200D02*
X82627256Y-60511961D01*
X82627256Y-60511961D02*
X82627256Y-59654819D01*
X83055828Y-59988152D02*
X83293923Y-60654819D01*
X83293923Y-60654819D02*
X83532018Y-59988152D01*
X84055828Y-60654819D02*
X83960590Y-60607200D01*
X83960590Y-60607200D02*
X83912971Y-60511961D01*
X83912971Y-60511961D02*
X83912971Y-59654819D01*
D11*
X79904761Y-58957419D02*
X79571428Y-58481228D01*
X79333333Y-58957419D02*
X79333333Y-57957419D01*
X79333333Y-57957419D02*
X79714285Y-57957419D01*
X79714285Y-57957419D02*
X79809523Y-58005038D01*
X79809523Y-58005038D02*
X79857142Y-58052657D01*
X79857142Y-58052657D02*
X79904761Y-58147895D01*
X79904761Y-58147895D02*
X79904761Y-58290752D01*
X79904761Y-58290752D02*
X79857142Y-58385990D01*
X79857142Y-58385990D02*
X79809523Y-58433609D01*
X79809523Y-58433609D02*
X79714285Y-58481228D01*
X79714285Y-58481228D02*
X79333333Y-58481228D01*
X80190476Y-57957419D02*
X80523809Y-58957419D01*
X80523809Y-58957419D02*
X80857142Y-57957419D01*
X81619047Y-58290752D02*
X81619047Y-58957419D01*
X81380952Y-57909800D02*
X81142857Y-58624085D01*
X81142857Y-58624085D02*
X81761904Y-58624085D01*
D10*
X88496553Y-58954819D02*
X87925125Y-58954819D01*
X88210839Y-58954819D02*
X88210839Y-57954819D01*
X88210839Y-57954819D02*
X88115601Y-58097676D01*
X88115601Y-58097676D02*
X88020363Y-58192914D01*
X88020363Y-58192914D02*
X87925125Y-58240533D01*
X89115601Y-57954819D02*
X89210839Y-57954819D01*
X89210839Y-57954819D02*
X89306077Y-58002438D01*
X89306077Y-58002438D02*
X89353696Y-58050057D01*
X89353696Y-58050057D02*
X89401315Y-58145295D01*
X89401315Y-58145295D02*
X89448934Y-58335771D01*
X89448934Y-58335771D02*
X89448934Y-58573866D01*
X89448934Y-58573866D02*
X89401315Y-58764342D01*
X89401315Y-58764342D02*
X89353696Y-58859580D01*
X89353696Y-58859580D02*
X89306077Y-58907200D01*
X89306077Y-58907200D02*
X89210839Y-58954819D01*
X89210839Y-58954819D02*
X89115601Y-58954819D01*
X89115601Y-58954819D02*
X89020363Y-58907200D01*
X89020363Y-58907200D02*
X88972744Y-58859580D01*
X88972744Y-58859580D02*
X88925125Y-58764342D01*
X88925125Y-58764342D02*
X88877506Y-58573866D01*
X88877506Y-58573866D02*
X88877506Y-58335771D01*
X88877506Y-58335771D02*
X88925125Y-58145295D01*
X88925125Y-58145295D02*
X88972744Y-58050057D01*
X88972744Y-58050057D02*
X89020363Y-58002438D01*
X89020363Y-58002438D02*
X89115601Y-57954819D01*
X90067982Y-57954819D02*
X90163220Y-57954819D01*
X90163220Y-57954819D02*
X90258458Y-58002438D01*
X90258458Y-58002438D02*
X90306077Y-58050057D01*
X90306077Y-58050057D02*
X90353696Y-58145295D01*
X90353696Y-58145295D02*
X90401315Y-58335771D01*
X90401315Y-58335771D02*
X90401315Y-58573866D01*
X90401315Y-58573866D02*
X90353696Y-58764342D01*
X90353696Y-58764342D02*
X90306077Y-58859580D01*
X90306077Y-58859580D02*
X90258458Y-58907200D01*
X90258458Y-58907200D02*
X90163220Y-58954819D01*
X90163220Y-58954819D02*
X90067982Y-58954819D01*
X90067982Y-58954819D02*
X89972744Y-58907200D01*
X89972744Y-58907200D02*
X89925125Y-58859580D01*
X89925125Y-58859580D02*
X89877506Y-58764342D01*
X89877506Y-58764342D02*
X89829887Y-58573866D01*
X89829887Y-58573866D02*
X89829887Y-58335771D01*
X89829887Y-58335771D02*
X89877506Y-58145295D01*
X89877506Y-58145295D02*
X89925125Y-58050057D01*
X89925125Y-58050057D02*
X89972744Y-58002438D01*
X89972744Y-58002438D02*
X90067982Y-57954819D01*
X90829887Y-58954819D02*
X90829887Y-57954819D01*
X90925125Y-58573866D02*
X91210839Y-58954819D01*
X91210839Y-58288152D02*
X90829887Y-58669104D01*
X78293922Y-41654819D02*
X78865350Y-41654819D01*
X78579636Y-42654819D02*
X78579636Y-41654819D01*
X79627255Y-41988152D02*
X79627255Y-42654819D01*
X79198684Y-41988152D02*
X79198684Y-42511961D01*
X79198684Y-42511961D02*
X79246303Y-42607200D01*
X79246303Y-42607200D02*
X79341541Y-42654819D01*
X79341541Y-42654819D02*
X79484398Y-42654819D01*
X79484398Y-42654819D02*
X79579636Y-42607200D01*
X79579636Y-42607200D02*
X79627255Y-42559580D01*
X80103446Y-41988152D02*
X80103446Y-42654819D01*
X80103446Y-42083390D02*
X80151065Y-42035771D01*
X80151065Y-42035771D02*
X80246303Y-41988152D01*
X80246303Y-41988152D02*
X80389160Y-41988152D01*
X80389160Y-41988152D02*
X80484398Y-42035771D01*
X80484398Y-42035771D02*
X80532017Y-42131009D01*
X80532017Y-42131009D02*
X80532017Y-42654819D01*
X81389160Y-42607200D02*
X81293922Y-42654819D01*
X81293922Y-42654819D02*
X81103446Y-42654819D01*
X81103446Y-42654819D02*
X81008208Y-42607200D01*
X81008208Y-42607200D02*
X80960589Y-42511961D01*
X80960589Y-42511961D02*
X80960589Y-42131009D01*
X80960589Y-42131009D02*
X81008208Y-42035771D01*
X81008208Y-42035771D02*
X81103446Y-41988152D01*
X81103446Y-41988152D02*
X81293922Y-41988152D01*
X81293922Y-41988152D02*
X81389160Y-42035771D01*
X81389160Y-42035771D02*
X81436779Y-42131009D01*
X81436779Y-42131009D02*
X81436779Y-42226247D01*
X81436779Y-42226247D02*
X80960589Y-42321485D01*
X83151065Y-42654819D02*
X82579637Y-42654819D01*
X82865351Y-42654819D02*
X82865351Y-41654819D01*
X82865351Y-41654819D02*
X82770113Y-41797676D01*
X82770113Y-41797676D02*
X82674875Y-41892914D01*
X82674875Y-41892914D02*
X82579637Y-41940533D01*
D11*
X100904761Y-58957419D02*
X100571428Y-58481228D01*
X100333333Y-58957419D02*
X100333333Y-57957419D01*
X100333333Y-57957419D02*
X100714285Y-57957419D01*
X100714285Y-57957419D02*
X100809523Y-58005038D01*
X100809523Y-58005038D02*
X100857142Y-58052657D01*
X100857142Y-58052657D02*
X100904761Y-58147895D01*
X100904761Y-58147895D02*
X100904761Y-58290752D01*
X100904761Y-58290752D02*
X100857142Y-58385990D01*
X100857142Y-58385990D02*
X100809523Y-58433609D01*
X100809523Y-58433609D02*
X100714285Y-58481228D01*
X100714285Y-58481228D02*
X100333333Y-58481228D01*
X101190476Y-57957419D02*
X101523809Y-58957419D01*
X101523809Y-58957419D02*
X101857142Y-57957419D01*
X102666666Y-57957419D02*
X102190476Y-57957419D01*
X102190476Y-57957419D02*
X102142857Y-58433609D01*
X102142857Y-58433609D02*
X102190476Y-58385990D01*
X102190476Y-58385990D02*
X102285714Y-58338371D01*
X102285714Y-58338371D02*
X102523809Y-58338371D01*
X102523809Y-58338371D02*
X102619047Y-58385990D01*
X102619047Y-58385990D02*
X102666666Y-58433609D01*
X102666666Y-58433609D02*
X102714285Y-58528847D01*
X102714285Y-58528847D02*
X102714285Y-58766942D01*
X102714285Y-58766942D02*
X102666666Y-58862180D01*
X102666666Y-58862180D02*
X102619047Y-58909800D01*
X102619047Y-58909800D02*
X102523809Y-58957419D01*
X102523809Y-58957419D02*
X102285714Y-58957419D01*
X102285714Y-58957419D02*
X102190476Y-58909800D01*
X102190476Y-58909800D02*
X102142857Y-58862180D01*
D10*
X109496553Y-58954819D02*
X108925125Y-58954819D01*
X109210839Y-58954819D02*
X109210839Y-57954819D01*
X109210839Y-57954819D02*
X109115601Y-58097676D01*
X109115601Y-58097676D02*
X109020363Y-58192914D01*
X109020363Y-58192914D02*
X108925125Y-58240533D01*
X110115601Y-57954819D02*
X110210839Y-57954819D01*
X110210839Y-57954819D02*
X110306077Y-58002438D01*
X110306077Y-58002438D02*
X110353696Y-58050057D01*
X110353696Y-58050057D02*
X110401315Y-58145295D01*
X110401315Y-58145295D02*
X110448934Y-58335771D01*
X110448934Y-58335771D02*
X110448934Y-58573866D01*
X110448934Y-58573866D02*
X110401315Y-58764342D01*
X110401315Y-58764342D02*
X110353696Y-58859580D01*
X110353696Y-58859580D02*
X110306077Y-58907200D01*
X110306077Y-58907200D02*
X110210839Y-58954819D01*
X110210839Y-58954819D02*
X110115601Y-58954819D01*
X110115601Y-58954819D02*
X110020363Y-58907200D01*
X110020363Y-58907200D02*
X109972744Y-58859580D01*
X109972744Y-58859580D02*
X109925125Y-58764342D01*
X109925125Y-58764342D02*
X109877506Y-58573866D01*
X109877506Y-58573866D02*
X109877506Y-58335771D01*
X109877506Y-58335771D02*
X109925125Y-58145295D01*
X109925125Y-58145295D02*
X109972744Y-58050057D01*
X109972744Y-58050057D02*
X110020363Y-58002438D01*
X110020363Y-58002438D02*
X110115601Y-57954819D01*
X111067982Y-57954819D02*
X111163220Y-57954819D01*
X111163220Y-57954819D02*
X111258458Y-58002438D01*
X111258458Y-58002438D02*
X111306077Y-58050057D01*
X111306077Y-58050057D02*
X111353696Y-58145295D01*
X111353696Y-58145295D02*
X111401315Y-58335771D01*
X111401315Y-58335771D02*
X111401315Y-58573866D01*
X111401315Y-58573866D02*
X111353696Y-58764342D01*
X111353696Y-58764342D02*
X111306077Y-58859580D01*
X111306077Y-58859580D02*
X111258458Y-58907200D01*
X111258458Y-58907200D02*
X111163220Y-58954819D01*
X111163220Y-58954819D02*
X111067982Y-58954819D01*
X111067982Y-58954819D02*
X110972744Y-58907200D01*
X110972744Y-58907200D02*
X110925125Y-58859580D01*
X110925125Y-58859580D02*
X110877506Y-58764342D01*
X110877506Y-58764342D02*
X110829887Y-58573866D01*
X110829887Y-58573866D02*
X110829887Y-58335771D01*
X110829887Y-58335771D02*
X110877506Y-58145295D01*
X110877506Y-58145295D02*
X110925125Y-58050057D01*
X110925125Y-58050057D02*
X110972744Y-58002438D01*
X110972744Y-58002438D02*
X111067982Y-57954819D01*
X111829887Y-58954819D02*
X111829887Y-57954819D01*
X111925125Y-58573866D02*
X112210839Y-58954819D01*
X112210839Y-58288152D02*
X111829887Y-58669104D01*
X99293922Y-41654819D02*
X99865350Y-41654819D01*
X99579636Y-42654819D02*
X99579636Y-41654819D01*
X100627255Y-41988152D02*
X100627255Y-42654819D01*
X100198684Y-41988152D02*
X100198684Y-42511961D01*
X100198684Y-42511961D02*
X100246303Y-42607200D01*
X100246303Y-42607200D02*
X100341541Y-42654819D01*
X100341541Y-42654819D02*
X100484398Y-42654819D01*
X100484398Y-42654819D02*
X100579636Y-42607200D01*
X100579636Y-42607200D02*
X100627255Y-42559580D01*
X101103446Y-41988152D02*
X101103446Y-42654819D01*
X101103446Y-42083390D02*
X101151065Y-42035771D01*
X101151065Y-42035771D02*
X101246303Y-41988152D01*
X101246303Y-41988152D02*
X101389160Y-41988152D01*
X101389160Y-41988152D02*
X101484398Y-42035771D01*
X101484398Y-42035771D02*
X101532017Y-42131009D01*
X101532017Y-42131009D02*
X101532017Y-42654819D01*
X102389160Y-42607200D02*
X102293922Y-42654819D01*
X102293922Y-42654819D02*
X102103446Y-42654819D01*
X102103446Y-42654819D02*
X102008208Y-42607200D01*
X102008208Y-42607200D02*
X101960589Y-42511961D01*
X101960589Y-42511961D02*
X101960589Y-42131009D01*
X101960589Y-42131009D02*
X102008208Y-42035771D01*
X102008208Y-42035771D02*
X102103446Y-41988152D01*
X102103446Y-41988152D02*
X102293922Y-41988152D01*
X102293922Y-41988152D02*
X102389160Y-42035771D01*
X102389160Y-42035771D02*
X102436779Y-42131009D01*
X102436779Y-42131009D02*
X102436779Y-42226247D01*
X102436779Y-42226247D02*
X101960589Y-42321485D01*
X103579637Y-41750057D02*
X103627256Y-41702438D01*
X103627256Y-41702438D02*
X103722494Y-41654819D01*
X103722494Y-41654819D02*
X103960589Y-41654819D01*
X103960589Y-41654819D02*
X104055827Y-41702438D01*
X104055827Y-41702438D02*
X104103446Y-41750057D01*
X104103446Y-41750057D02*
X104151065Y-41845295D01*
X104151065Y-41845295D02*
X104151065Y-41940533D01*
X104151065Y-41940533D02*
X104103446Y-42083390D01*
X104103446Y-42083390D02*
X103532018Y-42654819D01*
X103532018Y-42654819D02*
X104151065Y-42654819D01*
D11*
X79904761Y-94957419D02*
X79571428Y-94481228D01*
X79333333Y-94957419D02*
X79333333Y-93957419D01*
X79333333Y-93957419D02*
X79714285Y-93957419D01*
X79714285Y-93957419D02*
X79809523Y-94005038D01*
X79809523Y-94005038D02*
X79857142Y-94052657D01*
X79857142Y-94052657D02*
X79904761Y-94147895D01*
X79904761Y-94147895D02*
X79904761Y-94290752D01*
X79904761Y-94290752D02*
X79857142Y-94385990D01*
X79857142Y-94385990D02*
X79809523Y-94433609D01*
X79809523Y-94433609D02*
X79714285Y-94481228D01*
X79714285Y-94481228D02*
X79333333Y-94481228D01*
X80190476Y-93957419D02*
X80523809Y-94957419D01*
X80523809Y-94957419D02*
X80857142Y-93957419D01*
X81619047Y-93957419D02*
X81428571Y-93957419D01*
X81428571Y-93957419D02*
X81333333Y-94005038D01*
X81333333Y-94005038D02*
X81285714Y-94052657D01*
X81285714Y-94052657D02*
X81190476Y-94195514D01*
X81190476Y-94195514D02*
X81142857Y-94385990D01*
X81142857Y-94385990D02*
X81142857Y-94766942D01*
X81142857Y-94766942D02*
X81190476Y-94862180D01*
X81190476Y-94862180D02*
X81238095Y-94909800D01*
X81238095Y-94909800D02*
X81333333Y-94957419D01*
X81333333Y-94957419D02*
X81523809Y-94957419D01*
X81523809Y-94957419D02*
X81619047Y-94909800D01*
X81619047Y-94909800D02*
X81666666Y-94862180D01*
X81666666Y-94862180D02*
X81714285Y-94766942D01*
X81714285Y-94766942D02*
X81714285Y-94528847D01*
X81714285Y-94528847D02*
X81666666Y-94433609D01*
X81666666Y-94433609D02*
X81619047Y-94385990D01*
X81619047Y-94385990D02*
X81523809Y-94338371D01*
X81523809Y-94338371D02*
X81333333Y-94338371D01*
X81333333Y-94338371D02*
X81238095Y-94385990D01*
X81238095Y-94385990D02*
X81190476Y-94433609D01*
X81190476Y-94433609D02*
X81142857Y-94528847D01*
D10*
X88448934Y-93954819D02*
X87972744Y-93954819D01*
X87972744Y-93954819D02*
X87925125Y-94431009D01*
X87925125Y-94431009D02*
X87972744Y-94383390D01*
X87972744Y-94383390D02*
X88067982Y-94335771D01*
X88067982Y-94335771D02*
X88306077Y-94335771D01*
X88306077Y-94335771D02*
X88401315Y-94383390D01*
X88401315Y-94383390D02*
X88448934Y-94431009D01*
X88448934Y-94431009D02*
X88496553Y-94526247D01*
X88496553Y-94526247D02*
X88496553Y-94764342D01*
X88496553Y-94764342D02*
X88448934Y-94859580D01*
X88448934Y-94859580D02*
X88401315Y-94907200D01*
X88401315Y-94907200D02*
X88306077Y-94954819D01*
X88306077Y-94954819D02*
X88067982Y-94954819D01*
X88067982Y-94954819D02*
X87972744Y-94907200D01*
X87972744Y-94907200D02*
X87925125Y-94859580D01*
X89115601Y-93954819D02*
X89210839Y-93954819D01*
X89210839Y-93954819D02*
X89306077Y-94002438D01*
X89306077Y-94002438D02*
X89353696Y-94050057D01*
X89353696Y-94050057D02*
X89401315Y-94145295D01*
X89401315Y-94145295D02*
X89448934Y-94335771D01*
X89448934Y-94335771D02*
X89448934Y-94573866D01*
X89448934Y-94573866D02*
X89401315Y-94764342D01*
X89401315Y-94764342D02*
X89353696Y-94859580D01*
X89353696Y-94859580D02*
X89306077Y-94907200D01*
X89306077Y-94907200D02*
X89210839Y-94954819D01*
X89210839Y-94954819D02*
X89115601Y-94954819D01*
X89115601Y-94954819D02*
X89020363Y-94907200D01*
X89020363Y-94907200D02*
X88972744Y-94859580D01*
X88972744Y-94859580D02*
X88925125Y-94764342D01*
X88925125Y-94764342D02*
X88877506Y-94573866D01*
X88877506Y-94573866D02*
X88877506Y-94335771D01*
X88877506Y-94335771D02*
X88925125Y-94145295D01*
X88925125Y-94145295D02*
X88972744Y-94050057D01*
X88972744Y-94050057D02*
X89020363Y-94002438D01*
X89020363Y-94002438D02*
X89115601Y-93954819D01*
X90067982Y-93954819D02*
X90163220Y-93954819D01*
X90163220Y-93954819D02*
X90258458Y-94002438D01*
X90258458Y-94002438D02*
X90306077Y-94050057D01*
X90306077Y-94050057D02*
X90353696Y-94145295D01*
X90353696Y-94145295D02*
X90401315Y-94335771D01*
X90401315Y-94335771D02*
X90401315Y-94573866D01*
X90401315Y-94573866D02*
X90353696Y-94764342D01*
X90353696Y-94764342D02*
X90306077Y-94859580D01*
X90306077Y-94859580D02*
X90258458Y-94907200D01*
X90258458Y-94907200D02*
X90163220Y-94954819D01*
X90163220Y-94954819D02*
X90067982Y-94954819D01*
X90067982Y-94954819D02*
X89972744Y-94907200D01*
X89972744Y-94907200D02*
X89925125Y-94859580D01*
X89925125Y-94859580D02*
X89877506Y-94764342D01*
X89877506Y-94764342D02*
X89829887Y-94573866D01*
X89829887Y-94573866D02*
X89829887Y-94335771D01*
X89829887Y-94335771D02*
X89877506Y-94145295D01*
X89877506Y-94145295D02*
X89925125Y-94050057D01*
X89925125Y-94050057D02*
X89972744Y-94002438D01*
X89972744Y-94002438D02*
X90067982Y-93954819D01*
X90829887Y-94954819D02*
X90829887Y-93954819D01*
X90925125Y-94573866D02*
X91210839Y-94954819D01*
X91210839Y-94288152D02*
X90829887Y-94669104D01*
X78336779Y-78454819D02*
X78336779Y-77454819D01*
X78336779Y-77454819D02*
X78574874Y-77454819D01*
X78574874Y-77454819D02*
X78717731Y-77502438D01*
X78717731Y-77502438D02*
X78812969Y-77597676D01*
X78812969Y-77597676D02*
X78860588Y-77692914D01*
X78860588Y-77692914D02*
X78908207Y-77883390D01*
X78908207Y-77883390D02*
X78908207Y-78026247D01*
X78908207Y-78026247D02*
X78860588Y-78216723D01*
X78860588Y-78216723D02*
X78812969Y-78311961D01*
X78812969Y-78311961D02*
X78717731Y-78407200D01*
X78717731Y-78407200D02*
X78574874Y-78454819D01*
X78574874Y-78454819D02*
X78336779Y-78454819D01*
X79717731Y-78407200D02*
X79622493Y-78454819D01*
X79622493Y-78454819D02*
X79432017Y-78454819D01*
X79432017Y-78454819D02*
X79336779Y-78407200D01*
X79336779Y-78407200D02*
X79289160Y-78311961D01*
X79289160Y-78311961D02*
X79289160Y-77931009D01*
X79289160Y-77931009D02*
X79336779Y-77835771D01*
X79336779Y-77835771D02*
X79432017Y-77788152D01*
X79432017Y-77788152D02*
X79622493Y-77788152D01*
X79622493Y-77788152D02*
X79717731Y-77835771D01*
X79717731Y-77835771D02*
X79765350Y-77931009D01*
X79765350Y-77931009D02*
X79765350Y-78026247D01*
X79765350Y-78026247D02*
X79289160Y-78121485D01*
X80622493Y-78407200D02*
X80527255Y-78454819D01*
X80527255Y-78454819D02*
X80336779Y-78454819D01*
X80336779Y-78454819D02*
X80241541Y-78407200D01*
X80241541Y-78407200D02*
X80193922Y-78359580D01*
X80193922Y-78359580D02*
X80146303Y-78264342D01*
X80146303Y-78264342D02*
X80146303Y-77978628D01*
X80146303Y-77978628D02*
X80193922Y-77883390D01*
X80193922Y-77883390D02*
X80241541Y-77835771D01*
X80241541Y-77835771D02*
X80336779Y-77788152D01*
X80336779Y-77788152D02*
X80527255Y-77788152D01*
X80527255Y-77788152D02*
X80622493Y-77835771D01*
X81479636Y-78454819D02*
X81479636Y-77931009D01*
X81479636Y-77931009D02*
X81432017Y-77835771D01*
X81432017Y-77835771D02*
X81336779Y-77788152D01*
X81336779Y-77788152D02*
X81146303Y-77788152D01*
X81146303Y-77788152D02*
X81051065Y-77835771D01*
X81479636Y-78407200D02*
X81384398Y-78454819D01*
X81384398Y-78454819D02*
X81146303Y-78454819D01*
X81146303Y-78454819D02*
X81051065Y-78407200D01*
X81051065Y-78407200D02*
X81003446Y-78311961D01*
X81003446Y-78311961D02*
X81003446Y-78216723D01*
X81003446Y-78216723D02*
X81051065Y-78121485D01*
X81051065Y-78121485D02*
X81146303Y-78073866D01*
X81146303Y-78073866D02*
X81384398Y-78073866D01*
X81384398Y-78073866D02*
X81479636Y-78026247D01*
X81860589Y-77788152D02*
X82098684Y-78454819D01*
X82336779Y-77788152D02*
X82098684Y-78454819D01*
X82098684Y-78454819D02*
X82003446Y-78692914D01*
X82003446Y-78692914D02*
X81955827Y-78740533D01*
X81955827Y-78740533D02*
X81860589Y-78788152D01*
D11*
X79566667Y-105409800D02*
X79709524Y-105457419D01*
X79709524Y-105457419D02*
X79947619Y-105457419D01*
X79947619Y-105457419D02*
X80042857Y-105409800D01*
X80042857Y-105409800D02*
X80090476Y-105362180D01*
X80090476Y-105362180D02*
X80138095Y-105266942D01*
X80138095Y-105266942D02*
X80138095Y-105171704D01*
X80138095Y-105171704D02*
X80090476Y-105076466D01*
X80090476Y-105076466D02*
X80042857Y-105028847D01*
X80042857Y-105028847D02*
X79947619Y-104981228D01*
X79947619Y-104981228D02*
X79757143Y-104933609D01*
X79757143Y-104933609D02*
X79661905Y-104885990D01*
X79661905Y-104885990D02*
X79614286Y-104838371D01*
X79614286Y-104838371D02*
X79566667Y-104743133D01*
X79566667Y-104743133D02*
X79566667Y-104647895D01*
X79566667Y-104647895D02*
X79614286Y-104552657D01*
X79614286Y-104552657D02*
X79661905Y-104505038D01*
X79661905Y-104505038D02*
X79757143Y-104457419D01*
X79757143Y-104457419D02*
X79995238Y-104457419D01*
X79995238Y-104457419D02*
X80138095Y-104505038D01*
X80471429Y-104457419D02*
X80709524Y-105457419D01*
X80709524Y-105457419D02*
X80900000Y-104743133D01*
X80900000Y-104743133D02*
X81090476Y-105457419D01*
X81090476Y-105457419D02*
X81328572Y-104457419D01*
X82233333Y-105457419D02*
X81661905Y-105457419D01*
X81947619Y-105457419D02*
X81947619Y-104457419D01*
X81947619Y-104457419D02*
X81852381Y-104600276D01*
X81852381Y-104600276D02*
X81757143Y-104695514D01*
X81757143Y-104695514D02*
X81661905Y-104743133D01*
D10*
X84706076Y-104831009D02*
X84372743Y-104831009D01*
X84372743Y-105354819D02*
X84372743Y-104354819D01*
X84372743Y-104354819D02*
X84848933Y-104354819D01*
X85229886Y-105354819D02*
X85229886Y-104354819D01*
X85229886Y-104354819D02*
X85563219Y-105069104D01*
X85563219Y-105069104D02*
X85896552Y-104354819D01*
X85896552Y-104354819D02*
X85896552Y-105354819D01*
X87277505Y-105354819D02*
X87182267Y-105307200D01*
X87182267Y-105307200D02*
X87134648Y-105259580D01*
X87134648Y-105259580D02*
X87087029Y-105164342D01*
X87087029Y-105164342D02*
X87087029Y-104878628D01*
X87087029Y-104878628D02*
X87134648Y-104783390D01*
X87134648Y-104783390D02*
X87182267Y-104735771D01*
X87182267Y-104735771D02*
X87277505Y-104688152D01*
X87277505Y-104688152D02*
X87420362Y-104688152D01*
X87420362Y-104688152D02*
X87515600Y-104735771D01*
X87515600Y-104735771D02*
X87563219Y-104783390D01*
X87563219Y-104783390D02*
X87610838Y-104878628D01*
X87610838Y-104878628D02*
X87610838Y-105164342D01*
X87610838Y-105164342D02*
X87563219Y-105259580D01*
X87563219Y-105259580D02*
X87515600Y-105307200D01*
X87515600Y-105307200D02*
X87420362Y-105354819D01*
X87420362Y-105354819D02*
X87277505Y-105354819D01*
X88039410Y-104688152D02*
X88039410Y-105354819D01*
X88039410Y-104783390D02*
X88087029Y-104735771D01*
X88087029Y-104735771D02*
X88182267Y-104688152D01*
X88182267Y-104688152D02*
X88325124Y-104688152D01*
X88325124Y-104688152D02*
X88420362Y-104735771D01*
X88420362Y-104735771D02*
X88467981Y-104831009D01*
X88467981Y-104831009D02*
X88467981Y-105354819D01*
X89658457Y-104307200D02*
X88801315Y-105592914D01*
X90134648Y-105354819D02*
X90039410Y-105307200D01*
X90039410Y-105307200D02*
X89991791Y-105259580D01*
X89991791Y-105259580D02*
X89944172Y-105164342D01*
X89944172Y-105164342D02*
X89944172Y-104878628D01*
X89944172Y-104878628D02*
X89991791Y-104783390D01*
X89991791Y-104783390D02*
X90039410Y-104735771D01*
X90039410Y-104735771D02*
X90134648Y-104688152D01*
X90134648Y-104688152D02*
X90277505Y-104688152D01*
X90277505Y-104688152D02*
X90372743Y-104735771D01*
X90372743Y-104735771D02*
X90420362Y-104783390D01*
X90420362Y-104783390D02*
X90467981Y-104878628D01*
X90467981Y-104878628D02*
X90467981Y-105164342D01*
X90467981Y-105164342D02*
X90420362Y-105259580D01*
X90420362Y-105259580D02*
X90372743Y-105307200D01*
X90372743Y-105307200D02*
X90277505Y-105354819D01*
X90277505Y-105354819D02*
X90134648Y-105354819D01*
X90753696Y-104688152D02*
X91134648Y-104688152D01*
X90896553Y-105354819D02*
X90896553Y-104497676D01*
X90896553Y-104497676D02*
X90944172Y-104402438D01*
X90944172Y-104402438D02*
X91039410Y-104354819D01*
X91039410Y-104354819D02*
X91134648Y-104354819D01*
X91325125Y-104688152D02*
X91706077Y-104688152D01*
X91467982Y-105354819D02*
X91467982Y-104497676D01*
X91467982Y-104497676D02*
X91515601Y-104402438D01*
X91515601Y-104402438D02*
X91610839Y-104354819D01*
X91610839Y-104354819D02*
X91706077Y-104354819D01*
D11*
X100904761Y-94957419D02*
X100571428Y-94481228D01*
X100333333Y-94957419D02*
X100333333Y-93957419D01*
X100333333Y-93957419D02*
X100714285Y-93957419D01*
X100714285Y-93957419D02*
X100809523Y-94005038D01*
X100809523Y-94005038D02*
X100857142Y-94052657D01*
X100857142Y-94052657D02*
X100904761Y-94147895D01*
X100904761Y-94147895D02*
X100904761Y-94290752D01*
X100904761Y-94290752D02*
X100857142Y-94385990D01*
X100857142Y-94385990D02*
X100809523Y-94433609D01*
X100809523Y-94433609D02*
X100714285Y-94481228D01*
X100714285Y-94481228D02*
X100333333Y-94481228D01*
X101190476Y-93957419D02*
X101523809Y-94957419D01*
X101523809Y-94957419D02*
X101857142Y-93957419D01*
X102095238Y-93957419D02*
X102714285Y-93957419D01*
X102714285Y-93957419D02*
X102380952Y-94338371D01*
X102380952Y-94338371D02*
X102523809Y-94338371D01*
X102523809Y-94338371D02*
X102619047Y-94385990D01*
X102619047Y-94385990D02*
X102666666Y-94433609D01*
X102666666Y-94433609D02*
X102714285Y-94528847D01*
X102714285Y-94528847D02*
X102714285Y-94766942D01*
X102714285Y-94766942D02*
X102666666Y-94862180D01*
X102666666Y-94862180D02*
X102619047Y-94909800D01*
X102619047Y-94909800D02*
X102523809Y-94957419D01*
X102523809Y-94957419D02*
X102238095Y-94957419D01*
X102238095Y-94957419D02*
X102142857Y-94909800D01*
X102142857Y-94909800D02*
X102095238Y-94862180D01*
D10*
X108925125Y-94050057D02*
X108972744Y-94002438D01*
X108972744Y-94002438D02*
X109067982Y-93954819D01*
X109067982Y-93954819D02*
X109306077Y-93954819D01*
X109306077Y-93954819D02*
X109401315Y-94002438D01*
X109401315Y-94002438D02*
X109448934Y-94050057D01*
X109448934Y-94050057D02*
X109496553Y-94145295D01*
X109496553Y-94145295D02*
X109496553Y-94240533D01*
X109496553Y-94240533D02*
X109448934Y-94383390D01*
X109448934Y-94383390D02*
X108877506Y-94954819D01*
X108877506Y-94954819D02*
X109496553Y-94954819D01*
X110401315Y-93954819D02*
X109925125Y-93954819D01*
X109925125Y-93954819D02*
X109877506Y-94431009D01*
X109877506Y-94431009D02*
X109925125Y-94383390D01*
X109925125Y-94383390D02*
X110020363Y-94335771D01*
X110020363Y-94335771D02*
X110258458Y-94335771D01*
X110258458Y-94335771D02*
X110353696Y-94383390D01*
X110353696Y-94383390D02*
X110401315Y-94431009D01*
X110401315Y-94431009D02*
X110448934Y-94526247D01*
X110448934Y-94526247D02*
X110448934Y-94764342D01*
X110448934Y-94764342D02*
X110401315Y-94859580D01*
X110401315Y-94859580D02*
X110353696Y-94907200D01*
X110353696Y-94907200D02*
X110258458Y-94954819D01*
X110258458Y-94954819D02*
X110020363Y-94954819D01*
X110020363Y-94954819D02*
X109925125Y-94907200D01*
X109925125Y-94907200D02*
X109877506Y-94859580D01*
X111067982Y-93954819D02*
X111163220Y-93954819D01*
X111163220Y-93954819D02*
X111258458Y-94002438D01*
X111258458Y-94002438D02*
X111306077Y-94050057D01*
X111306077Y-94050057D02*
X111353696Y-94145295D01*
X111353696Y-94145295D02*
X111401315Y-94335771D01*
X111401315Y-94335771D02*
X111401315Y-94573866D01*
X111401315Y-94573866D02*
X111353696Y-94764342D01*
X111353696Y-94764342D02*
X111306077Y-94859580D01*
X111306077Y-94859580D02*
X111258458Y-94907200D01*
X111258458Y-94907200D02*
X111163220Y-94954819D01*
X111163220Y-94954819D02*
X111067982Y-94954819D01*
X111067982Y-94954819D02*
X110972744Y-94907200D01*
X110972744Y-94907200D02*
X110925125Y-94859580D01*
X110925125Y-94859580D02*
X110877506Y-94764342D01*
X110877506Y-94764342D02*
X110829887Y-94573866D01*
X110829887Y-94573866D02*
X110829887Y-94335771D01*
X110829887Y-94335771D02*
X110877506Y-94145295D01*
X110877506Y-94145295D02*
X110925125Y-94050057D01*
X110925125Y-94050057D02*
X110972744Y-94002438D01*
X110972744Y-94002438D02*
X111067982Y-93954819D01*
X111829887Y-94954819D02*
X111829887Y-93954819D01*
X111925125Y-94573866D02*
X112210839Y-94954819D01*
X112210839Y-94288152D02*
X111829887Y-94669104D01*
X99193922Y-77454819D02*
X99765350Y-77454819D01*
X99479636Y-78454819D02*
X99479636Y-77454819D01*
X100527255Y-77788152D02*
X100527255Y-78454819D01*
X100098684Y-77788152D02*
X100098684Y-78311961D01*
X100098684Y-78311961D02*
X100146303Y-78407200D01*
X100146303Y-78407200D02*
X100241541Y-78454819D01*
X100241541Y-78454819D02*
X100384398Y-78454819D01*
X100384398Y-78454819D02*
X100479636Y-78407200D01*
X100479636Y-78407200D02*
X100527255Y-78359580D01*
X101003446Y-77788152D02*
X101003446Y-78454819D01*
X101003446Y-77883390D02*
X101051065Y-77835771D01*
X101051065Y-77835771D02*
X101146303Y-77788152D01*
X101146303Y-77788152D02*
X101289160Y-77788152D01*
X101289160Y-77788152D02*
X101384398Y-77835771D01*
X101384398Y-77835771D02*
X101432017Y-77931009D01*
X101432017Y-77931009D02*
X101432017Y-78454819D01*
X102289160Y-78407200D02*
X102193922Y-78454819D01*
X102193922Y-78454819D02*
X102003446Y-78454819D01*
X102003446Y-78454819D02*
X101908208Y-78407200D01*
X101908208Y-78407200D02*
X101860589Y-78311961D01*
X101860589Y-78311961D02*
X101860589Y-77931009D01*
X101860589Y-77931009D02*
X101908208Y-77835771D01*
X101908208Y-77835771D02*
X102003446Y-77788152D01*
X102003446Y-77788152D02*
X102193922Y-77788152D01*
X102193922Y-77788152D02*
X102289160Y-77835771D01*
X102289160Y-77835771D02*
X102336779Y-77931009D01*
X102336779Y-77931009D02*
X102336779Y-78026247D01*
X102336779Y-78026247D02*
X101860589Y-78121485D01*
X103527256Y-78454819D02*
X103527256Y-77454819D01*
X103527256Y-77454819D02*
X103765351Y-77454819D01*
X103765351Y-77454819D02*
X103908208Y-77502438D01*
X103908208Y-77502438D02*
X104003446Y-77597676D01*
X104003446Y-77597676D02*
X104051065Y-77692914D01*
X104051065Y-77692914D02*
X104098684Y-77883390D01*
X104098684Y-77883390D02*
X104098684Y-78026247D01*
X104098684Y-78026247D02*
X104051065Y-78216723D01*
X104051065Y-78216723D02*
X104003446Y-78311961D01*
X104003446Y-78311961D02*
X103908208Y-78407200D01*
X103908208Y-78407200D02*
X103765351Y-78454819D01*
X103765351Y-78454819D02*
X103527256Y-78454819D01*
X104908208Y-78407200D02*
X104812970Y-78454819D01*
X104812970Y-78454819D02*
X104622494Y-78454819D01*
X104622494Y-78454819D02*
X104527256Y-78407200D01*
X104527256Y-78407200D02*
X104479637Y-78311961D01*
X104479637Y-78311961D02*
X104479637Y-77931009D01*
X104479637Y-77931009D02*
X104527256Y-77835771D01*
X104527256Y-77835771D02*
X104622494Y-77788152D01*
X104622494Y-77788152D02*
X104812970Y-77788152D01*
X104812970Y-77788152D02*
X104908208Y-77835771D01*
X104908208Y-77835771D02*
X104955827Y-77931009D01*
X104955827Y-77931009D02*
X104955827Y-78026247D01*
X104955827Y-78026247D02*
X104479637Y-78121485D01*
X105812970Y-78407200D02*
X105717732Y-78454819D01*
X105717732Y-78454819D02*
X105527256Y-78454819D01*
X105527256Y-78454819D02*
X105432018Y-78407200D01*
X105432018Y-78407200D02*
X105384399Y-78359580D01*
X105384399Y-78359580D02*
X105336780Y-78264342D01*
X105336780Y-78264342D02*
X105336780Y-77978628D01*
X105336780Y-77978628D02*
X105384399Y-77883390D01*
X105384399Y-77883390D02*
X105432018Y-77835771D01*
X105432018Y-77835771D02*
X105527256Y-77788152D01*
X105527256Y-77788152D02*
X105717732Y-77788152D01*
X105717732Y-77788152D02*
X105812970Y-77835771D01*
X106670113Y-78454819D02*
X106670113Y-77931009D01*
X106670113Y-77931009D02*
X106622494Y-77835771D01*
X106622494Y-77835771D02*
X106527256Y-77788152D01*
X106527256Y-77788152D02*
X106336780Y-77788152D01*
X106336780Y-77788152D02*
X106241542Y-77835771D01*
X106670113Y-78407200D02*
X106574875Y-78454819D01*
X106574875Y-78454819D02*
X106336780Y-78454819D01*
X106336780Y-78454819D02*
X106241542Y-78407200D01*
X106241542Y-78407200D02*
X106193923Y-78311961D01*
X106193923Y-78311961D02*
X106193923Y-78216723D01*
X106193923Y-78216723D02*
X106241542Y-78121485D01*
X106241542Y-78121485D02*
X106336780Y-78073866D01*
X106336780Y-78073866D02*
X106574875Y-78073866D01*
X106574875Y-78073866D02*
X106670113Y-78026247D01*
X107051066Y-77788152D02*
X107289161Y-78454819D01*
X107527256Y-77788152D02*
X107289161Y-78454819D01*
X107289161Y-78454819D02*
X107193923Y-78692914D01*
X107193923Y-78692914D02*
X107146304Y-78740533D01*
X107146304Y-78740533D02*
X107051066Y-78788152D01*
D11*
X100904761Y-76957419D02*
X100571428Y-76481228D01*
X100333333Y-76957419D02*
X100333333Y-75957419D01*
X100333333Y-75957419D02*
X100714285Y-75957419D01*
X100714285Y-75957419D02*
X100809523Y-76005038D01*
X100809523Y-76005038D02*
X100857142Y-76052657D01*
X100857142Y-76052657D02*
X100904761Y-76147895D01*
X100904761Y-76147895D02*
X100904761Y-76290752D01*
X100904761Y-76290752D02*
X100857142Y-76385990D01*
X100857142Y-76385990D02*
X100809523Y-76433609D01*
X100809523Y-76433609D02*
X100714285Y-76481228D01*
X100714285Y-76481228D02*
X100333333Y-76481228D01*
X101190476Y-75957419D02*
X101523809Y-76957419D01*
X101523809Y-76957419D02*
X101857142Y-75957419D01*
X102142857Y-76052657D02*
X102190476Y-76005038D01*
X102190476Y-76005038D02*
X102285714Y-75957419D01*
X102285714Y-75957419D02*
X102523809Y-75957419D01*
X102523809Y-75957419D02*
X102619047Y-76005038D01*
X102619047Y-76005038D02*
X102666666Y-76052657D01*
X102666666Y-76052657D02*
X102714285Y-76147895D01*
X102714285Y-76147895D02*
X102714285Y-76243133D01*
X102714285Y-76243133D02*
X102666666Y-76385990D01*
X102666666Y-76385990D02*
X102095238Y-76957419D01*
X102095238Y-76957419D02*
X102714285Y-76957419D01*
D10*
X111067982Y-76954819D02*
X110496554Y-76954819D01*
X110782268Y-76954819D02*
X110782268Y-75954819D01*
X110782268Y-75954819D02*
X110687030Y-76097676D01*
X110687030Y-76097676D02*
X110591792Y-76192914D01*
X110591792Y-76192914D02*
X110496554Y-76240533D01*
X111496554Y-76954819D02*
X111496554Y-75954819D01*
X111496554Y-75954819D02*
X111829887Y-76669104D01*
X111829887Y-76669104D02*
X112163220Y-75954819D01*
X112163220Y-75954819D02*
X112163220Y-76954819D01*
X99193922Y-59454819D02*
X99765350Y-59454819D01*
X99479636Y-60454819D02*
X99479636Y-59454819D01*
X100527255Y-59788152D02*
X100527255Y-60454819D01*
X100098684Y-59788152D02*
X100098684Y-60311961D01*
X100098684Y-60311961D02*
X100146303Y-60407200D01*
X100146303Y-60407200D02*
X100241541Y-60454819D01*
X100241541Y-60454819D02*
X100384398Y-60454819D01*
X100384398Y-60454819D02*
X100479636Y-60407200D01*
X100479636Y-60407200D02*
X100527255Y-60359580D01*
X101003446Y-59788152D02*
X101003446Y-60454819D01*
X101003446Y-59883390D02*
X101051065Y-59835771D01*
X101051065Y-59835771D02*
X101146303Y-59788152D01*
X101146303Y-59788152D02*
X101289160Y-59788152D01*
X101289160Y-59788152D02*
X101384398Y-59835771D01*
X101384398Y-59835771D02*
X101432017Y-59931009D01*
X101432017Y-59931009D02*
X101432017Y-60454819D01*
X102289160Y-60407200D02*
X102193922Y-60454819D01*
X102193922Y-60454819D02*
X102003446Y-60454819D01*
X102003446Y-60454819D02*
X101908208Y-60407200D01*
X101908208Y-60407200D02*
X101860589Y-60311961D01*
X101860589Y-60311961D02*
X101860589Y-59931009D01*
X101860589Y-59931009D02*
X101908208Y-59835771D01*
X101908208Y-59835771D02*
X102003446Y-59788152D01*
X102003446Y-59788152D02*
X102193922Y-59788152D01*
X102193922Y-59788152D02*
X102289160Y-59835771D01*
X102289160Y-59835771D02*
X102336779Y-59931009D01*
X102336779Y-59931009D02*
X102336779Y-60026247D01*
X102336779Y-60026247D02*
X101860589Y-60121485D01*
X103527256Y-60454819D02*
X103527256Y-59454819D01*
X103527256Y-59454819D02*
X103765351Y-59454819D01*
X103765351Y-59454819D02*
X103908208Y-59502438D01*
X103908208Y-59502438D02*
X104003446Y-59597676D01*
X104003446Y-59597676D02*
X104051065Y-59692914D01*
X104051065Y-59692914D02*
X104098684Y-59883390D01*
X104098684Y-59883390D02*
X104098684Y-60026247D01*
X104098684Y-60026247D02*
X104051065Y-60216723D01*
X104051065Y-60216723D02*
X104003446Y-60311961D01*
X104003446Y-60311961D02*
X103908208Y-60407200D01*
X103908208Y-60407200D02*
X103765351Y-60454819D01*
X103765351Y-60454819D02*
X103527256Y-60454819D01*
X104908208Y-60407200D02*
X104812970Y-60454819D01*
X104812970Y-60454819D02*
X104622494Y-60454819D01*
X104622494Y-60454819D02*
X104527256Y-60407200D01*
X104527256Y-60407200D02*
X104479637Y-60311961D01*
X104479637Y-60311961D02*
X104479637Y-59931009D01*
X104479637Y-59931009D02*
X104527256Y-59835771D01*
X104527256Y-59835771D02*
X104622494Y-59788152D01*
X104622494Y-59788152D02*
X104812970Y-59788152D01*
X104812970Y-59788152D02*
X104908208Y-59835771D01*
X104908208Y-59835771D02*
X104955827Y-59931009D01*
X104955827Y-59931009D02*
X104955827Y-60026247D01*
X104955827Y-60026247D02*
X104479637Y-60121485D01*
X105384399Y-59788152D02*
X105384399Y-60788152D01*
X105384399Y-59835771D02*
X105479637Y-59788152D01*
X105479637Y-59788152D02*
X105670113Y-59788152D01*
X105670113Y-59788152D02*
X105765351Y-59835771D01*
X105765351Y-59835771D02*
X105812970Y-59883390D01*
X105812970Y-59883390D02*
X105860589Y-59978628D01*
X105860589Y-59978628D02*
X105860589Y-60264342D01*
X105860589Y-60264342D02*
X105812970Y-60359580D01*
X105812970Y-60359580D02*
X105765351Y-60407200D01*
X105765351Y-60407200D02*
X105670113Y-60454819D01*
X105670113Y-60454819D02*
X105479637Y-60454819D01*
X105479637Y-60454819D02*
X105384399Y-60407200D01*
X106146304Y-59788152D02*
X106527256Y-59788152D01*
X106289161Y-59454819D02*
X106289161Y-60311961D01*
X106289161Y-60311961D02*
X106336780Y-60407200D01*
X106336780Y-60407200D02*
X106432018Y-60454819D01*
X106432018Y-60454819D02*
X106527256Y-60454819D01*
X106860590Y-60454819D02*
X106860590Y-59454819D01*
X107289161Y-60454819D02*
X107289161Y-59931009D01*
X107289161Y-59931009D02*
X107241542Y-59835771D01*
X107241542Y-59835771D02*
X107146304Y-59788152D01*
X107146304Y-59788152D02*
X107003447Y-59788152D01*
X107003447Y-59788152D02*
X106908209Y-59835771D01*
X106908209Y-59835771D02*
X106860590Y-59883390D01*
%TO.C,SW2*%
D11*
X112500000Y-96000000D02*
X99500000Y-96000000D01*
X99500000Y-104000000D01*
X112500000Y-104000000D01*
X112500000Y-96000000D01*
%TO.C,RV1*%
X78250000Y-61000000D02*
X91750000Y-61000000D01*
X91750000Y-75500000D01*
X78250000Y-75500000D01*
X78250000Y-61000000D01*
%TO.C,RV4*%
X78250000Y-43000000D02*
X91750000Y-43000000D01*
X91750000Y-57500000D01*
X78250000Y-57500000D01*
X78250000Y-43000000D01*
%TO.C,RV5*%
X99250000Y-43000000D02*
X112750000Y-43000000D01*
X112750000Y-57500000D01*
X99250000Y-57500000D01*
X99250000Y-43000000D01*
%TO.C,RV6*%
X78250000Y-79000000D02*
X91750000Y-79000000D01*
X91750000Y-93500000D01*
X78250000Y-93500000D01*
X78250000Y-79000000D01*
%TO.C,SW1*%
X92000000Y-96000000D02*
X79000000Y-96000000D01*
X79000000Y-104000000D01*
X92000000Y-104000000D01*
X92000000Y-96000000D01*
%TO.C,RV3*%
X99250000Y-79000000D02*
X112750000Y-79000000D01*
X112750000Y-93500000D01*
X99250000Y-93500000D01*
X99250000Y-79000000D01*
%TO.C,RV2*%
X99250000Y-61000000D02*
X112750000Y-61000000D01*
X112750000Y-75500000D01*
X99250000Y-75500000D01*
X99250000Y-61000000D01*
%TD*%
M02*
