%TF.GenerationSoftware,KiCad,Pcbnew,9.0.5*%
%TF.CreationDate,2025-10-05T20:16:51+02:00*%
%TF.ProjectId,11_fm_drum_io,31315f66-6d5f-4647-9275-6d5f696f2e6b,rev?*%
%TF.SameCoordinates,Original*%
%TF.FileFunction,Copper,L1,Top*%
%TF.FilePolarity,Positive*%
%FSLAX46Y46*%
G04 Gerber Fmt 4.6, Leading zero omitted, Abs format (unit mm)*
G04 Created by KiCad (PCBNEW 9.0.5) date 2025-10-05 20:16:51*
%MOMM*%
%LPD*%
G01*
G04 APERTURE LIST*
%TA.AperFunction,ComponentPad*%
%ADD10O,3.000000X4.000000*%
%TD*%
%TA.AperFunction,ComponentPad*%
%ADD11C,4.000000*%
%TD*%
%TA.AperFunction,ComponentPad*%
%ADD12C,2.000000*%
%TD*%
%TA.AperFunction,ComponentPad*%
%ADD13C,1.600000*%
%TD*%
%TA.AperFunction,ComponentPad*%
%ADD14R,1.700000X1.700000*%
%TD*%
%TA.AperFunction,ComponentPad*%
%ADD15C,1.700000*%
%TD*%
%TA.AperFunction,ViaPad*%
%ADD16C,0.600000*%
%TD*%
%TA.AperFunction,Conductor*%
%ADD17C,0.200000*%
%TD*%
G04 APERTURE END LIST*
D10*
%TO.P,SW2,1,A*%
%TO.N,io sine{slash}pulse pin 1*%
X110500000Y-100000000D03*
%TO.P,SW2,2,B*%
%TO.N,io sine{slash}pulse pin 2*%
X106000000Y-100000000D03*
%TO.P,SW2,3,C*%
%TO.N,io sine{slash}pulse pin 3*%
X101500000Y-100000000D03*
%TD*%
D11*
%TO.P,RV1,*%
%TO.N,*%
X80500000Y-67000000D03*
X89500000Y-67000000D03*
D12*
%TO.P,RV1,1,1*%
%TO.N,io tune lvl pin 1*%
X82460000Y-74000000D03*
%TO.P,RV1,2,2*%
%TO.N,io tune lvl pin 2*%
X85000000Y-74000000D03*
%TO.P,RV1,3,3*%
%TO.N,GND*%
X87540000Y-74000000D03*
%TD*%
D11*
%TO.P,RV4,*%
%TO.N,*%
X80500000Y-49000000D03*
X89500000Y-49000000D03*
D12*
%TO.P,RV4,1,1*%
%TO.N,+12V*%
X82460000Y-56000000D03*
%TO.P,RV4,2,2*%
%TO.N,io tune 1 pin 2*%
X85000000Y-56000000D03*
%TO.P,RV4,3,3*%
%TO.N,io tune 1 pin 3*%
X87540000Y-56000000D03*
%TD*%
D11*
%TO.P,RV5,*%
%TO.N,*%
X101500000Y-49000000D03*
X110500000Y-49000000D03*
D12*
%TO.P,RV5,1,1*%
%TO.N,io tune 2 pin 3*%
X103460000Y-56000000D03*
%TO.P,RV5,2,2*%
%TO.N,io tune 2 pin 2*%
X106000000Y-56000000D03*
%TO.P,RV5,3,3*%
%TO.N,Net-(R1-Pad1)*%
X108540000Y-56000000D03*
%TD*%
D11*
%TO.P,RV6,*%
%TO.N,*%
X80500000Y-85000000D03*
X89500000Y-85000000D03*
D12*
%TO.P,RV6,1,1*%
%TO.N,io decay pin 1*%
X82460000Y-92000000D03*
%TO.P,RV6,2,2*%
%TO.N,io decay pin 2*%
X85000000Y-92000000D03*
%TO.P,RV6,3,3*%
X87540000Y-92000000D03*
%TD*%
D10*
%TO.P,SW1,1,A*%
%TO.N,io fm on{slash}off pin 1*%
X90000000Y-100000000D03*
%TO.P,SW1,2,B*%
%TO.N,io fm on{slash}off pin 2*%
X85500000Y-100000000D03*
%TO.P,SW1,3,C*%
%TO.N,GND*%
X81000000Y-100000000D03*
%TD*%
D11*
%TO.P,RV3,*%
%TO.N,*%
X101500000Y-85000000D03*
X110500000Y-85000000D03*
D12*
%TO.P,RV3,1,1*%
%TO.N,io tune decay 1*%
X103460000Y-92000000D03*
%TO.P,RV3,2,2*%
%TO.N,Net-(R2-Pad2)*%
X106000000Y-92000000D03*
%TO.P,RV3,3,3*%
X108540000Y-92000000D03*
%TD*%
D11*
%TO.P,RV2,*%
%TO.N,*%
X101500000Y-67000000D03*
X110500000Y-67000000D03*
D12*
%TO.P,RV2,1,1*%
%TO.N,io tune depth 1*%
X103460000Y-74000000D03*
%TO.P,RV2,2,2*%
X106000000Y-74000000D03*
%TO.P,RV2,3,3*%
%TO.N,io tune depth 2*%
X108540000Y-74000000D03*
%TD*%
D13*
%TO.P,R1,1*%
%TO.N,Net-(R1-Pad1)*%
X95000000Y-43920000D03*
%TO.P,R1,2*%
%TO.N,+12V*%
X95000000Y-54080000D03*
%TD*%
D14*
%TO.P,J1,1,Pin_1*%
%TO.N,io tune lvl pin 1*%
X97000000Y-63000000D03*
D15*
%TO.P,J1,2,Pin_2*%
%TO.N,io tune lvl pin 2*%
X94460000Y-63000000D03*
%TO.P,J1,3,Pin_3*%
%TO.N,io tune decay 1*%
X97000000Y-65540000D03*
%TO.P,J1,4,Pin_4*%
%TO.N,io tune depth 1*%
X94460000Y-65540000D03*
%TO.P,J1,5,Pin_5*%
%TO.N,io tune depth 2*%
X97000000Y-68080000D03*
%TO.P,J1,6,Pin_6*%
%TO.N,io tune 1 pin 2*%
X94460000Y-68080000D03*
%TO.P,J1,7,Pin_7*%
%TO.N,io tune 1 pin 3*%
X97000000Y-70620000D03*
%TO.P,J1,8,Pin_8*%
%TO.N,io tune 2 pin 2*%
X94460000Y-70620000D03*
%TO.P,J1,9,Pin_9*%
%TO.N,io tune 2 pin 3*%
X97000000Y-73160000D03*
%TO.P,J1,10,Pin_10*%
%TO.N,unconnected-(J1-Pin_10-Pad10)*%
X94460000Y-73160000D03*
%TO.P,J1,11,Pin_11*%
%TO.N,GND*%
X97000000Y-75700000D03*
%TO.P,J1,12,Pin_12*%
%TO.N,+12V*%
X94460000Y-75700000D03*
%TO.P,J1,13,Pin_13*%
%TO.N,unconnected-(J1-Pin_13-Pad13)*%
X97000000Y-78240000D03*
%TO.P,J1,14,Pin_14*%
%TO.N,io decay pin 2*%
X94460000Y-78240000D03*
%TO.P,J1,15,Pin_15*%
%TO.N,io decay pin 1*%
X97000000Y-80780000D03*
%TO.P,J1,16,Pin_16*%
%TO.N,io sine{slash}pulse pin 3*%
X94460000Y-80780000D03*
%TO.P,J1,17,Pin_17*%
%TO.N,io sine{slash}pulse pin 2*%
X97000000Y-83320000D03*
%TO.P,J1,18,Pin_18*%
%TO.N,io sine{slash}pulse pin 1*%
X94460000Y-83320000D03*
%TO.P,J1,19,Pin_19*%
%TO.N,io fm on{slash}off pin 2*%
X97000000Y-85860000D03*
%TO.P,J1,20,Pin_20*%
%TO.N,io fm on{slash}off pin 1*%
X94460000Y-85860000D03*
%TD*%
D13*
%TO.P,R2,1*%
%TO.N,GND*%
X95000000Y-91000000D03*
%TO.P,R2,2*%
%TO.N,Net-(R2-Pad2)*%
X95000000Y-101160000D03*
%TD*%
D16*
%TO.N,io tune 1 pin 3*%
X95126700Y-66810000D03*
%TO.N,io tune 2 pin 3*%
X101457800Y-73138900D03*
%TO.N,GND*%
X87714400Y-89705100D03*
%TD*%
D17*
%TO.N,Net-(R2-Pad2)*%
X108540000Y-92000000D02*
X106000000Y-92000000D01*
%TO.N,io tune 1 pin 2*%
X85000000Y-58620000D02*
X94460000Y-68080000D01*
X85000000Y-56000000D02*
X85000000Y-58620000D01*
%TO.N,io fm on{slash}off pin 1*%
X90000000Y-90320000D02*
X90000000Y-100000000D01*
X94460000Y-85860000D02*
X90000000Y-90320000D01*
%TO.N,io tune 1 pin 3*%
X94095900Y-66810000D02*
X95126700Y-66810000D01*
X87540000Y-60254100D02*
X94095900Y-66810000D01*
X87540000Y-56000000D02*
X87540000Y-60254100D01*
%TO.N,io tune decay 1*%
X98329000Y-66869000D02*
X97000000Y-65540000D01*
X98329000Y-72862400D02*
X98329000Y-66869000D01*
X103821000Y-78354400D02*
X98329000Y-72862400D01*
X103821000Y-91639000D02*
X103821000Y-78354400D01*
X103460000Y-92000000D02*
X103821000Y-91639000D01*
%TO.N,io sine{slash}pulse pin 3*%
X101500000Y-95498000D02*
X101500000Y-100000000D01*
X95730000Y-89728000D02*
X101500000Y-95498000D01*
X95730000Y-82050000D02*
X95730000Y-89728000D01*
X94460000Y-80780000D02*
X95730000Y-82050000D01*
%TO.N,io sine{slash}pulse pin 2*%
X106000000Y-100000000D02*
X104198300Y-100000000D01*
X98588600Y-84908600D02*
X97000000Y-83320000D01*
X98588600Y-92018600D02*
X98588600Y-84908600D01*
X104198300Y-97628300D02*
X98588600Y-92018600D01*
X104198300Y-100000000D02*
X104198300Y-97628300D01*
%TO.N,io tune 2 pin 3*%
X103818200Y-70778500D02*
X101457800Y-73138900D01*
X103818200Y-56358200D02*
X103818200Y-70778500D01*
X103460000Y-56000000D02*
X103818200Y-56358200D01*
%TO.N,GND*%
X87152600Y-74387400D02*
X87540000Y-74000000D01*
X87152600Y-89143300D02*
X87152600Y-74387400D01*
X87714400Y-89705100D02*
X87152600Y-89143300D01*
%TO.N,io decay pin 2*%
X92239800Y-87300200D02*
X87540000Y-92000000D01*
X92239800Y-80460200D02*
X92239800Y-87300200D01*
X94460000Y-78240000D02*
X92239800Y-80460200D01*
%TO.N,+12V*%
X95778500Y-54858500D02*
X95000000Y-54080000D01*
X95778500Y-74381500D02*
X95778500Y-54858500D01*
X94460000Y-75700000D02*
X95778500Y-74381500D01*
%TD*%
M02*
