ISO-10303-21;
HEADER;
FILE_DESCRIPTION(('FreeCAD Model'),'2;1');
FILE_NAME('Open CASCADE Shape Model','2026-07-26T10:53:51',(''),(''),
  'Open CASCADE STEP processor 7.9','FreeCAD','Unknown');
FILE_SCHEMA(('AUTOMOTIVE_DESIGN { 1 0 10303 214 1 1 1 1 }'));
ENDSEC;
DATA;
#1 = APPLICATION_PROTOCOL_DEFINITION('international standard',
  'automotive_design',2000,#2);
#2 = APPLICATION_CONTEXT(
  'core data for automotive mechanical design processes');
#3 = SHAPE_DEFINITION_REPRESENTATION(#4,#10);
#4 = PRODUCT_DEFINITION_SHAPE('','',#5);
#5 = PRODUCT_DEFINITION('design','',#6,#9);
#6 = PRODUCT_DEFINITION_FORMATION('','',#7);
#7 = PRODUCT('Unnamed','Unnamed','',(#8));
#8 = PRODUCT_CONTEXT('',#2,'mechanical');
#9 = PRODUCT_DEFINITION_CONTEXT('part definition',#2,'design');
#10 = SHAPE_REPRESENTATION('',(#11,#15,#19),#23);
#11 = AXIS2_PLACEMENT_3D('',#12,#13,#14);
#12 = CARTESIAN_POINT('',(0.,0.,0.));
#13 = DIRECTION('',(0.,0.,1.));
#14 = DIRECTION('',(1.,0.,-0.));
#15 = AXIS2_PLACEMENT_3D('',#16,#17,#18);
#16 = CARTESIAN_POINT('',(0.,0.,0.));
#17 = DIRECTION('',(0.,0.,1.));
#18 = DIRECTION('',(1.,0.,0.));
#19 = AXIS2_PLACEMENT_3D('',#20,#21,#22);
#20 = CARTESIAN_POINT('',(5.08,1.27,0.));
#21 = DIRECTION('',(0.,0.,1.));
#22 = DIRECTION('',(1.,0.,0.));
#23 = ( GEOMETRIC_REPRESENTATION_CONTEXT(3) 
GLOBAL_UNCERTAINTY_ASSIGNED_CONTEXT((#27)) GLOBAL_UNIT_ASSIGNED_CONTEXT(
(#24,#25,#26)) REPRESENTATION_CONTEXT('Context #1',
  '3D Context with UNIT and UNCERTAINTY') );
#24 = ( LENGTH_UNIT() NAMED_UNIT(*) SI_UNIT(.MILLI.,.METRE.) );
#25 = ( NAMED_UNIT(*) PLANE_ANGLE_UNIT() SI_UNIT($,.RADIAN.) );
#26 = ( NAMED_UNIT(*) SI_UNIT($,.STERADIAN.) SOLID_ANGLE_UNIT() );
#27 = UNCERTAINTY_MEASURE_WITH_UNIT(LENGTH_MEASURE(5.E-05),#24,
  'distance_accuracy_value','confusion accuracy');
#28 = PRODUCT_RELATED_PRODUCT_CATEGORY('part',$,(#7));
#29 = SHAPE_DEFINITION_REPRESENTATION(#30,#36);
#30 = PRODUCT_DEFINITION_SHAPE('','',#31);
#31 = PRODUCT_DEFINITION('design','',#32,#35);
#32 = PRODUCT_DEFINITION_FORMATION('','',#33);
#33 = PRODUCT('Array001','Array001','',(#34));
#34 = PRODUCT_CONTEXT('',#2,'mechanical');
#35 = PRODUCT_DEFINITION_CONTEXT('part definition',#2,'design');
#36 = SHAPE_REPRESENTATION('',(#11,#37,#41),#45);
#37 = AXIS2_PLACEMENT_3D('',#38,#39,#40);
#38 = CARTESIAN_POINT('',(0.,0.,0.));
#39 = DIRECTION('',(0.,0.,1.));
#40 = DIRECTION('',(1.,0.,0.));
#41 = AXIS2_PLACEMENT_3D('',#42,#43,#44);
#42 = CARTESIAN_POINT('',(0.,2.54,0.));
#43 = DIRECTION('',(0.,0.,1.));
#44 = DIRECTION('',(1.,0.,0.));
#45 = ( GEOMETRIC_REPRESENTATION_CONTEXT(3) 
GLOBAL_UNCERTAINTY_ASSIGNED_CONTEXT((#49)) GLOBAL_UNIT_ASSIGNED_CONTEXT(
(#46,#47,#48)) REPRESENTATION_CONTEXT('Context #1',
  '3D Context with UNIT and UNCERTAINTY') );
#46 = ( LENGTH_UNIT() NAMED_UNIT(*) SI_UNIT(.MILLI.,.METRE.) );
#47 = ( NAMED_UNIT(*) PLANE_ANGLE_UNIT() SI_UNIT($,.RADIAN.) );
#48 = ( NAMED_UNIT(*) SI_UNIT($,.STERADIAN.) SOLID_ANGLE_UNIT() );
#49 = UNCERTAINTY_MEASURE_WITH_UNIT(LENGTH_MEASURE(5.E-05),#46,
  'distance_accuracy_value','confusion accuracy');
#50 = CONTEXT_DEPENDENT_SHAPE_REPRESENTATION(#51,#53);
#51 = ( REPRESENTATION_RELATIONSHIP('','',#36,#10) 
REPRESENTATION_RELATIONSHIP_WITH_TRANSFORMATION(#52) 
SHAPE_REPRESENTATION_RELATIONSHIP() );
#52 = ITEM_DEFINED_TRANSFORMATION('','',#11,#15);
#53 = PRODUCT_DEFINITION_SHAPE('Placement','Placement of an item',#54);
#54 = NEXT_ASSEMBLY_USAGE_OCCURRENCE('8','Array001','',#5,#31,$);
#55 = PRODUCT_RELATED_PRODUCT_CATEGORY('part',$,(#33));
#56 = SHAPE_DEFINITION_REPRESENTATION(#57,#63);
#57 = PRODUCT_DEFINITION_SHAPE('','',#58);
#58 = PRODUCT_DEFINITION('design','',#59,#62);
#59 = PRODUCT_DEFINITION_FORMATION('','',#60);
#60 = PRODUCT('Array','Array','',(#61));
#61 = PRODUCT_CONTEXT('',#2,'mechanical');
#62 = PRODUCT_DEFINITION_CONTEXT('part definition',#2,'design');
#63 = SHAPE_REPRESENTATION('',(#11,#64,#68,#72,#76,#80),#84);
#64 = AXIS2_PLACEMENT_3D('',#65,#66,#67);
#65 = CARTESIAN_POINT('',(0.,0.,-3.3));
#66 = DIRECTION('',(0.,0.,1.));
#67 = DIRECTION('',(1.,0.,0.));
#68 = AXIS2_PLACEMENT_3D('',#69,#70,#71);
#69 = CARTESIAN_POINT('',(2.54,0.,-3.3));
#70 = DIRECTION('',(0.,0.,1.));
#71 = DIRECTION('',(1.,0.,0.));
#72 = AXIS2_PLACEMENT_3D('',#73,#74,#75);
#73 = CARTESIAN_POINT('',(5.08,0.,-3.3));
#74 = DIRECTION('',(0.,0.,1.));
#75 = DIRECTION('',(1.,0.,0.));
#76 = AXIS2_PLACEMENT_3D('',#77,#78,#79);
#77 = CARTESIAN_POINT('',(7.62,0.,-3.3));
#78 = DIRECTION('',(0.,0.,1.));
#79 = DIRECTION('',(1.,0.,0.));
#80 = AXIS2_PLACEMENT_3D('',#81,#82,#83);
#81 = CARTESIAN_POINT('',(10.16,0.,-3.3));
#82 = DIRECTION('',(0.,0.,1.));
#83 = DIRECTION('',(1.,0.,0.));
#84 = ( GEOMETRIC_REPRESENTATION_CONTEXT(3) 
GLOBAL_UNCERTAINTY_ASSIGNED_CONTEXT((#88)) GLOBAL_UNIT_ASSIGNED_CONTEXT(
(#85,#86,#87)) REPRESENTATION_CONTEXT('Context #1',
  '3D Context with UNIT and UNCERTAINTY') );
#85 = ( LENGTH_UNIT() NAMED_UNIT(*) SI_UNIT(.MILLI.,.METRE.) );
#86 = ( NAMED_UNIT(*) PLANE_ANGLE_UNIT() SI_UNIT($,.RADIAN.) );
#87 = ( NAMED_UNIT(*) SI_UNIT($,.STERADIAN.) SOLID_ANGLE_UNIT() );
#88 = UNCERTAINTY_MEASURE_WITH_UNIT(LENGTH_MEASURE(5.E-05),#85,
  'distance_accuracy_value','confusion accuracy');
#89 = CONTEXT_DEPENDENT_SHAPE_REPRESENTATION(#90,#92);
#90 = ( REPRESENTATION_RELATIONSHIP('','',#63,#36) 
REPRESENTATION_RELATIONSHIP_WITH_TRANSFORMATION(#91) 
SHAPE_REPRESENTATION_RELATIONSHIP() );
#91 = ITEM_DEFINED_TRANSFORMATION('','',#11,#37);
#92 = PRODUCT_DEFINITION_SHAPE('Placement','Placement of an item',#93);
#93 = NEXT_ASSEMBLY_USAGE_OCCURRENCE('6','0','',#31,#58,$);
#94 = PRODUCT_RELATED_PRODUCT_CATEGORY('part',$,(#60));
#95 = SHAPE_DEFINITION_REPRESENTATION(#96,#102);
#96 = PRODUCT_DEFINITION_SHAPE('','',#97);
#97 = PRODUCT_DEFINITION('design','',#98,#101);
#98 = PRODUCT_DEFINITION_FORMATION('','',#99);
#99 = PRODUCT('legs','legs','',(#100));
#100 = PRODUCT_CONTEXT('',#2,'mechanical');
#101 = PRODUCT_DEFINITION_CONTEXT('part definition',#2,'design');
#102 = ADVANCED_BREP_SHAPE_REPRESENTATION('',(#11,#103),#445);
#103 = MANIFOLD_SOLID_BREP('',#104);
#104 = CLOSED_SHELL('',(#105,#145,#176,#207,#238,#269,#291,#315,#339,
    #363,#380,#404,#421,#433));
#105 = ADVANCED_FACE('',(#106),#140,.F.);
#106 = FACE_BOUND('',#107,.F.);
#107 = EDGE_LOOP('',(#108,#118,#126,#134));
#108 = ORIENTED_EDGE('',*,*,#109,.T.);
#109 = EDGE_CURVE('',#110,#112,#114,.T.);
#110 = VERTEX_POINT('',#111);
#111 = CARTESIAN_POINT('',(-0.4,-0.4,0.2));
#112 = VERTEX_POINT('',#113);
#113 = CARTESIAN_POINT('',(-0.4,-0.4,11.8));
#114 = LINE('',#115,#116);
#115 = CARTESIAN_POINT('',(-0.4,-0.4,0.));
#116 = VECTOR('',#117,1.);
#117 = DIRECTION('',(0.,0.,1.));
#118 = ORIENTED_EDGE('',*,*,#119,.T.);
#119 = EDGE_CURVE('',#112,#120,#122,.T.);
#120 = VERTEX_POINT('',#121);
#121 = CARTESIAN_POINT('',(0.4,-0.4,11.8));
#122 = LINE('',#123,#124);
#123 = CARTESIAN_POINT('',(-0.4,-0.4,11.8));
#124 = VECTOR('',#125,1.);
#125 = DIRECTION('',(1.,0.,0.));
#126 = ORIENTED_EDGE('',*,*,#127,.F.);
#127 = EDGE_CURVE('',#128,#120,#130,.T.);
#128 = VERTEX_POINT('',#129);
#129 = CARTESIAN_POINT('',(0.4,-0.4,0.2));
#130 = LINE('',#131,#132);
#131 = CARTESIAN_POINT('',(0.4,-0.4,0.));
#132 = VECTOR('',#133,1.);
#133 = DIRECTION('',(0.,0.,1.));
#134 = ORIENTED_EDGE('',*,*,#135,.F.);
#135 = EDGE_CURVE('',#110,#128,#136,.T.);
#136 = LINE('',#137,#138);
#137 = CARTESIAN_POINT('',(-0.4,-0.4,0.2));
#138 = VECTOR('',#139,1.);
#139 = DIRECTION('',(1.,0.,0.));
#140 = PLANE('',#141);
#141 = AXIS2_PLACEMENT_3D('',#142,#143,#144);
#142 = CARTESIAN_POINT('',(-0.4,-0.4,0.));
#143 = DIRECTION('',(0.,1.,0.));
#144 = DIRECTION('',(1.,0.,0.));
#145 = ADVANCED_FACE('',(#146),#171,.F.);
#146 = FACE_BOUND('',#147,.F.);
#147 = EDGE_LOOP('',(#148,#158,#164,#165));
#148 = ORIENTED_EDGE('',*,*,#149,.T.);
#149 = EDGE_CURVE('',#150,#152,#154,.T.);
#150 = VERTEX_POINT('',#151);
#151 = CARTESIAN_POINT('',(-0.4,0.4,0.2));
#152 = VERTEX_POINT('',#153);
#153 = CARTESIAN_POINT('',(-0.4,0.4,11.8));
#154 = LINE('',#155,#156);
#155 = CARTESIAN_POINT('',(-0.4,0.4,0.));
#156 = VECTOR('',#157,1.);
#157 = DIRECTION('',(0.,0.,1.));
#158 = ORIENTED_EDGE('',*,*,#159,.T.);
#159 = EDGE_CURVE('',#152,#112,#160,.T.);
#160 = LINE('',#161,#162);
#161 = CARTESIAN_POINT('',(-0.4,0.4,11.8));
#162 = VECTOR('',#163,1.);
#163 = DIRECTION('',(0.,-1.,0.));
#164 = ORIENTED_EDGE('',*,*,#109,.F.);
#165 = ORIENTED_EDGE('',*,*,#166,.F.);
#166 = EDGE_CURVE('',#150,#110,#167,.T.);
#167 = LINE('',#168,#169);
#168 = CARTESIAN_POINT('',(-0.4,0.4,0.2));
#169 = VECTOR('',#170,1.);
#170 = DIRECTION('',(0.,-1.,0.));
#171 = PLANE('',#172);
#172 = AXIS2_PLACEMENT_3D('',#173,#174,#175);
#173 = CARTESIAN_POINT('',(-0.4,0.4,0.));
#174 = DIRECTION('',(1.,0.,0.));
#175 = DIRECTION('',(0.,-1.,0.));
#176 = ADVANCED_FACE('',(#177),#202,.T.);
#177 = FACE_BOUND('',#178,.F.);
#178 = EDGE_LOOP('',(#179,#187,#188,#196));
#179 = ORIENTED_EDGE('',*,*,#180,.F.);
#180 = EDGE_CURVE('',#110,#181,#183,.T.);
#181 = VERTEX_POINT('',#182);
#182 = CARTESIAN_POINT('',(-0.2,-0.2,-1.387778780781E-17));
#183 = LINE('',#184,#185);
#184 = CARTESIAN_POINT('',(-0.2,-0.2,-8.326672684689E-17));
#185 = VECTOR('',#186,1.);
#186 = DIRECTION('',(0.57735026919,0.57735026919,-0.57735026919));
#187 = ORIENTED_EDGE('',*,*,#135,.T.);
#188 = ORIENTED_EDGE('',*,*,#189,.T.);
#189 = EDGE_CURVE('',#128,#190,#192,.T.);
#190 = VERTEX_POINT('',#191);
#191 = CARTESIAN_POINT('',(0.2,-0.2,-1.387778780781E-17));
#192 = LINE('',#193,#194);
#193 = CARTESIAN_POINT('',(0.2,-0.2,-8.326672684689E-17));
#194 = VECTOR('',#195,1.);
#195 = DIRECTION('',(-0.57735026919,0.57735026919,-0.57735026919));
#196 = ORIENTED_EDGE('',*,*,#197,.F.);
#197 = EDGE_CURVE('',#181,#190,#198,.T.);
#198 = LINE('',#199,#200);
#199 = CARTESIAN_POINT('',(-0.4,-0.2,0.));
#200 = VECTOR('',#201,1.);
#201 = DIRECTION('',(1.,0.,0.));
#202 = PLANE('',#203);
#203 = AXIS2_PLACEMENT_3D('',#204,#205,#206);
#204 = CARTESIAN_POINT('',(-0.4,-0.3,0.1));
#205 = DIRECTION('',(0.,-0.707106781187,-0.707106781187));
#206 = DIRECTION('',(-1.,-0.,-0.));
#207 = ADVANCED_FACE('',(#208),#233,.F.);
#208 = FACE_BOUND('',#209,.T.);
#209 = EDGE_LOOP('',(#210,#218,#219,#227));
#210 = ORIENTED_EDGE('',*,*,#211,.F.);
#211 = EDGE_CURVE('',#112,#212,#214,.T.);
#212 = VERTEX_POINT('',#213);
#213 = CARTESIAN_POINT('',(-0.2,-0.2,12.));
#214 = LINE('',#215,#216);
#215 = CARTESIAN_POINT('',(-0.2,-0.2,12.));
#216 = VECTOR('',#217,1.);
#217 = DIRECTION('',(0.57735026919,0.57735026919,0.57735026919));
#218 = ORIENTED_EDGE('',*,*,#119,.T.);
#219 = ORIENTED_EDGE('',*,*,#220,.T.);
#220 = EDGE_CURVE('',#120,#221,#223,.T.);
#221 = VERTEX_POINT('',#222);
#222 = CARTESIAN_POINT('',(0.2,-0.2,12.));
#223 = LINE('',#224,#225);
#224 = CARTESIAN_POINT('',(0.2,-0.2,12.));
#225 = VECTOR('',#226,1.);
#226 = DIRECTION('',(-0.57735026919,0.57735026919,0.57735026919));
#227 = ORIENTED_EDGE('',*,*,#228,.F.);
#228 = EDGE_CURVE('',#212,#221,#229,.T.);
#229 = LINE('',#230,#231);
#230 = CARTESIAN_POINT('',(-0.4,-0.2,12.));
#231 = VECTOR('',#232,1.);
#232 = DIRECTION('',(1.,0.,0.));
#233 = PLANE('',#234);
#234 = AXIS2_PLACEMENT_3D('',#235,#236,#237);
#235 = CARTESIAN_POINT('',(-0.4,-0.3,11.9));
#236 = DIRECTION('',(1.735417226645E-18,0.707106781187,-0.707106781187)
  );
#237 = DIRECTION('',(-1.,1.227125289148E-18,-1.227125289148E-18));
#238 = ADVANCED_FACE('',(#239),#264,.F.);
#239 = FACE_BOUND('',#240,.F.);
#240 = EDGE_LOOP('',(#241,#242,#250,#258));
#241 = ORIENTED_EDGE('',*,*,#127,.T.);
#242 = ORIENTED_EDGE('',*,*,#243,.T.);
#243 = EDGE_CURVE('',#120,#244,#246,.T.);
#244 = VERTEX_POINT('',#245);
#245 = CARTESIAN_POINT('',(0.4,0.4,11.8));
#246 = LINE('',#247,#248);
#247 = CARTESIAN_POINT('',(0.4,-0.4,11.8));
#248 = VECTOR('',#249,1.);
#249 = DIRECTION('',(0.,1.,0.));
#250 = ORIENTED_EDGE('',*,*,#251,.F.);
#251 = EDGE_CURVE('',#252,#244,#254,.T.);
#252 = VERTEX_POINT('',#253);
#253 = CARTESIAN_POINT('',(0.4,0.4,0.2));
#254 = LINE('',#255,#256);
#255 = CARTESIAN_POINT('',(0.4,0.4,0.));
#256 = VECTOR('',#257,1.);
#257 = DIRECTION('',(0.,0.,1.));
#258 = ORIENTED_EDGE('',*,*,#259,.F.);
#259 = EDGE_CURVE('',#128,#252,#260,.T.);
#260 = LINE('',#261,#262);
#261 = CARTESIAN_POINT('',(0.4,-0.4,0.2));
#262 = VECTOR('',#263,1.);
#263 = DIRECTION('',(0.,1.,0.));
#264 = PLANE('',#265);
#265 = AXIS2_PLACEMENT_3D('',#266,#267,#268);
#266 = CARTESIAN_POINT('',(0.4,-0.4,0.));
#267 = DIRECTION('',(-1.,0.,0.));
#268 = DIRECTION('',(0.,1.,0.));
#269 = ADVANCED_FACE('',(#270),#286,.F.);
#270 = FACE_BOUND('',#271,.F.);
#271 = EDGE_LOOP('',(#272,#273,#279,#280));
#272 = ORIENTED_EDGE('',*,*,#251,.T.);
#273 = ORIENTED_EDGE('',*,*,#274,.T.);
#274 = EDGE_CURVE('',#244,#152,#275,.T.);
#275 = LINE('',#276,#277);
#276 = CARTESIAN_POINT('',(0.4,0.4,11.8));
#277 = VECTOR('',#278,1.);
#278 = DIRECTION('',(-1.,0.,0.));
#279 = ORIENTED_EDGE('',*,*,#149,.F.);
#280 = ORIENTED_EDGE('',*,*,#281,.F.);
#281 = EDGE_CURVE('',#252,#150,#282,.T.);
#282 = LINE('',#283,#284);
#283 = CARTESIAN_POINT('',(0.4,0.4,0.2));
#284 = VECTOR('',#285,1.);
#285 = DIRECTION('',(-1.,0.,0.));
#286 = PLANE('',#287);
#287 = AXIS2_PLACEMENT_3D('',#288,#289,#290);
#288 = CARTESIAN_POINT('',(0.4,0.4,0.));
#289 = DIRECTION('',(0.,-1.,0.));
#290 = DIRECTION('',(-1.,0.,0.));
#291 = ADVANCED_FACE('',(#292),#310,.T.);
#292 = FACE_BOUND('',#293,.F.);
#293 = EDGE_LOOP('',(#294,#302,#303,#304));
#294 = ORIENTED_EDGE('',*,*,#295,.T.);
#295 = EDGE_CURVE('',#296,#150,#298,.T.);
#296 = VERTEX_POINT('',#297);
#297 = CARTESIAN_POINT('',(-0.2,0.2,-1.387778780781E-17));
#298 = LINE('',#299,#300);
#299 = CARTESIAN_POINT('',(-0.2,0.2,-8.326672684689E-17));
#300 = VECTOR('',#301,1.);
#301 = DIRECTION('',(-0.57735026919,0.57735026919,0.57735026919));
#302 = ORIENTED_EDGE('',*,*,#166,.T.);
#303 = ORIENTED_EDGE('',*,*,#180,.T.);
#304 = ORIENTED_EDGE('',*,*,#305,.F.);
#305 = EDGE_CURVE('',#296,#181,#306,.T.);
#306 = LINE('',#307,#308);
#307 = CARTESIAN_POINT('',(-0.2,0.4,0.));
#308 = VECTOR('',#309,1.);
#309 = DIRECTION('',(0.,-1.,0.));
#310 = PLANE('',#311);
#311 = AXIS2_PLACEMENT_3D('',#312,#313,#314);
#312 = CARTESIAN_POINT('',(-0.3,0.4,0.1));
#313 = DIRECTION('',(-0.707106781187,0.,-0.707106781187));
#314 = DIRECTION('',(-0.,1.,-0.));
#315 = ADVANCED_FACE('',(#316),#334,.F.);
#316 = FACE_BOUND('',#317,.T.);
#317 = EDGE_LOOP('',(#318,#326,#327,#328));
#318 = ORIENTED_EDGE('',*,*,#319,.F.);
#319 = EDGE_CURVE('',#152,#320,#322,.T.);
#320 = VERTEX_POINT('',#321);
#321 = CARTESIAN_POINT('',(-0.2,0.2,12.));
#322 = LINE('',#323,#324);
#323 = CARTESIAN_POINT('',(-0.2,0.2,12.));
#324 = VECTOR('',#325,1.);
#325 = DIRECTION('',(0.57735026919,-0.57735026919,0.57735026919));
#326 = ORIENTED_EDGE('',*,*,#159,.T.);
#327 = ORIENTED_EDGE('',*,*,#211,.T.);
#328 = ORIENTED_EDGE('',*,*,#329,.F.);
#329 = EDGE_CURVE('',#320,#212,#330,.T.);
#330 = LINE('',#331,#332);
#331 = CARTESIAN_POINT('',(-0.2,0.4,12.));
#332 = VECTOR('',#333,1.);
#333 = DIRECTION('',(0.,-1.,0.));
#334 = PLANE('',#335);
#335 = AXIS2_PLACEMENT_3D('',#336,#337,#338);
#336 = CARTESIAN_POINT('',(-0.3,0.4,11.9));
#337 = DIRECTION('',(0.707106781187,-1.735417226645E-18,-0.707106781187)
  );
#338 = DIRECTION('',(1.227125289148E-18,1.,-1.227125289148E-18));
#339 = ADVANCED_FACE('',(#340),#358,.F.);
#340 = FACE_BOUND('',#341,.F.);
#341 = EDGE_LOOP('',(#342,#343,#351,#357));
#342 = ORIENTED_EDGE('',*,*,#197,.T.);
#343 = ORIENTED_EDGE('',*,*,#344,.T.);
#344 = EDGE_CURVE('',#190,#345,#347,.T.);
#345 = VERTEX_POINT('',#346);
#346 = CARTESIAN_POINT('',(0.2,0.2,-1.387778780781E-17));
#347 = LINE('',#348,#349);
#348 = CARTESIAN_POINT('',(0.2,-0.4,0.));
#349 = VECTOR('',#350,1.);
#350 = DIRECTION('',(0.,1.,0.));
#351 = ORIENTED_EDGE('',*,*,#352,.T.);
#352 = EDGE_CURVE('',#345,#296,#353,.T.);
#353 = LINE('',#354,#355);
#354 = CARTESIAN_POINT('',(0.4,0.2,0.));
#355 = VECTOR('',#356,1.);
#356 = DIRECTION('',(-1.,0.,0.));
#357 = ORIENTED_EDGE('',*,*,#305,.T.);
#358 = PLANE('',#359);
#359 = AXIS2_PLACEMENT_3D('',#360,#361,#362);
#360 = CARTESIAN_POINT('',(0.,0.,0.));
#361 = DIRECTION('',(0.,0.,1.));
#362 = DIRECTION('',(1.,0.,0.));
#363 = ADVANCED_FACE('',(#364),#375,.T.);
#364 = FACE_BOUND('',#365,.T.);
#365 = EDGE_LOOP('',(#366,#367,#368,#374));
#366 = ORIENTED_EDGE('',*,*,#189,.T.);
#367 = ORIENTED_EDGE('',*,*,#344,.T.);
#368 = ORIENTED_EDGE('',*,*,#369,.T.);
#369 = EDGE_CURVE('',#345,#252,#370,.T.);
#370 = LINE('',#371,#372);
#371 = CARTESIAN_POINT('',(0.2,0.2,-8.326672684689E-17));
#372 = VECTOR('',#373,1.);
#373 = DIRECTION('',(0.57735026919,0.57735026919,0.57735026919));
#374 = ORIENTED_EDGE('',*,*,#259,.F.);
#375 = PLANE('',#376);
#376 = AXIS2_PLACEMENT_3D('',#377,#378,#379);
#377 = CARTESIAN_POINT('',(0.3,-0.4,0.1));
#378 = DIRECTION('',(0.707106781187,0.,-0.707106781187));
#379 = DIRECTION('',(0.,1.,0.));
#380 = ADVANCED_FACE('',(#381),#399,.T.);
#381 = FACE_BOUND('',#382,.T.);
#382 = EDGE_LOOP('',(#383,#384,#392,#398));
#383 = ORIENTED_EDGE('',*,*,#228,.T.);
#384 = ORIENTED_EDGE('',*,*,#385,.T.);
#385 = EDGE_CURVE('',#221,#386,#388,.T.);
#386 = VERTEX_POINT('',#387);
#387 = CARTESIAN_POINT('',(0.2,0.2,12.));
#388 = LINE('',#389,#390);
#389 = CARTESIAN_POINT('',(0.2,-0.4,12.));
#390 = VECTOR('',#391,1.);
#391 = DIRECTION('',(0.,1.,0.));
#392 = ORIENTED_EDGE('',*,*,#393,.T.);
#393 = EDGE_CURVE('',#386,#320,#394,.T.);
#394 = LINE('',#395,#396);
#395 = CARTESIAN_POINT('',(0.4,0.2,12.));
#396 = VECTOR('',#397,1.);
#397 = DIRECTION('',(-1.,0.,0.));
#398 = ORIENTED_EDGE('',*,*,#329,.T.);
#399 = PLANE('',#400);
#400 = AXIS2_PLACEMENT_3D('',#401,#402,#403);
#401 = CARTESIAN_POINT('',(0.,0.,12.));
#402 = DIRECTION('',(0.,0.,1.));
#403 = DIRECTION('',(1.,0.,0.));
#404 = ADVANCED_FACE('',(#405),#416,.F.);
#405 = FACE_BOUND('',#406,.T.);
#406 = EDGE_LOOP('',(#407,#408,#409,#415));
#407 = ORIENTED_EDGE('',*,*,#220,.F.);
#408 = ORIENTED_EDGE('',*,*,#243,.T.);
#409 = ORIENTED_EDGE('',*,*,#410,.T.);
#410 = EDGE_CURVE('',#244,#386,#411,.T.);
#411 = LINE('',#412,#413);
#412 = CARTESIAN_POINT('',(0.2,0.2,12.));
#413 = VECTOR('',#414,1.);
#414 = DIRECTION('',(-0.57735026919,-0.57735026919,0.57735026919));
#415 = ORIENTED_EDGE('',*,*,#385,.F.);
#416 = PLANE('',#417);
#417 = AXIS2_PLACEMENT_3D('',#418,#419,#420);
#418 = CARTESIAN_POINT('',(0.3,-0.4,11.9));
#419 = DIRECTION('',(-0.707106781187,1.735417226645E-18,-0.707106781187)
  );
#420 = DIRECTION('',(-1.227125289148E-18,-1.,-1.227125289148E-18));
#421 = ADVANCED_FACE('',(#422),#428,.T.);
#422 = FACE_BOUND('',#423,.T.);
#423 = EDGE_LOOP('',(#424,#425,#426,#427));
#424 = ORIENTED_EDGE('',*,*,#369,.F.);
#425 = ORIENTED_EDGE('',*,*,#352,.T.);
#426 = ORIENTED_EDGE('',*,*,#295,.T.);
#427 = ORIENTED_EDGE('',*,*,#281,.F.);
#428 = PLANE('',#429);
#429 = AXIS2_PLACEMENT_3D('',#430,#431,#432);
#430 = CARTESIAN_POINT('',(0.4,0.3,0.1));
#431 = DIRECTION('',(0.,0.707106781187,-0.707106781187));
#432 = DIRECTION('',(-1.,0.,0.));
#433 = ADVANCED_FACE('',(#434),#440,.F.);
#434 = FACE_BOUND('',#435,.T.);
#435 = EDGE_LOOP('',(#436,#437,#438,#439));
#436 = ORIENTED_EDGE('',*,*,#410,.F.);
#437 = ORIENTED_EDGE('',*,*,#274,.T.);
#438 = ORIENTED_EDGE('',*,*,#319,.T.);
#439 = ORIENTED_EDGE('',*,*,#393,.F.);
#440 = PLANE('',#441);
#441 = AXIS2_PLACEMENT_3D('',#442,#443,#444);
#442 = CARTESIAN_POINT('',(0.4,0.3,11.9));
#443 = DIRECTION('',(-1.735417226645E-18,-0.707106781187,-0.707106781187
    ));
#444 = DIRECTION('',(1.,-1.227125289148E-18,-1.227125289148E-18));
#445 = ( GEOMETRIC_REPRESENTATION_CONTEXT(3) 
GLOBAL_UNCERTAINTY_ASSIGNED_CONTEXT((#449)) GLOBAL_UNIT_ASSIGNED_CONTEXT
((#446,#447,#448)) REPRESENTATION_CONTEXT('Context #1',
  '3D Context with UNIT and UNCERTAINTY') );
#446 = ( LENGTH_UNIT() NAMED_UNIT(*) SI_UNIT(.MILLI.,.METRE.) );
#447 = ( NAMED_UNIT(*) PLANE_ANGLE_UNIT() SI_UNIT($,.RADIAN.) );
#448 = ( NAMED_UNIT(*) SI_UNIT($,.STERADIAN.) SOLID_ANGLE_UNIT() );
#449 = UNCERTAINTY_MEASURE_WITH_UNIT(LENGTH_MEASURE(5.E-05),#446,
  'distance_accuracy_value','confusion accuracy');
#450 = CONTEXT_DEPENDENT_SHAPE_REPRESENTATION(#451,#453);
#451 = ( REPRESENTATION_RELATIONSHIP('','',#102,#63) 
REPRESENTATION_RELATIONSHIP_WITH_TRANSFORMATION(#452) 
SHAPE_REPRESENTATION_RELATIONSHIP() );
#452 = ITEM_DEFINED_TRANSFORMATION('','',#11,#64);
#453 = PRODUCT_DEFINITION_SHAPE('Placement','Placement of an item',#454
  );
#454 = NEXT_ASSEMBLY_USAGE_OCCURRENCE('1','0','',#58,#97,$);
#455 = PRODUCT_RELATED_PRODUCT_CATEGORY('part',$,(#99));
#456 = CONTEXT_DEPENDENT_SHAPE_REPRESENTATION(#457,#459);
#457 = ( REPRESENTATION_RELATIONSHIP('','',#102,#63) 
REPRESENTATION_RELATIONSHIP_WITH_TRANSFORMATION(#458) 
SHAPE_REPRESENTATION_RELATIONSHIP() );
#458 = ITEM_DEFINED_TRANSFORMATION('','',#11,#68);
#459 = PRODUCT_DEFINITION_SHAPE('Placement','Placement of an item',#460
  );
#460 = NEXT_ASSEMBLY_USAGE_OCCURRENCE('2','1','',#58,#97,$);
#461 = CONTEXT_DEPENDENT_SHAPE_REPRESENTATION(#462,#464);
#462 = ( REPRESENTATION_RELATIONSHIP('','',#102,#63) 
REPRESENTATION_RELATIONSHIP_WITH_TRANSFORMATION(#463) 
SHAPE_REPRESENTATION_RELATIONSHIP() );
#463 = ITEM_DEFINED_TRANSFORMATION('','',#11,#72);
#464 = PRODUCT_DEFINITION_SHAPE('Placement','Placement of an item',#465
  );
#465 = NEXT_ASSEMBLY_USAGE_OCCURRENCE('3','2','',#58,#97,$);
#466 = CONTEXT_DEPENDENT_SHAPE_REPRESENTATION(#467,#469);
#467 = ( REPRESENTATION_RELATIONSHIP('','',#102,#63) 
REPRESENTATION_RELATIONSHIP_WITH_TRANSFORMATION(#468) 
SHAPE_REPRESENTATION_RELATIONSHIP() );
#468 = ITEM_DEFINED_TRANSFORMATION('','',#11,#76);
#469 = PRODUCT_DEFINITION_SHAPE('Placement','Placement of an item',#470
  );
#470 = NEXT_ASSEMBLY_USAGE_OCCURRENCE('4','3','',#58,#97,$);
#471 = CONTEXT_DEPENDENT_SHAPE_REPRESENTATION(#472,#474);
#472 = ( REPRESENTATION_RELATIONSHIP('','',#102,#63) 
REPRESENTATION_RELATIONSHIP_WITH_TRANSFORMATION(#473) 
SHAPE_REPRESENTATION_RELATIONSHIP() );
#473 = ITEM_DEFINED_TRANSFORMATION('','',#11,#80);
#474 = PRODUCT_DEFINITION_SHAPE('Placement','Placement of an item',#475
  );
#475 = NEXT_ASSEMBLY_USAGE_OCCURRENCE('5','4','',#58,#97,$);
#476 = CONTEXT_DEPENDENT_SHAPE_REPRESENTATION(#477,#479);
#477 = ( REPRESENTATION_RELATIONSHIP('','',#63,#36) 
REPRESENTATION_RELATIONSHIP_WITH_TRANSFORMATION(#478) 
SHAPE_REPRESENTATION_RELATIONSHIP() );
#478 = ITEM_DEFINED_TRANSFORMATION('','',#11,#41);
#479 = PRODUCT_DEFINITION_SHAPE('Placement','Placement of an item',#480
  );
#480 = NEXT_ASSEMBLY_USAGE_OCCURRENCE('7','1','',#31,#58,$);
#481 = SHAPE_DEFINITION_REPRESENTATION(#482,#488);
#482 = PRODUCT_DEFINITION_SHAPE('','',#483);
#483 = PRODUCT_DEFINITION('design','',#484,#487);
#484 = PRODUCT_DEFINITION_FORMATION('','',#485);
#485 = PRODUCT('Body','Body','',(#486));
#486 = PRODUCT_CONTEXT('',#2,'mechanical');
#487 = PRODUCT_DEFINITION_CONTEXT('part definition',#2,'design');
#488 = ADVANCED_BREP_SHAPE_REPRESENTATION('',(#11,#489),#903);
#489 = MANIFOLD_SOLID_BREP('',#490);
#490 = CLOSED_SHELL('',(#491,#531,#562,#593,#610,#691,#726,#750,#797,
    #821,#845,#862,#879,#891));
#491 = ADVANCED_FACE('',(#492),#526,.F.);
#492 = FACE_BOUND('',#493,.F.);
#493 = EDGE_LOOP('',(#494,#504,#512,#520));
#494 = ORIENTED_EDGE('',*,*,#495,.T.);
#495 = EDGE_CURVE('',#496,#498,#500,.T.);
#496 = VERTEX_POINT('',#497);
#497 = CARTESIAN_POINT('',(-10.15,-4.5,0.));
#498 = VERTEX_POINT('',#499);
#499 = CARTESIAN_POINT('',(-10.15,-4.5,9.));
#500 = LINE('',#501,#502);
#501 = CARTESIAN_POINT('',(-10.15,-4.5,0.));
#502 = VECTOR('',#503,1.);
#503 = DIRECTION('',(0.,0.,1.));
#504 = ORIENTED_EDGE('',*,*,#505,.T.);
#505 = EDGE_CURVE('',#498,#506,#508,.T.);
#506 = VERTEX_POINT('',#507);
#507 = CARTESIAN_POINT('',(10.15,-4.5,9.));
#508 = LINE('',#509,#510);
#509 = CARTESIAN_POINT('',(-10.15,-4.5,9.));
#510 = VECTOR('',#511,1.);
#511 = DIRECTION('',(1.,0.,0.));
#512 = ORIENTED_EDGE('',*,*,#513,.F.);
#513 = EDGE_CURVE('',#514,#506,#516,.T.);
#514 = VERTEX_POINT('',#515);
#515 = CARTESIAN_POINT('',(10.15,-4.5,0.));
#516 = LINE('',#517,#518);
#517 = CARTESIAN_POINT('',(10.15,-4.5,0.));
#518 = VECTOR('',#519,1.);
#519 = DIRECTION('',(0.,0.,1.));
#520 = ORIENTED_EDGE('',*,*,#521,.F.);
#521 = EDGE_CURVE('',#496,#514,#522,.T.);
#522 = LINE('',#523,#524);
#523 = CARTESIAN_POINT('',(-10.15,-4.5,0.));
#524 = VECTOR('',#525,1.);
#525 = DIRECTION('',(1.,0.,0.));
#526 = PLANE('',#527);
#527 = AXIS2_PLACEMENT_3D('',#528,#529,#530);
#528 = CARTESIAN_POINT('',(-10.15,-4.5,0.));
#529 = DIRECTION('',(0.,1.,0.));
#530 = DIRECTION('',(1.,0.,0.));
#531 = ADVANCED_FACE('',(#532),#557,.F.);
#532 = FACE_BOUND('',#533,.F.);
#533 = EDGE_LOOP('',(#534,#544,#550,#551));
#534 = ORIENTED_EDGE('',*,*,#535,.T.);
#535 = EDGE_CURVE('',#536,#538,#540,.T.);
#536 = VERTEX_POINT('',#537);
#537 = CARTESIAN_POINT('',(-10.15,4.5,0.));
#538 = VERTEX_POINT('',#539);
#539 = CARTESIAN_POINT('',(-10.15,4.5,9.));
#540 = LINE('',#541,#542);
#541 = CARTESIAN_POINT('',(-10.15,4.5,0.));
#542 = VECTOR('',#543,1.);
#543 = DIRECTION('',(0.,0.,1.));
#544 = ORIENTED_EDGE('',*,*,#545,.T.);
#545 = EDGE_CURVE('',#538,#498,#546,.T.);
#546 = LINE('',#547,#548);
#547 = CARTESIAN_POINT('',(-10.15,4.5,9.));
#548 = VECTOR('',#549,1.);
#549 = DIRECTION('',(0.,-1.,0.));
#550 = ORIENTED_EDGE('',*,*,#495,.F.);
#551 = ORIENTED_EDGE('',*,*,#552,.F.);
#552 = EDGE_CURVE('',#536,#496,#553,.T.);
#553 = LINE('',#554,#555);
#554 = CARTESIAN_POINT('',(-10.15,4.5,0.));
#555 = VECTOR('',#556,1.);
#556 = DIRECTION('',(0.,-1.,0.));
#557 = PLANE('',#558);
#558 = AXIS2_PLACEMENT_3D('',#559,#560,#561);
#559 = CARTESIAN_POINT('',(-10.15,4.5,0.));
#560 = DIRECTION('',(1.,0.,0.));
#561 = DIRECTION('',(0.,-1.,0.));
#562 = ADVANCED_FACE('',(#563),#588,.F.);
#563 = FACE_BOUND('',#564,.F.);
#564 = EDGE_LOOP('',(#565,#566,#574,#582));
#565 = ORIENTED_EDGE('',*,*,#513,.T.);
#566 = ORIENTED_EDGE('',*,*,#567,.T.);
#567 = EDGE_CURVE('',#506,#568,#570,.T.);
#568 = VERTEX_POINT('',#569);
#569 = CARTESIAN_POINT('',(10.15,4.5,9.));
#570 = LINE('',#571,#572);
#571 = CARTESIAN_POINT('',(10.15,-4.5,9.));
#572 = VECTOR('',#573,1.);
#573 = DIRECTION('',(0.,1.,0.));
#574 = ORIENTED_EDGE('',*,*,#575,.F.);
#575 = EDGE_CURVE('',#576,#568,#578,.T.);
#576 = VERTEX_POINT('',#577);
#577 = CARTESIAN_POINT('',(10.15,4.5,0.));
#578 = LINE('',#579,#580);
#579 = CARTESIAN_POINT('',(10.15,4.5,0.));
#580 = VECTOR('',#581,1.);
#581 = DIRECTION('',(0.,0.,1.));
#582 = ORIENTED_EDGE('',*,*,#583,.F.);
#583 = EDGE_CURVE('',#514,#576,#584,.T.);
#584 = LINE('',#585,#586);
#585 = CARTESIAN_POINT('',(10.15,-4.5,0.));
#586 = VECTOR('',#587,1.);
#587 = DIRECTION('',(0.,1.,0.));
#588 = PLANE('',#589);
#589 = AXIS2_PLACEMENT_3D('',#590,#591,#592);
#590 = CARTESIAN_POINT('',(10.15,-4.5,0.));
#591 = DIRECTION('',(-1.,0.,0.));
#592 = DIRECTION('',(0.,1.,0.));
#593 = ADVANCED_FACE('',(#594),#605,.F.);
#594 = FACE_BOUND('',#595,.F.);
#595 = EDGE_LOOP('',(#596,#597,#598,#604));
#596 = ORIENTED_EDGE('',*,*,#521,.T.);
#597 = ORIENTED_EDGE('',*,*,#583,.T.);
#598 = ORIENTED_EDGE('',*,*,#599,.T.);
#599 = EDGE_CURVE('',#576,#536,#600,.T.);
#600 = LINE('',#601,#602);
#601 = CARTESIAN_POINT('',(10.15,4.5,0.));
#602 = VECTOR('',#603,1.);
#603 = DIRECTION('',(-1.,0.,0.));
#604 = ORIENTED_EDGE('',*,*,#552,.T.);
#605 = PLANE('',#606);
#606 = AXIS2_PLACEMENT_3D('',#607,#608,#609);
#607 = CARTESIAN_POINT('',(-4.440892098501E-16,0.,0.));
#608 = DIRECTION('',(0.,0.,1.));
#609 = DIRECTION('',(1.,0.,0.));
#610 = ADVANCED_FACE('',(#611),#686,.T.);
#611 = FACE_BOUND('',#612,.T.);
#612 = EDGE_LOOP('',(#613,#614,#615,#616,#624,#632,#640,#648,#656,#664,
    #672,#680));
#613 = ORIENTED_EDGE('',*,*,#545,.T.);
#614 = ORIENTED_EDGE('',*,*,#505,.T.);
#615 = ORIENTED_EDGE('',*,*,#567,.T.);
#616 = ORIENTED_EDGE('',*,*,#617,.T.);
#617 = EDGE_CURVE('',#568,#618,#620,.T.);
#618 = VERTEX_POINT('',#619);
#619 = CARTESIAN_POINT('',(2.25,4.5,9.));
#620 = LINE('',#621,#622);
#621 = CARTESIAN_POINT('',(10.15,4.5,9.));
#622 = VECTOR('',#623,1.);
#623 = DIRECTION('',(-1.,0.,0.));
#624 = ORIENTED_EDGE('',*,*,#625,.F.);
#625 = EDGE_CURVE('',#626,#618,#628,.T.);
#626 = VERTEX_POINT('',#627);
#627 = CARTESIAN_POINT('',(2.25,3.5,9.));
#628 = LINE('',#629,#630);
#629 = CARTESIAN_POINT('',(2.25,0.,9.));
#630 = VECTOR('',#631,1.);
#631 = DIRECTION('',(0.,1.,0.));
#632 = ORIENTED_EDGE('',*,*,#633,.F.);
#633 = EDGE_CURVE('',#634,#626,#636,.T.);
#634 = VERTEX_POINT('',#635);
#635 = CARTESIAN_POINT('',(9.15,3.5,9.));
#636 = LINE('',#637,#638);
#637 = CARTESIAN_POINT('',(10.15,3.5,9.));
#638 = VECTOR('',#639,1.);
#639 = DIRECTION('',(-1.,0.,0.));
#640 = ORIENTED_EDGE('',*,*,#641,.F.);
#641 = EDGE_CURVE('',#642,#634,#644,.T.);
#642 = VERTEX_POINT('',#643);
#643 = CARTESIAN_POINT('',(9.15,-3.5,9.));
#644 = LINE('',#645,#646);
#645 = CARTESIAN_POINT('',(9.15,-4.5,9.));
#646 = VECTOR('',#647,1.);
#647 = DIRECTION('',(0.,1.,0.));
#648 = ORIENTED_EDGE('',*,*,#649,.F.);
#649 = EDGE_CURVE('',#650,#642,#652,.T.);
#650 = VERTEX_POINT('',#651);
#651 = CARTESIAN_POINT('',(-9.15,-3.5,9.));
#652 = LINE('',#653,#654);
#653 = CARTESIAN_POINT('',(-10.15,-3.5,9.));
#654 = VECTOR('',#655,1.);
#655 = DIRECTION('',(1.,0.,0.));
#656 = ORIENTED_EDGE('',*,*,#657,.F.);
#657 = EDGE_CURVE('',#658,#650,#660,.T.);
#658 = VERTEX_POINT('',#659);
#659 = CARTESIAN_POINT('',(-9.15,3.5,9.));
#660 = LINE('',#661,#662);
#661 = CARTESIAN_POINT('',(-9.15,4.5,9.));
#662 = VECTOR('',#663,1.);
#663 = DIRECTION('',(0.,-1.,0.));
#664 = ORIENTED_EDGE('',*,*,#665,.F.);
#665 = EDGE_CURVE('',#666,#658,#668,.T.);
#666 = VERTEX_POINT('',#667);
#667 = CARTESIAN_POINT('',(-2.25,3.5,9.));
#668 = LINE('',#669,#670);
#669 = CARTESIAN_POINT('',(10.15,3.5,9.));
#670 = VECTOR('',#671,1.);
#671 = DIRECTION('',(-1.,0.,0.));
#672 = ORIENTED_EDGE('',*,*,#673,.T.);
#673 = EDGE_CURVE('',#666,#674,#676,.T.);
#674 = VERTEX_POINT('',#675);
#675 = CARTESIAN_POINT('',(-2.25,4.5,9.));
#676 = LINE('',#677,#678);
#677 = CARTESIAN_POINT('',(-2.25,0.,9.));
#678 = VECTOR('',#679,1.);
#679 = DIRECTION('',(0.,1.,0.));
#680 = ORIENTED_EDGE('',*,*,#681,.T.);
#681 = EDGE_CURVE('',#674,#538,#682,.T.);
#682 = LINE('',#683,#684);
#683 = CARTESIAN_POINT('',(10.15,4.5,9.));
#684 = VECTOR('',#685,1.);
#685 = DIRECTION('',(-1.,0.,0.));
#686 = PLANE('',#687);
#687 = AXIS2_PLACEMENT_3D('',#688,#689,#690);
#688 = CARTESIAN_POINT('',(-4.440892098501E-16,0.,9.));
#689 = DIRECTION('',(0.,0.,1.));
#690 = DIRECTION('',(1.,0.,0.));
#691 = ADVANCED_FACE('',(#692),#721,.F.);
#692 = FACE_BOUND('',#693,.F.);
#693 = EDGE_LOOP('',(#694,#695,#696,#697,#705,#713,#719,#720));
#694 = ORIENTED_EDGE('',*,*,#599,.F.);
#695 = ORIENTED_EDGE('',*,*,#575,.T.);
#696 = ORIENTED_EDGE('',*,*,#617,.T.);
#697 = ORIENTED_EDGE('',*,*,#698,.F.);
#698 = EDGE_CURVE('',#699,#618,#701,.T.);
#699 = VERTEX_POINT('',#700);
#700 = CARTESIAN_POINT('',(2.25,4.5,2.));
#701 = LINE('',#702,#703);
#702 = CARTESIAN_POINT('',(2.25,4.5,1.));
#703 = VECTOR('',#704,1.);
#704 = DIRECTION('',(0.,0.,1.));
#705 = ORIENTED_EDGE('',*,*,#706,.T.);
#706 = EDGE_CURVE('',#699,#707,#709,.T.);
#707 = VERTEX_POINT('',#708);
#708 = CARTESIAN_POINT('',(-2.25,4.5,2.));
#709 = LINE('',#710,#711);
#710 = CARTESIAN_POINT('',(3.95,4.5,2.));
#711 = VECTOR('',#712,1.);
#712 = DIRECTION('',(-1.,0.,0.));
#713 = ORIENTED_EDGE('',*,*,#714,.T.);
#714 = EDGE_CURVE('',#707,#674,#715,.T.);
#715 = LINE('',#716,#717);
#716 = CARTESIAN_POINT('',(-2.25,4.5,1.));
#717 = VECTOR('',#718,1.);
#718 = DIRECTION('',(0.,0.,1.));
#719 = ORIENTED_EDGE('',*,*,#681,.T.);
#720 = ORIENTED_EDGE('',*,*,#535,.F.);
#721 = PLANE('',#722);
#722 = AXIS2_PLACEMENT_3D('',#723,#724,#725);
#723 = CARTESIAN_POINT('',(10.15,4.5,0.));
#724 = DIRECTION('',(0.,-1.,0.));
#725 = DIRECTION('',(-1.,0.,0.));
#726 = ADVANCED_FACE('',(#727),#745,.T.);
#727 = FACE_BOUND('',#728,.T.);
#728 = EDGE_LOOP('',(#729,#737,#743,#744));
#729 = ORIENTED_EDGE('',*,*,#730,.F.);
#730 = EDGE_CURVE('',#731,#666,#733,.T.);
#731 = VERTEX_POINT('',#732);
#732 = CARTESIAN_POINT('',(-2.25,3.5,2.));
#733 = LINE('',#734,#735);
#734 = CARTESIAN_POINT('',(-2.25,3.5,1.));
#735 = VECTOR('',#736,1.);
#736 = DIRECTION('',(0.,0.,1.));
#737 = ORIENTED_EDGE('',*,*,#738,.T.);
#738 = EDGE_CURVE('',#731,#707,#739,.T.);
#739 = LINE('',#740,#741);
#740 = CARTESIAN_POINT('',(-2.25,0.,2.));
#741 = VECTOR('',#742,1.);
#742 = DIRECTION('',(0.,1.,0.));
#743 = ORIENTED_EDGE('',*,*,#714,.T.);
#744 = ORIENTED_EDGE('',*,*,#673,.F.);
#745 = PLANE('',#746);
#746 = AXIS2_PLACEMENT_3D('',#747,#748,#749);
#747 = CARTESIAN_POINT('',(-2.25,0.,2.));
#748 = DIRECTION('',(1.,0.,0.));
#749 = DIRECTION('',(0.,0.,1.));
#750 = ADVANCED_FACE('',(#751),#792,.T.);
#751 = FACE_BOUND('',#752,.T.);
#752 = EDGE_LOOP('',(#753,#761,#762,#770,#776,#777,#778,#786));
#753 = ORIENTED_EDGE('',*,*,#754,.T.);
#754 = EDGE_CURVE('',#755,#634,#757,.T.);
#755 = VERTEX_POINT('',#756);
#756 = CARTESIAN_POINT('',(9.15,3.5,1.));
#757 = LINE('',#758,#759);
#758 = CARTESIAN_POINT('',(9.15,3.5,0.));
#759 = VECTOR('',#760,1.);
#760 = DIRECTION('',(0.,0.,1.));
#761 = ORIENTED_EDGE('',*,*,#633,.T.);
#762 = ORIENTED_EDGE('',*,*,#763,.F.);
#763 = EDGE_CURVE('',#764,#626,#766,.T.);
#764 = VERTEX_POINT('',#765);
#765 = CARTESIAN_POINT('',(2.25,3.5,2.));
#766 = LINE('',#767,#768);
#767 = CARTESIAN_POINT('',(2.25,3.5,1.));
#768 = VECTOR('',#769,1.);
#769 = DIRECTION('',(0.,0.,1.));
#770 = ORIENTED_EDGE('',*,*,#771,.T.);
#771 = EDGE_CURVE('',#764,#731,#772,.T.);
#772 = LINE('',#773,#774);
#773 = CARTESIAN_POINT('',(3.95,3.5,2.));
#774 = VECTOR('',#775,1.);
#775 = DIRECTION('',(-1.,0.,0.));
#776 = ORIENTED_EDGE('',*,*,#730,.T.);
#777 = ORIENTED_EDGE('',*,*,#665,.T.);
#778 = ORIENTED_EDGE('',*,*,#779,.F.);
#779 = EDGE_CURVE('',#780,#658,#782,.T.);
#780 = VERTEX_POINT('',#781);
#781 = CARTESIAN_POINT('',(-9.15,3.5,1.));
#782 = LINE('',#783,#784);
#783 = CARTESIAN_POINT('',(-9.15,3.5,0.));
#784 = VECTOR('',#785,1.);
#785 = DIRECTION('',(0.,0.,1.));
#786 = ORIENTED_EDGE('',*,*,#787,.F.);
#787 = EDGE_CURVE('',#755,#780,#788,.T.);
#788 = LINE('',#789,#790);
#789 = CARTESIAN_POINT('',(5.075,3.5,1.));
#790 = VECTOR('',#791,1.);
#791 = DIRECTION('',(-1.,0.,0.));
#792 = PLANE('',#793);
#793 = AXIS2_PLACEMENT_3D('',#794,#795,#796);
#794 = CARTESIAN_POINT('',(10.15,3.5,0.));
#795 = DIRECTION('',(0.,-1.,0.));
#796 = DIRECTION('',(-1.,0.,0.));
#797 = ADVANCED_FACE('',(#798),#816,.T.);
#798 = FACE_BOUND('',#799,.T.);
#799 = EDGE_LOOP('',(#800,#801,#809,#815));
#800 = ORIENTED_EDGE('',*,*,#657,.T.);
#801 = ORIENTED_EDGE('',*,*,#802,.T.);
#802 = EDGE_CURVE('',#650,#803,#805,.T.);
#803 = VERTEX_POINT('',#804);
#804 = CARTESIAN_POINT('',(-9.15,-3.5,1.));
#805 = LINE('',#806,#807);
#806 = CARTESIAN_POINT('',(-9.15,-3.5,0.));
#807 = VECTOR('',#808,1.);
#808 = DIRECTION('',(0.,0.,-1.));
#809 = ORIENTED_EDGE('',*,*,#810,.F.);
#810 = EDGE_CURVE('',#780,#803,#811,.T.);
#811 = LINE('',#812,#813);
#812 = CARTESIAN_POINT('',(-9.15,2.25,1.));
#813 = VECTOR('',#814,1.);
#814 = DIRECTION('',(0.,-1.,0.));
#815 = ORIENTED_EDGE('',*,*,#779,.T.);
#816 = PLANE('',#817);
#817 = AXIS2_PLACEMENT_3D('',#818,#819,#820);
#818 = CARTESIAN_POINT('',(-9.15,4.5,0.));
#819 = DIRECTION('',(1.,0.,0.));
#820 = DIRECTION('',(0.,-1.,0.));
#821 = ADVANCED_FACE('',(#822),#840,.T.);
#822 = FACE_BOUND('',#823,.T.);
#823 = EDGE_LOOP('',(#824,#825,#833,#839));
#824 = ORIENTED_EDGE('',*,*,#649,.T.);
#825 = ORIENTED_EDGE('',*,*,#826,.F.);
#826 = EDGE_CURVE('',#827,#642,#829,.T.);
#827 = VERTEX_POINT('',#828);
#828 = CARTESIAN_POINT('',(9.15,-3.5,1.));
#829 = LINE('',#830,#831);
#830 = CARTESIAN_POINT('',(9.15,-3.5,0.));
#831 = VECTOR('',#832,1.);
#832 = DIRECTION('',(0.,0.,1.));
#833 = ORIENTED_EDGE('',*,*,#834,.F.);
#834 = EDGE_CURVE('',#803,#827,#835,.T.);
#835 = LINE('',#836,#837);
#836 = CARTESIAN_POINT('',(-5.075,-3.5,1.));
#837 = VECTOR('',#838,1.);
#838 = DIRECTION('',(1.,0.,0.));
#839 = ORIENTED_EDGE('',*,*,#802,.F.);
#840 = PLANE('',#841);
#841 = AXIS2_PLACEMENT_3D('',#842,#843,#844);
#842 = CARTESIAN_POINT('',(-10.15,-3.5,0.));
#843 = DIRECTION('',(0.,1.,0.));
#844 = DIRECTION('',(1.,0.,0.));
#845 = ADVANCED_FACE('',(#846),#857,.T.);
#846 = FACE_BOUND('',#847,.T.);
#847 = EDGE_LOOP('',(#848,#849,#850,#856));
#848 = ORIENTED_EDGE('',*,*,#641,.T.);
#849 = ORIENTED_EDGE('',*,*,#754,.F.);
#850 = ORIENTED_EDGE('',*,*,#851,.F.);
#851 = EDGE_CURVE('',#827,#755,#852,.T.);
#852 = LINE('',#853,#854);
#853 = CARTESIAN_POINT('',(9.15,-2.25,1.));
#854 = VECTOR('',#855,1.);
#855 = DIRECTION('',(0.,1.,0.));
#856 = ORIENTED_EDGE('',*,*,#826,.T.);
#857 = PLANE('',#858);
#858 = AXIS2_PLACEMENT_3D('',#859,#860,#861);
#859 = CARTESIAN_POINT('',(9.15,-4.5,0.));
#860 = DIRECTION('',(-1.,0.,0.));
#861 = DIRECTION('',(0.,1.,0.));
#862 = ADVANCED_FACE('',(#863),#874,.F.);
#863 = FACE_BOUND('',#864,.F.);
#864 = EDGE_LOOP('',(#865,#866,#872,#873));
#865 = ORIENTED_EDGE('',*,*,#763,.F.);
#866 = ORIENTED_EDGE('',*,*,#867,.T.);
#867 = EDGE_CURVE('',#764,#699,#868,.T.);
#868 = LINE('',#869,#870);
#869 = CARTESIAN_POINT('',(2.25,0.,2.));
#870 = VECTOR('',#871,1.);
#871 = DIRECTION('',(0.,1.,0.));
#872 = ORIENTED_EDGE('',*,*,#698,.T.);
#873 = ORIENTED_EDGE('',*,*,#625,.F.);
#874 = PLANE('',#875);
#875 = AXIS2_PLACEMENT_3D('',#876,#877,#878);
#876 = CARTESIAN_POINT('',(2.25,0.,2.));
#877 = DIRECTION('',(1.,0.,0.));
#878 = DIRECTION('',(0.,0.,1.));
#879 = ADVANCED_FACE('',(#880),#886,.T.);
#880 = FACE_BOUND('',#881,.T.);
#881 = EDGE_LOOP('',(#882,#883,#884,#885));
#882 = ORIENTED_EDGE('',*,*,#738,.F.);
#883 = ORIENTED_EDGE('',*,*,#771,.F.);
#884 = ORIENTED_EDGE('',*,*,#867,.T.);
#885 = ORIENTED_EDGE('',*,*,#706,.T.);
#886 = PLANE('',#887);
#887 = AXIS2_PLACEMENT_3D('',#888,#889,#890);
#888 = CARTESIAN_POINT('',(-2.25,0.,2.));
#889 = DIRECTION('',(0.,0.,1.));
#890 = DIRECTION('',(1.,0.,0.));
#891 = ADVANCED_FACE('',(#892),#898,.T.);
#892 = FACE_BOUND('',#893,.T.);
#893 = EDGE_LOOP('',(#894,#895,#896,#897));
#894 = ORIENTED_EDGE('',*,*,#834,.T.);
#895 = ORIENTED_EDGE('',*,*,#851,.T.);
#896 = ORIENTED_EDGE('',*,*,#787,.T.);
#897 = ORIENTED_EDGE('',*,*,#810,.T.);
#898 = PLANE('',#899);
#899 = AXIS2_PLACEMENT_3D('',#900,#901,#902);
#900 = CARTESIAN_POINT('',(-4.440892098501E-16,0.,1.));
#901 = DIRECTION('',(0.,0.,1.));
#902 = DIRECTION('',(1.,0.,0.));
#903 = ( GEOMETRIC_REPRESENTATION_CONTEXT(3) 
GLOBAL_UNCERTAINTY_ASSIGNED_CONTEXT((#907)) GLOBAL_UNIT_ASSIGNED_CONTEXT
((#904,#905,#906)) REPRESENTATION_CONTEXT('Context #1',
  '3D Context with UNIT and UNCERTAINTY') );
#904 = ( LENGTH_UNIT() NAMED_UNIT(*) SI_UNIT(.MILLI.,.METRE.) );
#905 = ( NAMED_UNIT(*) PLANE_ANGLE_UNIT() SI_UNIT($,.RADIAN.) );
#906 = ( NAMED_UNIT(*) SI_UNIT($,.STERADIAN.) SOLID_ANGLE_UNIT() );
#907 = UNCERTAINTY_MEASURE_WITH_UNIT(LENGTH_MEASURE(5.E-06),#904,
  'distance_accuracy_value','confusion accuracy');
#908 = CONTEXT_DEPENDENT_SHAPE_REPRESENTATION(#909,#911);
#909 = ( REPRESENTATION_RELATIONSHIP('','',#488,#10) 
REPRESENTATION_RELATIONSHIP_WITH_TRANSFORMATION(#910) 
SHAPE_REPRESENTATION_RELATIONSHIP() );
#910 = ITEM_DEFINED_TRANSFORMATION('','',#11,#19);
#911 = PRODUCT_DEFINITION_SHAPE('Placement','Placement of an item',#912
  );
#912 = NEXT_ASSEMBLY_USAGE_OCCURRENCE('9','Body','',#5,#483,$);
#913 = PRODUCT_RELATED_PRODUCT_CATEGORY('part',$,(#485));
#914 = MECHANICAL_DESIGN_GEOMETRIC_PRESENTATION_REPRESENTATION('',(#915)
  ,#445);
#915 = STYLED_ITEM('color',(#916),#103);
#916 = PRESENTATION_STYLE_ASSIGNMENT((#917,#923));
#917 = SURFACE_STYLE_USAGE(.BOTH.,#918);
#918 = SURFACE_SIDE_STYLE('',(#919));
#919 = SURFACE_STYLE_FILL_AREA(#920);
#920 = FILL_AREA_STYLE('',(#921));
#921 = FILL_AREA_STYLE_COLOUR('',#922);
#922 = COLOUR_RGB('',0.399999997426,0.275999994077,0.);
#923 = CURVE_STYLE('',#924,POSITIVE_LENGTH_MEASURE(0.1),#925);
#924 = DRAUGHTING_PRE_DEFINED_CURVE_FONT('continuous');
#925 = COLOUR_RGB('',9.803921802644E-02,9.803921802644E-02,
  9.803921802644E-02);
#926 = MECHANICAL_DESIGN_GEOMETRIC_PRESENTATION_REPRESENTATION('',(#927)
  ,#903);
#927 = STYLED_ITEM('color',(#928),#489);
#928 = PRESENTATION_STYLE_ASSIGNMENT((#929,#935));
#929 = SURFACE_STYLE_USAGE(.BOTH.,#930);
#930 = SURFACE_SIDE_STYLE('',(#931));
#931 = SURFACE_STYLE_FILL_AREA(#932);
#932 = FILL_AREA_STYLE('',(#933));
#933 = FILL_AREA_STYLE_COLOUR('',#934);
#934 = DRAUGHTING_PRE_DEFINED_COLOUR('black');
#935 = CURVE_STYLE('',#936,POSITIVE_LENGTH_MEASURE(0.1),#925);
#936 = DRAUGHTING_PRE_DEFINED_CURVE_FONT('continuous');
ENDSEC;
END-ISO-10303-21;
