%TF.GenerationSoftware,KiCad,Pcbnew,10.0.6*%
%TF.CreationDate,2026-09-30T20:24:37+02:00*%
%TF.ProjectId,conductor_controls,636f6e64-7563-4746-9f72-5f636f6e7472,rev?*%
%TF.SameCoordinates,Original*%
%TF.FileFunction,Copper,L2,Bot*%
%TF.FilePolarity,Positive*%
%FSLAX46Y46*%
G04 Gerber Fmt 4.6, Leading zero omitted, Abs format (unit mm)*
G04 Created by KiCad (PCBNEW 10.0.6) date 2026-09-30 20:24:37*
%MOMM*%
%LPD*%
G01*
G04 APERTURE LIST*
G04 Aperture macros list*
%AMRoundRect*
0 Rectangle with rounded corners*
0 $1 Rounding radius*
0 $2 $3 $4 $5 $6 $7 $8 $9 X,Y pos of 4 corners*
0 Add a 4 corners polygon primitive as box body*
4,1,4,$2,$3,$4,$5,$6,$7,$8,$9,$2,$3,0*
0 Add four circle primitives for the rounded corners*
1,1,$1+$1,$2,$3*
1,1,$1+$1,$4,$5*
1,1,$1+$1,$6,$7*
1,1,$1+$1,$8,$9*
0 Add four rect primitives between the rounded corners*
20,1,$1+$1,$2,$3,$4,$5,0*
20,1,$1+$1,$4,$5,$6,$7,0*
20,1,$1+$1,$6,$7,$8,$9,0*
20,1,$1+$1,$8,$9,$2,$3,0*%
G04 Aperture macros list end*
%TA.AperFunction,ComponentPad*%
%ADD10R,1.700000X1.700000*%
%TD*%
%TA.AperFunction,ComponentPad*%
%ADD11C,1.700000*%
%TD*%
%TA.AperFunction,ComponentPad*%
%ADD12RoundRect,0.750000X0.000010X-1.000000X0.000010X1.000000X-0.000010X1.000000X-0.000010X-1.000000X0*%
%TD*%
%TA.AperFunction,ComponentPad*%
%ADD13RoundRect,0.750000X1.000000X0.000010X-1.000000X0.000010X-1.000000X-0.000010X1.000000X-0.000010X0*%
%TD*%
%TA.AperFunction,ComponentPad*%
%ADD14RoundRect,0.750000X-0.000010X0.750000X-0.000010X-0.750000X0.000010X-0.750000X0.000010X0.750000X0*%
%TD*%
%TA.AperFunction,ViaPad*%
%ADD15C,0.600000*%
%TD*%
%TA.AperFunction,Conductor*%
%ADD16C,0.200000*%
%TD*%
G04 APERTURE END LIST*
D10*
%TO.P,J9,1,Pin_1_1*%
%TO.N,GND*%
X2750000Y-97250000D03*
D11*
%TO.P,J9,2,Pin_2_2*%
X5290000Y-97250000D03*
%TO.P,J9,3,Pin_3_3*%
X7830000Y-97250000D03*
%TO.P,J9,4,Pin_4_4*%
X10370000Y-97250000D03*
%TD*%
D10*
%TO.P,J4,1,Pin_1_1*%
%TO.N,+3.3V*%
X5250000Y-56000000D03*
D11*
%TO.P,J4,2,Pin_2_2*%
%TO.N,GND*%
X7790000Y-56000000D03*
%TO.P,J4,3,Pin_3_3*%
%TO.N,RUN*%
X10330000Y-56000000D03*
%TO.P,J4,4,Pin_4_4*%
%TO.N,RESET*%
X12870000Y-56000000D03*
%TO.P,J4,5,Pin_5_5*%
%TO.N,CLOCK*%
X15410000Y-56000000D03*
%TO.P,J4,6,Pin_6_6*%
%TO.N,MIDI_1*%
X17950000Y-56000000D03*
%TO.P,J4,7,Pin_7_7*%
%TO.N,MIDI_2*%
X20490000Y-56000000D03*
%TO.P,J4,8,Pin_8_8*%
%TO.N,MIDI_3*%
X23030000Y-56000000D03*
%TD*%
D12*
%TO.P,J1,R,R_R*%
%TO.N,Net-(J1-PadR)*%
X5000000Y-10000000D03*
D13*
%TO.P,J1,S,S_S*%
%TO.N,unconnected-(J1-PadS)*%
X7500000Y-7300000D03*
D12*
%TO.P,J1,T,T_T*%
%TO.N,Net-(IC1-Pad2)*%
X10000000Y-10000000D03*
%TD*%
D14*
%TO.P,J7,S,S_S*%
%TO.N,GND*%
X19600000Y-90000000D03*
%TO.P,J7,T,T_T*%
%TO.N,Net-(J7-PadT)*%
X8600000Y-90000000D03*
%TO.P,J7,TN,TN_TN*%
%TO.N,unconnected-(J7-PadTN)*%
X17100000Y-90000000D03*
%TD*%
%TO.P,J5,S,S_S*%
%TO.N,GND*%
X19600000Y-68000000D03*
%TO.P,J5,T,T_T*%
%TO.N,Net-(J5-PadT)*%
X8600000Y-68000000D03*
%TO.P,J5,TN,TN_TN*%
%TO.N,unconnected-(J5-PadTN)*%
X17100000Y-68000000D03*
%TD*%
D12*
%TO.P,J3,R,R_R*%
%TO.N,Net-(J3-PadR)*%
X5000000Y-44000000D03*
D13*
%TO.P,J3,S,S_S*%
%TO.N,unconnected-(J3-PadS)*%
X7500000Y-41300000D03*
D12*
%TO.P,J3,T,T_T*%
%TO.N,Net-(IC3-Pad2)*%
X10000000Y-44000000D03*
%TD*%
%TO.P,J2,R,R_R*%
%TO.N,Net-(J2-PadR)*%
X16000000Y-27000000D03*
D13*
%TO.P,J2,S,S_S*%
%TO.N,unconnected-(J2-PadS)*%
X18500000Y-24300000D03*
D12*
%TO.P,J2,T,T_T*%
%TO.N,Net-(IC2-Pad2)*%
X21000000Y-27000000D03*
%TD*%
D14*
%TO.P,J6,S,S_S*%
%TO.N,GND*%
X19600000Y-79000000D03*
%TO.P,J6,T,T_T*%
%TO.N,Net-(J6-PadT)*%
X8600000Y-79000000D03*
%TO.P,J6,TN,TN_TN*%
%TO.N,unconnected-(J6-PadTN)*%
X17100000Y-79000000D03*
%TD*%
D15*
%TO.N,GND*%
X24484000Y-14000000D03*
X24484000Y-48000000D03*
X19984000Y-37500000D03*
X12484000Y-31000000D03*
X19984000Y-3500000D03*
X7984000Y-20500000D03*
%TO.N,MIDI_2*%
X12984000Y-30000000D03*
X13500000Y-33750000D03*
%TD*%
%TO.N,MIDI_2*%
D16*
X13500000Y-33750000D02*
X13484000Y-33734000D01*
X13484000Y-33734000D02*
X13484000Y-30500000D01*
X13484000Y-30500000D02*
X12984000Y-30000000D01*
%TD*%
%TA.AperFunction,Conductor*%
%TO.N,GND*%
G36*
X25442539Y-520185D02*
G01*
X25488294Y-572989D01*
X25499500Y-624500D01*
X25499500Y-99375500D01*
X25479815Y-99442539D01*
X25427011Y-99488294D01*
X25375500Y-99499500D01*
X624500Y-99499500D01*
X557461Y-99479815D01*
X511706Y-99427011D01*
X500500Y-99375500D01*
X500500Y-96352155D01*
X1400000Y-96352155D01*
X1400000Y-97000000D01*
X2316988Y-97000000D01*
X2284075Y-97057007D01*
X2250000Y-97184174D01*
X2250000Y-97315826D01*
X2284075Y-97442993D01*
X2316988Y-97500000D01*
X1400000Y-97500000D01*
X1400000Y-98147844D01*
X1406401Y-98207372D01*
X1406403Y-98207379D01*
X1456645Y-98342086D01*
X1456649Y-98342093D01*
X1542809Y-98457187D01*
X1542812Y-98457190D01*
X1657906Y-98543350D01*
X1657913Y-98543354D01*
X1792620Y-98593596D01*
X1792627Y-98593598D01*
X1852155Y-98599999D01*
X1852172Y-98600000D01*
X2500000Y-98600000D01*
X2500000Y-97683012D01*
X2557007Y-97715925D01*
X2684174Y-97750000D01*
X2815826Y-97750000D01*
X2942993Y-97715925D01*
X3000000Y-97683012D01*
X3000000Y-98600000D01*
X3647828Y-98600000D01*
X3647844Y-98599999D01*
X3707372Y-98593598D01*
X3707379Y-98593596D01*
X3842086Y-98543354D01*
X3842093Y-98543350D01*
X3957187Y-98457190D01*
X3957190Y-98457187D01*
X4043350Y-98342093D01*
X4043354Y-98342086D01*
X4065529Y-98282632D01*
X4104319Y-98109390D01*
X4104682Y-98108734D01*
X4104642Y-98107984D01*
X4137642Y-98048802D01*
X4807037Y-97379408D01*
X4824075Y-97442993D01*
X4889901Y-97557007D01*
X4982993Y-97650099D01*
X5097007Y-97715925D01*
X5160590Y-97732962D01*
X4528282Y-98365269D01*
X4528282Y-98365270D01*
X4582449Y-98404624D01*
X4771782Y-98501095D01*
X4973870Y-98566757D01*
X5183754Y-98600000D01*
X5396246Y-98600000D01*
X5606127Y-98566757D01*
X5606130Y-98566757D01*
X5808217Y-98501095D01*
X5997554Y-98404622D01*
X6051716Y-98365270D01*
X6051717Y-98365270D01*
X5419408Y-97732962D01*
X5482993Y-97715925D01*
X5597007Y-97650099D01*
X5690099Y-97557007D01*
X5755925Y-97442993D01*
X5772962Y-97379408D01*
X6405270Y-98011717D01*
X6405270Y-98011716D01*
X6444622Y-97957554D01*
X6449514Y-97947954D01*
X6497488Y-97897157D01*
X6565308Y-97880361D01*
X6631444Y-97902897D01*
X6670486Y-97947954D01*
X6675375Y-97957550D01*
X6714728Y-98011716D01*
X7347037Y-97379408D01*
X7364075Y-97442993D01*
X7429901Y-97557007D01*
X7522993Y-97650099D01*
X7637007Y-97715925D01*
X7700590Y-97732962D01*
X7068282Y-98365269D01*
X7068282Y-98365270D01*
X7122449Y-98404624D01*
X7311782Y-98501095D01*
X7513870Y-98566757D01*
X7723754Y-98600000D01*
X7936246Y-98600000D01*
X8146127Y-98566757D01*
X8146130Y-98566757D01*
X8348217Y-98501095D01*
X8537554Y-98404622D01*
X8591716Y-98365270D01*
X8591717Y-98365270D01*
X7959408Y-97732962D01*
X8022993Y-97715925D01*
X8137007Y-97650099D01*
X8230099Y-97557007D01*
X8295925Y-97442993D01*
X8312962Y-97379408D01*
X8945270Y-98011717D01*
X8945270Y-98011716D01*
X8984622Y-97957554D01*
X8989514Y-97947954D01*
X9037488Y-97897157D01*
X9105308Y-97880361D01*
X9171444Y-97902897D01*
X9210486Y-97947954D01*
X9215375Y-97957550D01*
X9254728Y-98011716D01*
X9887037Y-97379408D01*
X9904075Y-97442993D01*
X9969901Y-97557007D01*
X10062993Y-97650099D01*
X10177007Y-97715925D01*
X10240590Y-97732962D01*
X9608282Y-98365269D01*
X9608282Y-98365270D01*
X9662449Y-98404624D01*
X9851782Y-98501095D01*
X10053870Y-98566757D01*
X10263754Y-98600000D01*
X10476246Y-98600000D01*
X10686127Y-98566757D01*
X10686130Y-98566757D01*
X10888217Y-98501095D01*
X11077554Y-98404622D01*
X11131716Y-98365270D01*
X11131717Y-98365270D01*
X10499408Y-97732962D01*
X10562993Y-97715925D01*
X10677007Y-97650099D01*
X10770099Y-97557007D01*
X10835925Y-97442993D01*
X10852962Y-97379408D01*
X11485270Y-98011717D01*
X11485270Y-98011716D01*
X11524622Y-97957554D01*
X11621095Y-97768217D01*
X11686757Y-97566130D01*
X11686757Y-97566127D01*
X11720000Y-97356246D01*
X11720000Y-97143753D01*
X11686757Y-96933872D01*
X11686757Y-96933869D01*
X11621095Y-96731782D01*
X11524624Y-96542449D01*
X11485270Y-96488282D01*
X11485269Y-96488282D01*
X10852962Y-97120590D01*
X10835925Y-97057007D01*
X10770099Y-96942993D01*
X10677007Y-96849901D01*
X10562993Y-96784075D01*
X10499409Y-96767037D01*
X11131716Y-96134728D01*
X11077550Y-96095375D01*
X10888217Y-95998904D01*
X10686129Y-95933242D01*
X10476246Y-95900000D01*
X10263754Y-95900000D01*
X10053872Y-95933242D01*
X10053869Y-95933242D01*
X9851782Y-95998904D01*
X9662439Y-96095380D01*
X9608282Y-96134727D01*
X9608282Y-96134728D01*
X10240591Y-96767037D01*
X10177007Y-96784075D01*
X10062993Y-96849901D01*
X9969901Y-96942993D01*
X9904075Y-97057007D01*
X9887037Y-97120591D01*
X9254728Y-96488282D01*
X9254727Y-96488282D01*
X9215380Y-96542440D01*
X9210483Y-96552051D01*
X9162506Y-96602845D01*
X9094684Y-96619638D01*
X9028550Y-96597098D01*
X8989516Y-96552048D01*
X8984626Y-96542452D01*
X8945270Y-96488282D01*
X8945269Y-96488282D01*
X8312962Y-97120590D01*
X8295925Y-97057007D01*
X8230099Y-96942993D01*
X8137007Y-96849901D01*
X8022993Y-96784075D01*
X7959409Y-96767037D01*
X8591716Y-96134728D01*
X8537550Y-96095375D01*
X8348217Y-95998904D01*
X8146129Y-95933242D01*
X7936246Y-95900000D01*
X7723754Y-95900000D01*
X7513872Y-95933242D01*
X7513869Y-95933242D01*
X7311782Y-95998904D01*
X7122439Y-96095380D01*
X7068282Y-96134727D01*
X7068282Y-96134728D01*
X7700591Y-96767037D01*
X7637007Y-96784075D01*
X7522993Y-96849901D01*
X7429901Y-96942993D01*
X7364075Y-97057007D01*
X7347037Y-97120591D01*
X6714728Y-96488282D01*
X6714727Y-96488282D01*
X6675380Y-96542440D01*
X6670483Y-96552051D01*
X6622506Y-96602845D01*
X6554684Y-96619638D01*
X6488550Y-96597098D01*
X6449516Y-96552048D01*
X6444626Y-96542452D01*
X6405270Y-96488282D01*
X6405269Y-96488282D01*
X5772962Y-97120590D01*
X5755925Y-97057007D01*
X5690099Y-96942993D01*
X5597007Y-96849901D01*
X5482993Y-96784075D01*
X5419409Y-96767037D01*
X6051716Y-96134728D01*
X5997550Y-96095375D01*
X5808217Y-95998904D01*
X5606129Y-95933242D01*
X5396246Y-95900000D01*
X5183754Y-95900000D01*
X4973872Y-95933242D01*
X4973869Y-95933242D01*
X4771782Y-95998904D01*
X4582439Y-96095380D01*
X4528282Y-96134727D01*
X4528282Y-96134728D01*
X5160591Y-96767037D01*
X5097007Y-96784075D01*
X4982993Y-96849901D01*
X4889901Y-96942993D01*
X4824075Y-97057007D01*
X4807037Y-97120591D01*
X4137642Y-96451196D01*
X4104319Y-96390609D01*
X4065527Y-96217364D01*
X4043354Y-96157913D01*
X4043350Y-96157906D01*
X3957190Y-96042812D01*
X3957187Y-96042809D01*
X3842093Y-95956649D01*
X3842086Y-95956645D01*
X3707379Y-95906403D01*
X3707372Y-95906401D01*
X3647844Y-95900000D01*
X3000000Y-95900000D01*
X3000000Y-96816988D01*
X2942993Y-96784075D01*
X2815826Y-96750000D01*
X2684174Y-96750000D01*
X2557007Y-96784075D01*
X2500000Y-96816988D01*
X2500000Y-95900000D01*
X1852155Y-95900000D01*
X1792627Y-95906401D01*
X1792620Y-95906403D01*
X1657913Y-95956645D01*
X1657906Y-95956649D01*
X1542812Y-96042809D01*
X1542809Y-96042812D01*
X1456649Y-96157906D01*
X1456645Y-96157913D01*
X1406403Y-96292620D01*
X1406401Y-96292627D01*
X1400000Y-96352155D01*
X500500Y-96352155D01*
X500500Y-89185777D01*
X7349500Y-89185777D01*
X7349500Y-90814208D01*
X7349501Y-90814223D01*
X7359904Y-90946413D01*
X7359905Y-90946420D01*
X7414902Y-91164678D01*
X7414903Y-91164681D01*
X7507878Y-91369374D01*
X7507993Y-91369626D01*
X7507995Y-91369630D01*
X7507997Y-91369632D01*
X7636174Y-91554645D01*
X7636178Y-91554650D01*
X7636181Y-91554654D01*
X7795346Y-91713819D01*
X7795350Y-91713822D01*
X7795354Y-91713825D01*
X7934603Y-91810297D01*
X7980374Y-91842007D01*
X8185317Y-91935096D01*
X8185321Y-91935097D01*
X8403579Y-91990094D01*
X8403581Y-91990094D01*
X8403588Y-91990096D01*
X8535783Y-92000500D01*
X8664216Y-92000499D01*
X8796412Y-91990096D01*
X9014683Y-91935096D01*
X9219626Y-91842007D01*
X9404654Y-91713819D01*
X9563819Y-91554654D01*
X9692007Y-91369626D01*
X9785096Y-91164683D01*
X9840096Y-90946412D01*
X9850500Y-90814217D01*
X9850499Y-89185784D01*
X9850498Y-89185777D01*
X15849500Y-89185777D01*
X15849500Y-90814208D01*
X15849501Y-90814223D01*
X15859904Y-90946413D01*
X15859905Y-90946420D01*
X15914902Y-91164678D01*
X15914903Y-91164681D01*
X16007878Y-91369374D01*
X16007993Y-91369626D01*
X16007995Y-91369630D01*
X16007997Y-91369632D01*
X16136174Y-91554645D01*
X16136178Y-91554650D01*
X16136181Y-91554654D01*
X16295346Y-91713819D01*
X16295350Y-91713822D01*
X16295354Y-91713825D01*
X16434603Y-91810297D01*
X16480374Y-91842007D01*
X16685317Y-91935096D01*
X16685321Y-91935097D01*
X16903579Y-91990094D01*
X16903581Y-91990094D01*
X16903588Y-91990096D01*
X17035783Y-92000500D01*
X17164216Y-92000499D01*
X17296412Y-91990096D01*
X17514683Y-91935096D01*
X17719626Y-91842007D01*
X17904654Y-91713819D01*
X18063819Y-91554654D01*
X18192007Y-91369626D01*
X18237376Y-91269740D01*
X18283021Y-91216846D01*
X18350020Y-91197024D01*
X18417100Y-91216572D01*
X18462963Y-91269282D01*
X18463173Y-91269742D01*
X18508430Y-91369378D01*
X18508431Y-91369380D01*
X18636559Y-91554323D01*
X18636569Y-91554335D01*
X18795664Y-91713430D01*
X18795676Y-91713440D01*
X18980619Y-91841568D01*
X18980625Y-91841571D01*
X19185480Y-91934622D01*
X19350000Y-91976076D01*
X19350000Y-90799728D01*
X19388060Y-90891614D01*
X19458386Y-90961940D01*
X19550272Y-91000000D01*
X19649728Y-91000000D01*
X19741614Y-90961940D01*
X19811940Y-90891614D01*
X19850000Y-90799728D01*
X19850000Y-91976075D01*
X20014519Y-91934622D01*
X20219374Y-91841571D01*
X20219380Y-91841568D01*
X20404323Y-91713440D01*
X20404335Y-91713430D01*
X20563430Y-91554335D01*
X20563440Y-91554323D01*
X20691568Y-91369380D01*
X20691571Y-91369374D01*
X20784622Y-91164519D01*
X20839599Y-90946332D01*
X20849999Y-90814196D01*
X20850000Y-90814184D01*
X20850000Y-90250000D01*
X19850000Y-90250000D01*
X19850000Y-89750000D01*
X20849999Y-89750000D01*
X20849999Y-89185817D01*
X20849998Y-89185802D01*
X20839599Y-89053667D01*
X20784622Y-88835480D01*
X20691571Y-88630625D01*
X20691568Y-88630619D01*
X20563440Y-88445676D01*
X20563430Y-88445664D01*
X20404335Y-88286569D01*
X20404323Y-88286559D01*
X20219380Y-88158431D01*
X20219374Y-88158428D01*
X20014517Y-88065377D01*
X19850000Y-88023922D01*
X19850000Y-89200272D01*
X19811940Y-89108386D01*
X19741614Y-89038060D01*
X19649728Y-89000000D01*
X19550272Y-89000000D01*
X19458386Y-89038060D01*
X19388060Y-89108386D01*
X19350000Y-89200272D01*
X19350000Y-88023922D01*
X19185482Y-88065377D01*
X18980625Y-88158428D01*
X18980619Y-88158431D01*
X18795676Y-88286559D01*
X18795664Y-88286569D01*
X18636569Y-88445664D01*
X18636559Y-88445676D01*
X18508431Y-88630619D01*
X18508430Y-88630621D01*
X18463173Y-88730257D01*
X18417526Y-88783154D01*
X18350526Y-88802975D01*
X18283447Y-88783427D01*
X18237585Y-88730716D01*
X18237434Y-88730386D01*
X18192007Y-88630374D01*
X18064048Y-88445676D01*
X18063825Y-88445354D01*
X18063822Y-88445350D01*
X18063819Y-88445346D01*
X17904654Y-88286181D01*
X17904650Y-88286178D01*
X17904645Y-88286174D01*
X17719632Y-88157997D01*
X17719630Y-88157995D01*
X17719626Y-88157993D01*
X17515724Y-88065377D01*
X17514681Y-88064903D01*
X17514678Y-88064902D01*
X17296420Y-88009905D01*
X17296413Y-88009904D01*
X17230314Y-88004702D01*
X17164217Y-87999500D01*
X17164216Y-87999500D01*
X17035792Y-87999500D01*
X17035775Y-87999501D01*
X16903586Y-88009904D01*
X16903579Y-88009905D01*
X16685321Y-88064902D01*
X16685318Y-88064903D01*
X16480377Y-88157991D01*
X16480367Y-88157997D01*
X16295354Y-88286174D01*
X16295342Y-88286184D01*
X16136184Y-88445342D01*
X16136174Y-88445354D01*
X16007997Y-88630367D01*
X16007991Y-88630377D01*
X15914903Y-88835318D01*
X15914902Y-88835321D01*
X15859905Y-89053579D01*
X15859904Y-89053586D01*
X15849500Y-89185777D01*
X9850498Y-89185777D01*
X9840096Y-89053588D01*
X9785096Y-88835317D01*
X9692007Y-88630374D01*
X9564048Y-88445676D01*
X9563825Y-88445354D01*
X9563822Y-88445350D01*
X9563819Y-88445346D01*
X9404654Y-88286181D01*
X9404650Y-88286178D01*
X9404645Y-88286174D01*
X9219632Y-88157997D01*
X9219630Y-88157995D01*
X9219626Y-88157993D01*
X9015724Y-88065377D01*
X9014681Y-88064903D01*
X9014678Y-88064902D01*
X8796420Y-88009905D01*
X8796413Y-88009904D01*
X8730314Y-88004702D01*
X8664217Y-87999500D01*
X8664216Y-87999500D01*
X8535792Y-87999500D01*
X8535775Y-87999501D01*
X8403586Y-88009904D01*
X8403579Y-88009905D01*
X8185321Y-88064902D01*
X8185318Y-88064903D01*
X7980377Y-88157991D01*
X7980367Y-88157997D01*
X7795354Y-88286174D01*
X7795342Y-88286184D01*
X7636184Y-88445342D01*
X7636174Y-88445354D01*
X7507997Y-88630367D01*
X7507991Y-88630377D01*
X7414903Y-88835318D01*
X7414902Y-88835321D01*
X7359905Y-89053579D01*
X7359904Y-89053586D01*
X7349500Y-89185777D01*
X500500Y-89185777D01*
X500500Y-78185777D01*
X7349500Y-78185777D01*
X7349500Y-79814208D01*
X7349501Y-79814223D01*
X7359904Y-79946413D01*
X7359905Y-79946420D01*
X7414902Y-80164678D01*
X7414903Y-80164681D01*
X7507878Y-80369374D01*
X7507993Y-80369626D01*
X7507995Y-80369630D01*
X7507997Y-80369632D01*
X7636174Y-80554645D01*
X7636178Y-80554650D01*
X7636181Y-80554654D01*
X7795346Y-80713819D01*
X7795350Y-80713822D01*
X7795354Y-80713825D01*
X7934603Y-80810297D01*
X7980374Y-80842007D01*
X8185317Y-80935096D01*
X8185321Y-80935097D01*
X8403579Y-80990094D01*
X8403581Y-80990094D01*
X8403588Y-80990096D01*
X8535783Y-81000500D01*
X8664216Y-81000499D01*
X8796412Y-80990096D01*
X9014683Y-80935096D01*
X9219626Y-80842007D01*
X9404654Y-80713819D01*
X9563819Y-80554654D01*
X9692007Y-80369626D01*
X9785096Y-80164683D01*
X9840096Y-79946412D01*
X9850500Y-79814217D01*
X9850499Y-78185784D01*
X9850498Y-78185777D01*
X15849500Y-78185777D01*
X15849500Y-79814208D01*
X15849501Y-79814223D01*
X15859904Y-79946413D01*
X15859905Y-79946420D01*
X15914902Y-80164678D01*
X15914903Y-80164681D01*
X16007878Y-80369374D01*
X16007993Y-80369626D01*
X16007995Y-80369630D01*
X16007997Y-80369632D01*
X16136174Y-80554645D01*
X16136178Y-80554650D01*
X16136181Y-80554654D01*
X16295346Y-80713819D01*
X16295350Y-80713822D01*
X16295354Y-80713825D01*
X16434603Y-80810297D01*
X16480374Y-80842007D01*
X16685317Y-80935096D01*
X16685321Y-80935097D01*
X16903579Y-80990094D01*
X16903581Y-80990094D01*
X16903588Y-80990096D01*
X17035783Y-81000500D01*
X17164216Y-81000499D01*
X17296412Y-80990096D01*
X17514683Y-80935096D01*
X17719626Y-80842007D01*
X17904654Y-80713819D01*
X18063819Y-80554654D01*
X18192007Y-80369626D01*
X18237376Y-80269740D01*
X18283021Y-80216846D01*
X18350020Y-80197024D01*
X18417100Y-80216572D01*
X18462963Y-80269282D01*
X18463173Y-80269742D01*
X18508430Y-80369378D01*
X18508431Y-80369380D01*
X18636559Y-80554323D01*
X18636569Y-80554335D01*
X18795664Y-80713430D01*
X18795676Y-80713440D01*
X18980619Y-80841568D01*
X18980625Y-80841571D01*
X19185480Y-80934622D01*
X19350000Y-80976076D01*
X19350000Y-79799728D01*
X19388060Y-79891614D01*
X19458386Y-79961940D01*
X19550272Y-80000000D01*
X19649728Y-80000000D01*
X19741614Y-79961940D01*
X19811940Y-79891614D01*
X19850000Y-79799728D01*
X19850000Y-80976075D01*
X20014519Y-80934622D01*
X20219374Y-80841571D01*
X20219380Y-80841568D01*
X20404323Y-80713440D01*
X20404335Y-80713430D01*
X20563430Y-80554335D01*
X20563440Y-80554323D01*
X20691568Y-80369380D01*
X20691571Y-80369374D01*
X20784622Y-80164519D01*
X20839599Y-79946332D01*
X20849999Y-79814196D01*
X20850000Y-79814184D01*
X20850000Y-79250000D01*
X19850000Y-79250000D01*
X19850000Y-78750000D01*
X20849999Y-78750000D01*
X20849999Y-78185817D01*
X20849998Y-78185802D01*
X20839599Y-78053667D01*
X20784622Y-77835480D01*
X20691571Y-77630625D01*
X20691568Y-77630619D01*
X20563440Y-77445676D01*
X20563430Y-77445664D01*
X20404335Y-77286569D01*
X20404323Y-77286559D01*
X20219380Y-77158431D01*
X20219374Y-77158428D01*
X20014517Y-77065377D01*
X19850000Y-77023922D01*
X19850000Y-78200272D01*
X19811940Y-78108386D01*
X19741614Y-78038060D01*
X19649728Y-78000000D01*
X19550272Y-78000000D01*
X19458386Y-78038060D01*
X19388060Y-78108386D01*
X19350000Y-78200272D01*
X19350000Y-77023922D01*
X19185482Y-77065377D01*
X18980625Y-77158428D01*
X18980619Y-77158431D01*
X18795676Y-77286559D01*
X18795664Y-77286569D01*
X18636569Y-77445664D01*
X18636559Y-77445676D01*
X18508431Y-77630619D01*
X18508430Y-77630621D01*
X18463173Y-77730257D01*
X18417526Y-77783154D01*
X18350526Y-77802975D01*
X18283447Y-77783427D01*
X18237585Y-77730716D01*
X18237434Y-77730386D01*
X18192007Y-77630374D01*
X18064048Y-77445676D01*
X18063825Y-77445354D01*
X18063822Y-77445350D01*
X18063819Y-77445346D01*
X17904654Y-77286181D01*
X17904650Y-77286178D01*
X17904645Y-77286174D01*
X17719632Y-77157997D01*
X17719630Y-77157995D01*
X17719626Y-77157993D01*
X17515724Y-77065377D01*
X17514681Y-77064903D01*
X17514678Y-77064902D01*
X17296420Y-77009905D01*
X17296413Y-77009904D01*
X17230314Y-77004702D01*
X17164217Y-76999500D01*
X17164216Y-76999500D01*
X17035792Y-76999500D01*
X17035775Y-76999501D01*
X16903586Y-77009904D01*
X16903579Y-77009905D01*
X16685321Y-77064902D01*
X16685318Y-77064903D01*
X16480377Y-77157991D01*
X16480367Y-77157997D01*
X16295354Y-77286174D01*
X16295342Y-77286184D01*
X16136184Y-77445342D01*
X16136174Y-77445354D01*
X16007997Y-77630367D01*
X16007991Y-77630377D01*
X15914903Y-77835318D01*
X15914902Y-77835321D01*
X15859905Y-78053579D01*
X15859904Y-78053586D01*
X15849500Y-78185777D01*
X9850498Y-78185777D01*
X9840096Y-78053588D01*
X9785096Y-77835317D01*
X9692007Y-77630374D01*
X9564048Y-77445676D01*
X9563825Y-77445354D01*
X9563822Y-77445350D01*
X9563819Y-77445346D01*
X9404654Y-77286181D01*
X9404650Y-77286178D01*
X9404645Y-77286174D01*
X9219632Y-77157997D01*
X9219630Y-77157995D01*
X9219626Y-77157993D01*
X9015724Y-77065377D01*
X9014681Y-77064903D01*
X9014678Y-77064902D01*
X8796420Y-77009905D01*
X8796413Y-77009904D01*
X8730314Y-77004702D01*
X8664217Y-76999500D01*
X8664216Y-76999500D01*
X8535792Y-76999500D01*
X8535775Y-76999501D01*
X8403586Y-77009904D01*
X8403579Y-77009905D01*
X8185321Y-77064902D01*
X8185318Y-77064903D01*
X7980377Y-77157991D01*
X7980367Y-77157997D01*
X7795354Y-77286174D01*
X7795342Y-77286184D01*
X7636184Y-77445342D01*
X7636174Y-77445354D01*
X7507997Y-77630367D01*
X7507991Y-77630377D01*
X7414903Y-77835318D01*
X7414902Y-77835321D01*
X7359905Y-78053579D01*
X7359904Y-78053586D01*
X7349500Y-78185777D01*
X500500Y-78185777D01*
X500500Y-67185777D01*
X7349500Y-67185777D01*
X7349500Y-68814208D01*
X7349501Y-68814223D01*
X7359904Y-68946413D01*
X7359905Y-68946420D01*
X7414902Y-69164678D01*
X7414903Y-69164681D01*
X7507878Y-69369374D01*
X7507993Y-69369626D01*
X7507995Y-69369630D01*
X7507997Y-69369632D01*
X7636174Y-69554645D01*
X7636178Y-69554650D01*
X7636181Y-69554654D01*
X7795346Y-69713819D01*
X7795350Y-69713822D01*
X7795354Y-69713825D01*
X7934603Y-69810297D01*
X7980374Y-69842007D01*
X8185317Y-69935096D01*
X8185321Y-69935097D01*
X8403579Y-69990094D01*
X8403581Y-69990094D01*
X8403588Y-69990096D01*
X8535783Y-70000500D01*
X8664216Y-70000499D01*
X8796412Y-69990096D01*
X9014683Y-69935096D01*
X9219626Y-69842007D01*
X9404654Y-69713819D01*
X9563819Y-69554654D01*
X9692007Y-69369626D01*
X9785096Y-69164683D01*
X9840096Y-68946412D01*
X9850500Y-68814217D01*
X9850499Y-67185784D01*
X9850498Y-67185777D01*
X15849500Y-67185777D01*
X15849500Y-68814208D01*
X15849501Y-68814223D01*
X15859904Y-68946413D01*
X15859905Y-68946420D01*
X15914902Y-69164678D01*
X15914903Y-69164681D01*
X16007878Y-69369374D01*
X16007993Y-69369626D01*
X16007995Y-69369630D01*
X16007997Y-69369632D01*
X16136174Y-69554645D01*
X16136178Y-69554650D01*
X16136181Y-69554654D01*
X16295346Y-69713819D01*
X16295350Y-69713822D01*
X16295354Y-69713825D01*
X16434603Y-69810297D01*
X16480374Y-69842007D01*
X16685317Y-69935096D01*
X16685321Y-69935097D01*
X16903579Y-69990094D01*
X16903581Y-69990094D01*
X16903588Y-69990096D01*
X17035783Y-70000500D01*
X17164216Y-70000499D01*
X17296412Y-69990096D01*
X17514683Y-69935096D01*
X17719626Y-69842007D01*
X17904654Y-69713819D01*
X18063819Y-69554654D01*
X18192007Y-69369626D01*
X18237376Y-69269740D01*
X18283021Y-69216846D01*
X18350020Y-69197024D01*
X18417100Y-69216572D01*
X18462963Y-69269282D01*
X18463173Y-69269742D01*
X18508430Y-69369378D01*
X18508431Y-69369380D01*
X18636559Y-69554323D01*
X18636569Y-69554335D01*
X18795664Y-69713430D01*
X18795676Y-69713440D01*
X18980619Y-69841568D01*
X18980625Y-69841571D01*
X19185480Y-69934622D01*
X19350000Y-69976076D01*
X19350000Y-68799728D01*
X19388060Y-68891614D01*
X19458386Y-68961940D01*
X19550272Y-69000000D01*
X19649728Y-69000000D01*
X19741614Y-68961940D01*
X19811940Y-68891614D01*
X19850000Y-68799728D01*
X19850000Y-69976075D01*
X20014519Y-69934622D01*
X20219374Y-69841571D01*
X20219380Y-69841568D01*
X20404323Y-69713440D01*
X20404335Y-69713430D01*
X20563430Y-69554335D01*
X20563440Y-69554323D01*
X20691568Y-69369380D01*
X20691571Y-69369374D01*
X20784622Y-69164519D01*
X20839599Y-68946332D01*
X20849999Y-68814196D01*
X20850000Y-68814184D01*
X20850000Y-68250000D01*
X19850000Y-68250000D01*
X19850000Y-67750000D01*
X20849999Y-67750000D01*
X20849999Y-67185817D01*
X20849998Y-67185802D01*
X20839599Y-67053667D01*
X20784622Y-66835480D01*
X20691571Y-66630625D01*
X20691568Y-66630619D01*
X20563440Y-66445676D01*
X20563430Y-66445664D01*
X20404335Y-66286569D01*
X20404323Y-66286559D01*
X20219380Y-66158431D01*
X20219374Y-66158428D01*
X20014517Y-66065377D01*
X19850000Y-66023922D01*
X19850000Y-67200272D01*
X19811940Y-67108386D01*
X19741614Y-67038060D01*
X19649728Y-67000000D01*
X19550272Y-67000000D01*
X19458386Y-67038060D01*
X19388060Y-67108386D01*
X19350000Y-67200272D01*
X19350000Y-66023922D01*
X19185482Y-66065377D01*
X18980625Y-66158428D01*
X18980619Y-66158431D01*
X18795676Y-66286559D01*
X18795664Y-66286569D01*
X18636569Y-66445664D01*
X18636559Y-66445676D01*
X18508431Y-66630619D01*
X18508430Y-66630621D01*
X18463173Y-66730257D01*
X18417526Y-66783154D01*
X18350526Y-66802975D01*
X18283447Y-66783427D01*
X18237585Y-66730716D01*
X18237434Y-66730386D01*
X18192007Y-66630374D01*
X18064048Y-66445676D01*
X18063825Y-66445354D01*
X18063822Y-66445350D01*
X18063819Y-66445346D01*
X17904654Y-66286181D01*
X17904650Y-66286178D01*
X17904645Y-66286174D01*
X17719632Y-66157997D01*
X17719630Y-66157995D01*
X17719626Y-66157993D01*
X17515724Y-66065377D01*
X17514681Y-66064903D01*
X17514678Y-66064902D01*
X17296420Y-66009905D01*
X17296413Y-66009904D01*
X17230314Y-66004702D01*
X17164217Y-65999500D01*
X17164216Y-65999500D01*
X17035792Y-65999500D01*
X17035775Y-65999501D01*
X16903586Y-66009904D01*
X16903579Y-66009905D01*
X16685321Y-66064902D01*
X16685318Y-66064903D01*
X16480377Y-66157991D01*
X16480367Y-66157997D01*
X16295354Y-66286174D01*
X16295342Y-66286184D01*
X16136184Y-66445342D01*
X16136174Y-66445354D01*
X16007997Y-66630367D01*
X16007991Y-66630377D01*
X15914903Y-66835318D01*
X15914902Y-66835321D01*
X15859905Y-67053579D01*
X15859904Y-67053586D01*
X15849500Y-67185777D01*
X9850498Y-67185777D01*
X9840096Y-67053588D01*
X9785096Y-66835317D01*
X9692007Y-66630374D01*
X9564048Y-66445676D01*
X9563825Y-66445354D01*
X9563822Y-66445350D01*
X9563819Y-66445346D01*
X9404654Y-66286181D01*
X9404650Y-66286178D01*
X9404645Y-66286174D01*
X9219632Y-66157997D01*
X9219630Y-66157995D01*
X9219626Y-66157993D01*
X9015724Y-66065377D01*
X9014681Y-66064903D01*
X9014678Y-66064902D01*
X8796420Y-66009905D01*
X8796413Y-66009904D01*
X8730314Y-66004702D01*
X8664217Y-65999500D01*
X8664216Y-65999500D01*
X8535792Y-65999500D01*
X8535775Y-65999501D01*
X8403586Y-66009904D01*
X8403579Y-66009905D01*
X8185321Y-66064902D01*
X8185318Y-66064903D01*
X7980377Y-66157991D01*
X7980367Y-66157997D01*
X7795354Y-66286174D01*
X7795342Y-66286184D01*
X7636184Y-66445342D01*
X7636174Y-66445354D01*
X7507997Y-66630367D01*
X7507991Y-66630377D01*
X7414903Y-66835318D01*
X7414902Y-66835321D01*
X7359905Y-67053579D01*
X7359904Y-67053586D01*
X7349500Y-67185777D01*
X500500Y-67185777D01*
X500500Y-55102135D01*
X3899500Y-55102135D01*
X3899500Y-56897870D01*
X3899501Y-56897876D01*
X3905908Y-56957483D01*
X3956202Y-57092328D01*
X3956206Y-57092335D01*
X4042452Y-57207544D01*
X4042455Y-57207547D01*
X4157664Y-57293793D01*
X4157671Y-57293797D01*
X4292517Y-57344091D01*
X4292516Y-57344091D01*
X4299444Y-57344835D01*
X4352127Y-57350500D01*
X6147872Y-57350499D01*
X6207483Y-57344091D01*
X6342331Y-57293796D01*
X6457546Y-57207546D01*
X6543796Y-57092331D01*
X6594091Y-56957483D01*
X6600500Y-56897873D01*
X6600499Y-56873979D01*
X6603330Y-56860963D01*
X6613940Y-56841525D01*
X6620179Y-56820275D01*
X6636803Y-56799643D01*
X6636808Y-56799636D01*
X6636811Y-56799634D01*
X6636818Y-56799626D01*
X7307037Y-56129408D01*
X7324075Y-56192993D01*
X7389901Y-56307007D01*
X7482993Y-56400099D01*
X7597007Y-56465925D01*
X7660590Y-56482962D01*
X7028282Y-57115269D01*
X7028282Y-57115270D01*
X7082449Y-57154624D01*
X7271782Y-57251095D01*
X7473870Y-57316757D01*
X7683754Y-57350000D01*
X7896246Y-57350000D01*
X8106127Y-57316757D01*
X8106130Y-57316757D01*
X8308217Y-57251095D01*
X8497554Y-57154622D01*
X8551716Y-57115270D01*
X8551717Y-57115270D01*
X7919408Y-56482962D01*
X7982993Y-56465925D01*
X8097007Y-56400099D01*
X8190099Y-56307007D01*
X8255925Y-56192993D01*
X8272962Y-56129408D01*
X8905270Y-56761717D01*
X8905270Y-56761716D01*
X8944622Y-56707555D01*
X8949232Y-56698507D01*
X8997205Y-56647709D01*
X9065025Y-56630912D01*
X9131161Y-56653447D01*
X9170204Y-56698504D01*
X9174949Y-56707817D01*
X9299890Y-56879786D01*
X9450213Y-57030109D01*
X9622179Y-57155048D01*
X9622181Y-57155049D01*
X9622184Y-57155051D01*
X9811588Y-57251557D01*
X10013757Y-57317246D01*
X10223713Y-57350500D01*
X10223714Y-57350500D01*
X10436286Y-57350500D01*
X10436287Y-57350500D01*
X10646243Y-57317246D01*
X10848412Y-57251557D01*
X11037816Y-57155051D01*
X11124138Y-57092335D01*
X11209786Y-57030109D01*
X11209788Y-57030106D01*
X11209792Y-57030104D01*
X11360104Y-56879792D01*
X11360106Y-56879788D01*
X11360109Y-56879786D01*
X11485048Y-56707820D01*
X11485050Y-56707817D01*
X11485051Y-56707816D01*
X11489514Y-56699054D01*
X11537488Y-56648259D01*
X11605308Y-56631463D01*
X11671444Y-56653999D01*
X11710486Y-56699056D01*
X11714951Y-56707820D01*
X11839890Y-56879786D01*
X11990213Y-57030109D01*
X12162179Y-57155048D01*
X12162181Y-57155049D01*
X12162184Y-57155051D01*
X12351588Y-57251557D01*
X12553757Y-57317246D01*
X12763713Y-57350500D01*
X12763714Y-57350500D01*
X12976286Y-57350500D01*
X12976287Y-57350500D01*
X13186243Y-57317246D01*
X13388412Y-57251557D01*
X13577816Y-57155051D01*
X13664138Y-57092335D01*
X13749786Y-57030109D01*
X13749788Y-57030106D01*
X13749792Y-57030104D01*
X13900104Y-56879792D01*
X13900106Y-56879788D01*
X13900109Y-56879786D01*
X14025048Y-56707820D01*
X14025050Y-56707817D01*
X14025051Y-56707816D01*
X14029514Y-56699054D01*
X14077488Y-56648259D01*
X14145308Y-56631463D01*
X14211444Y-56653999D01*
X14250486Y-56699056D01*
X14254951Y-56707820D01*
X14379890Y-56879786D01*
X14530213Y-57030109D01*
X14702179Y-57155048D01*
X14702181Y-57155049D01*
X14702184Y-57155051D01*
X14891588Y-57251557D01*
X15093757Y-57317246D01*
X15303713Y-57350500D01*
X15303714Y-57350500D01*
X15516286Y-57350500D01*
X15516287Y-57350500D01*
X15726243Y-57317246D01*
X15928412Y-57251557D01*
X16117816Y-57155051D01*
X16204138Y-57092335D01*
X16289786Y-57030109D01*
X16289788Y-57030106D01*
X16289792Y-57030104D01*
X16440104Y-56879792D01*
X16440106Y-56879788D01*
X16440109Y-56879786D01*
X16565048Y-56707820D01*
X16565050Y-56707817D01*
X16565051Y-56707816D01*
X16569514Y-56699054D01*
X16617488Y-56648259D01*
X16685308Y-56631463D01*
X16751444Y-56653999D01*
X16790486Y-56699056D01*
X16794951Y-56707820D01*
X16919890Y-56879786D01*
X17070213Y-57030109D01*
X17242179Y-57155048D01*
X17242181Y-57155049D01*
X17242184Y-57155051D01*
X17431588Y-57251557D01*
X17633757Y-57317246D01*
X17843713Y-57350500D01*
X17843714Y-57350500D01*
X18056286Y-57350500D01*
X18056287Y-57350500D01*
X18266243Y-57317246D01*
X18468412Y-57251557D01*
X18657816Y-57155051D01*
X18744138Y-57092335D01*
X18829786Y-57030109D01*
X18829788Y-57030106D01*
X18829792Y-57030104D01*
X18980104Y-56879792D01*
X18980106Y-56879788D01*
X18980109Y-56879786D01*
X19105048Y-56707820D01*
X19105050Y-56707817D01*
X19105051Y-56707816D01*
X19109514Y-56699054D01*
X19157488Y-56648259D01*
X19225308Y-56631463D01*
X19291444Y-56653999D01*
X19330486Y-56699056D01*
X19334951Y-56707820D01*
X19459890Y-56879786D01*
X19610213Y-57030109D01*
X19782179Y-57155048D01*
X19782181Y-57155049D01*
X19782184Y-57155051D01*
X19971588Y-57251557D01*
X20173757Y-57317246D01*
X20383713Y-57350500D01*
X20383714Y-57350500D01*
X20596286Y-57350500D01*
X20596287Y-57350500D01*
X20806243Y-57317246D01*
X21008412Y-57251557D01*
X21197816Y-57155051D01*
X21284138Y-57092335D01*
X21369786Y-57030109D01*
X21369788Y-57030106D01*
X21369792Y-57030104D01*
X21520104Y-56879792D01*
X21520106Y-56879788D01*
X21520109Y-56879786D01*
X21645048Y-56707820D01*
X21645050Y-56707817D01*
X21645051Y-56707816D01*
X21649514Y-56699054D01*
X21697488Y-56648259D01*
X21765308Y-56631463D01*
X21831444Y-56653999D01*
X21870486Y-56699056D01*
X21874951Y-56707820D01*
X21999890Y-56879786D01*
X22150213Y-57030109D01*
X22322179Y-57155048D01*
X22322181Y-57155049D01*
X22322184Y-57155051D01*
X22511588Y-57251557D01*
X22713757Y-57317246D01*
X22923713Y-57350500D01*
X22923714Y-57350500D01*
X23136286Y-57350500D01*
X23136287Y-57350500D01*
X23346243Y-57317246D01*
X23548412Y-57251557D01*
X23737816Y-57155051D01*
X23824138Y-57092335D01*
X23909786Y-57030109D01*
X23909788Y-57030106D01*
X23909792Y-57030104D01*
X24060104Y-56879792D01*
X24060106Y-56879788D01*
X24060109Y-56879786D01*
X24185048Y-56707820D01*
X24185050Y-56707817D01*
X24185051Y-56707816D01*
X24281557Y-56518412D01*
X24347246Y-56316243D01*
X24380500Y-56106287D01*
X24380500Y-55893713D01*
X24347246Y-55683757D01*
X24281557Y-55481588D01*
X24185051Y-55292184D01*
X24185049Y-55292181D01*
X24185048Y-55292179D01*
X24060109Y-55120213D01*
X23909786Y-54969890D01*
X23737820Y-54844951D01*
X23548414Y-54748444D01*
X23548413Y-54748443D01*
X23548412Y-54748443D01*
X23346243Y-54682754D01*
X23346241Y-54682753D01*
X23346240Y-54682753D01*
X23184957Y-54657208D01*
X23136287Y-54649500D01*
X22923713Y-54649500D01*
X22875042Y-54657208D01*
X22713760Y-54682753D01*
X22511585Y-54748444D01*
X22322179Y-54844951D01*
X22150213Y-54969890D01*
X21999890Y-55120213D01*
X21874949Y-55292182D01*
X21870484Y-55300946D01*
X21822509Y-55351742D01*
X21754688Y-55368536D01*
X21688553Y-55345998D01*
X21649516Y-55300946D01*
X21645050Y-55292182D01*
X21520109Y-55120213D01*
X21369786Y-54969890D01*
X21197820Y-54844951D01*
X21008414Y-54748444D01*
X21008413Y-54748443D01*
X21008412Y-54748443D01*
X20806243Y-54682754D01*
X20806241Y-54682753D01*
X20806240Y-54682753D01*
X20644957Y-54657208D01*
X20596287Y-54649500D01*
X20383713Y-54649500D01*
X20335042Y-54657208D01*
X20173760Y-54682753D01*
X19971585Y-54748444D01*
X19782179Y-54844951D01*
X19610213Y-54969890D01*
X19459890Y-55120213D01*
X19334949Y-55292182D01*
X19330484Y-55300946D01*
X19282509Y-55351742D01*
X19214688Y-55368536D01*
X19148553Y-55345998D01*
X19109516Y-55300946D01*
X19105050Y-55292182D01*
X18980109Y-55120213D01*
X18829786Y-54969890D01*
X18657820Y-54844951D01*
X18468414Y-54748444D01*
X18468413Y-54748443D01*
X18468412Y-54748443D01*
X18266243Y-54682754D01*
X18266241Y-54682753D01*
X18266240Y-54682753D01*
X18104957Y-54657208D01*
X18056287Y-54649500D01*
X17843713Y-54649500D01*
X17795042Y-54657208D01*
X17633760Y-54682753D01*
X17431585Y-54748444D01*
X17242179Y-54844951D01*
X17070213Y-54969890D01*
X16919890Y-55120213D01*
X16794949Y-55292182D01*
X16790484Y-55300946D01*
X16742509Y-55351742D01*
X16674688Y-55368536D01*
X16608553Y-55345998D01*
X16569516Y-55300946D01*
X16565050Y-55292182D01*
X16440109Y-55120213D01*
X16289786Y-54969890D01*
X16117820Y-54844951D01*
X15928414Y-54748444D01*
X15928413Y-54748443D01*
X15928412Y-54748443D01*
X15726243Y-54682754D01*
X15726241Y-54682753D01*
X15726240Y-54682753D01*
X15564957Y-54657208D01*
X15516287Y-54649500D01*
X15303713Y-54649500D01*
X15255042Y-54657208D01*
X15093760Y-54682753D01*
X14891585Y-54748444D01*
X14702179Y-54844951D01*
X14530213Y-54969890D01*
X14379890Y-55120213D01*
X14254949Y-55292182D01*
X14250484Y-55300946D01*
X14202509Y-55351742D01*
X14134688Y-55368536D01*
X14068553Y-55345998D01*
X14029516Y-55300946D01*
X14025050Y-55292182D01*
X13900109Y-55120213D01*
X13749786Y-54969890D01*
X13577820Y-54844951D01*
X13388414Y-54748444D01*
X13388413Y-54748443D01*
X13388412Y-54748443D01*
X13186243Y-54682754D01*
X13186241Y-54682753D01*
X13186240Y-54682753D01*
X13024957Y-54657208D01*
X12976287Y-54649500D01*
X12763713Y-54649500D01*
X12715042Y-54657208D01*
X12553760Y-54682753D01*
X12351585Y-54748444D01*
X12162179Y-54844951D01*
X11990213Y-54969890D01*
X11839890Y-55120213D01*
X11714949Y-55292182D01*
X11710484Y-55300946D01*
X11662509Y-55351742D01*
X11594688Y-55368536D01*
X11528553Y-55345998D01*
X11489516Y-55300946D01*
X11485050Y-55292182D01*
X11360109Y-55120213D01*
X11209786Y-54969890D01*
X11037820Y-54844951D01*
X10848414Y-54748444D01*
X10848413Y-54748443D01*
X10848412Y-54748443D01*
X10646243Y-54682754D01*
X10646241Y-54682753D01*
X10646240Y-54682753D01*
X10484957Y-54657208D01*
X10436287Y-54649500D01*
X10223713Y-54649500D01*
X10175042Y-54657208D01*
X10013760Y-54682753D01*
X9811585Y-54748444D01*
X9622179Y-54844951D01*
X9450213Y-54969890D01*
X9299890Y-55120213D01*
X9174949Y-55292182D01*
X9170202Y-55301499D01*
X9122227Y-55352293D01*
X9054405Y-55369087D01*
X8988271Y-55346548D01*
X8949234Y-55301495D01*
X8944626Y-55292452D01*
X8905270Y-55238282D01*
X8905269Y-55238282D01*
X8272962Y-55870590D01*
X8255925Y-55807007D01*
X8190099Y-55692993D01*
X8097007Y-55599901D01*
X7982993Y-55534075D01*
X7919409Y-55517037D01*
X8551716Y-54884728D01*
X8497550Y-54845375D01*
X8308217Y-54748904D01*
X8106129Y-54683242D01*
X7896246Y-54650000D01*
X7683754Y-54650000D01*
X7473872Y-54683242D01*
X7473869Y-54683242D01*
X7271782Y-54748904D01*
X7082439Y-54845380D01*
X7028282Y-54884727D01*
X7028282Y-54884728D01*
X7660591Y-55517037D01*
X7597007Y-55534075D01*
X7482993Y-55599901D01*
X7389901Y-55692993D01*
X7324075Y-55807007D01*
X7307037Y-55870591D01*
X6636818Y-55200372D01*
X6603333Y-55139049D01*
X6603330Y-55139036D01*
X6600499Y-55126015D01*
X6600499Y-55102128D01*
X6594091Y-55042517D01*
X6565926Y-54967002D01*
X6543798Y-54907673D01*
X6543793Y-54907664D01*
X6457547Y-54792455D01*
X6457544Y-54792452D01*
X6342335Y-54706206D01*
X6342328Y-54706202D01*
X6207482Y-54655908D01*
X6207483Y-54655908D01*
X6147883Y-54649501D01*
X6147881Y-54649500D01*
X6147873Y-54649500D01*
X6147864Y-54649500D01*
X4352129Y-54649500D01*
X4352123Y-54649501D01*
X4292516Y-54655908D01*
X4157671Y-54706202D01*
X4157664Y-54706206D01*
X4042455Y-54792452D01*
X4042452Y-54792455D01*
X3956206Y-54907664D01*
X3956202Y-54907671D01*
X3905908Y-55042517D01*
X3899501Y-55102116D01*
X3899500Y-55102135D01*
X500500Y-55102135D01*
X500500Y-42935777D01*
X3749500Y-42935777D01*
X3749500Y-45064208D01*
X3749501Y-45064223D01*
X3759904Y-45196413D01*
X3759905Y-45196420D01*
X3814902Y-45414678D01*
X3814903Y-45414681D01*
X3907991Y-45619622D01*
X3907997Y-45619632D01*
X4036174Y-45804645D01*
X4036178Y-45804650D01*
X4036181Y-45804654D01*
X4195346Y-45963819D01*
X4195350Y-45963822D01*
X4195354Y-45963825D01*
X4334603Y-46060297D01*
X4380374Y-46092007D01*
X4585317Y-46185096D01*
X4585321Y-46185097D01*
X4803579Y-46240094D01*
X4803581Y-46240094D01*
X4803588Y-46240096D01*
X4935783Y-46250500D01*
X5064216Y-46250499D01*
X5196412Y-46240096D01*
X5414683Y-46185096D01*
X5619626Y-46092007D01*
X5804654Y-45963819D01*
X5963819Y-45804654D01*
X6092007Y-45619626D01*
X6185096Y-45414683D01*
X6240096Y-45196412D01*
X6250500Y-45064217D01*
X6250499Y-42935784D01*
X6240096Y-42803588D01*
X6213271Y-42697131D01*
X6215978Y-42627316D01*
X6256001Y-42570045D01*
X6320633Y-42543505D01*
X6343232Y-42543216D01*
X6435783Y-42550500D01*
X8564216Y-42550499D01*
X8656759Y-42543216D01*
X8725136Y-42557580D01*
X8774892Y-42606632D01*
X8790231Y-42674797D01*
X8786729Y-42697132D01*
X8759904Y-42803588D01*
X8749500Y-42935777D01*
X8749500Y-45064208D01*
X8749501Y-45064223D01*
X8759904Y-45196413D01*
X8759905Y-45196420D01*
X8814902Y-45414678D01*
X8814903Y-45414681D01*
X8907991Y-45619622D01*
X8907997Y-45619632D01*
X9036174Y-45804645D01*
X9036178Y-45804650D01*
X9036181Y-45804654D01*
X9195346Y-45963819D01*
X9195350Y-45963822D01*
X9195354Y-45963825D01*
X9334603Y-46060297D01*
X9380374Y-46092007D01*
X9585317Y-46185096D01*
X9585321Y-46185097D01*
X9803579Y-46240094D01*
X9803581Y-46240094D01*
X9803588Y-46240096D01*
X9935783Y-46250500D01*
X10064216Y-46250499D01*
X10196412Y-46240096D01*
X10414683Y-46185096D01*
X10619626Y-46092007D01*
X10804654Y-45963819D01*
X10963819Y-45804654D01*
X11092007Y-45619626D01*
X11185096Y-45414683D01*
X11240096Y-45196412D01*
X11250500Y-45064217D01*
X11250499Y-42935784D01*
X11240096Y-42803588D01*
X11213271Y-42697133D01*
X11185097Y-42585321D01*
X11185096Y-42585318D01*
X11169280Y-42550498D01*
X11092007Y-42380374D01*
X10963819Y-42195346D01*
X10804654Y-42036181D01*
X10804650Y-42036178D01*
X10804645Y-42036174D01*
X10619632Y-41907997D01*
X10619630Y-41907995D01*
X10619626Y-41907993D01*
X10414683Y-41814904D01*
X10414681Y-41814903D01*
X10414678Y-41814902D01*
X10196420Y-41759905D01*
X10196413Y-41759904D01*
X10130314Y-41754702D01*
X10064217Y-41749500D01*
X10064216Y-41749500D01*
X9935792Y-41749500D01*
X9935773Y-41749501D01*
X9843239Y-41756783D01*
X9774862Y-41742418D01*
X9725106Y-41693366D01*
X9709768Y-41625200D01*
X9713271Y-41602867D01*
X9740096Y-41496412D01*
X9750500Y-41364217D01*
X9750499Y-41235784D01*
X9740096Y-41103588D01*
X9685096Y-40885317D01*
X9592007Y-40680374D01*
X9463819Y-40495346D01*
X9304654Y-40336181D01*
X9304650Y-40336178D01*
X9304645Y-40336174D01*
X9119632Y-40207997D01*
X9119630Y-40207995D01*
X9119626Y-40207993D01*
X8914683Y-40114904D01*
X8914681Y-40114903D01*
X8914678Y-40114902D01*
X8696420Y-40059905D01*
X8696413Y-40059904D01*
X8652347Y-40056436D01*
X8564217Y-40049500D01*
X8564215Y-40049500D01*
X6435791Y-40049500D01*
X6435776Y-40049501D01*
X6303586Y-40059904D01*
X6303579Y-40059905D01*
X6085321Y-40114902D01*
X6085318Y-40114903D01*
X5880377Y-40207991D01*
X5880367Y-40207997D01*
X5695354Y-40336174D01*
X5695342Y-40336184D01*
X5536184Y-40495342D01*
X5536174Y-40495354D01*
X5407997Y-40680367D01*
X5407991Y-40680377D01*
X5314903Y-40885318D01*
X5314902Y-40885321D01*
X5259905Y-41103579D01*
X5259904Y-41103586D01*
X5249500Y-41235778D01*
X5249500Y-41364207D01*
X5249501Y-41364224D01*
X5259904Y-41496413D01*
X5259905Y-41496420D01*
X5286728Y-41602867D01*
X5284021Y-41672684D01*
X5243997Y-41729954D01*
X5179365Y-41756494D01*
X5156758Y-41756783D01*
X5095493Y-41751961D01*
X5064217Y-41749500D01*
X5064216Y-41749500D01*
X4935792Y-41749500D01*
X4935775Y-41749501D01*
X4803586Y-41759904D01*
X4803579Y-41759905D01*
X4585321Y-41814902D01*
X4585318Y-41814903D01*
X4380377Y-41907991D01*
X4380367Y-41907997D01*
X4195354Y-42036174D01*
X4195342Y-42036184D01*
X4036184Y-42195342D01*
X4036174Y-42195354D01*
X3907997Y-42380367D01*
X3907991Y-42380377D01*
X3814903Y-42585318D01*
X3814902Y-42585321D01*
X3759905Y-42803579D01*
X3759904Y-42803586D01*
X3749500Y-42935777D01*
X500500Y-42935777D01*
X500500Y-29921153D01*
X12183500Y-29921153D01*
X12183500Y-30078846D01*
X12214261Y-30233489D01*
X12214264Y-30233501D01*
X12274602Y-30379172D01*
X12274609Y-30379185D01*
X12362210Y-30510288D01*
X12362213Y-30510292D01*
X12473707Y-30621786D01*
X12473711Y-30621789D01*
X12604814Y-30709390D01*
X12604827Y-30709397D01*
X12692230Y-30745599D01*
X12750503Y-30769737D01*
X12783691Y-30776338D01*
X12845600Y-30808721D01*
X12880176Y-30869436D01*
X12883500Y-30897955D01*
X12883500Y-33194179D01*
X12863815Y-33261218D01*
X12862602Y-33263070D01*
X12790609Y-33370814D01*
X12790602Y-33370827D01*
X12730264Y-33516498D01*
X12730261Y-33516510D01*
X12699500Y-33671153D01*
X12699500Y-33828846D01*
X12730261Y-33983489D01*
X12730264Y-33983501D01*
X12790602Y-34129172D01*
X12790609Y-34129185D01*
X12878210Y-34260288D01*
X12878213Y-34260292D01*
X12989707Y-34371786D01*
X12989711Y-34371789D01*
X13120814Y-34459390D01*
X13120827Y-34459397D01*
X13266498Y-34519735D01*
X13266503Y-34519737D01*
X13421153Y-34550499D01*
X13421156Y-34550500D01*
X13421158Y-34550500D01*
X13578844Y-34550500D01*
X13578845Y-34550499D01*
X13733497Y-34519737D01*
X13879179Y-34459394D01*
X14010289Y-34371789D01*
X14121789Y-34260289D01*
X14209394Y-34129179D01*
X14269737Y-33983497D01*
X14300500Y-33828842D01*
X14300500Y-33671158D01*
X14300500Y-33671155D01*
X14300499Y-33671153D01*
X14269738Y-33516510D01*
X14269737Y-33516503D01*
X14269735Y-33516498D01*
X14209397Y-33370827D01*
X14209390Y-33370814D01*
X14121789Y-33239711D01*
X14121786Y-33239707D01*
X14120819Y-33238740D01*
X14120474Y-33238108D01*
X14117924Y-33235001D01*
X14118513Y-33234517D01*
X14087334Y-33177417D01*
X14084500Y-33151059D01*
X14084500Y-30589060D01*
X14084501Y-30589047D01*
X14084501Y-30420944D01*
X14084501Y-30420943D01*
X14043577Y-30268216D01*
X14043573Y-30268209D01*
X13964524Y-30131290D01*
X13964518Y-30131282D01*
X13818573Y-29985337D01*
X13785088Y-29924014D01*
X13784637Y-29921847D01*
X13753738Y-29766510D01*
X13753737Y-29766503D01*
X13753735Y-29766498D01*
X13693397Y-29620827D01*
X13693390Y-29620814D01*
X13605789Y-29489711D01*
X13605786Y-29489707D01*
X13494292Y-29378213D01*
X13494288Y-29378210D01*
X13363185Y-29290609D01*
X13363172Y-29290602D01*
X13217501Y-29230264D01*
X13217489Y-29230261D01*
X13062845Y-29199500D01*
X13062842Y-29199500D01*
X12905158Y-29199500D01*
X12905155Y-29199500D01*
X12750510Y-29230261D01*
X12750498Y-29230264D01*
X12604827Y-29290602D01*
X12604814Y-29290609D01*
X12473711Y-29378210D01*
X12473707Y-29378213D01*
X12362213Y-29489707D01*
X12362210Y-29489711D01*
X12274609Y-29620814D01*
X12274602Y-29620827D01*
X12214264Y-29766498D01*
X12214261Y-29766510D01*
X12183500Y-29921153D01*
X500500Y-29921153D01*
X500500Y-25935777D01*
X14749500Y-25935777D01*
X14749500Y-28064208D01*
X14749501Y-28064223D01*
X14759904Y-28196413D01*
X14759905Y-28196420D01*
X14814902Y-28414678D01*
X14814903Y-28414681D01*
X14907991Y-28619622D01*
X14907997Y-28619632D01*
X15036174Y-28804645D01*
X15036178Y-28804650D01*
X15036181Y-28804654D01*
X15195346Y-28963819D01*
X15195350Y-28963822D01*
X15195354Y-28963825D01*
X15334603Y-29060297D01*
X15380374Y-29092007D01*
X15585317Y-29185096D01*
X15585321Y-29185097D01*
X15803579Y-29240094D01*
X15803581Y-29240094D01*
X15803588Y-29240096D01*
X15935783Y-29250500D01*
X16064216Y-29250499D01*
X16196412Y-29240096D01*
X16414683Y-29185096D01*
X16619626Y-29092007D01*
X16804654Y-28963819D01*
X16963819Y-28804654D01*
X17092007Y-28619626D01*
X17185096Y-28414683D01*
X17240096Y-28196412D01*
X17250500Y-28064217D01*
X17250499Y-25935784D01*
X17240096Y-25803588D01*
X17213271Y-25697131D01*
X17215978Y-25627316D01*
X17256001Y-25570045D01*
X17320633Y-25543505D01*
X17343232Y-25543216D01*
X17435783Y-25550500D01*
X19564216Y-25550499D01*
X19656759Y-25543216D01*
X19725136Y-25557580D01*
X19774892Y-25606632D01*
X19790231Y-25674797D01*
X19786729Y-25697132D01*
X19759904Y-25803588D01*
X19749500Y-25935777D01*
X19749500Y-28064208D01*
X19749501Y-28064223D01*
X19759904Y-28196413D01*
X19759905Y-28196420D01*
X19814902Y-28414678D01*
X19814903Y-28414681D01*
X19907991Y-28619622D01*
X19907997Y-28619632D01*
X20036174Y-28804645D01*
X20036178Y-28804650D01*
X20036181Y-28804654D01*
X20195346Y-28963819D01*
X20195350Y-28963822D01*
X20195354Y-28963825D01*
X20334603Y-29060297D01*
X20380374Y-29092007D01*
X20585317Y-29185096D01*
X20585321Y-29185097D01*
X20803579Y-29240094D01*
X20803581Y-29240094D01*
X20803588Y-29240096D01*
X20935783Y-29250500D01*
X21064216Y-29250499D01*
X21196412Y-29240096D01*
X21414683Y-29185096D01*
X21619626Y-29092007D01*
X21804654Y-28963819D01*
X21963819Y-28804654D01*
X22092007Y-28619626D01*
X22185096Y-28414683D01*
X22240096Y-28196412D01*
X22250500Y-28064217D01*
X22250499Y-25935784D01*
X22240096Y-25803588D01*
X22213271Y-25697133D01*
X22185097Y-25585321D01*
X22185096Y-25585318D01*
X22169280Y-25550498D01*
X22092007Y-25380374D01*
X21963819Y-25195346D01*
X21804654Y-25036181D01*
X21804650Y-25036178D01*
X21804645Y-25036174D01*
X21619632Y-24907997D01*
X21619630Y-24907995D01*
X21619626Y-24907993D01*
X21414683Y-24814904D01*
X21414681Y-24814903D01*
X21414678Y-24814902D01*
X21196420Y-24759905D01*
X21196413Y-24759904D01*
X21130314Y-24754702D01*
X21064217Y-24749500D01*
X21064216Y-24749500D01*
X20935792Y-24749500D01*
X20935773Y-24749501D01*
X20843239Y-24756783D01*
X20774862Y-24742418D01*
X20725106Y-24693366D01*
X20709768Y-24625200D01*
X20713271Y-24602867D01*
X20740096Y-24496412D01*
X20750500Y-24364217D01*
X20750499Y-24235784D01*
X20740096Y-24103588D01*
X20685096Y-23885317D01*
X20592007Y-23680374D01*
X20463819Y-23495346D01*
X20304654Y-23336181D01*
X20304650Y-23336178D01*
X20304645Y-23336174D01*
X20119632Y-23207997D01*
X20119630Y-23207995D01*
X20119626Y-23207993D01*
X19914683Y-23114904D01*
X19914681Y-23114903D01*
X19914678Y-23114902D01*
X19696420Y-23059905D01*
X19696413Y-23059904D01*
X19652347Y-23056436D01*
X19564217Y-23049500D01*
X19564215Y-23049500D01*
X17435791Y-23049500D01*
X17435776Y-23049501D01*
X17303586Y-23059904D01*
X17303579Y-23059905D01*
X17085321Y-23114902D01*
X17085318Y-23114903D01*
X16880377Y-23207991D01*
X16880367Y-23207997D01*
X16695354Y-23336174D01*
X16695342Y-23336184D01*
X16536184Y-23495342D01*
X16536174Y-23495354D01*
X16407997Y-23680367D01*
X16407991Y-23680377D01*
X16314903Y-23885318D01*
X16314902Y-23885321D01*
X16259905Y-24103579D01*
X16259904Y-24103586D01*
X16249500Y-24235778D01*
X16249500Y-24364207D01*
X16249501Y-24364224D01*
X16259904Y-24496413D01*
X16259905Y-24496420D01*
X16286728Y-24602867D01*
X16284021Y-24672684D01*
X16243997Y-24729954D01*
X16179365Y-24756494D01*
X16156758Y-24756783D01*
X16095493Y-24751961D01*
X16064217Y-24749500D01*
X16064216Y-24749500D01*
X15935792Y-24749500D01*
X15935775Y-24749501D01*
X15803586Y-24759904D01*
X15803579Y-24759905D01*
X15585321Y-24814902D01*
X15585318Y-24814903D01*
X15380377Y-24907991D01*
X15380367Y-24907997D01*
X15195354Y-25036174D01*
X15195342Y-25036184D01*
X15036184Y-25195342D01*
X15036174Y-25195354D01*
X14907997Y-25380367D01*
X14907991Y-25380377D01*
X14814903Y-25585318D01*
X14814902Y-25585321D01*
X14759905Y-25803579D01*
X14759904Y-25803586D01*
X14749500Y-25935777D01*
X500500Y-25935777D01*
X500500Y-8935777D01*
X3749500Y-8935777D01*
X3749500Y-11064208D01*
X3749501Y-11064223D01*
X3759904Y-11196413D01*
X3759905Y-11196420D01*
X3814902Y-11414678D01*
X3814903Y-11414681D01*
X3907991Y-11619622D01*
X3907997Y-11619632D01*
X4036174Y-11804645D01*
X4036178Y-11804650D01*
X4036181Y-11804654D01*
X4195346Y-11963819D01*
X4195350Y-11963822D01*
X4195354Y-11963825D01*
X4334603Y-12060297D01*
X4380374Y-12092007D01*
X4585317Y-12185096D01*
X4585321Y-12185097D01*
X4803579Y-12240094D01*
X4803581Y-12240094D01*
X4803588Y-12240096D01*
X4935783Y-12250500D01*
X5064216Y-12250499D01*
X5196412Y-12240096D01*
X5414683Y-12185096D01*
X5619626Y-12092007D01*
X5804654Y-11963819D01*
X5963819Y-11804654D01*
X6092007Y-11619626D01*
X6185096Y-11414683D01*
X6240096Y-11196412D01*
X6250500Y-11064217D01*
X6250499Y-8935784D01*
X6240096Y-8803588D01*
X6213271Y-8697131D01*
X6215978Y-8627316D01*
X6256001Y-8570045D01*
X6320633Y-8543505D01*
X6343232Y-8543216D01*
X6435783Y-8550500D01*
X8564216Y-8550499D01*
X8656759Y-8543216D01*
X8725136Y-8557580D01*
X8774892Y-8606632D01*
X8790231Y-8674797D01*
X8786729Y-8697132D01*
X8759904Y-8803588D01*
X8749500Y-8935777D01*
X8749500Y-11064208D01*
X8749501Y-11064223D01*
X8759904Y-11196413D01*
X8759905Y-11196420D01*
X8814902Y-11414678D01*
X8814903Y-11414681D01*
X8907991Y-11619622D01*
X8907997Y-11619632D01*
X9036174Y-11804645D01*
X9036178Y-11804650D01*
X9036181Y-11804654D01*
X9195346Y-11963819D01*
X9195350Y-11963822D01*
X9195354Y-11963825D01*
X9334603Y-12060297D01*
X9380374Y-12092007D01*
X9585317Y-12185096D01*
X9585321Y-12185097D01*
X9803579Y-12240094D01*
X9803581Y-12240094D01*
X9803588Y-12240096D01*
X9935783Y-12250500D01*
X10064216Y-12250499D01*
X10196412Y-12240096D01*
X10414683Y-12185096D01*
X10619626Y-12092007D01*
X10804654Y-11963819D01*
X10963819Y-11804654D01*
X11092007Y-11619626D01*
X11185096Y-11414683D01*
X11240096Y-11196412D01*
X11250500Y-11064217D01*
X11250499Y-8935784D01*
X11240096Y-8803588D01*
X11213271Y-8697133D01*
X11185097Y-8585321D01*
X11185096Y-8585318D01*
X11169280Y-8550498D01*
X11092007Y-8380374D01*
X10963819Y-8195346D01*
X10804654Y-8036181D01*
X10804650Y-8036178D01*
X10804645Y-8036174D01*
X10619632Y-7907997D01*
X10619630Y-7907995D01*
X10619626Y-7907993D01*
X10414683Y-7814904D01*
X10414681Y-7814903D01*
X10414678Y-7814902D01*
X10196420Y-7759905D01*
X10196413Y-7759904D01*
X10130314Y-7754702D01*
X10064217Y-7749500D01*
X10064216Y-7749500D01*
X9935792Y-7749500D01*
X9935773Y-7749501D01*
X9843239Y-7756783D01*
X9774862Y-7742418D01*
X9725106Y-7693366D01*
X9709768Y-7625200D01*
X9713271Y-7602867D01*
X9740096Y-7496412D01*
X9750500Y-7364217D01*
X9750499Y-7235784D01*
X9740096Y-7103588D01*
X9685096Y-6885317D01*
X9592007Y-6680374D01*
X9463819Y-6495346D01*
X9304654Y-6336181D01*
X9304650Y-6336178D01*
X9304645Y-6336174D01*
X9119632Y-6207997D01*
X9119630Y-6207995D01*
X9119626Y-6207993D01*
X8914683Y-6114904D01*
X8914681Y-6114903D01*
X8914678Y-6114902D01*
X8696420Y-6059905D01*
X8696413Y-6059904D01*
X8652347Y-6056436D01*
X8564217Y-6049500D01*
X8564215Y-6049500D01*
X6435791Y-6049500D01*
X6435776Y-6049501D01*
X6303586Y-6059904D01*
X6303579Y-6059905D01*
X6085321Y-6114902D01*
X6085318Y-6114903D01*
X5880377Y-6207991D01*
X5880367Y-6207997D01*
X5695354Y-6336174D01*
X5695342Y-6336184D01*
X5536184Y-6495342D01*
X5536174Y-6495354D01*
X5407997Y-6680367D01*
X5407991Y-6680377D01*
X5314903Y-6885318D01*
X5314902Y-6885321D01*
X5259905Y-7103579D01*
X5259904Y-7103586D01*
X5249500Y-7235778D01*
X5249500Y-7364207D01*
X5249501Y-7364224D01*
X5259904Y-7496413D01*
X5259905Y-7496420D01*
X5286728Y-7602867D01*
X5284021Y-7672684D01*
X5243997Y-7729954D01*
X5179365Y-7756494D01*
X5156758Y-7756783D01*
X5095493Y-7751961D01*
X5064217Y-7749500D01*
X5064216Y-7749500D01*
X4935792Y-7749500D01*
X4935775Y-7749501D01*
X4803586Y-7759904D01*
X4803579Y-7759905D01*
X4585321Y-7814902D01*
X4585318Y-7814903D01*
X4380377Y-7907991D01*
X4380367Y-7907997D01*
X4195354Y-8036174D01*
X4195342Y-8036184D01*
X4036184Y-8195342D01*
X4036174Y-8195354D01*
X3907997Y-8380367D01*
X3907991Y-8380377D01*
X3814903Y-8585318D01*
X3814902Y-8585321D01*
X3759905Y-8803579D01*
X3759904Y-8803586D01*
X3749500Y-8935777D01*
X500500Y-8935777D01*
X500500Y-624500D01*
X520185Y-557461D01*
X572989Y-511706D01*
X624500Y-500500D01*
X25375500Y-500500D01*
X25442539Y-520185D01*
G37*
%TD.AperFunction*%
%TD*%
M02*
