%TF.GenerationSoftware,KiCad,Pcbnew,10.0.6*%
%TF.CreationDate,2026-09-30T20:24:37+02:00*%
%TF.ProjectId,conductor_controls,636f6e64-7563-4746-9f72-5f636f6e7472,rev?*%
%TF.SameCoordinates,Original*%
%TF.FileFunction,Soldermask,Top*%
%TF.FilePolarity,Negative*%
%FSLAX46Y46*%
G04 Gerber Fmt 4.6, Leading zero omitted, Abs format (unit mm)*
G04 Created by KiCad (PCBNEW 10.0.6) date 2026-09-30 20:24:37*
%MOMM*%
%LPD*%
G01*
G04 APERTURE LIST*
G04 Aperture macros list*
%AMRoundRect*
0 Rectangle with rounded corners*
0 $1 Rounding radius*
0 $2 $3 $4 $5 $6 $7 $8 $9 X,Y pos of 4 corners*
0 Add a 4 corners polygon primitive as box body*
4,1,4,$2,$3,$4,$5,$6,$7,$8,$9,$2,$3,0*
0 Add four circle primitives for the rounded corners*
1,1,$1+$1,$2,$3*
1,1,$1+$1,$4,$5*
1,1,$1+$1,$6,$7*
1,1,$1+$1,$8,$9*
0 Add four rect primitives between the rounded corners*
20,1,$1+$1,$2,$3,$4,$5,0*
20,1,$1+$1,$4,$5,$6,$7,0*
20,1,$1+$1,$6,$7,$8,$9,0*
20,1,$1+$1,$8,$9,$2,$3,0*%
G04 Aperture macros list end*
%ADD10RoundRect,0.250000X-0.350000X-0.450000X0.350000X-0.450000X0.350000X0.450000X-0.350000X0.450000X0*%
%ADD11RoundRect,0.250000X0.350000X0.450000X-0.350000X0.450000X-0.350000X-0.450000X0.350000X-0.450000X0*%
%ADD12RoundRect,0.249999X-0.750001X-0.640001X0.750001X-0.640001X0.750001X0.640001X-0.750001X0.640001X0*%
%ADD13RoundRect,0.250000X-0.450000X0.350000X-0.450000X-0.350000X0.450000X-0.350000X0.450000X0.350000X0*%
%ADD14RoundRect,0.250000X0.337500X0.475000X-0.337500X0.475000X-0.337500X-0.475000X0.337500X-0.475000X0*%
%ADD15R,1.700000X1.700000*%
%ADD16C,1.700000*%
%ADD17RoundRect,0.750000X0.000010X-1.000000X0.000010X1.000000X-0.000010X1.000000X-0.000010X-1.000000X0*%
%ADD18RoundRect,0.750000X1.000000X0.000010X-1.000000X0.000010X-1.000000X-0.000010X1.000000X-0.000010X0*%
%ADD19RoundRect,0.750000X-0.000010X0.750000X-0.000010X-0.750000X0.000010X-0.750000X0.000010X0.750000X0*%
G04 APERTURE END LIST*
D10*
%TO.C,R1*%
X18000000Y-16475000D03*
X20000000Y-16475000D03*
%TD*%
%TO.C,R3*%
X18500000Y-50500000D03*
X20500000Y-50500000D03*
%TD*%
D11*
%TO.C,R6*%
X18000000Y-37500000D03*
X16000000Y-37500000D03*
%TD*%
%TO.C,R2*%
X7750000Y-33500000D03*
X5750000Y-33500000D03*
%TD*%
D12*
%TO.C,IC2*%
X3190000Y-23190000D03*
X3190000Y-25730000D03*
X3190000Y-28270000D03*
X3190000Y-30810000D03*
X10810000Y-30810000D03*
X10810000Y-28270000D03*
X10810000Y-25730000D03*
X10810000Y-23190000D03*
%TD*%
%TO.C,IC3*%
X15440000Y-40190000D03*
X15440000Y-42730000D03*
X15440000Y-45270000D03*
X15440000Y-47810000D03*
X23060000Y-47810000D03*
X23060000Y-45270000D03*
X23060000Y-42730000D03*
X23060000Y-40190000D03*
%TD*%
D13*
%TO.C,R9*%
X12500000Y-59000000D03*
X12500000Y-61000000D03*
%TD*%
%TO.C,R7*%
X15000000Y-59000000D03*
X15000000Y-61000000D03*
%TD*%
%TO.C,R8*%
X10000000Y-59000000D03*
X10000000Y-61000000D03*
%TD*%
D14*
%TO.C,C3*%
X23537500Y-37500000D03*
X21462500Y-37500000D03*
%TD*%
D15*
%TO.C,J9*%
X2750000Y-97250000D03*
D16*
X5290000Y-97250000D03*
X7830000Y-97250000D03*
X10370000Y-97250000D03*
%TD*%
D11*
%TO.C,R4*%
X18000000Y-3500000D03*
X16000000Y-3500000D03*
%TD*%
D15*
%TO.C,J4*%
X5250000Y-56000000D03*
D16*
X7790000Y-56000000D03*
X10330000Y-56000000D03*
X12870000Y-56000000D03*
X15410000Y-56000000D03*
X17950000Y-56000000D03*
X20490000Y-56000000D03*
X23030000Y-56000000D03*
%TD*%
D14*
%TO.C,C2*%
X11537500Y-20500000D03*
X9462500Y-20500000D03*
%TD*%
%TO.C,C1*%
X23537500Y-3500000D03*
X21462500Y-3500000D03*
%TD*%
D11*
%TO.C,R5*%
X5750000Y-20500000D03*
X3750000Y-20500000D03*
%TD*%
D12*
%TO.C,IC1*%
X15190000Y-6190000D03*
X15190000Y-8730000D03*
X15190000Y-11270000D03*
X15190000Y-13810000D03*
X22810000Y-13810000D03*
X22810000Y-11270000D03*
X22810000Y-8730000D03*
X22810000Y-6190000D03*
%TD*%
D17*
%TO.C,J1*%
X5000000Y-10000000D03*
D18*
X7500000Y-7300000D03*
D17*
X10000000Y-10000000D03*
%TD*%
D19*
%TO.C,J7*%
X19600000Y-90000000D03*
X8600000Y-90000000D03*
X17100000Y-90000000D03*
%TD*%
%TO.C,J5*%
X19600000Y-68000000D03*
X8600000Y-68000000D03*
X17100000Y-68000000D03*
%TD*%
D17*
%TO.C,J3*%
X5000000Y-44000000D03*
D18*
X7500000Y-41300000D03*
D17*
X10000000Y-44000000D03*
%TD*%
%TO.C,J2*%
X16000000Y-27000000D03*
D18*
X18500000Y-24300000D03*
D17*
X21000000Y-27000000D03*
%TD*%
D19*
%TO.C,J6*%
X19600000Y-79000000D03*
X8600000Y-79000000D03*
X17100000Y-79000000D03*
%TD*%
M02*
