M48
; DRILL file KiCad 10.0.6 date 2026-09-30T20:24:41
; FORMAT={-:-/ absolute / metric / decimal}
; #@! TF.CreationDate,2026-09-30T20:24:41+02:00
; #@! TF.GenerationSoftware,Kicad,Pcbnew,10.0.6
; #@! TF.FileFunction,Plated,1,2,PTH
FMAT,2
METRIC
; #@! TA.AperFunction,Plated,PTH,ViaDrill
T1C0.300
; #@! TA.AperFunction,Plated,PTH,ComponentDrill
T2C0.500
; #@! TA.AperFunction,Plated,PTH,ComponentDrill
T3C1.000
%
G90
G05
T1
X7.984Y-20.5
X12.484Y-31.0
X12.984Y-30.0
X13.5Y-33.75
X19.984Y-3.5
X19.984Y-37.5
X24.484Y-14.0
X24.484Y-48.0
T3
X2.75Y-97.25
X5.25Y-56.0
X5.29Y-97.25
X7.79Y-56.0
X7.83Y-97.25
X10.33Y-56.0
X10.37Y-97.25
X12.87Y-56.0
X15.41Y-56.0
X17.95Y-56.0
X20.49Y-56.0
X23.03Y-56.0
T2
G00X5.0Y-11.0
M15
G01X5.0Y-9.0
M16
G05
G00X5.0Y-45.0
M15
G01X5.0Y-43.0
M16
G05
G00X8.5Y-7.3
M15
G01X6.5Y-7.3
M16
G05
G00X8.5Y-41.3
M15
G01X6.5Y-41.3
M16
G05
G00X8.6Y-67.25
M15
G01X8.6Y-68.75
M16
G05
G00X8.6Y-78.25
M15
G01X8.6Y-79.75
M16
G05
G00X8.6Y-89.25
M15
G01X8.6Y-90.75
M16
G05
G00X10.0Y-11.0
M15
G01X10.0Y-9.0
M16
G05
G00X10.0Y-45.0
M15
G01X10.0Y-43.0
M16
G05
G00X16.0Y-28.0
M15
G01X16.0Y-26.0
M16
G05
G00X17.1Y-67.25
M15
G01X17.1Y-68.75
M16
G05
G00X17.1Y-78.25
M15
G01X17.1Y-79.75
M16
G05
G00X17.1Y-89.25
M15
G01X17.1Y-90.75
M16
G05
G00X19.5Y-24.3
M15
G01X17.5Y-24.3
M16
G05
G00X19.6Y-67.25
M15
G01X19.6Y-68.75
M16
G05
G00X19.6Y-78.25
M15
G01X19.6Y-79.75
M16
G05
G00X19.6Y-89.25
M15
G01X19.6Y-90.75
M16
G05
G00X21.0Y-28.0
M15
G01X21.0Y-26.0
M16
G05
M30
