%TF.GenerationSoftware,KiCad,Pcbnew,10.0.6*%
%TF.CreationDate,2026-09-30T20:24:50+02:00*%
%TF.ProjectId,conductor_main,636f6e64-7563-4746-9f72-5f6d61696e2e,rev?*%
%TF.SameCoordinates,Original*%
%TF.FileFunction,Copper,L2,Bot*%
%TF.FilePolarity,Positive*%
%FSLAX46Y46*%
G04 Gerber Fmt 4.6, Leading zero omitted, Abs format (unit mm)*
G04 Created by KiCad (PCBNEW 10.0.6) date 2026-09-30 20:24:50*
%MOMM*%
%LPD*%
G01*
G04 APERTURE LIST*
G04 Aperture macros list*
%AMRoundRect*
0 Rectangle with rounded corners*
0 $1 Rounding radius*
0 $2 $3 $4 $5 $6 $7 $8 $9 X,Y pos of 4 corners*
0 Add a 4 corners polygon primitive as box body*
4,1,4,$2,$3,$4,$5,$6,$7,$8,$9,$2,$3,0*
0 Add four circle primitives for the rounded corners*
1,1,$1+$1,$2,$3*
1,1,$1+$1,$4,$5*
1,1,$1+$1,$6,$7*
1,1,$1+$1,$8,$9*
0 Add four rect primitives between the rounded corners*
20,1,$1+$1,$2,$3,$4,$5,0*
20,1,$1+$1,$4,$5,$6,$7,0*
20,1,$1+$1,$6,$7,$8,$9,0*
20,1,$1+$1,$8,$9,$2,$3,0*%
%AMFreePoly0*
4,1,37,0.800000,0.796148,0.878414,0.796148,1.032228,0.765552,1.177117,0.705537,1.307515,0.618408,1.418408,0.507515,1.505537,0.377117,1.565552,0.232228,1.596148,0.078414,1.596148,-0.078414,1.565552,-0.232228,1.505537,-0.377117,1.418408,-0.507515,1.307515,-0.618408,1.177117,-0.705537,1.032228,-0.765552,0.878414,-0.796148,0.800000,-0.796148,0.800000,-0.800000,-1.400000,-0.800000,
-1.403843,-0.796157,-1.439018,-0.796157,-1.511114,-0.766294,-1.566294,-0.711114,-1.596157,-0.639018,-1.596157,-0.603843,-1.600000,-0.600000,-1.600000,0.600000,-1.596157,0.603843,-1.596157,0.639018,-1.566294,0.711114,-1.511114,0.766294,-1.439018,0.796157,-1.403843,0.796157,-1.400000,0.800000,0.800000,0.800000,0.800000,0.796148,0.800000,0.796148,$1*%
%AMFreePoly1*
4,1,37,1.403843,0.796157,1.439018,0.796157,1.511114,0.766294,1.566294,0.711114,1.596157,0.639018,1.596157,0.603843,1.600000,0.600000,1.600000,-0.600000,1.596157,-0.603843,1.596157,-0.639018,1.566294,-0.711114,1.511114,-0.766294,1.439018,-0.796157,1.403843,-0.796157,1.400000,-0.800000,-0.800000,-0.800000,-0.800000,-0.796148,-0.878414,-0.796148,-1.032228,-0.765552,-1.177117,-0.705537,
-1.307515,-0.618408,-1.418408,-0.507515,-1.505537,-0.377117,-1.565552,-0.232228,-1.596148,-0.078414,-1.596148,0.078414,-1.565552,0.232228,-1.505537,0.377117,-1.418408,0.507515,-1.307515,0.618408,-1.177117,0.705537,-1.032228,0.765552,-0.878414,0.796148,-0.800000,0.796148,-0.800000,0.800000,1.400000,0.800000,1.403843,0.796157,1.403843,0.796157,$1*%
%AMFreePoly2*
4,1,37,0.603843,0.796157,0.639018,0.796157,0.711114,0.766294,0.766294,0.711114,0.796157,0.639018,0.796157,0.603843,0.800000,0.600000,0.800000,-0.600000,0.796157,-0.603843,0.796157,-0.639018,0.766294,-0.711114,0.711114,-0.766294,0.639018,-0.796157,0.603843,-0.796157,0.600000,-0.800000,0.000000,-0.800000,0.000000,-0.796148,-0.078414,-0.796148,-0.232228,-0.765552,-0.377117,-0.705537,
-0.507515,-0.618408,-0.618408,-0.507515,-0.705537,-0.377117,-0.765552,-0.232228,-0.796148,-0.078414,-0.796148,0.078414,-0.765552,0.232228,-0.705537,0.377117,-0.618408,0.507515,-0.507515,0.618408,-0.377117,0.705537,-0.232228,0.765552,-0.078414,0.796148,0.000000,0.796148,0.000000,0.800000,0.600000,0.800000,0.603843,0.796157,0.603843,0.796157,$1*%
%AMFreePoly3*
4,1,37,0.000000,0.796148,0.078414,0.796148,0.232228,0.765552,0.377117,0.705537,0.507515,0.618408,0.618408,0.507515,0.705537,0.377117,0.765552,0.232228,0.796148,0.078414,0.796148,-0.078414,0.765552,-0.232228,0.705537,-0.377117,0.618408,-0.507515,0.507515,-0.618408,0.377117,-0.705537,0.232228,-0.765552,0.078414,-0.796148,0.000000,-0.796148,0.000000,-0.800000,-0.600000,-0.800000,
-0.603843,-0.796157,-0.639018,-0.796157,-0.711114,-0.766294,-0.766294,-0.711114,-0.796157,-0.639018,-0.796157,-0.603843,-0.800000,-0.600000,-0.800000,0.600000,-0.796157,0.603843,-0.796157,0.639018,-0.766294,0.711114,-0.711114,0.766294,-0.639018,0.796157,-0.603843,0.796157,-0.600000,0.800000,0.000000,0.800000,0.000000,0.796148,0.000000,0.796148,$1*%
G04 Aperture macros list end*
%TA.AperFunction,ComponentPad*%
%ADD10R,1.700000X1.700000*%
%TD*%
%TA.AperFunction,ComponentPad*%
%ADD11C,1.700000*%
%TD*%
%TA.AperFunction,ComponentPad*%
%ADD12RoundRect,0.250000X-0.550000X-0.550000X0.550000X-0.550000X0.550000X0.550000X-0.550000X0.550000X0*%
%TD*%
%TA.AperFunction,ComponentPad*%
%ADD13C,1.600000*%
%TD*%
%TA.AperFunction,ComponentPad*%
%ADD14RoundRect,0.250000X0.550000X0.550000X-0.550000X0.550000X-0.550000X-0.550000X0.550000X-0.550000X0*%
%TD*%
%TA.AperFunction,SMDPad,CuDef*%
%ADD15FreePoly0,180.000000*%
%TD*%
%TA.AperFunction,ComponentPad*%
%ADD16RoundRect,0.200000X0.600000X0.600000X-0.600000X0.600000X-0.600000X-0.600000X0.600000X-0.600000X0*%
%TD*%
%TA.AperFunction,SMDPad,CuDef*%
%ADD17RoundRect,0.800000X0.800000X0.000010X-0.800000X0.000010X-0.800000X-0.000010X0.800000X-0.000010X0*%
%TD*%
%TA.AperFunction,SMDPad,CuDef*%
%ADD18FreePoly1,180.000000*%
%TD*%
%TA.AperFunction,ComponentPad*%
%ADD19FreePoly2,180.000000*%
%TD*%
%TA.AperFunction,ComponentPad*%
%ADD20FreePoly3,180.000000*%
%TD*%
%TA.AperFunction,ViaPad*%
%ADD21C,0.600000*%
%TD*%
G04 APERTURE END LIST*
D10*
%TO.P,H1,1,Pin_1_1*%
%TO.N,Net-(D1-A)*%
X20775000Y-93576000D03*
D11*
%TO.P,H1,2,Pin_2_2*%
X18235000Y-93576000D03*
%TO.P,H1,3,Pin_3_3*%
%TO.N,GND*%
X20775000Y-91036000D03*
%TO.P,H1,4,Pin_4_4*%
X18235000Y-91036000D03*
%TO.P,H1,5,Pin_5_5*%
X20775000Y-88496000D03*
%TO.P,H1,6,Pin_6_6*%
X18235000Y-88496000D03*
%TO.P,H1,7,Pin_7_7*%
X20775000Y-85956000D03*
%TO.P,H1,8,Pin_8_8*%
X18235000Y-85956000D03*
%TO.P,H1,9,Pin_9_9*%
%TO.N,Net-(D2-K)*%
X20775000Y-83416000D03*
%TO.P,H1,10,Pin_10_10*%
X18235000Y-83416000D03*
%TD*%
D12*
%TO.P,C1,1*%
%TO.N,+12V*%
X13500000Y-63000000D03*
D13*
%TO.P,C1,2*%
%TO.N,GND*%
X16000000Y-63000000D03*
%TD*%
D12*
%TO.P,C3,1*%
%TO.N,+5V*%
X20500000Y-63000000D03*
D13*
%TO.P,C3,2*%
%TO.N,GND*%
X23000000Y-63000000D03*
%TD*%
D14*
%TO.P,C4,1*%
%TO.N,+12V*%
X5500000Y-68250000D03*
D13*
%TO.P,C4,2*%
%TO.N,GND*%
X3000000Y-68250000D03*
%TD*%
D10*
%TO.P,J2,1,Pin_1_1*%
%TO.N,+12V*%
X7500000Y-85000000D03*
D11*
%TO.P,J2,2,Pin_2_2*%
%TO.N,GND*%
X4960000Y-85000000D03*
%TO.P,J2,3,Pin_3_3*%
%TO.N,-12V*%
X7500000Y-82460000D03*
%TO.P,J2,4,Pin_4_4*%
%TO.N,GND*%
X4960000Y-82460000D03*
%TO.P,J2,5,Pin_5_5*%
%TO.N,Net-(A1-GPIO16)*%
X7500000Y-79920000D03*
%TO.P,J2,6,Pin_6_6*%
%TO.N,GND*%
X4960000Y-79920000D03*
%TO.P,J2,7,Pin_7_7*%
%TO.N,unconnected-(J2-Pin_7-Pad7)*%
X7500000Y-77380000D03*
%TO.P,J2,8,Pin_8_8*%
%TO.N,unconnected-(J2-Pin_8-Pad8)*%
X4960000Y-77380000D03*
%TD*%
D12*
%TO.P,C5,1*%
%TO.N,GND*%
X2947380Y-61250000D03*
D13*
%TO.P,C5,2*%
%TO.N,-12V*%
X5447380Y-61250000D03*
%TD*%
D10*
%TO.P,J3,1,Pin_1_1*%
%TO.N,+3.3V*%
X5000000Y-56000000D03*
D11*
%TO.P,J3,2,Pin_2_2*%
%TO.N,GND*%
X7540000Y-56000000D03*
%TO.P,J3,3,Pin_3_3*%
%TO.N,RUN*%
X10080000Y-56000000D03*
%TO.P,J3,4,Pin_4_4*%
%TO.N,RESET*%
X12620000Y-56000000D03*
%TO.P,J3,5,Pin_5_5*%
%TO.N,CLOCK*%
X15160000Y-56000000D03*
%TO.P,J3,6,Pin_6_6*%
%TO.N,MIDI_1*%
X17700000Y-56000000D03*
%TO.P,J3,7,Pin_7_7*%
%TO.N,MIDI_2*%
X20240000Y-56000000D03*
%TO.P,J3,8,Pin_8_8*%
%TO.N,MIDI_3*%
X22780000Y-56000000D03*
%TD*%
D15*
%TO.P,A1,1,GPIO0_1*%
%TO.N,unconnected-(A1-GPIO0-Pad1)*%
X22613063Y-2395000D03*
D16*
%TO.N,unconnected-(A1-GPIO0-Pad1)_1*%
X21813063Y-2395000D03*
D17*
%TO.P,A1,2,GPIO1_2*%
%TO.N,unconnected-(A1-GPIO1-Pad2)*%
X22613063Y-4935000D03*
D13*
%TO.N,unconnected-(A1-GPIO1-Pad2)_1*%
X21813063Y-4935000D03*
D18*
%TO.P,A1,3,GND_3*%
%TO.N,GND*%
X22613063Y-7475000D03*
D19*
X21813063Y-7475000D03*
D17*
%TO.P,A1,4,GPIO2_4*%
%TO.N,unconnected-(A1-GPIO2-Pad4)_1*%
X22613063Y-10015000D03*
D13*
%TO.N,unconnected-(A1-GPIO2-Pad4)*%
X21813063Y-10015000D03*
D17*
%TO.P,A1,5,GPIO3_5*%
%TO.N,unconnected-(A1-GPIO3-Pad5)_1*%
X22613063Y-12555000D03*
D13*
%TO.N,unconnected-(A1-GPIO3-Pad5)*%
X21813063Y-12555000D03*
D17*
%TO.P,A1,6,GPIO4_6*%
%TO.N,MIDI_1*%
X22613063Y-15095000D03*
D13*
X21813063Y-15095000D03*
D17*
%TO.P,A1,7,GPIO5_7*%
%TO.N,MIDI_2*%
X22613063Y-17635000D03*
D13*
X21813063Y-17635000D03*
D18*
%TO.P,A1,8,GND_8*%
%TO.N,GND*%
X22613063Y-20175000D03*
D19*
X21813063Y-20175000D03*
D17*
%TO.P,A1,9,GPIO6_9*%
%TO.N,MIDI_3*%
X22613063Y-22715000D03*
D13*
X21813063Y-22715000D03*
D17*
%TO.P,A1,10,GPIO7_10*%
%TO.N,unconnected-(A1-GPIO7-Pad10)_1*%
X22613063Y-25255000D03*
D13*
%TO.N,unconnected-(A1-GPIO7-Pad10)*%
X21813063Y-25255000D03*
D17*
%TO.P,A1,11,GPIO8_11*%
%TO.N,unconnected-(A1-GPIO8-Pad11)_1*%
X22613063Y-27795000D03*
D13*
%TO.N,unconnected-(A1-GPIO8-Pad11)*%
X21813063Y-27795000D03*
D17*
%TO.P,A1,12,GPIO9_12*%
%TO.N,unconnected-(A1-GPIO9-Pad12)_1*%
X22613063Y-30335000D03*
D13*
%TO.N,unconnected-(A1-GPIO9-Pad12)*%
X21813063Y-30335000D03*
D18*
%TO.P,A1,13,GND_13*%
%TO.N,GND*%
X22613063Y-32875000D03*
D19*
X21813063Y-32875000D03*
D17*
%TO.P,A1,14,GPIO10_14*%
%TO.N,unconnected-(A1-GPIO10-Pad14)_1*%
X22613063Y-35415000D03*
D13*
%TO.N,unconnected-(A1-GPIO10-Pad14)*%
X21813063Y-35415000D03*
D17*
%TO.P,A1,15,GPIO11_15*%
%TO.N,unconnected-(A1-GPIO11-Pad15)*%
X22613063Y-37955000D03*
D13*
%TO.N,unconnected-(A1-GPIO11-Pad15)_1*%
X21813063Y-37955000D03*
D17*
%TO.P,A1,16,GPIO12_16*%
%TO.N,unconnected-(A1-GPIO12-Pad16)*%
X22613063Y-40495000D03*
D13*
%TO.N,unconnected-(A1-GPIO12-Pad16)_1*%
X21813063Y-40495000D03*
D17*
%TO.P,A1,17,GPIO13_17*%
%TO.N,unconnected-(A1-GPIO13-Pad17)_1*%
X22613063Y-43035000D03*
D13*
%TO.N,unconnected-(A1-GPIO13-Pad17)*%
X21813063Y-43035000D03*
D18*
%TO.P,A1,18,GND_18*%
%TO.N,GND*%
X22613063Y-45575000D03*
D19*
X21813063Y-45575000D03*
D17*
%TO.P,A1,19,GPIO14_19*%
%TO.N,unconnected-(A1-GPIO14-Pad19)_1*%
X22613063Y-48115000D03*
D13*
%TO.N,unconnected-(A1-GPIO14-Pad19)*%
X21813063Y-48115000D03*
D17*
%TO.P,A1,20,GPIO15_20*%
%TO.N,unconnected-(A1-GPIO15-Pad20)*%
X22613063Y-50655000D03*
D13*
%TO.N,unconnected-(A1-GPIO15-Pad20)_1*%
X21813063Y-50655000D03*
%TO.P,A1,21,GPIO16_21*%
%TO.N,Net-(A1-GPIO16)*%
X4033063Y-50655000D03*
D17*
X3233063Y-50655000D03*
D13*
%TO.P,A1,22,GPIO17_22*%
%TO.N,unconnected-(A1-GPIO17-Pad22)*%
X4033063Y-48115000D03*
D17*
%TO.N,unconnected-(A1-GPIO17-Pad22)_1*%
X3233063Y-48115000D03*
D20*
%TO.P,A1,23,GND_23*%
%TO.N,GND*%
X4033063Y-45575000D03*
D15*
X3233063Y-45575000D03*
D13*
%TO.P,A1,24,GPIO18_24*%
%TO.N,Net-(A1-GPIO18)*%
X4033063Y-43035000D03*
D17*
X3233063Y-43035000D03*
D13*
%TO.P,A1,25,GPIO19_25*%
%TO.N,Net-(A1-GPIO19)*%
X4033063Y-40495000D03*
D17*
X3233063Y-40495000D03*
D13*
%TO.P,A1,26,GPIO20_26*%
%TO.N,Net-(A1-GPIO20)*%
X4033063Y-37955000D03*
D17*
X3233063Y-37955000D03*
D13*
%TO.P,A1,27,GPIO21_27*%
%TO.N,unconnected-(A1-GPIO21-Pad27)*%
X4033063Y-35415000D03*
D17*
%TO.N,unconnected-(A1-GPIO21-Pad27)_1*%
X3233063Y-35415000D03*
D20*
%TO.P,A1,28,GND_28*%
%TO.N,GND*%
X4033063Y-32875000D03*
D15*
X3233063Y-32875000D03*
D13*
%TO.P,A1,29,GPIO22_29*%
%TO.N,unconnected-(A1-GPIO22-Pad29)*%
X4033063Y-30335000D03*
D17*
%TO.N,unconnected-(A1-GPIO22-Pad29)_1*%
X3233063Y-30335000D03*
D13*
%TO.P,A1,30,RUN_30*%
%TO.N,unconnected-(A1-RUN-Pad30)*%
X4033063Y-27795000D03*
D17*
%TO.N,unconnected-(A1-RUN-Pad30)_1*%
X3233063Y-27795000D03*
D13*
%TO.P,A1,31,GPIO26_ADC0_31*%
%TO.N,unconnected-(A1-GPIO26_ADC0-Pad31)*%
X4033063Y-25255000D03*
D17*
%TO.N,unconnected-(A1-GPIO26_ADC0-Pad31)_1*%
X3233063Y-25255000D03*
D13*
%TO.P,A1,32,GPIO27_ADC1_32*%
%TO.N,unconnected-(A1-GPIO27_ADC1-Pad32)*%
X4033063Y-22715000D03*
D17*
%TO.N,unconnected-(A1-GPIO27_ADC1-Pad32)_1*%
X3233063Y-22715000D03*
D20*
%TO.P,A1,33,AGND_33*%
%TO.N,unconnected-(A1-AGND-Pad33)_1*%
X4033063Y-20175000D03*
D15*
%TO.N,unconnected-(A1-AGND-Pad33)*%
X3233063Y-20175000D03*
D13*
%TO.P,A1,34,GPIO28_ADC2_34*%
%TO.N,unconnected-(A1-GPIO28_ADC2-Pad34)_1*%
X4033063Y-17635000D03*
D17*
%TO.N,unconnected-(A1-GPIO28_ADC2-Pad34)*%
X3233063Y-17635000D03*
D13*
%TO.P,A1,35,ADC_VREF_35*%
%TO.N,unconnected-(A1-ADC_VREF-Pad35)_1*%
X4033063Y-15095000D03*
D17*
%TO.N,unconnected-(A1-ADC_VREF-Pad35)*%
X3233063Y-15095000D03*
D13*
%TO.P,A1,36,3V3_36*%
%TO.N,+3.3V*%
X4033063Y-12555000D03*
D17*
X3233063Y-12555000D03*
D13*
%TO.P,A1,37,3V3_EN_37*%
%TO.N,unconnected-(A1-3V3_EN-Pad37)_1*%
X4033063Y-10015000D03*
D17*
%TO.N,unconnected-(A1-3V3_EN-Pad37)*%
X3233063Y-10015000D03*
D20*
%TO.P,A1,38,GND_38*%
%TO.N,GND*%
X4033063Y-7475000D03*
D15*
X3233063Y-7475000D03*
D13*
%TO.P,A1,39,VSYS_39*%
%TO.N,+5V*%
X4033063Y-4935000D03*
D17*
X3233063Y-4935000D03*
D13*
%TO.P,A1,40,VBUS_40*%
%TO.N,unconnected-(A1-VBUS-Pad40)*%
X4033063Y-2395000D03*
D17*
%TO.N,unconnected-(A1-VBUS-Pad40)_1*%
X3233063Y-2395000D03*
%TD*%
D10*
%TO.P,J1,1,Pin_1_1*%
%TO.N,GND*%
X2750000Y-97250000D03*
D11*
%TO.P,J1,2,Pin_2_2*%
X5290000Y-97250000D03*
%TO.P,J1,3,Pin_3_3*%
X7830000Y-97250000D03*
%TO.P,J1,4,Pin_4_4*%
X10370000Y-97250000D03*
%TD*%
D21*
%TO.N,GND*%
X10500000Y-46500000D03*
X8500000Y-40000000D03*
X14000000Y-40000000D03*
X17500000Y-33500000D03*
X9000000Y-37500000D03*
%TD*%
%TA.AperFunction,Conductor*%
%TO.N,GND*%
G36*
X20309075Y-91228993D02*
G01*
X20374901Y-91343007D01*
X20467993Y-91436099D01*
X20582007Y-91501925D01*
X20645590Y-91518962D01*
X19975370Y-92189181D01*
X19914047Y-92222666D01*
X19887698Y-92225500D01*
X19877134Y-92225500D01*
X19877123Y-92225501D01*
X19817516Y-92231908D01*
X19682671Y-92282202D01*
X19682664Y-92282206D01*
X19567455Y-92368452D01*
X19567452Y-92368455D01*
X19481206Y-92483664D01*
X19481203Y-92483669D01*
X19432189Y-92615083D01*
X19390317Y-92671016D01*
X19324853Y-92695433D01*
X19256580Y-92680581D01*
X19228326Y-92659430D01*
X19114786Y-92545890D01*
X18942817Y-92420949D01*
X18933504Y-92416204D01*
X18882707Y-92368230D01*
X18865912Y-92300409D01*
X18888449Y-92234274D01*
X18933507Y-92195232D01*
X18942555Y-92190622D01*
X18996716Y-92151270D01*
X18996717Y-92151270D01*
X18364408Y-91518962D01*
X18427993Y-91501925D01*
X18542007Y-91436099D01*
X18635099Y-91343007D01*
X18700925Y-91228993D01*
X18717962Y-91165408D01*
X19350270Y-91797717D01*
X19350270Y-91797716D01*
X19389622Y-91743554D01*
X19394514Y-91733954D01*
X19442488Y-91683157D01*
X19510308Y-91666361D01*
X19576444Y-91688897D01*
X19615486Y-91733954D01*
X19620375Y-91743550D01*
X19659728Y-91797716D01*
X20292037Y-91165408D01*
X20309075Y-91228993D01*
G37*
%TD.AperFunction*%
%TA.AperFunction,Conductor*%
G36*
X20309075Y-88688993D02*
G01*
X20374901Y-88803007D01*
X20467993Y-88896099D01*
X20582007Y-88961925D01*
X20645590Y-88978962D01*
X20013282Y-89611269D01*
X20013282Y-89611270D01*
X20067452Y-89650626D01*
X20077048Y-89655516D01*
X20127844Y-89703491D01*
X20144638Y-89771312D01*
X20122100Y-89837447D01*
X20077051Y-89876483D01*
X20067440Y-89881380D01*
X20013282Y-89920727D01*
X20013282Y-89920728D01*
X20645591Y-90553037D01*
X20582007Y-90570075D01*
X20467993Y-90635901D01*
X20374901Y-90728993D01*
X20309075Y-90843007D01*
X20292037Y-90906591D01*
X19659728Y-90274282D01*
X19659727Y-90274282D01*
X19620380Y-90328440D01*
X19615483Y-90338051D01*
X19567506Y-90388845D01*
X19499684Y-90405638D01*
X19433550Y-90383098D01*
X19394516Y-90338048D01*
X19389626Y-90328452D01*
X19350270Y-90274282D01*
X19350269Y-90274282D01*
X18717962Y-90906590D01*
X18700925Y-90843007D01*
X18635099Y-90728993D01*
X18542007Y-90635901D01*
X18427993Y-90570075D01*
X18364409Y-90553037D01*
X18996716Y-89920728D01*
X18942550Y-89881375D01*
X18932954Y-89876486D01*
X18882157Y-89828512D01*
X18865361Y-89760692D01*
X18886288Y-89696895D01*
X18965027Y-89579581D01*
X18364408Y-88978962D01*
X18427993Y-88961925D01*
X18542007Y-88896099D01*
X18635099Y-88803007D01*
X18700925Y-88688993D01*
X18717962Y-88625408D01*
X19350270Y-89257717D01*
X19350270Y-89257716D01*
X19389622Y-89203554D01*
X19394514Y-89193954D01*
X19442488Y-89143157D01*
X19510308Y-89126361D01*
X19576444Y-89148897D01*
X19615486Y-89193954D01*
X19620375Y-89203550D01*
X19659728Y-89257716D01*
X20292037Y-88625408D01*
X20309075Y-88688993D01*
G37*
%TD.AperFunction*%
%TA.AperFunction,Conductor*%
G36*
X20309075Y-86148993D02*
G01*
X20374901Y-86263007D01*
X20467993Y-86356099D01*
X20582007Y-86421925D01*
X20645590Y-86438962D01*
X20013282Y-87071269D01*
X20013282Y-87071270D01*
X20067452Y-87110626D01*
X20077048Y-87115516D01*
X20127844Y-87163491D01*
X20144638Y-87231312D01*
X20122100Y-87297447D01*
X20077051Y-87336483D01*
X20067440Y-87341380D01*
X20013282Y-87380727D01*
X20013282Y-87380728D01*
X20645591Y-88013037D01*
X20582007Y-88030075D01*
X20467993Y-88095901D01*
X20374901Y-88188993D01*
X20309075Y-88303007D01*
X20292037Y-88366591D01*
X19659728Y-87734282D01*
X19659727Y-87734282D01*
X19620380Y-87788440D01*
X19615483Y-87798051D01*
X19567506Y-87848845D01*
X19499684Y-87865638D01*
X19433550Y-87843098D01*
X19394516Y-87798048D01*
X19389626Y-87788452D01*
X19350270Y-87734282D01*
X19350269Y-87734282D01*
X18717962Y-88366590D01*
X18700925Y-88303007D01*
X18635099Y-88188993D01*
X18542007Y-88095901D01*
X18427993Y-88030075D01*
X18364409Y-88013037D01*
X18996716Y-87380728D01*
X18942550Y-87341375D01*
X18932954Y-87336486D01*
X18882157Y-87288512D01*
X18865361Y-87220692D01*
X18886288Y-87156895D01*
X18965027Y-87039581D01*
X18364408Y-86438962D01*
X18427993Y-86421925D01*
X18542007Y-86356099D01*
X18635099Y-86263007D01*
X18700925Y-86148993D01*
X18717962Y-86085408D01*
X19350270Y-86717717D01*
X19350270Y-86717716D01*
X19389622Y-86663554D01*
X19394514Y-86653954D01*
X19442488Y-86603157D01*
X19510308Y-86586361D01*
X19576444Y-86608897D01*
X19615486Y-86653954D01*
X19620375Y-86663550D01*
X19659728Y-86717716D01*
X20292037Y-86085408D01*
X20309075Y-86148993D01*
G37*
%TD.AperFunction*%
%TA.AperFunction,Conductor*%
G36*
X19576444Y-84069999D02*
G01*
X19615486Y-84115056D01*
X19619951Y-84123820D01*
X19744890Y-84295786D01*
X19895213Y-84446109D01*
X20067179Y-84571048D01*
X20067181Y-84571049D01*
X20067184Y-84571051D01*
X20076493Y-84575794D01*
X20127290Y-84623766D01*
X20144087Y-84691587D01*
X20121552Y-84757722D01*
X20076505Y-84796760D01*
X20067446Y-84801376D01*
X20067440Y-84801380D01*
X20013282Y-84840727D01*
X20013282Y-84840728D01*
X20645591Y-85473037D01*
X20582007Y-85490075D01*
X20467993Y-85555901D01*
X20374901Y-85648993D01*
X20309075Y-85763007D01*
X20292037Y-85826591D01*
X19659728Y-85194282D01*
X19659727Y-85194282D01*
X19620380Y-85248440D01*
X19615483Y-85258051D01*
X19567506Y-85308845D01*
X19499684Y-85325638D01*
X19433550Y-85303098D01*
X19394516Y-85258048D01*
X19389626Y-85248452D01*
X19350270Y-85194282D01*
X19350269Y-85194282D01*
X18717962Y-85826590D01*
X18700925Y-85763007D01*
X18635099Y-85648993D01*
X18542007Y-85555901D01*
X18427993Y-85490075D01*
X18364409Y-85473037D01*
X18996716Y-84840728D01*
X18942547Y-84801373D01*
X18942547Y-84801372D01*
X18933500Y-84796763D01*
X18882706Y-84748788D01*
X18865912Y-84680966D01*
X18888451Y-84614832D01*
X18933508Y-84575793D01*
X18942816Y-84571051D01*
X19040610Y-84500000D01*
X19114786Y-84446109D01*
X19114788Y-84446106D01*
X19114792Y-84446104D01*
X19265104Y-84295792D01*
X19265106Y-84295788D01*
X19265109Y-84295786D01*
X19390048Y-84123820D01*
X19390047Y-84123820D01*
X19390051Y-84123816D01*
X19394514Y-84115054D01*
X19442488Y-84064259D01*
X19510308Y-84047463D01*
X19576444Y-84069999D01*
G37*
%TD.AperFunction*%
%TA.AperFunction,Conductor*%
G36*
X6075270Y-83221717D02*
G01*
X6075270Y-83221716D01*
X6114622Y-83167555D01*
X6119232Y-83158507D01*
X6167205Y-83107709D01*
X6235025Y-83090912D01*
X6301161Y-83113447D01*
X6340204Y-83158504D01*
X6344949Y-83167817D01*
X6469890Y-83339786D01*
X6583430Y-83453326D01*
X6616915Y-83514649D01*
X6611931Y-83584341D01*
X6570059Y-83640274D01*
X6539083Y-83657189D01*
X6407669Y-83706203D01*
X6407664Y-83706206D01*
X6292455Y-83792452D01*
X6292452Y-83792455D01*
X6206206Y-83907664D01*
X6206202Y-83907671D01*
X6155908Y-84042517D01*
X6153571Y-84064259D01*
X6149501Y-84102123D01*
X6149500Y-84102135D01*
X6149500Y-84112690D01*
X6129815Y-84179729D01*
X6113181Y-84200371D01*
X5442962Y-84870590D01*
X5425925Y-84807007D01*
X5360099Y-84692993D01*
X5267007Y-84599901D01*
X5152993Y-84534075D01*
X5089409Y-84517037D01*
X5721716Y-83884728D01*
X5667550Y-83845375D01*
X5657954Y-83840486D01*
X5607157Y-83792512D01*
X5590361Y-83724692D01*
X5612897Y-83658556D01*
X5657954Y-83619514D01*
X5667554Y-83614622D01*
X5721716Y-83575270D01*
X5721717Y-83575270D01*
X5089408Y-82942962D01*
X5152993Y-82925925D01*
X5267007Y-82860099D01*
X5360099Y-82767007D01*
X5425925Y-82652993D01*
X5442962Y-82589408D01*
X6075270Y-83221717D01*
G37*
%TD.AperFunction*%
%TA.AperFunction,Conductor*%
G36*
X6075270Y-80681717D02*
G01*
X6075270Y-80681716D01*
X6114622Y-80627555D01*
X6119232Y-80618507D01*
X6167205Y-80567709D01*
X6235025Y-80550912D01*
X6301161Y-80573447D01*
X6340204Y-80618504D01*
X6344949Y-80627817D01*
X6469890Y-80799786D01*
X6620213Y-80950109D01*
X6792182Y-81075050D01*
X6800946Y-81079516D01*
X6851742Y-81127491D01*
X6868536Y-81195312D01*
X6845998Y-81261447D01*
X6800946Y-81300484D01*
X6792182Y-81304949D01*
X6620213Y-81429890D01*
X6469890Y-81580213D01*
X6344949Y-81752182D01*
X6340202Y-81761499D01*
X6292227Y-81812293D01*
X6224405Y-81829087D01*
X6158271Y-81806548D01*
X6119234Y-81761495D01*
X6114626Y-81752452D01*
X6075270Y-81698282D01*
X6075269Y-81698282D01*
X5442962Y-82330590D01*
X5425925Y-82267007D01*
X5360099Y-82152993D01*
X5267007Y-82059901D01*
X5152993Y-81994075D01*
X5089409Y-81977037D01*
X5721716Y-81344728D01*
X5667550Y-81305375D01*
X5657954Y-81300486D01*
X5607157Y-81252512D01*
X5590361Y-81184692D01*
X5612897Y-81118556D01*
X5657954Y-81079514D01*
X5667554Y-81074622D01*
X5721716Y-81035270D01*
X5721717Y-81035270D01*
X5089408Y-80402962D01*
X5152993Y-80385925D01*
X5267007Y-80320099D01*
X5360099Y-80227007D01*
X5425925Y-80112993D01*
X5442962Y-80049408D01*
X6075270Y-80681717D01*
G37*
%TD.AperFunction*%
%TA.AperFunction,Conductor*%
G36*
X6301444Y-78033999D02*
G01*
X6340486Y-78079056D01*
X6344951Y-78087820D01*
X6469890Y-78259786D01*
X6620213Y-78410109D01*
X6792182Y-78535050D01*
X6800946Y-78539516D01*
X6851742Y-78587491D01*
X6868536Y-78655312D01*
X6845998Y-78721447D01*
X6800946Y-78760484D01*
X6792182Y-78764949D01*
X6620213Y-78889890D01*
X6469890Y-79040213D01*
X6344949Y-79212182D01*
X6340202Y-79221499D01*
X6292227Y-79272293D01*
X6224405Y-79289087D01*
X6158271Y-79266548D01*
X6119234Y-79221495D01*
X6114626Y-79212452D01*
X6075270Y-79158282D01*
X6075269Y-79158282D01*
X5442962Y-79790590D01*
X5425925Y-79727007D01*
X5360099Y-79612993D01*
X5267007Y-79519901D01*
X5152993Y-79454075D01*
X5089409Y-79437037D01*
X5721716Y-78804728D01*
X5667547Y-78765373D01*
X5667547Y-78765372D01*
X5658500Y-78760763D01*
X5607706Y-78712788D01*
X5590912Y-78644966D01*
X5613451Y-78578832D01*
X5658508Y-78539793D01*
X5667816Y-78535051D01*
X5747007Y-78477515D01*
X5839786Y-78410109D01*
X5839788Y-78410106D01*
X5839792Y-78410104D01*
X5990104Y-78259792D01*
X5990106Y-78259788D01*
X5990109Y-78259786D01*
X6115048Y-78087820D01*
X6115047Y-78087820D01*
X6115051Y-78087816D01*
X6119514Y-78079054D01*
X6167488Y-78028259D01*
X6235308Y-78011463D01*
X6301444Y-78033999D01*
G37*
%TD.AperFunction*%
%TA.AperFunction,Conductor*%
G36*
X25442539Y-520185D02*
G01*
X25488294Y-572989D01*
X25499500Y-624500D01*
X25499500Y-99375500D01*
X25479815Y-99442539D01*
X25427011Y-99488294D01*
X25375500Y-99499500D01*
X700937Y-99499500D01*
X633898Y-99479815D01*
X588143Y-99427011D01*
X576937Y-99375500D01*
X576937Y-96352155D01*
X1400000Y-96352155D01*
X1400000Y-97000000D01*
X2316988Y-97000000D01*
X2284075Y-97057007D01*
X2250000Y-97184174D01*
X2250000Y-97315826D01*
X2284075Y-97442993D01*
X2316988Y-97500000D01*
X1400000Y-97500000D01*
X1400000Y-98147844D01*
X1406401Y-98207372D01*
X1406403Y-98207379D01*
X1456645Y-98342086D01*
X1456649Y-98342093D01*
X1542809Y-98457187D01*
X1542812Y-98457190D01*
X1657906Y-98543350D01*
X1657913Y-98543354D01*
X1792620Y-98593596D01*
X1792627Y-98593598D01*
X1852155Y-98599999D01*
X1852172Y-98600000D01*
X2500000Y-98600000D01*
X2500000Y-97683012D01*
X2557007Y-97715925D01*
X2684174Y-97750000D01*
X2815826Y-97750000D01*
X2942993Y-97715925D01*
X3000000Y-97683012D01*
X3000000Y-98600000D01*
X3647828Y-98600000D01*
X3647844Y-98599999D01*
X3707372Y-98593598D01*
X3707379Y-98593596D01*
X3842086Y-98543354D01*
X3842093Y-98543350D01*
X3957187Y-98457190D01*
X3957190Y-98457187D01*
X4043350Y-98342093D01*
X4043354Y-98342086D01*
X4065529Y-98282632D01*
X4104319Y-98109390D01*
X4104682Y-98108734D01*
X4104642Y-98107984D01*
X4137642Y-98048802D01*
X4807037Y-97379408D01*
X4824075Y-97442993D01*
X4889901Y-97557007D01*
X4982993Y-97650099D01*
X5097007Y-97715925D01*
X5160590Y-97732962D01*
X4528282Y-98365269D01*
X4528282Y-98365270D01*
X4582449Y-98404624D01*
X4771782Y-98501095D01*
X4973870Y-98566757D01*
X5183754Y-98600000D01*
X5396246Y-98600000D01*
X5606127Y-98566757D01*
X5606130Y-98566757D01*
X5808217Y-98501095D01*
X5997554Y-98404622D01*
X6051716Y-98365270D01*
X6051717Y-98365270D01*
X5419408Y-97732962D01*
X5482993Y-97715925D01*
X5597007Y-97650099D01*
X5690099Y-97557007D01*
X5755925Y-97442993D01*
X5772962Y-97379408D01*
X6405270Y-98011717D01*
X6405270Y-98011716D01*
X6444622Y-97957554D01*
X6449514Y-97947954D01*
X6497488Y-97897157D01*
X6565308Y-97880361D01*
X6631444Y-97902897D01*
X6670486Y-97947954D01*
X6675375Y-97957550D01*
X6714728Y-98011716D01*
X7347037Y-97379408D01*
X7364075Y-97442993D01*
X7429901Y-97557007D01*
X7522993Y-97650099D01*
X7637007Y-97715925D01*
X7700590Y-97732962D01*
X7068282Y-98365269D01*
X7068282Y-98365270D01*
X7122449Y-98404624D01*
X7311782Y-98501095D01*
X7513870Y-98566757D01*
X7723754Y-98600000D01*
X7936246Y-98600000D01*
X8146127Y-98566757D01*
X8146130Y-98566757D01*
X8348217Y-98501095D01*
X8537554Y-98404622D01*
X8591716Y-98365270D01*
X8591717Y-98365270D01*
X7959408Y-97732962D01*
X8022993Y-97715925D01*
X8137007Y-97650099D01*
X8230099Y-97557007D01*
X8295925Y-97442993D01*
X8312962Y-97379408D01*
X8945270Y-98011717D01*
X8945270Y-98011716D01*
X8984622Y-97957554D01*
X8989514Y-97947954D01*
X9037488Y-97897157D01*
X9105308Y-97880361D01*
X9171444Y-97902897D01*
X9210486Y-97947954D01*
X9215375Y-97957550D01*
X9254728Y-98011716D01*
X9887037Y-97379408D01*
X9904075Y-97442993D01*
X9969901Y-97557007D01*
X10062993Y-97650099D01*
X10177007Y-97715925D01*
X10240590Y-97732962D01*
X9608282Y-98365269D01*
X9608282Y-98365270D01*
X9662449Y-98404624D01*
X9851782Y-98501095D01*
X10053870Y-98566757D01*
X10263754Y-98600000D01*
X10476246Y-98600000D01*
X10686127Y-98566757D01*
X10686130Y-98566757D01*
X10888217Y-98501095D01*
X11077554Y-98404622D01*
X11131716Y-98365270D01*
X11131717Y-98365270D01*
X10499408Y-97732962D01*
X10562993Y-97715925D01*
X10677007Y-97650099D01*
X10770099Y-97557007D01*
X10835925Y-97442993D01*
X10852962Y-97379408D01*
X11485270Y-98011717D01*
X11485270Y-98011716D01*
X11524622Y-97957554D01*
X11621095Y-97768217D01*
X11686757Y-97566130D01*
X11686757Y-97566127D01*
X11720000Y-97356246D01*
X11720000Y-97143753D01*
X11686757Y-96933872D01*
X11686757Y-96933869D01*
X11621095Y-96731782D01*
X11524624Y-96542449D01*
X11485270Y-96488282D01*
X11485269Y-96488282D01*
X10852962Y-97120590D01*
X10835925Y-97057007D01*
X10770099Y-96942993D01*
X10677007Y-96849901D01*
X10562993Y-96784075D01*
X10499409Y-96767037D01*
X11131716Y-96134728D01*
X11077550Y-96095375D01*
X10888217Y-95998904D01*
X10686129Y-95933242D01*
X10476246Y-95900000D01*
X10263754Y-95900000D01*
X10053872Y-95933242D01*
X10053869Y-95933242D01*
X9851782Y-95998904D01*
X9662439Y-96095380D01*
X9608282Y-96134727D01*
X9608282Y-96134728D01*
X10240591Y-96767037D01*
X10177007Y-96784075D01*
X10062993Y-96849901D01*
X9969901Y-96942993D01*
X9904075Y-97057007D01*
X9887037Y-97120591D01*
X9254728Y-96488282D01*
X9254727Y-96488282D01*
X9215380Y-96542440D01*
X9210483Y-96552051D01*
X9162506Y-96602845D01*
X9094684Y-96619638D01*
X9028550Y-96597098D01*
X8989516Y-96552048D01*
X8984626Y-96542452D01*
X8945270Y-96488282D01*
X8945269Y-96488282D01*
X8312962Y-97120590D01*
X8295925Y-97057007D01*
X8230099Y-96942993D01*
X8137007Y-96849901D01*
X8022993Y-96784075D01*
X7959409Y-96767037D01*
X8591716Y-96134728D01*
X8537550Y-96095375D01*
X8348217Y-95998904D01*
X8146129Y-95933242D01*
X7936246Y-95900000D01*
X7723754Y-95900000D01*
X7513872Y-95933242D01*
X7513869Y-95933242D01*
X7311782Y-95998904D01*
X7122439Y-96095380D01*
X7068282Y-96134727D01*
X7068282Y-96134728D01*
X7700591Y-96767037D01*
X7637007Y-96784075D01*
X7522993Y-96849901D01*
X7429901Y-96942993D01*
X7364075Y-97057007D01*
X7347037Y-97120591D01*
X6714728Y-96488282D01*
X6714727Y-96488282D01*
X6675380Y-96542440D01*
X6670483Y-96552051D01*
X6622506Y-96602845D01*
X6554684Y-96619638D01*
X6488550Y-96597098D01*
X6449516Y-96552048D01*
X6444626Y-96542452D01*
X6405270Y-96488282D01*
X6405269Y-96488282D01*
X5772962Y-97120590D01*
X5755925Y-97057007D01*
X5690099Y-96942993D01*
X5597007Y-96849901D01*
X5482993Y-96784075D01*
X5419409Y-96767037D01*
X6051716Y-96134728D01*
X5997550Y-96095375D01*
X5808217Y-95998904D01*
X5606129Y-95933242D01*
X5396246Y-95900000D01*
X5183754Y-95900000D01*
X4973872Y-95933242D01*
X4973869Y-95933242D01*
X4771782Y-95998904D01*
X4582439Y-96095380D01*
X4528282Y-96134727D01*
X4528282Y-96134728D01*
X5160591Y-96767037D01*
X5097007Y-96784075D01*
X4982993Y-96849901D01*
X4889901Y-96942993D01*
X4824075Y-97057007D01*
X4807037Y-97120591D01*
X4137642Y-96451196D01*
X4104319Y-96390609D01*
X4065527Y-96217364D01*
X4043354Y-96157913D01*
X4043350Y-96157906D01*
X3957190Y-96042812D01*
X3957187Y-96042809D01*
X3842093Y-95956649D01*
X3842086Y-95956645D01*
X3707379Y-95906403D01*
X3707372Y-95906401D01*
X3647844Y-95900000D01*
X3000000Y-95900000D01*
X3000000Y-96816988D01*
X2942993Y-96784075D01*
X2815826Y-96750000D01*
X2684174Y-96750000D01*
X2557007Y-96784075D01*
X2500000Y-96816988D01*
X2500000Y-95900000D01*
X1852155Y-95900000D01*
X1792627Y-95906401D01*
X1792620Y-95906403D01*
X1657913Y-95956645D01*
X1657906Y-95956649D01*
X1542812Y-96042809D01*
X1542809Y-96042812D01*
X1456649Y-96157906D01*
X1456645Y-96157913D01*
X1406403Y-96292620D01*
X1406401Y-96292627D01*
X1400000Y-96352155D01*
X576937Y-96352155D01*
X576937Y-77273713D01*
X3609500Y-77273713D01*
X3609500Y-77486286D01*
X3642753Y-77696239D01*
X3708444Y-77898414D01*
X3804951Y-78087820D01*
X3929890Y-78259786D01*
X4080213Y-78410109D01*
X4252179Y-78535048D01*
X4252181Y-78535049D01*
X4252184Y-78535051D01*
X4261493Y-78539794D01*
X4312290Y-78587766D01*
X4329087Y-78655587D01*
X4306552Y-78721722D01*
X4261505Y-78760760D01*
X4252446Y-78765376D01*
X4252440Y-78765380D01*
X4198282Y-78804727D01*
X4198282Y-78804728D01*
X4830591Y-79437037D01*
X4767007Y-79454075D01*
X4652993Y-79519901D01*
X4559901Y-79612993D01*
X4494075Y-79727007D01*
X4477037Y-79790591D01*
X3844728Y-79158282D01*
X3844727Y-79158282D01*
X3805380Y-79212439D01*
X3708904Y-79401782D01*
X3643242Y-79603869D01*
X3643242Y-79603872D01*
X3610000Y-79813753D01*
X3610000Y-80026246D01*
X3643242Y-80236127D01*
X3643242Y-80236130D01*
X3708904Y-80438217D01*
X3805375Y-80627550D01*
X3844728Y-80681716D01*
X4477037Y-80049408D01*
X4494075Y-80112993D01*
X4559901Y-80227007D01*
X4652993Y-80320099D01*
X4767007Y-80385925D01*
X4830591Y-80402962D01*
X4229971Y-81003581D01*
X4308711Y-81120895D01*
X4309920Y-81124729D01*
X4312844Y-81127491D01*
X4320343Y-81157778D01*
X4329727Y-81187529D01*
X4328671Y-81191408D01*
X4329638Y-81195312D01*
X4319573Y-81224844D01*
X4311383Y-81254947D01*
X4308397Y-81257640D01*
X4307100Y-81261447D01*
X4262051Y-81300483D01*
X4252440Y-81305380D01*
X4198282Y-81344727D01*
X4198282Y-81344728D01*
X4830591Y-81977037D01*
X4767007Y-81994075D01*
X4652993Y-82059901D01*
X4559901Y-82152993D01*
X4494075Y-82267007D01*
X4477037Y-82330591D01*
X3844728Y-81698282D01*
X3844727Y-81698282D01*
X3805380Y-81752439D01*
X3708904Y-81941782D01*
X3643242Y-82143869D01*
X3643242Y-82143872D01*
X3610000Y-82353753D01*
X3610000Y-82566246D01*
X3643242Y-82776127D01*
X3643242Y-82776130D01*
X3708904Y-82978217D01*
X3805375Y-83167550D01*
X3844728Y-83221716D01*
X4477037Y-82589408D01*
X4494075Y-82652993D01*
X4559901Y-82767007D01*
X4652993Y-82860099D01*
X4767007Y-82925925D01*
X4830591Y-82942962D01*
X4229971Y-83543581D01*
X4308711Y-83660895D01*
X4309920Y-83664729D01*
X4312844Y-83667491D01*
X4320343Y-83697778D01*
X4329727Y-83727529D01*
X4328671Y-83731408D01*
X4329638Y-83735312D01*
X4319573Y-83764844D01*
X4311383Y-83794947D01*
X4308397Y-83797640D01*
X4307100Y-83801447D01*
X4262051Y-83840483D01*
X4252440Y-83845380D01*
X4198282Y-83884727D01*
X4198282Y-83884728D01*
X4830591Y-84517037D01*
X4767007Y-84534075D01*
X4652993Y-84599901D01*
X4559901Y-84692993D01*
X4494075Y-84807007D01*
X4477037Y-84870591D01*
X3844728Y-84238282D01*
X3844727Y-84238282D01*
X3805380Y-84292439D01*
X3708904Y-84481782D01*
X3643242Y-84683869D01*
X3643242Y-84683872D01*
X3610000Y-84893753D01*
X3610000Y-85106246D01*
X3643242Y-85316127D01*
X3643242Y-85316130D01*
X3708904Y-85518217D01*
X3805375Y-85707550D01*
X3844728Y-85761716D01*
X4477037Y-85129408D01*
X4494075Y-85192993D01*
X4559901Y-85307007D01*
X4652993Y-85400099D01*
X4767007Y-85465925D01*
X4830590Y-85482962D01*
X4198282Y-86115269D01*
X4198282Y-86115270D01*
X4252449Y-86154624D01*
X4441782Y-86251095D01*
X4643870Y-86316757D01*
X4853754Y-86350000D01*
X5066246Y-86350000D01*
X5276127Y-86316757D01*
X5276130Y-86316757D01*
X5478217Y-86251095D01*
X5667554Y-86154622D01*
X5721716Y-86115270D01*
X5721717Y-86115270D01*
X5089408Y-85482962D01*
X5152993Y-85465925D01*
X5267007Y-85400099D01*
X5360099Y-85307007D01*
X5425925Y-85192993D01*
X5442962Y-85129408D01*
X6113181Y-85799628D01*
X6146666Y-85860951D01*
X6149500Y-85887300D01*
X6149500Y-85897865D01*
X6149501Y-85897876D01*
X6155908Y-85957483D01*
X6206202Y-86092328D01*
X6206206Y-86092335D01*
X6292452Y-86207544D01*
X6292455Y-86207547D01*
X6407664Y-86293793D01*
X6407671Y-86293797D01*
X6542517Y-86344091D01*
X6542516Y-86344091D01*
X6549444Y-86344835D01*
X6602127Y-86350500D01*
X8397872Y-86350499D01*
X8457483Y-86344091D01*
X8592331Y-86293796D01*
X8707546Y-86207546D01*
X8793796Y-86092331D01*
X8844091Y-85957483D01*
X8850500Y-85897873D01*
X8850499Y-85000000D01*
X8850499Y-84102129D01*
X8850498Y-84102123D01*
X8850497Y-84102116D01*
X8844091Y-84042517D01*
X8803771Y-83934414D01*
X8793797Y-83907671D01*
X8793793Y-83907664D01*
X8707547Y-83792455D01*
X8707544Y-83792452D01*
X8592335Y-83706206D01*
X8592328Y-83706202D01*
X8460917Y-83657189D01*
X8404983Y-83615318D01*
X8380566Y-83549853D01*
X8395418Y-83481580D01*
X8416563Y-83453332D01*
X8530104Y-83339792D01*
X8551958Y-83309713D01*
X16884500Y-83309713D01*
X16884500Y-83522286D01*
X16917621Y-83731408D01*
X16917754Y-83732243D01*
X16974754Y-83907671D01*
X16983444Y-83934414D01*
X17079951Y-84123820D01*
X17204890Y-84295786D01*
X17355213Y-84446109D01*
X17527179Y-84571048D01*
X17527181Y-84571049D01*
X17527184Y-84571051D01*
X17536493Y-84575794D01*
X17587290Y-84623766D01*
X17604087Y-84691587D01*
X17581552Y-84757722D01*
X17536505Y-84796760D01*
X17527446Y-84801376D01*
X17527440Y-84801380D01*
X17473282Y-84840727D01*
X17473282Y-84840728D01*
X18105591Y-85473037D01*
X18042007Y-85490075D01*
X17927993Y-85555901D01*
X17834901Y-85648993D01*
X17769075Y-85763007D01*
X17752037Y-85826591D01*
X17119728Y-85194282D01*
X17119727Y-85194282D01*
X17080380Y-85248439D01*
X16983904Y-85437782D01*
X16918242Y-85639869D01*
X16918242Y-85639872D01*
X16885000Y-85849753D01*
X16885000Y-86062246D01*
X16918242Y-86272127D01*
X16918242Y-86272130D01*
X16983904Y-86474217D01*
X17080375Y-86663550D01*
X17119728Y-86717716D01*
X17752037Y-86085408D01*
X17769075Y-86148993D01*
X17834901Y-86263007D01*
X17927993Y-86356099D01*
X18042007Y-86421925D01*
X18105591Y-86438962D01*
X17504971Y-87039581D01*
X17583711Y-87156895D01*
X17584920Y-87160729D01*
X17587844Y-87163491D01*
X17595343Y-87193778D01*
X17604727Y-87223529D01*
X17603671Y-87227408D01*
X17604638Y-87231312D01*
X17594573Y-87260844D01*
X17586383Y-87290947D01*
X17583397Y-87293640D01*
X17582100Y-87297447D01*
X17537051Y-87336483D01*
X17527440Y-87341380D01*
X17473282Y-87380727D01*
X17473282Y-87380728D01*
X18105591Y-88013037D01*
X18042007Y-88030075D01*
X17927993Y-88095901D01*
X17834901Y-88188993D01*
X17769075Y-88303007D01*
X17752037Y-88366591D01*
X17119728Y-87734282D01*
X17119727Y-87734282D01*
X17080380Y-87788439D01*
X16983904Y-87977782D01*
X16918242Y-88179869D01*
X16918242Y-88179872D01*
X16885000Y-88389753D01*
X16885000Y-88602246D01*
X16918242Y-88812127D01*
X16918242Y-88812130D01*
X16983904Y-89014217D01*
X17080375Y-89203550D01*
X17119728Y-89257716D01*
X17752037Y-88625408D01*
X17769075Y-88688993D01*
X17834901Y-88803007D01*
X17927993Y-88896099D01*
X18042007Y-88961925D01*
X18105591Y-88978962D01*
X17504971Y-89579581D01*
X17583711Y-89696895D01*
X17584920Y-89700729D01*
X17587844Y-89703491D01*
X17595343Y-89733778D01*
X17604727Y-89763529D01*
X17603671Y-89767408D01*
X17604638Y-89771312D01*
X17594573Y-89800844D01*
X17586383Y-89830947D01*
X17583397Y-89833640D01*
X17582100Y-89837447D01*
X17537051Y-89876483D01*
X17527440Y-89881380D01*
X17473282Y-89920727D01*
X17473282Y-89920728D01*
X18105591Y-90553037D01*
X18042007Y-90570075D01*
X17927993Y-90635901D01*
X17834901Y-90728993D01*
X17769075Y-90843007D01*
X17752037Y-90906591D01*
X17119728Y-90274282D01*
X17119727Y-90274282D01*
X17080380Y-90328439D01*
X16983904Y-90517782D01*
X16918242Y-90719869D01*
X16918242Y-90719872D01*
X16885000Y-90929753D01*
X16885000Y-91142246D01*
X16918242Y-91352127D01*
X16918242Y-91352130D01*
X16983904Y-91554217D01*
X17080375Y-91743550D01*
X17119728Y-91797716D01*
X17752037Y-91165408D01*
X17769075Y-91228993D01*
X17834901Y-91343007D01*
X17927993Y-91436099D01*
X18042007Y-91501925D01*
X18105590Y-91518962D01*
X17473282Y-92151269D01*
X17473282Y-92151270D01*
X17527452Y-92190626D01*
X17527451Y-92190626D01*
X17536495Y-92195234D01*
X17587292Y-92243208D01*
X17604087Y-92311029D01*
X17581550Y-92377164D01*
X17536499Y-92416202D01*
X17527182Y-92420949D01*
X17355213Y-92545890D01*
X17204890Y-92696213D01*
X17079951Y-92868179D01*
X16983444Y-93057585D01*
X16917753Y-93259760D01*
X16884500Y-93469713D01*
X16884500Y-93682286D01*
X16917753Y-93892239D01*
X16983444Y-94094414D01*
X17079951Y-94283820D01*
X17204890Y-94455786D01*
X17355213Y-94606109D01*
X17527179Y-94731048D01*
X17527181Y-94731049D01*
X17527184Y-94731051D01*
X17716588Y-94827557D01*
X17918757Y-94893246D01*
X18128713Y-94926500D01*
X18128714Y-94926500D01*
X18341286Y-94926500D01*
X18341287Y-94926500D01*
X18551243Y-94893246D01*
X18753412Y-94827557D01*
X18942816Y-94731051D01*
X19114792Y-94606104D01*
X19228329Y-94492566D01*
X19289648Y-94459084D01*
X19359340Y-94464068D01*
X19415274Y-94505939D01*
X19432189Y-94536917D01*
X19481202Y-94668328D01*
X19481206Y-94668335D01*
X19567452Y-94783544D01*
X19567455Y-94783547D01*
X19682664Y-94869793D01*
X19682671Y-94869797D01*
X19817517Y-94920091D01*
X19817516Y-94920091D01*
X19824444Y-94920835D01*
X19877127Y-94926500D01*
X21672872Y-94926499D01*
X21732483Y-94920091D01*
X21867331Y-94869796D01*
X21982546Y-94783546D01*
X22068796Y-94668331D01*
X22119091Y-94533483D01*
X22125500Y-94473873D01*
X22125499Y-92678128D01*
X22119091Y-92618517D01*
X22117810Y-92615083D01*
X22068797Y-92483671D01*
X22068793Y-92483664D01*
X21982547Y-92368455D01*
X21982544Y-92368452D01*
X21867335Y-92282206D01*
X21867328Y-92282202D01*
X21732482Y-92231908D01*
X21732483Y-92231908D01*
X21672883Y-92225501D01*
X21672881Y-92225500D01*
X21672873Y-92225500D01*
X21672865Y-92225500D01*
X21662309Y-92225500D01*
X21595270Y-92205815D01*
X21574628Y-92189181D01*
X20904408Y-91518962D01*
X20967993Y-91501925D01*
X21082007Y-91436099D01*
X21175099Y-91343007D01*
X21240925Y-91228993D01*
X21257962Y-91165408D01*
X21890270Y-91797717D01*
X21890270Y-91797716D01*
X21929622Y-91743554D01*
X22026095Y-91554217D01*
X22091757Y-91352130D01*
X22091757Y-91352127D01*
X22125000Y-91142246D01*
X22125000Y-90929753D01*
X22091757Y-90719872D01*
X22091757Y-90719869D01*
X22026095Y-90517782D01*
X21929624Y-90328449D01*
X21890270Y-90274282D01*
X21890269Y-90274282D01*
X21257962Y-90906590D01*
X21240925Y-90843007D01*
X21175099Y-90728993D01*
X21082007Y-90635901D01*
X20967993Y-90570075D01*
X20904409Y-90553037D01*
X21536716Y-89920728D01*
X21482550Y-89881375D01*
X21472954Y-89876486D01*
X21422157Y-89828512D01*
X21405361Y-89760692D01*
X21427897Y-89694556D01*
X21472954Y-89655514D01*
X21482554Y-89650622D01*
X21536716Y-89611270D01*
X21536717Y-89611270D01*
X20904408Y-88978962D01*
X20967993Y-88961925D01*
X21082007Y-88896099D01*
X21175099Y-88803007D01*
X21240925Y-88688993D01*
X21257962Y-88625408D01*
X21890270Y-89257717D01*
X21890270Y-89257716D01*
X21929622Y-89203554D01*
X22026095Y-89014217D01*
X22091757Y-88812130D01*
X22091757Y-88812127D01*
X22125000Y-88602246D01*
X22125000Y-88389753D01*
X22091757Y-88179872D01*
X22091757Y-88179869D01*
X22026095Y-87977782D01*
X21929624Y-87788449D01*
X21890270Y-87734282D01*
X21890269Y-87734282D01*
X21257962Y-88366590D01*
X21240925Y-88303007D01*
X21175099Y-88188993D01*
X21082007Y-88095901D01*
X20967993Y-88030075D01*
X20904409Y-88013037D01*
X21536716Y-87380728D01*
X21482550Y-87341375D01*
X21472954Y-87336486D01*
X21422157Y-87288512D01*
X21405361Y-87220692D01*
X21427897Y-87154556D01*
X21472954Y-87115514D01*
X21482554Y-87110622D01*
X21536716Y-87071270D01*
X21536717Y-87071270D01*
X20904408Y-86438962D01*
X20967993Y-86421925D01*
X21082007Y-86356099D01*
X21175099Y-86263007D01*
X21240925Y-86148993D01*
X21257962Y-86085408D01*
X21890270Y-86717717D01*
X21890270Y-86717716D01*
X21929622Y-86663554D01*
X22026095Y-86474217D01*
X22091757Y-86272130D01*
X22091757Y-86272127D01*
X22125000Y-86062246D01*
X22125000Y-85849753D01*
X22091757Y-85639872D01*
X22091757Y-85639869D01*
X22026095Y-85437782D01*
X21929624Y-85248449D01*
X21890270Y-85194282D01*
X21890269Y-85194282D01*
X21257962Y-85826590D01*
X21240925Y-85763007D01*
X21175099Y-85648993D01*
X21082007Y-85555901D01*
X20967993Y-85490075D01*
X20904409Y-85473037D01*
X21536716Y-84840728D01*
X21482547Y-84801373D01*
X21482547Y-84801372D01*
X21473500Y-84796763D01*
X21422706Y-84748788D01*
X21405912Y-84680966D01*
X21428451Y-84614832D01*
X21473508Y-84575793D01*
X21482816Y-84571051D01*
X21580610Y-84500000D01*
X21654786Y-84446109D01*
X21654788Y-84446106D01*
X21654792Y-84446104D01*
X21805104Y-84295792D01*
X21805106Y-84295788D01*
X21805109Y-84295786D01*
X21930048Y-84123820D01*
X21930047Y-84123820D01*
X21930051Y-84123816D01*
X22026557Y-83934412D01*
X22092246Y-83732243D01*
X22125500Y-83522287D01*
X22125500Y-83309713D01*
X22092246Y-83099757D01*
X22026557Y-82897588D01*
X21930051Y-82708184D01*
X21930049Y-82708181D01*
X21930048Y-82708179D01*
X21805109Y-82536213D01*
X21654786Y-82385890D01*
X21482820Y-82260951D01*
X21293414Y-82164444D01*
X21293413Y-82164443D01*
X21293412Y-82164443D01*
X21091243Y-82098754D01*
X21091241Y-82098753D01*
X21091240Y-82098753D01*
X20929957Y-82073208D01*
X20881287Y-82065500D01*
X20668713Y-82065500D01*
X20620042Y-82073208D01*
X20458760Y-82098753D01*
X20256585Y-82164444D01*
X20067179Y-82260951D01*
X19895213Y-82385890D01*
X19744890Y-82536213D01*
X19619949Y-82708182D01*
X19615484Y-82716946D01*
X19567509Y-82767742D01*
X19499688Y-82784536D01*
X19433553Y-82761998D01*
X19394516Y-82716946D01*
X19390050Y-82708182D01*
X19265109Y-82536213D01*
X19114786Y-82385890D01*
X18942820Y-82260951D01*
X18753414Y-82164444D01*
X18753413Y-82164443D01*
X18753412Y-82164443D01*
X18551243Y-82098754D01*
X18551241Y-82098753D01*
X18551240Y-82098753D01*
X18389957Y-82073208D01*
X18341287Y-82065500D01*
X18128713Y-82065500D01*
X18080042Y-82073208D01*
X17918760Y-82098753D01*
X17716585Y-82164444D01*
X17527179Y-82260951D01*
X17355213Y-82385890D01*
X17204890Y-82536213D01*
X17079951Y-82708179D01*
X16983444Y-82897585D01*
X16917753Y-83099760D01*
X16884500Y-83309713D01*
X8551958Y-83309713D01*
X8655051Y-83167816D01*
X8751557Y-82978412D01*
X8817246Y-82776243D01*
X8850500Y-82566287D01*
X8850500Y-82353713D01*
X8817246Y-82143757D01*
X8751557Y-81941588D01*
X8655051Y-81752184D01*
X8655049Y-81752181D01*
X8655048Y-81752179D01*
X8530109Y-81580213D01*
X8379786Y-81429890D01*
X8207820Y-81304951D01*
X8207115Y-81304591D01*
X8199054Y-81300485D01*
X8148259Y-81252512D01*
X8131463Y-81184692D01*
X8153999Y-81118556D01*
X8199054Y-81079515D01*
X8207816Y-81075051D01*
X8306187Y-81003581D01*
X8379786Y-80950109D01*
X8379788Y-80950106D01*
X8379792Y-80950104D01*
X8530104Y-80799792D01*
X8530106Y-80799788D01*
X8530109Y-80799786D01*
X8655048Y-80627820D01*
X8655050Y-80627817D01*
X8655051Y-80627816D01*
X8751557Y-80438412D01*
X8817246Y-80236243D01*
X8850500Y-80026287D01*
X8850500Y-79813713D01*
X8817246Y-79603757D01*
X8751557Y-79401588D01*
X8655051Y-79212184D01*
X8655049Y-79212181D01*
X8655048Y-79212179D01*
X8530109Y-79040213D01*
X8379786Y-78889890D01*
X8207820Y-78764951D01*
X8199600Y-78760763D01*
X8199054Y-78760485D01*
X8148259Y-78712512D01*
X8131463Y-78644692D01*
X8153999Y-78578556D01*
X8199054Y-78539515D01*
X8207816Y-78535051D01*
X8229789Y-78519086D01*
X8379786Y-78410109D01*
X8379788Y-78410106D01*
X8379792Y-78410104D01*
X8530104Y-78259792D01*
X8530106Y-78259788D01*
X8530109Y-78259786D01*
X8655048Y-78087820D01*
X8655047Y-78087820D01*
X8655051Y-78087816D01*
X8751557Y-77898412D01*
X8817246Y-77696243D01*
X8850500Y-77486287D01*
X8850500Y-77273713D01*
X8817246Y-77063757D01*
X8751557Y-76861588D01*
X8655051Y-76672184D01*
X8655049Y-76672181D01*
X8655048Y-76672179D01*
X8530109Y-76500213D01*
X8379786Y-76349890D01*
X8207820Y-76224951D01*
X8018414Y-76128444D01*
X8018413Y-76128443D01*
X8018412Y-76128443D01*
X7816243Y-76062754D01*
X7816241Y-76062753D01*
X7816240Y-76062753D01*
X7654957Y-76037208D01*
X7606287Y-76029500D01*
X7393713Y-76029500D01*
X7345042Y-76037208D01*
X7183760Y-76062753D01*
X6981585Y-76128444D01*
X6792179Y-76224951D01*
X6620213Y-76349890D01*
X6469890Y-76500213D01*
X6344949Y-76672182D01*
X6340484Y-76680946D01*
X6292509Y-76731742D01*
X6224688Y-76748536D01*
X6158553Y-76725998D01*
X6119516Y-76680946D01*
X6115050Y-76672182D01*
X5990109Y-76500213D01*
X5839786Y-76349890D01*
X5667820Y-76224951D01*
X5478414Y-76128444D01*
X5478413Y-76128443D01*
X5478412Y-76128443D01*
X5276243Y-76062754D01*
X5276241Y-76062753D01*
X5276240Y-76062753D01*
X5114957Y-76037208D01*
X5066287Y-76029500D01*
X4853713Y-76029500D01*
X4805042Y-76037208D01*
X4643760Y-76062753D01*
X4441585Y-76128444D01*
X4252179Y-76224951D01*
X4080213Y-76349890D01*
X3929890Y-76500213D01*
X3804951Y-76672179D01*
X3708444Y-76861585D01*
X3642753Y-77063760D01*
X3609500Y-77273713D01*
X576937Y-77273713D01*
X576937Y-68147682D01*
X1700000Y-68147682D01*
X1700000Y-68352317D01*
X1732009Y-68554417D01*
X1795244Y-68749031D01*
X1888141Y-68931350D01*
X1888147Y-68931359D01*
X1920523Y-68975921D01*
X1920524Y-68975922D01*
X2600000Y-68296446D01*
X2600000Y-68302661D01*
X2627259Y-68404394D01*
X2679920Y-68495606D01*
X2754394Y-68570080D01*
X2845606Y-68622741D01*
X2947339Y-68650000D01*
X2953553Y-68650000D01*
X2274076Y-69329474D01*
X2318650Y-69361859D01*
X2500968Y-69454755D01*
X2695582Y-69517990D01*
X2897683Y-69550000D01*
X3102317Y-69550000D01*
X3304417Y-69517990D01*
X3499031Y-69454755D01*
X3681349Y-69361859D01*
X3725921Y-69329474D01*
X3046447Y-68650000D01*
X3052661Y-68650000D01*
X3154394Y-68622741D01*
X3245606Y-68570080D01*
X3320080Y-68495606D01*
X3372741Y-68404394D01*
X3400000Y-68302661D01*
X3400000Y-68296447D01*
X4079473Y-68975921D01*
X4117280Y-68972946D01*
X4185658Y-68987310D01*
X4235415Y-69036361D01*
X4244714Y-69057556D01*
X4265186Y-69119334D01*
X4357288Y-69268656D01*
X4481344Y-69392712D01*
X4630666Y-69484814D01*
X4797203Y-69539999D01*
X4899991Y-69550500D01*
X6100008Y-69550499D01*
X6202797Y-69539999D01*
X6369334Y-69484814D01*
X6518656Y-69392712D01*
X6642712Y-69268656D01*
X6734814Y-69119334D01*
X6789999Y-68952797D01*
X6800500Y-68850009D01*
X6800499Y-67649992D01*
X6789999Y-67547203D01*
X6734814Y-67380666D01*
X6642712Y-67231344D01*
X6518656Y-67107288D01*
X6369334Y-67015186D01*
X6202797Y-66960001D01*
X6202795Y-66960000D01*
X6100010Y-66949500D01*
X4899998Y-66949500D01*
X4899981Y-66949501D01*
X4797203Y-66960000D01*
X4797200Y-66960001D01*
X4630668Y-67015185D01*
X4630663Y-67015187D01*
X4481342Y-67107289D01*
X4357289Y-67231342D01*
X4265187Y-67380663D01*
X4265185Y-67380668D01*
X4244717Y-67442438D01*
X4204944Y-67499883D01*
X4140428Y-67526706D01*
X4117283Y-67527052D01*
X4079474Y-67524076D01*
X3400000Y-68203551D01*
X3400000Y-68197339D01*
X3372741Y-68095606D01*
X3320080Y-68004394D01*
X3245606Y-67929920D01*
X3154394Y-67877259D01*
X3052661Y-67850000D01*
X3046446Y-67850000D01*
X3725922Y-67170524D01*
X3725921Y-67170523D01*
X3681359Y-67138147D01*
X3681350Y-67138141D01*
X3499031Y-67045244D01*
X3304417Y-66982009D01*
X3102317Y-66950000D01*
X2897683Y-66950000D01*
X2695582Y-66982009D01*
X2500968Y-67045244D01*
X2318644Y-67138143D01*
X2274077Y-67170523D01*
X2274077Y-67170524D01*
X2953554Y-67850000D01*
X2947339Y-67850000D01*
X2845606Y-67877259D01*
X2754394Y-67929920D01*
X2679920Y-68004394D01*
X2627259Y-68095606D01*
X2600000Y-68197339D01*
X2600000Y-68203553D01*
X1920524Y-67524077D01*
X1920523Y-67524077D01*
X1888143Y-67568644D01*
X1795244Y-67750968D01*
X1732009Y-67945582D01*
X1700000Y-68147682D01*
X576937Y-68147682D01*
X576937Y-60650013D01*
X1647380Y-60650013D01*
X1647380Y-61000000D01*
X2631694Y-61000000D01*
X2627300Y-61004394D01*
X2574639Y-61095606D01*
X2547380Y-61197339D01*
X2547380Y-61302661D01*
X2574639Y-61404394D01*
X2627300Y-61495606D01*
X2631694Y-61500000D01*
X1647381Y-61500000D01*
X1647381Y-61849986D01*
X1657874Y-61952697D01*
X1713021Y-62119119D01*
X1713023Y-62119124D01*
X1805064Y-62268345D01*
X1929034Y-62392315D01*
X2078255Y-62484356D01*
X2078260Y-62484358D01*
X2244682Y-62539505D01*
X2244689Y-62539506D01*
X2347399Y-62549999D01*
X2697379Y-62549999D01*
X2697380Y-62549998D01*
X2697380Y-61565686D01*
X2701774Y-61570080D01*
X2792986Y-61622741D01*
X2894719Y-61650000D01*
X3000041Y-61650000D01*
X3101774Y-61622741D01*
X3192986Y-61570080D01*
X3197380Y-61565686D01*
X3197380Y-62549999D01*
X3547352Y-62549999D01*
X3547366Y-62549998D01*
X3650077Y-62539505D01*
X3816499Y-62484358D01*
X3816504Y-62484356D01*
X3965725Y-62392315D01*
X4089695Y-62268345D01*
X4181736Y-62119124D01*
X4181739Y-62119117D01*
X4196443Y-62074743D01*
X4236215Y-62017298D01*
X4300730Y-61990474D01*
X4369506Y-62002788D01*
X4414468Y-62040861D01*
X4455414Y-62097219D01*
X4600166Y-62241971D01*
X4705708Y-62318650D01*
X4765770Y-62362287D01*
X4881987Y-62421503D01*
X4948156Y-62455218D01*
X4948158Y-62455218D01*
X4948161Y-62455220D01*
X5037839Y-62484358D01*
X5142845Y-62518477D01*
X5243937Y-62534488D01*
X5345028Y-62550500D01*
X5345029Y-62550500D01*
X5549731Y-62550500D01*
X5549732Y-62550500D01*
X5751914Y-62518477D01*
X5946599Y-62455220D01*
X6055008Y-62399983D01*
X12199500Y-62399983D01*
X12199500Y-63600001D01*
X12199501Y-63600018D01*
X12210000Y-63702796D01*
X12210001Y-63702799D01*
X12225681Y-63750116D01*
X12265186Y-63869334D01*
X12357288Y-64018656D01*
X12481344Y-64142712D01*
X12630666Y-64234814D01*
X12797203Y-64289999D01*
X12899991Y-64300500D01*
X14100008Y-64300499D01*
X14202797Y-64289999D01*
X14369334Y-64234814D01*
X14518656Y-64142712D01*
X14642712Y-64018656D01*
X14734814Y-63869334D01*
X14758102Y-63799054D01*
X14762110Y-63791050D01*
X14780060Y-63771772D01*
X14795055Y-63750116D01*
X14803495Y-63746606D01*
X14809725Y-63739917D01*
X14835249Y-63733404D01*
X14859571Y-63723292D01*
X14875834Y-63723048D01*
X14877425Y-63722643D01*
X14878523Y-63723008D01*
X14882719Y-63722946D01*
X14920525Y-63725921D01*
X15600000Y-63046446D01*
X15600000Y-63052661D01*
X15627259Y-63154394D01*
X15679920Y-63245606D01*
X15754394Y-63320080D01*
X15845606Y-63372741D01*
X15947339Y-63400000D01*
X15953553Y-63400000D01*
X15274076Y-64079474D01*
X15318650Y-64111859D01*
X15500968Y-64204755D01*
X15695582Y-64267990D01*
X15897683Y-64300000D01*
X16102317Y-64300000D01*
X16304417Y-64267990D01*
X16499031Y-64204755D01*
X16681349Y-64111859D01*
X16725921Y-64079474D01*
X16046447Y-63400000D01*
X16052661Y-63400000D01*
X16154394Y-63372741D01*
X16245606Y-63320080D01*
X16320080Y-63245606D01*
X16372741Y-63154394D01*
X16400000Y-63052661D01*
X16400000Y-63046447D01*
X17079474Y-63725921D01*
X17111859Y-63681349D01*
X17204755Y-63499031D01*
X17267990Y-63304417D01*
X17300000Y-63102317D01*
X17300000Y-62897682D01*
X17267990Y-62695582D01*
X17204754Y-62500965D01*
X17180381Y-62453130D01*
X17180380Y-62453129D01*
X17153301Y-62399983D01*
X19199500Y-62399983D01*
X19199500Y-63600001D01*
X19199501Y-63600018D01*
X19210000Y-63702796D01*
X19210001Y-63702799D01*
X19225681Y-63750116D01*
X19265186Y-63869334D01*
X19357288Y-64018656D01*
X19481344Y-64142712D01*
X19630666Y-64234814D01*
X19797203Y-64289999D01*
X19899991Y-64300500D01*
X21100008Y-64300499D01*
X21202797Y-64289999D01*
X21369334Y-64234814D01*
X21518656Y-64142712D01*
X21642712Y-64018656D01*
X21734814Y-63869334D01*
X21758102Y-63799054D01*
X21762110Y-63791050D01*
X21780060Y-63771772D01*
X21795055Y-63750116D01*
X21803495Y-63746606D01*
X21809725Y-63739917D01*
X21835249Y-63733404D01*
X21859571Y-63723292D01*
X21875834Y-63723048D01*
X21877425Y-63722643D01*
X21878523Y-63723008D01*
X21882719Y-63722946D01*
X21920525Y-63725921D01*
X22600000Y-63046446D01*
X22600000Y-63052661D01*
X22627259Y-63154394D01*
X22679920Y-63245606D01*
X22754394Y-63320080D01*
X22845606Y-63372741D01*
X22947339Y-63400000D01*
X22953553Y-63400000D01*
X22274076Y-64079474D01*
X22318650Y-64111859D01*
X22500968Y-64204755D01*
X22695582Y-64267990D01*
X22897683Y-64300000D01*
X23102317Y-64300000D01*
X23304417Y-64267990D01*
X23499031Y-64204755D01*
X23681349Y-64111859D01*
X23725921Y-64079474D01*
X23046447Y-63400000D01*
X23052661Y-63400000D01*
X23154394Y-63372741D01*
X23245606Y-63320080D01*
X23320080Y-63245606D01*
X23372741Y-63154394D01*
X23400000Y-63052661D01*
X23400000Y-63046447D01*
X24079474Y-63725921D01*
X24111859Y-63681349D01*
X24204755Y-63499031D01*
X24267990Y-63304417D01*
X24300000Y-63102317D01*
X24300000Y-62897682D01*
X24267990Y-62695582D01*
X24204755Y-62500968D01*
X24111859Y-62318650D01*
X24079474Y-62274077D01*
X24079474Y-62274076D01*
X23400000Y-62953551D01*
X23400000Y-62947339D01*
X23372741Y-62845606D01*
X23320080Y-62754394D01*
X23245606Y-62679920D01*
X23154394Y-62627259D01*
X23052661Y-62600000D01*
X23046446Y-62600000D01*
X23725922Y-61920524D01*
X23725921Y-61920523D01*
X23681359Y-61888147D01*
X23681350Y-61888141D01*
X23499031Y-61795244D01*
X23304417Y-61732009D01*
X23102317Y-61700000D01*
X22897683Y-61700000D01*
X22695582Y-61732009D01*
X22500968Y-61795244D01*
X22318644Y-61888143D01*
X22274077Y-61920523D01*
X22274077Y-61920524D01*
X22953554Y-62600000D01*
X22947339Y-62600000D01*
X22845606Y-62627259D01*
X22754394Y-62679920D01*
X22679920Y-62754394D01*
X22627259Y-62845606D01*
X22600000Y-62947339D01*
X22600000Y-62953553D01*
X21920524Y-62274077D01*
X21882719Y-62277053D01*
X21814341Y-62262689D01*
X21764584Y-62213638D01*
X21762110Y-62208949D01*
X21758101Y-62200942D01*
X21734814Y-62130666D01*
X21642712Y-61981344D01*
X21518656Y-61857288D01*
X21369334Y-61765186D01*
X21202797Y-61710001D01*
X21202795Y-61710000D01*
X21100010Y-61699500D01*
X19899998Y-61699500D01*
X19899981Y-61699501D01*
X19797203Y-61710000D01*
X19797200Y-61710001D01*
X19630668Y-61765185D01*
X19630663Y-61765187D01*
X19481342Y-61857289D01*
X19357289Y-61981342D01*
X19265187Y-62130663D01*
X19265186Y-62130666D01*
X19210001Y-62297203D01*
X19210001Y-62297204D01*
X19210000Y-62297204D01*
X19199500Y-62399983D01*
X17153301Y-62399983D01*
X17111859Y-62318650D01*
X17079474Y-62274077D01*
X17079474Y-62274076D01*
X16400000Y-62953551D01*
X16400000Y-62947339D01*
X16372741Y-62845606D01*
X16320080Y-62754394D01*
X16245606Y-62679920D01*
X16154394Y-62627259D01*
X16052661Y-62600000D01*
X16046446Y-62600000D01*
X16725922Y-61920524D01*
X16725921Y-61920523D01*
X16681359Y-61888147D01*
X16681350Y-61888141D01*
X16499031Y-61795244D01*
X16304417Y-61732009D01*
X16102317Y-61700000D01*
X15897683Y-61700000D01*
X15695582Y-61732009D01*
X15500968Y-61795244D01*
X15318644Y-61888143D01*
X15274077Y-61920523D01*
X15274077Y-61920524D01*
X15953554Y-62600000D01*
X15947339Y-62600000D01*
X15845606Y-62627259D01*
X15754394Y-62679920D01*
X15679920Y-62754394D01*
X15627259Y-62845606D01*
X15600000Y-62947339D01*
X15600000Y-62953553D01*
X14920524Y-62274077D01*
X14882719Y-62277053D01*
X14814341Y-62262689D01*
X14764584Y-62213638D01*
X14762110Y-62208949D01*
X14758101Y-62200942D01*
X14734814Y-62130666D01*
X14642712Y-61981344D01*
X14518656Y-61857288D01*
X14369334Y-61765186D01*
X14202797Y-61710001D01*
X14202795Y-61710000D01*
X14100010Y-61699500D01*
X12899998Y-61699500D01*
X12899981Y-61699501D01*
X12797203Y-61710000D01*
X12797200Y-61710001D01*
X12630668Y-61765185D01*
X12630663Y-61765187D01*
X12481342Y-61857289D01*
X12357289Y-61981342D01*
X12265187Y-62130663D01*
X12265186Y-62130666D01*
X12210001Y-62297203D01*
X12210001Y-62297204D01*
X12210000Y-62297204D01*
X12199500Y-62399983D01*
X6055008Y-62399983D01*
X6128990Y-62362287D01*
X6189052Y-62318650D01*
X6219518Y-62296516D01*
X6294593Y-62241971D01*
X6294595Y-62241968D01*
X6294599Y-62241966D01*
X6439346Y-62097219D01*
X6439348Y-62097215D01*
X6439351Y-62097213D01*
X6492112Y-62024590D01*
X6559667Y-61931610D01*
X6652600Y-61749219D01*
X6715857Y-61554534D01*
X6747880Y-61352352D01*
X6747880Y-61147648D01*
X6739637Y-61095606D01*
X6715857Y-60945465D01*
X6652598Y-60750776D01*
X6601256Y-60650013D01*
X6559667Y-60568390D01*
X6511290Y-60501804D01*
X6439351Y-60402786D01*
X6294593Y-60258028D01*
X6128993Y-60137715D01*
X6128992Y-60137714D01*
X6128990Y-60137713D01*
X6070055Y-60107684D01*
X5946603Y-60044781D01*
X5751914Y-59981522D01*
X5577375Y-59953878D01*
X5549732Y-59949500D01*
X5345028Y-59949500D01*
X5320709Y-59953351D01*
X5142845Y-59981522D01*
X4948156Y-60044781D01*
X4765766Y-60137715D01*
X4600166Y-60258028D01*
X4455412Y-60402782D01*
X4414467Y-60459139D01*
X4359137Y-60501804D01*
X4289524Y-60507783D01*
X4227729Y-60475177D01*
X4196443Y-60425256D01*
X4181739Y-60380882D01*
X4181736Y-60380875D01*
X4089695Y-60231654D01*
X3965725Y-60107684D01*
X3816504Y-60015643D01*
X3816499Y-60015641D01*
X3650077Y-59960494D01*
X3650070Y-59960493D01*
X3547366Y-59950000D01*
X3197380Y-59950000D01*
X3197380Y-60934314D01*
X3192986Y-60929920D01*
X3101774Y-60877259D01*
X3000041Y-60850000D01*
X2894719Y-60850000D01*
X2792986Y-60877259D01*
X2701774Y-60929920D01*
X2697380Y-60934314D01*
X2697380Y-59950000D01*
X2347408Y-59950000D01*
X2347392Y-59950001D01*
X2244682Y-59960494D01*
X2078260Y-60015641D01*
X2078255Y-60015643D01*
X1929034Y-60107684D01*
X1805064Y-60231654D01*
X1713023Y-60380875D01*
X1713021Y-60380880D01*
X1657874Y-60547302D01*
X1657873Y-60547309D01*
X1647380Y-60650013D01*
X576937Y-60650013D01*
X576937Y-55102135D01*
X3649500Y-55102135D01*
X3649500Y-56897870D01*
X3649501Y-56897876D01*
X3655908Y-56957483D01*
X3706202Y-57092328D01*
X3706206Y-57092335D01*
X3792452Y-57207544D01*
X3792455Y-57207547D01*
X3907664Y-57293793D01*
X3907671Y-57293797D01*
X4042517Y-57344091D01*
X4042516Y-57344091D01*
X4049444Y-57344835D01*
X4102127Y-57350500D01*
X5897872Y-57350499D01*
X5957483Y-57344091D01*
X6092331Y-57293796D01*
X6207546Y-57207546D01*
X6293796Y-57092331D01*
X6344091Y-56957483D01*
X6350500Y-56897873D01*
X6350499Y-56873979D01*
X6353330Y-56860963D01*
X6363940Y-56841525D01*
X6370179Y-56820275D01*
X6386803Y-56799643D01*
X6386808Y-56799636D01*
X6386811Y-56799634D01*
X6386818Y-56799626D01*
X7057037Y-56129408D01*
X7074075Y-56192993D01*
X7139901Y-56307007D01*
X7232993Y-56400099D01*
X7347007Y-56465925D01*
X7410590Y-56482962D01*
X6778282Y-57115269D01*
X6778282Y-57115270D01*
X6832449Y-57154624D01*
X7021782Y-57251095D01*
X7223870Y-57316757D01*
X7433754Y-57350000D01*
X7646246Y-57350000D01*
X7856127Y-57316757D01*
X7856130Y-57316757D01*
X8058217Y-57251095D01*
X8247554Y-57154622D01*
X8301716Y-57115270D01*
X8301717Y-57115270D01*
X7669408Y-56482962D01*
X7732993Y-56465925D01*
X7847007Y-56400099D01*
X7940099Y-56307007D01*
X8005925Y-56192993D01*
X8022962Y-56129408D01*
X8655270Y-56761717D01*
X8655270Y-56761716D01*
X8694622Y-56707555D01*
X8699232Y-56698507D01*
X8747205Y-56647709D01*
X8815025Y-56630912D01*
X8881161Y-56653447D01*
X8920204Y-56698504D01*
X8924949Y-56707817D01*
X9049890Y-56879786D01*
X9200213Y-57030109D01*
X9372179Y-57155048D01*
X9372181Y-57155049D01*
X9372184Y-57155051D01*
X9561588Y-57251557D01*
X9763757Y-57317246D01*
X9973713Y-57350500D01*
X9973714Y-57350500D01*
X10186286Y-57350500D01*
X10186287Y-57350500D01*
X10396243Y-57317246D01*
X10598412Y-57251557D01*
X10787816Y-57155051D01*
X10874138Y-57092335D01*
X10959786Y-57030109D01*
X10959788Y-57030106D01*
X10959792Y-57030104D01*
X11110104Y-56879792D01*
X11110106Y-56879788D01*
X11110109Y-56879786D01*
X11235048Y-56707820D01*
X11235050Y-56707817D01*
X11235051Y-56707816D01*
X11239514Y-56699054D01*
X11287488Y-56648259D01*
X11355308Y-56631463D01*
X11421444Y-56653999D01*
X11460486Y-56699056D01*
X11464951Y-56707820D01*
X11589890Y-56879786D01*
X11740213Y-57030109D01*
X11912179Y-57155048D01*
X11912181Y-57155049D01*
X11912184Y-57155051D01*
X12101588Y-57251557D01*
X12303757Y-57317246D01*
X12513713Y-57350500D01*
X12513714Y-57350500D01*
X12726286Y-57350500D01*
X12726287Y-57350500D01*
X12936243Y-57317246D01*
X13138412Y-57251557D01*
X13327816Y-57155051D01*
X13414138Y-57092335D01*
X13499786Y-57030109D01*
X13499788Y-57030106D01*
X13499792Y-57030104D01*
X13650104Y-56879792D01*
X13650106Y-56879788D01*
X13650109Y-56879786D01*
X13775048Y-56707820D01*
X13775050Y-56707817D01*
X13775051Y-56707816D01*
X13779514Y-56699054D01*
X13827488Y-56648259D01*
X13895308Y-56631463D01*
X13961444Y-56653999D01*
X14000486Y-56699056D01*
X14004951Y-56707820D01*
X14129890Y-56879786D01*
X14280213Y-57030109D01*
X14452179Y-57155048D01*
X14452181Y-57155049D01*
X14452184Y-57155051D01*
X14641588Y-57251557D01*
X14843757Y-57317246D01*
X15053713Y-57350500D01*
X15053714Y-57350500D01*
X15266286Y-57350500D01*
X15266287Y-57350500D01*
X15476243Y-57317246D01*
X15678412Y-57251557D01*
X15867816Y-57155051D01*
X15954138Y-57092335D01*
X16039786Y-57030109D01*
X16039788Y-57030106D01*
X16039792Y-57030104D01*
X16190104Y-56879792D01*
X16190106Y-56879788D01*
X16190109Y-56879786D01*
X16315048Y-56707820D01*
X16315050Y-56707817D01*
X16315051Y-56707816D01*
X16319514Y-56699054D01*
X16367488Y-56648259D01*
X16435308Y-56631463D01*
X16501444Y-56653999D01*
X16540486Y-56699056D01*
X16544951Y-56707820D01*
X16669890Y-56879786D01*
X16820213Y-57030109D01*
X16992179Y-57155048D01*
X16992181Y-57155049D01*
X16992184Y-57155051D01*
X17181588Y-57251557D01*
X17383757Y-57317246D01*
X17593713Y-57350500D01*
X17593714Y-57350500D01*
X17806286Y-57350500D01*
X17806287Y-57350500D01*
X18016243Y-57317246D01*
X18218412Y-57251557D01*
X18407816Y-57155051D01*
X18494138Y-57092335D01*
X18579786Y-57030109D01*
X18579788Y-57030106D01*
X18579792Y-57030104D01*
X18730104Y-56879792D01*
X18730106Y-56879788D01*
X18730109Y-56879786D01*
X18855048Y-56707820D01*
X18855050Y-56707817D01*
X18855051Y-56707816D01*
X18859514Y-56699054D01*
X18907488Y-56648259D01*
X18975308Y-56631463D01*
X19041444Y-56653999D01*
X19080486Y-56699056D01*
X19084951Y-56707820D01*
X19209890Y-56879786D01*
X19360213Y-57030109D01*
X19532179Y-57155048D01*
X19532181Y-57155049D01*
X19532184Y-57155051D01*
X19721588Y-57251557D01*
X19923757Y-57317246D01*
X20133713Y-57350500D01*
X20133714Y-57350500D01*
X20346286Y-57350500D01*
X20346287Y-57350500D01*
X20556243Y-57317246D01*
X20758412Y-57251557D01*
X20947816Y-57155051D01*
X21034138Y-57092335D01*
X21119786Y-57030109D01*
X21119788Y-57030106D01*
X21119792Y-57030104D01*
X21270104Y-56879792D01*
X21270106Y-56879788D01*
X21270109Y-56879786D01*
X21395048Y-56707820D01*
X21395050Y-56707817D01*
X21395051Y-56707816D01*
X21399514Y-56699054D01*
X21447488Y-56648259D01*
X21515308Y-56631463D01*
X21581444Y-56653999D01*
X21620486Y-56699056D01*
X21624951Y-56707820D01*
X21749890Y-56879786D01*
X21900213Y-57030109D01*
X22072179Y-57155048D01*
X22072181Y-57155049D01*
X22072184Y-57155051D01*
X22261588Y-57251557D01*
X22463757Y-57317246D01*
X22673713Y-57350500D01*
X22673714Y-57350500D01*
X22886286Y-57350500D01*
X22886287Y-57350500D01*
X23096243Y-57317246D01*
X23298412Y-57251557D01*
X23487816Y-57155051D01*
X23574138Y-57092335D01*
X23659786Y-57030109D01*
X23659788Y-57030106D01*
X23659792Y-57030104D01*
X23810104Y-56879792D01*
X23810106Y-56879788D01*
X23810109Y-56879786D01*
X23935048Y-56707820D01*
X23935050Y-56707817D01*
X23935051Y-56707816D01*
X24031557Y-56518412D01*
X24097246Y-56316243D01*
X24130500Y-56106287D01*
X24130500Y-55893713D01*
X24097246Y-55683757D01*
X24031557Y-55481588D01*
X23935051Y-55292184D01*
X23935049Y-55292181D01*
X23935048Y-55292179D01*
X23810109Y-55120213D01*
X23659786Y-54969890D01*
X23487820Y-54844951D01*
X23298414Y-54748444D01*
X23298413Y-54748443D01*
X23298412Y-54748443D01*
X23096243Y-54682754D01*
X23096241Y-54682753D01*
X23096240Y-54682753D01*
X22934957Y-54657208D01*
X22886287Y-54649500D01*
X22673713Y-54649500D01*
X22625042Y-54657208D01*
X22463760Y-54682753D01*
X22261585Y-54748444D01*
X22072179Y-54844951D01*
X21900213Y-54969890D01*
X21749890Y-55120213D01*
X21624949Y-55292182D01*
X21620484Y-55300946D01*
X21572509Y-55351742D01*
X21504688Y-55368536D01*
X21438553Y-55345998D01*
X21399516Y-55300946D01*
X21395050Y-55292182D01*
X21270109Y-55120213D01*
X21119786Y-54969890D01*
X20947820Y-54844951D01*
X20758414Y-54748444D01*
X20758413Y-54748443D01*
X20758412Y-54748443D01*
X20556243Y-54682754D01*
X20556241Y-54682753D01*
X20556240Y-54682753D01*
X20394957Y-54657208D01*
X20346287Y-54649500D01*
X20133713Y-54649500D01*
X20085042Y-54657208D01*
X19923760Y-54682753D01*
X19721585Y-54748444D01*
X19532179Y-54844951D01*
X19360213Y-54969890D01*
X19209890Y-55120213D01*
X19084949Y-55292182D01*
X19080484Y-55300946D01*
X19032509Y-55351742D01*
X18964688Y-55368536D01*
X18898553Y-55345998D01*
X18859516Y-55300946D01*
X18855050Y-55292182D01*
X18730109Y-55120213D01*
X18579786Y-54969890D01*
X18407820Y-54844951D01*
X18218414Y-54748444D01*
X18218413Y-54748443D01*
X18218412Y-54748443D01*
X18016243Y-54682754D01*
X18016241Y-54682753D01*
X18016240Y-54682753D01*
X17854957Y-54657208D01*
X17806287Y-54649500D01*
X17593713Y-54649500D01*
X17545042Y-54657208D01*
X17383760Y-54682753D01*
X17181585Y-54748444D01*
X16992179Y-54844951D01*
X16820213Y-54969890D01*
X16669890Y-55120213D01*
X16544949Y-55292182D01*
X16540484Y-55300946D01*
X16492509Y-55351742D01*
X16424688Y-55368536D01*
X16358553Y-55345998D01*
X16319516Y-55300946D01*
X16315050Y-55292182D01*
X16190109Y-55120213D01*
X16039786Y-54969890D01*
X15867820Y-54844951D01*
X15678414Y-54748444D01*
X15678413Y-54748443D01*
X15678412Y-54748443D01*
X15476243Y-54682754D01*
X15476241Y-54682753D01*
X15476240Y-54682753D01*
X15314957Y-54657208D01*
X15266287Y-54649500D01*
X15053713Y-54649500D01*
X15005042Y-54657208D01*
X14843760Y-54682753D01*
X14641585Y-54748444D01*
X14452179Y-54844951D01*
X14280213Y-54969890D01*
X14129890Y-55120213D01*
X14004949Y-55292182D01*
X14000484Y-55300946D01*
X13952509Y-55351742D01*
X13884688Y-55368536D01*
X13818553Y-55345998D01*
X13779516Y-55300946D01*
X13775050Y-55292182D01*
X13650109Y-55120213D01*
X13499786Y-54969890D01*
X13327820Y-54844951D01*
X13138414Y-54748444D01*
X13138413Y-54748443D01*
X13138412Y-54748443D01*
X12936243Y-54682754D01*
X12936241Y-54682753D01*
X12936240Y-54682753D01*
X12774957Y-54657208D01*
X12726287Y-54649500D01*
X12513713Y-54649500D01*
X12465042Y-54657208D01*
X12303760Y-54682753D01*
X12101585Y-54748444D01*
X11912179Y-54844951D01*
X11740213Y-54969890D01*
X11589890Y-55120213D01*
X11464949Y-55292182D01*
X11460484Y-55300946D01*
X11412509Y-55351742D01*
X11344688Y-55368536D01*
X11278553Y-55345998D01*
X11239516Y-55300946D01*
X11235050Y-55292182D01*
X11110109Y-55120213D01*
X10959786Y-54969890D01*
X10787820Y-54844951D01*
X10598414Y-54748444D01*
X10598413Y-54748443D01*
X10598412Y-54748443D01*
X10396243Y-54682754D01*
X10396241Y-54682753D01*
X10396240Y-54682753D01*
X10234957Y-54657208D01*
X10186287Y-54649500D01*
X9973713Y-54649500D01*
X9925042Y-54657208D01*
X9763760Y-54682753D01*
X9561585Y-54748444D01*
X9372179Y-54844951D01*
X9200213Y-54969890D01*
X9049890Y-55120213D01*
X8924949Y-55292182D01*
X8920202Y-55301499D01*
X8872227Y-55352293D01*
X8804405Y-55369087D01*
X8738271Y-55346548D01*
X8699234Y-55301495D01*
X8694626Y-55292452D01*
X8655270Y-55238282D01*
X8655269Y-55238282D01*
X8022962Y-55870590D01*
X8005925Y-55807007D01*
X7940099Y-55692993D01*
X7847007Y-55599901D01*
X7732993Y-55534075D01*
X7669409Y-55517037D01*
X8301716Y-54884728D01*
X8247550Y-54845375D01*
X8058217Y-54748904D01*
X7856129Y-54683242D01*
X7646246Y-54650000D01*
X7433754Y-54650000D01*
X7223872Y-54683242D01*
X7223869Y-54683242D01*
X7021782Y-54748904D01*
X6832439Y-54845380D01*
X6778282Y-54884727D01*
X6778282Y-54884728D01*
X7410591Y-55517037D01*
X7347007Y-55534075D01*
X7232993Y-55599901D01*
X7139901Y-55692993D01*
X7074075Y-55807007D01*
X7057037Y-55870591D01*
X6386818Y-55200372D01*
X6353333Y-55139049D01*
X6353330Y-55139036D01*
X6350499Y-55126015D01*
X6350499Y-55102128D01*
X6344091Y-55042517D01*
X6315926Y-54967002D01*
X6293798Y-54907673D01*
X6293793Y-54907664D01*
X6207547Y-54792455D01*
X6207544Y-54792452D01*
X6092335Y-54706206D01*
X6092328Y-54706202D01*
X5957482Y-54655908D01*
X5957483Y-54655908D01*
X5897883Y-54649501D01*
X5897881Y-54649500D01*
X5897873Y-54649500D01*
X5897864Y-54649500D01*
X4102129Y-54649500D01*
X4102123Y-54649501D01*
X4042516Y-54655908D01*
X3907671Y-54706202D01*
X3907664Y-54706206D01*
X3792455Y-54792452D01*
X3792452Y-54792455D01*
X3706206Y-54907664D01*
X3706202Y-54907671D01*
X3655908Y-55042517D01*
X3649501Y-55102116D01*
X3649500Y-55102135D01*
X576937Y-55102135D01*
X576937Y-20096209D01*
X1127563Y-20096209D01*
X1127563Y-20253790D01*
X1137274Y-20352397D01*
X1137274Y-20352400D01*
X1137276Y-20352410D01*
X1168019Y-20506968D01*
X1188656Y-20575000D01*
X1196785Y-20601799D01*
X1257092Y-20747391D01*
X1257094Y-20747396D01*
X1303797Y-20834771D01*
X1303814Y-20834799D01*
X1391341Y-20965793D01*
X1391349Y-20965804D01*
X1391354Y-20965811D01*
X1454220Y-21042412D01*
X1565651Y-21153843D01*
X1642252Y-21216709D01*
X1642261Y-21216715D01*
X1642269Y-21216721D01*
X1773263Y-21304248D01*
X1773268Y-21304251D01*
X1773280Y-21304259D01*
X1773289Y-21304263D01*
X1773291Y-21304265D01*
X1837767Y-21338728D01*
X1887611Y-21387690D01*
X1903072Y-21455828D01*
X1879241Y-21521507D01*
X1831720Y-21560468D01*
X1780327Y-21584433D01*
X1593921Y-21714954D01*
X1433017Y-21875858D01*
X1302495Y-22062265D01*
X1302494Y-22062267D01*
X1206324Y-22268502D01*
X1206321Y-22268511D01*
X1147429Y-22488302D01*
X1147427Y-22488312D01*
X1132563Y-22658214D01*
X1132563Y-22771785D01*
X1147427Y-22941687D01*
X1147429Y-22941697D01*
X1206321Y-23161488D01*
X1206324Y-23161497D01*
X1302494Y-23367732D01*
X1302495Y-23367734D01*
X1433017Y-23554141D01*
X1593921Y-23715045D01*
X1593924Y-23715047D01*
X1780329Y-23845568D01*
X1838338Y-23872618D01*
X1890777Y-23918791D01*
X1909929Y-23985984D01*
X1889713Y-24052865D01*
X1838338Y-24097382D01*
X1780330Y-24124431D01*
X1780328Y-24124432D01*
X1593921Y-24254954D01*
X1433017Y-24415858D01*
X1302495Y-24602265D01*
X1302494Y-24602267D01*
X1206324Y-24808502D01*
X1206321Y-24808511D01*
X1147429Y-25028302D01*
X1147427Y-25028312D01*
X1132563Y-25198214D01*
X1132563Y-25311785D01*
X1147427Y-25481687D01*
X1147429Y-25481697D01*
X1206321Y-25701488D01*
X1206324Y-25701497D01*
X1302494Y-25907732D01*
X1302495Y-25907734D01*
X1433017Y-26094141D01*
X1593921Y-26255045D01*
X1593924Y-26255047D01*
X1780329Y-26385568D01*
X1838338Y-26412618D01*
X1890777Y-26458791D01*
X1909929Y-26525984D01*
X1889713Y-26592865D01*
X1838338Y-26637382D01*
X1780330Y-26664431D01*
X1780328Y-26664432D01*
X1593921Y-26794954D01*
X1433017Y-26955858D01*
X1302495Y-27142265D01*
X1302494Y-27142267D01*
X1206324Y-27348502D01*
X1206321Y-27348511D01*
X1147429Y-27568302D01*
X1147427Y-27568312D01*
X1132563Y-27738214D01*
X1132563Y-27851785D01*
X1147427Y-28021687D01*
X1147429Y-28021697D01*
X1206321Y-28241488D01*
X1206324Y-28241497D01*
X1302494Y-28447732D01*
X1302495Y-28447734D01*
X1433017Y-28634141D01*
X1593921Y-28795045D01*
X1593924Y-28795047D01*
X1780329Y-28925568D01*
X1838338Y-28952618D01*
X1890777Y-28998791D01*
X1909929Y-29065984D01*
X1889713Y-29132865D01*
X1838338Y-29177382D01*
X1780330Y-29204431D01*
X1780328Y-29204432D01*
X1593921Y-29334954D01*
X1433017Y-29495858D01*
X1302495Y-29682265D01*
X1302494Y-29682267D01*
X1206324Y-29888502D01*
X1206321Y-29888511D01*
X1147429Y-30108302D01*
X1147427Y-30108312D01*
X1132563Y-30278214D01*
X1132563Y-30391785D01*
X1147427Y-30561687D01*
X1147429Y-30561697D01*
X1206321Y-30781488D01*
X1206324Y-30781497D01*
X1302494Y-30987732D01*
X1302495Y-30987734D01*
X1433017Y-31174141D01*
X1593921Y-31335045D01*
X1593924Y-31335047D01*
X1780329Y-31465568D01*
X1832282Y-31489794D01*
X1884722Y-31535966D01*
X1903874Y-31603159D01*
X1883659Y-31670041D01*
X1838332Y-31711534D01*
X1773562Y-31746155D01*
X1773541Y-31746167D01*
X1642532Y-31833704D01*
X1642526Y-31833708D01*
X1565998Y-31896514D01*
X1454577Y-32007935D01*
X1391771Y-32084463D01*
X1391767Y-32084469D01*
X1304230Y-32215478D01*
X1304218Y-32215498D01*
X1257553Y-32302801D01*
X1197248Y-32448387D01*
X1168506Y-32543139D01*
X1168503Y-32543150D01*
X1152223Y-32624999D01*
X1152224Y-32625000D01*
X3600051Y-32625000D01*
X3567138Y-32682007D01*
X3533063Y-32809174D01*
X3533063Y-32940826D01*
X3567138Y-33067993D01*
X3600051Y-33125000D01*
X1152223Y-33125000D01*
X1168503Y-33206849D01*
X1168506Y-33206860D01*
X1197248Y-33301612D01*
X1257553Y-33447198D01*
X1304218Y-33534501D01*
X1304230Y-33534521D01*
X1391767Y-33665530D01*
X1391771Y-33665536D01*
X1454577Y-33742064D01*
X1565998Y-33853485D01*
X1642526Y-33916291D01*
X1642532Y-33916295D01*
X1773541Y-34003832D01*
X1773569Y-34003849D01*
X1838331Y-34038465D01*
X1888175Y-34087427D01*
X1903636Y-34155565D01*
X1879804Y-34221244D01*
X1832284Y-34260205D01*
X1780327Y-34284433D01*
X1593921Y-34414954D01*
X1433017Y-34575858D01*
X1302495Y-34762265D01*
X1302494Y-34762267D01*
X1206324Y-34968502D01*
X1206321Y-34968511D01*
X1147429Y-35188302D01*
X1147427Y-35188312D01*
X1132563Y-35358214D01*
X1132563Y-35471785D01*
X1147427Y-35641687D01*
X1147429Y-35641697D01*
X1206321Y-35861488D01*
X1206324Y-35861497D01*
X1302494Y-36067732D01*
X1302495Y-36067734D01*
X1433017Y-36254141D01*
X1593921Y-36415045D01*
X1593924Y-36415047D01*
X1780329Y-36545568D01*
X1838338Y-36572618D01*
X1890777Y-36618791D01*
X1909929Y-36685984D01*
X1889713Y-36752865D01*
X1838338Y-36797382D01*
X1780330Y-36824431D01*
X1780328Y-36824432D01*
X1593921Y-36954954D01*
X1433017Y-37115858D01*
X1302495Y-37302265D01*
X1302494Y-37302267D01*
X1206324Y-37508502D01*
X1206321Y-37508511D01*
X1147429Y-37728302D01*
X1147427Y-37728312D01*
X1132563Y-37898214D01*
X1132563Y-38011785D01*
X1147427Y-38181687D01*
X1147429Y-38181697D01*
X1206321Y-38401488D01*
X1206324Y-38401497D01*
X1302494Y-38607732D01*
X1302495Y-38607734D01*
X1433017Y-38794141D01*
X1593921Y-38955045D01*
X1593924Y-38955047D01*
X1780329Y-39085568D01*
X1838338Y-39112618D01*
X1890777Y-39158791D01*
X1909929Y-39225984D01*
X1889713Y-39292865D01*
X1838338Y-39337382D01*
X1780330Y-39364431D01*
X1780328Y-39364432D01*
X1593921Y-39494954D01*
X1433017Y-39655858D01*
X1302495Y-39842265D01*
X1302494Y-39842267D01*
X1206324Y-40048502D01*
X1206321Y-40048511D01*
X1147429Y-40268302D01*
X1147427Y-40268312D01*
X1132563Y-40438214D01*
X1132563Y-40551785D01*
X1147427Y-40721687D01*
X1147429Y-40721697D01*
X1206321Y-40941488D01*
X1206324Y-40941497D01*
X1302494Y-41147732D01*
X1302495Y-41147734D01*
X1433017Y-41334141D01*
X1593921Y-41495045D01*
X1593924Y-41495047D01*
X1780329Y-41625568D01*
X1838338Y-41652618D01*
X1890777Y-41698791D01*
X1909929Y-41765984D01*
X1889713Y-41832865D01*
X1838338Y-41877382D01*
X1780330Y-41904431D01*
X1780328Y-41904432D01*
X1593921Y-42034954D01*
X1433017Y-42195858D01*
X1302495Y-42382265D01*
X1302494Y-42382267D01*
X1206324Y-42588502D01*
X1206321Y-42588511D01*
X1147429Y-42808302D01*
X1147427Y-42808312D01*
X1132563Y-42978214D01*
X1132563Y-43091785D01*
X1147427Y-43261687D01*
X1147429Y-43261697D01*
X1206321Y-43481488D01*
X1206324Y-43481497D01*
X1302494Y-43687732D01*
X1302495Y-43687734D01*
X1433017Y-43874141D01*
X1593921Y-44035045D01*
X1593924Y-44035047D01*
X1780329Y-44165568D01*
X1832282Y-44189794D01*
X1884722Y-44235966D01*
X1903874Y-44303159D01*
X1883659Y-44370041D01*
X1838332Y-44411534D01*
X1773562Y-44446155D01*
X1773541Y-44446167D01*
X1642532Y-44533704D01*
X1642526Y-44533708D01*
X1565998Y-44596514D01*
X1454577Y-44707935D01*
X1391771Y-44784463D01*
X1391767Y-44784469D01*
X1304230Y-44915478D01*
X1304218Y-44915498D01*
X1257553Y-45002801D01*
X1197248Y-45148387D01*
X1168506Y-45243139D01*
X1168503Y-45243150D01*
X1152223Y-45324999D01*
X1152224Y-45325000D01*
X3600051Y-45325000D01*
X3567138Y-45382007D01*
X3533063Y-45509174D01*
X3533063Y-45640826D01*
X3567138Y-45767993D01*
X3600051Y-45825000D01*
X1152223Y-45825000D01*
X1168503Y-45906849D01*
X1168506Y-45906860D01*
X1197248Y-46001612D01*
X1257553Y-46147198D01*
X1304218Y-46234501D01*
X1304230Y-46234521D01*
X1391767Y-46365530D01*
X1391771Y-46365536D01*
X1454577Y-46442064D01*
X1565998Y-46553485D01*
X1642526Y-46616291D01*
X1642532Y-46616295D01*
X1773541Y-46703832D01*
X1773569Y-46703849D01*
X1838331Y-46738465D01*
X1888175Y-46787427D01*
X1903636Y-46855565D01*
X1879804Y-46921244D01*
X1832284Y-46960205D01*
X1780327Y-46984433D01*
X1593921Y-47114954D01*
X1433017Y-47275858D01*
X1302495Y-47462265D01*
X1302494Y-47462267D01*
X1206324Y-47668502D01*
X1206321Y-47668511D01*
X1147429Y-47888302D01*
X1147427Y-47888312D01*
X1132563Y-48058214D01*
X1132563Y-48171785D01*
X1147427Y-48341687D01*
X1147429Y-48341697D01*
X1206321Y-48561488D01*
X1206324Y-48561497D01*
X1302494Y-48767732D01*
X1302495Y-48767734D01*
X1433017Y-48954141D01*
X1593921Y-49115045D01*
X1593924Y-49115047D01*
X1780329Y-49245568D01*
X1838338Y-49272618D01*
X1890777Y-49318791D01*
X1909929Y-49385984D01*
X1889713Y-49452865D01*
X1838338Y-49497381D01*
X1831306Y-49500661D01*
X1780330Y-49524431D01*
X1780328Y-49524432D01*
X1593921Y-49654954D01*
X1433017Y-49815858D01*
X1302495Y-50002265D01*
X1302494Y-50002267D01*
X1206324Y-50208502D01*
X1206321Y-50208511D01*
X1147429Y-50428302D01*
X1147427Y-50428312D01*
X1132563Y-50598214D01*
X1132563Y-50711785D01*
X1147427Y-50881687D01*
X1147429Y-50881697D01*
X1206321Y-51101488D01*
X1206324Y-51101497D01*
X1302494Y-51307732D01*
X1302495Y-51307734D01*
X1433017Y-51494141D01*
X1593921Y-51655045D01*
X1593924Y-51655047D01*
X1780329Y-51785568D01*
X1986567Y-51881739D01*
X2206371Y-51940635D01*
X2376277Y-51955499D01*
X2376278Y-51955500D01*
X2376279Y-51955500D01*
X4135413Y-51955500D01*
X4135415Y-51955500D01*
X4187378Y-51947268D01*
X4195955Y-51946215D01*
X4259755Y-51940635D01*
X4297559Y-51930505D01*
X4310234Y-51927810D01*
X4337597Y-51923477D01*
X4399467Y-51903373D01*
X4405680Y-51901534D01*
X4479553Y-51881741D01*
X4479555Y-51881739D01*
X4479559Y-51881739D01*
X4503722Y-51870470D01*
X4517799Y-51864925D01*
X4532282Y-51860220D01*
X4601371Y-51825016D01*
X4605140Y-51823178D01*
X4685797Y-51785568D01*
X4697410Y-51777436D01*
X4712243Y-51768524D01*
X4714673Y-51767287D01*
X4787421Y-51714432D01*
X4789110Y-51713227D01*
X4872202Y-51655047D01*
X5033110Y-51494139D01*
X5091290Y-51411047D01*
X5092515Y-51409330D01*
X5092526Y-51409316D01*
X5145350Y-51336610D01*
X5146587Y-51334180D01*
X5155500Y-51319345D01*
X5163631Y-51307734D01*
X5201241Y-51227077D01*
X5203079Y-51223308D01*
X5238283Y-51154219D01*
X5242988Y-51139736D01*
X5248536Y-51125654D01*
X5259802Y-51101496D01*
X5259805Y-51101488D01*
X5279597Y-51027617D01*
X5281441Y-51021389D01*
X5281445Y-51021378D01*
X5301540Y-50959534D01*
X5305873Y-50932171D01*
X5308570Y-50919488D01*
X5318698Y-50881692D01*
X5324279Y-50817891D01*
X5325333Y-50809306D01*
X5333563Y-50757350D01*
X5333563Y-50552649D01*
X5325333Y-50500691D01*
X5324278Y-50492097D01*
X5319290Y-50435074D01*
X5319222Y-50434307D01*
X5318698Y-50428308D01*
X5317791Y-50424925D01*
X9382922Y-50424925D01*
X9382922Y-52024925D01*
X9383352Y-52068566D01*
X9390961Y-52155516D01*
X9403578Y-52227062D01*
X9406119Y-52241467D01*
X9406121Y-52241478D01*
X9428707Y-52325764D01*
X9428712Y-52325780D01*
X9458562Y-52407789D01*
X9458565Y-52407796D01*
X9458597Y-52407865D01*
X9495455Y-52486902D01*
X9495498Y-52486976D01*
X9539091Y-52562478D01*
X9539103Y-52562497D01*
X9589150Y-52633968D01*
X9589163Y-52633986D01*
X9645268Y-52700845D01*
X9645275Y-52700853D01*
X9706981Y-52762557D01*
X9707008Y-52762581D01*
X9773842Y-52818657D01*
X9773852Y-52818665D01*
X9845350Y-52868727D01*
X9845506Y-52868817D01*
X9920943Y-52912368D01*
X10000034Y-52949247D01*
X10000053Y-52949255D01*
X10051492Y-52967975D01*
X10082065Y-52979102D01*
X10166374Y-53001690D01*
X10252330Y-53016845D01*
X10252343Y-53016846D01*
X10252358Y-53016848D01*
X10339268Y-53024449D01*
X10339269Y-53024449D01*
X10339281Y-53024450D01*
X10382922Y-53024925D01*
X10426563Y-53024470D01*
X10513513Y-53016862D01*
X10599468Y-53001706D01*
X10683776Y-52979115D01*
X10727462Y-52963214D01*
X10765782Y-52949268D01*
X10765799Y-52949261D01*
X10792162Y-52936967D01*
X10844898Y-52912376D01*
X10920487Y-52868735D01*
X10991984Y-52818672D01*
X11058845Y-52762568D01*
X11120562Y-52700850D01*
X11176666Y-52633988D01*
X11226728Y-52562491D01*
X11270369Y-52486902D01*
X11294960Y-52434166D01*
X11307254Y-52407803D01*
X11307261Y-52407786D01*
X11318823Y-52376017D01*
X11337108Y-52325780D01*
X11359697Y-52241472D01*
X11374853Y-52155516D01*
X11382460Y-52068566D01*
X11382922Y-52024925D01*
X11382922Y-50424925D01*
X11382414Y-50381285D01*
X11382413Y-50381274D01*
X11382413Y-50381265D01*
X11374811Y-50294353D01*
X11374809Y-50294345D01*
X11374809Y-50294338D01*
X11359655Y-50208384D01*
X11337068Y-50124078D01*
X11307218Y-50042061D01*
X11307214Y-50042053D01*
X11307213Y-50042049D01*
X11275200Y-49973394D01*
X11270334Y-49962958D01*
X11233872Y-49899800D01*
X11226703Y-49887382D01*
X11226699Y-49887376D01*
X11226696Y-49887371D01*
X11183027Y-49825000D01*
X11923063Y-49825000D01*
X11923063Y-52025000D01*
X11923538Y-52068559D01*
X11923539Y-52068636D01*
X11923539Y-52068642D01*
X11931145Y-52155582D01*
X11931145Y-52155586D01*
X11931146Y-52155590D01*
X11946301Y-52241543D01*
X11946305Y-52241559D01*
X11968889Y-52325847D01*
X11998743Y-52407871D01*
X11998746Y-52407879D01*
X12035623Y-52486967D01*
X12035631Y-52486982D01*
X12079255Y-52562542D01*
X12079268Y-52562564D01*
X12079271Y-52562568D01*
X12079279Y-52562580D01*
X12129332Y-52634065D01*
X12185411Y-52700901D01*
X12185419Y-52700909D01*
X12185432Y-52700924D01*
X12247062Y-52762557D01*
X12247151Y-52762646D01*
X12314010Y-52818749D01*
X12314018Y-52818755D01*
X12385500Y-52868809D01*
X12385513Y-52868817D01*
X12461091Y-52912454D01*
X12540194Y-52949343D01*
X12540196Y-52949343D01*
X12540201Y-52949346D01*
X12622213Y-52979199D01*
X12622217Y-52979200D01*
X12654222Y-52987776D01*
X12706518Y-53001790D01*
X12792473Y-53016950D01*
X12863613Y-53023176D01*
X12879420Y-53024560D01*
X12884015Y-53024606D01*
X12923063Y-53025000D01*
X12923071Y-53024999D01*
X12923080Y-53025000D01*
X12960158Y-53024608D01*
X12966705Y-53024539D01*
X13053657Y-53016935D01*
X13139615Y-53001781D01*
X13223925Y-52979193D01*
X13305945Y-52949343D01*
X13306012Y-52949312D01*
X13316282Y-52944522D01*
X13385052Y-52912457D01*
X13460643Y-52868817D01*
X13532143Y-52818755D01*
X13599007Y-52762652D01*
X13660727Y-52700934D01*
X13716833Y-52634072D01*
X13766898Y-52562574D01*
X13810540Y-52486985D01*
X13810577Y-52486907D01*
X13847422Y-52407894D01*
X13847421Y-52407894D01*
X13847429Y-52407879D01*
X13877282Y-52325860D01*
X13899873Y-52241551D01*
X13915030Y-52155593D01*
X13922638Y-52068642D01*
X13923063Y-52025000D01*
X13923063Y-50425033D01*
X14463063Y-50425033D01*
X14463063Y-52025037D01*
X14463575Y-52068613D01*
X14463575Y-52068629D01*
X14463576Y-52068639D01*
X14463577Y-52068650D01*
X14471182Y-52155587D01*
X14471183Y-52155590D01*
X14486337Y-52241535D01*
X14486342Y-52241557D01*
X14508922Y-52325832D01*
X14508923Y-52325834D01*
X14508935Y-52325866D01*
X14538777Y-52407857D01*
X14563820Y-52461565D01*
X14575660Y-52486958D01*
X14575674Y-52486982D01*
X14619268Y-52562491D01*
X14619298Y-52562542D01*
X14619307Y-52562556D01*
X14669359Y-52634040D01*
X14709908Y-52682365D01*
X14725460Y-52700899D01*
X14787173Y-52762615D01*
X14854031Y-52818718D01*
X14854034Y-52818720D01*
X14854043Y-52818727D01*
X14925447Y-52868727D01*
X14925524Y-52868781D01*
X15001109Y-52912422D01*
X15080209Y-52949309D01*
X15162222Y-52979162D01*
X15246526Y-53001754D01*
X15332478Y-53016913D01*
X15419424Y-53024523D01*
X15463063Y-53025000D01*
X15463069Y-53024999D01*
X15463076Y-53025000D01*
X15468295Y-53024940D01*
X15506703Y-53024502D01*
X15593652Y-53016898D01*
X15679607Y-53001745D01*
X15763914Y-52979158D01*
X15829764Y-52955192D01*
X15845923Y-52949312D01*
X15845923Y-52949311D01*
X15845931Y-52949309D01*
X15925035Y-52912425D01*
X16000623Y-52868786D01*
X16072120Y-52818726D01*
X16138982Y-52762625D01*
X16200700Y-52700909D01*
X16256803Y-52634049D01*
X16306866Y-52562554D01*
X16350507Y-52486968D01*
X16350536Y-52486907D01*
X16387388Y-52407880D01*
X16387388Y-52407879D01*
X16387395Y-52407865D01*
X16417247Y-52325849D01*
X16439837Y-52241543D01*
X16454994Y-52155588D01*
X16462601Y-52068640D01*
X16463063Y-52025000D01*
X16463063Y-50425000D01*
X16462638Y-50381358D01*
X16455030Y-50294407D01*
X16439873Y-50208449D01*
X16417282Y-50124140D01*
X16387429Y-50042121D01*
X16387401Y-50042061D01*
X16350549Y-49963033D01*
X16350544Y-49963024D01*
X16350540Y-49963015D01*
X16306898Y-49887426D01*
X16256833Y-49815928D01*
X16256778Y-49815863D01*
X16211612Y-49762038D01*
X16200727Y-49749066D01*
X16139007Y-49687348D01*
X16100400Y-49654954D01*
X16072150Y-49631250D01*
X16072143Y-49631245D01*
X16000643Y-49581183D01*
X16000640Y-49581181D01*
X16000634Y-49581177D01*
X15934002Y-49542710D01*
X15925052Y-49537543D01*
X15925033Y-49537534D01*
X15845956Y-49500661D01*
X15845936Y-49500653D01*
X15763936Y-49470810D01*
X15763917Y-49470804D01*
X15679622Y-49448221D01*
X15679624Y-49448221D01*
X15679615Y-49448219D01*
X15648497Y-49442733D01*
X15593662Y-49433065D01*
X15506702Y-49425460D01*
X15463080Y-49424999D01*
X15419420Y-49425439D01*
X15332482Y-49433049D01*
X15332478Y-49433049D01*
X15332473Y-49433050D01*
X15332464Y-49433051D01*
X15332461Y-49433052D01*
X15246533Y-49448207D01*
X15246526Y-49448208D01*
X15246518Y-49448210D01*
X15246507Y-49448212D01*
X15246498Y-49448215D01*
X15162217Y-49470799D01*
X15162213Y-49470800D01*
X15080201Y-49500653D01*
X15001084Y-49537549D01*
X14925515Y-49581181D01*
X14925500Y-49581190D01*
X14854018Y-49631244D01*
X14854010Y-49631250D01*
X14787151Y-49687353D01*
X14725428Y-49749080D01*
X14725411Y-49749098D01*
X14669332Y-49815934D01*
X14619279Y-49887419D01*
X14619262Y-49887445D01*
X14575631Y-49963017D01*
X14575623Y-49963032D01*
X14538746Y-50042120D01*
X14538743Y-50042128D01*
X14508889Y-50124152D01*
X14486305Y-50208440D01*
X14486300Y-50208464D01*
X14471148Y-50294397D01*
X14471145Y-50294417D01*
X14463545Y-50381285D01*
X14463539Y-50381359D01*
X14463064Y-50424986D01*
X14463063Y-50425033D01*
X13923063Y-50425033D01*
X13923063Y-49825000D01*
X13920870Y-49761994D01*
X13881930Y-49642148D01*
X13881928Y-49642145D01*
X13881927Y-49642142D01*
X13807862Y-49540201D01*
X13807861Y-49540200D01*
X13705920Y-49466135D01*
X13705917Y-49466134D01*
X13705915Y-49466133D01*
X13633897Y-49442733D01*
X13586070Y-49427193D01*
X13565067Y-49426462D01*
X13523063Y-49425000D01*
X12923063Y-49425000D01*
X12323063Y-49425000D01*
X12323054Y-49425000D01*
X12260103Y-49427461D01*
X12260101Y-49427461D01*
X12140337Y-49466375D01*
X12140332Y-49466377D01*
X12038457Y-49540394D01*
X11964440Y-49642269D01*
X11964438Y-49642274D01*
X11925524Y-49762038D01*
X11925524Y-49762040D01*
X11923417Y-49815934D01*
X11923063Y-49825000D01*
X11183027Y-49825000D01*
X11176637Y-49815874D01*
X11176626Y-49815861D01*
X11176625Y-49815859D01*
X11120556Y-49749035D01*
X11120540Y-49749018D01*
X11120536Y-49749013D01*
X11058822Y-49687296D01*
X10991963Y-49631192D01*
X10973979Y-49618599D01*
X10920468Y-49581128D01*
X10844890Y-49537490D01*
X10844849Y-49537471D01*
X10765782Y-49500600D01*
X10683767Y-49470746D01*
X10683763Y-49470744D01*
X10683755Y-49470742D01*
X10599474Y-49448157D01*
X10599464Y-49448155D01*
X10513509Y-49432997D01*
X10426553Y-49425387D01*
X10426558Y-49425387D01*
X10382917Y-49424924D01*
X10339287Y-49425383D01*
X10339261Y-49425385D01*
X10252338Y-49432990D01*
X10252319Y-49432993D01*
X10166381Y-49448146D01*
X10166367Y-49448149D01*
X10082068Y-49470736D01*
X10000053Y-49500588D01*
X10000039Y-49500594D01*
X9920955Y-49537471D01*
X9920949Y-49537474D01*
X9891620Y-49554407D01*
X9845358Y-49581117D01*
X9845357Y-49581118D01*
X9845351Y-49581121D01*
X9773854Y-49631184D01*
X9706996Y-49687286D01*
X9645284Y-49748998D01*
X9589183Y-49815855D01*
X9589181Y-49815857D01*
X9539114Y-49887362D01*
X9539111Y-49887367D01*
X9495474Y-49962949D01*
X9495470Y-49962957D01*
X9458589Y-50042048D01*
X9458582Y-50042065D01*
X9428742Y-50124052D01*
X9428735Y-50124075D01*
X9406149Y-50208371D01*
X9406146Y-50208384D01*
X9390991Y-50294330D01*
X9383383Y-50381286D01*
X9383383Y-50381290D01*
X9383286Y-50390504D01*
X9382922Y-50424925D01*
X5317791Y-50424925D01*
X5308566Y-50390498D01*
X5305872Y-50377822D01*
X5301540Y-50350466D01*
X5281441Y-50288609D01*
X5279598Y-50282386D01*
X5259805Y-50208513D01*
X5259803Y-50208510D01*
X5259802Y-50208504D01*
X5248526Y-50184323D01*
X5242987Y-50170261D01*
X5238283Y-50155781D01*
X5222161Y-50124140D01*
X5203109Y-50086748D01*
X5201212Y-50082858D01*
X5163631Y-50002266D01*
X5155499Y-49990652D01*
X5146587Y-49975818D01*
X5145351Y-49973391D01*
X5145349Y-49973388D01*
X5092525Y-49900682D01*
X5091268Y-49898920D01*
X5033108Y-49815858D01*
X4872203Y-49654953D01*
X4789141Y-49596793D01*
X4788375Y-49595964D01*
X4787379Y-49595536D01*
X4714675Y-49542714D01*
X4712232Y-49541469D01*
X4711472Y-49540751D01*
X4710525Y-49540171D01*
X4710646Y-49539971D01*
X4706317Y-49535882D01*
X4697410Y-49532563D01*
X4685799Y-49524433D01*
X4685790Y-49524429D01*
X4627786Y-49497380D01*
X4575348Y-49451208D01*
X4556197Y-49384014D01*
X4576413Y-49317133D01*
X4627787Y-49272617D01*
X4685797Y-49245568D01*
X4697410Y-49237436D01*
X4712243Y-49228524D01*
X4714673Y-49227287D01*
X4787421Y-49174432D01*
X4789110Y-49173227D01*
X4872202Y-49115047D01*
X5033110Y-48954139D01*
X5091290Y-48871047D01*
X5092515Y-48869330D01*
X5092526Y-48869316D01*
X5145350Y-48796610D01*
X5146587Y-48794180D01*
X5155500Y-48779345D01*
X5163631Y-48767734D01*
X5201241Y-48687077D01*
X5203079Y-48683308D01*
X5238283Y-48614219D01*
X5242988Y-48599736D01*
X5248536Y-48585654D01*
X5259802Y-48561496D01*
X5259805Y-48561488D01*
X5279597Y-48487617D01*
X5281441Y-48481389D01*
X5281445Y-48481378D01*
X5301540Y-48419534D01*
X5305873Y-48392171D01*
X5308570Y-48379488D01*
X5318698Y-48341692D01*
X5324279Y-48277891D01*
X5325333Y-48269306D01*
X5333563Y-48217350D01*
X5333563Y-48016827D01*
X5333563Y-48012648D01*
X5325218Y-47959967D01*
X5325120Y-47959297D01*
X5325142Y-47959138D01*
X5324278Y-47952098D01*
X5318698Y-47888308D01*
X5308566Y-47850498D01*
X5305872Y-47837822D01*
X5301540Y-47810466D01*
X5281441Y-47748609D01*
X5279598Y-47742386D01*
X5259805Y-47668513D01*
X5259803Y-47668510D01*
X5259802Y-47668504D01*
X5248526Y-47644323D01*
X5242987Y-47630261D01*
X5238283Y-47615781D01*
X5203109Y-47546748D01*
X5201212Y-47542858D01*
X5163631Y-47462266D01*
X5155499Y-47450652D01*
X5146587Y-47435818D01*
X5145351Y-47433391D01*
X5145349Y-47433388D01*
X5092525Y-47360682D01*
X5091268Y-47358920D01*
X5033108Y-47275858D01*
X4872206Y-47114956D01*
X4805683Y-47068376D01*
X4762059Y-47013799D01*
X4754866Y-46944300D01*
X4786388Y-46881946D01*
X4846145Y-46846652D01*
X4866088Y-46841562D01*
X4866098Y-46841559D01*
X4922645Y-46818135D01*
X4162472Y-46057962D01*
X4226056Y-46040925D01*
X4340070Y-45975099D01*
X4433162Y-45882007D01*
X4466075Y-45825000D01*
X4636615Y-45825000D01*
X5276198Y-46464582D01*
X5276200Y-46464582D01*
X5299615Y-46408053D01*
X5317607Y-46357053D01*
X5338061Y-46214785D01*
X20508063Y-46214785D01*
X20510956Y-46268762D01*
X20510956Y-46268764D01*
X20546501Y-46408030D01*
X20546503Y-46408037D01*
X20569926Y-46464583D01*
X21209510Y-45825000D01*
X20508063Y-45825000D01*
X20508063Y-46214785D01*
X5338061Y-46214785D01*
X5338062Y-46214780D01*
X5338063Y-46214779D01*
X5338063Y-45825000D01*
X4636615Y-45825000D01*
X4466075Y-45825000D01*
X4498988Y-45767993D01*
X4533063Y-45640826D01*
X4533063Y-45509174D01*
X4498988Y-45382007D01*
X4466074Y-45324999D01*
X4636615Y-45324999D01*
X4636616Y-45325000D01*
X5338063Y-45325000D01*
X5338063Y-44935224D01*
X5338063Y-44935219D01*
X20508063Y-44935219D01*
X20508063Y-45325000D01*
X21209510Y-45325000D01*
X21209510Y-45324999D01*
X20569925Y-44685415D01*
X20546512Y-44741940D01*
X20528518Y-44792946D01*
X20508063Y-44935219D01*
X5338063Y-44935219D01*
X5338062Y-44935204D01*
X5335169Y-44881237D01*
X5335169Y-44881235D01*
X5299621Y-44741960D01*
X5276199Y-44685415D01*
X5276198Y-44685415D01*
X4636615Y-45324999D01*
X4466074Y-45324999D01*
X4433162Y-45267993D01*
X4340070Y-45174901D01*
X4226056Y-45109075D01*
X4162472Y-45092037D01*
X4922646Y-44331863D01*
X4922646Y-44331862D01*
X4866115Y-44308447D01*
X4866087Y-44308436D01*
X4837897Y-44298491D01*
X4781226Y-44257624D01*
X4755645Y-44192605D01*
X4769277Y-44124078D01*
X4808028Y-44079980D01*
X4872202Y-44035047D01*
X5033110Y-43874139D01*
X5091290Y-43791047D01*
X5092515Y-43789330D01*
X5092526Y-43789316D01*
X5145350Y-43716610D01*
X5146587Y-43714180D01*
X5155500Y-43699345D01*
X5163631Y-43687734D01*
X5201241Y-43607077D01*
X5203079Y-43603308D01*
X5238283Y-43534219D01*
X5242988Y-43519736D01*
X5248536Y-43505654D01*
X5259802Y-43481496D01*
X5259805Y-43481488D01*
X5279597Y-43407617D01*
X5281441Y-43401389D01*
X5281445Y-43401378D01*
X5301540Y-43339534D01*
X5305873Y-43312171D01*
X5308570Y-43299488D01*
X5318698Y-43261692D01*
X5324279Y-43197891D01*
X5325333Y-43189306D01*
X5333563Y-43137350D01*
X5333563Y-42932649D01*
X5325333Y-42880691D01*
X5324278Y-42872098D01*
X5318698Y-42808308D01*
X5308566Y-42770498D01*
X5305872Y-42757822D01*
X5301540Y-42730466D01*
X5281441Y-42668609D01*
X5279598Y-42662386D01*
X5259805Y-42588513D01*
X5259803Y-42588510D01*
X5259802Y-42588504D01*
X5248526Y-42564323D01*
X5242987Y-42550261D01*
X5238283Y-42535781D01*
X5203109Y-42466748D01*
X5201212Y-42462858D01*
X5163631Y-42382266D01*
X5155499Y-42370652D01*
X5146587Y-42355818D01*
X5145351Y-42353391D01*
X5145349Y-42353388D01*
X5092525Y-42280682D01*
X5091268Y-42278920D01*
X5033108Y-42195858D01*
X4872203Y-42034953D01*
X4789141Y-41976793D01*
X4788375Y-41975964D01*
X4787379Y-41975536D01*
X4714675Y-41922714D01*
X4712232Y-41921469D01*
X4711472Y-41920751D01*
X4710525Y-41920171D01*
X4710646Y-41919971D01*
X4706317Y-41915882D01*
X4697410Y-41912563D01*
X4685799Y-41904433D01*
X4685790Y-41904429D01*
X4627786Y-41877380D01*
X4575348Y-41831208D01*
X4556197Y-41764014D01*
X4576413Y-41697133D01*
X4627787Y-41652617D01*
X4685797Y-41625568D01*
X4697410Y-41617436D01*
X4712243Y-41608524D01*
X4714673Y-41607287D01*
X4787421Y-41554432D01*
X4789110Y-41553227D01*
X4872202Y-41495047D01*
X5033110Y-41334139D01*
X5091290Y-41251047D01*
X5092515Y-41249330D01*
X5092526Y-41249316D01*
X5145350Y-41176610D01*
X5146587Y-41174180D01*
X5155500Y-41159345D01*
X5163631Y-41147734D01*
X5201241Y-41067077D01*
X5203079Y-41063308D01*
X5238283Y-40994219D01*
X5242988Y-40979736D01*
X5248536Y-40965654D01*
X5259802Y-40941496D01*
X5259805Y-40941488D01*
X5279597Y-40867617D01*
X5281441Y-40861389D01*
X5281445Y-40861378D01*
X5301540Y-40799534D01*
X5305873Y-40772171D01*
X5308570Y-40759488D01*
X5318698Y-40721692D01*
X5324279Y-40657891D01*
X5325333Y-40649306D01*
X5333563Y-40597350D01*
X5333563Y-40392649D01*
X5325333Y-40340691D01*
X5324278Y-40332098D01*
X5318698Y-40268308D01*
X5308566Y-40230498D01*
X5305872Y-40217822D01*
X5301540Y-40190466D01*
X5281441Y-40128609D01*
X5279598Y-40122386D01*
X5259805Y-40048513D01*
X5259803Y-40048510D01*
X5259802Y-40048504D01*
X5248526Y-40024323D01*
X5242987Y-40010261D01*
X5238283Y-39995781D01*
X5203109Y-39926748D01*
X5201212Y-39922858D01*
X5163631Y-39842266D01*
X5155499Y-39830652D01*
X5146587Y-39815818D01*
X5145351Y-39813391D01*
X5145349Y-39813388D01*
X5092525Y-39740682D01*
X5091268Y-39738920D01*
X5033108Y-39655858D01*
X4872203Y-39494953D01*
X4789141Y-39436793D01*
X4788375Y-39435964D01*
X4787379Y-39435536D01*
X4714675Y-39382714D01*
X4712232Y-39381469D01*
X4711472Y-39380751D01*
X4710525Y-39380171D01*
X4710646Y-39379971D01*
X4706317Y-39375882D01*
X4697410Y-39372563D01*
X4685799Y-39364433D01*
X4685790Y-39364429D01*
X4627786Y-39337380D01*
X4575348Y-39291208D01*
X4556197Y-39224014D01*
X4576413Y-39157133D01*
X4627787Y-39112617D01*
X4685797Y-39085568D01*
X4697410Y-39077436D01*
X4712243Y-39068524D01*
X4714673Y-39067287D01*
X4787421Y-39014432D01*
X4789110Y-39013227D01*
X4872202Y-38955047D01*
X5033110Y-38794139D01*
X5091290Y-38711047D01*
X5092515Y-38709330D01*
X5092526Y-38709316D01*
X5145350Y-38636610D01*
X5146587Y-38634180D01*
X5155500Y-38619345D01*
X5163631Y-38607734D01*
X5201241Y-38527077D01*
X5203079Y-38523308D01*
X5238283Y-38454219D01*
X5242988Y-38439736D01*
X5248536Y-38425654D01*
X5259802Y-38401496D01*
X5259805Y-38401488D01*
X5279597Y-38327617D01*
X5281441Y-38321389D01*
X5281445Y-38321378D01*
X5301540Y-38259534D01*
X5305873Y-38232171D01*
X5308570Y-38219488D01*
X5318698Y-38181692D01*
X5324279Y-38117891D01*
X5325333Y-38109306D01*
X5333563Y-38057350D01*
X5333563Y-37852649D01*
X5325333Y-37800691D01*
X5324278Y-37792098D01*
X5318698Y-37728308D01*
X5308566Y-37690498D01*
X5305872Y-37677822D01*
X5301540Y-37650466D01*
X5281441Y-37588609D01*
X5279598Y-37582386D01*
X5259805Y-37508513D01*
X5259803Y-37508510D01*
X5259802Y-37508504D01*
X5248526Y-37484323D01*
X5242987Y-37470261D01*
X5238283Y-37455781D01*
X5203109Y-37386748D01*
X5201212Y-37382858D01*
X5163631Y-37302266D01*
X5155499Y-37290652D01*
X5146587Y-37275818D01*
X5145351Y-37273391D01*
X5145349Y-37273388D01*
X5092525Y-37200682D01*
X5091268Y-37198920D01*
X5033108Y-37115858D01*
X4872203Y-36954953D01*
X4789141Y-36896793D01*
X4788375Y-36895964D01*
X4787379Y-36895536D01*
X4714675Y-36842714D01*
X4712232Y-36841469D01*
X4711472Y-36840751D01*
X4710525Y-36840171D01*
X4710646Y-36839971D01*
X4706317Y-36835882D01*
X4697410Y-36832563D01*
X4685799Y-36824433D01*
X4685790Y-36824429D01*
X4627786Y-36797380D01*
X4575348Y-36751208D01*
X4556197Y-36684014D01*
X4576413Y-36617133D01*
X4627787Y-36572617D01*
X4685797Y-36545568D01*
X4697410Y-36537436D01*
X4712243Y-36528524D01*
X4714673Y-36527287D01*
X4787421Y-36474432D01*
X4789110Y-36473227D01*
X4872202Y-36415047D01*
X5033110Y-36254139D01*
X5091290Y-36171047D01*
X5092515Y-36169330D01*
X5092526Y-36169316D01*
X5145350Y-36096610D01*
X5146587Y-36094180D01*
X5155500Y-36079345D01*
X5163631Y-36067734D01*
X5201241Y-35987077D01*
X5203079Y-35983308D01*
X5238283Y-35914219D01*
X5242988Y-35899736D01*
X5248536Y-35885654D01*
X5259802Y-35861496D01*
X5259805Y-35861488D01*
X5279597Y-35787617D01*
X5281441Y-35781389D01*
X5281445Y-35781378D01*
X5301540Y-35719534D01*
X5305873Y-35692171D01*
X5308570Y-35679488D01*
X5318698Y-35641692D01*
X5324279Y-35577891D01*
X5325333Y-35569306D01*
X5333563Y-35517350D01*
X5333563Y-35316827D01*
X5333563Y-35312648D01*
X5325218Y-35259967D01*
X5325120Y-35259297D01*
X5325142Y-35259138D01*
X5324278Y-35252098D01*
X5318698Y-35188308D01*
X5308566Y-35150498D01*
X5305872Y-35137822D01*
X5301540Y-35110466D01*
X5281441Y-35048609D01*
X5279598Y-35042386D01*
X5259805Y-34968513D01*
X5259803Y-34968510D01*
X5259802Y-34968504D01*
X5248526Y-34944323D01*
X5242987Y-34930261D01*
X5238283Y-34915781D01*
X5203109Y-34846748D01*
X5201212Y-34842858D01*
X5163631Y-34762266D01*
X5155499Y-34750652D01*
X5146587Y-34735818D01*
X5145351Y-34733391D01*
X5145349Y-34733388D01*
X5092525Y-34660682D01*
X5091268Y-34658920D01*
X5033108Y-34575858D01*
X4872206Y-34414956D01*
X4805683Y-34368376D01*
X4762059Y-34313799D01*
X4754866Y-34244300D01*
X4786388Y-34181946D01*
X4846145Y-34146652D01*
X4866088Y-34141562D01*
X4866098Y-34141559D01*
X4922645Y-34118135D01*
X4162472Y-33357962D01*
X4226056Y-33340925D01*
X4340070Y-33275099D01*
X4433162Y-33182007D01*
X4466075Y-33125000D01*
X4636615Y-33125000D01*
X5276198Y-33764582D01*
X5276200Y-33764582D01*
X5299615Y-33708053D01*
X5317607Y-33657053D01*
X5338061Y-33514785D01*
X20508063Y-33514785D01*
X20510956Y-33568762D01*
X20510956Y-33568764D01*
X20546501Y-33708030D01*
X20546503Y-33708037D01*
X20569926Y-33764583D01*
X21209510Y-33125000D01*
X20508063Y-33125000D01*
X20508063Y-33514785D01*
X5338061Y-33514785D01*
X5338062Y-33514780D01*
X5338063Y-33514779D01*
X5338063Y-33125000D01*
X4636615Y-33125000D01*
X4466075Y-33125000D01*
X4498988Y-33067993D01*
X4533063Y-32940826D01*
X4533063Y-32809174D01*
X4498988Y-32682007D01*
X4466074Y-32624999D01*
X4636615Y-32624999D01*
X4636616Y-32625000D01*
X5338063Y-32625000D01*
X5338063Y-32235224D01*
X5337778Y-32229913D01*
X5337778Y-32229905D01*
X5337515Y-32224997D01*
X6266785Y-32224997D01*
X6267171Y-32252697D01*
X6267171Y-32252701D01*
X6291440Y-32444813D01*
X6291441Y-32444816D01*
X6351380Y-32625000D01*
X6352565Y-32628560D01*
X6448206Y-32796918D01*
X6572423Y-32940826D01*
X6574738Y-32943507D01*
X6727327Y-33062724D01*
X6900167Y-33150031D01*
X7086673Y-33202105D01*
X7279742Y-33216960D01*
X7472019Y-33194033D01*
X7656181Y-33134195D01*
X7825212Y-33039726D01*
X7972676Y-32914225D01*
X8092955Y-32762471D01*
X8181467Y-32590245D01*
X8234841Y-32404107D01*
X8247555Y-32252697D01*
X8249881Y-32224997D01*
X8806785Y-32224997D01*
X8807171Y-32252697D01*
X8807171Y-32252701D01*
X8831440Y-32444813D01*
X8831441Y-32444816D01*
X8891380Y-32625000D01*
X8892565Y-32628560D01*
X8988206Y-32796918D01*
X9112423Y-32940826D01*
X9114738Y-32943507D01*
X9267327Y-33062724D01*
X9440167Y-33150031D01*
X9626673Y-33202105D01*
X9819742Y-33216960D01*
X10012019Y-33194033D01*
X10196181Y-33134195D01*
X10365212Y-33039726D01*
X10512676Y-32914225D01*
X10632955Y-32762471D01*
X10721467Y-32590245D01*
X10774841Y-32404107D01*
X10791044Y-32211147D01*
X10769460Y-32018715D01*
X10710909Y-31834140D01*
X10617622Y-31664452D01*
X10617620Y-31664450D01*
X10617620Y-31664449D01*
X10617618Y-31664446D01*
X10527983Y-31557624D01*
X10493154Y-31516116D01*
X10395499Y-31437600D01*
X11351563Y-31437600D01*
X11351563Y-33012400D01*
X11352896Y-33039726D01*
X11353485Y-33051802D01*
X11383637Y-33124596D01*
X11383638Y-33124598D01*
X11383640Y-33124602D01*
X11439361Y-33180323D01*
X11503428Y-33206860D01*
X11512161Y-33210477D01*
X11512160Y-33210477D01*
X11512163Y-33210478D01*
X11551563Y-33212400D01*
X11551578Y-33212400D01*
X13126348Y-33212400D01*
X13126363Y-33212400D01*
X13165763Y-33210478D01*
X13238565Y-33180322D01*
X13238566Y-33180321D01*
X13238568Y-33180320D01*
X13294283Y-33124605D01*
X13294284Y-33124603D01*
X13294285Y-33124602D01*
X13324441Y-33051800D01*
X13326363Y-33012400D01*
X13326363Y-32235219D01*
X20508063Y-32235219D01*
X20508063Y-32625000D01*
X21209510Y-32625000D01*
X21209510Y-32624999D01*
X20569925Y-31985415D01*
X20546512Y-32041940D01*
X20528518Y-32092946D01*
X20508063Y-32235219D01*
X13326363Y-32235219D01*
X13326363Y-31437600D01*
X13324441Y-31398200D01*
X13294285Y-31325398D01*
X13294284Y-31325397D01*
X13294284Y-31325396D01*
X13238566Y-31269678D01*
X13192015Y-31250396D01*
X13165763Y-31239522D01*
X13126363Y-31237600D01*
X12338963Y-31237600D01*
X11551563Y-31237600D01*
X11521255Y-31239078D01*
X11512160Y-31239522D01*
X11439366Y-31269674D01*
X11439358Y-31269679D01*
X11383642Y-31325395D01*
X11383637Y-31325403D01*
X11353485Y-31398197D01*
X11353485Y-31398200D01*
X11351563Y-31437600D01*
X10395499Y-31437600D01*
X10342243Y-31394781D01*
X10342231Y-31394773D01*
X10170640Y-31305069D01*
X10170636Y-31305067D01*
X9984880Y-31250396D01*
X9936668Y-31246008D01*
X9792036Y-31232846D01*
X9792034Y-31232846D01*
X9792033Y-31232846D01*
X9599453Y-31253087D01*
X9414482Y-31310346D01*
X9244145Y-31402446D01*
X9094942Y-31525878D01*
X8972557Y-31675936D01*
X8972556Y-31675938D01*
X8881649Y-31846907D01*
X8881649Y-31846908D01*
X8825680Y-32032287D01*
X8806785Y-32224997D01*
X8249881Y-32224997D01*
X8250898Y-32212893D01*
X8250898Y-32212892D01*
X8251044Y-32211155D01*
X8251043Y-32211151D01*
X8251044Y-32211147D01*
X8229460Y-32018715D01*
X8170909Y-31834140D01*
X8077622Y-31664452D01*
X8077620Y-31664450D01*
X8077620Y-31664449D01*
X8077618Y-31664446D01*
X7987983Y-31557624D01*
X7953154Y-31516116D01*
X7802243Y-31394781D01*
X7802231Y-31394773D01*
X7630640Y-31305069D01*
X7630636Y-31305067D01*
X7444880Y-31250396D01*
X7396668Y-31246008D01*
X7252036Y-31232846D01*
X7252034Y-31232846D01*
X7252033Y-31232846D01*
X7059453Y-31253087D01*
X6874482Y-31310346D01*
X6704145Y-31402446D01*
X6554942Y-31525878D01*
X6432557Y-31675936D01*
X6432556Y-31675938D01*
X6341649Y-31846907D01*
X6341649Y-31846908D01*
X6285680Y-32032287D01*
X6266785Y-32224997D01*
X5337515Y-32224997D01*
X5335169Y-32181236D01*
X5335169Y-32181235D01*
X5299621Y-32041960D01*
X5276199Y-31985415D01*
X5276198Y-31985415D01*
X4636615Y-32624999D01*
X4466074Y-32624999D01*
X4433162Y-32567993D01*
X4340070Y-32474901D01*
X4226056Y-32409075D01*
X4162472Y-32392037D01*
X4922646Y-31631863D01*
X4922646Y-31631862D01*
X4866115Y-31608447D01*
X4866087Y-31608436D01*
X4837897Y-31598491D01*
X4781226Y-31557624D01*
X4755645Y-31492605D01*
X4769277Y-31424078D01*
X4808028Y-31379980D01*
X4872202Y-31335047D01*
X5033110Y-31174139D01*
X5091290Y-31091047D01*
X5092515Y-31089330D01*
X5092526Y-31089316D01*
X5145350Y-31016610D01*
X5146587Y-31014180D01*
X5155500Y-30999345D01*
X5163631Y-30987734D01*
X5201241Y-30907077D01*
X5203079Y-30903308D01*
X5238283Y-30834219D01*
X5242988Y-30819736D01*
X5248536Y-30805654D01*
X5259802Y-30781496D01*
X5259805Y-30781488D01*
X5279597Y-30707617D01*
X5281441Y-30701389D01*
X5281445Y-30701378D01*
X5301540Y-30639534D01*
X5305873Y-30612171D01*
X5308570Y-30599488D01*
X5318698Y-30561692D01*
X5324279Y-30497891D01*
X5325333Y-30489306D01*
X5333563Y-30437350D01*
X5333563Y-30232649D01*
X5325333Y-30180691D01*
X5324278Y-30172098D01*
X5318698Y-30108308D01*
X5308566Y-30070498D01*
X5305872Y-30057822D01*
X5301540Y-30030466D01*
X5281441Y-29968609D01*
X5279598Y-29962386D01*
X5259805Y-29888513D01*
X5259803Y-29888510D01*
X5259802Y-29888504D01*
X5248526Y-29864323D01*
X5242987Y-29850261D01*
X5238283Y-29835781D01*
X5203109Y-29766748D01*
X5201212Y-29762858D01*
X5163631Y-29682266D01*
X5155499Y-29670652D01*
X5146587Y-29655818D01*
X5145351Y-29653391D01*
X5145349Y-29653388D01*
X5092525Y-29580682D01*
X5091268Y-29578920D01*
X5033108Y-29495858D01*
X4872203Y-29334953D01*
X4789141Y-29276793D01*
X4788375Y-29275964D01*
X4787379Y-29275536D01*
X4714675Y-29222714D01*
X4712232Y-29221469D01*
X4711472Y-29220751D01*
X4710525Y-29220171D01*
X4710646Y-29219971D01*
X4706317Y-29215882D01*
X4697410Y-29212563D01*
X4685799Y-29204433D01*
X4685790Y-29204429D01*
X4627786Y-29177380D01*
X4575348Y-29131208D01*
X4556197Y-29064014D01*
X4576413Y-28997133D01*
X4627787Y-28952617D01*
X4685797Y-28925568D01*
X4697410Y-28917436D01*
X4712243Y-28908524D01*
X4714673Y-28907287D01*
X4787421Y-28854432D01*
X4789110Y-28853227D01*
X4872202Y-28795047D01*
X5033110Y-28634139D01*
X5091290Y-28551047D01*
X5092515Y-28549330D01*
X5092526Y-28549316D01*
X5145350Y-28476610D01*
X5146587Y-28474180D01*
X5155500Y-28459345D01*
X5163631Y-28447734D01*
X5201241Y-28367077D01*
X5203079Y-28363308D01*
X5238283Y-28294219D01*
X5242988Y-28279736D01*
X5248536Y-28265654D01*
X5259802Y-28241496D01*
X5259805Y-28241488D01*
X5279597Y-28167617D01*
X5281441Y-28161389D01*
X5281445Y-28161378D01*
X5301540Y-28099534D01*
X5305873Y-28072171D01*
X5308570Y-28059488D01*
X5318698Y-28021692D01*
X5324279Y-27957891D01*
X5325333Y-27949306D01*
X5333563Y-27897350D01*
X5333563Y-27692649D01*
X5325333Y-27640691D01*
X5324278Y-27632098D01*
X5318698Y-27568308D01*
X5308566Y-27530498D01*
X5305872Y-27517822D01*
X5301540Y-27490466D01*
X5281441Y-27428609D01*
X5279598Y-27422386D01*
X5259805Y-27348513D01*
X5259803Y-27348510D01*
X5259802Y-27348504D01*
X5248526Y-27324323D01*
X5242987Y-27310261D01*
X5238283Y-27295781D01*
X5203109Y-27226748D01*
X5201212Y-27222858D01*
X5163631Y-27142266D01*
X5155499Y-27130652D01*
X5146587Y-27115818D01*
X5145351Y-27113391D01*
X5145349Y-27113388D01*
X5092525Y-27040682D01*
X5091268Y-27038920D01*
X5033108Y-26955858D01*
X4872203Y-26794953D01*
X4789141Y-26736793D01*
X4788375Y-26735964D01*
X4787379Y-26735536D01*
X4714675Y-26682714D01*
X4712232Y-26681469D01*
X4711472Y-26680751D01*
X4710525Y-26680171D01*
X4710646Y-26679971D01*
X4706317Y-26675882D01*
X4697410Y-26672563D01*
X4685799Y-26664433D01*
X4685790Y-26664429D01*
X4627786Y-26637380D01*
X4575348Y-26591208D01*
X4556197Y-26524014D01*
X4576413Y-26457133D01*
X4627787Y-26412617D01*
X4685797Y-26385568D01*
X4697410Y-26377436D01*
X4712243Y-26368524D01*
X4714673Y-26367287D01*
X4787421Y-26314432D01*
X4789110Y-26313227D01*
X4872202Y-26255047D01*
X5033110Y-26094139D01*
X5091290Y-26011047D01*
X5092515Y-26009330D01*
X5092526Y-26009316D01*
X5145350Y-25936610D01*
X5146587Y-25934180D01*
X5155500Y-25919345D01*
X5163631Y-25907734D01*
X5201241Y-25827077D01*
X5203079Y-25823308D01*
X5238283Y-25754219D01*
X5242988Y-25739736D01*
X5248536Y-25725654D01*
X5259802Y-25701496D01*
X5259805Y-25701488D01*
X5279597Y-25627617D01*
X5281441Y-25621389D01*
X5281445Y-25621378D01*
X5301540Y-25559534D01*
X5305873Y-25532171D01*
X5308570Y-25519488D01*
X5318698Y-25481692D01*
X5324279Y-25417891D01*
X5325333Y-25409306D01*
X5333563Y-25357350D01*
X5333563Y-25152649D01*
X5325333Y-25100691D01*
X5324278Y-25092098D01*
X5318698Y-25028308D01*
X5308566Y-24990498D01*
X5305872Y-24977822D01*
X5301540Y-24950466D01*
X5281441Y-24888609D01*
X5279598Y-24882386D01*
X5259805Y-24808513D01*
X5259803Y-24808510D01*
X5259802Y-24808504D01*
X5248526Y-24784323D01*
X5242987Y-24770261D01*
X5238283Y-24755781D01*
X5203109Y-24686748D01*
X5201212Y-24682858D01*
X5163631Y-24602266D01*
X5155499Y-24590652D01*
X5146587Y-24575818D01*
X5145351Y-24573391D01*
X5145349Y-24573388D01*
X5092525Y-24500682D01*
X5091268Y-24498920D01*
X5033108Y-24415858D01*
X4872203Y-24254953D01*
X4789141Y-24196793D01*
X4788375Y-24195964D01*
X4787379Y-24195536D01*
X4714675Y-24142714D01*
X4712232Y-24141469D01*
X4711472Y-24140751D01*
X4710525Y-24140171D01*
X4710646Y-24139971D01*
X4706317Y-24135882D01*
X4697410Y-24132563D01*
X4685799Y-24124433D01*
X4685790Y-24124429D01*
X4627786Y-24097380D01*
X4575348Y-24051208D01*
X4556197Y-23984014D01*
X4576413Y-23917133D01*
X4627787Y-23872617D01*
X4685797Y-23845568D01*
X4697410Y-23837436D01*
X4712243Y-23828524D01*
X4714673Y-23827287D01*
X4787421Y-23774432D01*
X4789110Y-23773227D01*
X4872202Y-23715047D01*
X5033110Y-23554139D01*
X5091290Y-23471047D01*
X5092515Y-23469330D01*
X5092526Y-23469316D01*
X5145350Y-23396610D01*
X5146587Y-23394180D01*
X5155500Y-23379345D01*
X5163631Y-23367734D01*
X5201241Y-23287077D01*
X5203079Y-23283308D01*
X5238283Y-23214219D01*
X5242988Y-23199736D01*
X5248536Y-23185654D01*
X5259802Y-23161496D01*
X5259805Y-23161488D01*
X5279597Y-23087617D01*
X5281441Y-23081389D01*
X5281445Y-23081378D01*
X5301540Y-23019534D01*
X5305873Y-22992171D01*
X5308570Y-22979488D01*
X5318698Y-22941692D01*
X5324279Y-22877891D01*
X5325333Y-22869306D01*
X5333563Y-22817350D01*
X5333563Y-22616827D01*
X5333563Y-22612648D01*
X5325218Y-22559967D01*
X5325120Y-22559297D01*
X5325142Y-22559138D01*
X5324278Y-22552098D01*
X5318698Y-22488308D01*
X5308566Y-22450498D01*
X5305872Y-22437822D01*
X5301540Y-22410466D01*
X5281441Y-22348609D01*
X5279598Y-22342386D01*
X5259805Y-22268513D01*
X5259803Y-22268510D01*
X5259802Y-22268504D01*
X5248526Y-22244323D01*
X5242987Y-22230261D01*
X5238283Y-22215781D01*
X5203109Y-22146748D01*
X5201212Y-22142858D01*
X5163631Y-22062266D01*
X5155499Y-22050652D01*
X5146587Y-22035818D01*
X5145351Y-22033391D01*
X5145349Y-22033388D01*
X5092525Y-21960682D01*
X5091268Y-21958920D01*
X5033108Y-21875858D01*
X4872204Y-21714954D01*
X4806218Y-21668751D01*
X4762593Y-21614175D01*
X4755399Y-21544677D01*
X4786921Y-21482322D01*
X4846675Y-21447028D01*
X4866289Y-21442022D01*
X4939798Y-21411574D01*
X4988614Y-21388219D01*
X5103796Y-21301994D01*
X5160057Y-21245733D01*
X5196220Y-21205475D01*
X5269637Y-21081735D01*
X5272427Y-21075000D01*
X10973063Y-21075000D01*
X10973063Y-21975000D01*
X10975202Y-22040545D01*
X11009130Y-22167167D01*
X11074675Y-22280694D01*
X11167369Y-22373388D01*
X11280896Y-22438933D01*
X11407518Y-22472861D01*
X11473063Y-22475000D01*
X12373063Y-22475000D01*
X12438608Y-22472861D01*
X12565230Y-22438932D01*
X12678757Y-22373388D01*
X12771451Y-22280694D01*
X12836995Y-22167167D01*
X12870924Y-22040545D01*
X12873063Y-21975000D01*
X12873063Y-21075000D01*
X12870924Y-21009455D01*
X12836995Y-20882833D01*
X12797708Y-20814785D01*
X20508063Y-20814785D01*
X20510956Y-20868762D01*
X20510956Y-20868764D01*
X20546501Y-21008030D01*
X20546503Y-21008037D01*
X20569926Y-21064583D01*
X21209510Y-20425000D01*
X20508063Y-20425000D01*
X20508063Y-20814785D01*
X12797708Y-20814785D01*
X12771451Y-20769306D01*
X12678757Y-20676612D01*
X12565230Y-20611068D01*
X12565231Y-20611068D01*
X12526483Y-20600685D01*
X12438608Y-20577139D01*
X12438605Y-20577138D01*
X12438606Y-20577138D01*
X12373063Y-20575000D01*
X11923063Y-20575000D01*
X11473063Y-20575000D01*
X11407518Y-20577139D01*
X11280896Y-20611067D01*
X11280894Y-20611067D01*
X11280894Y-20611068D01*
X11167369Y-20676612D01*
X11167366Y-20676614D01*
X11074677Y-20769303D01*
X11074675Y-20769306D01*
X11036863Y-20834799D01*
X11009130Y-20882833D01*
X10975202Y-21009455D01*
X10973063Y-21075000D01*
X5272427Y-21075000D01*
X5300085Y-21008226D01*
X5318087Y-20957198D01*
X5338563Y-20814782D01*
X5338563Y-19535219D01*
X20508063Y-19535219D01*
X20508063Y-19925000D01*
X21209510Y-19925000D01*
X21209510Y-19924999D01*
X20569925Y-19285415D01*
X20546512Y-19341940D01*
X20528518Y-19392946D01*
X20508063Y-19535219D01*
X5338563Y-19535219D01*
X5338563Y-19535218D01*
X5335667Y-19481185D01*
X5300085Y-19341774D01*
X5269637Y-19268265D01*
X5246282Y-19219449D01*
X5160057Y-19104267D01*
X5160052Y-19104262D01*
X5160047Y-19104256D01*
X5103810Y-19048019D01*
X5101748Y-19046167D01*
X5063538Y-19011843D01*
X5063530Y-19011837D01*
X4939799Y-18938426D01*
X4939800Y-18938426D01*
X4871064Y-18909956D01*
X4866289Y-18907978D01*
X4853531Y-18903477D01*
X4838400Y-18898139D01*
X4781729Y-18857272D01*
X4756148Y-18792253D01*
X4769780Y-18723726D01*
X4808532Y-18679628D01*
X4872202Y-18635047D01*
X5033110Y-18474139D01*
X5091290Y-18391047D01*
X5092515Y-18389330D01*
X5092526Y-18389316D01*
X5145350Y-18316610D01*
X5146587Y-18314180D01*
X5155500Y-18299345D01*
X5163631Y-18287734D01*
X5201241Y-18207077D01*
X5203079Y-18203308D01*
X5238283Y-18134219D01*
X5242988Y-18119736D01*
X5248536Y-18105654D01*
X5259802Y-18081496D01*
X5259805Y-18081488D01*
X5279597Y-18007617D01*
X5281441Y-18001389D01*
X5281445Y-18001378D01*
X5301540Y-17939534D01*
X5305873Y-17912171D01*
X5308570Y-17899488D01*
X5318698Y-17861692D01*
X5324279Y-17797891D01*
X5325333Y-17789306D01*
X5333563Y-17737350D01*
X5333563Y-17532649D01*
X5325333Y-17480691D01*
X5324278Y-17472098D01*
X5318698Y-17408308D01*
X5308566Y-17370498D01*
X5305872Y-17357822D01*
X5301540Y-17330466D01*
X5281441Y-17268609D01*
X5279598Y-17262386D01*
X5259805Y-17188513D01*
X5259803Y-17188510D01*
X5259802Y-17188504D01*
X5248526Y-17164323D01*
X5242987Y-17150261D01*
X5238283Y-17135781D01*
X5203109Y-17066748D01*
X5201212Y-17062858D01*
X5163631Y-16982266D01*
X5155499Y-16970652D01*
X5146587Y-16955818D01*
X5145351Y-16953391D01*
X5145349Y-16953388D01*
X5092525Y-16880682D01*
X5091268Y-16878920D01*
X5033108Y-16795858D01*
X4872203Y-16634953D01*
X4789141Y-16576793D01*
X4788375Y-16575964D01*
X4787379Y-16575536D01*
X4714675Y-16522714D01*
X4712232Y-16521469D01*
X4711472Y-16520751D01*
X4710525Y-16520171D01*
X4710646Y-16519971D01*
X4706317Y-16515882D01*
X4697410Y-16512563D01*
X4685799Y-16504433D01*
X4685790Y-16504429D01*
X4627786Y-16477380D01*
X4575348Y-16431208D01*
X4556197Y-16364014D01*
X4576413Y-16297133D01*
X4627787Y-16252617D01*
X4685797Y-16225568D01*
X4697410Y-16217436D01*
X4712243Y-16208524D01*
X4714673Y-16207287D01*
X4787421Y-16154432D01*
X4789110Y-16153227D01*
X4872202Y-16095047D01*
X5033110Y-15934139D01*
X5091290Y-15851047D01*
X5092515Y-15849330D01*
X5092526Y-15849316D01*
X5145350Y-15776610D01*
X5146587Y-15774180D01*
X5155500Y-15759345D01*
X5163631Y-15747734D01*
X5201241Y-15667077D01*
X5203079Y-15663308D01*
X5238283Y-15594219D01*
X5242988Y-15579736D01*
X5248536Y-15565654D01*
X5259802Y-15541496D01*
X5259805Y-15541488D01*
X5279597Y-15467617D01*
X5281441Y-15461389D01*
X5281445Y-15461378D01*
X5301540Y-15399534D01*
X5305873Y-15372171D01*
X5308570Y-15359488D01*
X5318698Y-15321692D01*
X5324279Y-15257891D01*
X5325333Y-15249306D01*
X5333563Y-15197350D01*
X5333563Y-14992649D01*
X5325333Y-14940691D01*
X5324278Y-14932098D01*
X5318698Y-14868308D01*
X5308566Y-14830498D01*
X5305872Y-14817822D01*
X5301540Y-14790466D01*
X5281441Y-14728609D01*
X5279598Y-14722386D01*
X5259805Y-14648513D01*
X5259803Y-14648510D01*
X5259802Y-14648504D01*
X5248526Y-14624323D01*
X5242987Y-14610261D01*
X5238283Y-14595781D01*
X5203109Y-14526748D01*
X5201212Y-14522858D01*
X5163631Y-14442266D01*
X5155499Y-14430652D01*
X5146587Y-14415818D01*
X5145351Y-14413391D01*
X5145349Y-14413388D01*
X5092525Y-14340682D01*
X5091268Y-14338920D01*
X5033108Y-14255858D01*
X4872203Y-14094953D01*
X4789141Y-14036793D01*
X4788375Y-14035964D01*
X4787379Y-14035536D01*
X4714675Y-13982714D01*
X4712232Y-13981469D01*
X4711472Y-13980751D01*
X4710525Y-13980171D01*
X4710646Y-13979971D01*
X4706317Y-13975882D01*
X4697410Y-13972563D01*
X4685799Y-13964433D01*
X4685790Y-13964429D01*
X4627786Y-13937380D01*
X4575348Y-13891208D01*
X4556197Y-13824014D01*
X4576413Y-13757133D01*
X4627787Y-13712617D01*
X4685797Y-13685568D01*
X4697410Y-13677436D01*
X4712243Y-13668524D01*
X4714673Y-13667287D01*
X4787421Y-13614432D01*
X4789110Y-13613227D01*
X4872202Y-13555047D01*
X5033110Y-13394139D01*
X5091290Y-13311047D01*
X5092515Y-13309330D01*
X5092526Y-13309316D01*
X5145350Y-13236610D01*
X5146587Y-13234180D01*
X5155500Y-13219345D01*
X5163631Y-13207734D01*
X5201241Y-13127077D01*
X5203079Y-13123308D01*
X5238283Y-13054219D01*
X5242988Y-13039736D01*
X5248536Y-13025654D01*
X5259802Y-13001496D01*
X5259805Y-13001488D01*
X5279597Y-12927617D01*
X5281441Y-12921389D01*
X5281445Y-12921378D01*
X5301540Y-12859534D01*
X5305873Y-12832171D01*
X5308570Y-12819488D01*
X5318698Y-12781692D01*
X5324279Y-12717891D01*
X5325333Y-12709306D01*
X5333563Y-12657350D01*
X5333563Y-12452649D01*
X5325333Y-12400691D01*
X5324278Y-12392098D01*
X5318698Y-12328308D01*
X5308566Y-12290498D01*
X5305872Y-12277822D01*
X5301540Y-12250466D01*
X5281441Y-12188609D01*
X5279598Y-12182386D01*
X5259805Y-12108513D01*
X5259803Y-12108510D01*
X5259802Y-12108504D01*
X5248526Y-12084323D01*
X5242987Y-12070261D01*
X5238283Y-12055781D01*
X5203109Y-11986748D01*
X5201212Y-11982858D01*
X5163631Y-11902266D01*
X5155499Y-11890652D01*
X5146587Y-11875818D01*
X5145351Y-11873391D01*
X5145349Y-11873388D01*
X5092525Y-11800682D01*
X5091268Y-11798920D01*
X5033108Y-11715858D01*
X4872203Y-11554953D01*
X4789141Y-11496793D01*
X4788375Y-11495964D01*
X4787379Y-11495536D01*
X4714675Y-11442714D01*
X4712232Y-11441469D01*
X4711472Y-11440751D01*
X4710525Y-11440171D01*
X4710646Y-11439971D01*
X4706317Y-11435882D01*
X4697410Y-11432563D01*
X4685799Y-11424433D01*
X4685790Y-11424429D01*
X4627786Y-11397380D01*
X4575348Y-11351208D01*
X4556197Y-11284014D01*
X4576413Y-11217133D01*
X4627787Y-11172617D01*
X4685797Y-11145568D01*
X4697410Y-11137436D01*
X4712243Y-11128524D01*
X4714673Y-11127287D01*
X4787421Y-11074432D01*
X4789110Y-11073227D01*
X4872202Y-11015047D01*
X5033110Y-10854139D01*
X5091290Y-10771047D01*
X5092515Y-10769330D01*
X5092526Y-10769316D01*
X5145350Y-10696610D01*
X5146587Y-10694180D01*
X5155500Y-10679345D01*
X5163631Y-10667734D01*
X5201241Y-10587077D01*
X5203079Y-10583308D01*
X5238283Y-10514219D01*
X5242988Y-10499736D01*
X5248536Y-10485654D01*
X5259802Y-10461496D01*
X5259805Y-10461488D01*
X5279597Y-10387617D01*
X5281441Y-10381389D01*
X5281445Y-10381378D01*
X5301540Y-10319534D01*
X5305873Y-10292171D01*
X5308570Y-10279488D01*
X5318698Y-10241692D01*
X5324279Y-10177891D01*
X5325333Y-10169306D01*
X5333563Y-10117350D01*
X5333563Y-9912649D01*
X5325333Y-9860691D01*
X5324278Y-9852098D01*
X5318698Y-9788308D01*
X5308566Y-9750498D01*
X5305872Y-9737822D01*
X5301540Y-9710466D01*
X5281441Y-9648609D01*
X5279598Y-9642386D01*
X5259805Y-9568513D01*
X5259803Y-9568510D01*
X5259802Y-9568504D01*
X5248526Y-9544323D01*
X5242987Y-9530261D01*
X5238283Y-9515781D01*
X5203109Y-9446748D01*
X5201212Y-9442858D01*
X5163631Y-9362266D01*
X5155499Y-9350652D01*
X5146587Y-9335818D01*
X5145351Y-9333391D01*
X5145349Y-9333388D01*
X5092525Y-9260682D01*
X5091268Y-9258920D01*
X5033108Y-9175858D01*
X4872206Y-9014956D01*
X4805683Y-8968376D01*
X4762059Y-8913799D01*
X4754866Y-8844300D01*
X4786388Y-8781946D01*
X4846145Y-8746652D01*
X4866088Y-8741562D01*
X4866098Y-8741559D01*
X4922645Y-8718135D01*
X4779509Y-8574999D01*
X14473063Y-8574999D01*
X14473063Y-15975000D01*
X14475201Y-16040541D01*
X14475201Y-16040544D01*
X14475202Y-16040545D01*
X14509131Y-16167167D01*
X14574675Y-16280694D01*
X14667369Y-16373388D01*
X14780896Y-16438932D01*
X14907518Y-16472861D01*
X14973063Y-16475000D01*
X15873063Y-16475000D01*
X15938608Y-16472861D01*
X16065230Y-16438932D01*
X16178757Y-16373388D01*
X16271451Y-16280694D01*
X16336995Y-16167167D01*
X16370924Y-16040545D01*
X16373063Y-15975000D01*
X16373063Y-12275000D01*
X16373063Y-8575000D01*
X16370924Y-8509455D01*
X16336996Y-8382833D01*
X16271451Y-8269306D01*
X16178757Y-8176612D01*
X16071670Y-8114785D01*
X20508063Y-8114785D01*
X20510956Y-8168762D01*
X20510956Y-8168764D01*
X20546501Y-8308030D01*
X20546503Y-8308037D01*
X20569926Y-8364583D01*
X21209510Y-7725000D01*
X20508063Y-7725000D01*
X20508063Y-8114785D01*
X16071670Y-8114785D01*
X16065230Y-8111067D01*
X15938608Y-8077139D01*
X15873063Y-8075000D01*
X14973063Y-8075000D01*
X14907518Y-8077139D01*
X14780896Y-8111067D01*
X14780894Y-8111067D01*
X14780894Y-8111068D01*
X14667369Y-8176612D01*
X14667366Y-8176614D01*
X14574677Y-8269303D01*
X14574675Y-8269306D01*
X14509131Y-8382831D01*
X14475202Y-8509455D01*
X14473063Y-8574999D01*
X4779509Y-8574999D01*
X4162472Y-7957962D01*
X4226056Y-7940925D01*
X4340070Y-7875099D01*
X4433162Y-7782007D01*
X4466075Y-7725000D01*
X4636615Y-7725000D01*
X5276198Y-8364582D01*
X5276200Y-8364582D01*
X5299615Y-8308053D01*
X5317607Y-8257053D01*
X5338062Y-8114780D01*
X5338063Y-8114779D01*
X5338063Y-7725000D01*
X4636615Y-7725000D01*
X4466075Y-7725000D01*
X4498988Y-7667993D01*
X4533063Y-7540826D01*
X4533063Y-7409174D01*
X4498988Y-7282007D01*
X4466074Y-7224999D01*
X4636615Y-7224999D01*
X4636616Y-7225000D01*
X5338063Y-7225000D01*
X5338063Y-6835219D01*
X20508063Y-6835219D01*
X20508063Y-7225000D01*
X21209510Y-7225000D01*
X21209510Y-7224999D01*
X20569925Y-6585415D01*
X20546512Y-6641940D01*
X20528518Y-6692946D01*
X20508063Y-6835219D01*
X5338063Y-6835219D01*
X5338063Y-6835214D01*
X5335169Y-6781237D01*
X5335169Y-6781235D01*
X5299621Y-6641960D01*
X5276199Y-6585415D01*
X5276198Y-6585415D01*
X4636615Y-7224999D01*
X4466074Y-7224999D01*
X4433162Y-7167993D01*
X4340070Y-7074901D01*
X4226056Y-7009075D01*
X4162472Y-6992037D01*
X4922646Y-6231863D01*
X4922646Y-6231862D01*
X4866115Y-6208447D01*
X4866087Y-6208436D01*
X4837897Y-6198491D01*
X4781226Y-6157624D01*
X4755645Y-6092605D01*
X4769277Y-6024078D01*
X4808028Y-5979980D01*
X4872202Y-5935047D01*
X5033110Y-5774139D01*
X5091290Y-5691047D01*
X5092515Y-5689330D01*
X5092526Y-5689316D01*
X5145350Y-5616610D01*
X5150528Y-5606446D01*
X5163631Y-5587734D01*
X5202130Y-5505172D01*
X5223880Y-5462486D01*
X9322563Y-5462486D01*
X9322563Y-5647513D01*
X9351508Y-5830265D01*
X9408682Y-6006232D01*
X9408683Y-6006235D01*
X9474785Y-6135966D01*
X9492685Y-6171096D01*
X9601442Y-6320787D01*
X9732276Y-6451621D01*
X9881967Y-6560378D01*
X9931105Y-6585415D01*
X10046827Y-6644379D01*
X10046830Y-6644380D01*
X10134813Y-6672967D01*
X10222799Y-6701555D01*
X10405549Y-6730500D01*
X10405550Y-6730500D01*
X10590576Y-6730500D01*
X10590577Y-6730500D01*
X10773327Y-6701555D01*
X10949298Y-6644379D01*
X11114159Y-6560378D01*
X11263850Y-6451621D01*
X11394684Y-6320787D01*
X11503441Y-6171096D01*
X11587442Y-6006235D01*
X11644618Y-5830264D01*
X11673563Y-5647514D01*
X11673563Y-5462486D01*
X11644618Y-5279736D01*
X11606264Y-5161694D01*
X11589889Y-5111295D01*
X11587443Y-5103767D01*
X11587442Y-5103764D01*
X11572786Y-5075000D01*
X11973063Y-5075000D01*
X11973063Y-5975000D01*
X11975202Y-6040545D01*
X12009130Y-6167167D01*
X12074675Y-6280694D01*
X12167369Y-6373388D01*
X12280896Y-6438933D01*
X12407518Y-6472861D01*
X12473063Y-6475000D01*
X13373063Y-6475000D01*
X13438608Y-6472861D01*
X13565230Y-6438932D01*
X13678757Y-6373388D01*
X13771451Y-6280694D01*
X13836995Y-6167167D01*
X13870924Y-6040545D01*
X13873063Y-5975000D01*
X13873063Y-5462486D01*
X14172563Y-5462486D01*
X14172563Y-5647513D01*
X14201508Y-5830265D01*
X14258682Y-6006232D01*
X14258683Y-6006235D01*
X14324785Y-6135966D01*
X14342685Y-6171096D01*
X14451442Y-6320787D01*
X14582276Y-6451621D01*
X14731967Y-6560378D01*
X14781105Y-6585415D01*
X14896827Y-6644379D01*
X14896830Y-6644380D01*
X14984813Y-6672967D01*
X15072799Y-6701555D01*
X15255549Y-6730500D01*
X15255550Y-6730500D01*
X15440576Y-6730500D01*
X15440577Y-6730500D01*
X15513723Y-6718914D01*
X15580641Y-6708316D01*
X15586910Y-6707322D01*
X15623327Y-6701555D01*
X15799298Y-6644379D01*
X15964159Y-6560378D01*
X16113850Y-6451621D01*
X16244684Y-6320787D01*
X16353441Y-6171096D01*
X16437442Y-6006235D01*
X16494618Y-5830264D01*
X16523563Y-5647514D01*
X16523563Y-5462486D01*
X16494618Y-5279736D01*
X16456264Y-5161694D01*
X16437443Y-5103767D01*
X16437442Y-5103764D01*
X16380385Y-4991784D01*
X16353441Y-4938904D01*
X16244684Y-4789213D01*
X16113850Y-4658379D01*
X15964159Y-4549622D01*
X15799298Y-4465620D01*
X15799295Y-4465619D01*
X15623328Y-4408445D01*
X15531952Y-4393972D01*
X15440577Y-4379500D01*
X15255549Y-4379500D01*
X15194632Y-4389148D01*
X15072797Y-4408445D01*
X14896830Y-4465619D01*
X14896827Y-4465620D01*
X14731966Y-4549622D01*
X14694093Y-4577139D01*
X14582276Y-4658379D01*
X14582274Y-4658381D01*
X14582273Y-4658381D01*
X14451444Y-4789210D01*
X14451444Y-4789211D01*
X14451442Y-4789213D01*
X14419888Y-4832643D01*
X14342685Y-4938903D01*
X14258683Y-5103764D01*
X14258682Y-5103767D01*
X14201508Y-5279734D01*
X14172563Y-5462486D01*
X13873063Y-5462486D01*
X13873063Y-5075000D01*
X13870924Y-5009455D01*
X13836995Y-4882833D01*
X13771451Y-4769306D01*
X13678757Y-4676612D01*
X13565230Y-4611068D01*
X13565231Y-4611068D01*
X13526483Y-4600685D01*
X13438608Y-4577139D01*
X13438605Y-4577138D01*
X13438606Y-4577138D01*
X13373063Y-4575000D01*
X12923063Y-4575000D01*
X12473063Y-4575000D01*
X12407518Y-4577139D01*
X12280896Y-4611067D01*
X12280894Y-4611067D01*
X12280894Y-4611068D01*
X12167369Y-4676612D01*
X12167366Y-4676614D01*
X12074677Y-4769303D01*
X12074675Y-4769306D01*
X12011796Y-4878216D01*
X12009130Y-4882833D01*
X11975202Y-5009455D01*
X11973063Y-5075000D01*
X11572786Y-5075000D01*
X11530385Y-4991784D01*
X11503441Y-4938904D01*
X11394684Y-4789213D01*
X11263850Y-4658379D01*
X11114159Y-4549622D01*
X10949298Y-4465620D01*
X10949295Y-4465619D01*
X10773328Y-4408445D01*
X10681952Y-4393972D01*
X10590577Y-4379500D01*
X10405549Y-4379500D01*
X10344632Y-4389148D01*
X10222797Y-4408445D01*
X10046830Y-4465619D01*
X10046827Y-4465620D01*
X9881966Y-4549622D01*
X9844093Y-4577139D01*
X9732276Y-4658379D01*
X9732274Y-4658381D01*
X9732273Y-4658381D01*
X9601444Y-4789210D01*
X9601444Y-4789211D01*
X9601442Y-4789213D01*
X9569888Y-4832643D01*
X9492685Y-4938903D01*
X9408683Y-5103764D01*
X9408682Y-5103767D01*
X9351508Y-5279734D01*
X9322563Y-5462486D01*
X5223880Y-5462486D01*
X5238283Y-5434219D01*
X5245329Y-5412532D01*
X5259802Y-5381496D01*
X5280435Y-5304489D01*
X5281066Y-5302543D01*
X5281423Y-5301444D01*
X5281425Y-5301442D01*
X5281441Y-5301389D01*
X5281445Y-5301378D01*
X5301540Y-5239534D01*
X5305873Y-5212171D01*
X5308570Y-5199488D01*
X5318698Y-5161692D01*
X5324279Y-5097891D01*
X5325333Y-5089306D01*
X5327600Y-5074999D01*
X5333563Y-5037352D01*
X5333563Y-4832648D01*
X5325332Y-4780690D01*
X5324278Y-4772098D01*
X5324034Y-4769304D01*
X5318698Y-4708308D01*
X5308566Y-4670498D01*
X5305872Y-4657822D01*
X5301540Y-4630466D01*
X5281441Y-4568609D01*
X5279598Y-4562386D01*
X5259805Y-4488513D01*
X5259803Y-4488510D01*
X5259802Y-4488504D01*
X5248526Y-4464323D01*
X5242987Y-4450261D01*
X5238283Y-4435781D01*
X5203109Y-4366748D01*
X5201212Y-4362858D01*
X5163631Y-4282266D01*
X5155499Y-4270652D01*
X5146587Y-4255818D01*
X5145351Y-4253391D01*
X5145349Y-4253388D01*
X5092525Y-4180682D01*
X5091268Y-4178920D01*
X5033108Y-4095858D01*
X4872203Y-3934953D01*
X4789141Y-3876793D01*
X4788375Y-3875964D01*
X4787379Y-3875536D01*
X4714675Y-3822714D01*
X4712232Y-3821469D01*
X4711472Y-3820751D01*
X4710525Y-3820171D01*
X4710646Y-3819971D01*
X4706317Y-3815882D01*
X4697410Y-3812563D01*
X4685799Y-3804433D01*
X4627787Y-3777381D01*
X4575348Y-3731208D01*
X4556197Y-3664014D01*
X4576413Y-3597133D01*
X4627787Y-3552617D01*
X4685797Y-3525568D01*
X4697408Y-3517437D01*
X4712243Y-3508524D01*
X4714673Y-3507287D01*
X4787421Y-3454432D01*
X4789110Y-3453227D01*
X4872202Y-3395047D01*
X5033110Y-3234139D01*
X5091290Y-3151047D01*
X5092515Y-3149330D01*
X5100071Y-3138931D01*
X5145350Y-3076610D01*
X5146587Y-3074180D01*
X5155500Y-3059345D01*
X5163631Y-3047734D01*
X5201241Y-2967077D01*
X5203079Y-2963308D01*
X5238283Y-2894219D01*
X5242988Y-2879736D01*
X5248536Y-2865654D01*
X5255764Y-2850155D01*
X5259802Y-2841496D01*
X5259805Y-2841488D01*
X5279597Y-2767617D01*
X5281441Y-2761389D01*
X5288214Y-2740545D01*
X5301540Y-2699534D01*
X5305873Y-2672171D01*
X5308568Y-2659496D01*
X5318698Y-2621692D01*
X5324656Y-2553582D01*
X5333563Y-2497352D01*
X5333563Y-2418713D01*
X8847563Y-2418713D01*
X8847563Y-2631287D01*
X8880817Y-2841243D01*
X8943701Y-3034780D01*
X8946507Y-3043414D01*
X9043014Y-3232820D01*
X9167953Y-3404786D01*
X9318276Y-3555109D01*
X9490242Y-3680048D01*
X9490244Y-3680049D01*
X9490247Y-3680051D01*
X9679651Y-3776557D01*
X9881820Y-3842246D01*
X10091776Y-3875500D01*
X10091777Y-3875500D01*
X10304349Y-3875500D01*
X10304350Y-3875500D01*
X10514306Y-3842246D01*
X10716475Y-3776557D01*
X10905879Y-3680051D01*
X10972594Y-3631580D01*
X11077849Y-3555109D01*
X11077851Y-3555106D01*
X11077855Y-3555104D01*
X11228167Y-3404792D01*
X11347633Y-3240359D01*
X11402959Y-3197695D01*
X11451993Y-3189312D01*
X11473063Y-3190000D01*
X11473066Y-3190000D01*
X12373063Y-3190000D01*
X12438608Y-3187861D01*
X12565230Y-3153932D01*
X12678757Y-3088388D01*
X12771451Y-2995694D01*
X12820006Y-2911592D01*
X12870571Y-2863379D01*
X12939177Y-2850155D01*
X13004042Y-2876122D01*
X13034778Y-2911593D01*
X13073542Y-2978732D01*
X13074675Y-2980694D01*
X13167369Y-3073388D01*
X13280896Y-3138933D01*
X13407518Y-3172861D01*
X13473063Y-3175000D01*
X14373058Y-3175000D01*
X14373063Y-3175000D01*
X14383835Y-3174648D01*
X14451480Y-3192133D01*
X14489279Y-3229506D01*
X14490148Y-3228875D01*
X14617953Y-3404786D01*
X14768276Y-3555109D01*
X14940242Y-3680048D01*
X14940244Y-3680049D01*
X14940247Y-3680051D01*
X15129651Y-3776557D01*
X15331820Y-3842246D01*
X15541776Y-3875500D01*
X15541777Y-3875500D01*
X15754349Y-3875500D01*
X15754350Y-3875500D01*
X15964306Y-3842246D01*
X16166475Y-3776557D01*
X16355879Y-3680051D01*
X16422594Y-3631580D01*
X16527849Y-3555109D01*
X16527851Y-3555106D01*
X16527855Y-3555104D01*
X16678167Y-3404792D01*
X16678169Y-3404788D01*
X16678172Y-3404786D01*
X16787149Y-3254789D01*
X16803114Y-3232816D01*
X16899620Y-3043412D01*
X16965309Y-2841243D01*
X16998563Y-2631287D01*
X16998563Y-2418713D01*
X16997670Y-2413073D01*
X16984918Y-2332561D01*
X16982328Y-2316207D01*
X20507563Y-2316207D01*
X20507563Y-2473793D01*
X20511966Y-2518496D01*
X20512563Y-2530650D01*
X20512563Y-3051616D01*
X20513911Y-3066446D01*
X20518976Y-3122192D01*
X20518976Y-3122194D01*
X20518977Y-3122196D01*
X20569585Y-3284606D01*
X20636347Y-3395044D01*
X20657593Y-3430188D01*
X20777874Y-3550469D01*
X20777876Y-3550470D01*
X20777878Y-3550472D01*
X20923457Y-3638478D01*
X21010314Y-3665543D01*
X21068459Y-3704278D01*
X21096434Y-3768303D01*
X21085353Y-3837288D01*
X21044547Y-3885500D01*
X20973924Y-3934952D01*
X20813017Y-4095859D01*
X20754842Y-4178939D01*
X20753589Y-4180696D01*
X20700773Y-4253394D01*
X20700771Y-4253397D01*
X20699523Y-4255847D01*
X20690626Y-4270651D01*
X20682496Y-4282262D01*
X20644901Y-4362882D01*
X20643005Y-4366769D01*
X20607845Y-4435774D01*
X20603136Y-4450265D01*
X20597592Y-4464338D01*
X20586324Y-4488503D01*
X20586324Y-4488504D01*
X20566522Y-4562404D01*
X20564678Y-4568627D01*
X20544587Y-4630459D01*
X20544586Y-4630463D01*
X20540252Y-4657824D01*
X20537555Y-4670511D01*
X20527429Y-4708304D01*
X20527427Y-4708313D01*
X20521846Y-4772106D01*
X20520791Y-4780697D01*
X20512563Y-4832643D01*
X20512563Y-5037351D01*
X20520791Y-5089301D01*
X20521846Y-5097891D01*
X20527427Y-5161686D01*
X20527427Y-5161689D01*
X20527428Y-5161692D01*
X20527430Y-5161699D01*
X20537555Y-5199488D01*
X20540253Y-5212181D01*
X20544584Y-5239525D01*
X20544585Y-5239530D01*
X20564680Y-5301378D01*
X20566523Y-5307600D01*
X20586323Y-5381494D01*
X20597594Y-5405667D01*
X20603140Y-5419747D01*
X20607840Y-5434212D01*
X20607844Y-5434221D01*
X20643010Y-5503238D01*
X20644907Y-5507128D01*
X20682495Y-5587734D01*
X20690626Y-5599347D01*
X20699532Y-5614169D01*
X20700777Y-5616612D01*
X20700777Y-5616613D01*
X20753599Y-5689316D01*
X20754856Y-5691078D01*
X20813016Y-5774140D01*
X20973921Y-5935045D01*
X21040442Y-5981623D01*
X21084067Y-6036199D01*
X21091261Y-6105698D01*
X21059739Y-6168052D01*
X20999985Y-6203346D01*
X20980033Y-6208438D01*
X20980019Y-6208442D01*
X20923478Y-6231862D01*
X21683653Y-6992037D01*
X21620070Y-7009075D01*
X21506056Y-7074901D01*
X21412964Y-7167993D01*
X21347138Y-7282007D01*
X21313063Y-7409174D01*
X21313063Y-7540826D01*
X21347138Y-7667993D01*
X21412964Y-7782007D01*
X21506056Y-7875099D01*
X21620070Y-7940925D01*
X21683652Y-7957962D01*
X20923478Y-8718135D01*
X20923478Y-8718136D01*
X20980010Y-8741553D01*
X21008222Y-8751505D01*
X21064895Y-8792370D01*
X21090478Y-8857388D01*
X21076849Y-8925915D01*
X21038098Y-8970016D01*
X20973922Y-9014954D01*
X20813017Y-9175859D01*
X20754842Y-9258939D01*
X20753589Y-9260696D01*
X20700773Y-9333394D01*
X20700771Y-9333397D01*
X20699523Y-9335847D01*
X20690626Y-9350651D01*
X20682496Y-9362262D01*
X20644901Y-9442882D01*
X20643005Y-9446769D01*
X20607845Y-9515774D01*
X20603136Y-9530265D01*
X20597592Y-9544338D01*
X20586324Y-9568503D01*
X20586324Y-9568504D01*
X20566522Y-9642404D01*
X20564678Y-9648627D01*
X20544587Y-9710459D01*
X20544586Y-9710463D01*
X20540252Y-9737824D01*
X20537555Y-9750511D01*
X20527429Y-9788304D01*
X20527427Y-9788313D01*
X20521846Y-9852106D01*
X20521005Y-9858954D01*
X20521004Y-9859301D01*
X20520900Y-9860007D01*
X20512563Y-9912648D01*
X20512563Y-9916824D01*
X20512563Y-10117351D01*
X20520791Y-10169301D01*
X20521846Y-10177891D01*
X20527427Y-10241686D01*
X20527427Y-10241689D01*
X20527428Y-10241692D01*
X20527430Y-10241699D01*
X20537555Y-10279488D01*
X20540253Y-10292181D01*
X20544584Y-10319525D01*
X20544585Y-10319530D01*
X20564680Y-10381378D01*
X20566523Y-10387600D01*
X20586323Y-10461494D01*
X20597594Y-10485667D01*
X20603140Y-10499747D01*
X20607840Y-10514212D01*
X20607844Y-10514221D01*
X20643010Y-10583238D01*
X20644907Y-10587128D01*
X20682495Y-10667734D01*
X20690626Y-10679347D01*
X20699532Y-10694169D01*
X20700777Y-10696612D01*
X20700777Y-10696613D01*
X20753599Y-10769316D01*
X20754856Y-10771078D01*
X20813016Y-10854140D01*
X20973921Y-11015045D01*
X21056983Y-11073205D01*
X21057748Y-11074033D01*
X21058745Y-11074462D01*
X21131451Y-11127286D01*
X21131454Y-11127288D01*
X21133881Y-11128524D01*
X21134637Y-11129238D01*
X21135611Y-11129835D01*
X21135485Y-11130039D01*
X21139800Y-11134114D01*
X21148715Y-11137436D01*
X21160329Y-11145568D01*
X21160333Y-11145570D01*
X21218335Y-11172617D01*
X21270775Y-11218789D01*
X21289927Y-11285982D01*
X21269712Y-11352864D01*
X21218339Y-11397380D01*
X21173792Y-11418153D01*
X21160332Y-11424431D01*
X21160323Y-11424435D01*
X21148714Y-11432563D01*
X21133910Y-11441460D01*
X21131460Y-11442708D01*
X21131457Y-11442710D01*
X21058759Y-11495526D01*
X21057002Y-11496779D01*
X20973922Y-11554954D01*
X20813017Y-11715859D01*
X20754842Y-11798939D01*
X20753589Y-11800696D01*
X20700773Y-11873394D01*
X20700771Y-11873397D01*
X20699523Y-11875847D01*
X20690626Y-11890651D01*
X20682496Y-11902262D01*
X20644901Y-11982882D01*
X20643005Y-11986769D01*
X20607845Y-12055774D01*
X20603136Y-12070265D01*
X20597592Y-12084338D01*
X20586324Y-12108503D01*
X20586324Y-12108504D01*
X20566522Y-12182404D01*
X20564678Y-12188627D01*
X20544587Y-12250459D01*
X20544586Y-12250463D01*
X20540252Y-12277824D01*
X20537555Y-12290511D01*
X20527429Y-12328304D01*
X20527427Y-12328313D01*
X20521846Y-12392106D01*
X20520791Y-12400697D01*
X20512563Y-12452643D01*
X20512563Y-12657351D01*
X20520791Y-12709301D01*
X20521846Y-12717891D01*
X20527427Y-12781686D01*
X20527427Y-12781689D01*
X20527428Y-12781692D01*
X20527430Y-12781699D01*
X20537555Y-12819488D01*
X20540253Y-12832181D01*
X20544584Y-12859525D01*
X20544585Y-12859530D01*
X20564680Y-12921378D01*
X20566523Y-12927600D01*
X20586323Y-13001494D01*
X20597594Y-13025667D01*
X20603140Y-13039747D01*
X20607840Y-13054212D01*
X20607844Y-13054221D01*
X20643010Y-13123238D01*
X20644907Y-13127128D01*
X20682495Y-13207734D01*
X20690626Y-13219347D01*
X20699532Y-13234169D01*
X20700777Y-13236612D01*
X20700777Y-13236613D01*
X20753599Y-13309316D01*
X20754856Y-13311078D01*
X20813016Y-13394140D01*
X20973921Y-13555045D01*
X21056983Y-13613205D01*
X21057748Y-13614033D01*
X21058745Y-13614462D01*
X21131451Y-13667286D01*
X21131454Y-13667288D01*
X21133881Y-13668524D01*
X21134637Y-13669238D01*
X21135611Y-13669835D01*
X21135485Y-13670039D01*
X21139800Y-13674114D01*
X21148715Y-13677436D01*
X21160329Y-13685568D01*
X21160333Y-13685570D01*
X21218335Y-13712617D01*
X21270775Y-13758789D01*
X21289927Y-13825982D01*
X21269712Y-13892864D01*
X21218339Y-13937380D01*
X21173792Y-13958153D01*
X21160332Y-13964431D01*
X21160323Y-13964435D01*
X21148714Y-13972563D01*
X21133910Y-13981460D01*
X21131460Y-13982708D01*
X21131457Y-13982710D01*
X21058759Y-14035526D01*
X21057002Y-14036779D01*
X20973922Y-14094954D01*
X20813017Y-14255859D01*
X20754842Y-14338939D01*
X20753589Y-14340696D01*
X20700773Y-14413394D01*
X20700771Y-14413397D01*
X20699523Y-14415847D01*
X20690626Y-14430651D01*
X20682496Y-14442262D01*
X20644901Y-14522882D01*
X20643005Y-14526769D01*
X20607845Y-14595774D01*
X20603136Y-14610265D01*
X20597592Y-14624338D01*
X20586324Y-14648503D01*
X20586324Y-14648504D01*
X20566522Y-14722404D01*
X20564678Y-14728627D01*
X20544587Y-14790459D01*
X20544586Y-14790463D01*
X20540252Y-14817824D01*
X20537555Y-14830511D01*
X20527429Y-14868304D01*
X20527427Y-14868313D01*
X20521846Y-14932106D01*
X20520791Y-14940697D01*
X20512563Y-14992643D01*
X20512563Y-15197351D01*
X20520791Y-15249301D01*
X20521846Y-15257891D01*
X20527427Y-15321686D01*
X20527427Y-15321689D01*
X20527428Y-15321692D01*
X20527430Y-15321699D01*
X20537555Y-15359488D01*
X20540253Y-15372181D01*
X20544584Y-15399525D01*
X20544585Y-15399530D01*
X20564680Y-15461378D01*
X20566523Y-15467600D01*
X20586323Y-15541494D01*
X20597594Y-15565667D01*
X20603140Y-15579747D01*
X20607840Y-15594212D01*
X20607844Y-15594221D01*
X20643010Y-15663238D01*
X20644907Y-15667128D01*
X20682495Y-15747734D01*
X20690626Y-15759347D01*
X20699532Y-15774169D01*
X20700777Y-15776612D01*
X20700777Y-15776613D01*
X20753599Y-15849316D01*
X20754856Y-15851078D01*
X20813016Y-15934140D01*
X20973921Y-16095045D01*
X21056983Y-16153205D01*
X21057748Y-16154033D01*
X21058745Y-16154462D01*
X21131451Y-16207286D01*
X21131454Y-16207288D01*
X21133881Y-16208524D01*
X21134637Y-16209238D01*
X21135611Y-16209835D01*
X21135485Y-16210039D01*
X21139800Y-16214114D01*
X21148715Y-16217436D01*
X21160329Y-16225568D01*
X21160333Y-16225570D01*
X21218335Y-16252617D01*
X21270775Y-16298789D01*
X21289927Y-16365982D01*
X21269712Y-16432864D01*
X21218339Y-16477380D01*
X21173792Y-16498153D01*
X21160332Y-16504431D01*
X21160323Y-16504435D01*
X21148714Y-16512563D01*
X21133910Y-16521460D01*
X21131460Y-16522708D01*
X21131457Y-16522710D01*
X21058759Y-16575526D01*
X21057002Y-16576779D01*
X20973922Y-16634954D01*
X20813017Y-16795859D01*
X20754842Y-16878939D01*
X20753589Y-16880696D01*
X20700773Y-16953394D01*
X20700771Y-16953397D01*
X20699523Y-16955847D01*
X20690626Y-16970651D01*
X20682496Y-16982262D01*
X20644901Y-17062882D01*
X20643005Y-17066769D01*
X20607845Y-17135774D01*
X20603136Y-17150265D01*
X20597592Y-17164338D01*
X20586324Y-17188503D01*
X20586324Y-17188504D01*
X20566522Y-17262404D01*
X20564678Y-17268627D01*
X20544587Y-17330459D01*
X20544586Y-17330463D01*
X20540252Y-17357824D01*
X20537555Y-17370511D01*
X20527429Y-17408304D01*
X20527427Y-17408313D01*
X20521846Y-17472106D01*
X20520791Y-17480697D01*
X20512563Y-17532643D01*
X20512563Y-17737351D01*
X20520791Y-17789301D01*
X20521846Y-17797891D01*
X20527427Y-17861686D01*
X20527427Y-17861689D01*
X20527428Y-17861692D01*
X20527430Y-17861699D01*
X20537555Y-17899488D01*
X20540253Y-17912181D01*
X20544584Y-17939525D01*
X20544585Y-17939530D01*
X20564680Y-18001378D01*
X20566523Y-18007600D01*
X20586323Y-18081494D01*
X20597594Y-18105667D01*
X20603140Y-18119747D01*
X20607840Y-18134212D01*
X20607844Y-18134221D01*
X20643010Y-18203238D01*
X20644907Y-18207128D01*
X20682495Y-18287734D01*
X20690626Y-18299347D01*
X20699532Y-18314169D01*
X20700777Y-18316612D01*
X20700777Y-18316613D01*
X20753599Y-18389316D01*
X20754856Y-18391078D01*
X20813016Y-18474140D01*
X20973921Y-18635045D01*
X21040442Y-18681623D01*
X21084067Y-18736199D01*
X21091261Y-18805698D01*
X21059739Y-18868052D01*
X20999985Y-18903346D01*
X20980033Y-18908438D01*
X20980019Y-18908442D01*
X20923478Y-18931862D01*
X21683653Y-19692037D01*
X21620070Y-19709075D01*
X21506056Y-19774901D01*
X21412964Y-19867993D01*
X21347138Y-19982007D01*
X21313063Y-20109174D01*
X21313063Y-20240826D01*
X21347138Y-20367993D01*
X21412964Y-20482007D01*
X21506056Y-20575099D01*
X21620070Y-20640925D01*
X21683652Y-20657962D01*
X20923478Y-21418135D01*
X20923478Y-21418136D01*
X20980010Y-21441553D01*
X21008222Y-21451505D01*
X21064895Y-21492370D01*
X21090478Y-21557388D01*
X21076849Y-21625915D01*
X21038098Y-21670016D01*
X20973922Y-21714954D01*
X20813017Y-21875859D01*
X20754842Y-21958939D01*
X20753589Y-21960696D01*
X20700773Y-22033394D01*
X20700771Y-22033397D01*
X20699523Y-22035847D01*
X20690626Y-22050651D01*
X20682496Y-22062262D01*
X20644901Y-22142882D01*
X20643005Y-22146769D01*
X20607845Y-22215774D01*
X20603136Y-22230265D01*
X20597592Y-22244338D01*
X20586324Y-22268503D01*
X20586324Y-22268504D01*
X20566522Y-22342404D01*
X20564678Y-22348627D01*
X20544587Y-22410459D01*
X20544586Y-22410463D01*
X20540252Y-22437824D01*
X20537555Y-22450511D01*
X20527429Y-22488304D01*
X20527427Y-22488313D01*
X20521846Y-22552106D01*
X20520791Y-22560697D01*
X20512563Y-22612643D01*
X20512563Y-22817351D01*
X20520791Y-22869301D01*
X20521846Y-22877891D01*
X20527427Y-22941686D01*
X20527427Y-22941689D01*
X20527428Y-22941692D01*
X20527430Y-22941699D01*
X20537555Y-22979488D01*
X20540253Y-22992181D01*
X20544584Y-23019525D01*
X20544585Y-23019530D01*
X20564680Y-23081378D01*
X20566523Y-23087600D01*
X20586323Y-23161494D01*
X20597594Y-23185667D01*
X20603140Y-23199747D01*
X20607840Y-23214212D01*
X20607844Y-23214221D01*
X20643010Y-23283238D01*
X20644907Y-23287128D01*
X20682495Y-23367734D01*
X20690626Y-23379347D01*
X20699532Y-23394169D01*
X20700777Y-23396612D01*
X20700777Y-23396613D01*
X20753599Y-23469316D01*
X20754856Y-23471078D01*
X20813016Y-23554140D01*
X20973921Y-23715045D01*
X21056983Y-23773205D01*
X21057748Y-23774033D01*
X21058745Y-23774462D01*
X21131451Y-23827286D01*
X21131454Y-23827288D01*
X21133881Y-23828524D01*
X21134637Y-23829238D01*
X21135611Y-23829835D01*
X21135485Y-23830039D01*
X21139800Y-23834114D01*
X21148715Y-23837436D01*
X21160329Y-23845568D01*
X21160333Y-23845570D01*
X21218335Y-23872617D01*
X21270775Y-23918789D01*
X21289927Y-23985982D01*
X21269712Y-24052864D01*
X21218339Y-24097380D01*
X21173792Y-24118153D01*
X21160332Y-24124431D01*
X21160323Y-24124435D01*
X21148714Y-24132563D01*
X21133910Y-24141460D01*
X21131460Y-24142708D01*
X21131457Y-24142710D01*
X21058759Y-24195526D01*
X21057002Y-24196779D01*
X20973922Y-24254954D01*
X20813017Y-24415859D01*
X20754842Y-24498939D01*
X20753589Y-24500696D01*
X20700773Y-24573394D01*
X20700771Y-24573397D01*
X20699523Y-24575847D01*
X20690626Y-24590651D01*
X20682496Y-24602262D01*
X20644901Y-24682882D01*
X20643005Y-24686769D01*
X20607845Y-24755774D01*
X20603136Y-24770265D01*
X20597592Y-24784338D01*
X20586324Y-24808503D01*
X20586324Y-24808504D01*
X20566522Y-24882404D01*
X20564678Y-24888627D01*
X20544587Y-24950459D01*
X20544586Y-24950463D01*
X20540252Y-24977824D01*
X20537555Y-24990511D01*
X20527429Y-25028304D01*
X20527427Y-25028313D01*
X20521846Y-25092106D01*
X20520791Y-25100697D01*
X20512563Y-25152643D01*
X20512563Y-25357351D01*
X20520791Y-25409301D01*
X20521846Y-25417891D01*
X20527427Y-25481686D01*
X20527427Y-25481689D01*
X20527428Y-25481692D01*
X20527430Y-25481699D01*
X20537555Y-25519488D01*
X20540253Y-25532181D01*
X20544584Y-25559525D01*
X20544585Y-25559530D01*
X20564680Y-25621378D01*
X20566523Y-25627600D01*
X20586323Y-25701494D01*
X20597594Y-25725667D01*
X20603140Y-25739747D01*
X20607840Y-25754212D01*
X20607844Y-25754221D01*
X20643010Y-25823238D01*
X20644907Y-25827128D01*
X20682495Y-25907734D01*
X20690626Y-25919347D01*
X20699532Y-25934169D01*
X20700777Y-25936612D01*
X20700777Y-25936613D01*
X20753599Y-26009316D01*
X20754856Y-26011078D01*
X20813016Y-26094140D01*
X20973921Y-26255045D01*
X21056983Y-26313205D01*
X21057748Y-26314033D01*
X21058745Y-26314462D01*
X21131451Y-26367286D01*
X21131454Y-26367288D01*
X21133881Y-26368524D01*
X21134637Y-26369238D01*
X21135611Y-26369835D01*
X21135485Y-26370039D01*
X21139800Y-26374114D01*
X21148715Y-26377436D01*
X21160329Y-26385568D01*
X21160333Y-26385570D01*
X21218335Y-26412617D01*
X21270775Y-26458789D01*
X21289927Y-26525982D01*
X21269712Y-26592864D01*
X21218339Y-26637380D01*
X21173792Y-26658153D01*
X21160332Y-26664431D01*
X21160323Y-26664435D01*
X21148714Y-26672563D01*
X21133910Y-26681460D01*
X21131460Y-26682708D01*
X21131457Y-26682710D01*
X21058759Y-26735526D01*
X21057002Y-26736779D01*
X20973922Y-26794954D01*
X20813017Y-26955859D01*
X20754842Y-27038939D01*
X20753589Y-27040696D01*
X20700773Y-27113394D01*
X20700771Y-27113397D01*
X20699523Y-27115847D01*
X20690626Y-27130651D01*
X20682496Y-27142262D01*
X20644901Y-27222882D01*
X20643005Y-27226769D01*
X20607845Y-27295774D01*
X20603136Y-27310265D01*
X20597592Y-27324338D01*
X20586324Y-27348503D01*
X20586324Y-27348504D01*
X20566522Y-27422404D01*
X20564678Y-27428627D01*
X20544587Y-27490459D01*
X20544586Y-27490463D01*
X20540252Y-27517824D01*
X20537555Y-27530511D01*
X20527429Y-27568304D01*
X20527427Y-27568313D01*
X20521846Y-27632106D01*
X20520791Y-27640697D01*
X20512563Y-27692643D01*
X20512563Y-27897351D01*
X20520791Y-27949301D01*
X20521846Y-27957891D01*
X20527427Y-28021686D01*
X20527427Y-28021689D01*
X20527428Y-28021692D01*
X20527430Y-28021699D01*
X20537555Y-28059488D01*
X20540253Y-28072181D01*
X20544584Y-28099525D01*
X20544585Y-28099530D01*
X20564680Y-28161378D01*
X20566523Y-28167600D01*
X20586323Y-28241494D01*
X20597594Y-28265667D01*
X20603140Y-28279747D01*
X20607840Y-28294212D01*
X20607844Y-28294221D01*
X20643010Y-28363238D01*
X20644907Y-28367128D01*
X20682495Y-28447734D01*
X20690626Y-28459347D01*
X20699532Y-28474169D01*
X20700777Y-28476612D01*
X20700777Y-28476613D01*
X20753599Y-28549316D01*
X20754856Y-28551078D01*
X20813016Y-28634140D01*
X20973921Y-28795045D01*
X21056983Y-28853205D01*
X21057748Y-28854033D01*
X21058745Y-28854462D01*
X21131451Y-28907286D01*
X21131454Y-28907288D01*
X21133881Y-28908524D01*
X21134637Y-28909238D01*
X21135611Y-28909835D01*
X21135485Y-28910039D01*
X21139800Y-28914114D01*
X21148715Y-28917436D01*
X21160329Y-28925568D01*
X21160333Y-28925570D01*
X21218335Y-28952617D01*
X21270775Y-28998789D01*
X21289927Y-29065982D01*
X21269712Y-29132864D01*
X21218339Y-29177380D01*
X21173792Y-29198153D01*
X21160332Y-29204431D01*
X21160323Y-29204435D01*
X21148714Y-29212563D01*
X21133910Y-29221460D01*
X21131460Y-29222708D01*
X21131457Y-29222710D01*
X21058759Y-29275526D01*
X21057002Y-29276779D01*
X20973922Y-29334954D01*
X20813017Y-29495859D01*
X20754842Y-29578939D01*
X20753589Y-29580696D01*
X20700773Y-29653394D01*
X20700771Y-29653397D01*
X20699523Y-29655847D01*
X20690626Y-29670651D01*
X20682496Y-29682262D01*
X20644901Y-29762882D01*
X20643005Y-29766769D01*
X20607845Y-29835774D01*
X20603136Y-29850265D01*
X20597592Y-29864338D01*
X20586324Y-29888503D01*
X20586324Y-29888504D01*
X20566522Y-29962404D01*
X20564678Y-29968627D01*
X20544587Y-30030459D01*
X20544586Y-30030463D01*
X20540252Y-30057824D01*
X20537555Y-30070511D01*
X20527429Y-30108304D01*
X20527427Y-30108313D01*
X20521846Y-30172106D01*
X20520791Y-30180697D01*
X20512563Y-30232643D01*
X20512563Y-30437351D01*
X20520791Y-30489301D01*
X20521846Y-30497891D01*
X20527427Y-30561686D01*
X20527427Y-30561689D01*
X20527428Y-30561692D01*
X20527430Y-30561699D01*
X20537555Y-30599488D01*
X20540253Y-30612181D01*
X20544584Y-30639525D01*
X20544585Y-30639530D01*
X20564680Y-30701378D01*
X20566523Y-30707600D01*
X20586323Y-30781494D01*
X20597594Y-30805667D01*
X20603140Y-30819747D01*
X20607840Y-30834212D01*
X20607844Y-30834221D01*
X20643010Y-30903238D01*
X20644907Y-30907128D01*
X20682495Y-30987734D01*
X20690626Y-30999347D01*
X20699532Y-31014169D01*
X20700777Y-31016612D01*
X20700777Y-31016613D01*
X20753599Y-31089316D01*
X20754856Y-31091078D01*
X20813016Y-31174140D01*
X20973921Y-31335045D01*
X21040442Y-31381623D01*
X21084067Y-31436199D01*
X21091261Y-31505698D01*
X21059739Y-31568052D01*
X20999985Y-31603346D01*
X20980033Y-31608438D01*
X20980019Y-31608442D01*
X20923478Y-31631862D01*
X21683653Y-32392037D01*
X21620070Y-32409075D01*
X21506056Y-32474901D01*
X21412964Y-32567993D01*
X21347138Y-32682007D01*
X21313063Y-32809174D01*
X21313063Y-32940826D01*
X21347138Y-33067993D01*
X21412964Y-33182007D01*
X21506056Y-33275099D01*
X21620070Y-33340925D01*
X21683652Y-33357962D01*
X20923478Y-34118135D01*
X20923478Y-34118136D01*
X20980010Y-34141553D01*
X21008222Y-34151505D01*
X21064895Y-34192370D01*
X21090478Y-34257388D01*
X21076849Y-34325915D01*
X21038098Y-34370016D01*
X20973922Y-34414954D01*
X20813017Y-34575859D01*
X20754842Y-34658939D01*
X20753589Y-34660696D01*
X20700773Y-34733394D01*
X20700771Y-34733397D01*
X20699523Y-34735847D01*
X20690626Y-34750651D01*
X20682496Y-34762262D01*
X20644901Y-34842882D01*
X20643005Y-34846769D01*
X20607845Y-34915774D01*
X20603136Y-34930265D01*
X20597592Y-34944338D01*
X20586324Y-34968503D01*
X20586324Y-34968504D01*
X20566522Y-35042404D01*
X20564678Y-35048627D01*
X20544587Y-35110459D01*
X20544586Y-35110463D01*
X20540252Y-35137824D01*
X20537555Y-35150511D01*
X20527429Y-35188304D01*
X20527427Y-35188313D01*
X20521846Y-35252106D01*
X20520791Y-35260697D01*
X20512563Y-35312643D01*
X20512563Y-35517351D01*
X20520791Y-35569301D01*
X20521846Y-35577891D01*
X20527427Y-35641686D01*
X20527427Y-35641689D01*
X20527428Y-35641692D01*
X20527430Y-35641699D01*
X20537555Y-35679488D01*
X20540253Y-35692181D01*
X20544584Y-35719525D01*
X20544585Y-35719530D01*
X20564680Y-35781378D01*
X20566523Y-35787600D01*
X20586323Y-35861494D01*
X20597594Y-35885667D01*
X20603140Y-35899747D01*
X20607840Y-35914212D01*
X20607844Y-35914221D01*
X20643010Y-35983238D01*
X20644907Y-35987128D01*
X20682495Y-36067734D01*
X20690626Y-36079347D01*
X20699532Y-36094169D01*
X20700777Y-36096612D01*
X20700777Y-36096613D01*
X20753599Y-36169316D01*
X20754856Y-36171078D01*
X20813016Y-36254140D01*
X20973921Y-36415045D01*
X21056983Y-36473205D01*
X21057748Y-36474033D01*
X21058745Y-36474462D01*
X21131451Y-36527286D01*
X21131454Y-36527288D01*
X21133881Y-36528524D01*
X21134637Y-36529238D01*
X21135611Y-36529835D01*
X21135485Y-36530039D01*
X21139800Y-36534114D01*
X21148715Y-36537436D01*
X21160329Y-36545568D01*
X21160333Y-36545570D01*
X21218335Y-36572617D01*
X21270775Y-36618789D01*
X21289927Y-36685982D01*
X21269712Y-36752864D01*
X21218339Y-36797380D01*
X21173792Y-36818153D01*
X21160332Y-36824431D01*
X21160323Y-36824435D01*
X21148714Y-36832563D01*
X21133910Y-36841460D01*
X21131460Y-36842708D01*
X21131457Y-36842710D01*
X21058759Y-36895526D01*
X21057002Y-36896779D01*
X20973922Y-36954954D01*
X20813017Y-37115859D01*
X20754842Y-37198939D01*
X20753589Y-37200696D01*
X20700773Y-37273394D01*
X20700771Y-37273397D01*
X20699523Y-37275847D01*
X20690626Y-37290651D01*
X20682496Y-37302262D01*
X20644901Y-37382882D01*
X20643005Y-37386769D01*
X20607845Y-37455774D01*
X20603136Y-37470265D01*
X20597592Y-37484338D01*
X20586324Y-37508503D01*
X20586324Y-37508504D01*
X20566522Y-37582404D01*
X20564678Y-37588627D01*
X20544587Y-37650459D01*
X20544586Y-37650463D01*
X20540252Y-37677824D01*
X20537555Y-37690511D01*
X20527429Y-37728304D01*
X20527427Y-37728313D01*
X20521846Y-37792106D01*
X20520791Y-37800697D01*
X20512563Y-37852643D01*
X20512563Y-38057351D01*
X20520791Y-38109301D01*
X20521846Y-38117891D01*
X20527427Y-38181686D01*
X20527427Y-38181689D01*
X20527428Y-38181692D01*
X20527430Y-38181699D01*
X20537555Y-38219488D01*
X20540253Y-38232181D01*
X20544584Y-38259525D01*
X20544585Y-38259530D01*
X20564680Y-38321378D01*
X20566523Y-38327600D01*
X20586323Y-38401494D01*
X20597594Y-38425667D01*
X20603140Y-38439747D01*
X20607840Y-38454212D01*
X20607844Y-38454221D01*
X20643010Y-38523238D01*
X20644907Y-38527128D01*
X20682495Y-38607734D01*
X20690626Y-38619347D01*
X20699532Y-38634169D01*
X20700777Y-38636612D01*
X20700777Y-38636613D01*
X20753599Y-38709316D01*
X20754856Y-38711078D01*
X20813016Y-38794140D01*
X20973921Y-38955045D01*
X21056983Y-39013205D01*
X21057748Y-39014033D01*
X21058745Y-39014462D01*
X21131451Y-39067286D01*
X21131454Y-39067288D01*
X21133881Y-39068524D01*
X21134637Y-39069238D01*
X21135611Y-39069835D01*
X21135485Y-39070039D01*
X21139800Y-39074114D01*
X21148715Y-39077436D01*
X21160329Y-39085568D01*
X21160333Y-39085570D01*
X21218335Y-39112617D01*
X21270775Y-39158789D01*
X21289927Y-39225982D01*
X21269712Y-39292864D01*
X21218339Y-39337380D01*
X21173792Y-39358153D01*
X21160332Y-39364431D01*
X21160323Y-39364435D01*
X21148714Y-39372563D01*
X21133910Y-39381460D01*
X21131460Y-39382708D01*
X21131457Y-39382710D01*
X21058759Y-39435526D01*
X21057002Y-39436779D01*
X20973922Y-39494954D01*
X20813017Y-39655859D01*
X20754842Y-39738939D01*
X20753589Y-39740696D01*
X20700773Y-39813394D01*
X20700771Y-39813397D01*
X20699523Y-39815847D01*
X20690626Y-39830651D01*
X20682496Y-39842262D01*
X20644901Y-39922882D01*
X20643005Y-39926769D01*
X20607845Y-39995774D01*
X20603136Y-40010265D01*
X20597592Y-40024338D01*
X20586324Y-40048503D01*
X20586324Y-40048504D01*
X20566522Y-40122404D01*
X20564678Y-40128627D01*
X20544587Y-40190459D01*
X20544586Y-40190463D01*
X20540252Y-40217824D01*
X20537555Y-40230511D01*
X20527429Y-40268304D01*
X20527427Y-40268313D01*
X20521846Y-40332106D01*
X20520791Y-40340697D01*
X20512563Y-40392643D01*
X20512563Y-40597351D01*
X20520791Y-40649301D01*
X20521846Y-40657891D01*
X20527427Y-40721686D01*
X20527427Y-40721689D01*
X20527428Y-40721692D01*
X20527430Y-40721699D01*
X20537555Y-40759488D01*
X20540253Y-40772181D01*
X20544584Y-40799525D01*
X20544585Y-40799530D01*
X20564680Y-40861378D01*
X20566523Y-40867600D01*
X20586323Y-40941494D01*
X20597594Y-40965667D01*
X20603140Y-40979747D01*
X20607840Y-40994212D01*
X20607844Y-40994221D01*
X20643010Y-41063238D01*
X20644907Y-41067128D01*
X20682495Y-41147734D01*
X20690626Y-41159347D01*
X20699532Y-41174169D01*
X20700777Y-41176612D01*
X20700777Y-41176613D01*
X20753599Y-41249316D01*
X20754856Y-41251078D01*
X20813016Y-41334140D01*
X20973921Y-41495045D01*
X21056983Y-41553205D01*
X21057748Y-41554033D01*
X21058745Y-41554462D01*
X21131451Y-41607286D01*
X21131454Y-41607288D01*
X21133881Y-41608524D01*
X21134637Y-41609238D01*
X21135611Y-41609835D01*
X21135485Y-41610039D01*
X21139800Y-41614114D01*
X21148715Y-41617436D01*
X21160329Y-41625568D01*
X21160333Y-41625570D01*
X21218335Y-41652617D01*
X21270775Y-41698789D01*
X21289927Y-41765982D01*
X21269712Y-41832864D01*
X21218339Y-41877380D01*
X21173792Y-41898153D01*
X21160332Y-41904431D01*
X21160323Y-41904435D01*
X21148714Y-41912563D01*
X21133910Y-41921460D01*
X21131460Y-41922708D01*
X21131457Y-41922710D01*
X21058759Y-41975526D01*
X21057002Y-41976779D01*
X20973922Y-42034954D01*
X20813017Y-42195859D01*
X20754842Y-42278939D01*
X20753589Y-42280696D01*
X20700773Y-42353394D01*
X20700771Y-42353397D01*
X20699523Y-42355847D01*
X20690626Y-42370651D01*
X20682496Y-42382262D01*
X20644901Y-42462882D01*
X20643005Y-42466769D01*
X20607845Y-42535774D01*
X20603136Y-42550265D01*
X20597592Y-42564338D01*
X20586324Y-42588503D01*
X20586324Y-42588504D01*
X20566522Y-42662404D01*
X20564678Y-42668627D01*
X20544587Y-42730459D01*
X20544586Y-42730463D01*
X20540252Y-42757824D01*
X20537555Y-42770511D01*
X20527429Y-42808304D01*
X20527427Y-42808313D01*
X20521846Y-42872106D01*
X20520791Y-42880697D01*
X20512563Y-42932643D01*
X20512563Y-43137351D01*
X20520791Y-43189301D01*
X20521846Y-43197891D01*
X20527427Y-43261686D01*
X20527427Y-43261689D01*
X20527428Y-43261692D01*
X20527430Y-43261699D01*
X20537555Y-43299488D01*
X20540253Y-43312181D01*
X20544584Y-43339525D01*
X20544585Y-43339530D01*
X20564680Y-43401378D01*
X20566523Y-43407600D01*
X20586323Y-43481494D01*
X20597594Y-43505667D01*
X20603140Y-43519747D01*
X20607840Y-43534212D01*
X20607844Y-43534221D01*
X20643010Y-43603238D01*
X20644907Y-43607128D01*
X20682495Y-43687734D01*
X20690626Y-43699347D01*
X20699532Y-43714169D01*
X20700777Y-43716612D01*
X20700777Y-43716613D01*
X20753599Y-43789316D01*
X20754856Y-43791078D01*
X20813016Y-43874140D01*
X20973921Y-44035045D01*
X21040442Y-44081623D01*
X21084067Y-44136199D01*
X21091261Y-44205698D01*
X21059739Y-44268052D01*
X20999985Y-44303346D01*
X20980033Y-44308438D01*
X20980019Y-44308442D01*
X20923478Y-44331862D01*
X21683653Y-45092037D01*
X21620070Y-45109075D01*
X21506056Y-45174901D01*
X21412964Y-45267993D01*
X21347138Y-45382007D01*
X21313063Y-45509174D01*
X21313063Y-45640826D01*
X21347138Y-45767993D01*
X21412964Y-45882007D01*
X21506056Y-45975099D01*
X21620070Y-46040925D01*
X21683652Y-46057962D01*
X20923478Y-46818135D01*
X20923478Y-46818136D01*
X20980010Y-46841553D01*
X21008222Y-46851505D01*
X21064895Y-46892370D01*
X21090478Y-46957388D01*
X21076849Y-47025915D01*
X21038098Y-47070016D01*
X20973922Y-47114954D01*
X20813017Y-47275859D01*
X20754842Y-47358939D01*
X20753589Y-47360696D01*
X20700773Y-47433394D01*
X20700771Y-47433397D01*
X20699523Y-47435847D01*
X20690626Y-47450651D01*
X20682496Y-47462262D01*
X20644901Y-47542882D01*
X20643005Y-47546769D01*
X20607845Y-47615774D01*
X20603136Y-47630265D01*
X20597592Y-47644338D01*
X20586324Y-47668503D01*
X20586324Y-47668504D01*
X20566522Y-47742404D01*
X20564678Y-47748627D01*
X20544587Y-47810459D01*
X20544586Y-47810463D01*
X20540252Y-47837824D01*
X20537555Y-47850511D01*
X20527429Y-47888304D01*
X20527427Y-47888313D01*
X20521846Y-47952106D01*
X20520791Y-47960697D01*
X20512563Y-48012643D01*
X20512563Y-48217351D01*
X20520791Y-48269301D01*
X20521846Y-48277891D01*
X20527427Y-48341686D01*
X20527427Y-48341689D01*
X20527428Y-48341692D01*
X20527430Y-48341699D01*
X20537555Y-48379488D01*
X20540253Y-48392181D01*
X20544584Y-48419525D01*
X20544585Y-48419530D01*
X20564680Y-48481378D01*
X20566523Y-48487600D01*
X20586323Y-48561494D01*
X20597594Y-48585667D01*
X20603140Y-48599747D01*
X20607840Y-48614212D01*
X20607844Y-48614221D01*
X20643010Y-48683238D01*
X20644907Y-48687128D01*
X20682495Y-48767734D01*
X20690626Y-48779347D01*
X20699532Y-48794169D01*
X20700777Y-48796612D01*
X20700777Y-48796613D01*
X20753599Y-48869316D01*
X20754856Y-48871078D01*
X20813016Y-48954140D01*
X20973921Y-49115045D01*
X21056983Y-49173205D01*
X21057748Y-49174033D01*
X21058745Y-49174462D01*
X21131451Y-49227286D01*
X21131454Y-49227288D01*
X21133881Y-49228524D01*
X21134637Y-49229238D01*
X21135611Y-49229835D01*
X21135485Y-49230039D01*
X21139800Y-49234114D01*
X21148715Y-49237436D01*
X21160329Y-49245568D01*
X21160333Y-49245570D01*
X21218335Y-49272617D01*
X21270775Y-49318789D01*
X21289927Y-49385982D01*
X21269712Y-49452864D01*
X21218339Y-49497380D01*
X21173792Y-49518153D01*
X21160332Y-49524431D01*
X21160323Y-49524435D01*
X21148714Y-49532563D01*
X21133910Y-49541460D01*
X21131460Y-49542708D01*
X21131457Y-49542710D01*
X21058759Y-49595526D01*
X21057002Y-49596779D01*
X20973922Y-49654954D01*
X20813017Y-49815859D01*
X20754842Y-49898939D01*
X20753589Y-49900696D01*
X20700773Y-49973394D01*
X20700771Y-49973397D01*
X20699523Y-49975847D01*
X20690626Y-49990651D01*
X20682496Y-50002262D01*
X20644901Y-50082882D01*
X20643005Y-50086769D01*
X20607845Y-50155774D01*
X20603136Y-50170265D01*
X20597592Y-50184338D01*
X20586324Y-50208503D01*
X20586324Y-50208504D01*
X20566522Y-50282404D01*
X20564678Y-50288627D01*
X20544587Y-50350459D01*
X20544586Y-50350463D01*
X20540252Y-50377824D01*
X20537555Y-50390511D01*
X20527429Y-50428304D01*
X20527427Y-50428313D01*
X20521846Y-50492106D01*
X20520791Y-50500697D01*
X20512563Y-50552643D01*
X20512563Y-50757351D01*
X20520791Y-50809301D01*
X20521846Y-50817891D01*
X20527427Y-50881686D01*
X20527427Y-50881689D01*
X20527428Y-50881692D01*
X20527430Y-50881699D01*
X20537555Y-50919488D01*
X20540253Y-50932181D01*
X20544584Y-50959525D01*
X20544585Y-50959530D01*
X20564680Y-51021378D01*
X20566523Y-51027600D01*
X20586323Y-51101494D01*
X20597594Y-51125667D01*
X20603140Y-51139747D01*
X20607840Y-51154212D01*
X20607844Y-51154221D01*
X20643010Y-51223238D01*
X20644907Y-51227128D01*
X20682495Y-51307734D01*
X20690626Y-51319347D01*
X20699532Y-51334169D01*
X20700777Y-51336612D01*
X20700777Y-51336613D01*
X20753599Y-51409316D01*
X20754856Y-51411078D01*
X20813016Y-51494140D01*
X20973921Y-51655045D01*
X21056983Y-51713205D01*
X21058745Y-51714462D01*
X21131451Y-51767286D01*
X21131454Y-51767288D01*
X21133881Y-51768524D01*
X21148715Y-51777436D01*
X21160329Y-51785568D01*
X21240921Y-51823149D01*
X21244811Y-51825046D01*
X21313844Y-51860220D01*
X21328324Y-51864924D01*
X21342386Y-51870463D01*
X21366567Y-51881739D01*
X21366573Y-51881740D01*
X21366576Y-51881742D01*
X21440449Y-51901535D01*
X21446672Y-51903378D01*
X21508529Y-51923477D01*
X21535885Y-51927809D01*
X21548561Y-51930503D01*
X21586371Y-51940635D01*
X21650166Y-51946215D01*
X21658753Y-51947269D01*
X21710711Y-51955500D01*
X21710712Y-51955500D01*
X23469848Y-51955500D01*
X23469848Y-51955499D01*
X23639755Y-51940635D01*
X23859559Y-51881739D01*
X24065797Y-51785568D01*
X24252202Y-51655047D01*
X24413110Y-51494139D01*
X24543631Y-51307734D01*
X24639802Y-51101496D01*
X24698698Y-50881692D01*
X24713563Y-50711784D01*
X24713563Y-50598216D01*
X24698698Y-50428308D01*
X24653979Y-50261415D01*
X24639804Y-50208511D01*
X24639801Y-50208503D01*
X24543631Y-50002266D01*
X24413119Y-49815874D01*
X24413108Y-49815858D01*
X24252204Y-49654954D01*
X24065797Y-49524432D01*
X24065791Y-49524429D01*
X24014820Y-49500661D01*
X24007787Y-49497381D01*
X23955348Y-49451210D01*
X23936196Y-49384017D01*
X23956411Y-49317135D01*
X24007788Y-49272618D01*
X24065797Y-49245568D01*
X24252202Y-49115047D01*
X24413110Y-48954139D01*
X24543631Y-48767734D01*
X24639802Y-48561496D01*
X24698698Y-48341692D01*
X24713563Y-48171784D01*
X24713563Y-48058216D01*
X24698698Y-47888308D01*
X24653979Y-47721415D01*
X24639804Y-47668511D01*
X24639801Y-47668503D01*
X24543631Y-47462266D01*
X24413110Y-47275861D01*
X24413108Y-47275858D01*
X24252204Y-47114954D01*
X24065797Y-46984432D01*
X24065795Y-46984431D01*
X24013842Y-46960205D01*
X23961403Y-46914032D01*
X23942251Y-46846839D01*
X23962467Y-46779958D01*
X24007795Y-46738464D01*
X24072563Y-46703844D01*
X24072584Y-46703832D01*
X24203593Y-46616295D01*
X24203599Y-46616291D01*
X24280127Y-46553485D01*
X24391548Y-46442064D01*
X24454354Y-46365536D01*
X24454358Y-46365530D01*
X24541895Y-46234521D01*
X24541907Y-46234501D01*
X24588572Y-46147198D01*
X24648877Y-46001612D01*
X24677619Y-45906860D01*
X24677622Y-45906849D01*
X24693902Y-45825000D01*
X22246075Y-45825000D01*
X22278988Y-45767993D01*
X22313063Y-45640826D01*
X22313063Y-45509174D01*
X22278988Y-45382007D01*
X22246075Y-45325000D01*
X24693902Y-45325000D01*
X24693902Y-45324999D01*
X24677622Y-45243150D01*
X24677619Y-45243139D01*
X24648877Y-45148387D01*
X24588572Y-45002801D01*
X24541907Y-44915498D01*
X24541895Y-44915478D01*
X24454358Y-44784469D01*
X24454354Y-44784463D01*
X24391548Y-44707935D01*
X24280127Y-44596514D01*
X24203599Y-44533708D01*
X24203593Y-44533704D01*
X24072584Y-44446167D01*
X24072564Y-44446155D01*
X24007793Y-44411534D01*
X23957949Y-44362571D01*
X23942489Y-44294434D01*
X23966321Y-44228754D01*
X24013840Y-44189795D01*
X24065797Y-44165568D01*
X24252202Y-44035047D01*
X24413110Y-43874139D01*
X24543631Y-43687734D01*
X24639802Y-43481496D01*
X24698698Y-43261692D01*
X24713563Y-43091784D01*
X24713563Y-42978216D01*
X24698698Y-42808308D01*
X24653979Y-42641415D01*
X24639804Y-42588511D01*
X24639801Y-42588503D01*
X24543631Y-42382266D01*
X24413110Y-42195861D01*
X24413108Y-42195858D01*
X24252204Y-42034954D01*
X24065797Y-41904432D01*
X24065791Y-41904429D01*
X24007788Y-41877382D01*
X23955348Y-41831210D01*
X23936196Y-41764017D01*
X23956411Y-41697135D01*
X24007788Y-41652618D01*
X24065797Y-41625568D01*
X24252202Y-41495047D01*
X24413110Y-41334139D01*
X24543631Y-41147734D01*
X24639802Y-40941496D01*
X24698698Y-40721692D01*
X24713563Y-40551784D01*
X24713563Y-40438216D01*
X24698698Y-40268308D01*
X24653979Y-40101415D01*
X24639804Y-40048511D01*
X24639801Y-40048503D01*
X24543631Y-39842266D01*
X24413110Y-39655861D01*
X24413108Y-39655858D01*
X24252204Y-39494954D01*
X24065797Y-39364432D01*
X24065791Y-39364429D01*
X24007788Y-39337382D01*
X23955348Y-39291210D01*
X23936196Y-39224017D01*
X23956411Y-39157135D01*
X24007788Y-39112618D01*
X24065797Y-39085568D01*
X24252202Y-38955047D01*
X24413110Y-38794139D01*
X24543631Y-38607734D01*
X24639802Y-38401496D01*
X24698698Y-38181692D01*
X24713563Y-38011784D01*
X24713563Y-37898216D01*
X24698698Y-37728308D01*
X24653979Y-37561415D01*
X24639804Y-37508511D01*
X24639801Y-37508503D01*
X24543631Y-37302266D01*
X24413110Y-37115861D01*
X24413108Y-37115858D01*
X24252204Y-36954954D01*
X24065797Y-36824432D01*
X24065791Y-36824429D01*
X24007788Y-36797382D01*
X23955348Y-36751210D01*
X23936196Y-36684017D01*
X23956411Y-36617135D01*
X24007788Y-36572618D01*
X24065797Y-36545568D01*
X24252202Y-36415047D01*
X24413110Y-36254139D01*
X24543631Y-36067734D01*
X24639802Y-35861496D01*
X24698698Y-35641692D01*
X24713563Y-35471784D01*
X24713563Y-35358216D01*
X24698698Y-35188308D01*
X24653979Y-35021415D01*
X24639804Y-34968511D01*
X24639801Y-34968503D01*
X24543631Y-34762266D01*
X24413110Y-34575861D01*
X24413108Y-34575858D01*
X24252204Y-34414954D01*
X24065797Y-34284432D01*
X24065795Y-34284431D01*
X24013842Y-34260205D01*
X23961403Y-34214032D01*
X23942251Y-34146839D01*
X23962467Y-34079958D01*
X24007795Y-34038464D01*
X24072563Y-34003844D01*
X24072584Y-34003832D01*
X24203593Y-33916295D01*
X24203599Y-33916291D01*
X24280127Y-33853485D01*
X24391548Y-33742064D01*
X24454354Y-33665536D01*
X24454358Y-33665530D01*
X24541895Y-33534521D01*
X24541907Y-33534501D01*
X24588572Y-33447198D01*
X24648877Y-33301612D01*
X24677619Y-33206860D01*
X24677622Y-33206849D01*
X24693902Y-33125000D01*
X22246075Y-33125000D01*
X22278988Y-33067993D01*
X22313063Y-32940826D01*
X22313063Y-32809174D01*
X22278988Y-32682007D01*
X22246075Y-32625000D01*
X24693902Y-32625000D01*
X24693902Y-32624999D01*
X24677622Y-32543150D01*
X24677619Y-32543139D01*
X24648877Y-32448387D01*
X24588572Y-32302801D01*
X24541907Y-32215498D01*
X24541895Y-32215478D01*
X24454358Y-32084469D01*
X24454354Y-32084463D01*
X24391548Y-32007935D01*
X24280127Y-31896514D01*
X24203599Y-31833708D01*
X24203593Y-31833704D01*
X24072584Y-31746167D01*
X24072564Y-31746155D01*
X24007793Y-31711534D01*
X23957949Y-31662571D01*
X23942489Y-31594434D01*
X23966321Y-31528754D01*
X24013840Y-31489795D01*
X24065797Y-31465568D01*
X24252202Y-31335047D01*
X24413110Y-31174139D01*
X24543631Y-30987734D01*
X24639802Y-30781496D01*
X24698698Y-30561692D01*
X24713563Y-30391784D01*
X24713563Y-30278216D01*
X24698698Y-30108308D01*
X24653979Y-29941415D01*
X24639804Y-29888511D01*
X24639801Y-29888503D01*
X24543631Y-29682266D01*
X24413110Y-29495861D01*
X24413108Y-29495858D01*
X24252204Y-29334954D01*
X24065797Y-29204432D01*
X24065791Y-29204429D01*
X24007788Y-29177382D01*
X23955348Y-29131210D01*
X23936196Y-29064017D01*
X23956411Y-28997135D01*
X24007788Y-28952618D01*
X24065797Y-28925568D01*
X24252202Y-28795047D01*
X24413110Y-28634139D01*
X24543631Y-28447734D01*
X24639802Y-28241496D01*
X24698698Y-28021692D01*
X24713563Y-27851784D01*
X24713563Y-27738216D01*
X24698698Y-27568308D01*
X24653979Y-27401415D01*
X24639804Y-27348511D01*
X24639801Y-27348503D01*
X24543631Y-27142266D01*
X24413110Y-26955861D01*
X24413108Y-26955858D01*
X24252204Y-26794954D01*
X24065797Y-26664432D01*
X24065791Y-26664429D01*
X24007788Y-26637382D01*
X23955348Y-26591210D01*
X23936196Y-26524017D01*
X23956411Y-26457135D01*
X24007788Y-26412618D01*
X24065797Y-26385568D01*
X24252202Y-26255047D01*
X24413110Y-26094139D01*
X24543631Y-25907734D01*
X24639802Y-25701496D01*
X24698698Y-25481692D01*
X24713563Y-25311784D01*
X24713563Y-25198216D01*
X24698698Y-25028308D01*
X24653979Y-24861415D01*
X24639804Y-24808511D01*
X24639801Y-24808503D01*
X24543631Y-24602266D01*
X24413110Y-24415861D01*
X24413108Y-24415858D01*
X24252204Y-24254954D01*
X24065797Y-24124432D01*
X24065791Y-24124429D01*
X24007788Y-24097382D01*
X23955348Y-24051210D01*
X23936196Y-23984017D01*
X23956411Y-23917135D01*
X24007788Y-23872618D01*
X24065797Y-23845568D01*
X24252202Y-23715047D01*
X24413110Y-23554139D01*
X24543631Y-23367734D01*
X24639802Y-23161496D01*
X24698698Y-22941692D01*
X24713563Y-22771784D01*
X24713563Y-22658216D01*
X24698698Y-22488308D01*
X24643068Y-22280692D01*
X24639804Y-22268511D01*
X24639801Y-22268503D01*
X24543631Y-22062266D01*
X24413110Y-21875861D01*
X24413108Y-21875858D01*
X24252204Y-21714954D01*
X24065797Y-21584432D01*
X24065795Y-21584431D01*
X24013842Y-21560205D01*
X23961403Y-21514032D01*
X23942251Y-21446839D01*
X23962467Y-21379958D01*
X24007795Y-21338464D01*
X24072563Y-21303844D01*
X24072584Y-21303832D01*
X24203593Y-21216295D01*
X24203599Y-21216291D01*
X24280127Y-21153485D01*
X24391548Y-21042064D01*
X24454354Y-20965536D01*
X24454358Y-20965530D01*
X24541895Y-20834521D01*
X24541907Y-20834501D01*
X24588572Y-20747198D01*
X24648877Y-20601612D01*
X24677619Y-20506860D01*
X24677622Y-20506849D01*
X24693902Y-20425000D01*
X22246075Y-20425000D01*
X22278988Y-20367993D01*
X22313063Y-20240826D01*
X22313063Y-20109174D01*
X22278988Y-19982007D01*
X22246075Y-19925000D01*
X24693902Y-19925000D01*
X24693902Y-19924999D01*
X24677622Y-19843150D01*
X24677619Y-19843139D01*
X24648877Y-19748387D01*
X24588572Y-19602801D01*
X24541907Y-19515498D01*
X24541895Y-19515478D01*
X24454358Y-19384469D01*
X24454354Y-19384463D01*
X24391548Y-19307935D01*
X24280127Y-19196514D01*
X24203599Y-19133708D01*
X24203593Y-19133704D01*
X24072584Y-19046167D01*
X24072564Y-19046155D01*
X24007793Y-19011534D01*
X23957949Y-18962571D01*
X23942489Y-18894434D01*
X23966321Y-18828754D01*
X24013840Y-18789795D01*
X24065797Y-18765568D01*
X24252202Y-18635047D01*
X24413110Y-18474139D01*
X24543631Y-18287734D01*
X24639802Y-18081496D01*
X24698698Y-17861692D01*
X24713563Y-17691784D01*
X24713563Y-17578216D01*
X24698698Y-17408308D01*
X24653979Y-17241415D01*
X24639804Y-17188511D01*
X24639801Y-17188503D01*
X24543631Y-16982266D01*
X24413110Y-16795861D01*
X24413108Y-16795858D01*
X24252204Y-16634954D01*
X24065797Y-16504432D01*
X24065791Y-16504429D01*
X24007788Y-16477382D01*
X23955348Y-16431210D01*
X23936196Y-16364017D01*
X23956411Y-16297135D01*
X24007788Y-16252618D01*
X24065797Y-16225568D01*
X24252202Y-16095047D01*
X24413110Y-15934139D01*
X24543631Y-15747734D01*
X24639802Y-15541496D01*
X24698698Y-15321692D01*
X24713563Y-15151784D01*
X24713563Y-15038216D01*
X24698698Y-14868308D01*
X24653979Y-14701415D01*
X24639804Y-14648511D01*
X24639801Y-14648503D01*
X24543631Y-14442266D01*
X24413110Y-14255861D01*
X24413108Y-14255858D01*
X24252204Y-14094954D01*
X24065797Y-13964432D01*
X24065791Y-13964429D01*
X24007788Y-13937382D01*
X23955348Y-13891210D01*
X23936196Y-13824017D01*
X23956411Y-13757135D01*
X24007788Y-13712618D01*
X24065797Y-13685568D01*
X24252202Y-13555047D01*
X24413110Y-13394139D01*
X24543631Y-13207734D01*
X24639802Y-13001496D01*
X24698698Y-12781692D01*
X24713563Y-12611784D01*
X24713563Y-12498216D01*
X24698698Y-12328308D01*
X24653979Y-12161415D01*
X24639804Y-12108511D01*
X24639801Y-12108503D01*
X24543631Y-11902266D01*
X24413110Y-11715861D01*
X24413108Y-11715858D01*
X24252204Y-11554954D01*
X24065797Y-11424432D01*
X24065791Y-11424429D01*
X24007788Y-11397382D01*
X23955348Y-11351210D01*
X23936196Y-11284017D01*
X23956411Y-11217135D01*
X24007788Y-11172618D01*
X24065797Y-11145568D01*
X24252202Y-11015047D01*
X24413110Y-10854139D01*
X24543631Y-10667734D01*
X24639802Y-10461496D01*
X24698698Y-10241692D01*
X24713563Y-10071784D01*
X24713563Y-9958216D01*
X24698698Y-9788308D01*
X24653979Y-9621415D01*
X24639804Y-9568511D01*
X24639801Y-9568503D01*
X24543631Y-9362266D01*
X24413110Y-9175861D01*
X24413108Y-9175858D01*
X24252204Y-9014954D01*
X24065797Y-8884432D01*
X24065795Y-8884431D01*
X24013842Y-8860205D01*
X23961403Y-8814032D01*
X23942251Y-8746839D01*
X23962467Y-8679958D01*
X24007795Y-8638464D01*
X24072563Y-8603844D01*
X24072584Y-8603832D01*
X24203593Y-8516295D01*
X24203599Y-8516291D01*
X24280127Y-8453485D01*
X24391548Y-8342064D01*
X24454354Y-8265536D01*
X24454358Y-8265530D01*
X24541895Y-8134521D01*
X24541907Y-8134501D01*
X24588572Y-8047198D01*
X24648877Y-7901612D01*
X24677619Y-7806860D01*
X24677622Y-7806849D01*
X24693902Y-7725000D01*
X22246075Y-7725000D01*
X22278988Y-7667993D01*
X22313063Y-7540826D01*
X22313063Y-7409174D01*
X22278988Y-7282007D01*
X22246075Y-7225000D01*
X24693902Y-7225000D01*
X24693902Y-7224999D01*
X24677622Y-7143150D01*
X24677619Y-7143139D01*
X24648877Y-7048387D01*
X24588572Y-6902801D01*
X24541907Y-6815498D01*
X24541895Y-6815478D01*
X24454358Y-6684469D01*
X24454354Y-6684463D01*
X24391548Y-6607935D01*
X24280127Y-6496514D01*
X24203599Y-6433708D01*
X24203593Y-6433704D01*
X24072584Y-6346167D01*
X24072564Y-6346155D01*
X24007793Y-6311534D01*
X23957949Y-6262571D01*
X23942489Y-6194434D01*
X23966321Y-6128754D01*
X24013840Y-6089795D01*
X24065797Y-6065568D01*
X24252202Y-5935047D01*
X24413110Y-5774139D01*
X24543631Y-5587734D01*
X24639802Y-5381496D01*
X24698698Y-5161692D01*
X24713563Y-4991784D01*
X24713563Y-4878216D01*
X24698698Y-4708308D01*
X24653979Y-4541415D01*
X24639804Y-4488511D01*
X24639801Y-4488503D01*
X24543631Y-4282266D01*
X24413110Y-4095861D01*
X24413108Y-4095858D01*
X24252204Y-3934954D01*
X24186218Y-3888751D01*
X24142593Y-3834175D01*
X24135399Y-3764677D01*
X24166921Y-3702322D01*
X24226675Y-3667028D01*
X24246289Y-3662022D01*
X24319798Y-3631574D01*
X24368614Y-3608219D01*
X24483796Y-3521994D01*
X24540057Y-3465733D01*
X24576220Y-3425475D01*
X24594274Y-3395047D01*
X24649636Y-3301736D01*
X24649637Y-3301735D01*
X24680085Y-3228226D01*
X24698087Y-3177198D01*
X24718563Y-3034782D01*
X24718563Y-1755218D01*
X24715667Y-1701185D01*
X24680085Y-1561774D01*
X24649637Y-1488265D01*
X24647743Y-1484307D01*
X24626283Y-1439451D01*
X24626280Y-1439446D01*
X24590471Y-1391612D01*
X24540057Y-1324267D01*
X24540052Y-1324262D01*
X24540047Y-1324256D01*
X24483810Y-1268019D01*
X24443538Y-1231843D01*
X24443530Y-1231837D01*
X24319799Y-1158426D01*
X24319800Y-1158426D01*
X24270792Y-1138127D01*
X24246289Y-1127978D01*
X24246275Y-1127973D01*
X24246267Y-1127970D01*
X24195262Y-1109976D01*
X24132225Y-1100913D01*
X24052845Y-1089500D01*
X21734270Y-1089500D01*
X21689565Y-1093903D01*
X21677413Y-1094500D01*
X21156447Y-1094500D01*
X21137208Y-1096248D01*
X21085870Y-1100913D01*
X20923456Y-1151522D01*
X20777874Y-1239530D01*
X20657593Y-1359811D01*
X20569585Y-1505393D01*
X20518976Y-1667807D01*
X20512563Y-1738386D01*
X20512563Y-2259348D01*
X20512015Y-2270502D01*
X20512031Y-2270820D01*
X20511994Y-2271217D01*
X20507563Y-2316207D01*
X16982328Y-2316207D01*
X16975139Y-2270820D01*
X16965309Y-2208757D01*
X16899620Y-2006588D01*
X16803114Y-1817184D01*
X16803112Y-1817181D01*
X16803111Y-1817179D01*
X16678172Y-1645213D01*
X16527849Y-1494890D01*
X16355883Y-1369951D01*
X16166477Y-1273444D01*
X16166476Y-1273443D01*
X16166475Y-1273443D01*
X15964306Y-1207754D01*
X15964304Y-1207753D01*
X15964303Y-1207753D01*
X15786114Y-1179531D01*
X15754350Y-1174500D01*
X15541776Y-1174500D01*
X15510012Y-1179531D01*
X15331823Y-1207753D01*
X15129648Y-1273444D01*
X14940248Y-1369948D01*
X14940246Y-1369949D01*
X14870612Y-1420540D01*
X14804805Y-1444019D01*
X14736751Y-1428192D01*
X14710047Y-1407902D01*
X14678758Y-1376613D01*
X14678757Y-1376612D01*
X14565230Y-1311068D01*
X14565231Y-1311068D01*
X14526483Y-1300685D01*
X14438608Y-1277139D01*
X14438605Y-1277138D01*
X14438606Y-1277138D01*
X14373063Y-1275000D01*
X13923063Y-1275000D01*
X13473063Y-1275000D01*
X13407518Y-1277139D01*
X13280896Y-1311067D01*
X13280894Y-1311067D01*
X13280894Y-1311068D01*
X13167369Y-1376612D01*
X13167366Y-1376614D01*
X13074677Y-1469303D01*
X13074670Y-1469312D01*
X13026118Y-1553406D01*
X12975551Y-1601621D01*
X12906944Y-1614843D01*
X12842079Y-1588875D01*
X12811344Y-1553404D01*
X12777565Y-1494896D01*
X12771451Y-1484306D01*
X12678757Y-1391612D01*
X12565230Y-1326068D01*
X12565231Y-1326068D01*
X12509250Y-1311068D01*
X12438608Y-1292139D01*
X12438605Y-1292138D01*
X12438606Y-1292138D01*
X12373063Y-1290000D01*
X11923063Y-1290000D01*
X11473063Y-1290000D01*
X11407518Y-1292139D01*
X11280896Y-1326067D01*
X11280894Y-1326067D01*
X11280894Y-1326068D01*
X11167369Y-1391612D01*
X11144765Y-1414216D01*
X11083441Y-1447700D01*
X11013749Y-1442714D01*
X10984201Y-1426852D01*
X10905879Y-1369949D01*
X10905877Y-1369948D01*
X10716477Y-1273444D01*
X10716476Y-1273443D01*
X10716475Y-1273443D01*
X10514306Y-1207754D01*
X10514304Y-1207753D01*
X10514303Y-1207753D01*
X10336114Y-1179531D01*
X10304350Y-1174500D01*
X10091776Y-1174500D01*
X10060012Y-1179531D01*
X9881823Y-1207753D01*
X9679648Y-1273444D01*
X9490242Y-1369951D01*
X9318276Y-1494890D01*
X9167953Y-1645213D01*
X9043014Y-1817179D01*
X8946507Y-2006585D01*
X8880816Y-2208760D01*
X8848456Y-2413073D01*
X8847563Y-2418713D01*
X5333563Y-2418713D01*
X5333563Y-2292648D01*
X5324656Y-2236417D01*
X5318698Y-2168308D01*
X5308566Y-2130498D01*
X5305872Y-2117822D01*
X5301540Y-2090466D01*
X5281441Y-2028609D01*
X5279598Y-2022386D01*
X5259805Y-1948513D01*
X5259803Y-1948510D01*
X5259802Y-1948504D01*
X5248526Y-1924323D01*
X5242987Y-1910261D01*
X5238283Y-1895781D01*
X5203109Y-1826748D01*
X5201212Y-1822858D01*
X5163631Y-1742266D01*
X5155499Y-1730652D01*
X5146587Y-1715818D01*
X5145351Y-1713391D01*
X5145349Y-1713388D01*
X5092525Y-1640682D01*
X5091268Y-1638920D01*
X5033108Y-1555858D01*
X4872203Y-1394953D01*
X4789141Y-1336793D01*
X4787379Y-1335536D01*
X4714675Y-1282714D01*
X4712232Y-1281469D01*
X4697410Y-1272563D01*
X4685797Y-1264432D01*
X4605191Y-1226844D01*
X4601319Y-1224956D01*
X4532282Y-1189780D01*
X4532281Y-1189779D01*
X4532275Y-1189777D01*
X4517810Y-1185077D01*
X4503730Y-1179531D01*
X4479557Y-1168260D01*
X4405663Y-1148460D01*
X4399441Y-1146617D01*
X4392454Y-1144347D01*
X4337597Y-1126523D01*
X4337595Y-1126522D01*
X4337593Y-1126522D01*
X4337588Y-1126521D01*
X4310244Y-1122190D01*
X4297551Y-1119492D01*
X4259762Y-1109367D01*
X4259765Y-1109367D01*
X4259755Y-1109365D01*
X4259752Y-1109364D01*
X4259749Y-1109364D01*
X4195954Y-1103783D01*
X4187364Y-1102728D01*
X4175911Y-1100914D01*
X4135415Y-1094500D01*
X4089847Y-1094500D01*
X2376279Y-1094500D01*
X2376278Y-1094500D01*
X2206375Y-1109364D01*
X2206365Y-1109366D01*
X1986574Y-1168258D01*
X1986565Y-1168261D01*
X1780330Y-1264431D01*
X1780328Y-1264432D01*
X1593921Y-1394954D01*
X1433017Y-1555858D01*
X1302495Y-1742265D01*
X1302494Y-1742267D01*
X1206324Y-1948502D01*
X1206321Y-1948511D01*
X1147429Y-2168302D01*
X1147427Y-2168312D01*
X1132563Y-2338214D01*
X1132563Y-2451785D01*
X1147427Y-2621687D01*
X1147429Y-2621697D01*
X1206321Y-2841488D01*
X1206324Y-2841497D01*
X1302494Y-3047732D01*
X1302495Y-3047734D01*
X1433017Y-3234141D01*
X1593921Y-3395045D01*
X1593924Y-3395047D01*
X1780329Y-3525568D01*
X1838338Y-3552618D01*
X1890777Y-3598791D01*
X1909929Y-3665984D01*
X1889713Y-3732865D01*
X1838338Y-3777382D01*
X1780330Y-3804431D01*
X1780328Y-3804432D01*
X1593921Y-3934954D01*
X1433017Y-4095858D01*
X1302495Y-4282265D01*
X1302494Y-4282267D01*
X1206324Y-4488502D01*
X1206321Y-4488511D01*
X1147429Y-4708302D01*
X1147427Y-4708312D01*
X1132563Y-4878214D01*
X1132563Y-4991785D01*
X1147427Y-5161687D01*
X1147429Y-5161697D01*
X1206321Y-5381488D01*
X1206324Y-5381497D01*
X1302494Y-5587732D01*
X1302495Y-5587734D01*
X1433017Y-5774141D01*
X1593921Y-5935045D01*
X1593924Y-5935047D01*
X1780329Y-6065568D01*
X1832282Y-6089794D01*
X1884722Y-6135966D01*
X1903874Y-6203159D01*
X1883659Y-6270041D01*
X1838332Y-6311534D01*
X1773562Y-6346155D01*
X1773541Y-6346167D01*
X1642532Y-6433704D01*
X1642526Y-6433708D01*
X1565998Y-6496514D01*
X1454577Y-6607935D01*
X1391771Y-6684463D01*
X1391767Y-6684469D01*
X1304230Y-6815478D01*
X1304218Y-6815498D01*
X1257553Y-6902801D01*
X1197248Y-7048387D01*
X1168506Y-7143139D01*
X1168503Y-7143150D01*
X1152223Y-7224999D01*
X1152224Y-7225000D01*
X3600051Y-7225000D01*
X3567138Y-7282007D01*
X3533063Y-7409174D01*
X3533063Y-7540826D01*
X3567138Y-7667993D01*
X3600051Y-7725000D01*
X1152223Y-7725000D01*
X1168503Y-7806849D01*
X1168506Y-7806860D01*
X1197248Y-7901612D01*
X1257553Y-8047198D01*
X1304218Y-8134501D01*
X1304230Y-8134521D01*
X1391767Y-8265530D01*
X1391771Y-8265536D01*
X1454577Y-8342064D01*
X1565998Y-8453485D01*
X1642526Y-8516291D01*
X1642532Y-8516295D01*
X1773541Y-8603832D01*
X1773569Y-8603849D01*
X1838331Y-8638465D01*
X1888175Y-8687427D01*
X1903636Y-8755565D01*
X1879804Y-8821244D01*
X1832284Y-8860205D01*
X1780327Y-8884433D01*
X1593921Y-9014954D01*
X1433017Y-9175858D01*
X1302495Y-9362265D01*
X1302494Y-9362267D01*
X1206324Y-9568502D01*
X1206321Y-9568511D01*
X1147429Y-9788302D01*
X1147427Y-9788312D01*
X1132563Y-9958214D01*
X1132563Y-10071785D01*
X1147427Y-10241687D01*
X1147429Y-10241697D01*
X1206321Y-10461488D01*
X1206324Y-10461497D01*
X1302494Y-10667732D01*
X1302495Y-10667734D01*
X1433017Y-10854141D01*
X1593921Y-11015045D01*
X1593924Y-11015047D01*
X1780329Y-11145568D01*
X1838338Y-11172618D01*
X1890777Y-11218791D01*
X1909929Y-11285984D01*
X1889713Y-11352865D01*
X1838338Y-11397382D01*
X1780330Y-11424431D01*
X1780328Y-11424432D01*
X1593921Y-11554954D01*
X1433017Y-11715858D01*
X1302495Y-11902265D01*
X1302494Y-11902267D01*
X1206324Y-12108502D01*
X1206321Y-12108511D01*
X1147429Y-12328302D01*
X1147427Y-12328312D01*
X1132563Y-12498214D01*
X1132563Y-12611785D01*
X1147427Y-12781687D01*
X1147429Y-12781697D01*
X1206321Y-13001488D01*
X1206324Y-13001497D01*
X1302494Y-13207732D01*
X1302495Y-13207734D01*
X1433017Y-13394141D01*
X1593921Y-13555045D01*
X1593924Y-13555047D01*
X1780329Y-13685568D01*
X1838338Y-13712618D01*
X1890777Y-13758791D01*
X1909929Y-13825984D01*
X1889713Y-13892865D01*
X1838338Y-13937382D01*
X1780330Y-13964431D01*
X1780328Y-13964432D01*
X1593921Y-14094954D01*
X1433017Y-14255858D01*
X1302495Y-14442265D01*
X1302494Y-14442267D01*
X1206324Y-14648502D01*
X1206321Y-14648511D01*
X1147429Y-14868302D01*
X1147427Y-14868312D01*
X1132563Y-15038214D01*
X1132563Y-15151785D01*
X1147427Y-15321687D01*
X1147429Y-15321697D01*
X1206321Y-15541488D01*
X1206324Y-15541497D01*
X1302494Y-15747732D01*
X1302495Y-15747734D01*
X1433017Y-15934141D01*
X1593921Y-16095045D01*
X1593924Y-16095047D01*
X1780329Y-16225568D01*
X1838338Y-16252618D01*
X1890777Y-16298791D01*
X1909929Y-16365984D01*
X1889713Y-16432865D01*
X1838338Y-16477382D01*
X1780330Y-16504431D01*
X1780328Y-16504432D01*
X1593921Y-16634954D01*
X1433017Y-16795858D01*
X1302495Y-16982265D01*
X1302494Y-16982267D01*
X1206324Y-17188502D01*
X1206321Y-17188511D01*
X1147429Y-17408302D01*
X1147427Y-17408312D01*
X1132563Y-17578214D01*
X1132563Y-17691785D01*
X1147427Y-17861687D01*
X1147429Y-17861697D01*
X1206321Y-18081488D01*
X1206324Y-18081497D01*
X1302494Y-18287732D01*
X1302495Y-18287734D01*
X1433017Y-18474141D01*
X1593921Y-18635045D01*
X1593924Y-18635047D01*
X1780329Y-18765568D01*
X1831718Y-18789531D01*
X1884158Y-18835703D01*
X1903310Y-18902896D01*
X1883095Y-18969778D01*
X1837768Y-19011271D01*
X1787351Y-19038219D01*
X1773280Y-19045741D01*
X1773277Y-19045742D01*
X1773263Y-19045751D01*
X1642269Y-19133278D01*
X1642257Y-19133287D01*
X1642252Y-19133290D01*
X1642252Y-19133291D01*
X1565651Y-19196157D01*
X1565648Y-19196160D01*
X1565645Y-19196162D01*
X1454225Y-19307582D01*
X1454223Y-19307585D01*
X1454220Y-19307588D01*
X1426028Y-19341940D01*
X1391350Y-19384194D01*
X1391341Y-19384206D01*
X1303814Y-19515200D01*
X1303797Y-19515228D01*
X1257094Y-19602603D01*
X1257092Y-19602608D01*
X1196785Y-19748200D01*
X1188686Y-19774901D01*
X1168019Y-19843032D01*
X1168018Y-19843036D01*
X1168018Y-19843037D01*
X1137274Y-19997599D01*
X1137274Y-19997602D01*
X1127563Y-20096209D01*
X576937Y-20096209D01*
X576937Y-624500D01*
X596622Y-557461D01*
X649426Y-511706D01*
X700937Y-500500D01*
X25375500Y-500500D01*
X25442539Y-520185D01*
G37*
%TD.AperFunction*%
%TD*%
M02*
