%TF.GenerationSoftware,KiCad,Pcbnew,10.0.6*%
%TF.CreationDate,2026-09-30T20:24:50+02:00*%
%TF.ProjectId,conductor_main,636f6e64-7563-4746-9f72-5f6d61696e2e,rev?*%
%TF.SameCoordinates,Original*%
%TF.FileFunction,Legend,Bot*%
%TF.FilePolarity,Positive*%
%FSLAX46Y46*%
G04 Gerber Fmt 4.6, Leading zero omitted, Abs format (unit mm)*
G04 Created by KiCad (PCBNEW 10.0.6) date 2026-09-30 20:24:50*
%MOMM*%
%LPD*%
G01*
G04 APERTURE LIST*
%ADD10C,0.150000*%
%ADD11C,0.120000*%
G04 APERTURE END LIST*
D10*
X2074819Y-55666666D02*
X2789104Y-55666666D01*
X2789104Y-55666666D02*
X2931961Y-55619047D01*
X2931961Y-55619047D02*
X3027200Y-55523809D01*
X3027200Y-55523809D02*
X3074819Y-55380952D01*
X3074819Y-55380952D02*
X3074819Y-55285714D01*
X2074819Y-56047619D02*
X2074819Y-56666666D01*
X2074819Y-56666666D02*
X2455771Y-56333333D01*
X2455771Y-56333333D02*
X2455771Y-56476190D01*
X2455771Y-56476190D02*
X2503390Y-56571428D01*
X2503390Y-56571428D02*
X2551009Y-56619047D01*
X2551009Y-56619047D02*
X2646247Y-56666666D01*
X2646247Y-56666666D02*
X2884342Y-56666666D01*
X2884342Y-56666666D02*
X2979580Y-56619047D01*
X2979580Y-56619047D02*
X3027200Y-56571428D01*
X3027200Y-56571428D02*
X3074819Y-56476190D01*
X3074819Y-56476190D02*
X3074819Y-56190476D01*
X3074819Y-56190476D02*
X3027200Y-56095238D01*
X3027200Y-56095238D02*
X2979580Y-56047619D01*
X23210839Y-53169104D02*
X22734649Y-53169104D01*
X23306077Y-53454819D02*
X22972744Y-52454819D01*
X22972744Y-52454819D02*
X22639411Y-53454819D01*
X21782268Y-53454819D02*
X22353696Y-53454819D01*
X22067982Y-53454819D02*
X22067982Y-52454819D01*
X22067982Y-52454819D02*
X22163220Y-52597676D01*
X22163220Y-52597676D02*
X22258458Y-52692914D01*
X22258458Y-52692914D02*
X22353696Y-52740533D01*
X12454819Y-96916666D02*
X13169104Y-96916666D01*
X13169104Y-96916666D02*
X13311961Y-96869047D01*
X13311961Y-96869047D02*
X13407200Y-96773809D01*
X13407200Y-96773809D02*
X13454819Y-96630952D01*
X13454819Y-96630952D02*
X13454819Y-96535714D01*
X13454819Y-97916666D02*
X13454819Y-97345238D01*
X13454819Y-97630952D02*
X12454819Y-97630952D01*
X12454819Y-97630952D02*
X12597676Y-97535714D01*
X12597676Y-97535714D02*
X12692914Y-97440476D01*
X12692914Y-97440476D02*
X12740533Y-97345238D01*
%TO.C,J3*%
D11*
X3620000Y-54620000D02*
X3620000Y-56000000D01*
X5000000Y-54620000D02*
X3620000Y-54620000D01*
X6270000Y-54620000D02*
X6270000Y-57380000D01*
X6270000Y-54620000D02*
X24160000Y-54620000D01*
X6270000Y-57380000D02*
X24160000Y-57380000D01*
X24160000Y-54620000D02*
X24160000Y-57380000D01*
%TO.C,A1*%
X2313063Y-3455000D02*
X2313063Y-3875000D01*
X2313063Y-5995000D02*
X2313063Y-6415000D01*
X2313063Y-8535000D02*
X2313063Y-8955000D01*
X2313063Y-11075000D02*
X2313063Y-11495000D01*
X2313063Y-13615000D02*
X2313063Y-14035000D01*
X2313063Y-16155000D02*
X2313063Y-16575000D01*
X2313063Y-18695000D02*
X2313063Y-19115000D01*
X2313063Y-21235000D02*
X2313063Y-21655000D01*
X2313063Y-23775000D02*
X2313063Y-24195000D01*
X2313063Y-26315000D02*
X2313063Y-26735000D01*
X2313063Y-28855000D02*
X2313063Y-29275000D01*
X2313063Y-31395000D02*
X2313063Y-31815000D01*
X2313063Y-33935000D02*
X2313063Y-34355000D01*
X2313063Y-36475000D02*
X2313063Y-36895000D01*
X2313063Y-39015000D02*
X2313063Y-39435000D01*
X2313063Y-41555000D02*
X2313063Y-41975000D01*
X2313063Y-44095000D02*
X2313063Y-44515000D01*
X2313063Y-46635000D02*
X2313063Y-47055000D01*
X2313063Y-49175000D02*
X2313063Y-49595000D01*
X2653063Y-1335063D02*
X2653063Y-978000D01*
X2653063Y-3455000D02*
X2653063Y-3875000D01*
X2653063Y-5995000D02*
X2653063Y-6415000D01*
X2653063Y-8535000D02*
X2653063Y-8955000D01*
X2653063Y-11075000D02*
X2653063Y-11495000D01*
X2653063Y-13615000D02*
X2653063Y-14035000D01*
X2653063Y-16155000D02*
X2653063Y-16575000D01*
X2653063Y-18695000D02*
X2653063Y-19115000D01*
X2653063Y-21235000D02*
X2653063Y-21655000D01*
X2653063Y-23775000D02*
X2653063Y-24195000D01*
X2653063Y-26315000D02*
X2653063Y-26735000D01*
X2653063Y-28855000D02*
X2653063Y-29275000D01*
X2653063Y-31395000D02*
X2653063Y-31815000D01*
X2653063Y-33935000D02*
X2653063Y-34355000D01*
X2653063Y-36475000D02*
X2653063Y-36895000D01*
X2653063Y-39015000D02*
X2653063Y-39435000D01*
X2653063Y-41555000D02*
X2653063Y-41975000D01*
X2653063Y-44095000D02*
X2653063Y-44515000D01*
X2653063Y-46635000D02*
X2653063Y-47055000D01*
X2653063Y-49175000D02*
X2653063Y-49595000D01*
X2653063Y-51714937D02*
X2653063Y-52072000D01*
X2923063Y-915000D02*
X5413063Y-915000D01*
X5413063Y-915000D02*
X5413063Y-1828520D01*
X5413063Y-4221480D02*
X5413063Y-48828520D01*
X5413063Y-51221480D02*
X5413063Y-52135000D01*
X6761002Y-915000D02*
X5413063Y-915000D01*
X6761002Y-52135000D02*
X2923063Y-52135000D01*
X7685124Y-52135000D02*
X9323063Y-52135000D01*
X8688063Y-915000D02*
X7685124Y-915000D01*
X9023063Y-915000D02*
X9023063Y-1831000D01*
X9023063Y-4219000D02*
X9023063Y-5435000D01*
X9319153Y-5435000D02*
X9023063Y-5435000D01*
X9323063Y-52135000D02*
X16523063Y-52135000D01*
X14169153Y-5435000D02*
X11676973Y-5435000D01*
X16523063Y-52135000D02*
X18161002Y-52135000D01*
X16823063Y-915000D02*
X16823063Y-1831000D01*
X16823063Y-4219000D02*
X16823063Y-5435000D01*
X16823063Y-5435000D02*
X16526973Y-5435000D01*
X17158063Y-915000D02*
X8688063Y-915000D01*
X18161002Y-915000D02*
X17158063Y-915000D01*
X20433063Y-915000D02*
X19085123Y-915000D01*
X20433063Y-915000D02*
X20433063Y-1828520D01*
X20433063Y-4221480D02*
X20433063Y-48828520D01*
X20433063Y-51221480D02*
X20433063Y-52135000D01*
X22923063Y-915000D02*
X20433063Y-915000D01*
X22923063Y-52135000D02*
X19085124Y-52135000D01*
X23193063Y-1335063D02*
X23193063Y-978000D01*
X23193063Y-3455000D02*
X23193063Y-3875000D01*
X23193063Y-5995000D02*
X23193063Y-6415000D01*
X23193063Y-8535000D02*
X23193063Y-8955000D01*
X23193063Y-11075000D02*
X23193063Y-11495000D01*
X23193063Y-13615000D02*
X23193063Y-14035000D01*
X23193063Y-16155000D02*
X23193063Y-16575000D01*
X23193063Y-18695000D02*
X23193063Y-19115000D01*
X23193063Y-21235000D02*
X23193063Y-21655000D01*
X23193063Y-23775000D02*
X23193063Y-24195000D01*
X23193063Y-26315000D02*
X23193063Y-26735000D01*
X23193063Y-28855000D02*
X23193063Y-29275000D01*
X23193063Y-31395000D02*
X23193063Y-31815000D01*
X23193063Y-33935000D02*
X23193063Y-34355000D01*
X23193063Y-36475000D02*
X23193063Y-36895000D01*
X23193063Y-39015000D02*
X23193063Y-39435000D01*
X23193063Y-41555000D02*
X23193063Y-41975000D01*
X23193063Y-44095000D02*
X23193063Y-44515000D01*
X23193063Y-46635000D02*
X23193063Y-47055000D01*
X23193063Y-49175000D02*
X23193063Y-49595000D01*
X23193063Y-51714937D02*
X23193063Y-52072000D01*
X23502739Y-1335000D02*
X24013063Y-1335000D01*
X23533063Y-3455000D02*
X23533063Y-3875000D01*
X23533063Y-3455000D02*
X24013063Y-3455000D01*
X23533063Y-5995000D02*
X23533063Y-6415000D01*
X23533063Y-8535000D02*
X23533063Y-8955000D01*
X23533063Y-11075000D02*
X23533063Y-11495000D01*
X23533063Y-13615000D02*
X23533063Y-14035000D01*
X23533063Y-16155000D02*
X23533063Y-16575000D01*
X23533063Y-18695000D02*
X23533063Y-19115000D01*
X23533063Y-21235000D02*
X23533063Y-21655000D01*
X23533063Y-23775000D02*
X23533063Y-24195000D01*
X23533063Y-26315000D02*
X23533063Y-26735000D01*
X23533063Y-28855000D02*
X23533063Y-29275000D01*
X23533063Y-31395000D02*
X23533063Y-31815000D01*
X23533063Y-33935000D02*
X23533063Y-34355000D01*
X23533063Y-36475000D02*
X23533063Y-36895000D01*
X23533063Y-39015000D02*
X23533063Y-39435000D01*
X23533063Y-41555000D02*
X23533063Y-41975000D01*
X23533063Y-44095000D02*
X23533063Y-44515000D01*
X23533063Y-46635000D02*
X23533063Y-47055000D01*
X23533063Y-49175000D02*
X23533063Y-49595000D01*
X2343387Y-1335063D02*
G75*
G02*
X2923063Y-915000I579676J-189937D01*
G01*
X2923063Y-52135000D02*
G75*
G02*
X2343412Y-51714929I100J610100D01*
G01*
X22923063Y-915000D02*
G75*
G02*
X23502739Y-1335000I-16J-610051D01*
G01*
X23502739Y-51714937D02*
G75*
G02*
X22923063Y-52135000I-579677J189939D01*
G01*
%TO.C,J1*%
X1370000Y-95870000D02*
X1370000Y-97250000D01*
X2750000Y-95870000D02*
X1370000Y-95870000D01*
X4020000Y-95870000D02*
X4020000Y-98630000D01*
X4020000Y-95870000D02*
X11750000Y-95870000D01*
X4020000Y-98630000D02*
X11750000Y-98630000D01*
X11750000Y-95870000D02*
X11750000Y-98630000D01*
%TD*%
M02*
