%TF.GenerationSoftware,KiCad,Pcbnew,10.0.6*%
%TF.CreationDate,2026-09-30T20:24:50+02:00*%
%TF.ProjectId,conductor_main,636f6e64-7563-4746-9f72-5f6d61696e2e,rev?*%
%TF.SameCoordinates,Original*%
%TF.FileFunction,Soldermask,Bot*%
%TF.FilePolarity,Negative*%
%FSLAX46Y46*%
G04 Gerber Fmt 4.6, Leading zero omitted, Abs format (unit mm)*
G04 Created by KiCad (PCBNEW 10.0.6) date 2026-09-30 20:24:50*
%MOMM*%
%LPD*%
G01*
G04 APERTURE LIST*
G04 Aperture macros list*
%AMRoundRect*
0 Rectangle with rounded corners*
0 $1 Rounding radius*
0 $2 $3 $4 $5 $6 $7 $8 $9 X,Y pos of 4 corners*
0 Add a 4 corners polygon primitive as box body*
4,1,4,$2,$3,$4,$5,$6,$7,$8,$9,$2,$3,0*
0 Add four circle primitives for the rounded corners*
1,1,$1+$1,$2,$3*
1,1,$1+$1,$4,$5*
1,1,$1+$1,$6,$7*
1,1,$1+$1,$8,$9*
0 Add four rect primitives between the rounded corners*
20,1,$1+$1,$2,$3,$4,$5,0*
20,1,$1+$1,$4,$5,$6,$7,0*
20,1,$1+$1,$6,$7,$8,$9,0*
20,1,$1+$1,$8,$9,$2,$3,0*%
%AMFreePoly0*
4,1,37,0.800000,0.796148,0.878414,0.796148,1.032228,0.765552,1.177117,0.705537,1.307515,0.618408,1.418408,0.507515,1.505537,0.377117,1.565552,0.232228,1.596148,0.078414,1.596148,-0.078414,1.565552,-0.232228,1.505537,-0.377117,1.418408,-0.507515,1.307515,-0.618408,1.177117,-0.705537,1.032228,-0.765552,0.878414,-0.796148,0.800000,-0.796148,0.800000,-0.800000,-1.400000,-0.800000,
-1.403843,-0.796157,-1.439018,-0.796157,-1.511114,-0.766294,-1.566294,-0.711114,-1.596157,-0.639018,-1.596157,-0.603843,-1.600000,-0.600000,-1.600000,0.600000,-1.596157,0.603843,-1.596157,0.639018,-1.566294,0.711114,-1.511114,0.766294,-1.439018,0.796157,-1.403843,0.796157,-1.400000,0.800000,0.800000,0.800000,0.800000,0.796148,0.800000,0.796148,$1*%
%AMFreePoly1*
4,1,37,1.403843,0.796157,1.439018,0.796157,1.511114,0.766294,1.566294,0.711114,1.596157,0.639018,1.596157,0.603843,1.600000,0.600000,1.600000,-0.600000,1.596157,-0.603843,1.596157,-0.639018,1.566294,-0.711114,1.511114,-0.766294,1.439018,-0.796157,1.403843,-0.796157,1.400000,-0.800000,-0.800000,-0.800000,-0.800000,-0.796148,-0.878414,-0.796148,-1.032228,-0.765552,-1.177117,-0.705537,
-1.307515,-0.618408,-1.418408,-0.507515,-1.505537,-0.377117,-1.565552,-0.232228,-1.596148,-0.078414,-1.596148,0.078414,-1.565552,0.232228,-1.505537,0.377117,-1.418408,0.507515,-1.307515,0.618408,-1.177117,0.705537,-1.032228,0.765552,-0.878414,0.796148,-0.800000,0.796148,-0.800000,0.800000,1.400000,0.800000,1.403843,0.796157,1.403843,0.796157,$1*%
%AMFreePoly2*
4,1,37,0.603843,0.796157,0.639018,0.796157,0.711114,0.766294,0.766294,0.711114,0.796157,0.639018,0.796157,0.603843,0.800000,0.600000,0.800000,-0.600000,0.796157,-0.603843,0.796157,-0.639018,0.766294,-0.711114,0.711114,-0.766294,0.639018,-0.796157,0.603843,-0.796157,0.600000,-0.800000,0.000000,-0.800000,0.000000,-0.796148,-0.078414,-0.796148,-0.232228,-0.765552,-0.377117,-0.705537,
-0.507515,-0.618408,-0.618408,-0.507515,-0.705537,-0.377117,-0.765552,-0.232228,-0.796148,-0.078414,-0.796148,0.078414,-0.765552,0.232228,-0.705537,0.377117,-0.618408,0.507515,-0.507515,0.618408,-0.377117,0.705537,-0.232228,0.765552,-0.078414,0.796148,0.000000,0.796148,0.000000,0.800000,0.600000,0.800000,0.603843,0.796157,0.603843,0.796157,$1*%
%AMFreePoly3*
4,1,37,0.000000,0.796148,0.078414,0.796148,0.232228,0.765552,0.377117,0.705537,0.507515,0.618408,0.618408,0.507515,0.705537,0.377117,0.765552,0.232228,0.796148,0.078414,0.796148,-0.078414,0.765552,-0.232228,0.705537,-0.377117,0.618408,-0.507515,0.507515,-0.618408,0.377117,-0.705537,0.232228,-0.765552,0.078414,-0.796148,0.000000,-0.796148,0.000000,-0.800000,-0.600000,-0.800000,
-0.603843,-0.796157,-0.639018,-0.796157,-0.711114,-0.766294,-0.766294,-0.711114,-0.796157,-0.639018,-0.796157,-0.603843,-0.800000,-0.600000,-0.800000,0.600000,-0.796157,0.603843,-0.796157,0.639018,-0.766294,0.711114,-0.711114,0.766294,-0.639018,0.796157,-0.603843,0.796157,-0.600000,0.800000,0.000000,0.800000,0.000000,0.796148,0.000000,0.796148,$1*%
G04 Aperture macros list end*
%ADD10R,1.700000X1.700000*%
%ADD11C,1.700000*%
%ADD12RoundRect,0.250000X-0.550000X-0.550000X0.550000X-0.550000X0.550000X0.550000X-0.550000X0.550000X0*%
%ADD13C,1.600000*%
%ADD14RoundRect,0.250000X0.550000X0.550000X-0.550000X0.550000X-0.550000X-0.550000X0.550000X-0.550000X0*%
%ADD15C,2.200000*%
%ADD16C,1.850000*%
%ADD17FreePoly0,180.000000*%
%ADD18RoundRect,0.200000X0.600000X0.600000X-0.600000X0.600000X-0.600000X-0.600000X0.600000X-0.600000X0*%
%ADD19RoundRect,0.800000X0.800000X0.000010X-0.800000X0.000010X-0.800000X-0.000010X0.800000X-0.000010X0*%
%ADD20FreePoly1,180.000000*%
%ADD21FreePoly2,180.000000*%
%ADD22FreePoly3,180.000000*%
G04 APERTURE END LIST*
D10*
%TO.C,H1*%
X20775000Y-93576000D03*
D11*
X18235000Y-93576000D03*
X20775000Y-91036000D03*
X18235000Y-91036000D03*
X20775000Y-88496000D03*
X18235000Y-88496000D03*
X20775000Y-85956000D03*
X18235000Y-85956000D03*
X20775000Y-83416000D03*
X18235000Y-83416000D03*
%TD*%
D12*
%TO.C,C1*%
X13500000Y-63000000D03*
D13*
X16000000Y-63000000D03*
%TD*%
D12*
%TO.C,C3*%
X20500000Y-63000000D03*
D13*
X23000000Y-63000000D03*
%TD*%
D14*
%TO.C,C4*%
X5500000Y-68250000D03*
D13*
X3000000Y-68250000D03*
%TD*%
D10*
%TO.C,J2*%
X7500000Y-85000000D03*
D11*
X4960000Y-85000000D03*
X7500000Y-82460000D03*
X4960000Y-82460000D03*
X7500000Y-79920000D03*
X4960000Y-79920000D03*
X7500000Y-77380000D03*
X4960000Y-77380000D03*
%TD*%
D12*
%TO.C,C5*%
X2947380Y-61250000D03*
D13*
X5447380Y-61250000D03*
%TD*%
D10*
%TO.C,J3*%
X5000000Y-56000000D03*
D11*
X7540000Y-56000000D03*
X10080000Y-56000000D03*
X12620000Y-56000000D03*
X15160000Y-56000000D03*
X17700000Y-56000000D03*
X20240000Y-56000000D03*
X22780000Y-56000000D03*
%TD*%
D15*
%TO.C,A1*%
X15648063Y-2525000D03*
D16*
X15348063Y-5555000D03*
X10498063Y-5555000D03*
D15*
X10198063Y-2525000D03*
D17*
X22613063Y-2395000D03*
D18*
X21813063Y-2395000D03*
D19*
X22613063Y-4935000D03*
D13*
X21813063Y-4935000D03*
D20*
X22613063Y-7475000D03*
D21*
X21813063Y-7475000D03*
D19*
X22613063Y-10015000D03*
D13*
X21813063Y-10015000D03*
D19*
X22613063Y-12555000D03*
D13*
X21813063Y-12555000D03*
D19*
X22613063Y-15095000D03*
D13*
X21813063Y-15095000D03*
D19*
X22613063Y-17635000D03*
D13*
X21813063Y-17635000D03*
D20*
X22613063Y-20175000D03*
D21*
X21813063Y-20175000D03*
D19*
X22613063Y-22715000D03*
D13*
X21813063Y-22715000D03*
D19*
X22613063Y-25255000D03*
D13*
X21813063Y-25255000D03*
D19*
X22613063Y-27795000D03*
D13*
X21813063Y-27795000D03*
D19*
X22613063Y-30335000D03*
D13*
X21813063Y-30335000D03*
D20*
X22613063Y-32875000D03*
D21*
X21813063Y-32875000D03*
D19*
X22613063Y-35415000D03*
D13*
X21813063Y-35415000D03*
D19*
X22613063Y-37955000D03*
D13*
X21813063Y-37955000D03*
D19*
X22613063Y-40495000D03*
D13*
X21813063Y-40495000D03*
D19*
X22613063Y-43035000D03*
D13*
X21813063Y-43035000D03*
D20*
X22613063Y-45575000D03*
D21*
X21813063Y-45575000D03*
D19*
X22613063Y-48115000D03*
D13*
X21813063Y-48115000D03*
D19*
X22613063Y-50655000D03*
D13*
X21813063Y-50655000D03*
X4033063Y-50655000D03*
D19*
X3233063Y-50655000D03*
D13*
X4033063Y-48115000D03*
D19*
X3233063Y-48115000D03*
D22*
X4033063Y-45575000D03*
D17*
X3233063Y-45575000D03*
D13*
X4033063Y-43035000D03*
D19*
X3233063Y-43035000D03*
D13*
X4033063Y-40495000D03*
D19*
X3233063Y-40495000D03*
D13*
X4033063Y-37955000D03*
D19*
X3233063Y-37955000D03*
D13*
X4033063Y-35415000D03*
D19*
X3233063Y-35415000D03*
D22*
X4033063Y-32875000D03*
D17*
X3233063Y-32875000D03*
D13*
X4033063Y-30335000D03*
D19*
X3233063Y-30335000D03*
D13*
X4033063Y-27795000D03*
D19*
X3233063Y-27795000D03*
D13*
X4033063Y-25255000D03*
D19*
X3233063Y-25255000D03*
D13*
X4033063Y-22715000D03*
D19*
X3233063Y-22715000D03*
D22*
X4033063Y-20175000D03*
D17*
X3233063Y-20175000D03*
D13*
X4033063Y-17635000D03*
D19*
X3233063Y-17635000D03*
D13*
X4033063Y-15095000D03*
D19*
X3233063Y-15095000D03*
D13*
X4033063Y-12555000D03*
D19*
X3233063Y-12555000D03*
D13*
X4033063Y-10015000D03*
D19*
X3233063Y-10015000D03*
D22*
X4033063Y-7475000D03*
D17*
X3233063Y-7475000D03*
D13*
X4033063Y-4935000D03*
D19*
X3233063Y-4935000D03*
D13*
X4033063Y-2395000D03*
D19*
X3233063Y-2395000D03*
%TD*%
D10*
%TO.C,J1*%
X2750000Y-97250000D03*
D11*
X5290000Y-97250000D03*
X7830000Y-97250000D03*
X10370000Y-97250000D03*
%TD*%
M02*
