%TF.GenerationSoftware,KiCad,Pcbnew,10.0.6*%
%TF.CreationDate,2026-09-30T20:24:50+02:00*%
%TF.ProjectId,conductor_main,636f6e64-7563-4746-9f72-5f6d61696e2e,rev?*%
%TF.SameCoordinates,Original*%
%TF.FileFunction,Soldermask,Top*%
%TF.FilePolarity,Negative*%
%FSLAX46Y46*%
G04 Gerber Fmt 4.6, Leading zero omitted, Abs format (unit mm)*
G04 Created by KiCad (PCBNEW 10.0.6) date 2026-09-30 20:24:50*
%MOMM*%
%LPD*%
G01*
G04 APERTURE LIST*
G04 Aperture macros list*
%AMRoundRect*
0 Rectangle with rounded corners*
0 $1 Rounding radius*
0 $2 $3 $4 $5 $6 $7 $8 $9 X,Y pos of 4 corners*
0 Add a 4 corners polygon primitive as box body*
4,1,4,$2,$3,$4,$5,$6,$7,$8,$9,$2,$3,0*
0 Add four circle primitives for the rounded corners*
1,1,$1+$1,$2,$3*
1,1,$1+$1,$4,$5*
1,1,$1+$1,$6,$7*
1,1,$1+$1,$8,$9*
0 Add four rect primitives between the rounded corners*
20,1,$1+$1,$2,$3,$4,$5,0*
20,1,$1+$1,$4,$5,$6,$7,0*
20,1,$1+$1,$6,$7,$8,$9,0*
20,1,$1+$1,$8,$9,$2,$3,0*%
%AMFreePoly0*
4,1,37,0.603843,0.796157,0.639018,0.796157,0.711114,0.766294,0.766294,0.711114,0.796157,0.639018,0.796157,0.603843,0.800000,0.600000,0.800000,-0.600000,0.796157,-0.603843,0.796157,-0.639018,0.766294,-0.711114,0.711114,-0.766294,0.639018,-0.796157,0.603843,-0.796157,0.600000,-0.800000,0.000000,-0.800000,0.000000,-0.796148,-0.078414,-0.796148,-0.232228,-0.765552,-0.377117,-0.705537,
-0.507515,-0.618408,-0.618408,-0.507515,-0.705537,-0.377117,-0.765552,-0.232228,-0.796148,-0.078414,-0.796148,0.078414,-0.765552,0.232228,-0.705537,0.377117,-0.618408,0.507515,-0.507515,0.618408,-0.377117,0.705537,-0.232228,0.765552,-0.078414,0.796148,0.000000,0.796148,0.000000,0.800000,0.600000,0.800000,0.603843,0.796157,0.603843,0.796157,$1*%
%AMFreePoly1*
4,1,37,0.000000,0.796148,0.078414,0.796148,0.232228,0.765552,0.377117,0.705537,0.507515,0.618408,0.618408,0.507515,0.705537,0.377117,0.765552,0.232228,0.796148,0.078414,0.796148,-0.078414,0.765552,-0.232228,0.705537,-0.377117,0.618408,-0.507515,0.507515,-0.618408,0.377117,-0.705537,0.232228,-0.765552,0.078414,-0.796148,0.000000,-0.796148,0.000000,-0.800000,-0.600000,-0.800000,
-0.603843,-0.796157,-0.639018,-0.796157,-0.711114,-0.766294,-0.766294,-0.711114,-0.796157,-0.639018,-0.796157,-0.603843,-0.800000,-0.600000,-0.800000,0.600000,-0.796157,0.603843,-0.796157,0.639018,-0.766294,0.711114,-0.711114,0.766294,-0.639018,0.796157,-0.603843,0.796157,-0.600000,0.800000,0.000000,0.800000,0.000000,0.796148,0.000000,0.796148,$1*%
G04 Aperture macros list end*
%ADD10RoundRect,0.375000X-0.375000X0.625000X-0.375000X-0.625000X0.375000X-0.625000X0.375000X0.625000X0*%
%ADD11RoundRect,0.500000X-1.400000X0.500000X-1.400000X-0.500000X1.400000X-0.500000X1.400000X0.500000X0*%
%ADD12R,1.700000X1.700000*%
%ADD13C,1.700000*%
%ADD14RoundRect,0.250000X-0.337500X-0.475000X0.337500X-0.475000X0.337500X0.475000X-0.337500X0.475000X0*%
%ADD15RoundRect,0.250000X-0.550000X-0.550000X0.550000X-0.550000X0.550000X0.550000X-0.550000X0.550000X0*%
%ADD16C,1.600000*%
%ADD17RoundRect,0.225000X-0.375000X0.225000X-0.375000X-0.225000X0.375000X-0.225000X0.375000X0.225000X0*%
%ADD18RoundRect,0.150000X-0.825000X-0.150000X0.825000X-0.150000X0.825000X0.150000X-0.825000X0.150000X0*%
%ADD19RoundRect,0.250000X0.550000X0.550000X-0.550000X0.550000X-0.550000X-0.550000X0.550000X-0.550000X0*%
%ADD20RoundRect,0.225000X0.375000X-0.225000X0.375000X0.225000X-0.375000X0.225000X-0.375000X-0.225000X0*%
%ADD21C,2.200000*%
%ADD22C,1.850000*%
%ADD23RoundRect,0.200000X0.600000X0.600000X-0.600000X0.600000X-0.600000X-0.600000X0.600000X-0.600000X0*%
%ADD24FreePoly0,180.000000*%
%ADD25FreePoly1,180.000000*%
G04 APERTURE END LIST*
D10*
%TO.C,U2*%
X21300000Y-68850000D03*
X19000000Y-68850000D03*
D11*
X19000000Y-75150000D03*
D10*
X16700000Y-68850000D03*
%TD*%
D12*
%TO.C,H1*%
X20775000Y-93576000D03*
D13*
X18235000Y-93576000D03*
X20775000Y-91036000D03*
X18235000Y-91036000D03*
X20775000Y-88496000D03*
X18235000Y-88496000D03*
X20775000Y-85956000D03*
X18235000Y-85956000D03*
X20775000Y-83416000D03*
X18235000Y-83416000D03*
%TD*%
D14*
%TO.C,C2*%
X15117500Y-35500000D03*
X17192500Y-35500000D03*
%TD*%
D15*
%TO.C,C1*%
X13500000Y-63000000D03*
D16*
X16000000Y-63000000D03*
%TD*%
D15*
%TO.C,C3*%
X20500000Y-63000000D03*
D16*
X23000000Y-63000000D03*
%TD*%
D17*
%TO.C,D1*%
X12500000Y-89100000D03*
X12500000Y-92400000D03*
%TD*%
D18*
%TO.C,U1*%
X10525000Y-37690000D03*
X10525000Y-38960000D03*
X10525000Y-40230000D03*
X10525000Y-41500000D03*
X10525000Y-42770000D03*
X10525000Y-44040000D03*
X10525000Y-45310000D03*
X15475000Y-45310000D03*
X15475000Y-44040000D03*
X15475000Y-42770000D03*
X15475000Y-41500000D03*
X15475000Y-40230000D03*
X15475000Y-38960000D03*
X15475000Y-37690000D03*
%TD*%
D19*
%TO.C,C4*%
X5500000Y-68250000D03*
D16*
X3000000Y-68250000D03*
%TD*%
D12*
%TO.C,J2*%
X7500000Y-85000000D03*
D13*
X4960000Y-85000000D03*
X7500000Y-82460000D03*
X4960000Y-82460000D03*
X7500000Y-79920000D03*
X4960000Y-79920000D03*
X7500000Y-77380000D03*
X4960000Y-77380000D03*
%TD*%
D20*
%TO.C,D2*%
X12500000Y-83400000D03*
X12500000Y-80100000D03*
%TD*%
D15*
%TO.C,C5*%
X2947380Y-61250000D03*
D16*
X5447380Y-61250000D03*
%TD*%
D12*
%TO.C,J3*%
X5000000Y-56000000D03*
D13*
X7540000Y-56000000D03*
X10080000Y-56000000D03*
X12620000Y-56000000D03*
X15160000Y-56000000D03*
X17700000Y-56000000D03*
X20240000Y-56000000D03*
X22780000Y-56000000D03*
%TD*%
D21*
%TO.C,A1*%
X15648063Y-2525000D03*
D22*
X15348063Y-5555000D03*
X10498063Y-5555000D03*
D21*
X10198063Y-2525000D03*
D23*
X21813063Y-2395000D03*
D16*
X21813063Y-4935000D03*
D24*
X21813063Y-7475000D03*
D16*
X21813063Y-10015000D03*
X21813063Y-12555000D03*
X21813063Y-15095000D03*
X21813063Y-17635000D03*
D24*
X21813063Y-20175000D03*
D16*
X21813063Y-22715000D03*
X21813063Y-25255000D03*
X21813063Y-27795000D03*
X21813063Y-30335000D03*
D24*
X21813063Y-32875000D03*
D16*
X21813063Y-35415000D03*
X21813063Y-37955000D03*
X21813063Y-40495000D03*
X21813063Y-43035000D03*
D24*
X21813063Y-45575000D03*
D16*
X21813063Y-48115000D03*
X21813063Y-50655000D03*
X4033063Y-50655000D03*
X4033063Y-48115000D03*
D25*
X4033063Y-45575000D03*
D16*
X4033063Y-43035000D03*
X4033063Y-40495000D03*
X4033063Y-37955000D03*
X4033063Y-35415000D03*
D25*
X4033063Y-32875000D03*
D16*
X4033063Y-30335000D03*
X4033063Y-27795000D03*
X4033063Y-25255000D03*
X4033063Y-22715000D03*
D25*
X4033063Y-20175000D03*
D16*
X4033063Y-17635000D03*
X4033063Y-15095000D03*
X4033063Y-12555000D03*
X4033063Y-10015000D03*
D25*
X4033063Y-7475000D03*
D16*
X4033063Y-4935000D03*
X4033063Y-2395000D03*
%TD*%
D12*
%TO.C,J1*%
X2750000Y-97250000D03*
D13*
X5290000Y-97250000D03*
X7830000Y-97250000D03*
X10370000Y-97250000D03*
%TD*%
M02*
