M48
; DRILL file KiCad 10.0.6 date 2026-09-30T20:24:52
; FORMAT={-:-/ absolute / metric / decimal}
; #@! TF.CreationDate,2026-09-30T20:24:52+02:00
; #@! TF.GenerationSoftware,Kicad,Pcbnew,10.0.6
; #@! TF.FileFunction,Plated,1,2,PTH
FMAT,2
METRIC
; #@! TA.AperFunction,Plated,PTH,ViaDrill
T1C0.300
; #@! TA.AperFunction,Plated,PTH,ComponentDrill
T2C0.800
; #@! TA.AperFunction,Plated,PTH,ComponentDrill
T3C1.000
%
G90
G05
T1
X8.5Y-40.0
X9.0Y-37.5
X10.5Y-46.5
X14.0Y-40.0
X17.5Y-33.5
T2
X2.947Y-61.25
X3.0Y-68.25
X5.447Y-61.25
X5.5Y-68.25
X13.5Y-63.0
X16.0Y-63.0
X20.5Y-63.0
X23.0Y-63.0
T3
X2.75Y-97.25
X4.033Y-2.395
X4.033Y-4.935
X4.033Y-7.475
X4.033Y-10.015
X4.033Y-12.555
X4.033Y-15.095
X4.033Y-17.635
X4.033Y-20.175
X4.033Y-22.715
X4.033Y-25.255
X4.033Y-27.795
X4.033Y-30.335
X4.033Y-32.875
X4.033Y-35.415
X4.033Y-37.955
X4.033Y-40.495
X4.033Y-43.035
X4.033Y-45.575
X4.033Y-48.115
X4.033Y-50.655
X4.96Y-77.38
X4.96Y-79.92
X4.96Y-82.46
X4.96Y-85.0
X5.0Y-56.0
X5.29Y-97.25
X7.5Y-77.38
X7.5Y-79.92
X7.5Y-82.46
X7.5Y-85.0
X7.54Y-56.0
X7.83Y-97.25
X10.08Y-56.0
X10.37Y-97.25
X12.62Y-56.0
X15.16Y-56.0
X17.7Y-56.0
X18.235Y-83.416
X18.235Y-85.956
X18.235Y-88.496
X18.235Y-91.036
X18.235Y-93.576
X20.24Y-56.0
X20.775Y-83.416
X20.775Y-85.956
X20.775Y-88.496
X20.775Y-91.036
X20.775Y-93.576
X21.813Y-2.395
X21.813Y-4.935
X21.813Y-7.475
X21.813Y-10.015
X21.813Y-12.555
X21.813Y-15.095
X21.813Y-17.635
X21.813Y-20.175
X21.813Y-22.715
X21.813Y-25.255
X21.813Y-27.795
X21.813Y-30.335
X21.813Y-32.875
X21.813Y-35.415
X21.813Y-37.955
X21.813Y-40.495
X21.813Y-43.035
X21.813Y-45.575
X21.813Y-48.115
X21.813Y-50.655
X22.78Y-56.0
M30
