%TF.GenerationSoftware,KiCad,Pcbnew,10.0.6*%
%TF.CreationDate,2026-09-30T20:24:50+02:00*%
%TF.ProjectId,conductor_main,636f6e64-7563-4746-9f72-5f6d61696e2e,rev?*%
%TF.SameCoordinates,Original*%
%TF.FileFunction,Legend,Top*%
%TF.FilePolarity,Positive*%
%FSLAX46Y46*%
G04 Gerber Fmt 4.6, Leading zero omitted, Abs format (unit mm)*
G04 Created by KiCad (PCBNEW 10.0.6) date 2026-09-30 20:24:50*
%MOMM*%
%LPD*%
G01*
G04 APERTURE LIST*
%ADD10C,0.150000*%
%ADD11C,0.100000*%
%ADD12C,0.120000*%
G04 APERTURE END LIST*
D10*
X18288095Y-77054819D02*
X18288095Y-77864342D01*
X18288095Y-77864342D02*
X18335714Y-77959580D01*
X18335714Y-77959580D02*
X18383333Y-78007200D01*
X18383333Y-78007200D02*
X18478571Y-78054819D01*
X18478571Y-78054819D02*
X18669047Y-78054819D01*
X18669047Y-78054819D02*
X18764285Y-78007200D01*
X18764285Y-78007200D02*
X18811904Y-77959580D01*
X18811904Y-77959580D02*
X18859523Y-77864342D01*
X18859523Y-77864342D02*
X18859523Y-77054819D01*
X19288095Y-77150057D02*
X19335714Y-77102438D01*
X19335714Y-77102438D02*
X19430952Y-77054819D01*
X19430952Y-77054819D02*
X19669047Y-77054819D01*
X19669047Y-77054819D02*
X19764285Y-77102438D01*
X19764285Y-77102438D02*
X19811904Y-77150057D01*
X19811904Y-77150057D02*
X19859523Y-77245295D01*
X19859523Y-77245295D02*
X19859523Y-77340533D01*
X19859523Y-77340533D02*
X19811904Y-77483390D01*
X19811904Y-77483390D02*
X19240476Y-78054819D01*
X19240476Y-78054819D02*
X19859523Y-78054819D01*
X18743095Y-96410819D02*
X18743095Y-95410819D01*
X18743095Y-95887009D02*
X19314523Y-95887009D01*
X19314523Y-96410819D02*
X19314523Y-95410819D01*
X20314523Y-96410819D02*
X19743095Y-96410819D01*
X20028809Y-96410819D02*
X20028809Y-95410819D01*
X20028809Y-95410819D02*
X19933571Y-95553676D01*
X19933571Y-95553676D02*
X19838333Y-95648914D01*
X19838333Y-95648914D02*
X19743095Y-95696533D01*
D11*
X15145115Y-77328533D02*
X14383211Y-77328533D01*
X15645115Y-99291533D02*
X14883211Y-99291533D01*
X15264163Y-98910580D02*
X15264163Y-99672485D01*
D10*
X15988333Y-34179580D02*
X15940714Y-34227200D01*
X15940714Y-34227200D02*
X15797857Y-34274819D01*
X15797857Y-34274819D02*
X15702619Y-34274819D01*
X15702619Y-34274819D02*
X15559762Y-34227200D01*
X15559762Y-34227200D02*
X15464524Y-34131961D01*
X15464524Y-34131961D02*
X15416905Y-34036723D01*
X15416905Y-34036723D02*
X15369286Y-33846247D01*
X15369286Y-33846247D02*
X15369286Y-33703390D01*
X15369286Y-33703390D02*
X15416905Y-33512914D01*
X15416905Y-33512914D02*
X15464524Y-33417676D01*
X15464524Y-33417676D02*
X15559762Y-33322438D01*
X15559762Y-33322438D02*
X15702619Y-33274819D01*
X15702619Y-33274819D02*
X15797857Y-33274819D01*
X15797857Y-33274819D02*
X15940714Y-33322438D01*
X15940714Y-33322438D02*
X15988333Y-33370057D01*
X16369286Y-33370057D02*
X16416905Y-33322438D01*
X16416905Y-33322438D02*
X16512143Y-33274819D01*
X16512143Y-33274819D02*
X16750238Y-33274819D01*
X16750238Y-33274819D02*
X16845476Y-33322438D01*
X16845476Y-33322438D02*
X16893095Y-33370057D01*
X16893095Y-33370057D02*
X16940714Y-33465295D01*
X16940714Y-33465295D02*
X16940714Y-33560533D01*
X16940714Y-33560533D02*
X16893095Y-33703390D01*
X16893095Y-33703390D02*
X16321667Y-34274819D01*
X16321667Y-34274819D02*
X16940714Y-34274819D01*
X12615713Y-59359580D02*
X12568094Y-59407200D01*
X12568094Y-59407200D02*
X12425237Y-59454819D01*
X12425237Y-59454819D02*
X12329999Y-59454819D01*
X12329999Y-59454819D02*
X12187142Y-59407200D01*
X12187142Y-59407200D02*
X12091904Y-59311961D01*
X12091904Y-59311961D02*
X12044285Y-59216723D01*
X12044285Y-59216723D02*
X11996666Y-59026247D01*
X11996666Y-59026247D02*
X11996666Y-58883390D01*
X11996666Y-58883390D02*
X12044285Y-58692914D01*
X12044285Y-58692914D02*
X12091904Y-58597676D01*
X12091904Y-58597676D02*
X12187142Y-58502438D01*
X12187142Y-58502438D02*
X12329999Y-58454819D01*
X12329999Y-58454819D02*
X12425237Y-58454819D01*
X12425237Y-58454819D02*
X12568094Y-58502438D01*
X12568094Y-58502438D02*
X12615713Y-58550057D01*
X13568094Y-59454819D02*
X12996666Y-59454819D01*
X13282380Y-59454819D02*
X13282380Y-58454819D01*
X13282380Y-58454819D02*
X13187142Y-58597676D01*
X13187142Y-58597676D02*
X13091904Y-58692914D01*
X13091904Y-58692914D02*
X12996666Y-58740533D01*
X21583333Y-59109580D02*
X21535714Y-59157200D01*
X21535714Y-59157200D02*
X21392857Y-59204819D01*
X21392857Y-59204819D02*
X21297619Y-59204819D01*
X21297619Y-59204819D02*
X21154762Y-59157200D01*
X21154762Y-59157200D02*
X21059524Y-59061961D01*
X21059524Y-59061961D02*
X21011905Y-58966723D01*
X21011905Y-58966723D02*
X20964286Y-58776247D01*
X20964286Y-58776247D02*
X20964286Y-58633390D01*
X20964286Y-58633390D02*
X21011905Y-58442914D01*
X21011905Y-58442914D02*
X21059524Y-58347676D01*
X21059524Y-58347676D02*
X21154762Y-58252438D01*
X21154762Y-58252438D02*
X21297619Y-58204819D01*
X21297619Y-58204819D02*
X21392857Y-58204819D01*
X21392857Y-58204819D02*
X21535714Y-58252438D01*
X21535714Y-58252438D02*
X21583333Y-58300057D01*
X21916667Y-58204819D02*
X22535714Y-58204819D01*
X22535714Y-58204819D02*
X22202381Y-58585771D01*
X22202381Y-58585771D02*
X22345238Y-58585771D01*
X22345238Y-58585771D02*
X22440476Y-58633390D01*
X22440476Y-58633390D02*
X22488095Y-58681009D01*
X22488095Y-58681009D02*
X22535714Y-58776247D01*
X22535714Y-58776247D02*
X22535714Y-59014342D01*
X22535714Y-59014342D02*
X22488095Y-59109580D01*
X22488095Y-59109580D02*
X22440476Y-59157200D01*
X22440476Y-59157200D02*
X22345238Y-59204819D01*
X22345238Y-59204819D02*
X22059524Y-59204819D01*
X22059524Y-59204819D02*
X21964286Y-59157200D01*
X21964286Y-59157200D02*
X21916667Y-59109580D01*
X12954819Y-94988094D02*
X11954819Y-94988094D01*
X11954819Y-94988094D02*
X11954819Y-94749999D01*
X11954819Y-94749999D02*
X12002438Y-94607142D01*
X12002438Y-94607142D02*
X12097676Y-94511904D01*
X12097676Y-94511904D02*
X12192914Y-94464285D01*
X12192914Y-94464285D02*
X12383390Y-94416666D01*
X12383390Y-94416666D02*
X12526247Y-94416666D01*
X12526247Y-94416666D02*
X12716723Y-94464285D01*
X12716723Y-94464285D02*
X12811961Y-94511904D01*
X12811961Y-94511904D02*
X12907200Y-94607142D01*
X12907200Y-94607142D02*
X12954819Y-94749999D01*
X12954819Y-94749999D02*
X12954819Y-94988094D01*
X12954819Y-93464285D02*
X12954819Y-94035713D01*
X12954819Y-93749999D02*
X11954819Y-93749999D01*
X11954819Y-93749999D02*
X12097676Y-93845237D01*
X12097676Y-93845237D02*
X12192914Y-93940475D01*
X12192914Y-93940475D02*
X12240533Y-94035713D01*
X12238095Y-35674819D02*
X12238095Y-36484342D01*
X12238095Y-36484342D02*
X12285714Y-36579580D01*
X12285714Y-36579580D02*
X12333333Y-36627200D01*
X12333333Y-36627200D02*
X12428571Y-36674819D01*
X12428571Y-36674819D02*
X12619047Y-36674819D01*
X12619047Y-36674819D02*
X12714285Y-36627200D01*
X12714285Y-36627200D02*
X12761904Y-36579580D01*
X12761904Y-36579580D02*
X12809523Y-36484342D01*
X12809523Y-36484342D02*
X12809523Y-35674819D01*
X13809523Y-36674819D02*
X13238095Y-36674819D01*
X13523809Y-36674819D02*
X13523809Y-35674819D01*
X13523809Y-35674819D02*
X13428571Y-35817676D01*
X13428571Y-35817676D02*
X13333333Y-35912914D01*
X13333333Y-35912914D02*
X13238095Y-35960533D01*
X1150954Y-65109580D02*
X1103335Y-65157200D01*
X1103335Y-65157200D02*
X960478Y-65204819D01*
X960478Y-65204819D02*
X865240Y-65204819D01*
X865240Y-65204819D02*
X722383Y-65157200D01*
X722383Y-65157200D02*
X627145Y-65061961D01*
X627145Y-65061961D02*
X579526Y-64966723D01*
X579526Y-64966723D02*
X531907Y-64776247D01*
X531907Y-64776247D02*
X531907Y-64633390D01*
X531907Y-64633390D02*
X579526Y-64442914D01*
X579526Y-64442914D02*
X627145Y-64347676D01*
X627145Y-64347676D02*
X722383Y-64252438D01*
X722383Y-64252438D02*
X865240Y-64204819D01*
X865240Y-64204819D02*
X960478Y-64204819D01*
X960478Y-64204819D02*
X1103335Y-64252438D01*
X1103335Y-64252438D02*
X1150954Y-64300057D01*
X2008097Y-64538152D02*
X2008097Y-65204819D01*
X1770002Y-64157200D02*
X1531907Y-64871485D01*
X1531907Y-64871485D02*
X2150954Y-64871485D01*
X5896666Y-86834819D02*
X5896666Y-87549104D01*
X5896666Y-87549104D02*
X5849047Y-87691961D01*
X5849047Y-87691961D02*
X5753809Y-87787200D01*
X5753809Y-87787200D02*
X5610952Y-87834819D01*
X5610952Y-87834819D02*
X5515714Y-87834819D01*
X6325238Y-86930057D02*
X6372857Y-86882438D01*
X6372857Y-86882438D02*
X6468095Y-86834819D01*
X6468095Y-86834819D02*
X6706190Y-86834819D01*
X6706190Y-86834819D02*
X6801428Y-86882438D01*
X6801428Y-86882438D02*
X6849047Y-86930057D01*
X6849047Y-86930057D02*
X6896666Y-87025295D01*
X6896666Y-87025295D02*
X6896666Y-87120533D01*
X6896666Y-87120533D02*
X6849047Y-87263390D01*
X6849047Y-87263390D02*
X6277619Y-87834819D01*
X6277619Y-87834819D02*
X6896666Y-87834819D01*
D11*
X2370115Y-90715533D02*
X1608211Y-90715533D01*
X1989163Y-90334580D02*
X1989163Y-91096485D01*
D10*
X12954819Y-85988094D02*
X11954819Y-85988094D01*
X11954819Y-85988094D02*
X11954819Y-85749999D01*
X11954819Y-85749999D02*
X12002438Y-85607142D01*
X12002438Y-85607142D02*
X12097676Y-85511904D01*
X12097676Y-85511904D02*
X12192914Y-85464285D01*
X12192914Y-85464285D02*
X12383390Y-85416666D01*
X12383390Y-85416666D02*
X12526247Y-85416666D01*
X12526247Y-85416666D02*
X12716723Y-85464285D01*
X12716723Y-85464285D02*
X12811961Y-85511904D01*
X12811961Y-85511904D02*
X12907200Y-85607142D01*
X12907200Y-85607142D02*
X12954819Y-85749999D01*
X12954819Y-85749999D02*
X12954819Y-85988094D01*
X12050057Y-85035713D02*
X12002438Y-84988094D01*
X12002438Y-84988094D02*
X11954819Y-84892856D01*
X11954819Y-84892856D02*
X11954819Y-84654761D01*
X11954819Y-84654761D02*
X12002438Y-84559523D01*
X12002438Y-84559523D02*
X12050057Y-84511904D01*
X12050057Y-84511904D02*
X12145295Y-84464285D01*
X12145295Y-84464285D02*
X12240533Y-84464285D01*
X12240533Y-84464285D02*
X12383390Y-84511904D01*
X12383390Y-84511904D02*
X12954819Y-85083332D01*
X12954819Y-85083332D02*
X12954819Y-84464285D01*
X6780713Y-65109580D02*
X6733094Y-65157200D01*
X6733094Y-65157200D02*
X6590237Y-65204819D01*
X6590237Y-65204819D02*
X6494999Y-65204819D01*
X6494999Y-65204819D02*
X6352142Y-65157200D01*
X6352142Y-65157200D02*
X6256904Y-65061961D01*
X6256904Y-65061961D02*
X6209285Y-64966723D01*
X6209285Y-64966723D02*
X6161666Y-64776247D01*
X6161666Y-64776247D02*
X6161666Y-64633390D01*
X6161666Y-64633390D02*
X6209285Y-64442914D01*
X6209285Y-64442914D02*
X6256904Y-64347676D01*
X6256904Y-64347676D02*
X6352142Y-64252438D01*
X6352142Y-64252438D02*
X6494999Y-64204819D01*
X6494999Y-64204819D02*
X6590237Y-64204819D01*
X6590237Y-64204819D02*
X6733094Y-64252438D01*
X6733094Y-64252438D02*
X6780713Y-64300057D01*
X7685475Y-64204819D02*
X7209285Y-64204819D01*
X7209285Y-64204819D02*
X7161666Y-64681009D01*
X7161666Y-64681009D02*
X7209285Y-64633390D01*
X7209285Y-64633390D02*
X7304523Y-64585771D01*
X7304523Y-64585771D02*
X7542618Y-64585771D01*
X7542618Y-64585771D02*
X7637856Y-64633390D01*
X7637856Y-64633390D02*
X7685475Y-64681009D01*
X7685475Y-64681009D02*
X7733094Y-64776247D01*
X7733094Y-64776247D02*
X7733094Y-65014342D01*
X7733094Y-65014342D02*
X7685475Y-65109580D01*
X7685475Y-65109580D02*
X7637856Y-65157200D01*
X7637856Y-65157200D02*
X7542618Y-65204819D01*
X7542618Y-65204819D02*
X7304523Y-65204819D01*
X7304523Y-65204819D02*
X7209285Y-65157200D01*
X7209285Y-65157200D02*
X7161666Y-65109580D01*
%TO.C,U2*%
D12*
X15590000Y-70150000D02*
X15590000Y-73910000D01*
X15590000Y-73910000D02*
X16850000Y-73910000D01*
X22410000Y-70150000D02*
X22410000Y-73910000D01*
X22410000Y-73910000D02*
X21150000Y-73910000D01*
X22310000Y-68870000D02*
X22640000Y-68630000D01*
X22640000Y-69110000D01*
X22310000Y-68870000D01*
G36*
X22640000Y-69110000D02*
G01*
X22310000Y-68870000D01*
X22640000Y-68630000D01*
X22640000Y-69110000D01*
G37*
%TO.C,H1*%
D11*
X14777690Y-78510615D02*
X14777690Y-86845000D01*
X14777690Y-78510615D02*
X24211737Y-78510615D01*
X14777690Y-98475567D02*
X14777690Y-90147000D01*
D12*
X16855000Y-94956000D02*
X16855000Y-82036000D01*
X19505000Y-92306000D02*
X19505000Y-94956000D01*
X19505000Y-94956000D02*
X16855000Y-94956000D01*
X22155000Y-82036000D02*
X16855000Y-82036000D01*
X22155000Y-92306000D02*
X19505000Y-92306000D01*
X22155000Y-92306000D02*
X22155000Y-82036000D01*
X22155000Y-93576000D02*
X22155000Y-94956000D01*
X22155000Y-94956000D02*
X20775000Y-94956000D01*
D11*
X24211737Y-78510615D02*
X24211737Y-98475567D01*
X24211737Y-98475567D02*
X14777690Y-98475567D01*
%TO.C,C2*%
D12*
X15893748Y-34765000D02*
X16416252Y-34765000D01*
X15893748Y-36235000D02*
X16416252Y-36235000D01*
%TO.C,C1*%
X11249759Y-61161000D02*
X11879759Y-61161000D01*
X11564759Y-60846000D02*
X11564759Y-61476000D01*
X14750000Y-59770000D02*
X14750000Y-66230000D01*
X14790000Y-59770000D02*
X14790000Y-66230000D01*
X14830000Y-59771000D02*
X14830000Y-66229000D01*
X14870000Y-59772000D02*
X14870000Y-66228000D01*
X14910000Y-59774000D02*
X14910000Y-66226000D01*
X14950000Y-59776000D02*
X14950000Y-66224000D01*
X14990000Y-59779000D02*
X14990000Y-61960000D01*
X14990000Y-64040000D02*
X14990000Y-66221000D01*
X15030000Y-59782000D02*
X15030000Y-61960000D01*
X15030000Y-64040000D02*
X15030000Y-66218000D01*
X15070000Y-59786000D02*
X15070000Y-61960000D01*
X15070000Y-64040000D02*
X15070000Y-66214000D01*
X15110000Y-59790000D02*
X15110000Y-61960000D01*
X15110000Y-64040000D02*
X15110000Y-66210000D01*
X15150000Y-59795000D02*
X15150000Y-61960000D01*
X15150000Y-64040000D02*
X15150000Y-66205000D01*
X15190000Y-59800000D02*
X15190000Y-61960000D01*
X15190000Y-64040000D02*
X15190000Y-66200000D01*
X15230000Y-59805000D02*
X15230000Y-61960000D01*
X15230000Y-64040000D02*
X15230000Y-66195000D01*
X15270000Y-59812000D02*
X15270000Y-61960000D01*
X15270000Y-64040000D02*
X15270000Y-66188000D01*
X15310000Y-59818000D02*
X15310000Y-61960000D01*
X15310000Y-64040000D02*
X15310000Y-66182000D01*
X15350000Y-59826000D02*
X15350000Y-61960000D01*
X15350000Y-64040000D02*
X15350000Y-66174000D01*
X15390000Y-59833000D02*
X15390000Y-61960000D01*
X15390000Y-64040000D02*
X15390000Y-66167000D01*
X15430000Y-59841000D02*
X15430000Y-61960000D01*
X15430000Y-64040000D02*
X15430000Y-66159000D01*
X15470000Y-59850000D02*
X15470000Y-61960000D01*
X15470000Y-64040000D02*
X15470000Y-66150000D01*
X15510000Y-59860000D02*
X15510000Y-61960000D01*
X15510000Y-64040000D02*
X15510000Y-66140000D01*
X15550000Y-59869000D02*
X15550000Y-61960000D01*
X15550000Y-64040000D02*
X15550000Y-66131000D01*
X15590000Y-59880000D02*
X15590000Y-61960000D01*
X15590000Y-64040000D02*
X15590000Y-66120000D01*
X15630000Y-59891000D02*
X15630000Y-61960000D01*
X15630000Y-64040000D02*
X15630000Y-66109000D01*
X15670000Y-59902000D02*
X15670000Y-61960000D01*
X15670000Y-64040000D02*
X15670000Y-66098000D01*
X15710000Y-59914000D02*
X15710000Y-61960000D01*
X15710000Y-64040000D02*
X15710000Y-66086000D01*
X15750000Y-59927000D02*
X15750000Y-61960000D01*
X15750000Y-64040000D02*
X15750000Y-66073000D01*
X15790000Y-59940000D02*
X15790000Y-61960000D01*
X15790000Y-64040000D02*
X15790000Y-66060000D01*
X15830000Y-59953000D02*
X15830000Y-61960000D01*
X15830000Y-64040000D02*
X15830000Y-66047000D01*
X15870000Y-59968000D02*
X15870000Y-61960000D01*
X15870000Y-64040000D02*
X15870000Y-66032000D01*
X15910000Y-59983000D02*
X15910000Y-61960000D01*
X15910000Y-64040000D02*
X15910000Y-66017000D01*
X15950000Y-59998000D02*
X15950000Y-61960000D01*
X15950000Y-64040000D02*
X15950000Y-66002000D01*
X15990000Y-60014000D02*
X15990000Y-61960000D01*
X15990000Y-64040000D02*
X15990000Y-65986000D01*
X16030000Y-60031000D02*
X16030000Y-61960000D01*
X16030000Y-64040000D02*
X16030000Y-65969000D01*
X16070000Y-60048000D02*
X16070000Y-61960000D01*
X16070000Y-64040000D02*
X16070000Y-65952000D01*
X16110000Y-60066000D02*
X16110000Y-61960000D01*
X16110000Y-64040000D02*
X16110000Y-65934000D01*
X16150000Y-60085000D02*
X16150000Y-61960000D01*
X16150000Y-64040000D02*
X16150000Y-65915000D01*
X16190000Y-60104000D02*
X16190000Y-61960000D01*
X16190000Y-64040000D02*
X16190000Y-65896000D01*
X16230000Y-60124000D02*
X16230000Y-61960000D01*
X16230000Y-64040000D02*
X16230000Y-65876000D01*
X16270000Y-60145000D02*
X16270000Y-61960000D01*
X16270000Y-64040000D02*
X16270000Y-65855000D01*
X16310000Y-60166000D02*
X16310000Y-61960000D01*
X16310000Y-64040000D02*
X16310000Y-65834000D01*
X16350000Y-60188000D02*
X16350000Y-61960000D01*
X16350000Y-64040000D02*
X16350000Y-65812000D01*
X16390000Y-60211000D02*
X16390000Y-61960000D01*
X16390000Y-64040000D02*
X16390000Y-65789000D01*
X16430000Y-60235000D02*
X16430000Y-61960000D01*
X16430000Y-64040000D02*
X16430000Y-65765000D01*
X16470000Y-60259000D02*
X16470000Y-61960000D01*
X16470000Y-64040000D02*
X16470000Y-65741000D01*
X16510000Y-60284000D02*
X16510000Y-61960000D01*
X16510000Y-64040000D02*
X16510000Y-65716000D01*
X16550000Y-60310000D02*
X16550000Y-61960000D01*
X16550000Y-64040000D02*
X16550000Y-65690000D01*
X16590000Y-60337000D02*
X16590000Y-61960000D01*
X16590000Y-64040000D02*
X16590000Y-65663000D01*
X16630000Y-60364000D02*
X16630000Y-61960000D01*
X16630000Y-64040000D02*
X16630000Y-65636000D01*
X16670000Y-60393000D02*
X16670000Y-61960000D01*
X16670000Y-64040000D02*
X16670000Y-65607000D01*
X16710000Y-60423000D02*
X16710000Y-61960000D01*
X16710000Y-64040000D02*
X16710000Y-65577000D01*
X16750000Y-60453000D02*
X16750000Y-61960000D01*
X16750000Y-64040000D02*
X16750000Y-65547000D01*
X16790000Y-60484000D02*
X16790000Y-61960000D01*
X16790000Y-64040000D02*
X16790000Y-65516000D01*
X16830000Y-60517000D02*
X16830000Y-61960000D01*
X16830000Y-64040000D02*
X16830000Y-65483000D01*
X16870000Y-60550000D02*
X16870000Y-61960000D01*
X16870000Y-64040000D02*
X16870000Y-65450000D01*
X16910000Y-60585000D02*
X16910000Y-61960000D01*
X16910000Y-64040000D02*
X16910000Y-65415000D01*
X16950000Y-60621000D02*
X16950000Y-61960000D01*
X16950000Y-64040000D02*
X16950000Y-65379000D01*
X16990000Y-60658000D02*
X16990000Y-61960000D01*
X16990000Y-64040000D02*
X16990000Y-65342000D01*
X17030000Y-60696000D02*
X17030000Y-61960000D01*
X17030000Y-64040000D02*
X17030000Y-65304000D01*
X17070000Y-60736000D02*
X17070000Y-65264000D01*
X17110000Y-60777000D02*
X17110000Y-65223000D01*
X17150000Y-60819000D02*
X17150000Y-65181000D01*
X17190000Y-60863000D02*
X17190000Y-65137000D01*
X17230000Y-60909000D02*
X17230000Y-65091000D01*
X17270000Y-60956000D02*
X17270000Y-65044000D01*
X17310000Y-61005000D02*
X17310000Y-64995000D01*
X17350000Y-61057000D02*
X17350000Y-64943000D01*
X17390000Y-61110000D02*
X17390000Y-64890000D01*
X17430000Y-61166000D02*
X17430000Y-64834000D01*
X17470000Y-61225000D02*
X17470000Y-64775000D01*
X17510000Y-61286000D02*
X17510000Y-64714000D01*
X17550000Y-61351000D02*
X17550000Y-64649000D01*
X17590000Y-61419000D02*
X17590000Y-64581000D01*
X17630000Y-61491000D02*
X17630000Y-64509000D01*
X17670000Y-61568000D02*
X17670000Y-64432000D01*
X17710000Y-61650000D02*
X17710000Y-64350000D01*
X17750000Y-61739000D02*
X17750000Y-64261000D01*
X17790000Y-61835000D02*
X17790000Y-64165000D01*
X17830000Y-61942000D02*
X17830000Y-64058000D01*
X17870000Y-62061000D02*
X17870000Y-63939000D01*
X17910000Y-62199000D02*
X17910000Y-63801000D01*
X17950000Y-62367000D02*
X17950000Y-63633000D01*
X17990000Y-62598000D02*
X17990000Y-63402000D01*
X18020000Y-63000000D02*
G75*
G02*
X11480000Y-63000000I-3270000J0D01*
G01*
X11480000Y-63000000D02*
G75*
G02*
X18020000Y-63000000I3270000J0D01*
G01*
%TO.C,C3*%
X18249759Y-61161000D02*
X18879759Y-61161000D01*
X18564759Y-60846000D02*
X18564759Y-61476000D01*
X21750000Y-59770000D02*
X21750000Y-66230000D01*
X21790000Y-59770000D02*
X21790000Y-66230000D01*
X21830000Y-59771000D02*
X21830000Y-66229000D01*
X21870000Y-59772000D02*
X21870000Y-66228000D01*
X21910000Y-59774000D02*
X21910000Y-66226000D01*
X21950000Y-59776000D02*
X21950000Y-66224000D01*
X21990000Y-59779000D02*
X21990000Y-61960000D01*
X21990000Y-64040000D02*
X21990000Y-66221000D01*
X22030000Y-59782000D02*
X22030000Y-61960000D01*
X22030000Y-64040000D02*
X22030000Y-66218000D01*
X22070000Y-59786000D02*
X22070000Y-61960000D01*
X22070000Y-64040000D02*
X22070000Y-66214000D01*
X22110000Y-59790000D02*
X22110000Y-61960000D01*
X22110000Y-64040000D02*
X22110000Y-66210000D01*
X22150000Y-59795000D02*
X22150000Y-61960000D01*
X22150000Y-64040000D02*
X22150000Y-66205000D01*
X22190000Y-59800000D02*
X22190000Y-61960000D01*
X22190000Y-64040000D02*
X22190000Y-66200000D01*
X22230000Y-59805000D02*
X22230000Y-61960000D01*
X22230000Y-64040000D02*
X22230000Y-66195000D01*
X22270000Y-59812000D02*
X22270000Y-61960000D01*
X22270000Y-64040000D02*
X22270000Y-66188000D01*
X22310000Y-59818000D02*
X22310000Y-61960000D01*
X22310000Y-64040000D02*
X22310000Y-66182000D01*
X22350000Y-59826000D02*
X22350000Y-61960000D01*
X22350000Y-64040000D02*
X22350000Y-66174000D01*
X22390000Y-59833000D02*
X22390000Y-61960000D01*
X22390000Y-64040000D02*
X22390000Y-66167000D01*
X22430000Y-59841000D02*
X22430000Y-61960000D01*
X22430000Y-64040000D02*
X22430000Y-66159000D01*
X22470000Y-59850000D02*
X22470000Y-61960000D01*
X22470000Y-64040000D02*
X22470000Y-66150000D01*
X22510000Y-59860000D02*
X22510000Y-61960000D01*
X22510000Y-64040000D02*
X22510000Y-66140000D01*
X22550000Y-59869000D02*
X22550000Y-61960000D01*
X22550000Y-64040000D02*
X22550000Y-66131000D01*
X22590000Y-59880000D02*
X22590000Y-61960000D01*
X22590000Y-64040000D02*
X22590000Y-66120000D01*
X22630000Y-59891000D02*
X22630000Y-61960000D01*
X22630000Y-64040000D02*
X22630000Y-66109000D01*
X22670000Y-59902000D02*
X22670000Y-61960000D01*
X22670000Y-64040000D02*
X22670000Y-66098000D01*
X22710000Y-59914000D02*
X22710000Y-61960000D01*
X22710000Y-64040000D02*
X22710000Y-66086000D01*
X22750000Y-59927000D02*
X22750000Y-61960000D01*
X22750000Y-64040000D02*
X22750000Y-66073000D01*
X22790000Y-59940000D02*
X22790000Y-61960000D01*
X22790000Y-64040000D02*
X22790000Y-66060000D01*
X22830000Y-59953000D02*
X22830000Y-61960000D01*
X22830000Y-64040000D02*
X22830000Y-66047000D01*
X22870000Y-59968000D02*
X22870000Y-61960000D01*
X22870000Y-64040000D02*
X22870000Y-66032000D01*
X22910000Y-59983000D02*
X22910000Y-61960000D01*
X22910000Y-64040000D02*
X22910000Y-66017000D01*
X22950000Y-59998000D02*
X22950000Y-61960000D01*
X22950000Y-64040000D02*
X22950000Y-66002000D01*
X22990000Y-60014000D02*
X22990000Y-61960000D01*
X22990000Y-64040000D02*
X22990000Y-65986000D01*
X23030000Y-60031000D02*
X23030000Y-61960000D01*
X23030000Y-64040000D02*
X23030000Y-65969000D01*
X23070000Y-60048000D02*
X23070000Y-61960000D01*
X23070000Y-64040000D02*
X23070000Y-65952000D01*
X23110000Y-60066000D02*
X23110000Y-61960000D01*
X23110000Y-64040000D02*
X23110000Y-65934000D01*
X23150000Y-60085000D02*
X23150000Y-61960000D01*
X23150000Y-64040000D02*
X23150000Y-65915000D01*
X23190000Y-60104000D02*
X23190000Y-61960000D01*
X23190000Y-64040000D02*
X23190000Y-65896000D01*
X23230000Y-60124000D02*
X23230000Y-61960000D01*
X23230000Y-64040000D02*
X23230000Y-65876000D01*
X23270000Y-60145000D02*
X23270000Y-61960000D01*
X23270000Y-64040000D02*
X23270000Y-65855000D01*
X23310000Y-60166000D02*
X23310000Y-61960000D01*
X23310000Y-64040000D02*
X23310000Y-65834000D01*
X23350000Y-60188000D02*
X23350000Y-61960000D01*
X23350000Y-64040000D02*
X23350000Y-65812000D01*
X23390000Y-60211000D02*
X23390000Y-61960000D01*
X23390000Y-64040000D02*
X23390000Y-65789000D01*
X23430000Y-60235000D02*
X23430000Y-61960000D01*
X23430000Y-64040000D02*
X23430000Y-65765000D01*
X23470000Y-60259000D02*
X23470000Y-61960000D01*
X23470000Y-64040000D02*
X23470000Y-65741000D01*
X23510000Y-60284000D02*
X23510000Y-61960000D01*
X23510000Y-64040000D02*
X23510000Y-65716000D01*
X23550000Y-60310000D02*
X23550000Y-61960000D01*
X23550000Y-64040000D02*
X23550000Y-65690000D01*
X23590000Y-60337000D02*
X23590000Y-61960000D01*
X23590000Y-64040000D02*
X23590000Y-65663000D01*
X23630000Y-60364000D02*
X23630000Y-61960000D01*
X23630000Y-64040000D02*
X23630000Y-65636000D01*
X23670000Y-60393000D02*
X23670000Y-61960000D01*
X23670000Y-64040000D02*
X23670000Y-65607000D01*
X23710000Y-60423000D02*
X23710000Y-61960000D01*
X23710000Y-64040000D02*
X23710000Y-65577000D01*
X23750000Y-60453000D02*
X23750000Y-61960000D01*
X23750000Y-64040000D02*
X23750000Y-65547000D01*
X23790000Y-60484000D02*
X23790000Y-61960000D01*
X23790000Y-64040000D02*
X23790000Y-65516000D01*
X23830000Y-60517000D02*
X23830000Y-61960000D01*
X23830000Y-64040000D02*
X23830000Y-65483000D01*
X23870000Y-60550000D02*
X23870000Y-61960000D01*
X23870000Y-64040000D02*
X23870000Y-65450000D01*
X23910000Y-60585000D02*
X23910000Y-61960000D01*
X23910000Y-64040000D02*
X23910000Y-65415000D01*
X23950000Y-60621000D02*
X23950000Y-61960000D01*
X23950000Y-64040000D02*
X23950000Y-65379000D01*
X23990000Y-60658000D02*
X23990000Y-61960000D01*
X23990000Y-64040000D02*
X23990000Y-65342000D01*
X24030000Y-60696000D02*
X24030000Y-61960000D01*
X24030000Y-64040000D02*
X24030000Y-65304000D01*
X24070000Y-60736000D02*
X24070000Y-65264000D01*
X24110000Y-60777000D02*
X24110000Y-65223000D01*
X24150000Y-60819000D02*
X24150000Y-65181000D01*
X24190000Y-60863000D02*
X24190000Y-65137000D01*
X24230000Y-60909000D02*
X24230000Y-65091000D01*
X24270000Y-60956000D02*
X24270000Y-65044000D01*
X24310000Y-61005000D02*
X24310000Y-64995000D01*
X24350000Y-61057000D02*
X24350000Y-64943000D01*
X24390000Y-61110000D02*
X24390000Y-64890000D01*
X24430000Y-61166000D02*
X24430000Y-64834000D01*
X24470000Y-61225000D02*
X24470000Y-64775000D01*
X24510000Y-61286000D02*
X24510000Y-64714000D01*
X24550000Y-61351000D02*
X24550000Y-64649000D01*
X24590000Y-61419000D02*
X24590000Y-64581000D01*
X24630000Y-61491000D02*
X24630000Y-64509000D01*
X24670000Y-61568000D02*
X24670000Y-64432000D01*
X24710000Y-61650000D02*
X24710000Y-64350000D01*
X24750000Y-61739000D02*
X24750000Y-64261000D01*
X24790000Y-61835000D02*
X24790000Y-64165000D01*
X24830000Y-61942000D02*
X24830000Y-64058000D01*
X24870000Y-62061000D02*
X24870000Y-63939000D01*
X24910000Y-62199000D02*
X24910000Y-63801000D01*
X24950000Y-62367000D02*
X24950000Y-63633000D01*
X24990000Y-62598000D02*
X24990000Y-63402000D01*
X25020000Y-63000000D02*
G75*
G02*
X18480000Y-63000000I-3270000J0D01*
G01*
X18480000Y-63000000D02*
G75*
G02*
X25020000Y-63000000I3270000J0D01*
G01*
%TO.C,D1*%
X11500000Y-88390000D02*
X11500000Y-92400000D01*
X13500000Y-88390000D02*
X11500000Y-88390000D01*
X13500000Y-88390000D02*
X13500000Y-92400000D01*
%TO.C,U1*%
X10940000Y-37065000D02*
X15060000Y-37065000D01*
X10940000Y-37130000D02*
X10940000Y-37065000D01*
X10940000Y-45935000D02*
X10940000Y-45870000D01*
X15060000Y-37065000D02*
X15060000Y-37130000D01*
X15060000Y-45870000D02*
X15060000Y-45935000D01*
X15060000Y-45935000D02*
X10940000Y-45935000D01*
X10400000Y-37130000D02*
X10160000Y-36800000D01*
X10640000Y-36800000D01*
X10400000Y-37130000D01*
G36*
X10400000Y-37130000D02*
G01*
X10160000Y-36800000D01*
X10640000Y-36800000D01*
X10400000Y-37130000D01*
G37*
%TO.C,C4*%
X1010000Y-68652000D02*
X1010000Y-67848000D01*
X1050000Y-68883000D02*
X1050000Y-67617000D01*
X1090000Y-69051000D02*
X1090000Y-67449000D01*
X1130000Y-69189000D02*
X1130000Y-67311000D01*
X1170000Y-69308000D02*
X1170000Y-67192000D01*
X1210000Y-69415000D02*
X1210000Y-67085000D01*
X1250000Y-69511000D02*
X1250000Y-66989000D01*
X1290000Y-69600000D02*
X1290000Y-66900000D01*
X1330000Y-69682000D02*
X1330000Y-66818000D01*
X1370000Y-69759000D02*
X1370000Y-66741000D01*
X1410000Y-69831000D02*
X1410000Y-66669000D01*
X1450000Y-69899000D02*
X1450000Y-66601000D01*
X1490000Y-69964000D02*
X1490000Y-66536000D01*
X1530000Y-70025000D02*
X1530000Y-66475000D01*
X1570000Y-70084000D02*
X1570000Y-66416000D01*
X1610000Y-70140000D02*
X1610000Y-66360000D01*
X1650000Y-70193000D02*
X1650000Y-66307000D01*
X1690000Y-70245000D02*
X1690000Y-66255000D01*
X1730000Y-70294000D02*
X1730000Y-66206000D01*
X1770000Y-70341000D02*
X1770000Y-66159000D01*
X1810000Y-70387000D02*
X1810000Y-66113000D01*
X1850000Y-70431000D02*
X1850000Y-66069000D01*
X1890000Y-70473000D02*
X1890000Y-66027000D01*
X1930000Y-70514000D02*
X1930000Y-65986000D01*
X1970000Y-67210000D02*
X1970000Y-65946000D01*
X1970000Y-70554000D02*
X1970000Y-69290000D01*
X2010000Y-67210000D02*
X2010000Y-65908000D01*
X2010000Y-70592000D02*
X2010000Y-69290000D01*
X2050000Y-67210000D02*
X2050000Y-65871000D01*
X2050000Y-70629000D02*
X2050000Y-69290000D01*
X2090000Y-67210000D02*
X2090000Y-65835000D01*
X2090000Y-70665000D02*
X2090000Y-69290000D01*
X2130000Y-67210000D02*
X2130000Y-65800000D01*
X2130000Y-70700000D02*
X2130000Y-69290000D01*
X2170000Y-67210000D02*
X2170000Y-65767000D01*
X2170000Y-70733000D02*
X2170000Y-69290000D01*
X2210000Y-67210000D02*
X2210000Y-65734000D01*
X2210000Y-70766000D02*
X2210000Y-69290000D01*
X2250000Y-67210000D02*
X2250000Y-65703000D01*
X2250000Y-70797000D02*
X2250000Y-69290000D01*
X2290000Y-67210000D02*
X2290000Y-65673000D01*
X2290000Y-70827000D02*
X2290000Y-69290000D01*
X2330000Y-67210000D02*
X2330000Y-65643000D01*
X2330000Y-70857000D02*
X2330000Y-69290000D01*
X2370000Y-67210000D02*
X2370000Y-65614000D01*
X2370000Y-70886000D02*
X2370000Y-69290000D01*
X2410000Y-67210000D02*
X2410000Y-65587000D01*
X2410000Y-70913000D02*
X2410000Y-69290000D01*
X2450000Y-67210000D02*
X2450000Y-65560000D01*
X2450000Y-70940000D02*
X2450000Y-69290000D01*
X2490000Y-67210000D02*
X2490000Y-65534000D01*
X2490000Y-70966000D02*
X2490000Y-69290000D01*
X2530000Y-67210000D02*
X2530000Y-65509000D01*
X2530000Y-70991000D02*
X2530000Y-69290000D01*
X2570000Y-67210000D02*
X2570000Y-65485000D01*
X2570000Y-71015000D02*
X2570000Y-69290000D01*
X2610000Y-67210000D02*
X2610000Y-65461000D01*
X2610000Y-71039000D02*
X2610000Y-69290000D01*
X2650000Y-67210000D02*
X2650000Y-65438000D01*
X2650000Y-71062000D02*
X2650000Y-69290000D01*
X2690000Y-67210000D02*
X2690000Y-65416000D01*
X2690000Y-71084000D02*
X2690000Y-69290000D01*
X2730000Y-67210000D02*
X2730000Y-65395000D01*
X2730000Y-71105000D02*
X2730000Y-69290000D01*
X2770000Y-67210000D02*
X2770000Y-65374000D01*
X2770000Y-71126000D02*
X2770000Y-69290000D01*
X2810000Y-67210000D02*
X2810000Y-65354000D01*
X2810000Y-71146000D02*
X2810000Y-69290000D01*
X2850000Y-67210000D02*
X2850000Y-65335000D01*
X2850000Y-71165000D02*
X2850000Y-69290000D01*
X2890000Y-67210000D02*
X2890000Y-65316000D01*
X2890000Y-71184000D02*
X2890000Y-69290000D01*
X2930000Y-67210000D02*
X2930000Y-65298000D01*
X2930000Y-71202000D02*
X2930000Y-69290000D01*
X2970000Y-67210000D02*
X2970000Y-65281000D01*
X2970000Y-71219000D02*
X2970000Y-69290000D01*
X3010000Y-67210000D02*
X3010000Y-65264000D01*
X3010000Y-71236000D02*
X3010000Y-69290000D01*
X3050000Y-67210000D02*
X3050000Y-65248000D01*
X3050000Y-71252000D02*
X3050000Y-69290000D01*
X3090000Y-67210000D02*
X3090000Y-65233000D01*
X3090000Y-71267000D02*
X3090000Y-69290000D01*
X3130000Y-67210000D02*
X3130000Y-65218000D01*
X3130000Y-71282000D02*
X3130000Y-69290000D01*
X3170000Y-67210000D02*
X3170000Y-65203000D01*
X3170000Y-71297000D02*
X3170000Y-69290000D01*
X3210000Y-67210000D02*
X3210000Y-65190000D01*
X3210000Y-71310000D02*
X3210000Y-69290000D01*
X3250000Y-67210000D02*
X3250000Y-65177000D01*
X3250000Y-71323000D02*
X3250000Y-69290000D01*
X3290000Y-67210000D02*
X3290000Y-65164000D01*
X3290000Y-71336000D02*
X3290000Y-69290000D01*
X3330000Y-67210000D02*
X3330000Y-65152000D01*
X3330000Y-71348000D02*
X3330000Y-69290000D01*
X3370000Y-67210000D02*
X3370000Y-65141000D01*
X3370000Y-71359000D02*
X3370000Y-69290000D01*
X3410000Y-67210000D02*
X3410000Y-65130000D01*
X3410000Y-71370000D02*
X3410000Y-69290000D01*
X3450000Y-67210000D02*
X3450000Y-65119000D01*
X3450000Y-71381000D02*
X3450000Y-69290000D01*
X3490000Y-67210000D02*
X3490000Y-65110000D01*
X3490000Y-71390000D02*
X3490000Y-69290000D01*
X3530000Y-67210000D02*
X3530000Y-65100000D01*
X3530000Y-71400000D02*
X3530000Y-69290000D01*
X3570000Y-67210000D02*
X3570000Y-65091000D01*
X3570000Y-71409000D02*
X3570000Y-69290000D01*
X3610000Y-67210000D02*
X3610000Y-65083000D01*
X3610000Y-71417000D02*
X3610000Y-69290000D01*
X3650000Y-67210000D02*
X3650000Y-65076000D01*
X3650000Y-71424000D02*
X3650000Y-69290000D01*
X3690000Y-67210000D02*
X3690000Y-65068000D01*
X3690000Y-71432000D02*
X3690000Y-69290000D01*
X3730000Y-67210000D02*
X3730000Y-65062000D01*
X3730000Y-71438000D02*
X3730000Y-69290000D01*
X3770000Y-67210000D02*
X3770000Y-65055000D01*
X3770000Y-71445000D02*
X3770000Y-69290000D01*
X3810000Y-67210000D02*
X3810000Y-65050000D01*
X3810000Y-71450000D02*
X3810000Y-69290000D01*
X3850000Y-67210000D02*
X3850000Y-65045000D01*
X3850000Y-71455000D02*
X3850000Y-69290000D01*
X3890000Y-67210000D02*
X3890000Y-65040000D01*
X3890000Y-71460000D02*
X3890000Y-69290000D01*
X3930000Y-67210000D02*
X3930000Y-65036000D01*
X3930000Y-71464000D02*
X3930000Y-69290000D01*
X3970000Y-67210000D02*
X3970000Y-65032000D01*
X3970000Y-71468000D02*
X3970000Y-69290000D01*
X4010000Y-67210000D02*
X4010000Y-65029000D01*
X4010000Y-71471000D02*
X4010000Y-69290000D01*
X4050000Y-71474000D02*
X4050000Y-65026000D01*
X4090000Y-71476000D02*
X4090000Y-65024000D01*
X4130000Y-71478000D02*
X4130000Y-65022000D01*
X4170000Y-71479000D02*
X4170000Y-65021000D01*
X4210000Y-71480000D02*
X4210000Y-65020000D01*
X4250000Y-71480000D02*
X4250000Y-65020000D01*
X7435241Y-70404000D02*
X7435241Y-69774000D01*
X7750241Y-70089000D02*
X7120241Y-70089000D01*
X7520000Y-68250000D02*
G75*
G02*
X980000Y-68250000I-3270000J0D01*
G01*
X980000Y-68250000D02*
G75*
G02*
X7520000Y-68250000I3270000J0D01*
G01*
%TO.C,J2*%
D11*
X1502690Y-72474615D02*
X1502690Y-79539000D01*
X1502690Y-72474615D02*
X10936737Y-72474615D01*
X1502690Y-89899567D02*
X1502690Y-82841000D01*
D12*
X3580000Y-86380000D02*
X3580000Y-76000000D01*
X6230000Y-83730000D02*
X6230000Y-86380000D01*
X6230000Y-86380000D02*
X3580000Y-86380000D01*
X8880000Y-76000000D02*
X3580000Y-76000000D01*
X8880000Y-83730000D02*
X6230000Y-83730000D01*
X8880000Y-83730000D02*
X8880000Y-76000000D01*
X8880000Y-85000000D02*
X8880000Y-86380000D01*
X8880000Y-86380000D02*
X7500000Y-86380000D01*
D11*
X10936737Y-72474615D02*
X10936737Y-89899567D01*
X10936737Y-89899567D02*
X1502690Y-89899567D01*
%TO.C,D2*%
D12*
X11500000Y-84110000D02*
X11500000Y-80100000D01*
X11500000Y-84110000D02*
X13500000Y-84110000D01*
X13500000Y-84110000D02*
X13500000Y-80100000D01*
%TO.C,C5*%
X697139Y-59411000D02*
X1327139Y-59411000D01*
X1012139Y-59096000D02*
X1012139Y-59726000D01*
X4197380Y-58020000D02*
X4197380Y-64480000D01*
X4237380Y-58020000D02*
X4237380Y-64480000D01*
X4277380Y-58021000D02*
X4277380Y-64479000D01*
X4317380Y-58022000D02*
X4317380Y-64478000D01*
X4357380Y-58024000D02*
X4357380Y-64476000D01*
X4397380Y-58026000D02*
X4397380Y-64474000D01*
X4437380Y-58029000D02*
X4437380Y-60210000D01*
X4437380Y-62290000D02*
X4437380Y-64471000D01*
X4477380Y-58032000D02*
X4477380Y-60210000D01*
X4477380Y-62290000D02*
X4477380Y-64468000D01*
X4517380Y-58036000D02*
X4517380Y-60210000D01*
X4517380Y-62290000D02*
X4517380Y-64464000D01*
X4557380Y-58040000D02*
X4557380Y-60210000D01*
X4557380Y-62290000D02*
X4557380Y-64460000D01*
X4597380Y-58045000D02*
X4597380Y-60210000D01*
X4597380Y-62290000D02*
X4597380Y-64455000D01*
X4637380Y-58050000D02*
X4637380Y-60210000D01*
X4637380Y-62290000D02*
X4637380Y-64450000D01*
X4677380Y-58055000D02*
X4677380Y-60210000D01*
X4677380Y-62290000D02*
X4677380Y-64445000D01*
X4717380Y-58062000D02*
X4717380Y-60210000D01*
X4717380Y-62290000D02*
X4717380Y-64438000D01*
X4757380Y-58068000D02*
X4757380Y-60210000D01*
X4757380Y-62290000D02*
X4757380Y-64432000D01*
X4797380Y-58076000D02*
X4797380Y-60210000D01*
X4797380Y-62290000D02*
X4797380Y-64424000D01*
X4837380Y-58083000D02*
X4837380Y-60210000D01*
X4837380Y-62290000D02*
X4837380Y-64417000D01*
X4877380Y-58091000D02*
X4877380Y-60210000D01*
X4877380Y-62290000D02*
X4877380Y-64409000D01*
X4917380Y-58100000D02*
X4917380Y-60210000D01*
X4917380Y-62290000D02*
X4917380Y-64400000D01*
X4957380Y-58110000D02*
X4957380Y-60210000D01*
X4957380Y-62290000D02*
X4957380Y-64390000D01*
X4997380Y-58119000D02*
X4997380Y-60210000D01*
X4997380Y-62290000D02*
X4997380Y-64381000D01*
X5037380Y-58130000D02*
X5037380Y-60210000D01*
X5037380Y-62290000D02*
X5037380Y-64370000D01*
X5077380Y-58141000D02*
X5077380Y-60210000D01*
X5077380Y-62290000D02*
X5077380Y-64359000D01*
X5117380Y-58152000D02*
X5117380Y-60210000D01*
X5117380Y-62290000D02*
X5117380Y-64348000D01*
X5157380Y-58164000D02*
X5157380Y-60210000D01*
X5157380Y-62290000D02*
X5157380Y-64336000D01*
X5197380Y-58177000D02*
X5197380Y-60210000D01*
X5197380Y-62290000D02*
X5197380Y-64323000D01*
X5237380Y-58190000D02*
X5237380Y-60210000D01*
X5237380Y-62290000D02*
X5237380Y-64310000D01*
X5277380Y-58203000D02*
X5277380Y-60210000D01*
X5277380Y-62290000D02*
X5277380Y-64297000D01*
X5317380Y-58218000D02*
X5317380Y-60210000D01*
X5317380Y-62290000D02*
X5317380Y-64282000D01*
X5357380Y-58233000D02*
X5357380Y-60210000D01*
X5357380Y-62290000D02*
X5357380Y-64267000D01*
X5397380Y-58248000D02*
X5397380Y-60210000D01*
X5397380Y-62290000D02*
X5397380Y-64252000D01*
X5437380Y-58264000D02*
X5437380Y-60210000D01*
X5437380Y-62290000D02*
X5437380Y-64236000D01*
X5477380Y-58281000D02*
X5477380Y-60210000D01*
X5477380Y-62290000D02*
X5477380Y-64219000D01*
X5517380Y-58298000D02*
X5517380Y-60210000D01*
X5517380Y-62290000D02*
X5517380Y-64202000D01*
X5557380Y-58316000D02*
X5557380Y-60210000D01*
X5557380Y-62290000D02*
X5557380Y-64184000D01*
X5597380Y-58335000D02*
X5597380Y-60210000D01*
X5597380Y-62290000D02*
X5597380Y-64165000D01*
X5637380Y-58354000D02*
X5637380Y-60210000D01*
X5637380Y-62290000D02*
X5637380Y-64146000D01*
X5677380Y-58374000D02*
X5677380Y-60210000D01*
X5677380Y-62290000D02*
X5677380Y-64126000D01*
X5717380Y-58395000D02*
X5717380Y-60210000D01*
X5717380Y-62290000D02*
X5717380Y-64105000D01*
X5757380Y-58416000D02*
X5757380Y-60210000D01*
X5757380Y-62290000D02*
X5757380Y-64084000D01*
X5797380Y-58438000D02*
X5797380Y-60210000D01*
X5797380Y-62290000D02*
X5797380Y-64062000D01*
X5837380Y-58461000D02*
X5837380Y-60210000D01*
X5837380Y-62290000D02*
X5837380Y-64039000D01*
X5877380Y-58485000D02*
X5877380Y-60210000D01*
X5877380Y-62290000D02*
X5877380Y-64015000D01*
X5917380Y-58509000D02*
X5917380Y-60210000D01*
X5917380Y-62290000D02*
X5917380Y-63991000D01*
X5957380Y-58534000D02*
X5957380Y-60210000D01*
X5957380Y-62290000D02*
X5957380Y-63966000D01*
X5997380Y-58560000D02*
X5997380Y-60210000D01*
X5997380Y-62290000D02*
X5997380Y-63940000D01*
X6037380Y-58587000D02*
X6037380Y-60210000D01*
X6037380Y-62290000D02*
X6037380Y-63913000D01*
X6077380Y-58614000D02*
X6077380Y-60210000D01*
X6077380Y-62290000D02*
X6077380Y-63886000D01*
X6117380Y-58643000D02*
X6117380Y-60210000D01*
X6117380Y-62290000D02*
X6117380Y-63857000D01*
X6157380Y-58673000D02*
X6157380Y-60210000D01*
X6157380Y-62290000D02*
X6157380Y-63827000D01*
X6197380Y-58703000D02*
X6197380Y-60210000D01*
X6197380Y-62290000D02*
X6197380Y-63797000D01*
X6237380Y-58734000D02*
X6237380Y-60210000D01*
X6237380Y-62290000D02*
X6237380Y-63766000D01*
X6277380Y-58767000D02*
X6277380Y-60210000D01*
X6277380Y-62290000D02*
X6277380Y-63733000D01*
X6317380Y-58800000D02*
X6317380Y-60210000D01*
X6317380Y-62290000D02*
X6317380Y-63700000D01*
X6357380Y-58835000D02*
X6357380Y-60210000D01*
X6357380Y-62290000D02*
X6357380Y-63665000D01*
X6397380Y-58871000D02*
X6397380Y-60210000D01*
X6397380Y-62290000D02*
X6397380Y-63629000D01*
X6437380Y-58908000D02*
X6437380Y-60210000D01*
X6437380Y-62290000D02*
X6437380Y-63592000D01*
X6477380Y-58946000D02*
X6477380Y-60210000D01*
X6477380Y-62290000D02*
X6477380Y-63554000D01*
X6517380Y-58986000D02*
X6517380Y-63514000D01*
X6557380Y-59027000D02*
X6557380Y-63473000D01*
X6597380Y-59069000D02*
X6597380Y-63431000D01*
X6637380Y-59113000D02*
X6637380Y-63387000D01*
X6677380Y-59159000D02*
X6677380Y-63341000D01*
X6717380Y-59206000D02*
X6717380Y-63294000D01*
X6757380Y-59255000D02*
X6757380Y-63245000D01*
X6797380Y-59307000D02*
X6797380Y-63193000D01*
X6837380Y-59360000D02*
X6837380Y-63140000D01*
X6877380Y-59416000D02*
X6877380Y-63084000D01*
X6917380Y-59475000D02*
X6917380Y-63025000D01*
X6957380Y-59536000D02*
X6957380Y-62964000D01*
X6997380Y-59601000D02*
X6997380Y-62899000D01*
X7037380Y-59669000D02*
X7037380Y-62831000D01*
X7077380Y-59741000D02*
X7077380Y-62759000D01*
X7117380Y-59818000D02*
X7117380Y-62682000D01*
X7157380Y-59900000D02*
X7157380Y-62600000D01*
X7197380Y-59989000D02*
X7197380Y-62511000D01*
X7237380Y-60085000D02*
X7237380Y-62415000D01*
X7277380Y-60192000D02*
X7277380Y-62308000D01*
X7317380Y-60311000D02*
X7317380Y-62189000D01*
X7357380Y-60449000D02*
X7357380Y-62051000D01*
X7397380Y-60617000D02*
X7397380Y-61883000D01*
X7437380Y-60848000D02*
X7437380Y-61652000D01*
X7467380Y-61250000D02*
G75*
G02*
X927380Y-61250000I-3270000J0D01*
G01*
X927380Y-61250000D02*
G75*
G02*
X7467380Y-61250000I3270000J0D01*
G01*
%TD*%
M02*
