M48
; DRILL file KiCad 10.0.6 date 2026-09-30T20:24:06
; FORMAT={-:-/ absolute / metric / decimal}
; #@! TF.CreationDate,2026-09-30T20:24:06+02:00
; #@! TF.GenerationSoftware,Kicad,Pcbnew,10.0.6
; #@! TF.FileFunction,Plated,1,2,PTH
FMAT,2
METRIC
; #@! TA.AperFunction,Plated,PTH,ViaDrill
T1C0.300
; #@! TA.AperFunction,Plated,PTH,ComponentDrill
T2C0.500
; #@! TA.AperFunction,Plated,PTH,ComponentDrill
T3C0.800
; #@! TA.AperFunction,Plated,PTH,ComponentDrill
T4C0.900
; #@! TA.AperFunction,Plated,PTH,ComponentDrill
T5C1.000
; #@! TA.AperFunction,Plated,PTH,ComponentDrill
T6C1.100
; #@! TA.AperFunction,Plated,PTH,ComponentDrill
T7C1.190
%
G90
G05
T1
X1.25Y-27.0
X1.25Y-64.25
X3.5Y-28.5
X3.75Y-21.75
X6.25Y-22.35
X8.0Y-52.5
X10.25Y-47.5
X11.032Y-4.3
X11.266Y-81.95
X11.5Y-21.595
X11.5Y-56.5
X11.75Y-78.5
X12.75Y-42.5
X14.0Y-45.5
X15.0Y-30.5
X15.0Y-33.25
X15.75Y-25.25
X15.75Y-41.0
X16.5Y-52.5
X16.5Y-57.25
X16.5Y-60.25
X16.75Y-10.3
X17.0Y-59.25
T3
X3.962Y-75.25
X6.462Y-75.25
X12.5Y-75.25
X15.0Y-75.25
T4
X12.5Y-51.25
X15.04Y-51.25
T5
X3.96Y-61.63
X3.96Y-64.17
X3.96Y-66.71
X3.96Y-69.25
X6.5Y-61.63
X6.5Y-64.17
X6.5Y-66.71
X6.5Y-69.25
T6
X3.0Y-48.0
X3.0Y-54.5
X7.5Y-48.0
X7.5Y-54.5
T7
X4.23Y-33.67
X4.23Y-36.21
X4.23Y-38.75
X4.23Y-41.29
X4.23Y-43.83
T2
G00X4.6Y-4.75
M15
G01X4.6Y-6.25
M16
G05
G00X4.6Y-15.75
M15
G01X4.6Y-17.25
M16
G05
G00X4.6Y-82.75
M15
G01X4.6Y-84.25
M16
G05
G00X4.6Y-93.75
M15
G01X4.6Y-95.25
M16
G05
G00X13.1Y-4.75
M15
G01X13.1Y-6.25
M16
G05
G00X13.1Y-15.75
M15
G01X13.1Y-17.25
M16
G05
G00X13.1Y-82.75
M15
G01X13.1Y-84.25
M16
G05
G00X13.1Y-93.75
M15
G01X13.1Y-95.25
M16
G05
G00X15.6Y-4.75
M15
G01X15.6Y-6.25
M16
G05
G00X15.6Y-15.75
M15
G01X15.6Y-17.25
M16
G05
G00X15.6Y-82.75
M15
G01X15.6Y-84.25
M16
G05
G00X15.6Y-93.75
M15
G01X15.6Y-95.25
M16
G05
M30
