%TF.GenerationSoftware,KiCad,Pcbnew,10.0.6*%
%TF.CreationDate,2026-09-30T20:23:51+02:00*%
%TF.ProjectId,player_drum_velocity,706c6179-6572-45f6-9472-756d5f76656c,rev?*%
%TF.SameCoordinates,Original*%
%TF.FileFunction,Legend,Top*%
%TF.FilePolarity,Positive*%
%FSLAX46Y46*%
G04 Gerber Fmt 4.6, Leading zero omitted, Abs format (unit mm)*
G04 Created by KiCad (PCBNEW 10.0.6) date 2026-09-30 20:23:51*
%MOMM*%
%LPD*%
G01*
G04 APERTURE LIST*
%ADD10C,0.150000*%
%ADD11C,0.100000*%
%ADD12C,0.120000*%
G04 APERTURE END LIST*
D10*
X11859580Y-56416666D02*
X11907200Y-56464285D01*
X11907200Y-56464285D02*
X11954819Y-56607142D01*
X11954819Y-56607142D02*
X11954819Y-56702380D01*
X11954819Y-56702380D02*
X11907200Y-56845237D01*
X11907200Y-56845237D02*
X11811961Y-56940475D01*
X11811961Y-56940475D02*
X11716723Y-56988094D01*
X11716723Y-56988094D02*
X11526247Y-57035713D01*
X11526247Y-57035713D02*
X11383390Y-57035713D01*
X11383390Y-57035713D02*
X11192914Y-56988094D01*
X11192914Y-56988094D02*
X11097676Y-56940475D01*
X11097676Y-56940475D02*
X11002438Y-56845237D01*
X11002438Y-56845237D02*
X10954819Y-56702380D01*
X10954819Y-56702380D02*
X10954819Y-56607142D01*
X10954819Y-56607142D02*
X11002438Y-56464285D01*
X11002438Y-56464285D02*
X11050057Y-56416666D01*
X10954819Y-55559523D02*
X10954819Y-55749999D01*
X10954819Y-55749999D02*
X11002438Y-55845237D01*
X11002438Y-55845237D02*
X11050057Y-55892856D01*
X11050057Y-55892856D02*
X11192914Y-55988094D01*
X11192914Y-55988094D02*
X11383390Y-56035713D01*
X11383390Y-56035713D02*
X11764342Y-56035713D01*
X11764342Y-56035713D02*
X11859580Y-55988094D01*
X11859580Y-55988094D02*
X11907200Y-55940475D01*
X11907200Y-55940475D02*
X11954819Y-55845237D01*
X11954819Y-55845237D02*
X11954819Y-55654761D01*
X11954819Y-55654761D02*
X11907200Y-55559523D01*
X11907200Y-55559523D02*
X11859580Y-55511904D01*
X11859580Y-55511904D02*
X11764342Y-55464285D01*
X11764342Y-55464285D02*
X11526247Y-55464285D01*
X11526247Y-55464285D02*
X11431009Y-55511904D01*
X11431009Y-55511904D02*
X11383390Y-55559523D01*
X11383390Y-55559523D02*
X11335771Y-55654761D01*
X11335771Y-55654761D02*
X11335771Y-55845237D01*
X11335771Y-55845237D02*
X11383390Y-55940475D01*
X11383390Y-55940475D02*
X11431009Y-55988094D01*
X11431009Y-55988094D02*
X11526247Y-56035713D01*
X5083333Y-11754819D02*
X4750000Y-11278628D01*
X4511905Y-11754819D02*
X4511905Y-10754819D01*
X4511905Y-10754819D02*
X4892857Y-10754819D01*
X4892857Y-10754819D02*
X4988095Y-10802438D01*
X4988095Y-10802438D02*
X5035714Y-10850057D01*
X5035714Y-10850057D02*
X5083333Y-10945295D01*
X5083333Y-10945295D02*
X5083333Y-11088152D01*
X5083333Y-11088152D02*
X5035714Y-11183390D01*
X5035714Y-11183390D02*
X4988095Y-11231009D01*
X4988095Y-11231009D02*
X4892857Y-11278628D01*
X4892857Y-11278628D02*
X4511905Y-11278628D01*
X5464286Y-10850057D02*
X5511905Y-10802438D01*
X5511905Y-10802438D02*
X5607143Y-10754819D01*
X5607143Y-10754819D02*
X5845238Y-10754819D01*
X5845238Y-10754819D02*
X5940476Y-10802438D01*
X5940476Y-10802438D02*
X5988095Y-10850057D01*
X5988095Y-10850057D02*
X6035714Y-10945295D01*
X6035714Y-10945295D02*
X6035714Y-11040533D01*
X6035714Y-11040533D02*
X5988095Y-11183390D01*
X5988095Y-11183390D02*
X5416667Y-11754819D01*
X5416667Y-11754819D02*
X6035714Y-11754819D01*
X13333333Y-55109580D02*
X13285714Y-55157200D01*
X13285714Y-55157200D02*
X13142857Y-55204819D01*
X13142857Y-55204819D02*
X13047619Y-55204819D01*
X13047619Y-55204819D02*
X12904762Y-55157200D01*
X12904762Y-55157200D02*
X12809524Y-55061961D01*
X12809524Y-55061961D02*
X12761905Y-54966723D01*
X12761905Y-54966723D02*
X12714286Y-54776247D01*
X12714286Y-54776247D02*
X12714286Y-54633390D01*
X12714286Y-54633390D02*
X12761905Y-54442914D01*
X12761905Y-54442914D02*
X12809524Y-54347676D01*
X12809524Y-54347676D02*
X12904762Y-54252438D01*
X12904762Y-54252438D02*
X13047619Y-54204819D01*
X13047619Y-54204819D02*
X13142857Y-54204819D01*
X13142857Y-54204819D02*
X13285714Y-54252438D01*
X13285714Y-54252438D02*
X13333333Y-54300057D01*
X13666667Y-54204819D02*
X14333333Y-54204819D01*
X14333333Y-54204819D02*
X13904762Y-55204819D01*
X7804819Y-37083333D02*
X8519104Y-37083333D01*
X8519104Y-37083333D02*
X8661961Y-37130952D01*
X8661961Y-37130952D02*
X8757200Y-37226190D01*
X8757200Y-37226190D02*
X8804819Y-37369047D01*
X8804819Y-37369047D02*
X8804819Y-37464285D01*
X7900057Y-36654761D02*
X7852438Y-36607142D01*
X7852438Y-36607142D02*
X7804819Y-36511904D01*
X7804819Y-36511904D02*
X7804819Y-36273809D01*
X7804819Y-36273809D02*
X7852438Y-36178571D01*
X7852438Y-36178571D02*
X7900057Y-36130952D01*
X7900057Y-36130952D02*
X7995295Y-36083333D01*
X7995295Y-36083333D02*
X8090533Y-36083333D01*
X8090533Y-36083333D02*
X8233390Y-36130952D01*
X8233390Y-36130952D02*
X8804819Y-36702380D01*
X8804819Y-36702380D02*
X8804819Y-36083333D01*
X8904761Y-9000057D02*
X8809523Y-8952438D01*
X8809523Y-8952438D02*
X8714285Y-8857200D01*
X8714285Y-8857200D02*
X8571428Y-8714342D01*
X8571428Y-8714342D02*
X8476190Y-8666723D01*
X8476190Y-8666723D02*
X8380952Y-8666723D01*
X8428571Y-8904819D02*
X8333333Y-8857200D01*
X8333333Y-8857200D02*
X8238095Y-8761961D01*
X8238095Y-8761961D02*
X8190476Y-8571485D01*
X8190476Y-8571485D02*
X8190476Y-8238152D01*
X8190476Y-8238152D02*
X8238095Y-8047676D01*
X8238095Y-8047676D02*
X8333333Y-7952438D01*
X8333333Y-7952438D02*
X8428571Y-7904819D01*
X8428571Y-7904819D02*
X8619047Y-7904819D01*
X8619047Y-7904819D02*
X8714285Y-7952438D01*
X8714285Y-7952438D02*
X8809523Y-8047676D01*
X8809523Y-8047676D02*
X8857142Y-8238152D01*
X8857142Y-8238152D02*
X8857142Y-8571485D01*
X8857142Y-8571485D02*
X8809523Y-8761961D01*
X8809523Y-8761961D02*
X8714285Y-8857200D01*
X8714285Y-8857200D02*
X8619047Y-8904819D01*
X8619047Y-8904819D02*
X8428571Y-8904819D01*
X9809523Y-8904819D02*
X9238095Y-8904819D01*
X9523809Y-8904819D02*
X9523809Y-7904819D01*
X9523809Y-7904819D02*
X9428571Y-8047676D01*
X9428571Y-8047676D02*
X9333333Y-8142914D01*
X9333333Y-8142914D02*
X9238095Y-8190533D01*
X4896666Y-71084819D02*
X4896666Y-71799104D01*
X4896666Y-71799104D02*
X4849047Y-71941961D01*
X4849047Y-71941961D02*
X4753809Y-72037200D01*
X4753809Y-72037200D02*
X4610952Y-72084819D01*
X4610952Y-72084819D02*
X4515714Y-72084819D01*
X5896666Y-72084819D02*
X5325238Y-72084819D01*
X5610952Y-72084819D02*
X5610952Y-71084819D01*
X5610952Y-71084819D02*
X5515714Y-71227676D01*
X5515714Y-71227676D02*
X5420476Y-71322914D01*
X5420476Y-71322914D02*
X5325238Y-71370533D01*
D11*
X1370115Y-74965533D02*
X608211Y-74965533D01*
X989163Y-74584580D02*
X989163Y-75346485D01*
D10*
X10238095Y-19454819D02*
X10238095Y-20264342D01*
X10238095Y-20264342D02*
X10285714Y-20359580D01*
X10285714Y-20359580D02*
X10333333Y-20407200D01*
X10333333Y-20407200D02*
X10428571Y-20454819D01*
X10428571Y-20454819D02*
X10619047Y-20454819D01*
X10619047Y-20454819D02*
X10714285Y-20407200D01*
X10714285Y-20407200D02*
X10761904Y-20359580D01*
X10761904Y-20359580D02*
X10809523Y-20264342D01*
X10809523Y-20264342D02*
X10809523Y-19454819D01*
X11809523Y-20454819D02*
X11238095Y-20454819D01*
X11523809Y-20454819D02*
X11523809Y-19454819D01*
X11523809Y-19454819D02*
X11428571Y-19597676D01*
X11428571Y-19597676D02*
X11333333Y-19692914D01*
X11333333Y-19692914D02*
X11238095Y-19740533D01*
X2454819Y-14166666D02*
X1978628Y-14499999D01*
X2454819Y-14738094D02*
X1454819Y-14738094D01*
X1454819Y-14738094D02*
X1454819Y-14357142D01*
X1454819Y-14357142D02*
X1502438Y-14261904D01*
X1502438Y-14261904D02*
X1550057Y-14214285D01*
X1550057Y-14214285D02*
X1645295Y-14166666D01*
X1645295Y-14166666D02*
X1788152Y-14166666D01*
X1788152Y-14166666D02*
X1883390Y-14214285D01*
X1883390Y-14214285D02*
X1931009Y-14261904D01*
X1931009Y-14261904D02*
X1978628Y-14357142D01*
X1978628Y-14357142D02*
X1978628Y-14738094D01*
X1454819Y-13833332D02*
X1454819Y-13166666D01*
X1454819Y-13166666D02*
X2454819Y-13595237D01*
X14333333Y-8504819D02*
X14000000Y-8028628D01*
X13761905Y-8504819D02*
X13761905Y-7504819D01*
X13761905Y-7504819D02*
X14142857Y-7504819D01*
X14142857Y-7504819D02*
X14238095Y-7552438D01*
X14238095Y-7552438D02*
X14285714Y-7600057D01*
X14285714Y-7600057D02*
X14333333Y-7695295D01*
X14333333Y-7695295D02*
X14333333Y-7838152D01*
X14333333Y-7838152D02*
X14285714Y-7933390D01*
X14285714Y-7933390D02*
X14238095Y-7981009D01*
X14238095Y-7981009D02*
X14142857Y-8028628D01*
X14142857Y-8028628D02*
X13761905Y-8028628D01*
X15285714Y-8504819D02*
X14714286Y-8504819D01*
X15000000Y-8504819D02*
X15000000Y-7504819D01*
X15000000Y-7504819D02*
X14904762Y-7647676D01*
X14904762Y-7647676D02*
X14809524Y-7742914D01*
X14809524Y-7742914D02*
X14714286Y-7790533D01*
X2454819Y-81366666D02*
X1978628Y-81699999D01*
X2454819Y-81938094D02*
X1454819Y-81938094D01*
X1454819Y-81938094D02*
X1454819Y-81557142D01*
X1454819Y-81557142D02*
X1502438Y-81461904D01*
X1502438Y-81461904D02*
X1550057Y-81414285D01*
X1550057Y-81414285D02*
X1645295Y-81366666D01*
X1645295Y-81366666D02*
X1788152Y-81366666D01*
X1788152Y-81366666D02*
X1883390Y-81414285D01*
X1883390Y-81414285D02*
X1931009Y-81461904D01*
X1931009Y-81461904D02*
X1978628Y-81557142D01*
X1978628Y-81557142D02*
X1978628Y-81938094D01*
X1454819Y-80509523D02*
X1454819Y-80699999D01*
X1454819Y-80699999D02*
X1502438Y-80795237D01*
X1502438Y-80795237D02*
X1550057Y-80842856D01*
X1550057Y-80842856D02*
X1692914Y-80938094D01*
X1692914Y-80938094D02*
X1883390Y-80985713D01*
X1883390Y-80985713D02*
X2264342Y-80985713D01*
X2264342Y-80985713D02*
X2359580Y-80938094D01*
X2359580Y-80938094D02*
X2407200Y-80890475D01*
X2407200Y-80890475D02*
X2454819Y-80795237D01*
X2454819Y-80795237D02*
X2454819Y-80604761D01*
X2454819Y-80604761D02*
X2407200Y-80509523D01*
X2407200Y-80509523D02*
X2359580Y-80461904D01*
X2359580Y-80461904D02*
X2264342Y-80414285D01*
X2264342Y-80414285D02*
X2026247Y-80414285D01*
X2026247Y-80414285D02*
X1931009Y-80461904D01*
X1931009Y-80461904D02*
X1883390Y-80509523D01*
X1883390Y-80509523D02*
X1835771Y-80604761D01*
X1835771Y-80604761D02*
X1835771Y-80795237D01*
X1835771Y-80795237D02*
X1883390Y-80890475D01*
X1883390Y-80890475D02*
X1931009Y-80938094D01*
X1931009Y-80938094D02*
X2026247Y-80985713D01*
X2454819Y-96666666D02*
X1978628Y-96999999D01*
X2454819Y-97238094D02*
X1454819Y-97238094D01*
X1454819Y-97238094D02*
X1454819Y-96857142D01*
X1454819Y-96857142D02*
X1502438Y-96761904D01*
X1502438Y-96761904D02*
X1550057Y-96714285D01*
X1550057Y-96714285D02*
X1645295Y-96666666D01*
X1645295Y-96666666D02*
X1788152Y-96666666D01*
X1788152Y-96666666D02*
X1883390Y-96714285D01*
X1883390Y-96714285D02*
X1931009Y-96761904D01*
X1931009Y-96761904D02*
X1978628Y-96857142D01*
X1978628Y-96857142D02*
X1978628Y-97238094D01*
X1883390Y-96095237D02*
X1835771Y-96190475D01*
X1835771Y-96190475D02*
X1788152Y-96238094D01*
X1788152Y-96238094D02*
X1692914Y-96285713D01*
X1692914Y-96285713D02*
X1645295Y-96285713D01*
X1645295Y-96285713D02*
X1550057Y-96238094D01*
X1550057Y-96238094D02*
X1502438Y-96190475D01*
X1502438Y-96190475D02*
X1454819Y-96095237D01*
X1454819Y-96095237D02*
X1454819Y-95904761D01*
X1454819Y-95904761D02*
X1502438Y-95809523D01*
X1502438Y-95809523D02*
X1550057Y-95761904D01*
X1550057Y-95761904D02*
X1645295Y-95714285D01*
X1645295Y-95714285D02*
X1692914Y-95714285D01*
X1692914Y-95714285D02*
X1788152Y-95761904D01*
X1788152Y-95761904D02*
X1835771Y-95809523D01*
X1835771Y-95809523D02*
X1883390Y-95904761D01*
X1883390Y-95904761D02*
X1883390Y-96095237D01*
X1883390Y-96095237D02*
X1931009Y-96190475D01*
X1931009Y-96190475D02*
X1978628Y-96238094D01*
X1978628Y-96238094D02*
X2073866Y-96285713D01*
X2073866Y-96285713D02*
X2264342Y-96285713D01*
X2264342Y-96285713D02*
X2359580Y-96238094D01*
X2359580Y-96238094D02*
X2407200Y-96190475D01*
X2407200Y-96190475D02*
X2454819Y-96095237D01*
X2454819Y-96095237D02*
X2454819Y-95904761D01*
X2454819Y-95904761D02*
X2407200Y-95809523D01*
X2407200Y-95809523D02*
X2359580Y-95761904D01*
X2359580Y-95761904D02*
X2264342Y-95714285D01*
X2264342Y-95714285D02*
X2073866Y-95714285D01*
X2073866Y-95714285D02*
X1978628Y-95761904D01*
X1978628Y-95761904D02*
X1931009Y-95809523D01*
X1931009Y-95809523D02*
X1883390Y-95904761D01*
X2599333Y-87904819D02*
X2266000Y-87428628D01*
X2027905Y-87904819D02*
X2027905Y-86904819D01*
X2027905Y-86904819D02*
X2408857Y-86904819D01*
X2408857Y-86904819D02*
X2504095Y-86952438D01*
X2504095Y-86952438D02*
X2551714Y-87000057D01*
X2551714Y-87000057D02*
X2599333Y-87095295D01*
X2599333Y-87095295D02*
X2599333Y-87238152D01*
X2599333Y-87238152D02*
X2551714Y-87333390D01*
X2551714Y-87333390D02*
X2504095Y-87381009D01*
X2504095Y-87381009D02*
X2408857Y-87428628D01*
X2408857Y-87428628D02*
X2027905Y-87428628D01*
X3456476Y-87238152D02*
X3456476Y-87904819D01*
X3218381Y-86857200D02*
X2980286Y-87571485D01*
X2980286Y-87571485D02*
X3599333Y-87571485D01*
X8254819Y-43011904D02*
X9064342Y-43011904D01*
X9064342Y-43011904D02*
X9159580Y-42964285D01*
X9159580Y-42964285D02*
X9207200Y-42916666D01*
X9207200Y-42916666D02*
X9254819Y-42821428D01*
X9254819Y-42821428D02*
X9254819Y-42630952D01*
X9254819Y-42630952D02*
X9207200Y-42535714D01*
X9207200Y-42535714D02*
X9159580Y-42488095D01*
X9159580Y-42488095D02*
X9064342Y-42440476D01*
X9064342Y-42440476D02*
X8254819Y-42440476D01*
X8350057Y-42011904D02*
X8302438Y-41964285D01*
X8302438Y-41964285D02*
X8254819Y-41869047D01*
X8254819Y-41869047D02*
X8254819Y-41630952D01*
X8254819Y-41630952D02*
X8302438Y-41535714D01*
X8302438Y-41535714D02*
X8350057Y-41488095D01*
X8350057Y-41488095D02*
X8445295Y-41440476D01*
X8445295Y-41440476D02*
X8540533Y-41440476D01*
X8540533Y-41440476D02*
X8683390Y-41488095D01*
X8683390Y-41488095D02*
X9254819Y-42059523D01*
X9254819Y-42059523D02*
X9254819Y-41440476D01*
X5583333Y-27179580D02*
X5535714Y-27227200D01*
X5535714Y-27227200D02*
X5392857Y-27274819D01*
X5392857Y-27274819D02*
X5297619Y-27274819D01*
X5297619Y-27274819D02*
X5154762Y-27227200D01*
X5154762Y-27227200D02*
X5059524Y-27131961D01*
X5059524Y-27131961D02*
X5011905Y-27036723D01*
X5011905Y-27036723D02*
X4964286Y-26846247D01*
X4964286Y-26846247D02*
X4964286Y-26703390D01*
X4964286Y-26703390D02*
X5011905Y-26512914D01*
X5011905Y-26512914D02*
X5059524Y-26417676D01*
X5059524Y-26417676D02*
X5154762Y-26322438D01*
X5154762Y-26322438D02*
X5297619Y-26274819D01*
X5297619Y-26274819D02*
X5392857Y-26274819D01*
X5392857Y-26274819D02*
X5535714Y-26322438D01*
X5535714Y-26322438D02*
X5583333Y-26370057D01*
X6154762Y-26703390D02*
X6059524Y-26655771D01*
X6059524Y-26655771D02*
X6011905Y-26608152D01*
X6011905Y-26608152D02*
X5964286Y-26512914D01*
X5964286Y-26512914D02*
X5964286Y-26465295D01*
X5964286Y-26465295D02*
X6011905Y-26370057D01*
X6011905Y-26370057D02*
X6059524Y-26322438D01*
X6059524Y-26322438D02*
X6154762Y-26274819D01*
X6154762Y-26274819D02*
X6345238Y-26274819D01*
X6345238Y-26274819D02*
X6440476Y-26322438D01*
X6440476Y-26322438D02*
X6488095Y-26370057D01*
X6488095Y-26370057D02*
X6535714Y-26465295D01*
X6535714Y-26465295D02*
X6535714Y-26512914D01*
X6535714Y-26512914D02*
X6488095Y-26608152D01*
X6488095Y-26608152D02*
X6440476Y-26655771D01*
X6440476Y-26655771D02*
X6345238Y-26703390D01*
X6345238Y-26703390D02*
X6154762Y-26703390D01*
X6154762Y-26703390D02*
X6059524Y-26751009D01*
X6059524Y-26751009D02*
X6011905Y-26798628D01*
X6011905Y-26798628D02*
X5964286Y-26893866D01*
X5964286Y-26893866D02*
X5964286Y-27084342D01*
X5964286Y-27084342D02*
X6011905Y-27179580D01*
X6011905Y-27179580D02*
X6059524Y-27227200D01*
X6059524Y-27227200D02*
X6154762Y-27274819D01*
X6154762Y-27274819D02*
X6345238Y-27274819D01*
X6345238Y-27274819D02*
X6440476Y-27227200D01*
X6440476Y-27227200D02*
X6488095Y-27179580D01*
X6488095Y-27179580D02*
X6535714Y-27084342D01*
X6535714Y-27084342D02*
X6535714Y-26893866D01*
X6535714Y-26893866D02*
X6488095Y-26798628D01*
X6488095Y-26798628D02*
X6440476Y-26751009D01*
X6440476Y-26751009D02*
X6345238Y-26703390D01*
X8904761Y-86650057D02*
X8809523Y-86602438D01*
X8809523Y-86602438D02*
X8714285Y-86507200D01*
X8714285Y-86507200D02*
X8571428Y-86364342D01*
X8571428Y-86364342D02*
X8476190Y-86316723D01*
X8476190Y-86316723D02*
X8380952Y-86316723D01*
X8428571Y-86554819D02*
X8333333Y-86507200D01*
X8333333Y-86507200D02*
X8238095Y-86411961D01*
X8238095Y-86411961D02*
X8190476Y-86221485D01*
X8190476Y-86221485D02*
X8190476Y-85888152D01*
X8190476Y-85888152D02*
X8238095Y-85697676D01*
X8238095Y-85697676D02*
X8333333Y-85602438D01*
X8333333Y-85602438D02*
X8428571Y-85554819D01*
X8428571Y-85554819D02*
X8619047Y-85554819D01*
X8619047Y-85554819D02*
X8714285Y-85602438D01*
X8714285Y-85602438D02*
X8809523Y-85697676D01*
X8809523Y-85697676D02*
X8857142Y-85888152D01*
X8857142Y-85888152D02*
X8857142Y-86221485D01*
X8857142Y-86221485D02*
X8809523Y-86411961D01*
X8809523Y-86411961D02*
X8714285Y-86507200D01*
X8714285Y-86507200D02*
X8619047Y-86554819D01*
X8619047Y-86554819D02*
X8428571Y-86554819D01*
X9238095Y-85650057D02*
X9285714Y-85602438D01*
X9285714Y-85602438D02*
X9380952Y-85554819D01*
X9380952Y-85554819D02*
X9619047Y-85554819D01*
X9619047Y-85554819D02*
X9714285Y-85602438D01*
X9714285Y-85602438D02*
X9761904Y-85650057D01*
X9761904Y-85650057D02*
X9809523Y-85745295D01*
X9809523Y-85745295D02*
X9809523Y-85840533D01*
X9809523Y-85840533D02*
X9761904Y-85983390D01*
X9761904Y-85983390D02*
X9190476Y-86554819D01*
X9190476Y-86554819D02*
X9809523Y-86554819D01*
X13238095Y-70704819D02*
X13238095Y-71514342D01*
X13238095Y-71514342D02*
X13285714Y-71609580D01*
X13285714Y-71609580D02*
X13333333Y-71657200D01*
X13333333Y-71657200D02*
X13428571Y-71704819D01*
X13428571Y-71704819D02*
X13619047Y-71704819D01*
X13619047Y-71704819D02*
X13714285Y-71657200D01*
X13714285Y-71657200D02*
X13761904Y-71609580D01*
X13761904Y-71609580D02*
X13809523Y-71514342D01*
X13809523Y-71514342D02*
X13809523Y-70704819D01*
X14190476Y-70704819D02*
X14809523Y-70704819D01*
X14809523Y-70704819D02*
X14476190Y-71085771D01*
X14476190Y-71085771D02*
X14619047Y-71085771D01*
X14619047Y-71085771D02*
X14714285Y-71133390D01*
X14714285Y-71133390D02*
X14761904Y-71181009D01*
X14761904Y-71181009D02*
X14809523Y-71276247D01*
X14809523Y-71276247D02*
X14809523Y-71514342D01*
X14809523Y-71514342D02*
X14761904Y-71609580D01*
X14761904Y-71609580D02*
X14714285Y-71657200D01*
X14714285Y-71657200D02*
X14619047Y-71704819D01*
X14619047Y-71704819D02*
X14333333Y-71704819D01*
X14333333Y-71704819D02*
X14238095Y-71657200D01*
X14238095Y-71657200D02*
X14190476Y-71609580D01*
X16109580Y-25916666D02*
X16157200Y-25964285D01*
X16157200Y-25964285D02*
X16204819Y-26107142D01*
X16204819Y-26107142D02*
X16204819Y-26202380D01*
X16204819Y-26202380D02*
X16157200Y-26345237D01*
X16157200Y-26345237D02*
X16061961Y-26440475D01*
X16061961Y-26440475D02*
X15966723Y-26488094D01*
X15966723Y-26488094D02*
X15776247Y-26535713D01*
X15776247Y-26535713D02*
X15633390Y-26535713D01*
X15633390Y-26535713D02*
X15442914Y-26488094D01*
X15442914Y-26488094D02*
X15347676Y-26440475D01*
X15347676Y-26440475D02*
X15252438Y-26345237D01*
X15252438Y-26345237D02*
X15204819Y-26202380D01*
X15204819Y-26202380D02*
X15204819Y-26107142D01*
X15204819Y-26107142D02*
X15252438Y-25964285D01*
X15252438Y-25964285D02*
X15300057Y-25916666D01*
X15300057Y-25535713D02*
X15252438Y-25488094D01*
X15252438Y-25488094D02*
X15204819Y-25392856D01*
X15204819Y-25392856D02*
X15204819Y-25154761D01*
X15204819Y-25154761D02*
X15252438Y-25059523D01*
X15252438Y-25059523D02*
X15300057Y-25011904D01*
X15300057Y-25011904D02*
X15395295Y-24964285D01*
X15395295Y-24964285D02*
X15490533Y-24964285D01*
X15490533Y-24964285D02*
X15633390Y-25011904D01*
X15633390Y-25011904D02*
X16204819Y-25583332D01*
X16204819Y-25583332D02*
X16204819Y-24964285D01*
X8833333Y-50054819D02*
X8500000Y-49578628D01*
X8261905Y-50054819D02*
X8261905Y-49054819D01*
X8261905Y-49054819D02*
X8642857Y-49054819D01*
X8642857Y-49054819D02*
X8738095Y-49102438D01*
X8738095Y-49102438D02*
X8785714Y-49150057D01*
X8785714Y-49150057D02*
X8833333Y-49245295D01*
X8833333Y-49245295D02*
X8833333Y-49388152D01*
X8833333Y-49388152D02*
X8785714Y-49483390D01*
X8785714Y-49483390D02*
X8738095Y-49531009D01*
X8738095Y-49531009D02*
X8642857Y-49578628D01*
X8642857Y-49578628D02*
X8261905Y-49578628D01*
X9309524Y-50054819D02*
X9500000Y-50054819D01*
X9500000Y-50054819D02*
X9595238Y-50007200D01*
X9595238Y-50007200D02*
X9642857Y-49959580D01*
X9642857Y-49959580D02*
X9738095Y-49816723D01*
X9738095Y-49816723D02*
X9785714Y-49626247D01*
X9785714Y-49626247D02*
X9785714Y-49245295D01*
X9785714Y-49245295D02*
X9738095Y-49150057D01*
X9738095Y-49150057D02*
X9690476Y-49102438D01*
X9690476Y-49102438D02*
X9595238Y-49054819D01*
X9595238Y-49054819D02*
X9404762Y-49054819D01*
X9404762Y-49054819D02*
X9309524Y-49102438D01*
X9309524Y-49102438D02*
X9261905Y-49150057D01*
X9261905Y-49150057D02*
X9214286Y-49245295D01*
X9214286Y-49245295D02*
X9214286Y-49483390D01*
X9214286Y-49483390D02*
X9261905Y-49578628D01*
X9261905Y-49578628D02*
X9309524Y-49626247D01*
X9309524Y-49626247D02*
X9404762Y-49673866D01*
X9404762Y-49673866D02*
X9595238Y-49673866D01*
X9595238Y-49673866D02*
X9690476Y-49626247D01*
X9690476Y-49626247D02*
X9738095Y-49578628D01*
X9738095Y-49578628D02*
X9785714Y-49483390D01*
X2454819Y-3716666D02*
X1978628Y-4049999D01*
X2454819Y-4288094D02*
X1454819Y-4288094D01*
X1454819Y-4288094D02*
X1454819Y-3907142D01*
X1454819Y-3907142D02*
X1502438Y-3811904D01*
X1502438Y-3811904D02*
X1550057Y-3764285D01*
X1550057Y-3764285D02*
X1645295Y-3716666D01*
X1645295Y-3716666D02*
X1788152Y-3716666D01*
X1788152Y-3716666D02*
X1883390Y-3764285D01*
X1883390Y-3764285D02*
X1931009Y-3811904D01*
X1931009Y-3811904D02*
X1978628Y-3907142D01*
X1978628Y-3907142D02*
X1978628Y-4288094D01*
X1454819Y-2811904D02*
X1454819Y-3288094D01*
X1454819Y-3288094D02*
X1931009Y-3335713D01*
X1931009Y-3335713D02*
X1883390Y-3288094D01*
X1883390Y-3288094D02*
X1835771Y-3192856D01*
X1835771Y-3192856D02*
X1835771Y-2954761D01*
X1835771Y-2954761D02*
X1883390Y-2859523D01*
X1883390Y-2859523D02*
X1931009Y-2811904D01*
X1931009Y-2811904D02*
X2026247Y-2764285D01*
X2026247Y-2764285D02*
X2264342Y-2764285D01*
X2264342Y-2764285D02*
X2359580Y-2811904D01*
X2359580Y-2811904D02*
X2407200Y-2859523D01*
X2407200Y-2859523D02*
X2454819Y-2954761D01*
X2454819Y-2954761D02*
X2454819Y-3192856D01*
X2454819Y-3192856D02*
X2407200Y-3288094D01*
X2407200Y-3288094D02*
X2359580Y-3335713D01*
X16454819Y-60011904D02*
X17264342Y-60011904D01*
X17264342Y-60011904D02*
X17359580Y-59964285D01*
X17359580Y-59964285D02*
X17407200Y-59916666D01*
X17407200Y-59916666D02*
X17454819Y-59821428D01*
X17454819Y-59821428D02*
X17454819Y-59630952D01*
X17454819Y-59630952D02*
X17407200Y-59535714D01*
X17407200Y-59535714D02*
X17359580Y-59488095D01*
X17359580Y-59488095D02*
X17264342Y-59440476D01*
X17264342Y-59440476D02*
X16454819Y-59440476D01*
X16788152Y-58535714D02*
X17454819Y-58535714D01*
X16407200Y-58773809D02*
X17121485Y-59011904D01*
X17121485Y-59011904D02*
X17121485Y-58392857D01*
X4929580Y-24416666D02*
X4977200Y-24464285D01*
X4977200Y-24464285D02*
X5024819Y-24607142D01*
X5024819Y-24607142D02*
X5024819Y-24702380D01*
X5024819Y-24702380D02*
X4977200Y-24845237D01*
X4977200Y-24845237D02*
X4881961Y-24940475D01*
X4881961Y-24940475D02*
X4786723Y-24988094D01*
X4786723Y-24988094D02*
X4596247Y-25035713D01*
X4596247Y-25035713D02*
X4453390Y-25035713D01*
X4453390Y-25035713D02*
X4262914Y-24988094D01*
X4262914Y-24988094D02*
X4167676Y-24940475D01*
X4167676Y-24940475D02*
X4072438Y-24845237D01*
X4072438Y-24845237D02*
X4024819Y-24702380D01*
X4024819Y-24702380D02*
X4024819Y-24607142D01*
X4024819Y-24607142D02*
X4072438Y-24464285D01*
X4072438Y-24464285D02*
X4120057Y-24416666D01*
X5024819Y-23464285D02*
X5024819Y-24035713D01*
X5024819Y-23749999D02*
X4024819Y-23749999D01*
X4024819Y-23749999D02*
X4167676Y-23845237D01*
X4167676Y-23845237D02*
X4262914Y-23940475D01*
X4262914Y-23940475D02*
X4310533Y-24035713D01*
X11738095Y-26904819D02*
X11738095Y-27714342D01*
X11738095Y-27714342D02*
X11785714Y-27809580D01*
X11785714Y-27809580D02*
X11833333Y-27857200D01*
X11833333Y-27857200D02*
X11928571Y-27904819D01*
X11928571Y-27904819D02*
X12119047Y-27904819D01*
X12119047Y-27904819D02*
X12214285Y-27857200D01*
X12214285Y-27857200D02*
X12261904Y-27809580D01*
X12261904Y-27809580D02*
X12309523Y-27714342D01*
X12309523Y-27714342D02*
X12309523Y-26904819D01*
X13261904Y-26904819D02*
X12785714Y-26904819D01*
X12785714Y-26904819D02*
X12738095Y-27381009D01*
X12738095Y-27381009D02*
X12785714Y-27333390D01*
X12785714Y-27333390D02*
X12880952Y-27285771D01*
X12880952Y-27285771D02*
X13119047Y-27285771D01*
X13119047Y-27285771D02*
X13214285Y-27333390D01*
X13214285Y-27333390D02*
X13261904Y-27381009D01*
X13261904Y-27381009D02*
X13309523Y-27476247D01*
X13309523Y-27476247D02*
X13309523Y-27714342D01*
X13309523Y-27714342D02*
X13261904Y-27809580D01*
X13261904Y-27809580D02*
X13214285Y-27857200D01*
X13214285Y-27857200D02*
X13119047Y-27904819D01*
X13119047Y-27904819D02*
X12880952Y-27904819D01*
X12880952Y-27904819D02*
X12785714Y-27857200D01*
X12785714Y-27857200D02*
X12738095Y-27809580D01*
X11599333Y-87904819D02*
X11266000Y-87428628D01*
X11027905Y-87904819D02*
X11027905Y-86904819D01*
X11027905Y-86904819D02*
X11408857Y-86904819D01*
X11408857Y-86904819D02*
X11504095Y-86952438D01*
X11504095Y-86952438D02*
X11551714Y-87000057D01*
X11551714Y-87000057D02*
X11599333Y-87095295D01*
X11599333Y-87095295D02*
X11599333Y-87238152D01*
X11599333Y-87238152D02*
X11551714Y-87333390D01*
X11551714Y-87333390D02*
X11504095Y-87381009D01*
X11504095Y-87381009D02*
X11408857Y-87428628D01*
X11408857Y-87428628D02*
X11027905Y-87428628D01*
X11932667Y-86904819D02*
X12551714Y-86904819D01*
X12551714Y-86904819D02*
X12218381Y-87285771D01*
X12218381Y-87285771D02*
X12361238Y-87285771D01*
X12361238Y-87285771D02*
X12456476Y-87333390D01*
X12456476Y-87333390D02*
X12504095Y-87381009D01*
X12504095Y-87381009D02*
X12551714Y-87476247D01*
X12551714Y-87476247D02*
X12551714Y-87714342D01*
X12551714Y-87714342D02*
X12504095Y-87809580D01*
X12504095Y-87809580D02*
X12456476Y-87857200D01*
X12456476Y-87857200D02*
X12361238Y-87904819D01*
X12361238Y-87904819D02*
X12075524Y-87904819D01*
X12075524Y-87904819D02*
X11980286Y-87857200D01*
X11980286Y-87857200D02*
X11932667Y-87809580D01*
X14083333Y-46109580D02*
X14035714Y-46157200D01*
X14035714Y-46157200D02*
X13892857Y-46204819D01*
X13892857Y-46204819D02*
X13797619Y-46204819D01*
X13797619Y-46204819D02*
X13654762Y-46157200D01*
X13654762Y-46157200D02*
X13559524Y-46061961D01*
X13559524Y-46061961D02*
X13511905Y-45966723D01*
X13511905Y-45966723D02*
X13464286Y-45776247D01*
X13464286Y-45776247D02*
X13464286Y-45633390D01*
X13464286Y-45633390D02*
X13511905Y-45442914D01*
X13511905Y-45442914D02*
X13559524Y-45347676D01*
X13559524Y-45347676D02*
X13654762Y-45252438D01*
X13654762Y-45252438D02*
X13797619Y-45204819D01*
X13797619Y-45204819D02*
X13892857Y-45204819D01*
X13892857Y-45204819D02*
X14035714Y-45252438D01*
X14035714Y-45252438D02*
X14083333Y-45300057D01*
X14416667Y-45204819D02*
X15035714Y-45204819D01*
X15035714Y-45204819D02*
X14702381Y-45585771D01*
X14702381Y-45585771D02*
X14845238Y-45585771D01*
X14845238Y-45585771D02*
X14940476Y-45633390D01*
X14940476Y-45633390D02*
X14988095Y-45681009D01*
X14988095Y-45681009D02*
X15035714Y-45776247D01*
X15035714Y-45776247D02*
X15035714Y-46014342D01*
X15035714Y-46014342D02*
X14988095Y-46109580D01*
X14988095Y-46109580D02*
X14940476Y-46157200D01*
X14940476Y-46157200D02*
X14845238Y-46204819D01*
X14845238Y-46204819D02*
X14559524Y-46204819D01*
X14559524Y-46204819D02*
X14464286Y-46157200D01*
X14464286Y-46157200D02*
X14416667Y-46109580D01*
%TO.C,C6*%
D12*
X10765000Y-59473752D02*
X10765000Y-58951248D01*
X12235000Y-59473752D02*
X12235000Y-58951248D01*
%TO.C,R2*%
X5272936Y-8815000D02*
X5727064Y-8815000D01*
X5272936Y-10285000D02*
X5727064Y-10285000D01*
%TO.C,C7*%
X14738748Y-55515000D02*
X15261252Y-55515000D01*
X14738748Y-56985000D02*
X15261252Y-56985000D01*
%TO.C,J2*%
X1240000Y-33670000D02*
X2240000Y-33670000D01*
X1240000Y-33920000D02*
X2240000Y-33920000D01*
X1240000Y-43580000D02*
X2240000Y-43580000D01*
X2240000Y-33670000D02*
X2240000Y-43830000D01*
X2240000Y-33670000D02*
X2770000Y-33920000D01*
X2240000Y-43830000D02*
X1240000Y-43830000D01*
X2770000Y-33920000D02*
X2770000Y-43580000D01*
X2770000Y-43580000D02*
X2240000Y-43830000D01*
X6230000Y-32000000D02*
X2230000Y-32000000D01*
X6660000Y-32870000D02*
X6660000Y-34470000D01*
X6660000Y-34470000D02*
X7260000Y-34470000D01*
X6660000Y-35410000D02*
X6660000Y-37010000D01*
X6660000Y-37010000D02*
X7260000Y-37010000D01*
X6660000Y-37950000D02*
X6660000Y-39550000D01*
X6660000Y-39550000D02*
X7260000Y-39550000D01*
X6660000Y-40490000D02*
X6660000Y-42090000D01*
X6660000Y-42090000D02*
X7260000Y-42090000D01*
X6660000Y-43030000D02*
X6660000Y-44630000D01*
X6660000Y-44630000D02*
X7260000Y-44630000D01*
X7260000Y-32870000D02*
X6660000Y-32870000D01*
X7260000Y-35410000D02*
X6660000Y-35410000D01*
X7260000Y-37950000D02*
X6660000Y-37950000D01*
X7260000Y-40490000D02*
X6660000Y-40490000D01*
X7260000Y-43030000D02*
X6660000Y-43030000D01*
X1240000Y-32290000D02*
X7260000Y-32290000D01*
X7260000Y-45210000D01*
X1240000Y-45210000D01*
X1240000Y-32290000D01*
%TO.C,Q1*%
X8240000Y-4490000D02*
X9760000Y-4490000D01*
X8240000Y-5490000D02*
X8240000Y-4490000D01*
X8240000Y-7610000D02*
X8240000Y-6610000D01*
X9760000Y-4490000D02*
X9760000Y-4540000D01*
X9760000Y-5660000D02*
X9760000Y-6440000D01*
X9760000Y-7560000D02*
X9760000Y-7610000D01*
X9760000Y-7610000D02*
X8240000Y-7610000D01*
X10300000Y-6430000D02*
X10060000Y-6100000D01*
X10540000Y-6100000D01*
X10300000Y-6430000D01*
G36*
X10300000Y-6430000D02*
G01*
X10060000Y-6100000D01*
X10540000Y-6100000D01*
X10300000Y-6430000D01*
G37*
%TO.C,J1*%
D11*
X502690Y-56724615D02*
X502690Y-63789000D01*
X502690Y-56724615D02*
X9936737Y-56724615D01*
X502690Y-74149567D02*
X502690Y-67091000D01*
D12*
X2580000Y-70630000D02*
X2580000Y-60250000D01*
X5230000Y-67980000D02*
X5230000Y-70630000D01*
X5230000Y-70630000D02*
X2580000Y-70630000D01*
X7880000Y-60250000D02*
X2580000Y-60250000D01*
X7880000Y-67980000D02*
X5230000Y-67980000D01*
X7880000Y-67980000D02*
X7880000Y-60250000D01*
X7880000Y-69250000D02*
X7880000Y-70630000D01*
X7880000Y-70630000D02*
X6500000Y-70630000D01*
D11*
X9936737Y-56724615D02*
X9936737Y-74149567D01*
X9936737Y-74149567D02*
X502690Y-74149567D01*
%TO.C,U1*%
D12*
X8940000Y-20940000D02*
X13060000Y-20940000D01*
X8940000Y-21035000D02*
X8940000Y-20940000D01*
X8940000Y-26060000D02*
X8940000Y-25965000D01*
X13060000Y-20940000D02*
X13060000Y-21035000D01*
X13060000Y-25965000D02*
X13060000Y-26060000D01*
X13060000Y-26060000D02*
X8940000Y-26060000D01*
X13600000Y-25970000D02*
X13840000Y-26300000D01*
X13360000Y-26300000D01*
X13600000Y-25970000D01*
G36*
X13840000Y-26300000D02*
G01*
X13360000Y-26300000D01*
X13600000Y-25970000D01*
X13840000Y-26300000D01*
G37*
%TO.C,R7*%
X1265000Y-16772936D02*
X1265000Y-17227064D01*
X2735000Y-16772936D02*
X2735000Y-17227064D01*
%TO.C,R1*%
X14272936Y-8815000D02*
X14727064Y-8815000D01*
X14272936Y-10285000D02*
X14727064Y-10285000D01*
%TO.C,R6*%
X1265000Y-84472936D02*
X1265000Y-84927064D01*
X2735000Y-84472936D02*
X2735000Y-84927064D01*
%TO.C,R8*%
X1265000Y-93727064D02*
X1265000Y-93272936D01*
X2735000Y-93727064D02*
X2735000Y-93272936D01*
%TO.C,R4*%
X5272936Y-86465000D02*
X5727064Y-86465000D01*
X5272936Y-87935000D02*
X5727064Y-87935000D01*
%TO.C,U2*%
X9615000Y-43060000D02*
X9615000Y-38440000D01*
X16385000Y-38440000D02*
X16385000Y-43060000D01*
X10070000Y-44610000D02*
X10310000Y-44940000D01*
X9830000Y-44940000D01*
X10070000Y-44610000D01*
G36*
X10310000Y-44940000D02*
G01*
X9830000Y-44940000D01*
X10070000Y-44610000D01*
X10310000Y-44940000D01*
G37*
%TO.C,C8*%
X5488748Y-27765000D02*
X6011252Y-27765000D01*
X5488748Y-29235000D02*
X6011252Y-29235000D01*
%TO.C,Q2*%
X8240000Y-82140000D02*
X9760000Y-82140000D01*
X8240000Y-83140000D02*
X8240000Y-82140000D01*
X8240000Y-85260000D02*
X8240000Y-84260000D01*
X9760000Y-82140000D02*
X9760000Y-82190000D01*
X9760000Y-83310000D02*
X9760000Y-84090000D01*
X9760000Y-85210000D02*
X9760000Y-85260000D01*
X9760000Y-85260000D02*
X8240000Y-85260000D01*
X10300000Y-84080000D02*
X10060000Y-83750000D01*
X10540000Y-83750000D01*
X10300000Y-84080000D01*
G36*
X10300000Y-84080000D02*
G01*
X10060000Y-83750000D01*
X10540000Y-83750000D01*
X10300000Y-84080000D01*
G37*
%TO.C,U3*%
X10590000Y-63840000D02*
X11850000Y-63840000D01*
X10590000Y-67600000D02*
X10590000Y-63840000D01*
X17410000Y-63840000D02*
X16150000Y-63840000D01*
X17410000Y-67600000D02*
X17410000Y-63840000D01*
X10690000Y-68880000D02*
X10360000Y-69120000D01*
X10360000Y-68640000D01*
X10690000Y-68880000D01*
G36*
X10690000Y-68880000D02*
G01*
X10360000Y-69120000D01*
X10360000Y-68640000D01*
X10690000Y-68880000D01*
G37*
%TO.C,C2*%
X15015000Y-23261252D02*
X15015000Y-22738748D01*
X16485000Y-23261252D02*
X16485000Y-22738748D01*
%TO.C,R9*%
X8772936Y-50515000D02*
X9227064Y-50515000D01*
X8772936Y-51985000D02*
X9227064Y-51985000D01*
%TO.C,R5*%
X1265000Y-6822936D02*
X1265000Y-7277064D01*
X2735000Y-6822936D02*
X2735000Y-7277064D01*
%TO.C,U4*%
X13740000Y-57690000D02*
X15260000Y-57690000D01*
X13740000Y-58690000D02*
X13740000Y-57690000D01*
X13740000Y-60810000D02*
X13740000Y-59810000D01*
X15260000Y-57690000D02*
X15260000Y-57740000D01*
X15260000Y-58860000D02*
X15260000Y-59640000D01*
X15260000Y-60760000D02*
X15260000Y-60810000D01*
X15260000Y-60810000D02*
X13740000Y-60810000D01*
X15800000Y-59630000D02*
X15560000Y-59300000D01*
X16040000Y-59300000D01*
X15800000Y-59630000D01*
G36*
X15800000Y-59630000D02*
G01*
X15560000Y-59300000D01*
X16040000Y-59300000D01*
X15800000Y-59630000D01*
G37*
%TO.C,C1*%
X5515000Y-24511252D02*
X5515000Y-23988748D01*
X6985000Y-24511252D02*
X6985000Y-23988748D01*
%TO.C,U5*%
X9740000Y-28290000D02*
X15260000Y-28290000D01*
X9740000Y-29035000D02*
X9740000Y-28290000D01*
X9740000Y-34710000D02*
X9740000Y-33965000D01*
X15260000Y-28290000D02*
X15260000Y-29035000D01*
X15260000Y-33965000D02*
X15260000Y-34710000D01*
X15260000Y-34710000D02*
X9740000Y-34710000D01*
X9000000Y-29030000D02*
X8660000Y-28560000D01*
X9340000Y-28560000D01*
X9000000Y-29030000D01*
G36*
X9000000Y-29030000D02*
G01*
X8660000Y-28560000D01*
X9340000Y-28560000D01*
X9000000Y-29030000D01*
G37*
%TO.C,R3*%
X14272936Y-86465000D02*
X14727064Y-86465000D01*
X14272936Y-87935000D02*
X14727064Y-87935000D01*
%TO.C,C3*%
X11511252Y-45015000D02*
X10988748Y-45015000D01*
X11511252Y-46485000D02*
X10988748Y-46485000D01*
%TD*%
M02*
