%TF.GenerationSoftware,KiCad,Pcbnew,10.0.6*%
%TF.CreationDate,2026-09-30T20:23:51+02:00*%
%TF.ProjectId,player_drum_velocity,706c6179-6572-45f6-9472-756d5f76656c,rev?*%
%TF.SameCoordinates,Original*%
%TF.FileFunction,Soldermask,Top*%
%TF.FilePolarity,Negative*%
%FSLAX46Y46*%
G04 Gerber Fmt 4.6, Leading zero omitted, Abs format (unit mm)*
G04 Created by KiCad (PCBNEW 10.0.6) date 2026-09-30 20:23:51*
%MOMM*%
%LPD*%
G01*
G04 APERTURE LIST*
G04 Aperture macros list*
%AMRoundRect*
0 Rectangle with rounded corners*
0 $1 Rounding radius*
0 $2 $3 $4 $5 $6 $7 $8 $9 X,Y pos of 4 corners*
0 Add a 4 corners polygon primitive as box body*
4,1,4,$2,$3,$4,$5,$6,$7,$8,$9,$2,$3,0*
0 Add four circle primitives for the rounded corners*
1,1,$1+$1,$2,$3*
1,1,$1+$1,$4,$5*
1,1,$1+$1,$6,$7*
1,1,$1+$1,$8,$9*
0 Add four rect primitives between the rounded corners*
20,1,$1+$1,$2,$3,$4,$5,0*
20,1,$1+$1,$4,$5,$6,$7,0*
20,1,$1+$1,$6,$7,$8,$9,0*
20,1,$1+$1,$8,$9,$2,$3,0*%
G04 Aperture macros list end*
%ADD10RoundRect,0.250000X0.475000X-0.337500X0.475000X0.337500X-0.475000X0.337500X-0.475000X-0.337500X0*%
%ADD11RoundRect,0.250000X-0.350000X-0.450000X0.350000X-0.450000X0.350000X0.450000X-0.350000X0.450000X0*%
%ADD12RoundRect,0.250000X-0.337500X-0.475000X0.337500X-0.475000X0.337500X0.475000X-0.337500X0.475000X0*%
%ADD13RoundRect,0.250000X-0.845000X0.620000X-0.845000X-0.620000X0.845000X-0.620000X0.845000X0.620000X0*%
%ADD14O,2.190000X1.740000*%
%ADD15RoundRect,0.150000X0.587500X0.150000X-0.587500X0.150000X-0.587500X-0.150000X0.587500X-0.150000X0*%
%ADD16R,1.700000X1.700000*%
%ADD17C,1.700000*%
%ADD18RoundRect,0.150000X0.825000X0.150000X-0.825000X0.150000X-0.825000X-0.150000X0.825000X-0.150000X0*%
%ADD19RoundRect,0.250000X-0.450000X0.350000X-0.450000X-0.350000X0.450000X-0.350000X0.450000X0.350000X0*%
%ADD20RoundRect,0.250000X0.450000X-0.350000X0.450000X0.350000X-0.450000X0.350000X-0.450000X-0.350000X0*%
%ADD21RoundRect,0.100000X0.100000X-0.637500X0.100000X0.637500X-0.100000X0.637500X-0.100000X-0.637500X0*%
%ADD22RoundRect,0.375000X0.375000X-0.625000X0.375000X0.625000X-0.375000X0.625000X-0.375000X-0.625000X0*%
%ADD23RoundRect,0.500000X1.400000X-0.500000X1.400000X0.500000X-1.400000X0.500000X-1.400000X-0.500000X0*%
%ADD24RoundRect,0.150000X-0.800000X-0.150000X0.800000X-0.150000X0.800000X0.150000X-0.800000X0.150000X0*%
%ADD25RoundRect,0.250000X0.337500X0.475000X-0.337500X0.475000X-0.337500X-0.475000X0.337500X-0.475000X0*%
%ADD26C,2.000000*%
%ADD27RoundRect,0.250000X-0.550000X-0.550000X0.550000X-0.550000X0.550000X0.550000X-0.550000X0.550000X0*%
%ADD28C,1.600000*%
%ADD29RoundRect,0.750000X-0.000010X0.750000X-0.000010X-0.750000X0.000010X-0.750000X0.000010X0.750000X0*%
%ADD30R,1.800000X1.800000*%
%ADD31C,1.800000*%
G04 APERTURE END LIST*
D10*
%TO.C,C6*%
X11500000Y-60250000D03*
X11500000Y-58175000D03*
%TD*%
D11*
%TO.C,R2*%
X4500000Y-9550000D03*
X6500000Y-9550000D03*
%TD*%
D12*
%TO.C,C7*%
X13962500Y-56250000D03*
X16037500Y-56250000D03*
%TD*%
D13*
%TO.C,J2*%
X4230000Y-33670000D03*
D14*
X4230000Y-36210000D03*
X4230000Y-38750000D03*
X4230000Y-41290000D03*
X4230000Y-43830000D03*
%TD*%
D15*
%TO.C,Q1*%
X9937500Y-7000000D03*
X9937500Y-5100000D03*
X8062500Y-6050000D03*
%TD*%
D16*
%TO.C,J1*%
X6500000Y-69250000D03*
D17*
X3960000Y-69250000D03*
X6500000Y-66710000D03*
X3960000Y-66710000D03*
X6500000Y-64170000D03*
X3960000Y-64170000D03*
X6500000Y-61630000D03*
X3960000Y-61630000D03*
%TD*%
D18*
%TO.C,U1*%
X13475000Y-25405000D03*
X13475000Y-24135000D03*
X13475000Y-22865000D03*
X13475000Y-21595000D03*
X8525000Y-21595000D03*
X8525000Y-22865000D03*
X8525000Y-24135000D03*
X8525000Y-25405000D03*
%TD*%
D19*
%TO.C,R7*%
X2000000Y-16000000D03*
X2000000Y-18000000D03*
%TD*%
D11*
%TO.C,R1*%
X13500000Y-9550000D03*
X15500000Y-9550000D03*
%TD*%
D19*
%TO.C,R6*%
X2000000Y-83700000D03*
X2000000Y-85700000D03*
%TD*%
D20*
%TO.C,R8*%
X2000000Y-94500000D03*
X2000000Y-92500000D03*
%TD*%
D11*
%TO.C,R4*%
X4500000Y-87200000D03*
X6500000Y-87200000D03*
%TD*%
D21*
%TO.C,U2*%
X10075000Y-43612500D03*
X10725000Y-43612500D03*
X11375000Y-43612500D03*
X12025000Y-43612500D03*
X12675000Y-43612500D03*
X13325000Y-43612500D03*
X13975000Y-43612500D03*
X14625000Y-43612500D03*
X15275000Y-43612500D03*
X15925000Y-43612500D03*
X15925000Y-37887500D03*
X15275000Y-37887500D03*
X14625000Y-37887500D03*
X13975000Y-37887500D03*
X13325000Y-37887500D03*
X12675000Y-37887500D03*
X12025000Y-37887500D03*
X11375000Y-37887500D03*
X10725000Y-37887500D03*
X10075000Y-37887500D03*
%TD*%
D12*
%TO.C,C8*%
X4712500Y-28500000D03*
X6787500Y-28500000D03*
%TD*%
D15*
%TO.C,Q2*%
X9937500Y-84650000D03*
X9937500Y-82750000D03*
X8062500Y-83700000D03*
%TD*%
D22*
%TO.C,U3*%
X11700000Y-68900000D03*
X14000000Y-68900000D03*
D23*
X14000000Y-62600000D03*
D22*
X16300000Y-68900000D03*
%TD*%
D10*
%TO.C,C2*%
X15750000Y-24037500D03*
X15750000Y-21962500D03*
%TD*%
D11*
%TO.C,R9*%
X8000000Y-51250000D03*
X10000000Y-51250000D03*
%TD*%
D19*
%TO.C,R5*%
X2000000Y-6050000D03*
X2000000Y-8050000D03*
%TD*%
D15*
%TO.C,U4*%
X15437500Y-60200000D03*
X15437500Y-58300000D03*
X13562500Y-59250000D03*
%TD*%
D10*
%TO.C,C1*%
X6250000Y-25287500D03*
X6250000Y-23212500D03*
%TD*%
D24*
%TO.C,U5*%
X9000000Y-29595000D03*
X9000000Y-30865000D03*
X9000000Y-32135000D03*
X9000000Y-33405000D03*
X16000000Y-33405000D03*
X16000000Y-32135000D03*
X16000000Y-30865000D03*
X16000000Y-29595000D03*
%TD*%
D11*
%TO.C,R3*%
X13500000Y-87200000D03*
X15500000Y-87200000D03*
%TD*%
D25*
%TO.C,C3*%
X12287500Y-45750000D03*
X10212500Y-45750000D03*
%TD*%
D26*
%TO.C,SW1*%
X7500000Y-54500000D03*
X7500000Y-48000000D03*
X3000000Y-54500000D03*
X3000000Y-48000000D03*
%TD*%
D27*
%TO.C,C4*%
X3962500Y-75250000D03*
D28*
X6462500Y-75250000D03*
%TD*%
D29*
%TO.C,J4*%
X15600000Y-83500000D03*
X4600000Y-83500000D03*
X13100000Y-83500000D03*
%TD*%
D30*
%TO.C,D1*%
X12500000Y-51250000D03*
D31*
X15040000Y-51250000D03*
%TD*%
D29*
%TO.C,J6*%
X15600000Y-94500000D03*
X4600000Y-94500000D03*
X13100000Y-94500000D03*
%TD*%
%TO.C,J5*%
X15600000Y-16500000D03*
X4600000Y-16500000D03*
X13100000Y-16500000D03*
%TD*%
%TO.C,J3*%
X15600000Y-5500000D03*
X4600000Y-5500000D03*
X13100000Y-5500000D03*
%TD*%
D27*
%TO.C,C5*%
X12500000Y-75250000D03*
D28*
X15000000Y-75250000D03*
%TD*%
M02*
