%TF.GenerationSoftware,KiCad,Pcbnew,10.0.6*%
%TF.CreationDate,2026-09-30T20:23:51+02:00*%
%TF.ProjectId,player_drum_velocity,706c6179-6572-45f6-9472-756d5f76656c,rev?*%
%TF.SameCoordinates,Original*%
%TF.FileFunction,Copper,L2,Bot*%
%TF.FilePolarity,Positive*%
%FSLAX46Y46*%
G04 Gerber Fmt 4.6, Leading zero omitted, Abs format (unit mm)*
G04 Created by KiCad (PCBNEW 10.0.6) date 2026-09-30 20:23:51*
%MOMM*%
%LPD*%
G01*
G04 APERTURE LIST*
G04 Aperture macros list*
%AMRoundRect*
0 Rectangle with rounded corners*
0 $1 Rounding radius*
0 $2 $3 $4 $5 $6 $7 $8 $9 X,Y pos of 4 corners*
0 Add a 4 corners polygon primitive as box body*
4,1,4,$2,$3,$4,$5,$6,$7,$8,$9,$2,$3,0*
0 Add four circle primitives for the rounded corners*
1,1,$1+$1,$2,$3*
1,1,$1+$1,$4,$5*
1,1,$1+$1,$6,$7*
1,1,$1+$1,$8,$9*
0 Add four rect primitives between the rounded corners*
20,1,$1+$1,$2,$3,$4,$5,0*
20,1,$1+$1,$4,$5,$6,$7,0*
20,1,$1+$1,$6,$7,$8,$9,0*
20,1,$1+$1,$8,$9,$2,$3,0*%
G04 Aperture macros list end*
%TA.AperFunction,ComponentPad*%
%ADD10RoundRect,0.250000X-0.845000X0.620000X-0.845000X-0.620000X0.845000X-0.620000X0.845000X0.620000X0*%
%TD*%
%TA.AperFunction,ComponentPad*%
%ADD11O,2.190000X1.740000*%
%TD*%
%TA.AperFunction,ComponentPad*%
%ADD12R,1.700000X1.700000*%
%TD*%
%TA.AperFunction,ComponentPad*%
%ADD13C,1.700000*%
%TD*%
%TA.AperFunction,ComponentPad*%
%ADD14C,2.000000*%
%TD*%
%TA.AperFunction,ComponentPad*%
%ADD15RoundRect,0.250000X-0.550000X-0.550000X0.550000X-0.550000X0.550000X0.550000X-0.550000X0.550000X0*%
%TD*%
%TA.AperFunction,ComponentPad*%
%ADD16C,1.600000*%
%TD*%
%TA.AperFunction,ComponentPad*%
%ADD17RoundRect,0.750000X-0.000010X0.750000X-0.000010X-0.750000X0.000010X-0.750000X0.000010X0.750000X0*%
%TD*%
%TA.AperFunction,ComponentPad*%
%ADD18R,1.800000X1.800000*%
%TD*%
%TA.AperFunction,ComponentPad*%
%ADD19C,1.800000*%
%TD*%
%TA.AperFunction,ViaPad*%
%ADD20C,0.600000*%
%TD*%
%TA.AperFunction,Conductor*%
%ADD21C,0.200000*%
%TD*%
G04 APERTURE END LIST*
D10*
%TO.P,J2,1,Pin_1_1*%
%TO.N,SWD DATA*%
X4230000Y-33670000D03*
D11*
%TO.P,J2,2,Pin_2_2*%
%TO.N,SWD CLOCK*%
X4230000Y-36210000D03*
%TO.P,J2,3,Pin_3_3*%
%TO.N,RESET*%
X4230000Y-38750000D03*
%TO.P,J2,4,Pin_4_4*%
%TO.N,+3.3V*%
X4230000Y-41290000D03*
%TO.P,J2,5,Pin_5_5*%
%TO.N,GND*%
X4230000Y-43830000D03*
%TD*%
D12*
%TO.P,J1,1,Pin_1_1*%
%TO.N,+12V*%
X6500000Y-69250000D03*
D13*
%TO.P,J1,2,Pin_2_2*%
%TO.N,GND*%
X3960000Y-69250000D03*
%TO.P,J1,3,Pin_3_3*%
%TO.N,-12V*%
X6500000Y-66710000D03*
%TO.P,J1,4,Pin_4_4*%
%TO.N,GND*%
X3960000Y-66710000D03*
%TO.P,J1,5,Pin_5_5*%
%TO.N,FAST_MIDI*%
X6500000Y-64170000D03*
%TO.P,J1,6,Pin_6_6*%
%TO.N,GND*%
X3960000Y-64170000D03*
%TO.P,J1,7,Pin_7_7*%
%TO.N,unconnected-(J1-Pin_7-Pad7)*%
X6500000Y-61630000D03*
%TO.P,J1,8,Pin_8_8*%
%TO.N,unconnected-(J1-Pin_8-Pad8)*%
X3960000Y-61630000D03*
%TD*%
D14*
%TO.P,SW1,1,1_1*%
%TO.N,Net-(U2-PA0)*%
X7500000Y-54500000D03*
X7500000Y-48000000D03*
%TO.P,SW1,2,2_2*%
%TO.N,GND*%
X3000000Y-54500000D03*
X3000000Y-48000000D03*
%TD*%
D15*
%TO.P,C4,1*%
%TO.N,+12V*%
X3962500Y-75250000D03*
D16*
%TO.P,C4,2*%
%TO.N,GND*%
X6462500Y-75250000D03*
%TD*%
D17*
%TO.P,J4,S,S_S*%
%TO.N,GND*%
X15600000Y-83500000D03*
%TO.P,J4,T,T_T*%
%TO.N,Net-(J4-PadT)*%
X4600000Y-83500000D03*
%TO.P,J4,TN,TN_TN*%
%TO.N,unconnected-(J4-PadTN)*%
X13100000Y-83500000D03*
%TD*%
D18*
%TO.P,D1,1,K_1*%
%TO.N,Net-(D1-K)*%
X12500000Y-51250000D03*
D19*
%TO.P,D1,2,A_2*%
%TO.N,Net-(D1-A)*%
X15040000Y-51250000D03*
%TD*%
D17*
%TO.P,J6,S,S_S*%
%TO.N,GND*%
X15600000Y-94500000D03*
%TO.P,J6,T,T_T*%
%TO.N,Net-(J6-PadT)*%
X4600000Y-94500000D03*
%TO.P,J6,TN,TN_TN*%
%TO.N,unconnected-(J6-PadTN)*%
X13100000Y-94500000D03*
%TD*%
%TO.P,J5,S,S_S*%
%TO.N,GND*%
X15600000Y-16500000D03*
%TO.P,J5,T,T_T*%
%TO.N,Net-(J5-PadT)*%
X4600000Y-16500000D03*
%TO.P,J5,TN,TN_TN*%
%TO.N,unconnected-(J5-PadTN)*%
X13100000Y-16500000D03*
%TD*%
%TO.P,J3,S,S_S*%
%TO.N,GND*%
X15600000Y-5500000D03*
%TO.P,J3,T,T_T*%
%TO.N,Net-(J3-PadT)*%
X4600000Y-5500000D03*
%TO.P,J3,TN,TN_TN*%
%TO.N,unconnected-(J3-PadTN)*%
X13100000Y-5500000D03*
%TD*%
D15*
%TO.P,C5,1*%
%TO.N,+5V*%
X12500000Y-75250000D03*
D16*
%TO.P,C5,2*%
%TO.N,GND*%
X15000000Y-75250000D03*
%TD*%
D20*
%TO.N,+5V*%
X11750000Y-78500000D03*
%TO.N,GND*%
X3500000Y-28500000D03*
X16500000Y-57250000D03*
X10250000Y-47500000D03*
X12750000Y-42500000D03*
X11032000Y-4300000D03*
X6250000Y-22350000D03*
X11266000Y-81950000D03*
X16500000Y-60250000D03*
X15750000Y-25250000D03*
X11500000Y-56500000D03*
X15000000Y-30500000D03*
X8000000Y-52500000D03*
X15000000Y-33250000D03*
%TO.N,-12V*%
X11500000Y-21595000D03*
X3750000Y-21750000D03*
%TO.N,Net-(U1B--)*%
X1250000Y-64250000D03*
X1250000Y-27000000D03*
%TO.N,Net-(U2-PA2)*%
X16750000Y-10300000D03*
X15750000Y-41000000D03*
%TO.N,Net-(U2-PA0)*%
X14000000Y-45500000D03*
%TO.N,Net-(U2-PA3)*%
X17000000Y-59250000D03*
X16500000Y-52500000D03*
%TD*%
%TO.N,+5V*%
D21*
X12500000Y-77750000D02*
X12500000Y-75250000D01*
X11750000Y-78500000D02*
X12500000Y-77750000D01*
%TO.N,-12V*%
X11345000Y-21750000D02*
X11500000Y-21595000D01*
X3750000Y-21750000D02*
X11345000Y-21750000D01*
%TO.N,Net-(U1B--)*%
X1250000Y-64250000D02*
X1250000Y-27000000D01*
%TO.N,Net-(U2-PA2)*%
X16750000Y-40151471D02*
X16750000Y-10300000D01*
X15901471Y-41000000D02*
X16750000Y-40151471D01*
X15750000Y-41000000D02*
X15901471Y-41000000D01*
%TO.N,Net-(U2-PA0)*%
X8750000Y-46500000D02*
X7500000Y-47750000D01*
X10000000Y-46500000D02*
X8750000Y-46500000D01*
X11000000Y-45500000D02*
X10000000Y-46500000D01*
X14000000Y-45500000D02*
X11000000Y-45500000D01*
%TO.N,Net-(U2-PA3)*%
X17100000Y-53100000D02*
X17100000Y-59150000D01*
X17100000Y-59150000D02*
X17000000Y-59250000D01*
X16500000Y-52500000D02*
X17100000Y-53100000D01*
%TD*%
%TA.AperFunction,Conductor*%
%TO.N,GND*%
G36*
X5075270Y-67471717D02*
G01*
X5075270Y-67471716D01*
X5114622Y-67417555D01*
X5119232Y-67408507D01*
X5167205Y-67357709D01*
X5235025Y-67340912D01*
X5301161Y-67363447D01*
X5340204Y-67408504D01*
X5344949Y-67417817D01*
X5469890Y-67589786D01*
X5583430Y-67703326D01*
X5616915Y-67764649D01*
X5611931Y-67834341D01*
X5570059Y-67890274D01*
X5539083Y-67907189D01*
X5407669Y-67956203D01*
X5407664Y-67956206D01*
X5292455Y-68042452D01*
X5292452Y-68042455D01*
X5206206Y-68157664D01*
X5206202Y-68157671D01*
X5155908Y-68292517D01*
X5149501Y-68352116D01*
X5149501Y-68352123D01*
X5149500Y-68352135D01*
X5149500Y-68362690D01*
X5129815Y-68429729D01*
X5113181Y-68450371D01*
X4442962Y-69120590D01*
X4425925Y-69057007D01*
X4360099Y-68942993D01*
X4267007Y-68849901D01*
X4152993Y-68784075D01*
X4089409Y-68767037D01*
X4721716Y-68134728D01*
X4667550Y-68095375D01*
X4657954Y-68090486D01*
X4607157Y-68042512D01*
X4590361Y-67974692D01*
X4612897Y-67908556D01*
X4657954Y-67869514D01*
X4667554Y-67864622D01*
X4721716Y-67825270D01*
X4721717Y-67825270D01*
X4089408Y-67192962D01*
X4152993Y-67175925D01*
X4267007Y-67110099D01*
X4360099Y-67017007D01*
X4425925Y-66902993D01*
X4442962Y-66839408D01*
X5075270Y-67471717D01*
G37*
%TD.AperFunction*%
%TA.AperFunction,Conductor*%
G36*
X5075270Y-64931717D02*
G01*
X5075270Y-64931716D01*
X5114622Y-64877555D01*
X5119232Y-64868507D01*
X5167205Y-64817709D01*
X5235025Y-64800912D01*
X5301161Y-64823447D01*
X5340204Y-64868504D01*
X5344949Y-64877817D01*
X5469890Y-65049786D01*
X5620213Y-65200109D01*
X5792182Y-65325050D01*
X5800946Y-65329516D01*
X5851742Y-65377491D01*
X5868536Y-65445312D01*
X5845998Y-65511447D01*
X5800946Y-65550484D01*
X5792182Y-65554949D01*
X5620213Y-65679890D01*
X5469890Y-65830213D01*
X5344949Y-66002182D01*
X5340202Y-66011499D01*
X5292227Y-66062293D01*
X5224405Y-66079087D01*
X5158271Y-66056548D01*
X5119234Y-66011495D01*
X5114626Y-66002452D01*
X5075270Y-65948282D01*
X5075269Y-65948282D01*
X4442962Y-66580590D01*
X4425925Y-66517007D01*
X4360099Y-66402993D01*
X4267007Y-66309901D01*
X4152993Y-66244075D01*
X4089409Y-66227037D01*
X4721716Y-65594728D01*
X4667550Y-65555375D01*
X4657954Y-65550486D01*
X4607157Y-65502512D01*
X4590361Y-65434692D01*
X4612897Y-65368556D01*
X4657954Y-65329514D01*
X4667554Y-65324622D01*
X4721716Y-65285270D01*
X4721717Y-65285270D01*
X4089408Y-64652962D01*
X4152993Y-64635925D01*
X4267007Y-64570099D01*
X4360099Y-64477007D01*
X4425925Y-64362993D01*
X4442962Y-64299408D01*
X5075270Y-64931717D01*
G37*
%TD.AperFunction*%
%TA.AperFunction,Conductor*%
G36*
X5301444Y-62283999D02*
G01*
X5340486Y-62329056D01*
X5344951Y-62337820D01*
X5469890Y-62509786D01*
X5620213Y-62660109D01*
X5792182Y-62785050D01*
X5800946Y-62789516D01*
X5851742Y-62837491D01*
X5868536Y-62905312D01*
X5845998Y-62971447D01*
X5800946Y-63010484D01*
X5792182Y-63014949D01*
X5620213Y-63139890D01*
X5469890Y-63290213D01*
X5344949Y-63462182D01*
X5340202Y-63471499D01*
X5292227Y-63522293D01*
X5224405Y-63539087D01*
X5158271Y-63516548D01*
X5119234Y-63471495D01*
X5114626Y-63462452D01*
X5075270Y-63408282D01*
X5075269Y-63408282D01*
X4442962Y-64040590D01*
X4425925Y-63977007D01*
X4360099Y-63862993D01*
X4267007Y-63769901D01*
X4152993Y-63704075D01*
X4089409Y-63687037D01*
X4721716Y-63054728D01*
X4667547Y-63015373D01*
X4667547Y-63015372D01*
X4658500Y-63010763D01*
X4607706Y-62962788D01*
X4590912Y-62894966D01*
X4613451Y-62828832D01*
X4658508Y-62789793D01*
X4667816Y-62785051D01*
X4747007Y-62727515D01*
X4839786Y-62660109D01*
X4839788Y-62660106D01*
X4839792Y-62660104D01*
X4990104Y-62509792D01*
X4990106Y-62509788D01*
X4990109Y-62509786D01*
X5115048Y-62337820D01*
X5115047Y-62337820D01*
X5115051Y-62337816D01*
X5119514Y-62329054D01*
X5167488Y-62278259D01*
X5235308Y-62261463D01*
X5301444Y-62283999D01*
G37*
%TD.AperFunction*%
%TA.AperFunction,Conductor*%
G36*
X17442539Y-520185D02*
G01*
X17488294Y-572989D01*
X17499500Y-624500D01*
X17499500Y-9618059D01*
X17479815Y-9685098D01*
X17427011Y-9730853D01*
X17357853Y-9740797D01*
X17294297Y-9711772D01*
X17287819Y-9705740D01*
X17260292Y-9678213D01*
X17260288Y-9678210D01*
X17129185Y-9590609D01*
X17129172Y-9590602D01*
X16983501Y-9530264D01*
X16983489Y-9530261D01*
X16828845Y-9499500D01*
X16828842Y-9499500D01*
X16671158Y-9499500D01*
X16671155Y-9499500D01*
X16516510Y-9530261D01*
X16516498Y-9530264D01*
X16370827Y-9590602D01*
X16370814Y-9590609D01*
X16239711Y-9678210D01*
X16239707Y-9678213D01*
X16128213Y-9789707D01*
X16128210Y-9789711D01*
X16040609Y-9920814D01*
X16040602Y-9920827D01*
X15980264Y-10066498D01*
X15980261Y-10066510D01*
X15949500Y-10221153D01*
X15949500Y-10378846D01*
X15980261Y-10533489D01*
X15980264Y-10533501D01*
X16040602Y-10679172D01*
X16040609Y-10679185D01*
X16128602Y-10810874D01*
X16149480Y-10877551D01*
X16149500Y-10879765D01*
X16149500Y-14440268D01*
X16129815Y-14507307D01*
X16077011Y-14553062D01*
X16007853Y-14563006D01*
X15995202Y-14560510D01*
X15850000Y-14523922D01*
X15850000Y-15700272D01*
X15811940Y-15608386D01*
X15741614Y-15538060D01*
X15649728Y-15500000D01*
X15550272Y-15500000D01*
X15458386Y-15538060D01*
X15388060Y-15608386D01*
X15350000Y-15700272D01*
X15350000Y-14523922D01*
X15185482Y-14565377D01*
X14980625Y-14658428D01*
X14980619Y-14658431D01*
X14795676Y-14786559D01*
X14795664Y-14786569D01*
X14636569Y-14945664D01*
X14636559Y-14945676D01*
X14508431Y-15130619D01*
X14508430Y-15130621D01*
X14463173Y-15230257D01*
X14417526Y-15283154D01*
X14350526Y-15302975D01*
X14283447Y-15283427D01*
X14237585Y-15230716D01*
X14237434Y-15230386D01*
X14192007Y-15130374D01*
X14064048Y-14945676D01*
X14063825Y-14945354D01*
X14063822Y-14945350D01*
X14063819Y-14945346D01*
X13904654Y-14786181D01*
X13904650Y-14786178D01*
X13904645Y-14786174D01*
X13719632Y-14657997D01*
X13719630Y-14657995D01*
X13719626Y-14657993D01*
X13515724Y-14565377D01*
X13514681Y-14564903D01*
X13514678Y-14564902D01*
X13296420Y-14509905D01*
X13296413Y-14509904D01*
X13230314Y-14504702D01*
X13164217Y-14499500D01*
X13164216Y-14499500D01*
X13035792Y-14499500D01*
X13035775Y-14499501D01*
X12903586Y-14509904D01*
X12903579Y-14509905D01*
X12685321Y-14564902D01*
X12685318Y-14564903D01*
X12480377Y-14657991D01*
X12480367Y-14657997D01*
X12295354Y-14786174D01*
X12295342Y-14786184D01*
X12136184Y-14945342D01*
X12136174Y-14945354D01*
X12007997Y-15130367D01*
X12007991Y-15130377D01*
X11914903Y-15335318D01*
X11914902Y-15335321D01*
X11859905Y-15553579D01*
X11859904Y-15553586D01*
X11849500Y-15685777D01*
X11849500Y-17314208D01*
X11849501Y-17314223D01*
X11859904Y-17446413D01*
X11859905Y-17446420D01*
X11914902Y-17664678D01*
X11914903Y-17664681D01*
X11914904Y-17664683D01*
X12007993Y-17869626D01*
X12007995Y-17869630D01*
X12007997Y-17869632D01*
X12136174Y-18054645D01*
X12136178Y-18054650D01*
X12136181Y-18054654D01*
X12295346Y-18213819D01*
X12295350Y-18213822D01*
X12295354Y-18213825D01*
X12434603Y-18310297D01*
X12480374Y-18342007D01*
X12685317Y-18435096D01*
X12685321Y-18435097D01*
X12903579Y-18490094D01*
X12903581Y-18490094D01*
X12903588Y-18490096D01*
X13035783Y-18500500D01*
X13164216Y-18500499D01*
X13296412Y-18490096D01*
X13514683Y-18435096D01*
X13719626Y-18342007D01*
X13904654Y-18213819D01*
X14063819Y-18054654D01*
X14192007Y-17869626D01*
X14237376Y-17769740D01*
X14283021Y-17716846D01*
X14350020Y-17697024D01*
X14417100Y-17716572D01*
X14462963Y-17769282D01*
X14463173Y-17769742D01*
X14508430Y-17869378D01*
X14508431Y-17869380D01*
X14636559Y-18054323D01*
X14636569Y-18054335D01*
X14795664Y-18213430D01*
X14795676Y-18213440D01*
X14980619Y-18341568D01*
X14980625Y-18341571D01*
X15185480Y-18434622D01*
X15350000Y-18476076D01*
X15350000Y-17299728D01*
X15388060Y-17391614D01*
X15458386Y-17461940D01*
X15550272Y-17500000D01*
X15649728Y-17500000D01*
X15741614Y-17461940D01*
X15811940Y-17391614D01*
X15850000Y-17299728D01*
X15850000Y-18476075D01*
X15995202Y-18439489D01*
X16065019Y-18442197D01*
X16122289Y-18482221D01*
X16148830Y-18546854D01*
X16149500Y-18559731D01*
X16149500Y-39851373D01*
X16129815Y-39918412D01*
X16113181Y-39939054D01*
X15889054Y-40163181D01*
X15827731Y-40196666D01*
X15801373Y-40199500D01*
X15671155Y-40199500D01*
X15516510Y-40230261D01*
X15516498Y-40230264D01*
X15370827Y-40290602D01*
X15370814Y-40290609D01*
X15239711Y-40378210D01*
X15239707Y-40378213D01*
X15128213Y-40489707D01*
X15128210Y-40489711D01*
X15040609Y-40620814D01*
X15040602Y-40620827D01*
X14980264Y-40766498D01*
X14980261Y-40766510D01*
X14949500Y-40921153D01*
X14949500Y-41078846D01*
X14980261Y-41233489D01*
X14980264Y-41233501D01*
X15040602Y-41379172D01*
X15040609Y-41379185D01*
X15128210Y-41510288D01*
X15128213Y-41510292D01*
X15239707Y-41621786D01*
X15239711Y-41621789D01*
X15370814Y-41709390D01*
X15370827Y-41709397D01*
X15516498Y-41769735D01*
X15516503Y-41769737D01*
X15671153Y-41800499D01*
X15671156Y-41800500D01*
X15671158Y-41800500D01*
X15828844Y-41800500D01*
X15828845Y-41800499D01*
X15983497Y-41769737D01*
X16129179Y-41709394D01*
X16260289Y-41621789D01*
X16371789Y-41510289D01*
X16459394Y-41379179D01*
X16512089Y-41251960D01*
X16538963Y-41211741D01*
X17108506Y-40642199D01*
X17108511Y-40642195D01*
X17118714Y-40631991D01*
X17118716Y-40631991D01*
X17230520Y-40520187D01*
X17268113Y-40455072D01*
X17318679Y-40406858D01*
X17387286Y-40393634D01*
X17452151Y-40419602D01*
X17492680Y-40476515D01*
X17499500Y-40517073D01*
X17499500Y-52197809D01*
X17479815Y-52264848D01*
X17427011Y-52310603D01*
X17357853Y-52320547D01*
X17294297Y-52291522D01*
X17260939Y-52245261D01*
X17209397Y-52120827D01*
X17209390Y-52120814D01*
X17121789Y-51989711D01*
X17121786Y-51989707D01*
X17010292Y-51878213D01*
X17010288Y-51878210D01*
X16879185Y-51790609D01*
X16879172Y-51790602D01*
X16733501Y-51730264D01*
X16733489Y-51730261D01*
X16578845Y-51699500D01*
X16578842Y-51699500D01*
X16531949Y-51699500D01*
X16464910Y-51679815D01*
X16419155Y-51627011D01*
X16409211Y-51557853D01*
X16409476Y-51556102D01*
X16440500Y-51360221D01*
X16440500Y-51139778D01*
X16406015Y-50922049D01*
X16337895Y-50712394D01*
X16337895Y-50712393D01*
X16303237Y-50644375D01*
X16237815Y-50515978D01*
X16179501Y-50435715D01*
X16108247Y-50337641D01*
X16108243Y-50337636D01*
X15952363Y-50181756D01*
X15952358Y-50181752D01*
X15774025Y-50052187D01*
X15774024Y-50052186D01*
X15774022Y-50052185D01*
X15656791Y-49992452D01*
X15577606Y-49952104D01*
X15577603Y-49952103D01*
X15367952Y-49883985D01*
X15259086Y-49866742D01*
X15150222Y-49849500D01*
X14929778Y-49849500D01*
X14857201Y-49860995D01*
X14712047Y-49883985D01*
X14502396Y-49952103D01*
X14502393Y-49952104D01*
X14305974Y-50052187D01*
X14127641Y-50181752D01*
X14127636Y-50181756D01*
X14077463Y-50231929D01*
X14016140Y-50265413D01*
X13946448Y-50260428D01*
X13890515Y-50218557D01*
X13873601Y-50187580D01*
X13843797Y-50107671D01*
X13843793Y-50107664D01*
X13757547Y-49992455D01*
X13757544Y-49992452D01*
X13642335Y-49906206D01*
X13642328Y-49906202D01*
X13507482Y-49855908D01*
X13507483Y-49855908D01*
X13447883Y-49849501D01*
X13447881Y-49849500D01*
X13447873Y-49849500D01*
X13447864Y-49849500D01*
X11552129Y-49849500D01*
X11552123Y-49849501D01*
X11492516Y-49855908D01*
X11357671Y-49906202D01*
X11357664Y-49906206D01*
X11242455Y-49992452D01*
X11242452Y-49992455D01*
X11156206Y-50107664D01*
X11156202Y-50107671D01*
X11105908Y-50242517D01*
X11099501Y-50302116D01*
X11099500Y-50302135D01*
X11099500Y-52197870D01*
X11099501Y-52197876D01*
X11105908Y-52257483D01*
X11156202Y-52392328D01*
X11156206Y-52392335D01*
X11242452Y-52507544D01*
X11242455Y-52507547D01*
X11357664Y-52593793D01*
X11357671Y-52593797D01*
X11492517Y-52644091D01*
X11492516Y-52644091D01*
X11499444Y-52644835D01*
X11552127Y-52650500D01*
X13447872Y-52650499D01*
X13507483Y-52644091D01*
X13642331Y-52593796D01*
X13757546Y-52507546D01*
X13843796Y-52392331D01*
X13871429Y-52318243D01*
X13873601Y-52312420D01*
X13915471Y-52256486D01*
X13980936Y-52232068D01*
X14049209Y-52246919D01*
X14077464Y-52268071D01*
X14127636Y-52318243D01*
X14127641Y-52318247D01*
X14283192Y-52431260D01*
X14305978Y-52447815D01*
X14434375Y-52513237D01*
X14502393Y-52547895D01*
X14502396Y-52547896D01*
X14607221Y-52581955D01*
X14712049Y-52616015D01*
X14929778Y-52650500D01*
X14929779Y-52650500D01*
X15150221Y-52650500D01*
X15150222Y-52650500D01*
X15367951Y-52616015D01*
X15553605Y-52555692D01*
X15623446Y-52553698D01*
X15683279Y-52589778D01*
X15713540Y-52649431D01*
X15730261Y-52733492D01*
X15730264Y-52733501D01*
X15790602Y-52879172D01*
X15790609Y-52879185D01*
X15878210Y-53010288D01*
X15878213Y-53010292D01*
X15989707Y-53121786D01*
X15989711Y-53121789D01*
X16120814Y-53209390D01*
X16120827Y-53209397D01*
X16266498Y-53269735D01*
X16266503Y-53269737D01*
X16376987Y-53291713D01*
X16399691Y-53296230D01*
X16461602Y-53328615D01*
X16496176Y-53389330D01*
X16499500Y-53417847D01*
X16499500Y-58567059D01*
X16479815Y-58634098D01*
X16463181Y-58654740D01*
X16378213Y-58739707D01*
X16378210Y-58739711D01*
X16290609Y-58870814D01*
X16290602Y-58870827D01*
X16230264Y-59016498D01*
X16230261Y-59016510D01*
X16199500Y-59171153D01*
X16199500Y-59328846D01*
X16230261Y-59483489D01*
X16230264Y-59483501D01*
X16290602Y-59629172D01*
X16290609Y-59629185D01*
X16378210Y-59760288D01*
X16378213Y-59760292D01*
X16489707Y-59871786D01*
X16489711Y-59871789D01*
X16620814Y-59959390D01*
X16620827Y-59959397D01*
X16729425Y-60004379D01*
X16766503Y-60019737D01*
X16921153Y-60050499D01*
X16921156Y-60050500D01*
X16921158Y-60050500D01*
X17078844Y-60050500D01*
X17078845Y-60050499D01*
X17233497Y-60019737D01*
X17328048Y-59980572D01*
X17397517Y-59973104D01*
X17459996Y-60004379D01*
X17495648Y-60064468D01*
X17499500Y-60095134D01*
X17499500Y-99375500D01*
X17479815Y-99442539D01*
X17427011Y-99488294D01*
X17375500Y-99499500D01*
X624500Y-99499500D01*
X557461Y-99479815D01*
X511706Y-99427011D01*
X500500Y-99375500D01*
X500500Y-93685777D01*
X3349500Y-93685777D01*
X3349500Y-95314208D01*
X3349501Y-95314223D01*
X3359904Y-95446413D01*
X3359905Y-95446420D01*
X3414902Y-95664678D01*
X3414903Y-95664681D01*
X3507878Y-95869374D01*
X3507993Y-95869626D01*
X3507995Y-95869630D01*
X3507997Y-95869632D01*
X3636174Y-96054645D01*
X3636178Y-96054650D01*
X3636181Y-96054654D01*
X3795346Y-96213819D01*
X3795350Y-96213822D01*
X3795354Y-96213825D01*
X3934603Y-96310297D01*
X3980374Y-96342007D01*
X4185317Y-96435096D01*
X4185321Y-96435097D01*
X4403579Y-96490094D01*
X4403581Y-96490094D01*
X4403588Y-96490096D01*
X4535783Y-96500500D01*
X4664216Y-96500499D01*
X4796412Y-96490096D01*
X5014683Y-96435096D01*
X5219626Y-96342007D01*
X5404654Y-96213819D01*
X5563819Y-96054654D01*
X5692007Y-95869626D01*
X5785096Y-95664683D01*
X5840096Y-95446412D01*
X5850500Y-95314217D01*
X5850499Y-93685784D01*
X5850498Y-93685777D01*
X11849500Y-93685777D01*
X11849500Y-95314208D01*
X11849501Y-95314223D01*
X11859904Y-95446413D01*
X11859905Y-95446420D01*
X11914902Y-95664678D01*
X11914903Y-95664681D01*
X12007878Y-95869374D01*
X12007993Y-95869626D01*
X12007995Y-95869630D01*
X12007997Y-95869632D01*
X12136174Y-96054645D01*
X12136178Y-96054650D01*
X12136181Y-96054654D01*
X12295346Y-96213819D01*
X12295350Y-96213822D01*
X12295354Y-96213825D01*
X12434603Y-96310297D01*
X12480374Y-96342007D01*
X12685317Y-96435096D01*
X12685321Y-96435097D01*
X12903579Y-96490094D01*
X12903581Y-96490094D01*
X12903588Y-96490096D01*
X13035783Y-96500500D01*
X13164216Y-96500499D01*
X13296412Y-96490096D01*
X13514683Y-96435096D01*
X13719626Y-96342007D01*
X13904654Y-96213819D01*
X14063819Y-96054654D01*
X14192007Y-95869626D01*
X14237376Y-95769740D01*
X14283021Y-95716846D01*
X14350020Y-95697024D01*
X14417100Y-95716572D01*
X14462963Y-95769282D01*
X14463173Y-95769742D01*
X14508430Y-95869378D01*
X14508431Y-95869380D01*
X14636559Y-96054323D01*
X14636569Y-96054335D01*
X14795664Y-96213430D01*
X14795676Y-96213440D01*
X14980619Y-96341568D01*
X14980625Y-96341571D01*
X15185480Y-96434622D01*
X15350000Y-96476076D01*
X15350000Y-95299728D01*
X15388060Y-95391614D01*
X15458386Y-95461940D01*
X15550272Y-95500000D01*
X15649728Y-95500000D01*
X15741614Y-95461940D01*
X15811940Y-95391614D01*
X15850000Y-95299728D01*
X15850000Y-96476075D01*
X16014519Y-96434622D01*
X16219374Y-96341571D01*
X16219380Y-96341568D01*
X16404323Y-96213440D01*
X16404335Y-96213430D01*
X16563430Y-96054335D01*
X16563440Y-96054323D01*
X16691568Y-95869380D01*
X16691571Y-95869374D01*
X16784622Y-95664519D01*
X16839599Y-95446332D01*
X16849999Y-95314196D01*
X16850000Y-95314184D01*
X16850000Y-94750000D01*
X15850000Y-94750000D01*
X15850000Y-94250000D01*
X16849999Y-94250000D01*
X16849999Y-93685817D01*
X16849998Y-93685802D01*
X16839599Y-93553667D01*
X16784622Y-93335480D01*
X16691571Y-93130625D01*
X16691568Y-93130619D01*
X16563440Y-92945676D01*
X16563430Y-92945664D01*
X16404335Y-92786569D01*
X16404323Y-92786559D01*
X16219380Y-92658431D01*
X16219374Y-92658428D01*
X16014517Y-92565377D01*
X15850000Y-92523922D01*
X15850000Y-93700272D01*
X15811940Y-93608386D01*
X15741614Y-93538060D01*
X15649728Y-93500000D01*
X15550272Y-93500000D01*
X15458386Y-93538060D01*
X15388060Y-93608386D01*
X15350000Y-93700272D01*
X15350000Y-92523922D01*
X15185482Y-92565377D01*
X14980625Y-92658428D01*
X14980619Y-92658431D01*
X14795676Y-92786559D01*
X14795664Y-92786569D01*
X14636569Y-92945664D01*
X14636559Y-92945676D01*
X14508431Y-93130619D01*
X14508430Y-93130621D01*
X14463173Y-93230257D01*
X14417526Y-93283154D01*
X14350526Y-93302975D01*
X14283447Y-93283427D01*
X14237585Y-93230716D01*
X14237434Y-93230386D01*
X14192007Y-93130374D01*
X14064048Y-92945676D01*
X14063825Y-92945354D01*
X14063822Y-92945350D01*
X14063819Y-92945346D01*
X13904654Y-92786181D01*
X13904650Y-92786178D01*
X13904645Y-92786174D01*
X13719632Y-92657997D01*
X13719630Y-92657995D01*
X13719626Y-92657993D01*
X13515724Y-92565377D01*
X13514681Y-92564903D01*
X13514678Y-92564902D01*
X13296420Y-92509905D01*
X13296413Y-92509904D01*
X13230314Y-92504702D01*
X13164217Y-92499500D01*
X13164216Y-92499500D01*
X13035792Y-92499500D01*
X13035775Y-92499501D01*
X12903586Y-92509904D01*
X12903579Y-92509905D01*
X12685321Y-92564902D01*
X12685318Y-92564903D01*
X12480377Y-92657991D01*
X12480367Y-92657997D01*
X12295354Y-92786174D01*
X12295342Y-92786184D01*
X12136184Y-92945342D01*
X12136174Y-92945354D01*
X12007997Y-93130367D01*
X12007991Y-93130377D01*
X11914903Y-93335318D01*
X11914902Y-93335321D01*
X11859905Y-93553579D01*
X11859904Y-93553586D01*
X11849500Y-93685777D01*
X5850498Y-93685777D01*
X5840096Y-93553588D01*
X5785096Y-93335317D01*
X5692007Y-93130374D01*
X5564048Y-92945676D01*
X5563825Y-92945354D01*
X5563822Y-92945350D01*
X5563819Y-92945346D01*
X5404654Y-92786181D01*
X5404650Y-92786178D01*
X5404645Y-92786174D01*
X5219632Y-92657997D01*
X5219630Y-92657995D01*
X5219626Y-92657993D01*
X5015724Y-92565377D01*
X5014681Y-92564903D01*
X5014678Y-92564902D01*
X4796420Y-92509905D01*
X4796413Y-92509904D01*
X4730314Y-92504702D01*
X4664217Y-92499500D01*
X4664216Y-92499500D01*
X4535792Y-92499500D01*
X4535775Y-92499501D01*
X4403586Y-92509904D01*
X4403579Y-92509905D01*
X4185321Y-92564902D01*
X4185318Y-92564903D01*
X3980377Y-92657991D01*
X3980367Y-92657997D01*
X3795354Y-92786174D01*
X3795342Y-92786184D01*
X3636184Y-92945342D01*
X3636174Y-92945354D01*
X3507997Y-93130367D01*
X3507991Y-93130377D01*
X3414903Y-93335318D01*
X3414902Y-93335321D01*
X3359905Y-93553579D01*
X3359904Y-93553586D01*
X3349500Y-93685777D01*
X500500Y-93685777D01*
X500500Y-82685777D01*
X3349500Y-82685777D01*
X3349500Y-84314208D01*
X3349501Y-84314223D01*
X3359904Y-84446413D01*
X3359905Y-84446420D01*
X3414902Y-84664678D01*
X3414903Y-84664681D01*
X3507878Y-84869374D01*
X3507993Y-84869626D01*
X3507995Y-84869630D01*
X3507997Y-84869632D01*
X3636174Y-85054645D01*
X3636178Y-85054650D01*
X3636181Y-85054654D01*
X3795346Y-85213819D01*
X3795350Y-85213822D01*
X3795354Y-85213825D01*
X3934603Y-85310297D01*
X3980374Y-85342007D01*
X4185317Y-85435096D01*
X4185321Y-85435097D01*
X4403579Y-85490094D01*
X4403581Y-85490094D01*
X4403588Y-85490096D01*
X4535783Y-85500500D01*
X4664216Y-85500499D01*
X4796412Y-85490096D01*
X5014683Y-85435096D01*
X5219626Y-85342007D01*
X5404654Y-85213819D01*
X5563819Y-85054654D01*
X5692007Y-84869626D01*
X5785096Y-84664683D01*
X5840096Y-84446412D01*
X5850500Y-84314217D01*
X5850499Y-82685784D01*
X5850498Y-82685777D01*
X11849500Y-82685777D01*
X11849500Y-84314208D01*
X11849501Y-84314223D01*
X11859904Y-84446413D01*
X11859905Y-84446420D01*
X11914902Y-84664678D01*
X11914903Y-84664681D01*
X12007878Y-84869374D01*
X12007993Y-84869626D01*
X12007995Y-84869630D01*
X12007997Y-84869632D01*
X12136174Y-85054645D01*
X12136178Y-85054650D01*
X12136181Y-85054654D01*
X12295346Y-85213819D01*
X12295350Y-85213822D01*
X12295354Y-85213825D01*
X12434603Y-85310297D01*
X12480374Y-85342007D01*
X12685317Y-85435096D01*
X12685321Y-85435097D01*
X12903579Y-85490094D01*
X12903581Y-85490094D01*
X12903588Y-85490096D01*
X13035783Y-85500500D01*
X13164216Y-85500499D01*
X13296412Y-85490096D01*
X13514683Y-85435096D01*
X13719626Y-85342007D01*
X13904654Y-85213819D01*
X14063819Y-85054654D01*
X14192007Y-84869626D01*
X14237376Y-84769740D01*
X14283021Y-84716846D01*
X14350020Y-84697024D01*
X14417100Y-84716572D01*
X14462963Y-84769282D01*
X14463173Y-84769742D01*
X14508430Y-84869378D01*
X14508431Y-84869380D01*
X14636559Y-85054323D01*
X14636569Y-85054335D01*
X14795664Y-85213430D01*
X14795676Y-85213440D01*
X14980619Y-85341568D01*
X14980625Y-85341571D01*
X15185480Y-85434622D01*
X15350000Y-85476076D01*
X15350000Y-84299728D01*
X15388060Y-84391614D01*
X15458386Y-84461940D01*
X15550272Y-84500000D01*
X15649728Y-84500000D01*
X15741614Y-84461940D01*
X15811940Y-84391614D01*
X15850000Y-84299728D01*
X15850000Y-85476075D01*
X16014519Y-85434622D01*
X16219374Y-85341571D01*
X16219380Y-85341568D01*
X16404323Y-85213440D01*
X16404335Y-85213430D01*
X16563430Y-85054335D01*
X16563440Y-85054323D01*
X16691568Y-84869380D01*
X16691571Y-84869374D01*
X16784622Y-84664519D01*
X16839599Y-84446332D01*
X16849999Y-84314196D01*
X16850000Y-84314184D01*
X16850000Y-83750000D01*
X15850000Y-83750000D01*
X15850000Y-83250000D01*
X16849999Y-83250000D01*
X16849999Y-82685817D01*
X16849998Y-82685802D01*
X16839599Y-82553667D01*
X16784622Y-82335480D01*
X16691571Y-82130625D01*
X16691568Y-82130619D01*
X16563440Y-81945676D01*
X16563430Y-81945664D01*
X16404335Y-81786569D01*
X16404323Y-81786559D01*
X16219380Y-81658431D01*
X16219374Y-81658428D01*
X16014517Y-81565377D01*
X15850000Y-81523922D01*
X15850000Y-82700272D01*
X15811940Y-82608386D01*
X15741614Y-82538060D01*
X15649728Y-82500000D01*
X15550272Y-82500000D01*
X15458386Y-82538060D01*
X15388060Y-82608386D01*
X15350000Y-82700272D01*
X15350000Y-81523922D01*
X15185482Y-81565377D01*
X14980625Y-81658428D01*
X14980619Y-81658431D01*
X14795676Y-81786559D01*
X14795664Y-81786569D01*
X14636569Y-81945664D01*
X14636559Y-81945676D01*
X14508431Y-82130619D01*
X14508430Y-82130621D01*
X14463173Y-82230257D01*
X14417526Y-82283154D01*
X14350526Y-82302975D01*
X14283447Y-82283427D01*
X14237585Y-82230716D01*
X14237434Y-82230386D01*
X14192007Y-82130374D01*
X14064048Y-81945676D01*
X14063825Y-81945354D01*
X14063822Y-81945350D01*
X14063819Y-81945346D01*
X13904654Y-81786181D01*
X13904650Y-81786178D01*
X13904645Y-81786174D01*
X13719632Y-81657997D01*
X13719630Y-81657995D01*
X13719626Y-81657993D01*
X13515724Y-81565377D01*
X13514681Y-81564903D01*
X13514678Y-81564902D01*
X13296420Y-81509905D01*
X13296413Y-81509904D01*
X13230314Y-81504702D01*
X13164217Y-81499500D01*
X13164216Y-81499500D01*
X13035792Y-81499500D01*
X13035775Y-81499501D01*
X12903586Y-81509904D01*
X12903579Y-81509905D01*
X12685321Y-81564902D01*
X12685318Y-81564903D01*
X12480377Y-81657991D01*
X12480367Y-81657997D01*
X12295354Y-81786174D01*
X12295342Y-81786184D01*
X12136184Y-81945342D01*
X12136174Y-81945354D01*
X12007997Y-82130367D01*
X12007991Y-82130377D01*
X11914903Y-82335318D01*
X11914902Y-82335321D01*
X11859905Y-82553579D01*
X11859904Y-82553586D01*
X11849500Y-82685777D01*
X5850498Y-82685777D01*
X5840096Y-82553588D01*
X5785096Y-82335317D01*
X5692007Y-82130374D01*
X5564048Y-81945676D01*
X5563825Y-81945354D01*
X5563822Y-81945350D01*
X5563819Y-81945346D01*
X5404654Y-81786181D01*
X5404650Y-81786178D01*
X5404645Y-81786174D01*
X5219632Y-81657997D01*
X5219630Y-81657995D01*
X5219626Y-81657993D01*
X5015724Y-81565377D01*
X5014681Y-81564903D01*
X5014678Y-81564902D01*
X4796420Y-81509905D01*
X4796413Y-81509904D01*
X4730314Y-81504702D01*
X4664217Y-81499500D01*
X4664216Y-81499500D01*
X4535792Y-81499500D01*
X4535775Y-81499501D01*
X4403586Y-81509904D01*
X4403579Y-81509905D01*
X4185321Y-81564902D01*
X4185318Y-81564903D01*
X3980377Y-81657991D01*
X3980367Y-81657997D01*
X3795354Y-81786174D01*
X3795342Y-81786184D01*
X3636184Y-81945342D01*
X3636174Y-81945354D01*
X3507997Y-82130367D01*
X3507991Y-82130377D01*
X3414903Y-82335318D01*
X3414902Y-82335321D01*
X3359905Y-82553579D01*
X3359904Y-82553586D01*
X3349500Y-82685777D01*
X500500Y-82685777D01*
X500500Y-78421153D01*
X10949500Y-78421153D01*
X10949500Y-78578846D01*
X10980261Y-78733489D01*
X10980264Y-78733501D01*
X11040602Y-78879172D01*
X11040609Y-78879185D01*
X11128210Y-79010288D01*
X11128213Y-79010292D01*
X11239707Y-79121786D01*
X11239711Y-79121789D01*
X11370814Y-79209390D01*
X11370827Y-79209397D01*
X11516498Y-79269735D01*
X11516503Y-79269737D01*
X11671153Y-79300499D01*
X11671156Y-79300500D01*
X11671158Y-79300500D01*
X11828844Y-79300500D01*
X11828845Y-79300499D01*
X11983497Y-79269737D01*
X12129179Y-79209394D01*
X12260289Y-79121789D01*
X12371789Y-79010289D01*
X12459394Y-78879179D01*
X12519737Y-78733497D01*
X12539113Y-78636085D01*
X12550638Y-78578150D01*
X12583023Y-78516239D01*
X12584524Y-78514710D01*
X12868713Y-78230521D01*
X12868716Y-78230520D01*
X12980520Y-78118716D01*
X13030639Y-78031904D01*
X13059577Y-77981785D01*
X13100500Y-77829057D01*
X13100500Y-77670943D01*
X13100500Y-76662162D01*
X13120185Y-76595123D01*
X13172989Y-76549368D01*
X13198552Y-76540907D01*
X13202788Y-76539999D01*
X13202797Y-76539999D01*
X13369334Y-76484814D01*
X13518656Y-76392712D01*
X13642712Y-76268656D01*
X13734814Y-76119334D01*
X13758102Y-76049054D01*
X13762110Y-76041050D01*
X13780060Y-76021772D01*
X13795055Y-76000116D01*
X13803495Y-75996606D01*
X13809725Y-75989917D01*
X13835249Y-75983404D01*
X13859571Y-75973292D01*
X13875834Y-75973048D01*
X13877425Y-75972643D01*
X13878523Y-75973008D01*
X13882719Y-75972946D01*
X13920525Y-75975921D01*
X14600000Y-75296446D01*
X14600000Y-75302661D01*
X14627259Y-75404394D01*
X14679920Y-75495606D01*
X14754394Y-75570080D01*
X14845606Y-75622741D01*
X14947339Y-75650000D01*
X14953553Y-75650000D01*
X14274076Y-76329474D01*
X14318650Y-76361859D01*
X14500968Y-76454755D01*
X14695582Y-76517990D01*
X14897683Y-76550000D01*
X15102317Y-76550000D01*
X15304417Y-76517990D01*
X15499031Y-76454755D01*
X15681349Y-76361859D01*
X15725921Y-76329474D01*
X15046447Y-75650000D01*
X15052661Y-75650000D01*
X15154394Y-75622741D01*
X15245606Y-75570080D01*
X15320080Y-75495606D01*
X15372741Y-75404394D01*
X15400000Y-75302661D01*
X15400000Y-75296447D01*
X16079474Y-75975921D01*
X16111859Y-75931349D01*
X16204755Y-75749031D01*
X16267990Y-75554417D01*
X16300000Y-75352317D01*
X16300000Y-75147682D01*
X16267990Y-74945582D01*
X16204755Y-74750968D01*
X16111859Y-74568650D01*
X16079474Y-74524077D01*
X16079474Y-74524076D01*
X15400000Y-75203551D01*
X15400000Y-75197339D01*
X15372741Y-75095606D01*
X15320080Y-75004394D01*
X15245606Y-74929920D01*
X15154394Y-74877259D01*
X15052661Y-74850000D01*
X15046446Y-74850000D01*
X15725922Y-74170524D01*
X15725921Y-74170523D01*
X15681359Y-74138147D01*
X15681350Y-74138141D01*
X15499031Y-74045244D01*
X15304417Y-73982009D01*
X15102317Y-73950000D01*
X14897683Y-73950000D01*
X14695582Y-73982009D01*
X14500968Y-74045244D01*
X14318644Y-74138143D01*
X14274077Y-74170523D01*
X14274077Y-74170524D01*
X14953554Y-74850000D01*
X14947339Y-74850000D01*
X14845606Y-74877259D01*
X14754394Y-74929920D01*
X14679920Y-75004394D01*
X14627259Y-75095606D01*
X14600000Y-75197339D01*
X14600000Y-75203553D01*
X13920524Y-74524077D01*
X13882719Y-74527053D01*
X13814341Y-74512689D01*
X13764584Y-74463638D01*
X13762110Y-74458949D01*
X13758101Y-74450942D01*
X13734814Y-74380666D01*
X13642712Y-74231344D01*
X13518656Y-74107288D01*
X13369334Y-74015186D01*
X13202797Y-73960001D01*
X13202795Y-73960000D01*
X13100010Y-73949500D01*
X11899998Y-73949500D01*
X11899981Y-73949501D01*
X11797203Y-73960000D01*
X11797200Y-73960001D01*
X11630668Y-74015185D01*
X11630663Y-74015187D01*
X11481342Y-74107289D01*
X11357289Y-74231342D01*
X11265187Y-74380663D01*
X11265186Y-74380666D01*
X11210001Y-74547203D01*
X11210001Y-74547204D01*
X11210000Y-74547204D01*
X11199500Y-74649983D01*
X11199500Y-75850001D01*
X11199501Y-75850018D01*
X11210000Y-75952796D01*
X11210001Y-75952799D01*
X11225681Y-76000116D01*
X11265186Y-76119334D01*
X11357288Y-76268656D01*
X11481344Y-76392712D01*
X11630666Y-76484814D01*
X11797203Y-76539999D01*
X11797209Y-76539999D01*
X11801448Y-76540907D01*
X11862884Y-76574185D01*
X11896576Y-76635394D01*
X11899500Y-76662162D01*
X11899500Y-77449903D01*
X11879815Y-77516942D01*
X11863185Y-77537579D01*
X11735339Y-77665426D01*
X11674016Y-77698910D01*
X11671850Y-77699361D01*
X11516508Y-77730261D01*
X11516498Y-77730264D01*
X11370827Y-77790602D01*
X11370814Y-77790609D01*
X11239711Y-77878210D01*
X11239707Y-77878213D01*
X11128213Y-77989707D01*
X11128210Y-77989711D01*
X11040609Y-78120814D01*
X11040602Y-78120827D01*
X10980264Y-78266498D01*
X10980261Y-78266510D01*
X10949500Y-78421153D01*
X500500Y-78421153D01*
X500500Y-74649983D01*
X2662000Y-74649983D01*
X2662000Y-75850001D01*
X2662001Y-75850018D01*
X2672500Y-75952796D01*
X2672501Y-75952799D01*
X2688181Y-76000116D01*
X2727686Y-76119334D01*
X2819788Y-76268656D01*
X2943844Y-76392712D01*
X3093166Y-76484814D01*
X3259703Y-76539999D01*
X3362491Y-76550500D01*
X4562508Y-76550499D01*
X4562998Y-76550449D01*
X4580395Y-76548671D01*
X4665297Y-76539999D01*
X4831834Y-76484814D01*
X4981156Y-76392712D01*
X5105212Y-76268656D01*
X5197314Y-76119334D01*
X5220602Y-76049054D01*
X5224610Y-76041050D01*
X5242560Y-76021772D01*
X5257555Y-76000116D01*
X5265995Y-75996606D01*
X5272225Y-75989917D01*
X5297749Y-75983404D01*
X5322071Y-75973292D01*
X5338334Y-75973048D01*
X5339925Y-75972643D01*
X5341023Y-75973008D01*
X5345219Y-75972946D01*
X5383025Y-75975921D01*
X6062500Y-75296446D01*
X6062500Y-75302661D01*
X6089759Y-75404394D01*
X6142420Y-75495606D01*
X6216894Y-75570080D01*
X6308106Y-75622741D01*
X6409839Y-75650000D01*
X6416053Y-75650000D01*
X5736576Y-76329474D01*
X5781150Y-76361859D01*
X5963468Y-76454755D01*
X6158082Y-76517990D01*
X6360183Y-76550000D01*
X6564817Y-76550000D01*
X6766917Y-76517990D01*
X6961531Y-76454755D01*
X7143849Y-76361859D01*
X7188421Y-76329474D01*
X6508947Y-75650000D01*
X6515161Y-75650000D01*
X6616894Y-75622741D01*
X6708106Y-75570080D01*
X6782580Y-75495606D01*
X6835241Y-75404394D01*
X6862500Y-75302661D01*
X6862500Y-75296447D01*
X7541974Y-75975921D01*
X7574359Y-75931349D01*
X7667255Y-75749031D01*
X7730490Y-75554417D01*
X7762500Y-75352317D01*
X7762500Y-75147682D01*
X7730490Y-74945582D01*
X7667255Y-74750968D01*
X7574359Y-74568650D01*
X7541974Y-74524077D01*
X7541974Y-74524076D01*
X6862500Y-75203551D01*
X6862500Y-75197339D01*
X6835241Y-75095606D01*
X6782580Y-75004394D01*
X6708106Y-74929920D01*
X6616894Y-74877259D01*
X6515161Y-74850000D01*
X6508946Y-74850000D01*
X7188422Y-74170524D01*
X7188421Y-74170523D01*
X7143859Y-74138147D01*
X7143850Y-74138141D01*
X6961531Y-74045244D01*
X6766917Y-73982009D01*
X6564817Y-73950000D01*
X6360183Y-73950000D01*
X6158082Y-73982009D01*
X5963468Y-74045244D01*
X5781144Y-74138143D01*
X5736577Y-74170523D01*
X5736577Y-74170524D01*
X6416054Y-74850000D01*
X6409839Y-74850000D01*
X6308106Y-74877259D01*
X6216894Y-74929920D01*
X6142420Y-75004394D01*
X6089759Y-75095606D01*
X6062500Y-75197339D01*
X6062500Y-75203553D01*
X5383024Y-74524077D01*
X5345219Y-74527053D01*
X5276841Y-74512689D01*
X5227084Y-74463638D01*
X5224610Y-74458949D01*
X5220601Y-74450942D01*
X5197314Y-74380666D01*
X5105212Y-74231344D01*
X4981156Y-74107288D01*
X4831834Y-74015186D01*
X4665297Y-73960001D01*
X4665295Y-73960000D01*
X4562510Y-73949500D01*
X3362498Y-73949500D01*
X3362481Y-73949501D01*
X3259703Y-73960000D01*
X3259700Y-73960001D01*
X3093168Y-74015185D01*
X3093163Y-74015187D01*
X2943842Y-74107289D01*
X2819789Y-74231342D01*
X2727687Y-74380663D01*
X2727686Y-74380666D01*
X2672501Y-74547203D01*
X2672501Y-74547204D01*
X2672500Y-74547204D01*
X2662000Y-74649983D01*
X500500Y-74649983D01*
X500500Y-64931941D01*
X520185Y-64864902D01*
X572989Y-64819147D01*
X642147Y-64809203D01*
X705703Y-64838228D01*
X712181Y-64844260D01*
X739707Y-64871786D01*
X739711Y-64871789D01*
X870814Y-64959390D01*
X870827Y-64959397D01*
X1016498Y-65019735D01*
X1016503Y-65019737D01*
X1167569Y-65049786D01*
X1171153Y-65050499D01*
X1171156Y-65050500D01*
X1171158Y-65050500D01*
X1328844Y-65050500D01*
X1328845Y-65050499D01*
X1483497Y-65019737D01*
X1629179Y-64959394D01*
X1760289Y-64871789D01*
X1871789Y-64760289D01*
X1959394Y-64629179D01*
X2019737Y-64483497D01*
X2050500Y-64328842D01*
X2050500Y-64171158D01*
X2050500Y-64171155D01*
X2032979Y-64083073D01*
X2032979Y-64083072D01*
X2019738Y-64016510D01*
X2019737Y-64016503D01*
X2019735Y-64016498D01*
X1959397Y-63870827D01*
X1959390Y-63870814D01*
X1871398Y-63739125D01*
X1850520Y-63672447D01*
X1850500Y-63670234D01*
X1850500Y-61523713D01*
X2609500Y-61523713D01*
X2609500Y-61736286D01*
X2642753Y-61946239D01*
X2708444Y-62148414D01*
X2804951Y-62337820D01*
X2929890Y-62509786D01*
X3080213Y-62660109D01*
X3252179Y-62785048D01*
X3252181Y-62785049D01*
X3252184Y-62785051D01*
X3261493Y-62789794D01*
X3312290Y-62837766D01*
X3329087Y-62905587D01*
X3306552Y-62971722D01*
X3261505Y-63010760D01*
X3252446Y-63015376D01*
X3252440Y-63015380D01*
X3198282Y-63054727D01*
X3198282Y-63054728D01*
X3830591Y-63687037D01*
X3767007Y-63704075D01*
X3652993Y-63769901D01*
X3559901Y-63862993D01*
X3494075Y-63977007D01*
X3477037Y-64040591D01*
X2844728Y-63408282D01*
X2844727Y-63408282D01*
X2805380Y-63462439D01*
X2708904Y-63651782D01*
X2643242Y-63853869D01*
X2643242Y-63853872D01*
X2610000Y-64063753D01*
X2610000Y-64276246D01*
X2643242Y-64486127D01*
X2643242Y-64486130D01*
X2708904Y-64688217D01*
X2805375Y-64877550D01*
X2844728Y-64931716D01*
X3477037Y-64299408D01*
X3494075Y-64362993D01*
X3559901Y-64477007D01*
X3652993Y-64570099D01*
X3767007Y-64635925D01*
X3830591Y-64652962D01*
X3229971Y-65253581D01*
X3308711Y-65370895D01*
X3309920Y-65374729D01*
X3312844Y-65377491D01*
X3320343Y-65407778D01*
X3329727Y-65437529D01*
X3328671Y-65441408D01*
X3329638Y-65445312D01*
X3319573Y-65474844D01*
X3311383Y-65504947D01*
X3308397Y-65507640D01*
X3307100Y-65511447D01*
X3262051Y-65550483D01*
X3252440Y-65555380D01*
X3198282Y-65594727D01*
X3198282Y-65594728D01*
X3830591Y-66227037D01*
X3767007Y-66244075D01*
X3652993Y-66309901D01*
X3559901Y-66402993D01*
X3494075Y-66517007D01*
X3477037Y-66580591D01*
X2844728Y-65948282D01*
X2844727Y-65948282D01*
X2805380Y-66002439D01*
X2708904Y-66191782D01*
X2643242Y-66393869D01*
X2643242Y-66393872D01*
X2610000Y-66603753D01*
X2610000Y-66816246D01*
X2643242Y-67026127D01*
X2643242Y-67026130D01*
X2708904Y-67228217D01*
X2805375Y-67417550D01*
X2844728Y-67471716D01*
X3477037Y-66839408D01*
X3494075Y-66902993D01*
X3559901Y-67017007D01*
X3652993Y-67110099D01*
X3767007Y-67175925D01*
X3830591Y-67192962D01*
X3229971Y-67793581D01*
X3308711Y-67910895D01*
X3309920Y-67914729D01*
X3312844Y-67917491D01*
X3320343Y-67947778D01*
X3329727Y-67977529D01*
X3328671Y-67981408D01*
X3329638Y-67985312D01*
X3319573Y-68014844D01*
X3311383Y-68044947D01*
X3308397Y-68047640D01*
X3307100Y-68051447D01*
X3262051Y-68090483D01*
X3252440Y-68095380D01*
X3198282Y-68134727D01*
X3198282Y-68134728D01*
X3830591Y-68767037D01*
X3767007Y-68784075D01*
X3652993Y-68849901D01*
X3559901Y-68942993D01*
X3494075Y-69057007D01*
X3477037Y-69120591D01*
X2844728Y-68488282D01*
X2844727Y-68488282D01*
X2805380Y-68542439D01*
X2708904Y-68731782D01*
X2643242Y-68933869D01*
X2643242Y-68933872D01*
X2610000Y-69143753D01*
X2610000Y-69356246D01*
X2643242Y-69566127D01*
X2643242Y-69566130D01*
X2708904Y-69768217D01*
X2805375Y-69957550D01*
X2844728Y-70011716D01*
X3477037Y-69379408D01*
X3494075Y-69442993D01*
X3559901Y-69557007D01*
X3652993Y-69650099D01*
X3767007Y-69715925D01*
X3830590Y-69732962D01*
X3198282Y-70365269D01*
X3198282Y-70365270D01*
X3252449Y-70404624D01*
X3441782Y-70501095D01*
X3643870Y-70566757D01*
X3853754Y-70600000D01*
X4066246Y-70600000D01*
X4276127Y-70566757D01*
X4276130Y-70566757D01*
X4478217Y-70501095D01*
X4667554Y-70404622D01*
X4721716Y-70365270D01*
X4721717Y-70365270D01*
X4089408Y-69732962D01*
X4152993Y-69715925D01*
X4267007Y-69650099D01*
X4360099Y-69557007D01*
X4425925Y-69442993D01*
X4442962Y-69379408D01*
X5113181Y-70049628D01*
X5146666Y-70110951D01*
X5149500Y-70137300D01*
X5149500Y-70147865D01*
X5149501Y-70147876D01*
X5155908Y-70207483D01*
X5206202Y-70342328D01*
X5206206Y-70342335D01*
X5292452Y-70457544D01*
X5292455Y-70457547D01*
X5407664Y-70543793D01*
X5407671Y-70543797D01*
X5542517Y-70594091D01*
X5542516Y-70594091D01*
X5549444Y-70594835D01*
X5602127Y-70600500D01*
X7397872Y-70600499D01*
X7457483Y-70594091D01*
X7592331Y-70543796D01*
X7707546Y-70457546D01*
X7793796Y-70342331D01*
X7844091Y-70207483D01*
X7850500Y-70147873D01*
X7850499Y-68352128D01*
X7844091Y-68292517D01*
X7793796Y-68157669D01*
X7793795Y-68157668D01*
X7793793Y-68157664D01*
X7707547Y-68042455D01*
X7707544Y-68042452D01*
X7592335Y-67956206D01*
X7592328Y-67956202D01*
X7460917Y-67907189D01*
X7404983Y-67865318D01*
X7380566Y-67799853D01*
X7395418Y-67731580D01*
X7416563Y-67703332D01*
X7530104Y-67589792D01*
X7655051Y-67417816D01*
X7751557Y-67228412D01*
X7817246Y-67026243D01*
X7850500Y-66816287D01*
X7850500Y-66603713D01*
X7817246Y-66393757D01*
X7751557Y-66191588D01*
X7655051Y-66002184D01*
X7655049Y-66002181D01*
X7655048Y-66002179D01*
X7530109Y-65830213D01*
X7379786Y-65679890D01*
X7207820Y-65554951D01*
X7207115Y-65554591D01*
X7199054Y-65550485D01*
X7148259Y-65502512D01*
X7131463Y-65434692D01*
X7153999Y-65368556D01*
X7199054Y-65329515D01*
X7207816Y-65325051D01*
X7306187Y-65253581D01*
X7379786Y-65200109D01*
X7379788Y-65200106D01*
X7379792Y-65200104D01*
X7530104Y-65049792D01*
X7530106Y-65049788D01*
X7530109Y-65049786D01*
X7655048Y-64877820D01*
X7655050Y-64877817D01*
X7655051Y-64877816D01*
X7751557Y-64688412D01*
X7817246Y-64486243D01*
X7850500Y-64276287D01*
X7850500Y-64063713D01*
X7817246Y-63853757D01*
X7751557Y-63651588D01*
X7655051Y-63462184D01*
X7655049Y-63462181D01*
X7655048Y-63462179D01*
X7530109Y-63290213D01*
X7379786Y-63139890D01*
X7207820Y-63014951D01*
X7199600Y-63010763D01*
X7199054Y-63010485D01*
X7148259Y-62962512D01*
X7131463Y-62894692D01*
X7153999Y-62828556D01*
X7199054Y-62789515D01*
X7207816Y-62785051D01*
X7229789Y-62769086D01*
X7379786Y-62660109D01*
X7379788Y-62660106D01*
X7379792Y-62660104D01*
X7530104Y-62509792D01*
X7530106Y-62509788D01*
X7530109Y-62509786D01*
X7655048Y-62337820D01*
X7655047Y-62337820D01*
X7655051Y-62337816D01*
X7751557Y-62148412D01*
X7817246Y-61946243D01*
X7850500Y-61736287D01*
X7850500Y-61523713D01*
X7817246Y-61313757D01*
X7751557Y-61111588D01*
X7655051Y-60922184D01*
X7655049Y-60922181D01*
X7655048Y-60922179D01*
X7530109Y-60750213D01*
X7379786Y-60599890D01*
X7207820Y-60474951D01*
X7018414Y-60378444D01*
X7018413Y-60378443D01*
X7018412Y-60378443D01*
X6816243Y-60312754D01*
X6816241Y-60312753D01*
X6816240Y-60312753D01*
X6654957Y-60287208D01*
X6606287Y-60279500D01*
X6393713Y-60279500D01*
X6345042Y-60287208D01*
X6183760Y-60312753D01*
X5981585Y-60378444D01*
X5792179Y-60474951D01*
X5620213Y-60599890D01*
X5469890Y-60750213D01*
X5344949Y-60922182D01*
X5340484Y-60930946D01*
X5292509Y-60981742D01*
X5224688Y-60998536D01*
X5158553Y-60975998D01*
X5119516Y-60930946D01*
X5115050Y-60922182D01*
X4990109Y-60750213D01*
X4839786Y-60599890D01*
X4667820Y-60474951D01*
X4478414Y-60378444D01*
X4478413Y-60378443D01*
X4478412Y-60378443D01*
X4276243Y-60312754D01*
X4276241Y-60312753D01*
X4276240Y-60312753D01*
X4114957Y-60287208D01*
X4066287Y-60279500D01*
X3853713Y-60279500D01*
X3805042Y-60287208D01*
X3643760Y-60312753D01*
X3441585Y-60378444D01*
X3252179Y-60474951D01*
X3080213Y-60599890D01*
X2929890Y-60750213D01*
X2804951Y-60922179D01*
X2708444Y-61111585D01*
X2642753Y-61313760D01*
X2609500Y-61523713D01*
X1850500Y-61523713D01*
X1850500Y-55762304D01*
X1870185Y-55695265D01*
X1922989Y-55649510D01*
X1992147Y-55639566D01*
X2047386Y-55661986D01*
X2213828Y-55782914D01*
X2424197Y-55890102D01*
X2648752Y-55963065D01*
X2648751Y-55963065D01*
X2881948Y-56000000D01*
X3118052Y-56000000D01*
X3351247Y-55963065D01*
X3575802Y-55890102D01*
X3786163Y-55782918D01*
X3786169Y-55782914D01*
X3869104Y-55722658D01*
X3869105Y-55722658D01*
X3170234Y-55023787D01*
X3212292Y-55012518D01*
X3337708Y-54940110D01*
X3440110Y-54837708D01*
X3512518Y-54712292D01*
X3523787Y-54670233D01*
X4222658Y-55369105D01*
X4222658Y-55369104D01*
X4282914Y-55286169D01*
X4282918Y-55286163D01*
X4390102Y-55075802D01*
X4463065Y-54851247D01*
X4500000Y-54618052D01*
X4500000Y-54381947D01*
X4499993Y-54381902D01*
X5999500Y-54381902D01*
X5999500Y-54618097D01*
X6036446Y-54851368D01*
X6109433Y-55075996D01*
X6216519Y-55286163D01*
X6216657Y-55286433D01*
X6355483Y-55477510D01*
X6522490Y-55644517D01*
X6713567Y-55783343D01*
X6812991Y-55834002D01*
X6924003Y-55890566D01*
X6924005Y-55890566D01*
X6924008Y-55890568D01*
X7044412Y-55929689D01*
X7148631Y-55963553D01*
X7381903Y-56000500D01*
X7381908Y-56000500D01*
X7618097Y-56000500D01*
X7851368Y-55963553D01*
X7852870Y-55963065D01*
X8075992Y-55890568D01*
X8286433Y-55783343D01*
X8477510Y-55644517D01*
X8644517Y-55477510D01*
X8783343Y-55286433D01*
X8890568Y-55075992D01*
X8963553Y-54851368D01*
X8965717Y-54837708D01*
X9000500Y-54618097D01*
X9000500Y-54381902D01*
X8963553Y-54148631D01*
X8890566Y-53924003D01*
X8834002Y-53812991D01*
X8783343Y-53713567D01*
X8644517Y-53522490D01*
X8477510Y-53355483D01*
X8286433Y-53216657D01*
X8075996Y-53109433D01*
X7851368Y-53036446D01*
X7618097Y-52999500D01*
X7618092Y-52999500D01*
X7381908Y-52999500D01*
X7381903Y-52999500D01*
X7148631Y-53036446D01*
X6924003Y-53109433D01*
X6713566Y-53216657D01*
X6640509Y-53269737D01*
X6522490Y-53355483D01*
X6522488Y-53355485D01*
X6522487Y-53355485D01*
X6355485Y-53522487D01*
X6355485Y-53522488D01*
X6355483Y-53522490D01*
X6295862Y-53604550D01*
X6216657Y-53713566D01*
X6109433Y-53924003D01*
X6036446Y-54148631D01*
X5999500Y-54381902D01*
X4499993Y-54381902D01*
X4463065Y-54148752D01*
X4390102Y-53924197D01*
X4282914Y-53713828D01*
X4222658Y-53630894D01*
X4222658Y-53630893D01*
X3523787Y-54329765D01*
X3512518Y-54287708D01*
X3440110Y-54162292D01*
X3337708Y-54059890D01*
X3212292Y-53987482D01*
X3170233Y-53976212D01*
X3869105Y-53277340D01*
X3869104Y-53277338D01*
X3786174Y-53217087D01*
X3575802Y-53109897D01*
X3351247Y-53036934D01*
X3351248Y-53036934D01*
X3118052Y-53000000D01*
X2881948Y-53000000D01*
X2648752Y-53036934D01*
X2424197Y-53109897D01*
X2213825Y-53217087D01*
X2047385Y-53338013D01*
X1981579Y-53361493D01*
X1913525Y-53345668D01*
X1864830Y-53295562D01*
X1850500Y-53237695D01*
X1850500Y-49262304D01*
X1870185Y-49195265D01*
X1922989Y-49149510D01*
X1992147Y-49139566D01*
X2047386Y-49161986D01*
X2213828Y-49282914D01*
X2424197Y-49390102D01*
X2648752Y-49463065D01*
X2648751Y-49463065D01*
X2881948Y-49500000D01*
X3118052Y-49500000D01*
X3351247Y-49463065D01*
X3575802Y-49390102D01*
X3786163Y-49282918D01*
X3786169Y-49282914D01*
X3869104Y-49222658D01*
X3869105Y-49222658D01*
X3170234Y-48523787D01*
X3212292Y-48512518D01*
X3337708Y-48440110D01*
X3440110Y-48337708D01*
X3512518Y-48212292D01*
X3523787Y-48170233D01*
X4222658Y-48869105D01*
X4222658Y-48869104D01*
X4282914Y-48786169D01*
X4282918Y-48786163D01*
X4390102Y-48575802D01*
X4463065Y-48351247D01*
X4500000Y-48118052D01*
X4500000Y-47881947D01*
X4499993Y-47881902D01*
X5999500Y-47881902D01*
X5999500Y-48118097D01*
X6036446Y-48351368D01*
X6109433Y-48575996D01*
X6216519Y-48786163D01*
X6216657Y-48786433D01*
X6355483Y-48977510D01*
X6522490Y-49144517D01*
X6713567Y-49283343D01*
X6812991Y-49334002D01*
X6924003Y-49390566D01*
X6924005Y-49390566D01*
X6924008Y-49390568D01*
X7044412Y-49429689D01*
X7148631Y-49463553D01*
X7381903Y-49500500D01*
X7381908Y-49500500D01*
X7618097Y-49500500D01*
X7851368Y-49463553D01*
X7852870Y-49463065D01*
X8075992Y-49390568D01*
X8286433Y-49283343D01*
X8477510Y-49144517D01*
X8644517Y-48977510D01*
X8783343Y-48786433D01*
X8890568Y-48575992D01*
X8963553Y-48351368D01*
X8965717Y-48337708D01*
X9000500Y-48118097D01*
X9000500Y-47881902D01*
X8963553Y-47648631D01*
X8934719Y-47559890D01*
X8890568Y-47424008D01*
X8858780Y-47361622D01*
X8845885Y-47292954D01*
X8872161Y-47228214D01*
X8881574Y-47217659D01*
X8962417Y-47136818D01*
X9023740Y-47103333D01*
X9050097Y-47100500D01*
X9913331Y-47100500D01*
X9913347Y-47100501D01*
X9920943Y-47100501D01*
X10079054Y-47100501D01*
X10079057Y-47100501D01*
X10231785Y-47059577D01*
X10296021Y-47022490D01*
X10368716Y-46980520D01*
X10480520Y-46868716D01*
X10480520Y-46868714D01*
X10490724Y-46858511D01*
X10490727Y-46858506D01*
X11212417Y-46136819D01*
X11273740Y-46103334D01*
X11300098Y-46100500D01*
X13420234Y-46100500D01*
X13487273Y-46120185D01*
X13489125Y-46121398D01*
X13620814Y-46209390D01*
X13620827Y-46209397D01*
X13766498Y-46269735D01*
X13766503Y-46269737D01*
X13921153Y-46300499D01*
X13921156Y-46300500D01*
X13921158Y-46300500D01*
X14078844Y-46300500D01*
X14078845Y-46300499D01*
X14233497Y-46269737D01*
X14379179Y-46209394D01*
X14510289Y-46121789D01*
X14621789Y-46010289D01*
X14709394Y-45879179D01*
X14769737Y-45733497D01*
X14800500Y-45578842D01*
X14800500Y-45421158D01*
X14800500Y-45421155D01*
X14800499Y-45421153D01*
X14769738Y-45266510D01*
X14769737Y-45266503D01*
X14742191Y-45200000D01*
X14709397Y-45120827D01*
X14709390Y-45120814D01*
X14621789Y-44989711D01*
X14621786Y-44989707D01*
X14510292Y-44878213D01*
X14510288Y-44878210D01*
X14379185Y-44790609D01*
X14379172Y-44790602D01*
X14233501Y-44730264D01*
X14233489Y-44730261D01*
X14078845Y-44699500D01*
X14078842Y-44699500D01*
X13921158Y-44699500D01*
X13921155Y-44699500D01*
X13766510Y-44730261D01*
X13766498Y-44730264D01*
X13620827Y-44790602D01*
X13620814Y-44790609D01*
X13489125Y-44878602D01*
X13422447Y-44899480D01*
X13420234Y-44899500D01*
X11086670Y-44899500D01*
X11086654Y-44899499D01*
X11079058Y-44899499D01*
X10920943Y-44899499D01*
X10844579Y-44919961D01*
X10768214Y-44940423D01*
X10768209Y-44940426D01*
X10631290Y-45019475D01*
X10631282Y-45019481D01*
X9787584Y-45863181D01*
X9726261Y-45896666D01*
X9699903Y-45899500D01*
X8836669Y-45899500D01*
X8836653Y-45899499D01*
X8829057Y-45899499D01*
X8670943Y-45899499D01*
X8563587Y-45928265D01*
X8518210Y-45940424D01*
X8518209Y-45940425D01*
X8468096Y-45969359D01*
X8468095Y-45969360D01*
X8424689Y-45994420D01*
X8381285Y-46019479D01*
X8381282Y-46019481D01*
X8269478Y-46131286D01*
X7907222Y-46493541D01*
X7845899Y-46527026D01*
X7800143Y-46528333D01*
X7618097Y-46499500D01*
X7618092Y-46499500D01*
X7381908Y-46499500D01*
X7381903Y-46499500D01*
X7148631Y-46536446D01*
X6924003Y-46609433D01*
X6713566Y-46716657D01*
X6630047Y-46777338D01*
X6522490Y-46855483D01*
X6522488Y-46855485D01*
X6522487Y-46855485D01*
X6355485Y-47022487D01*
X6216657Y-47213566D01*
X6109433Y-47424003D01*
X6036446Y-47648631D01*
X5999500Y-47881902D01*
X4499993Y-47881902D01*
X4463065Y-47648752D01*
X4390102Y-47424197D01*
X4282914Y-47213828D01*
X4222658Y-47130894D01*
X4222658Y-47130893D01*
X3523787Y-47829765D01*
X3512518Y-47787708D01*
X3440110Y-47662292D01*
X3337708Y-47559890D01*
X3212292Y-47487482D01*
X3170233Y-47476212D01*
X3869105Y-46777340D01*
X3869104Y-46777338D01*
X3786174Y-46717087D01*
X3575802Y-46609897D01*
X3351247Y-46536934D01*
X3351248Y-46536934D01*
X3118052Y-46500000D01*
X2881948Y-46500000D01*
X2648752Y-46536934D01*
X2424197Y-46609897D01*
X2213825Y-46717087D01*
X2047385Y-46838013D01*
X1981579Y-46861493D01*
X1913525Y-46845668D01*
X1864830Y-46795562D01*
X1850500Y-46737695D01*
X1850500Y-32999983D01*
X2634500Y-32999983D01*
X2634500Y-34340001D01*
X2634501Y-34340018D01*
X2645000Y-34442796D01*
X2645001Y-34442799D01*
X2700185Y-34609331D01*
X2700186Y-34609334D01*
X2792288Y-34758656D01*
X2916344Y-34882712D01*
X3065666Y-34974814D01*
X3065668Y-34974814D01*
X3065669Y-34974815D01*
X3066348Y-34975132D01*
X3066735Y-34975473D01*
X3071813Y-34978605D01*
X3071277Y-34979472D01*
X3118787Y-35021304D01*
X3137939Y-35088498D01*
X3117723Y-35155379D01*
X3101625Y-35175195D01*
X2959640Y-35317180D01*
X2832843Y-35491700D01*
X2734909Y-35683908D01*
X2668245Y-35889077D01*
X2634500Y-36102133D01*
X2634500Y-36317866D01*
X2668245Y-36530922D01*
X2668246Y-36530926D01*
X2734908Y-36736089D01*
X2832843Y-36928299D01*
X2959641Y-37102821D01*
X3112179Y-37255359D01*
X3233454Y-37343471D01*
X3283294Y-37379682D01*
X3325959Y-37435012D01*
X3331938Y-37504626D01*
X3299332Y-37566421D01*
X3283294Y-37580318D01*
X3112179Y-37704641D01*
X3112177Y-37704643D01*
X3112176Y-37704643D01*
X2959643Y-37857176D01*
X2959643Y-37857177D01*
X2959641Y-37857179D01*
X2905186Y-37932129D01*
X2832843Y-38031700D01*
X2734909Y-38223908D01*
X2668245Y-38429077D01*
X2634500Y-38642133D01*
X2634500Y-38857866D01*
X2668245Y-39070922D01*
X2668246Y-39070926D01*
X2734908Y-39276089D01*
X2832843Y-39468299D01*
X2959641Y-39642821D01*
X3112179Y-39795359D01*
X3233454Y-39883471D01*
X3283294Y-39919682D01*
X3325959Y-39975012D01*
X3331938Y-40044626D01*
X3299332Y-40106421D01*
X3283294Y-40120318D01*
X3112179Y-40244641D01*
X3112177Y-40244643D01*
X3112176Y-40244643D01*
X2959643Y-40397176D01*
X2959643Y-40397177D01*
X2959641Y-40397179D01*
X2952609Y-40406858D01*
X2832843Y-40571700D01*
X2734909Y-40763908D01*
X2668245Y-40969077D01*
X2634500Y-41182133D01*
X2634500Y-41397866D01*
X2652307Y-41510292D01*
X2668246Y-41610926D01*
X2734908Y-41816089D01*
X2832843Y-42008299D01*
X2959641Y-42182821D01*
X3112179Y-42335359D01*
X3283720Y-42459991D01*
X3326385Y-42515321D01*
X3332364Y-42584935D01*
X3299758Y-42646730D01*
X3283720Y-42660627D01*
X3112503Y-42785024D01*
X2960025Y-42937502D01*
X2960025Y-42937503D01*
X2833271Y-43111963D01*
X2735372Y-43304098D01*
X2668733Y-43509190D01*
X2657519Y-43580000D01*
X3687291Y-43580000D01*
X3675548Y-43600339D01*
X3635000Y-43751667D01*
X3635000Y-43908333D01*
X3675548Y-44059661D01*
X3687291Y-44080000D01*
X2657519Y-44080000D01*
X2668733Y-44150809D01*
X2735372Y-44355901D01*
X2833271Y-44548036D01*
X2960025Y-44722496D01*
X2960025Y-44722497D01*
X3112502Y-44874974D01*
X3286963Y-45001728D01*
X3479098Y-45099627D01*
X3684190Y-45166265D01*
X3897180Y-45200000D01*
X3980000Y-45200000D01*
X3980000Y-44372709D01*
X4000339Y-44384452D01*
X4151667Y-44425000D01*
X4308333Y-44425000D01*
X4459661Y-44384452D01*
X4480000Y-44372709D01*
X4480000Y-45200000D01*
X4562820Y-45200000D01*
X4775809Y-45166265D01*
X4980901Y-45099627D01*
X5173036Y-45001728D01*
X5347496Y-44874974D01*
X5347497Y-44874974D01*
X5499974Y-44722497D01*
X5499974Y-44722496D01*
X5626728Y-44548036D01*
X5724627Y-44355901D01*
X5791266Y-44150809D01*
X5802481Y-44080000D01*
X4772709Y-44080000D01*
X4784452Y-44059661D01*
X4825000Y-43908333D01*
X4825000Y-43751667D01*
X4784452Y-43600339D01*
X4772709Y-43580000D01*
X5802481Y-43580000D01*
X5791266Y-43509190D01*
X5724627Y-43304098D01*
X5626728Y-43111963D01*
X5499974Y-42937503D01*
X5499974Y-42937502D01*
X5347497Y-42785025D01*
X5176279Y-42660627D01*
X5133614Y-42605297D01*
X5127635Y-42535683D01*
X5160241Y-42473888D01*
X5176280Y-42459991D01*
X5347821Y-42335359D01*
X5500359Y-42182821D01*
X5627157Y-42008299D01*
X5725092Y-41816089D01*
X5791754Y-41610926D01*
X5807693Y-41510288D01*
X5825500Y-41397866D01*
X5825500Y-41182133D01*
X5791754Y-40969077D01*
X5791754Y-40969074D01*
X5725092Y-40763911D01*
X5627157Y-40571701D01*
X5500359Y-40397179D01*
X5347821Y-40244641D01*
X5176704Y-40120317D01*
X5134040Y-40064988D01*
X5128061Y-39995374D01*
X5160667Y-39933580D01*
X5176702Y-39919684D01*
X5347821Y-39795359D01*
X5500359Y-39642821D01*
X5627157Y-39468299D01*
X5725092Y-39276089D01*
X5791754Y-39070926D01*
X5806752Y-38976230D01*
X5825500Y-38857866D01*
X5825500Y-38642133D01*
X5791754Y-38429077D01*
X5791754Y-38429074D01*
X5725092Y-38223911D01*
X5627157Y-38031701D01*
X5500359Y-37857179D01*
X5347821Y-37704641D01*
X5176704Y-37580317D01*
X5134040Y-37524988D01*
X5128061Y-37455374D01*
X5160667Y-37393580D01*
X5176702Y-37379684D01*
X5347821Y-37255359D01*
X5500359Y-37102821D01*
X5627157Y-36928299D01*
X5725092Y-36736089D01*
X5791754Y-36530926D01*
X5806752Y-36436230D01*
X5825500Y-36317866D01*
X5825500Y-36102133D01*
X5791754Y-35889077D01*
X5791754Y-35889074D01*
X5725092Y-35683911D01*
X5627157Y-35491701D01*
X5500359Y-35317179D01*
X5358375Y-35175195D01*
X5324890Y-35113872D01*
X5329874Y-35044180D01*
X5371746Y-34988247D01*
X5393657Y-34975129D01*
X5394322Y-34974817D01*
X5394334Y-34974814D01*
X5543656Y-34882712D01*
X5667712Y-34758656D01*
X5759814Y-34609334D01*
X5814999Y-34442797D01*
X5825500Y-34340009D01*
X5825499Y-32999992D01*
X5814999Y-32897203D01*
X5759814Y-32730666D01*
X5667712Y-32581344D01*
X5543656Y-32457288D01*
X5394334Y-32365186D01*
X5227797Y-32310001D01*
X5227795Y-32310000D01*
X5125010Y-32299500D01*
X3334998Y-32299500D01*
X3334981Y-32299501D01*
X3232203Y-32310000D01*
X3232200Y-32310001D01*
X3065668Y-32365185D01*
X3065663Y-32365187D01*
X2916342Y-32457289D01*
X2792289Y-32581342D01*
X2700187Y-32730663D01*
X2700186Y-32730666D01*
X2645001Y-32897203D01*
X2645001Y-32897204D01*
X2645000Y-32897204D01*
X2634500Y-32999983D01*
X1850500Y-32999983D01*
X1850500Y-27579765D01*
X1870185Y-27512726D01*
X1871398Y-27510874D01*
X1959390Y-27379185D01*
X1959390Y-27379184D01*
X1959394Y-27379179D01*
X2019737Y-27233497D01*
X2050500Y-27078842D01*
X2050500Y-26921158D01*
X2050500Y-26921155D01*
X2050499Y-26921153D01*
X2019738Y-26766510D01*
X2019737Y-26766503D01*
X1999500Y-26717646D01*
X1959397Y-26620827D01*
X1959390Y-26620814D01*
X1871789Y-26489711D01*
X1871786Y-26489707D01*
X1760292Y-26378213D01*
X1760288Y-26378210D01*
X1629185Y-26290609D01*
X1629172Y-26290602D01*
X1483501Y-26230264D01*
X1483489Y-26230261D01*
X1328845Y-26199500D01*
X1328842Y-26199500D01*
X1171158Y-26199500D01*
X1171155Y-26199500D01*
X1016510Y-26230261D01*
X1016498Y-26230264D01*
X870827Y-26290602D01*
X870814Y-26290609D01*
X739711Y-26378210D01*
X739707Y-26378213D01*
X712181Y-26405740D01*
X650858Y-26439225D01*
X581166Y-26434241D01*
X525233Y-26392369D01*
X500816Y-26326905D01*
X500500Y-26318059D01*
X500500Y-21671153D01*
X2949500Y-21671153D01*
X2949500Y-21828846D01*
X2980261Y-21983489D01*
X2980264Y-21983501D01*
X3040602Y-22129172D01*
X3040609Y-22129185D01*
X3128210Y-22260288D01*
X3128213Y-22260292D01*
X3239707Y-22371786D01*
X3239711Y-22371789D01*
X3370814Y-22459390D01*
X3370827Y-22459397D01*
X3516498Y-22519735D01*
X3516503Y-22519737D01*
X3671153Y-22550499D01*
X3671156Y-22550500D01*
X3671158Y-22550500D01*
X3828844Y-22550500D01*
X3828845Y-22550499D01*
X3983497Y-22519737D01*
X4129179Y-22459394D01*
X4129185Y-22459390D01*
X4260875Y-22371398D01*
X4327553Y-22350520D01*
X4329766Y-22350500D01*
X11207467Y-22350500D01*
X11254919Y-22359938D01*
X11266503Y-22364737D01*
X11421153Y-22395499D01*
X11421156Y-22395500D01*
X11421158Y-22395500D01*
X11578844Y-22395500D01*
X11578845Y-22395499D01*
X11733497Y-22364737D01*
X11879179Y-22304394D01*
X12010289Y-22216789D01*
X12121789Y-22105289D01*
X12209394Y-21974179D01*
X12269737Y-21828497D01*
X12300500Y-21673842D01*
X12300500Y-21516158D01*
X12300500Y-21516155D01*
X12300499Y-21516153D01*
X12269737Y-21361503D01*
X12269735Y-21361498D01*
X12209397Y-21215827D01*
X12209390Y-21215814D01*
X12121789Y-21084711D01*
X12121786Y-21084707D01*
X12010292Y-20973213D01*
X12010288Y-20973210D01*
X11879185Y-20885609D01*
X11879172Y-20885602D01*
X11733501Y-20825264D01*
X11733489Y-20825261D01*
X11578845Y-20794500D01*
X11578842Y-20794500D01*
X11421158Y-20794500D01*
X11421155Y-20794500D01*
X11266510Y-20825261D01*
X11266498Y-20825264D01*
X11120827Y-20885602D01*
X11120814Y-20885609D01*
X10989711Y-20973210D01*
X10989707Y-20973213D01*
X10878213Y-21084707D01*
X10878209Y-21084712D01*
X10871744Y-21094389D01*
X10818133Y-21139195D01*
X10768641Y-21149500D01*
X4329766Y-21149500D01*
X4262727Y-21129815D01*
X4260875Y-21128602D01*
X4129185Y-21040609D01*
X4129172Y-21040602D01*
X3983501Y-20980264D01*
X3983489Y-20980261D01*
X3828845Y-20949500D01*
X3828842Y-20949500D01*
X3671158Y-20949500D01*
X3671155Y-20949500D01*
X3516510Y-20980261D01*
X3516498Y-20980264D01*
X3370827Y-21040602D01*
X3370814Y-21040609D01*
X3239711Y-21128210D01*
X3239707Y-21128213D01*
X3128213Y-21239707D01*
X3128210Y-21239711D01*
X3040609Y-21370814D01*
X3040602Y-21370827D01*
X2980264Y-21516498D01*
X2980261Y-21516510D01*
X2949500Y-21671153D01*
X500500Y-21671153D01*
X500500Y-15685777D01*
X3349500Y-15685777D01*
X3349500Y-17314208D01*
X3349501Y-17314223D01*
X3359904Y-17446413D01*
X3359905Y-17446420D01*
X3414902Y-17664678D01*
X3414903Y-17664681D01*
X3414904Y-17664683D01*
X3507993Y-17869626D01*
X3507995Y-17869630D01*
X3507997Y-17869632D01*
X3636174Y-18054645D01*
X3636178Y-18054650D01*
X3636181Y-18054654D01*
X3795346Y-18213819D01*
X3795350Y-18213822D01*
X3795354Y-18213825D01*
X3934603Y-18310297D01*
X3980374Y-18342007D01*
X4185317Y-18435096D01*
X4185321Y-18435097D01*
X4403579Y-18490094D01*
X4403581Y-18490094D01*
X4403588Y-18490096D01*
X4535783Y-18500500D01*
X4664216Y-18500499D01*
X4796412Y-18490096D01*
X5014683Y-18435096D01*
X5219626Y-18342007D01*
X5404654Y-18213819D01*
X5563819Y-18054654D01*
X5692007Y-17869626D01*
X5785096Y-17664683D01*
X5840096Y-17446412D01*
X5850500Y-17314217D01*
X5850499Y-15685784D01*
X5840096Y-15553588D01*
X5785096Y-15335317D01*
X5692007Y-15130374D01*
X5564048Y-14945676D01*
X5563825Y-14945354D01*
X5563822Y-14945350D01*
X5563819Y-14945346D01*
X5404654Y-14786181D01*
X5404650Y-14786178D01*
X5404645Y-14786174D01*
X5219632Y-14657997D01*
X5219630Y-14657995D01*
X5219626Y-14657993D01*
X5015724Y-14565377D01*
X5014681Y-14564903D01*
X5014678Y-14564902D01*
X4796420Y-14509905D01*
X4796413Y-14509904D01*
X4730314Y-14504702D01*
X4664217Y-14499500D01*
X4664216Y-14499500D01*
X4535792Y-14499500D01*
X4535775Y-14499501D01*
X4403586Y-14509904D01*
X4403579Y-14509905D01*
X4185321Y-14564902D01*
X4185318Y-14564903D01*
X3980377Y-14657991D01*
X3980367Y-14657997D01*
X3795354Y-14786174D01*
X3795342Y-14786184D01*
X3636184Y-14945342D01*
X3636174Y-14945354D01*
X3507997Y-15130367D01*
X3507991Y-15130377D01*
X3414903Y-15335318D01*
X3414902Y-15335321D01*
X3359905Y-15553579D01*
X3359904Y-15553586D01*
X3349500Y-15685777D01*
X500500Y-15685777D01*
X500500Y-4685777D01*
X3349500Y-4685777D01*
X3349500Y-6314208D01*
X3349501Y-6314223D01*
X3359904Y-6446413D01*
X3359905Y-6446420D01*
X3414902Y-6664678D01*
X3414903Y-6664681D01*
X3507878Y-6869374D01*
X3507993Y-6869626D01*
X3507995Y-6869630D01*
X3507997Y-6869632D01*
X3636174Y-7054645D01*
X3636178Y-7054650D01*
X3636181Y-7054654D01*
X3795346Y-7213819D01*
X3795350Y-7213822D01*
X3795354Y-7213825D01*
X3934603Y-7310297D01*
X3980374Y-7342007D01*
X4185317Y-7435096D01*
X4185321Y-7435097D01*
X4403579Y-7490094D01*
X4403581Y-7490094D01*
X4403588Y-7490096D01*
X4535783Y-7500500D01*
X4664216Y-7500499D01*
X4796412Y-7490096D01*
X5014683Y-7435096D01*
X5219626Y-7342007D01*
X5404654Y-7213819D01*
X5563819Y-7054654D01*
X5692007Y-6869626D01*
X5785096Y-6664683D01*
X5840096Y-6446412D01*
X5850500Y-6314217D01*
X5850499Y-4685784D01*
X5850498Y-4685777D01*
X11849500Y-4685777D01*
X11849500Y-6314208D01*
X11849501Y-6314223D01*
X11859904Y-6446413D01*
X11859905Y-6446420D01*
X11914902Y-6664678D01*
X11914903Y-6664681D01*
X12007878Y-6869374D01*
X12007993Y-6869626D01*
X12007995Y-6869630D01*
X12007997Y-6869632D01*
X12136174Y-7054645D01*
X12136178Y-7054650D01*
X12136181Y-7054654D01*
X12295346Y-7213819D01*
X12295350Y-7213822D01*
X12295354Y-7213825D01*
X12434603Y-7310297D01*
X12480374Y-7342007D01*
X12685317Y-7435096D01*
X12685321Y-7435097D01*
X12903579Y-7490094D01*
X12903581Y-7490094D01*
X12903588Y-7490096D01*
X13035783Y-7500500D01*
X13164216Y-7500499D01*
X13296412Y-7490096D01*
X13514683Y-7435096D01*
X13719626Y-7342007D01*
X13904654Y-7213819D01*
X14063819Y-7054654D01*
X14192007Y-6869626D01*
X14237376Y-6769740D01*
X14283021Y-6716846D01*
X14350020Y-6697024D01*
X14417100Y-6716572D01*
X14462963Y-6769282D01*
X14463173Y-6769742D01*
X14508430Y-6869378D01*
X14508431Y-6869380D01*
X14636559Y-7054323D01*
X14636569Y-7054335D01*
X14795664Y-7213430D01*
X14795676Y-7213440D01*
X14980619Y-7341568D01*
X14980625Y-7341571D01*
X15185480Y-7434622D01*
X15350000Y-7476076D01*
X15350000Y-6299728D01*
X15388060Y-6391614D01*
X15458386Y-6461940D01*
X15550272Y-6500000D01*
X15649728Y-6500000D01*
X15741614Y-6461940D01*
X15811940Y-6391614D01*
X15850000Y-6299728D01*
X15850000Y-7476075D01*
X16014519Y-7434622D01*
X16219374Y-7341571D01*
X16219380Y-7341568D01*
X16404323Y-7213440D01*
X16404335Y-7213430D01*
X16563430Y-7054335D01*
X16563440Y-7054323D01*
X16691568Y-6869380D01*
X16691571Y-6869374D01*
X16784622Y-6664519D01*
X16839599Y-6446332D01*
X16849999Y-6314196D01*
X16850000Y-6314184D01*
X16850000Y-5750000D01*
X15850000Y-5750000D01*
X15850000Y-5250000D01*
X16849999Y-5250000D01*
X16849999Y-4685817D01*
X16849998Y-4685802D01*
X16839599Y-4553667D01*
X16784622Y-4335480D01*
X16691571Y-4130625D01*
X16691568Y-4130619D01*
X16563440Y-3945676D01*
X16563430Y-3945664D01*
X16404335Y-3786569D01*
X16404323Y-3786559D01*
X16219380Y-3658431D01*
X16219374Y-3658428D01*
X16014517Y-3565377D01*
X15850000Y-3523922D01*
X15850000Y-4700272D01*
X15811940Y-4608386D01*
X15741614Y-4538060D01*
X15649728Y-4500000D01*
X15550272Y-4500000D01*
X15458386Y-4538060D01*
X15388060Y-4608386D01*
X15350000Y-4700272D01*
X15350000Y-3523922D01*
X15185482Y-3565377D01*
X14980625Y-3658428D01*
X14980619Y-3658431D01*
X14795676Y-3786559D01*
X14795664Y-3786569D01*
X14636569Y-3945664D01*
X14636559Y-3945676D01*
X14508431Y-4130619D01*
X14508430Y-4130621D01*
X14463173Y-4230257D01*
X14417526Y-4283154D01*
X14350526Y-4302975D01*
X14283447Y-4283427D01*
X14237585Y-4230716D01*
X14237434Y-4230386D01*
X14192007Y-4130374D01*
X14064048Y-3945676D01*
X14063825Y-3945354D01*
X14063822Y-3945350D01*
X14063819Y-3945346D01*
X13904654Y-3786181D01*
X13904650Y-3786178D01*
X13904645Y-3786174D01*
X13719632Y-3657997D01*
X13719630Y-3657995D01*
X13719626Y-3657993D01*
X13515724Y-3565377D01*
X13514681Y-3564903D01*
X13514678Y-3564902D01*
X13296420Y-3509905D01*
X13296413Y-3509904D01*
X13230314Y-3504702D01*
X13164217Y-3499500D01*
X13164216Y-3499500D01*
X13035792Y-3499500D01*
X13035775Y-3499501D01*
X12903586Y-3509904D01*
X12903579Y-3509905D01*
X12685321Y-3564902D01*
X12685318Y-3564903D01*
X12480377Y-3657991D01*
X12480367Y-3657997D01*
X12295354Y-3786174D01*
X12295342Y-3786184D01*
X12136184Y-3945342D01*
X12136174Y-3945354D01*
X12007997Y-4130367D01*
X12007991Y-4130377D01*
X11914903Y-4335318D01*
X11914902Y-4335321D01*
X11859905Y-4553579D01*
X11859904Y-4553586D01*
X11849500Y-4685777D01*
X5850498Y-4685777D01*
X5840096Y-4553588D01*
X5785096Y-4335317D01*
X5692007Y-4130374D01*
X5564048Y-3945676D01*
X5563825Y-3945354D01*
X5563822Y-3945350D01*
X5563819Y-3945346D01*
X5404654Y-3786181D01*
X5404650Y-3786178D01*
X5404645Y-3786174D01*
X5219632Y-3657997D01*
X5219630Y-3657995D01*
X5219626Y-3657993D01*
X5015724Y-3565377D01*
X5014681Y-3564903D01*
X5014678Y-3564902D01*
X4796420Y-3509905D01*
X4796413Y-3509904D01*
X4730314Y-3504702D01*
X4664217Y-3499500D01*
X4664216Y-3499500D01*
X4535792Y-3499500D01*
X4535775Y-3499501D01*
X4403586Y-3509904D01*
X4403579Y-3509905D01*
X4185321Y-3564902D01*
X4185318Y-3564903D01*
X3980377Y-3657991D01*
X3980367Y-3657997D01*
X3795354Y-3786174D01*
X3795342Y-3786184D01*
X3636184Y-3945342D01*
X3636174Y-3945354D01*
X3507997Y-4130367D01*
X3507991Y-4130377D01*
X3414903Y-4335318D01*
X3414902Y-4335321D01*
X3359905Y-4553579D01*
X3359904Y-4553586D01*
X3349500Y-4685777D01*
X500500Y-4685777D01*
X500500Y-624500D01*
X520185Y-557461D01*
X572989Y-511706D01*
X624500Y-500500D01*
X17375500Y-500500D01*
X17442539Y-520185D01*
G37*
%TD.AperFunction*%
%TD*%
M02*
