%TF.GenerationSoftware,KiCad,Pcbnew,10.0.6*%
%TF.CreationDate,2026-09-30T20:23:51+02:00*%
%TF.ProjectId,player_drum_velocity,706c6179-6572-45f6-9472-756d5f76656c,rev?*%
%TF.SameCoordinates,Original*%
%TF.FileFunction,Copper,L1,Top*%
%TF.FilePolarity,Positive*%
%FSLAX46Y46*%
G04 Gerber Fmt 4.6, Leading zero omitted, Abs format (unit mm)*
G04 Created by KiCad (PCBNEW 10.0.6) date 2026-09-30 20:23:51*
%MOMM*%
%LPD*%
G01*
G04 APERTURE LIST*
G04 Aperture macros list*
%AMRoundRect*
0 Rectangle with rounded corners*
0 $1 Rounding radius*
0 $2 $3 $4 $5 $6 $7 $8 $9 X,Y pos of 4 corners*
0 Add a 4 corners polygon primitive as box body*
4,1,4,$2,$3,$4,$5,$6,$7,$8,$9,$2,$3,0*
0 Add four circle primitives for the rounded corners*
1,1,$1+$1,$2,$3*
1,1,$1+$1,$4,$5*
1,1,$1+$1,$6,$7*
1,1,$1+$1,$8,$9*
0 Add four rect primitives between the rounded corners*
20,1,$1+$1,$2,$3,$4,$5,0*
20,1,$1+$1,$4,$5,$6,$7,0*
20,1,$1+$1,$6,$7,$8,$9,0*
20,1,$1+$1,$8,$9,$2,$3,0*%
G04 Aperture macros list end*
%TA.AperFunction,SMDPad,CuDef*%
%ADD10RoundRect,0.250000X0.475000X-0.337500X0.475000X0.337500X-0.475000X0.337500X-0.475000X-0.337500X0*%
%TD*%
%TA.AperFunction,SMDPad,CuDef*%
%ADD11RoundRect,0.250000X-0.350000X-0.450000X0.350000X-0.450000X0.350000X0.450000X-0.350000X0.450000X0*%
%TD*%
%TA.AperFunction,SMDPad,CuDef*%
%ADD12RoundRect,0.250000X-0.337500X-0.475000X0.337500X-0.475000X0.337500X0.475000X-0.337500X0.475000X0*%
%TD*%
%TA.AperFunction,ComponentPad*%
%ADD13RoundRect,0.250000X-0.845000X0.620000X-0.845000X-0.620000X0.845000X-0.620000X0.845000X0.620000X0*%
%TD*%
%TA.AperFunction,ComponentPad*%
%ADD14O,2.190000X1.740000*%
%TD*%
%TA.AperFunction,SMDPad,CuDef*%
%ADD15RoundRect,0.150000X0.587500X0.150000X-0.587500X0.150000X-0.587500X-0.150000X0.587500X-0.150000X0*%
%TD*%
%TA.AperFunction,ComponentPad*%
%ADD16R,1.700000X1.700000*%
%TD*%
%TA.AperFunction,ComponentPad*%
%ADD17C,1.700000*%
%TD*%
%TA.AperFunction,SMDPad,CuDef*%
%ADD18RoundRect,0.150000X0.825000X0.150000X-0.825000X0.150000X-0.825000X-0.150000X0.825000X-0.150000X0*%
%TD*%
%TA.AperFunction,SMDPad,CuDef*%
%ADD19RoundRect,0.250000X-0.450000X0.350000X-0.450000X-0.350000X0.450000X-0.350000X0.450000X0.350000X0*%
%TD*%
%TA.AperFunction,SMDPad,CuDef*%
%ADD20RoundRect,0.250000X0.450000X-0.350000X0.450000X0.350000X-0.450000X0.350000X-0.450000X-0.350000X0*%
%TD*%
%TA.AperFunction,SMDPad,CuDef*%
%ADD21RoundRect,0.100000X0.100000X-0.637500X0.100000X0.637500X-0.100000X0.637500X-0.100000X-0.637500X0*%
%TD*%
%TA.AperFunction,SMDPad,CuDef*%
%ADD22RoundRect,0.375000X0.375000X-0.625000X0.375000X0.625000X-0.375000X0.625000X-0.375000X-0.625000X0*%
%TD*%
%TA.AperFunction,SMDPad,CuDef*%
%ADD23RoundRect,0.500000X1.400000X-0.500000X1.400000X0.500000X-1.400000X0.500000X-1.400000X-0.500000X0*%
%TD*%
%TA.AperFunction,SMDPad,CuDef*%
%ADD24RoundRect,0.150000X-0.800000X-0.150000X0.800000X-0.150000X0.800000X0.150000X-0.800000X0.150000X0*%
%TD*%
%TA.AperFunction,SMDPad,CuDef*%
%ADD25RoundRect,0.250000X0.337500X0.475000X-0.337500X0.475000X-0.337500X-0.475000X0.337500X-0.475000X0*%
%TD*%
%TA.AperFunction,ComponentPad*%
%ADD26C,2.000000*%
%TD*%
%TA.AperFunction,ComponentPad*%
%ADD27RoundRect,0.250000X-0.550000X-0.550000X0.550000X-0.550000X0.550000X0.550000X-0.550000X0.550000X0*%
%TD*%
%TA.AperFunction,ComponentPad*%
%ADD28C,1.600000*%
%TD*%
%TA.AperFunction,ComponentPad*%
%ADD29RoundRect,0.750000X-0.000010X0.750000X-0.000010X-0.750000X0.000010X-0.750000X0.000010X0.750000X0*%
%TD*%
%TA.AperFunction,ComponentPad*%
%ADD30R,1.800000X1.800000*%
%TD*%
%TA.AperFunction,ComponentPad*%
%ADD31C,1.800000*%
%TD*%
%TA.AperFunction,ViaPad*%
%ADD32C,0.600000*%
%TD*%
%TA.AperFunction,Conductor*%
%ADD33C,0.200000*%
%TD*%
G04 APERTURE END LIST*
D10*
%TO.P,C6,1*%
%TO.N,+5V*%
X11500000Y-60250000D03*
%TO.P,C6,2*%
%TO.N,GND*%
X11500000Y-58175000D03*
%TD*%
D11*
%TO.P,R2,1*%
%TO.N,Net-(Q1-C)*%
X4500000Y-9550000D03*
%TO.P,R2,2*%
%TO.N,+5V*%
X6500000Y-9550000D03*
%TD*%
D12*
%TO.P,C7,1*%
%TO.N,+3.3V*%
X13962500Y-56250000D03*
%TO.P,C7,2*%
%TO.N,GND*%
X16037500Y-56250000D03*
%TD*%
D13*
%TO.P,J2,1,Pin_1_1*%
%TO.N,SWD DATA*%
X4230000Y-33670000D03*
D14*
%TO.P,J2,2,Pin_2_2*%
%TO.N,SWD CLOCK*%
X4230000Y-36210000D03*
%TO.P,J2,3,Pin_3_3*%
%TO.N,RESET*%
X4230000Y-38750000D03*
%TO.P,J2,4,Pin_4_4*%
%TO.N,+3.3V*%
X4230000Y-41290000D03*
%TO.P,J2,5,Pin_5_5*%
%TO.N,GND*%
X4230000Y-43830000D03*
%TD*%
D15*
%TO.P,Q1,1,B_1*%
%TO.N,Net-(Q1-B)*%
X9937500Y-7000000D03*
%TO.P,Q1,2,E_2*%
%TO.N,GND*%
X9937500Y-5100000D03*
%TO.P,Q1,3,C_3*%
%TO.N,Net-(Q1-C)*%
X8062500Y-6050000D03*
%TD*%
D16*
%TO.P,J1,1,Pin_1_1*%
%TO.N,+12V*%
X6500000Y-69250000D03*
D17*
%TO.P,J1,2,Pin_2_2*%
%TO.N,GND*%
X3960000Y-69250000D03*
%TO.P,J1,3,Pin_3_3*%
%TO.N,-12V*%
X6500000Y-66710000D03*
%TO.P,J1,4,Pin_4_4*%
%TO.N,GND*%
X3960000Y-66710000D03*
%TO.P,J1,5,Pin_5_5*%
%TO.N,FAST_MIDI*%
X6500000Y-64170000D03*
%TO.P,J1,6,Pin_6_6*%
%TO.N,GND*%
X3960000Y-64170000D03*
%TO.P,J1,7,Pin_7_7*%
%TO.N,unconnected-(J1-Pin_7-Pad7)*%
X6500000Y-61630000D03*
%TO.P,J1,8,Pin_8_8*%
%TO.N,unconnected-(J1-Pin_8-Pad8)*%
X3960000Y-61630000D03*
%TD*%
D18*
%TO.P,U1,1*%
%TO.N,Net-(U1A--)*%
X13475000Y-25405000D03*
%TO.P,U1,2,-_2*%
X13475000Y-24135000D03*
%TO.P,U1,3,+_3*%
%TO.N,Net-(U1A-+)*%
X13475000Y-22865000D03*
%TO.P,U1,4,V-_4*%
%TO.N,-12V*%
X13475000Y-21595000D03*
%TO.P,U1,5,+_5*%
%TO.N,Net-(U1B-+)*%
X8525000Y-21595000D03*
%TO.P,U1,6,-_6*%
%TO.N,Net-(U1B--)*%
X8525000Y-22865000D03*
%TO.P,U1,7*%
X8525000Y-24135000D03*
%TO.P,U1,8,V+_8*%
%TO.N,+12V*%
X8525000Y-25405000D03*
%TD*%
D19*
%TO.P,R7,1*%
%TO.N,Net-(J5-PadT)*%
X2000000Y-16000000D03*
%TO.P,R7,2*%
%TO.N,Net-(U1A--)*%
X2000000Y-18000000D03*
%TD*%
D11*
%TO.P,R1,1*%
%TO.N,Net-(Q1-B)*%
X13500000Y-9550000D03*
%TO.P,R1,2*%
%TO.N,Net-(U2-PA2)*%
X15500000Y-9550000D03*
%TD*%
D19*
%TO.P,R6,1*%
%TO.N,Net-(J4-PadT)*%
X2000000Y-83700000D03*
%TO.P,R6,2*%
%TO.N,Net-(Q2-C)*%
X2000000Y-85700000D03*
%TD*%
D20*
%TO.P,R8,1*%
%TO.N,Net-(J6-PadT)*%
X2000000Y-94500000D03*
%TO.P,R8,2*%
%TO.N,Net-(U1B--)*%
X2000000Y-92500000D03*
%TD*%
D11*
%TO.P,R4,1*%
%TO.N,Net-(Q2-C)*%
X4500000Y-87200000D03*
%TO.P,R4,2*%
%TO.N,+5V*%
X6500000Y-87200000D03*
%TD*%
D21*
%TO.P,U2,1,PB7/PB8_1*%
%TO.N,FAST_MIDI*%
X10075000Y-43612500D03*
%TO.P,U2,2,PB9/PC14_2*%
%TO.N,unconnected-(U2-PB9{slash}PC14-Pad2)*%
X10725000Y-43612500D03*
%TO.P,U2,3,PC15_3*%
%TO.N,unconnected-(U2-PC15-Pad3)*%
X11375000Y-43612500D03*
%TO.P,U2,4,VDD_4*%
%TO.N,+3.3V*%
X12025000Y-43612500D03*
%TO.P,U2,5,VSS_5*%
%TO.N,GND*%
X12675000Y-43612500D03*
%TO.P,U2,6,NRST_6*%
%TO.N,RESET*%
X13325000Y-43612500D03*
%TO.P,U2,7,PA0_7*%
%TO.N,Net-(U2-PA0)*%
X13975000Y-43612500D03*
%TO.P,U2,8,PA1_8*%
%TO.N,Net-(D1-A)*%
X14625000Y-43612500D03*
%TO.P,U2,9,PA2_9*%
%TO.N,Net-(U2-PA2)*%
X15275000Y-43612500D03*
%TO.P,U2,10,PA3_10*%
%TO.N,Net-(U2-PA3)*%
X15925000Y-43612500D03*
%TO.P,U2,11,PA4_11*%
%TO.N,Net-(U2-PA4)*%
X15925000Y-37887500D03*
%TO.P,U2,12,PA5_12*%
%TO.N,Net-(U2-PA5)*%
X15275000Y-37887500D03*
%TO.P,U2,13,PA6_13*%
%TO.N,unconnected-(U2-PA6-Pad13)*%
X14625000Y-37887500D03*
%TO.P,U2,14,PA7_14*%
%TO.N,Net-(U2-PA7)*%
X13975000Y-37887500D03*
%TO.P,U2,15,PA8/PB0/PB1/PB2_15*%
%TO.N,unconnected-(U2-PA8{slash}PB0{slash}PB1{slash}PB2-Pad15)*%
X13325000Y-37887500D03*
%TO.P,U2,16,PA9/PA11_16*%
%TO.N,unconnected-(U2-PA9{slash}PA11-Pad16)*%
X12675000Y-37887500D03*
%TO.P,U2,17,PA10/PA12_17*%
%TO.N,unconnected-(U2-PA10{slash}PA12-Pad17)*%
X12025000Y-37887500D03*
%TO.P,U2,18,PA13_18*%
%TO.N,SWD DATA*%
X11375000Y-37887500D03*
%TO.P,U2,19,PA14/PA15_19*%
%TO.N,SWD CLOCK*%
X10725000Y-37887500D03*
%TO.P,U2,20,PB3/PB4/PB5/PB6_20*%
%TO.N,unconnected-(U2-PB3{slash}PB4{slash}PB5{slash}PB6-Pad20)*%
X10075000Y-37887500D03*
%TD*%
D12*
%TO.P,C8,1*%
%TO.N,GND*%
X4712500Y-28500000D03*
%TO.P,C8,2*%
%TO.N,+3.3V*%
X6787500Y-28500000D03*
%TD*%
D15*
%TO.P,Q2,1,B_1*%
%TO.N,Net-(Q2-B)*%
X9937500Y-84650000D03*
%TO.P,Q2,2,E_2*%
%TO.N,GND*%
X9937500Y-82750000D03*
%TO.P,Q2,3,C_3*%
%TO.N,Net-(Q2-C)*%
X8062500Y-83700000D03*
%TD*%
D22*
%TO.P,U3,1,GND_1*%
%TO.N,GND*%
X11700000Y-68900000D03*
%TO.P,U3,2,VO_2*%
%TO.N,+5V*%
X14000000Y-68900000D03*
D23*
X14000000Y-62600000D03*
D22*
%TO.P,U3,3,VI_3*%
%TO.N,+12V*%
X16300000Y-68900000D03*
%TD*%
D10*
%TO.P,C2,1*%
%TO.N,GND*%
X15750000Y-24037500D03*
%TO.P,C2,2*%
%TO.N,-12V*%
X15750000Y-21962500D03*
%TD*%
D11*
%TO.P,R9,1*%
%TO.N,GND*%
X8000000Y-51250000D03*
%TO.P,R9,2*%
%TO.N,Net-(D1-K)*%
X10000000Y-51250000D03*
%TD*%
D19*
%TO.P,R5,1*%
%TO.N,Net-(J3-PadT)*%
X2000000Y-6050000D03*
%TO.P,R5,2*%
%TO.N,Net-(Q1-C)*%
X2000000Y-8050000D03*
%TD*%
D15*
%TO.P,U4,1,GND_1*%
%TO.N,GND*%
X15437500Y-60200000D03*
%TO.P,U4,2,VO_2*%
%TO.N,+3.3V*%
X15437500Y-58300000D03*
%TO.P,U4,3,VI_3*%
%TO.N,+5V*%
X13562500Y-59250000D03*
%TD*%
D10*
%TO.P,C1,1*%
%TO.N,+12V*%
X6250000Y-25287500D03*
%TO.P,C1,2*%
%TO.N,GND*%
X6250000Y-23212500D03*
%TD*%
D24*
%TO.P,U5,1,Vdd_1*%
%TO.N,+3.3V*%
X9000000Y-29595000D03*
%TO.P,U5,2,~{CS}_2*%
%TO.N,Net-(U2-PA4)*%
X9000000Y-30865000D03*
%TO.P,U5,3,SCK_3*%
%TO.N,Net-(U2-PA5)*%
X9000000Y-32135000D03*
%TO.P,U5,4,SDI_4*%
%TO.N,Net-(U2-PA7)*%
X9000000Y-33405000D03*
%TO.P,U5,5,~{LDAC}_5*%
%TO.N,GND*%
X16000000Y-33405000D03*
%TO.P,U5,6,VB_6*%
%TO.N,Net-(U1B-+)*%
X16000000Y-32135000D03*
%TO.P,U5,7,Vss_7*%
%TO.N,GND*%
X16000000Y-30865000D03*
%TO.P,U5,8,VA_8*%
%TO.N,Net-(U1A-+)*%
X16000000Y-29595000D03*
%TD*%
D11*
%TO.P,R3,1*%
%TO.N,Net-(Q2-B)*%
X13500000Y-87200000D03*
%TO.P,R3,2*%
%TO.N,Net-(U2-PA3)*%
X15500000Y-87200000D03*
%TD*%
D25*
%TO.P,C3,1*%
%TO.N,+3.3V*%
X12287500Y-45750000D03*
%TO.P,C3,2*%
%TO.N,GND*%
X10212500Y-45750000D03*
%TD*%
D26*
%TO.P,SW1,1,1_1*%
%TO.N,Net-(U2-PA0)*%
X7500000Y-54500000D03*
X7500000Y-48000000D03*
%TO.P,SW1,2,2_2*%
%TO.N,GND*%
X3000000Y-54500000D03*
X3000000Y-48000000D03*
%TD*%
D27*
%TO.P,C4,1*%
%TO.N,+12V*%
X3962500Y-75250000D03*
D28*
%TO.P,C4,2*%
%TO.N,GND*%
X6462500Y-75250000D03*
%TD*%
D29*
%TO.P,J4,S,S_S*%
%TO.N,GND*%
X15600000Y-83500000D03*
%TO.P,J4,T,T_T*%
%TO.N,Net-(J4-PadT)*%
X4600000Y-83500000D03*
%TO.P,J4,TN,TN_TN*%
%TO.N,unconnected-(J4-PadTN)*%
X13100000Y-83500000D03*
%TD*%
D30*
%TO.P,D1,1,K_1*%
%TO.N,Net-(D1-K)*%
X12500000Y-51250000D03*
D31*
%TO.P,D1,2,A_2*%
%TO.N,Net-(D1-A)*%
X15040000Y-51250000D03*
%TD*%
D29*
%TO.P,J6,S,S_S*%
%TO.N,GND*%
X15600000Y-94500000D03*
%TO.P,J6,T,T_T*%
%TO.N,Net-(J6-PadT)*%
X4600000Y-94500000D03*
%TO.P,J6,TN,TN_TN*%
%TO.N,unconnected-(J6-PadTN)*%
X13100000Y-94500000D03*
%TD*%
%TO.P,J5,S,S_S*%
%TO.N,GND*%
X15600000Y-16500000D03*
%TO.P,J5,T,T_T*%
%TO.N,Net-(J5-PadT)*%
X4600000Y-16500000D03*
%TO.P,J5,TN,TN_TN*%
%TO.N,unconnected-(J5-PadTN)*%
X13100000Y-16500000D03*
%TD*%
%TO.P,J3,S,S_S*%
%TO.N,GND*%
X15600000Y-5500000D03*
%TO.P,J3,T,T_T*%
%TO.N,Net-(J3-PadT)*%
X4600000Y-5500000D03*
%TO.P,J3,TN,TN_TN*%
%TO.N,unconnected-(J3-PadTN)*%
X13100000Y-5500000D03*
%TD*%
D27*
%TO.P,C5,1*%
%TO.N,+5V*%
X12500000Y-75250000D03*
D28*
%TO.P,C5,2*%
%TO.N,GND*%
X15000000Y-75250000D03*
%TD*%
D32*
%TO.N,+5V*%
X11750000Y-78500000D03*
%TO.N,GND*%
X3500000Y-28500000D03*
X16500000Y-57250000D03*
X10250000Y-47500000D03*
X12750000Y-42500000D03*
X11032000Y-4300000D03*
X6250000Y-22350000D03*
X11266000Y-81950000D03*
X16500000Y-60250000D03*
X15750000Y-25250000D03*
X11500000Y-56500000D03*
X15000000Y-30500000D03*
X8000000Y-52500000D03*
X15000000Y-33250000D03*
%TO.N,-12V*%
X11500000Y-21595000D03*
X3750000Y-21750000D03*
%TO.N,Net-(U1B--)*%
X1250000Y-64250000D03*
X1250000Y-27000000D03*
%TO.N,Net-(U2-PA2)*%
X16750000Y-10300000D03*
X15750000Y-41000000D03*
%TO.N,Net-(U2-PA0)*%
X14000000Y-45500000D03*
%TO.N,Net-(U2-PA3)*%
X17000000Y-59250000D03*
X16500000Y-52500000D03*
%TD*%
%TO.N,+3.3V*%
D33*
X12287500Y-45750000D02*
X13750000Y-47212500D01*
X13750000Y-47212500D02*
X13750000Y-53537500D01*
X13750000Y-53537500D02*
X13962500Y-53750000D01*
X13962500Y-53750000D02*
X13962500Y-56250000D01*
%TO.N,Net-(U1A--)*%
X13475000Y-24135000D02*
X12680552Y-24135000D01*
X12680552Y-24135000D02*
X8795552Y-20250000D01*
X8795552Y-20250000D02*
X4250000Y-20250000D01*
X4250000Y-20250000D02*
X2000000Y-18000000D01*
%TO.N,+5V*%
X12500000Y-70400000D02*
X14000000Y-68900000D01*
X10777000Y-20995000D02*
X6500000Y-16718000D01*
X17400000Y-21750000D02*
X16645000Y-20995000D01*
X6500000Y-16718000D02*
X6500000Y-9550000D01*
X16645000Y-20995000D02*
X10777000Y-20995000D01*
X11500000Y-60250000D02*
X12562500Y-60250000D01*
X6500000Y-83750000D02*
X11750000Y-78500000D01*
X13562500Y-59250000D02*
X15865552Y-59250000D01*
X6516000Y-9566000D02*
X6500000Y-9550000D01*
X11500000Y-60250000D02*
X11650000Y-60250000D01*
X6500000Y-87200000D02*
X6500000Y-83750000D01*
X15865552Y-59250000D02*
X17400000Y-57715552D01*
X11650000Y-60250000D02*
X14000000Y-62600000D01*
X12500000Y-75250000D02*
X12500000Y-70400000D01*
X17400000Y-57715552D02*
X17400000Y-21750000D01*
X14000000Y-68900000D02*
X14000000Y-62600000D01*
X12562500Y-60250000D02*
X13562500Y-59250000D01*
%TO.N,GND*%
X6250000Y-23212500D02*
X6250000Y-22350000D01*
X8000000Y-51250000D02*
X8000000Y-52500000D01*
X15750000Y-24037500D02*
X15750000Y-25250000D01*
X10212500Y-47462500D02*
X10250000Y-47500000D01*
X16000000Y-33405000D02*
X15155000Y-33405000D01*
X11700000Y-68900000D02*
X11700000Y-70012500D01*
X15155000Y-33405000D02*
X15000000Y-33250000D01*
X9937500Y-5100000D02*
X10232000Y-5100000D01*
X15437500Y-60200000D02*
X16450000Y-60200000D01*
X15365000Y-30865000D02*
X15000000Y-30500000D01*
X11700000Y-70012500D02*
X6462500Y-75250000D01*
X12675000Y-42575000D02*
X12750000Y-42500000D01*
X4712500Y-28500000D02*
X3500000Y-28500000D01*
X16450000Y-60200000D02*
X16500000Y-60250000D01*
X10232000Y-5100000D02*
X11032000Y-4300000D01*
X10466000Y-82750000D02*
X11266000Y-81950000D01*
X16037500Y-56250000D02*
X16037500Y-56787500D01*
X16000000Y-30865000D02*
X15365000Y-30865000D01*
X11500000Y-58175000D02*
X11500000Y-56500000D01*
X9937500Y-82750000D02*
X10466000Y-82750000D01*
X16037500Y-56787500D02*
X16500000Y-57250000D01*
X10212500Y-45750000D02*
X10212500Y-47462500D01*
X12675000Y-43612500D02*
X12675000Y-42575000D01*
%TO.N,Net-(Q1-C)*%
X2000000Y-8050000D02*
X2532000Y-8050000D01*
X4562500Y-9550000D02*
X8062500Y-6050000D01*
X4032000Y-9550000D02*
X4500000Y-9550000D01*
X2532000Y-8050000D02*
X4032000Y-9550000D01*
X4500000Y-9550000D02*
X4562500Y-9550000D01*
%TO.N,+3.3V*%
X2835000Y-32815256D02*
X4375256Y-31275000D01*
X4230000Y-41290000D02*
X2835000Y-39895000D01*
X10439999Y-41290000D02*
X12025000Y-42875001D01*
X15437500Y-58300000D02*
X13962500Y-56825000D01*
X6787500Y-28500000D02*
X7905000Y-28500000D01*
X7905000Y-28500000D02*
X9000000Y-29595000D01*
X12500000Y-45650000D02*
X12025000Y-45175000D01*
X4375256Y-31275000D02*
X5762500Y-31275000D01*
X4230000Y-41290000D02*
X10439999Y-41290000D01*
X5762500Y-31275000D02*
X6787500Y-30250000D01*
X6787500Y-30250000D02*
X6787500Y-28500000D01*
X2835000Y-39895000D02*
X2835000Y-32815256D01*
X12025000Y-42875001D02*
X12025000Y-43612500D01*
X13962500Y-56825000D02*
X13962500Y-56250000D01*
X12025000Y-45175000D02*
X12025000Y-43612500D01*
%TO.N,SWD DATA*%
X6315000Y-35755000D02*
X4230000Y-33670000D01*
X11375000Y-37887500D02*
X11375000Y-37150001D01*
X9979999Y-35755000D02*
X6315000Y-35755000D01*
X11375000Y-37150001D02*
X9979999Y-35755000D01*
%TO.N,SWD CLOCK*%
X10000000Y-40250000D02*
X10725000Y-39525000D01*
X4230000Y-36210000D02*
X6250000Y-38230000D01*
X6250000Y-38230000D02*
X6250000Y-40000000D01*
X10725000Y-39525000D02*
X10725000Y-37887500D01*
X6250000Y-40000000D02*
X6500000Y-40250000D01*
X6500000Y-40250000D02*
X10000000Y-40250000D01*
%TO.N,RESET*%
X13325000Y-43612500D02*
X13350000Y-43587500D01*
X11848529Y-40750000D02*
X6230000Y-40750000D01*
X6230000Y-40750000D02*
X4230000Y-38750000D01*
X13350000Y-42251471D02*
X11848529Y-40750000D01*
X13350000Y-43587500D02*
X13350000Y-42251471D01*
%TO.N,Net-(Q1-B)*%
X9937500Y-7000000D02*
X10950000Y-7000000D01*
X10950000Y-7000000D02*
X13500000Y-9550000D01*
%TO.N,+12V*%
X8525000Y-25405000D02*
X6367500Y-25405000D01*
X1000000Y-28750000D02*
X4750000Y-25000000D01*
X2530000Y-62780000D02*
X1000000Y-61250000D01*
X5962500Y-25000000D02*
X6250000Y-25287500D01*
X13600000Y-71600000D02*
X16300000Y-68900000D01*
X7650000Y-68100000D02*
X7650000Y-66233654D01*
X6367500Y-25405000D02*
X6250000Y-25287500D01*
X6976346Y-65560000D02*
X6263654Y-65560000D01*
X5110000Y-63453654D02*
X4436346Y-62780000D01*
X3962500Y-75250000D02*
X3962500Y-71787500D01*
X4436346Y-62780000D02*
X2530000Y-62780000D01*
X6263654Y-65560000D02*
X5110000Y-64406346D01*
X1000000Y-61250000D02*
X1000000Y-28750000D01*
X3962500Y-75250000D02*
X5062500Y-76350000D01*
X5062500Y-76350000D02*
X13284744Y-76350000D01*
X4750000Y-25000000D02*
X5962500Y-25000000D01*
X6500000Y-69250000D02*
X7650000Y-68100000D01*
X13284744Y-76350000D02*
X13600000Y-76034744D01*
X3962500Y-71787500D02*
X6500000Y-69250000D01*
X13600000Y-76034744D02*
X13600000Y-71600000D01*
X5110000Y-64406346D02*
X5110000Y-63453654D01*
X7650000Y-66233654D02*
X6976346Y-65560000D01*
%TO.N,-12V*%
X11500000Y-21595000D02*
X13475000Y-21595000D01*
X600000Y-62436346D02*
X600000Y-24900000D01*
X13475000Y-21595000D02*
X15382500Y-21595000D01*
X5350000Y-65560000D02*
X3723654Y-65560000D01*
X3723654Y-65560000D02*
X600000Y-62436346D01*
X6500000Y-66710000D02*
X5350000Y-65560000D01*
X15382500Y-21595000D02*
X15750000Y-21962500D01*
X600000Y-24900000D02*
X3750000Y-21750000D01*
%TO.N,FAST_MIDI*%
X9900000Y-44465256D02*
X9900000Y-43787500D01*
X9000000Y-48650000D02*
X9325000Y-48325000D01*
X9000000Y-61670000D02*
X9000000Y-48650000D01*
X6500000Y-64170000D02*
X9000000Y-61670000D01*
X9900000Y-43787500D02*
X10075000Y-43612500D01*
X9325000Y-48325000D02*
X9325000Y-45040256D01*
X9325000Y-45040256D02*
X9900000Y-44465256D01*
%TO.N,Net-(U1A--)*%
X13475000Y-25405000D02*
X13475000Y-24135000D01*
%TO.N,Net-(U1A-+)*%
X17000000Y-28595000D02*
X17000000Y-23690256D01*
X16174744Y-22865000D02*
X17000000Y-23690256D01*
X13475000Y-22865000D02*
X16174744Y-22865000D01*
X16000000Y-29595000D02*
X17000000Y-28595000D01*
%TO.N,Net-(U1B-+)*%
X8525000Y-21595000D02*
X9499999Y-21595000D01*
X10000000Y-27084999D02*
X10000000Y-22095001D01*
X9499999Y-21595000D02*
X10000000Y-22095001D01*
X16000000Y-32135000D02*
X15050001Y-32135000D01*
X15050001Y-32135000D02*
X10000000Y-27084999D01*
%TO.N,Net-(U1B--)*%
X1000000Y-64500000D02*
X1250000Y-64250000D01*
X8525000Y-22865000D02*
X7613529Y-22865000D01*
X1250000Y-27000000D02*
X4115000Y-24135000D01*
X2000000Y-92500000D02*
X1000000Y-91500000D01*
X4115000Y-24135000D02*
X8525000Y-24135000D01*
X8525000Y-24135000D02*
X8525000Y-22865000D01*
X1000000Y-91500000D02*
X1000000Y-64500000D01*
%TO.N,Net-(J5-PadT)*%
X2000000Y-16000000D02*
X4600000Y-16000000D01*
%TO.N,Net-(U2-PA2)*%
X16000000Y-9550000D02*
X16750000Y-10300000D01*
X15275000Y-41475000D02*
X15275000Y-43612500D01*
X15500000Y-9550000D02*
X16000000Y-9550000D01*
X15750000Y-41000000D02*
X15275000Y-41475000D01*
%TO.N,Net-(J4-PadT)*%
X2000000Y-83700000D02*
X4600000Y-83700000D01*
%TO.N,Net-(Q2-C)*%
X5500000Y-88200000D02*
X7084744Y-88200000D01*
X7084744Y-88200000D02*
X8062500Y-87222244D01*
X2000000Y-85700000D02*
X3000000Y-85700000D01*
X3000000Y-85700000D02*
X4500000Y-87200000D01*
X4500000Y-87200000D02*
X5500000Y-88200000D01*
X8062500Y-87222244D02*
X8062500Y-83700000D01*
%TO.N,Net-(J6-PadT)*%
X2000000Y-94500000D02*
X4600000Y-94500000D01*
%TO.N,Net-(U2-PA0)*%
X13975000Y-44268456D02*
X13975000Y-43612500D01*
X14000000Y-45500000D02*
X14000000Y-44293456D01*
X6500000Y-53250000D02*
X6500000Y-48750000D01*
X7500000Y-54250000D02*
X6500000Y-53250000D01*
X14000000Y-44293456D02*
X13975000Y-44268456D01*
X6500000Y-48750000D02*
X7500000Y-47750000D01*
%TO.N,Net-(U2-PA3)*%
X15925000Y-43612500D02*
X17000000Y-44687500D01*
X17350000Y-85350000D02*
X17350000Y-59600000D01*
X17350000Y-59600000D02*
X17000000Y-59250000D01*
X17000000Y-52000000D02*
X16500000Y-52500000D01*
X17000000Y-44687500D02*
X17000000Y-52000000D01*
X15500000Y-87200000D02*
X17350000Y-85350000D01*
%TO.N,Net-(U2-PA4)*%
X12700000Y-35950000D02*
X14643456Y-35950000D01*
X11750000Y-35000000D02*
X12700000Y-35950000D01*
X15925000Y-37231544D02*
X15925000Y-37887500D01*
X14643456Y-35950000D02*
X15925000Y-37231544D01*
X9320552Y-30865000D02*
X9000000Y-30865000D01*
X11750000Y-35000000D02*
X11750000Y-33294448D01*
X11750000Y-33294448D02*
X9320552Y-30865000D01*
%TO.N,Net-(U2-PA5)*%
X15275000Y-37231544D02*
X15275000Y-37887500D01*
X9949999Y-32135000D02*
X9000000Y-32135000D01*
X12534315Y-36350000D02*
X14393456Y-36350000D01*
X14393456Y-36350000D02*
X15275000Y-37231544D01*
X11350000Y-33535001D02*
X9949999Y-32135000D01*
X11350000Y-35165686D02*
X11350000Y-33535001D01*
X11350000Y-35165686D02*
X12534315Y-36350000D01*
%TO.N,Net-(U2-PA7)*%
X10773629Y-35155000D02*
X10750000Y-35155000D01*
X13975000Y-37150001D02*
X13574999Y-36750000D01*
X13975000Y-37887500D02*
X13975000Y-37150001D01*
X10750000Y-35155000D02*
X9000000Y-33405000D01*
X12368629Y-36750000D02*
X10773629Y-35155000D01*
X13574999Y-36750000D02*
X12368629Y-36750000D01*
%TO.N,Net-(Q2-B)*%
X10950000Y-84650000D02*
X13500000Y-87200000D01*
X9937500Y-84650000D02*
X10950000Y-84650000D01*
%TO.N,Net-(J3-PadT)*%
X2000000Y-6050000D02*
X4600000Y-6050000D01*
%TO.N,Net-(D1-K)*%
X12225000Y-51250000D02*
X10000000Y-51250000D01*
%TO.N,Net-(D1-A)*%
X14765000Y-51250000D02*
X14765000Y-43752500D01*
X14765000Y-43752500D02*
X14625000Y-43612500D01*
%TD*%
M02*
