%TF.GenerationSoftware,KiCad,Pcbnew,10.0.6*%
%TF.CreationDate,2026-09-30T20:24:19+02:00*%
%TF.ProjectId,player_melodic,706c6179-6572-45f6-9d65-6c6f6469632e,rev?*%
%TF.SameCoordinates,Original*%
%TF.FileFunction,Legend,Bot*%
%TF.FilePolarity,Positive*%
%FSLAX46Y46*%
G04 Gerber Fmt 4.6, Leading zero omitted, Abs format (unit mm)*
G04 Created by KiCad (PCBNEW 10.0.6) date 2026-09-30 20:24:19*
%MOMM*%
%LPD*%
G01*
G04 APERTURE LIST*
%ADD10C,0.150000*%
%ADD11C,0.100000*%
%ADD12C,0.120000*%
G04 APERTURE END LIST*
D10*
X14508094Y-63664819D02*
X14508094Y-62664819D01*
X14508094Y-62664819D02*
X14269999Y-62664819D01*
X14269999Y-62664819D02*
X14127142Y-62712438D01*
X14127142Y-62712438D02*
X14031904Y-62807676D01*
X14031904Y-62807676D02*
X13984285Y-62902914D01*
X13984285Y-62902914D02*
X13936666Y-63093390D01*
X13936666Y-63093390D02*
X13936666Y-63236247D01*
X13936666Y-63236247D02*
X13984285Y-63426723D01*
X13984285Y-63426723D02*
X14031904Y-63521961D01*
X14031904Y-63521961D02*
X14127142Y-63617200D01*
X14127142Y-63617200D02*
X14269999Y-63664819D01*
X14269999Y-63664819D02*
X14508094Y-63664819D01*
X12984285Y-63664819D02*
X13555713Y-63664819D01*
X13269999Y-63664819D02*
X13269999Y-62664819D01*
X13269999Y-62664819D02*
X13365237Y-62807676D01*
X13365237Y-62807676D02*
X13460475Y-62902914D01*
X13460475Y-62902914D02*
X13555713Y-62950533D01*
D11*
X2808580Y-2583333D02*
X2094295Y-2583333D01*
X2094295Y-2583333D02*
X1951438Y-2630952D01*
X1951438Y-2630952D02*
X1856200Y-2726190D01*
X1856200Y-2726190D02*
X1808580Y-2869047D01*
X1808580Y-2869047D02*
X1808580Y-2964285D01*
X2475247Y-1678571D02*
X1808580Y-1678571D01*
X2856200Y-1916666D02*
X2141914Y-2154761D01*
X2141914Y-2154761D02*
X2141914Y-1535714D01*
D10*
X17455866Y-8846268D02*
X17408247Y-8893887D01*
X17408247Y-8893887D02*
X17360628Y-8989125D01*
X17360628Y-8989125D02*
X17455866Y-9179601D01*
X17455866Y-9179601D02*
X17408247Y-9274839D01*
X17408247Y-9274839D02*
X17360628Y-9322458D01*
D11*
X16083333Y-88707419D02*
X16083333Y-89421704D01*
X16083333Y-89421704D02*
X16130952Y-89564561D01*
X16130952Y-89564561D02*
X16226190Y-89659800D01*
X16226190Y-89659800D02*
X16369047Y-89707419D01*
X16369047Y-89707419D02*
X16464285Y-89707419D01*
X15702380Y-88707419D02*
X15083333Y-88707419D01*
X15083333Y-88707419D02*
X15416666Y-89088371D01*
X15416666Y-89088371D02*
X15273809Y-89088371D01*
X15273809Y-89088371D02*
X15178571Y-89135990D01*
X15178571Y-89135990D02*
X15130952Y-89183609D01*
X15130952Y-89183609D02*
X15083333Y-89278847D01*
X15083333Y-89278847D02*
X15083333Y-89516942D01*
X15083333Y-89516942D02*
X15130952Y-89612180D01*
X15130952Y-89612180D02*
X15178571Y-89659800D01*
X15178571Y-89659800D02*
X15273809Y-89707419D01*
X15273809Y-89707419D02*
X15559523Y-89707419D01*
X15559523Y-89707419D02*
X15654761Y-89659800D01*
X15654761Y-89659800D02*
X15702380Y-89612180D01*
D10*
X17455866Y-97846268D02*
X17408247Y-97893887D01*
X17408247Y-97893887D02*
X17360628Y-97989125D01*
X17360628Y-97989125D02*
X17455866Y-98179601D01*
X17455866Y-98179601D02*
X17408247Y-98274839D01*
X17408247Y-98274839D02*
X17360628Y-98322458D01*
X6583332Y-65407200D02*
X6440475Y-65454819D01*
X6440475Y-65454819D02*
X6202380Y-65454819D01*
X6202380Y-65454819D02*
X6107142Y-65407200D01*
X6107142Y-65407200D02*
X6059523Y-65359580D01*
X6059523Y-65359580D02*
X6011904Y-65264342D01*
X6011904Y-65264342D02*
X6011904Y-65169104D01*
X6011904Y-65169104D02*
X6059523Y-65073866D01*
X6059523Y-65073866D02*
X6107142Y-65026247D01*
X6107142Y-65026247D02*
X6202380Y-64978628D01*
X6202380Y-64978628D02*
X6392856Y-64931009D01*
X6392856Y-64931009D02*
X6488094Y-64883390D01*
X6488094Y-64883390D02*
X6535713Y-64835771D01*
X6535713Y-64835771D02*
X6583332Y-64740533D01*
X6583332Y-64740533D02*
X6583332Y-64645295D01*
X6583332Y-64645295D02*
X6535713Y-64550057D01*
X6535713Y-64550057D02*
X6488094Y-64502438D01*
X6488094Y-64502438D02*
X6392856Y-64454819D01*
X6392856Y-64454819D02*
X6154761Y-64454819D01*
X6154761Y-64454819D02*
X6011904Y-64502438D01*
X5678570Y-64454819D02*
X5440475Y-65454819D01*
X5440475Y-65454819D02*
X5249999Y-64740533D01*
X5249999Y-64740533D02*
X5059523Y-65454819D01*
X5059523Y-65454819D02*
X4821428Y-64454819D01*
X3916666Y-65454819D02*
X4488094Y-65454819D01*
X4202380Y-65454819D02*
X4202380Y-64454819D01*
X4202380Y-64454819D02*
X4297618Y-64597676D01*
X4297618Y-64597676D02*
X4392856Y-64692914D01*
X4392856Y-64692914D02*
X4488094Y-64740533D01*
X5336546Y-80234580D02*
X5384165Y-80282200D01*
X5384165Y-80282200D02*
X5527022Y-80329819D01*
X5527022Y-80329819D02*
X5622260Y-80329819D01*
X5622260Y-80329819D02*
X5765117Y-80282200D01*
X5765117Y-80282200D02*
X5860355Y-80186961D01*
X5860355Y-80186961D02*
X5907974Y-80091723D01*
X5907974Y-80091723D02*
X5955593Y-79901247D01*
X5955593Y-79901247D02*
X5955593Y-79758390D01*
X5955593Y-79758390D02*
X5907974Y-79567914D01*
X5907974Y-79567914D02*
X5860355Y-79472676D01*
X5860355Y-79472676D02*
X5765117Y-79377438D01*
X5765117Y-79377438D02*
X5622260Y-79329819D01*
X5622260Y-79329819D02*
X5527022Y-79329819D01*
X5527022Y-79329819D02*
X5384165Y-79377438D01*
X5384165Y-79377438D02*
X5336546Y-79425057D01*
X4479403Y-79663152D02*
X4479403Y-80329819D01*
X4717498Y-79282200D02*
X4955593Y-79996485D01*
X4955593Y-79996485D02*
X4336546Y-79996485D01*
D11*
X9583333Y-21457419D02*
X9583333Y-22171704D01*
X9583333Y-22171704D02*
X9630952Y-22314561D01*
X9630952Y-22314561D02*
X9726190Y-22409800D01*
X9726190Y-22409800D02*
X9869047Y-22457419D01*
X9869047Y-22457419D02*
X9964285Y-22457419D01*
X8630952Y-21457419D02*
X9107142Y-21457419D01*
X9107142Y-21457419D02*
X9154761Y-21933609D01*
X9154761Y-21933609D02*
X9107142Y-21885990D01*
X9107142Y-21885990D02*
X9011904Y-21838371D01*
X9011904Y-21838371D02*
X8773809Y-21838371D01*
X8773809Y-21838371D02*
X8678571Y-21885990D01*
X8678571Y-21885990D02*
X8630952Y-21933609D01*
X8630952Y-21933609D02*
X8583333Y-22028847D01*
X8583333Y-22028847D02*
X8583333Y-22266942D01*
X8583333Y-22266942D02*
X8630952Y-22362180D01*
X8630952Y-22362180D02*
X8678571Y-22409800D01*
X8678571Y-22409800D02*
X8773809Y-22457419D01*
X8773809Y-22457419D02*
X9011904Y-22457419D01*
X9011904Y-22457419D02*
X9107142Y-22409800D01*
X9107142Y-22409800D02*
X9154761Y-22362180D01*
D10*
X17455866Y-19846268D02*
X17408247Y-19893887D01*
X17408247Y-19893887D02*
X17360628Y-19989125D01*
X17360628Y-19989125D02*
X17455866Y-20179601D01*
X17455866Y-20179601D02*
X17408247Y-20274839D01*
X17408247Y-20274839D02*
X17360628Y-20322458D01*
X13874046Y-80234580D02*
X13921665Y-80282200D01*
X13921665Y-80282200D02*
X14064522Y-80329819D01*
X14064522Y-80329819D02*
X14159760Y-80329819D01*
X14159760Y-80329819D02*
X14302617Y-80282200D01*
X14302617Y-80282200D02*
X14397855Y-80186961D01*
X14397855Y-80186961D02*
X14445474Y-80091723D01*
X14445474Y-80091723D02*
X14493093Y-79901247D01*
X14493093Y-79901247D02*
X14493093Y-79758390D01*
X14493093Y-79758390D02*
X14445474Y-79567914D01*
X14445474Y-79567914D02*
X14397855Y-79472676D01*
X14397855Y-79472676D02*
X14302617Y-79377438D01*
X14302617Y-79377438D02*
X14159760Y-79329819D01*
X14159760Y-79329819D02*
X14064522Y-79329819D01*
X14064522Y-79329819D02*
X13921665Y-79377438D01*
X13921665Y-79377438D02*
X13874046Y-79425057D01*
X13016903Y-79329819D02*
X13207379Y-79329819D01*
X13207379Y-79329819D02*
X13302617Y-79377438D01*
X13302617Y-79377438D02*
X13350236Y-79425057D01*
X13350236Y-79425057D02*
X13445474Y-79567914D01*
X13445474Y-79567914D02*
X13493093Y-79758390D01*
X13493093Y-79758390D02*
X13493093Y-80139342D01*
X13493093Y-80139342D02*
X13445474Y-80234580D01*
X13445474Y-80234580D02*
X13397855Y-80282200D01*
X13397855Y-80282200D02*
X13302617Y-80329819D01*
X13302617Y-80329819D02*
X13112141Y-80329819D01*
X13112141Y-80329819D02*
X13016903Y-80282200D01*
X13016903Y-80282200D02*
X12969284Y-80234580D01*
X12969284Y-80234580D02*
X12921665Y-80139342D01*
X12921665Y-80139342D02*
X12921665Y-79901247D01*
X12921665Y-79901247D02*
X12969284Y-79806009D01*
X12969284Y-79806009D02*
X13016903Y-79758390D01*
X13016903Y-79758390D02*
X13112141Y-79710771D01*
X13112141Y-79710771D02*
X13302617Y-79710771D01*
X13302617Y-79710771D02*
X13397855Y-79758390D01*
X13397855Y-79758390D02*
X13445474Y-79806009D01*
X13445474Y-79806009D02*
X13493093Y-79901247D01*
%TO.C,D1*%
D12*
X16270000Y-59250000D02*
G75*
G02*
X11270000Y-59250000I-2500000J0D01*
G01*
X11270000Y-59250000D02*
G75*
G02*
X16270000Y-59250000I2500000J0D01*
G01*
X16760000Y-59250000D02*
G75*
G02*
X11210000Y-60794830I-2990000J0D01*
G01*
X11210000Y-57705170D02*
G75*
G02*
X16760000Y-59250000I2560000J-1544830D01*
G01*
X11210000Y-60795000D02*
X11210000Y-57705000D01*
%TO.C,J4*%
D11*
X11794000Y-5500000D02*
G75*
G02*
X6206000Y-5500000I-2794000J0D01*
G01*
X6206000Y-5500000D02*
G75*
G02*
X11794000Y-5500000I2794000J0D01*
G01*
X3500000Y-1000000D02*
X16500000Y-1000000D01*
X16500000Y-10000000D01*
X3500000Y-10000000D01*
X3500000Y-1000000D01*
%TO.C,J3*%
X3500000Y-90000000D02*
X16500000Y-90000000D01*
X16500000Y-99000000D01*
X3500000Y-99000000D01*
X3500000Y-90000000D01*
X11794000Y-94500000D02*
G75*
G02*
X6206000Y-94500000I-2794000J0D01*
G01*
X6206000Y-94500000D02*
G75*
G02*
X11794000Y-94500000I2794000J0D01*
G01*
%TO.C,SW1*%
D12*
X2000000Y-61500000D02*
X2000000Y-57000000D01*
X4500000Y-55750000D02*
X6000000Y-55750000D01*
X6000000Y-62750000D02*
X4500000Y-62750000D01*
X8500000Y-57000000D02*
X8500000Y-61500000D01*
%TO.C,C4*%
X1737259Y-86214000D02*
X2367259Y-86214000D01*
X2052259Y-86529000D02*
X2052259Y-85899000D01*
X5237500Y-87605000D02*
X5237500Y-81145000D01*
X5277500Y-87605000D02*
X5277500Y-81145000D01*
X5317500Y-87604000D02*
X5317500Y-81146000D01*
X5357500Y-87603000D02*
X5357500Y-81147000D01*
X5397500Y-87601000D02*
X5397500Y-81149000D01*
X5437500Y-87599000D02*
X5437500Y-81151000D01*
X5477500Y-83335000D02*
X5477500Y-81154000D01*
X5477500Y-87596000D02*
X5477500Y-85415000D01*
X5517500Y-83335000D02*
X5517500Y-81157000D01*
X5517500Y-87593000D02*
X5517500Y-85415000D01*
X5557500Y-83335000D02*
X5557500Y-81161000D01*
X5557500Y-87589000D02*
X5557500Y-85415000D01*
X5597500Y-83335000D02*
X5597500Y-81165000D01*
X5597500Y-87585000D02*
X5597500Y-85415000D01*
X5637500Y-83335000D02*
X5637500Y-81170000D01*
X5637500Y-87580000D02*
X5637500Y-85415000D01*
X5677500Y-83335000D02*
X5677500Y-81175000D01*
X5677500Y-87575000D02*
X5677500Y-85415000D01*
X5717500Y-83335000D02*
X5717500Y-81180000D01*
X5717500Y-87570000D02*
X5717500Y-85415000D01*
X5757500Y-83335000D02*
X5757500Y-81187000D01*
X5757500Y-87563000D02*
X5757500Y-85415000D01*
X5797500Y-83335000D02*
X5797500Y-81193000D01*
X5797500Y-87557000D02*
X5797500Y-85415000D01*
X5837500Y-83335000D02*
X5837500Y-81201000D01*
X5837500Y-87549000D02*
X5837500Y-85415000D01*
X5877500Y-83335000D02*
X5877500Y-81208000D01*
X5877500Y-87542000D02*
X5877500Y-85415000D01*
X5917500Y-83335000D02*
X5917500Y-81216000D01*
X5917500Y-87534000D02*
X5917500Y-85415000D01*
X5957500Y-83335000D02*
X5957500Y-81225000D01*
X5957500Y-87525000D02*
X5957500Y-85415000D01*
X5997500Y-83335000D02*
X5997500Y-81235000D01*
X5997500Y-87515000D02*
X5997500Y-85415000D01*
X6037500Y-83335000D02*
X6037500Y-81244000D01*
X6037500Y-87506000D02*
X6037500Y-85415000D01*
X6077500Y-83335000D02*
X6077500Y-81255000D01*
X6077500Y-87495000D02*
X6077500Y-85415000D01*
X6117500Y-83335000D02*
X6117500Y-81266000D01*
X6117500Y-87484000D02*
X6117500Y-85415000D01*
X6157500Y-83335000D02*
X6157500Y-81277000D01*
X6157500Y-87473000D02*
X6157500Y-85415000D01*
X6197500Y-83335000D02*
X6197500Y-81289000D01*
X6197500Y-87461000D02*
X6197500Y-85415000D01*
X6237500Y-83335000D02*
X6237500Y-81302000D01*
X6237500Y-87448000D02*
X6237500Y-85415000D01*
X6277500Y-83335000D02*
X6277500Y-81315000D01*
X6277500Y-87435000D02*
X6277500Y-85415000D01*
X6317500Y-83335000D02*
X6317500Y-81328000D01*
X6317500Y-87422000D02*
X6317500Y-85415000D01*
X6357500Y-83335000D02*
X6357500Y-81343000D01*
X6357500Y-87407000D02*
X6357500Y-85415000D01*
X6397500Y-83335000D02*
X6397500Y-81358000D01*
X6397500Y-87392000D02*
X6397500Y-85415000D01*
X6437500Y-83335000D02*
X6437500Y-81373000D01*
X6437500Y-87377000D02*
X6437500Y-85415000D01*
X6477500Y-83335000D02*
X6477500Y-81389000D01*
X6477500Y-87361000D02*
X6477500Y-85415000D01*
X6517500Y-83335000D02*
X6517500Y-81406000D01*
X6517500Y-87344000D02*
X6517500Y-85415000D01*
X6557500Y-83335000D02*
X6557500Y-81423000D01*
X6557500Y-87327000D02*
X6557500Y-85415000D01*
X6597500Y-83335000D02*
X6597500Y-81441000D01*
X6597500Y-87309000D02*
X6597500Y-85415000D01*
X6637500Y-83335000D02*
X6637500Y-81460000D01*
X6637500Y-87290000D02*
X6637500Y-85415000D01*
X6677500Y-83335000D02*
X6677500Y-81479000D01*
X6677500Y-87271000D02*
X6677500Y-85415000D01*
X6717500Y-83335000D02*
X6717500Y-81499000D01*
X6717500Y-87251000D02*
X6717500Y-85415000D01*
X6757500Y-83335000D02*
X6757500Y-81520000D01*
X6757500Y-87230000D02*
X6757500Y-85415000D01*
X6797500Y-83335000D02*
X6797500Y-81541000D01*
X6797500Y-87209000D02*
X6797500Y-85415000D01*
X6837500Y-83335000D02*
X6837500Y-81563000D01*
X6837500Y-87187000D02*
X6837500Y-85415000D01*
X6877500Y-83335000D02*
X6877500Y-81586000D01*
X6877500Y-87164000D02*
X6877500Y-85415000D01*
X6917500Y-83335000D02*
X6917500Y-81610000D01*
X6917500Y-87140000D02*
X6917500Y-85415000D01*
X6957500Y-83335000D02*
X6957500Y-81634000D01*
X6957500Y-87116000D02*
X6957500Y-85415000D01*
X6997500Y-83335000D02*
X6997500Y-81659000D01*
X6997500Y-87091000D02*
X6997500Y-85415000D01*
X7037500Y-83335000D02*
X7037500Y-81685000D01*
X7037500Y-87065000D02*
X7037500Y-85415000D01*
X7077500Y-83335000D02*
X7077500Y-81712000D01*
X7077500Y-87038000D02*
X7077500Y-85415000D01*
X7117500Y-83335000D02*
X7117500Y-81739000D01*
X7117500Y-87011000D02*
X7117500Y-85415000D01*
X7157500Y-83335000D02*
X7157500Y-81768000D01*
X7157500Y-86982000D02*
X7157500Y-85415000D01*
X7197500Y-83335000D02*
X7197500Y-81798000D01*
X7197500Y-86952000D02*
X7197500Y-85415000D01*
X7237500Y-83335000D02*
X7237500Y-81828000D01*
X7237500Y-86922000D02*
X7237500Y-85415000D01*
X7277500Y-83335000D02*
X7277500Y-81859000D01*
X7277500Y-86891000D02*
X7277500Y-85415000D01*
X7317500Y-83335000D02*
X7317500Y-81892000D01*
X7317500Y-86858000D02*
X7317500Y-85415000D01*
X7357500Y-83335000D02*
X7357500Y-81925000D01*
X7357500Y-86825000D02*
X7357500Y-85415000D01*
X7397500Y-83335000D02*
X7397500Y-81960000D01*
X7397500Y-86790000D02*
X7397500Y-85415000D01*
X7437500Y-83335000D02*
X7437500Y-81996000D01*
X7437500Y-86754000D02*
X7437500Y-85415000D01*
X7477500Y-83335000D02*
X7477500Y-82033000D01*
X7477500Y-86717000D02*
X7477500Y-85415000D01*
X7517500Y-83335000D02*
X7517500Y-82071000D01*
X7517500Y-86679000D02*
X7517500Y-85415000D01*
X7557500Y-86639000D02*
X7557500Y-82111000D01*
X7597500Y-86598000D02*
X7597500Y-82152000D01*
X7637500Y-86556000D02*
X7637500Y-82194000D01*
X7677500Y-86512000D02*
X7677500Y-82238000D01*
X7717500Y-86466000D02*
X7717500Y-82284000D01*
X7757500Y-86419000D02*
X7757500Y-82331000D01*
X7797500Y-86370000D02*
X7797500Y-82380000D01*
X7837500Y-86318000D02*
X7837500Y-82432000D01*
X7877500Y-86265000D02*
X7877500Y-82485000D01*
X7917500Y-86209000D02*
X7917500Y-82541000D01*
X7957500Y-86150000D02*
X7957500Y-82600000D01*
X7997500Y-86089000D02*
X7997500Y-82661000D01*
X8037500Y-86024000D02*
X8037500Y-82726000D01*
X8077500Y-85956000D02*
X8077500Y-82794000D01*
X8117500Y-85884000D02*
X8117500Y-82866000D01*
X8157500Y-85807000D02*
X8157500Y-82943000D01*
X8197500Y-85725000D02*
X8197500Y-83025000D01*
X8237500Y-85636000D02*
X8237500Y-83114000D01*
X8277500Y-85540000D02*
X8277500Y-83210000D01*
X8317500Y-85433000D02*
X8317500Y-83317000D01*
X8357500Y-85314000D02*
X8357500Y-83436000D01*
X8397500Y-85176000D02*
X8397500Y-83574000D01*
X8437500Y-85008000D02*
X8437500Y-83742000D01*
X8477500Y-84777000D02*
X8477500Y-83973000D01*
X8507500Y-84375000D02*
G75*
G02*
X1967500Y-84375000I-3270000J0D01*
G01*
X1967500Y-84375000D02*
G75*
G02*
X8507500Y-84375000I3270000J0D01*
G01*
%TO.C,J5*%
D11*
X3500000Y-12000000D02*
X16500000Y-12000000D01*
X16500000Y-21000000D01*
X3500000Y-21000000D01*
X3500000Y-12000000D01*
X11794000Y-16500000D02*
G75*
G02*
X6206000Y-16500000I-2794000J0D01*
G01*
X6206000Y-16500000D02*
G75*
G02*
X11794000Y-16500000I2794000J0D01*
G01*
%TO.C,C6*%
D12*
X10274759Y-86214000D02*
X10904759Y-86214000D01*
X10589759Y-86529000D02*
X10589759Y-85899000D01*
X13775000Y-87605000D02*
X13775000Y-81145000D01*
X13815000Y-87605000D02*
X13815000Y-81145000D01*
X13855000Y-87604000D02*
X13855000Y-81146000D01*
X13895000Y-87603000D02*
X13895000Y-81147000D01*
X13935000Y-87601000D02*
X13935000Y-81149000D01*
X13975000Y-87599000D02*
X13975000Y-81151000D01*
X14015000Y-83335000D02*
X14015000Y-81154000D01*
X14015000Y-87596000D02*
X14015000Y-85415000D01*
X14055000Y-83335000D02*
X14055000Y-81157000D01*
X14055000Y-87593000D02*
X14055000Y-85415000D01*
X14095000Y-83335000D02*
X14095000Y-81161000D01*
X14095000Y-87589000D02*
X14095000Y-85415000D01*
X14135000Y-83335000D02*
X14135000Y-81165000D01*
X14135000Y-87585000D02*
X14135000Y-85415000D01*
X14175000Y-83335000D02*
X14175000Y-81170000D01*
X14175000Y-87580000D02*
X14175000Y-85415000D01*
X14215000Y-83335000D02*
X14215000Y-81175000D01*
X14215000Y-87575000D02*
X14215000Y-85415000D01*
X14255000Y-83335000D02*
X14255000Y-81180000D01*
X14255000Y-87570000D02*
X14255000Y-85415000D01*
X14295000Y-83335000D02*
X14295000Y-81187000D01*
X14295000Y-87563000D02*
X14295000Y-85415000D01*
X14335000Y-83335000D02*
X14335000Y-81193000D01*
X14335000Y-87557000D02*
X14335000Y-85415000D01*
X14375000Y-83335000D02*
X14375000Y-81201000D01*
X14375000Y-87549000D02*
X14375000Y-85415000D01*
X14415000Y-83335000D02*
X14415000Y-81208000D01*
X14415000Y-87542000D02*
X14415000Y-85415000D01*
X14455000Y-83335000D02*
X14455000Y-81216000D01*
X14455000Y-87534000D02*
X14455000Y-85415000D01*
X14495000Y-83335000D02*
X14495000Y-81225000D01*
X14495000Y-87525000D02*
X14495000Y-85415000D01*
X14535000Y-83335000D02*
X14535000Y-81235000D01*
X14535000Y-87515000D02*
X14535000Y-85415000D01*
X14575000Y-83335000D02*
X14575000Y-81244000D01*
X14575000Y-87506000D02*
X14575000Y-85415000D01*
X14615000Y-83335000D02*
X14615000Y-81255000D01*
X14615000Y-87495000D02*
X14615000Y-85415000D01*
X14655000Y-83335000D02*
X14655000Y-81266000D01*
X14655000Y-87484000D02*
X14655000Y-85415000D01*
X14695000Y-83335000D02*
X14695000Y-81277000D01*
X14695000Y-87473000D02*
X14695000Y-85415000D01*
X14735000Y-83335000D02*
X14735000Y-81289000D01*
X14735000Y-87461000D02*
X14735000Y-85415000D01*
X14775000Y-83335000D02*
X14775000Y-81302000D01*
X14775000Y-87448000D02*
X14775000Y-85415000D01*
X14815000Y-83335000D02*
X14815000Y-81315000D01*
X14815000Y-87435000D02*
X14815000Y-85415000D01*
X14855000Y-83335000D02*
X14855000Y-81328000D01*
X14855000Y-87422000D02*
X14855000Y-85415000D01*
X14895000Y-83335000D02*
X14895000Y-81343000D01*
X14895000Y-87407000D02*
X14895000Y-85415000D01*
X14935000Y-83335000D02*
X14935000Y-81358000D01*
X14935000Y-87392000D02*
X14935000Y-85415000D01*
X14975000Y-83335000D02*
X14975000Y-81373000D01*
X14975000Y-87377000D02*
X14975000Y-85415000D01*
X15015000Y-83335000D02*
X15015000Y-81389000D01*
X15015000Y-87361000D02*
X15015000Y-85415000D01*
X15055000Y-83335000D02*
X15055000Y-81406000D01*
X15055000Y-87344000D02*
X15055000Y-85415000D01*
X15095000Y-83335000D02*
X15095000Y-81423000D01*
X15095000Y-87327000D02*
X15095000Y-85415000D01*
X15135000Y-83335000D02*
X15135000Y-81441000D01*
X15135000Y-87309000D02*
X15135000Y-85415000D01*
X15175000Y-83335000D02*
X15175000Y-81460000D01*
X15175000Y-87290000D02*
X15175000Y-85415000D01*
X15215000Y-83335000D02*
X15215000Y-81479000D01*
X15215000Y-87271000D02*
X15215000Y-85415000D01*
X15255000Y-83335000D02*
X15255000Y-81499000D01*
X15255000Y-87251000D02*
X15255000Y-85415000D01*
X15295000Y-83335000D02*
X15295000Y-81520000D01*
X15295000Y-87230000D02*
X15295000Y-85415000D01*
X15335000Y-83335000D02*
X15335000Y-81541000D01*
X15335000Y-87209000D02*
X15335000Y-85415000D01*
X15375000Y-83335000D02*
X15375000Y-81563000D01*
X15375000Y-87187000D02*
X15375000Y-85415000D01*
X15415000Y-83335000D02*
X15415000Y-81586000D01*
X15415000Y-87164000D02*
X15415000Y-85415000D01*
X15455000Y-83335000D02*
X15455000Y-81610000D01*
X15455000Y-87140000D02*
X15455000Y-85415000D01*
X15495000Y-83335000D02*
X15495000Y-81634000D01*
X15495000Y-87116000D02*
X15495000Y-85415000D01*
X15535000Y-83335000D02*
X15535000Y-81659000D01*
X15535000Y-87091000D02*
X15535000Y-85415000D01*
X15575000Y-83335000D02*
X15575000Y-81685000D01*
X15575000Y-87065000D02*
X15575000Y-85415000D01*
X15615000Y-83335000D02*
X15615000Y-81712000D01*
X15615000Y-87038000D02*
X15615000Y-85415000D01*
X15655000Y-83335000D02*
X15655000Y-81739000D01*
X15655000Y-87011000D02*
X15655000Y-85415000D01*
X15695000Y-83335000D02*
X15695000Y-81768000D01*
X15695000Y-86982000D02*
X15695000Y-85415000D01*
X15735000Y-83335000D02*
X15735000Y-81798000D01*
X15735000Y-86952000D02*
X15735000Y-85415000D01*
X15775000Y-83335000D02*
X15775000Y-81828000D01*
X15775000Y-86922000D02*
X15775000Y-85415000D01*
X15815000Y-83335000D02*
X15815000Y-81859000D01*
X15815000Y-86891000D02*
X15815000Y-85415000D01*
X15855000Y-83335000D02*
X15855000Y-81892000D01*
X15855000Y-86858000D02*
X15855000Y-85415000D01*
X15895000Y-83335000D02*
X15895000Y-81925000D01*
X15895000Y-86825000D02*
X15895000Y-85415000D01*
X15935000Y-83335000D02*
X15935000Y-81960000D01*
X15935000Y-86790000D02*
X15935000Y-85415000D01*
X15975000Y-83335000D02*
X15975000Y-81996000D01*
X15975000Y-86754000D02*
X15975000Y-85415000D01*
X16015000Y-83335000D02*
X16015000Y-82033000D01*
X16015000Y-86717000D02*
X16015000Y-85415000D01*
X16055000Y-83335000D02*
X16055000Y-82071000D01*
X16055000Y-86679000D02*
X16055000Y-85415000D01*
X16095000Y-86639000D02*
X16095000Y-82111000D01*
X16135000Y-86598000D02*
X16135000Y-82152000D01*
X16175000Y-86556000D02*
X16175000Y-82194000D01*
X16215000Y-86512000D02*
X16215000Y-82238000D01*
X16255000Y-86466000D02*
X16255000Y-82284000D01*
X16295000Y-86419000D02*
X16295000Y-82331000D01*
X16335000Y-86370000D02*
X16335000Y-82380000D01*
X16375000Y-86318000D02*
X16375000Y-82432000D01*
X16415000Y-86265000D02*
X16415000Y-82485000D01*
X16455000Y-86209000D02*
X16455000Y-82541000D01*
X16495000Y-86150000D02*
X16495000Y-82600000D01*
X16535000Y-86089000D02*
X16535000Y-82661000D01*
X16575000Y-86024000D02*
X16575000Y-82726000D01*
X16615000Y-85956000D02*
X16615000Y-82794000D01*
X16655000Y-85884000D02*
X16655000Y-82866000D01*
X16695000Y-85807000D02*
X16695000Y-82943000D01*
X16735000Y-85725000D02*
X16735000Y-83025000D01*
X16775000Y-85636000D02*
X16775000Y-83114000D01*
X16815000Y-85540000D02*
X16815000Y-83210000D01*
X16855000Y-85433000D02*
X16855000Y-83317000D01*
X16895000Y-85314000D02*
X16895000Y-83436000D01*
X16935000Y-85176000D02*
X16935000Y-83574000D01*
X16975000Y-85008000D02*
X16975000Y-83742000D01*
X17015000Y-84777000D02*
X17015000Y-83973000D01*
X17045000Y-84375000D02*
G75*
G02*
X10505000Y-84375000I-3270000J0D01*
G01*
X10505000Y-84375000D02*
G75*
G02*
X17045000Y-84375000I3270000J0D01*
G01*
%TD*%
M02*
