M48
; DRILL file KiCad 10.0.6 date 2026-09-30T20:24:26
; FORMAT={-:-/ absolute / metric / decimal}
; #@! TF.CreationDate,2026-09-30T20:24:26+02:00
; #@! TF.GenerationSoftware,Kicad,Pcbnew,10.0.6
; #@! TF.FileFunction,Plated,1,2,PTH
FMAT,2
METRIC
; #@! TA.AperFunction,Plated,PTH,ViaDrill
T1C0.300
; #@! TA.AperFunction,Plated,PTH,ComponentDrill
T2C0.500
; #@! TA.AperFunction,Plated,PTH,ComponentDrill
T3C0.800
; #@! TA.AperFunction,Plated,PTH,ComponentDrill
T4C0.900
; #@! TA.AperFunction,Plated,PTH,ComponentDrill
T5C1.000
; #@! TA.AperFunction,Plated,PTH,ComponentDrill
T6C1.100
; #@! TA.AperFunction,Plated,PTH,ComponentDrill
T7C1.190
%
G90
G05
T1
X1.825Y-25.825
X2.5Y-27.25
X4.45Y-23.2
X7.0Y-26.15
X7.0Y-30.25
X11.0Y-32.75
X11.5Y-64.75
X12.25Y-62.25
X13.0Y-24.25
X14.0Y-52.25
X14.5Y-35.75
X14.5Y-38.25
X15.175Y-51.5
X15.25Y-47.5
X16.5Y-68.25
T3
X3.987Y-84.375
X6.487Y-84.375
X12.525Y-84.375
X15.025Y-84.375
T4
X12.5Y-59.25
X15.04Y-59.25
T5
X3.985Y-70.755
X3.985Y-73.295
X3.985Y-75.835
X3.985Y-78.375
X4.0Y-31.21
X4.0Y-33.75
X4.0Y-36.29
X6.525Y-70.755
X6.525Y-73.295
X6.525Y-75.835
X6.525Y-78.375
T6
X3.0Y-56.0
X3.0Y-62.5
X7.5Y-56.0
X7.5Y-62.5
T7
X4.98Y-41.67
X4.98Y-44.21
X4.98Y-46.75
X4.98Y-49.29
X4.98Y-51.83
T2
G00X4.6Y-4.75
M15
G01X4.6Y-6.25
M16
G05
G00X4.6Y-15.75
M15
G01X4.6Y-17.25
M16
G05
G00X4.6Y-93.75
M15
G01X4.6Y-95.25
M16
G05
G00X13.1Y-4.75
M15
G01X13.1Y-6.25
M16
G05
G00X13.1Y-15.75
M15
G01X13.1Y-17.25
M16
G05
G00X13.1Y-93.75
M15
G01X13.1Y-95.25
M16
G05
G00X15.6Y-4.75
M15
G01X15.6Y-6.25
M16
G05
G00X15.6Y-15.75
M15
G01X15.6Y-17.25
M16
G05
G00X15.6Y-93.75
M15
G01X15.6Y-95.25
M16
G05
M30
