%TF.GenerationSoftware,KiCad,Pcbnew,10.0.6*%
%TF.CreationDate,2026-09-30T20:24:19+02:00*%
%TF.ProjectId,player_melodic,706c6179-6572-45f6-9d65-6c6f6469632e,rev?*%
%TF.SameCoordinates,Original*%
%TF.FileFunction,Paste,Top*%
%TF.FilePolarity,Positive*%
%FSLAX46Y46*%
G04 Gerber Fmt 4.6, Leading zero omitted, Abs format (unit mm)*
G04 Created by KiCad (PCBNEW 10.0.6) date 2026-09-30 20:24:19*
%MOMM*%
%LPD*%
G01*
G04 APERTURE LIST*
G04 Aperture macros list*
%AMRoundRect*
0 Rectangle with rounded corners*
0 $1 Rounding radius*
0 $2 $3 $4 $5 $6 $7 $8 $9 X,Y pos of 4 corners*
0 Add a 4 corners polygon primitive as box body*
4,1,4,$2,$3,$4,$5,$6,$7,$8,$9,$2,$3,0*
0 Add four circle primitives for the rounded corners*
1,1,$1+$1,$2,$3*
1,1,$1+$1,$4,$5*
1,1,$1+$1,$6,$7*
1,1,$1+$1,$8,$9*
0 Add four rect primitives between the rounded corners*
20,1,$1+$1,$2,$3,$4,$5,0*
20,1,$1+$1,$4,$5,$6,$7,0*
20,1,$1+$1,$6,$7,$8,$9,0*
20,1,$1+$1,$8,$9,$2,$3,0*%
G04 Aperture macros list end*
%ADD10RoundRect,0.250000X0.350000X0.450000X-0.350000X0.450000X-0.350000X-0.450000X0.350000X-0.450000X0*%
%ADD11RoundRect,0.250000X0.475000X-0.337500X0.475000X0.337500X-0.475000X0.337500X-0.475000X-0.337500X0*%
%ADD12RoundRect,0.250000X0.337500X0.475000X-0.337500X0.475000X-0.337500X-0.475000X0.337500X-0.475000X0*%
%ADD13RoundRect,0.250000X-0.450000X0.350000X-0.450000X-0.350000X0.450000X-0.350000X0.450000X0.350000X0*%
%ADD14RoundRect,0.250000X-0.350000X-0.450000X0.350000X-0.450000X0.350000X0.450000X-0.350000X0.450000X0*%
%ADD15RoundRect,0.150000X-0.825000X-0.150000X0.825000X-0.150000X0.825000X0.150000X-0.825000X0.150000X0*%
%ADD16RoundRect,0.250000X0.450000X-0.350000X0.450000X0.350000X-0.450000X0.350000X-0.450000X-0.350000X0*%
%ADD17RoundRect,0.100000X0.100000X-0.637500X0.100000X0.637500X-0.100000X0.637500X-0.100000X-0.637500X0*%
%ADD18RoundRect,0.375000X0.375000X-0.625000X0.375000X0.625000X-0.375000X0.625000X-0.375000X-0.625000X0*%
%ADD19RoundRect,0.500000X1.400000X-0.500000X1.400000X0.500000X-1.400000X0.500000X-1.400000X-0.500000X0*%
%ADD20RoundRect,0.150000X0.587500X0.150000X-0.587500X0.150000X-0.587500X-0.150000X0.587500X-0.150000X0*%
%ADD21RoundRect,0.150000X-0.800000X-0.150000X0.800000X-0.150000X0.800000X0.150000X-0.800000X0.150000X0*%
%ADD22RoundRect,0.250000X-0.337500X-0.475000X0.337500X-0.475000X0.337500X0.475000X-0.337500X0.475000X0*%
G04 APERTURE END LIST*
D10*
%TO.C,R8*%
X14000000Y-53500000D03*
X12000000Y-53500000D03*
%TD*%
D11*
%TO.C,C7*%
X11500000Y-68250000D03*
X11500000Y-66175000D03*
%TD*%
D12*
%TO.C,C8*%
X15537500Y-64500000D03*
X13462500Y-64500000D03*
%TD*%
D13*
%TO.C,R5*%
X2000000Y-6000000D03*
X2000000Y-8000000D03*
%TD*%
D14*
%TO.C,R1*%
X8500000Y-88500000D03*
X10500000Y-88500000D03*
%TD*%
D15*
%TO.C,U1*%
X10525000Y-25845000D03*
X10525000Y-27115000D03*
X10525000Y-28385000D03*
X10525000Y-29655000D03*
X15475000Y-29655000D03*
X15475000Y-28385000D03*
X15475000Y-27115000D03*
X15475000Y-25845000D03*
%TD*%
D16*
%TO.C,R2*%
X9500000Y-86500000D03*
X9500000Y-84500000D03*
%TD*%
D13*
%TO.C,R6*%
X2000000Y-16000000D03*
X2000000Y-18000000D03*
%TD*%
D17*
%TO.C,U2*%
X10325000Y-48862500D03*
X10975000Y-48862500D03*
X11625000Y-48862500D03*
X12275000Y-48862500D03*
X12925000Y-48862500D03*
X13575000Y-48862500D03*
X14225000Y-48862500D03*
X14875000Y-48862500D03*
X15525000Y-48862500D03*
X16175000Y-48862500D03*
X16175000Y-43137500D03*
X15525000Y-43137500D03*
X14875000Y-43137500D03*
X14225000Y-43137500D03*
X13575000Y-43137500D03*
X12925000Y-43137500D03*
X12275000Y-43137500D03*
X11625000Y-43137500D03*
X10975000Y-43137500D03*
X10325000Y-43137500D03*
%TD*%
D14*
%TO.C,R3*%
X3500000Y-26750000D03*
X5500000Y-26750000D03*
%TD*%
D18*
%TO.C,U4*%
X11700000Y-76900000D03*
X14000000Y-76900000D03*
D19*
X14000000Y-70600000D03*
D18*
X16300000Y-76900000D03*
%TD*%
D12*
%TO.C,C1*%
X16037500Y-23750000D03*
X13962500Y-23750000D03*
%TD*%
%TO.C,C5*%
X10037500Y-32250000D03*
X7962500Y-32250000D03*
%TD*%
D20*
%TO.C,Q1*%
X9937500Y-95200000D03*
X9937500Y-93300000D03*
X8062500Y-94250000D03*
%TD*%
D14*
%TO.C,R4*%
X4250000Y-88500000D03*
X6250000Y-88500000D03*
%TD*%
D20*
%TO.C,U5*%
X15437500Y-68200000D03*
X15437500Y-66300000D03*
X13562500Y-67250000D03*
%TD*%
D21*
%TO.C,U3*%
X8500000Y-34845000D03*
X8500000Y-36115000D03*
X8500000Y-37385000D03*
X8500000Y-38655000D03*
X15500000Y-38655000D03*
X15500000Y-37385000D03*
X15500000Y-36115000D03*
X15500000Y-34845000D03*
%TD*%
D11*
%TO.C,C2*%
X8000000Y-30287500D03*
X8000000Y-28212500D03*
%TD*%
D14*
%TO.C,R7*%
X14000000Y-32225000D03*
X16000000Y-32225000D03*
%TD*%
D22*
%TO.C,C3*%
X11962500Y-51000000D03*
X14037500Y-51000000D03*
%TD*%
M02*
