%TF.GenerationSoftware,KiCad,Pcbnew,10.0.6*%
%TF.CreationDate,2026-09-30T20:24:19+02:00*%
%TF.ProjectId,player_melodic,706c6179-6572-45f6-9d65-6c6f6469632e,rev?*%
%TF.SameCoordinates,Original*%
%TF.FileFunction,Copper,L2,Bot*%
%TF.FilePolarity,Positive*%
%FSLAX46Y46*%
G04 Gerber Fmt 4.6, Leading zero omitted, Abs format (unit mm)*
G04 Created by KiCad (PCBNEW 10.0.6) date 2026-09-30 20:24:19*
%MOMM*%
%LPD*%
G01*
G04 APERTURE LIST*
G04 Aperture macros list*
%AMRoundRect*
0 Rectangle with rounded corners*
0 $1 Rounding radius*
0 $2 $3 $4 $5 $6 $7 $8 $9 X,Y pos of 4 corners*
0 Add a 4 corners polygon primitive as box body*
4,1,4,$2,$3,$4,$5,$6,$7,$8,$9,$2,$3,0*
0 Add four circle primitives for the rounded corners*
1,1,$1+$1,$2,$3*
1,1,$1+$1,$4,$5*
1,1,$1+$1,$6,$7*
1,1,$1+$1,$8,$9*
0 Add four rect primitives between the rounded corners*
20,1,$1+$1,$2,$3,$4,$5,0*
20,1,$1+$1,$4,$5,$6,$7,0*
20,1,$1+$1,$6,$7,$8,$9,0*
20,1,$1+$1,$8,$9,$2,$3,0*%
G04 Aperture macros list end*
%TA.AperFunction,ComponentPad*%
%ADD10C,1.800000*%
%TD*%
%TA.AperFunction,ComponentPad*%
%ADD11R,1.800000X1.800000*%
%TD*%
%TA.AperFunction,ComponentPad*%
%ADD12RoundRect,0.750000X-0.000010X0.750000X-0.000010X-0.750000X0.000010X-0.750000X0.000010X0.750000X0*%
%TD*%
%TA.AperFunction,ComponentPad*%
%ADD13RoundRect,0.250000X-0.845000X0.620000X-0.845000X-0.620000X0.845000X-0.620000X0.845000X0.620000X0*%
%TD*%
%TA.AperFunction,ComponentPad*%
%ADD14O,2.190000X1.740000*%
%TD*%
%TA.AperFunction,ComponentPad*%
%ADD15R,1.700000X1.700000*%
%TD*%
%TA.AperFunction,ComponentPad*%
%ADD16C,1.700000*%
%TD*%
%TA.AperFunction,ComponentPad*%
%ADD17C,2.000000*%
%TD*%
%TA.AperFunction,ComponentPad*%
%ADD18RoundRect,0.250000X-0.550000X-0.550000X0.550000X-0.550000X0.550000X0.550000X-0.550000X0.550000X0*%
%TD*%
%TA.AperFunction,ComponentPad*%
%ADD19C,1.600000*%
%TD*%
%TA.AperFunction,ViaPad*%
%ADD20C,0.600000*%
%TD*%
%TA.AperFunction,Conductor*%
%ADD21C,0.200000*%
%TD*%
G04 APERTURE END LIST*
D10*
%TO.P,D1,2,A_2*%
%TO.N,Net-(D1-A)*%
X15040000Y-59250000D03*
D11*
%TO.P,D1,1,K_1*%
%TO.N,Net-(D1-K)*%
X12500000Y-59250000D03*
%TD*%
D12*
%TO.P,J4,TN,TN_TN*%
%TO.N,unconnected-(J4-PadTN)*%
X13100000Y-5500000D03*
%TO.P,J4,T,T_T*%
%TO.N,Net-(J4-PadT)*%
X4600000Y-5500000D03*
%TO.P,J4,S,S_S*%
%TO.N,GND*%
X15600000Y-5500000D03*
%TD*%
D13*
%TO.P,J1,1,Pin_1_1*%
%TO.N,SWD DATA*%
X4980000Y-41670000D03*
D14*
%TO.P,J1,2,Pin_2_2*%
%TO.N,SWD CLOCK*%
X4980000Y-44210000D03*
%TO.P,J1,3,Pin_3_3*%
%TO.N,RESET*%
X4980000Y-46750000D03*
%TO.P,J1,4,Pin_4_4*%
%TO.N,+3.3V*%
X4980000Y-49290000D03*
%TO.P,J1,5,Pin_5_5*%
%TO.N,GND*%
X4980000Y-51830000D03*
%TD*%
D15*
%TO.P,J2,1,Pin_1_1*%
%TO.N,+12V*%
X6525000Y-78375000D03*
D16*
%TO.P,J2,2,Pin_2_2*%
%TO.N,GND*%
X3985000Y-78375000D03*
%TO.P,J2,3,Pin_3_3*%
%TO.N,-12V*%
X6525000Y-75835000D03*
%TO.P,J2,4,Pin_4_4*%
%TO.N,GND*%
X3985000Y-75835000D03*
%TO.P,J2,5,Pin_5_5*%
%TO.N,FAST_MIDI*%
X6525000Y-73295000D03*
%TO.P,J2,6,Pin_6_6*%
%TO.N,GND*%
X3985000Y-73295000D03*
%TO.P,J2,7,Pin_7_7*%
%TO.N,unconnected-(J2-Pin_7-Pad7)*%
X6525000Y-70755000D03*
%TO.P,J2,8,Pin_8_8*%
%TO.N,unconnected-(J2-Pin_8-Pad8)*%
X3985000Y-70755000D03*
%TD*%
D17*
%TO.P,RV1,1,1_1*%
%TO.N,Net-(R7-Pad1)*%
X4000000Y-36290000D03*
%TO.P,RV1,2,2_2*%
%TO.N,Net-(R5-Pad2)*%
X4000000Y-33750000D03*
%TO.P,RV1,3,3_3*%
X4000000Y-31210000D03*
%TD*%
D12*
%TO.P,J3,S,S_S*%
%TO.N,GND*%
X15600000Y-94500000D03*
%TO.P,J3,T,T_T*%
%TO.N,Net-(J3-PadT)*%
X4600000Y-94500000D03*
%TO.P,J3,TN,TN_TN*%
%TO.N,unconnected-(J3-PadTN)*%
X13100000Y-94500000D03*
%TD*%
D17*
%TO.P,SW1,1,1_1*%
%TO.N,Net-(U2-PA2)*%
X7500000Y-62500000D03*
X7500000Y-56000000D03*
%TO.P,SW1,2,2_2*%
%TO.N,GND*%
X3000000Y-62500000D03*
X3000000Y-56000000D03*
%TD*%
D18*
%TO.P,C4,1*%
%TO.N,+12V*%
X3987500Y-84375000D03*
D19*
%TO.P,C4,2*%
%TO.N,GND*%
X6487500Y-84375000D03*
%TD*%
D12*
%TO.P,J5,S,S_S*%
%TO.N,GND*%
X15600000Y-16500000D03*
%TO.P,J5,T,T_T*%
%TO.N,Net-(J5-PadT)*%
X4600000Y-16500000D03*
%TO.P,J5,TN,TN_TN*%
%TO.N,unconnected-(J5-PadTN)*%
X13100000Y-16500000D03*
%TD*%
D18*
%TO.P,C6,1*%
%TO.N,+5V*%
X12525000Y-84375000D03*
D19*
%TO.P,C6,2*%
%TO.N,GND*%
X15025000Y-84375000D03*
%TD*%
D20*
%TO.N,GND*%
X13000000Y-24250000D03*
X14500000Y-35750000D03*
X14000000Y-52250000D03*
X14500000Y-38250000D03*
X11000000Y-32750000D03*
X11500000Y-64750000D03*
X16500000Y-68250000D03*
X2500000Y-27250000D03*
X7000000Y-30250000D03*
%TO.N,+12V*%
X1825000Y-25825000D03*
X4450000Y-23200000D03*
%TO.N,Net-(R5-Pad2)*%
X7000000Y-26150000D03*
%TO.N,Net-(U2-PA2)*%
X12250000Y-62250000D03*
%TO.N,Net-(D1-A)*%
X15250000Y-47500000D03*
X15175000Y-51500000D03*
%TD*%
%TO.N,Net-(U2-PA2)*%
D21*
X7750000Y-62250000D02*
X7500000Y-62500000D01*
X12250000Y-62250000D02*
X7750000Y-62250000D01*
%TO.N,+12V*%
X4450000Y-23200000D02*
X1825000Y-25825000D01*
%TO.N,Net-(R5-Pad2)*%
X4000000Y-31210000D02*
X5960000Y-29250000D01*
X5960000Y-29250000D02*
X5960000Y-27190000D01*
X5960000Y-27190000D02*
X7000000Y-26150000D01*
%TO.N,Net-(D1-A)*%
X15175000Y-51500000D02*
X15175000Y-47575000D01*
X15175000Y-47575000D02*
X15250000Y-47500000D01*
%TD*%
%TA.AperFunction,Conductor*%
%TO.N,GND*%
G36*
X5100270Y-76596717D02*
G01*
X5100270Y-76596716D01*
X5139622Y-76542555D01*
X5144232Y-76533507D01*
X5192205Y-76482709D01*
X5260025Y-76465912D01*
X5326161Y-76488447D01*
X5365204Y-76533504D01*
X5369949Y-76542817D01*
X5494890Y-76714786D01*
X5608430Y-76828326D01*
X5641915Y-76889649D01*
X5636931Y-76959341D01*
X5595059Y-77015274D01*
X5564083Y-77032189D01*
X5432669Y-77081203D01*
X5432664Y-77081206D01*
X5317455Y-77167452D01*
X5317452Y-77167455D01*
X5231206Y-77282664D01*
X5231202Y-77282671D01*
X5180908Y-77417517D01*
X5174501Y-77477116D01*
X5174501Y-77477123D01*
X5174500Y-77477135D01*
X5174500Y-77487690D01*
X5154815Y-77554729D01*
X5138181Y-77575371D01*
X4467962Y-78245590D01*
X4450925Y-78182007D01*
X4385099Y-78067993D01*
X4292007Y-77974901D01*
X4177993Y-77909075D01*
X4114409Y-77892037D01*
X4746716Y-77259728D01*
X4692550Y-77220375D01*
X4682954Y-77215486D01*
X4632157Y-77167512D01*
X4615361Y-77099692D01*
X4637897Y-77033556D01*
X4682954Y-76994514D01*
X4692554Y-76989622D01*
X4746716Y-76950270D01*
X4746717Y-76950270D01*
X4114408Y-76317962D01*
X4177993Y-76300925D01*
X4292007Y-76235099D01*
X4385099Y-76142007D01*
X4450925Y-76027993D01*
X4467962Y-75964408D01*
X5100270Y-76596717D01*
G37*
%TD.AperFunction*%
%TA.AperFunction,Conductor*%
G36*
X5100270Y-74056717D02*
G01*
X5100270Y-74056716D01*
X5139622Y-74002555D01*
X5144232Y-73993507D01*
X5192205Y-73942709D01*
X5260025Y-73925912D01*
X5326161Y-73948447D01*
X5365204Y-73993504D01*
X5369949Y-74002817D01*
X5494890Y-74174786D01*
X5645213Y-74325109D01*
X5817182Y-74450050D01*
X5825946Y-74454516D01*
X5876742Y-74502491D01*
X5893536Y-74570312D01*
X5870998Y-74636447D01*
X5825946Y-74675484D01*
X5817182Y-74679949D01*
X5645213Y-74804890D01*
X5494890Y-74955213D01*
X5369949Y-75127182D01*
X5365202Y-75136499D01*
X5317227Y-75187293D01*
X5249405Y-75204087D01*
X5183271Y-75181548D01*
X5144234Y-75136495D01*
X5139626Y-75127452D01*
X5100270Y-75073282D01*
X5100269Y-75073282D01*
X4467962Y-75705590D01*
X4450925Y-75642007D01*
X4385099Y-75527993D01*
X4292007Y-75434901D01*
X4177993Y-75369075D01*
X4114409Y-75352037D01*
X4746716Y-74719728D01*
X4692550Y-74680375D01*
X4682954Y-74675486D01*
X4632157Y-74627512D01*
X4615361Y-74559692D01*
X4637897Y-74493556D01*
X4682954Y-74454514D01*
X4692554Y-74449622D01*
X4746716Y-74410270D01*
X4746717Y-74410270D01*
X4114408Y-73777962D01*
X4177993Y-73760925D01*
X4292007Y-73695099D01*
X4385099Y-73602007D01*
X4450925Y-73487993D01*
X4467962Y-73424408D01*
X5100270Y-74056717D01*
G37*
%TD.AperFunction*%
%TA.AperFunction,Conductor*%
G36*
X5326444Y-71408999D02*
G01*
X5365486Y-71454056D01*
X5369951Y-71462820D01*
X5494890Y-71634786D01*
X5645213Y-71785109D01*
X5817182Y-71910050D01*
X5825946Y-71914516D01*
X5876742Y-71962491D01*
X5893536Y-72030312D01*
X5870998Y-72096447D01*
X5825946Y-72135484D01*
X5817182Y-72139949D01*
X5645213Y-72264890D01*
X5494890Y-72415213D01*
X5369949Y-72587182D01*
X5365202Y-72596499D01*
X5317227Y-72647293D01*
X5249405Y-72664087D01*
X5183271Y-72641548D01*
X5144234Y-72596495D01*
X5139626Y-72587452D01*
X5100270Y-72533282D01*
X5100269Y-72533282D01*
X4467962Y-73165590D01*
X4450925Y-73102007D01*
X4385099Y-72987993D01*
X4292007Y-72894901D01*
X4177993Y-72829075D01*
X4114409Y-72812037D01*
X4746716Y-72179728D01*
X4692547Y-72140373D01*
X4692547Y-72140372D01*
X4683500Y-72135763D01*
X4632706Y-72087788D01*
X4615912Y-72019966D01*
X4638451Y-71953832D01*
X4683508Y-71914793D01*
X4692816Y-71910051D01*
X4772007Y-71852515D01*
X4864786Y-71785109D01*
X4864788Y-71785106D01*
X4864792Y-71785104D01*
X5015104Y-71634792D01*
X5015106Y-71634788D01*
X5015109Y-71634786D01*
X5140048Y-71462820D01*
X5140047Y-71462820D01*
X5140051Y-71462816D01*
X5144514Y-71454054D01*
X5192488Y-71403259D01*
X5260308Y-71386463D01*
X5326444Y-71408999D01*
G37*
%TD.AperFunction*%
%TA.AperFunction,Conductor*%
G36*
X17442539Y-520185D02*
G01*
X17488294Y-572989D01*
X17499500Y-624500D01*
X17499500Y-99375500D01*
X17479815Y-99442539D01*
X17427011Y-99488294D01*
X17375500Y-99499500D01*
X624500Y-99499500D01*
X557461Y-99479815D01*
X511706Y-99427011D01*
X500500Y-99375500D01*
X500500Y-93685777D01*
X3349500Y-93685777D01*
X3349500Y-95314208D01*
X3349501Y-95314223D01*
X3359904Y-95446413D01*
X3359905Y-95446420D01*
X3414902Y-95664678D01*
X3414903Y-95664681D01*
X3507878Y-95869374D01*
X3507993Y-95869626D01*
X3507995Y-95869630D01*
X3507997Y-95869632D01*
X3636174Y-96054645D01*
X3636178Y-96054650D01*
X3636181Y-96054654D01*
X3795346Y-96213819D01*
X3795350Y-96213822D01*
X3795354Y-96213825D01*
X3934603Y-96310297D01*
X3980374Y-96342007D01*
X4185317Y-96435096D01*
X4185321Y-96435097D01*
X4403579Y-96490094D01*
X4403581Y-96490094D01*
X4403588Y-96490096D01*
X4535783Y-96500500D01*
X4664216Y-96500499D01*
X4796412Y-96490096D01*
X5014683Y-96435096D01*
X5219626Y-96342007D01*
X5404654Y-96213819D01*
X5563819Y-96054654D01*
X5692007Y-95869626D01*
X5785096Y-95664683D01*
X5840096Y-95446412D01*
X5850500Y-95314217D01*
X5850499Y-93685784D01*
X5850498Y-93685777D01*
X11849500Y-93685777D01*
X11849500Y-95314208D01*
X11849501Y-95314223D01*
X11859904Y-95446413D01*
X11859905Y-95446420D01*
X11914902Y-95664678D01*
X11914903Y-95664681D01*
X12007878Y-95869374D01*
X12007993Y-95869626D01*
X12007995Y-95869630D01*
X12007997Y-95869632D01*
X12136174Y-96054645D01*
X12136178Y-96054650D01*
X12136181Y-96054654D01*
X12295346Y-96213819D01*
X12295350Y-96213822D01*
X12295354Y-96213825D01*
X12434603Y-96310297D01*
X12480374Y-96342007D01*
X12685317Y-96435096D01*
X12685321Y-96435097D01*
X12903579Y-96490094D01*
X12903581Y-96490094D01*
X12903588Y-96490096D01*
X13035783Y-96500500D01*
X13164216Y-96500499D01*
X13296412Y-96490096D01*
X13514683Y-96435096D01*
X13719626Y-96342007D01*
X13904654Y-96213819D01*
X14063819Y-96054654D01*
X14192007Y-95869626D01*
X14237376Y-95769740D01*
X14283021Y-95716846D01*
X14350020Y-95697024D01*
X14417100Y-95716572D01*
X14462963Y-95769282D01*
X14463173Y-95769742D01*
X14508430Y-95869378D01*
X14508431Y-95869380D01*
X14636559Y-96054323D01*
X14636569Y-96054335D01*
X14795664Y-96213430D01*
X14795676Y-96213440D01*
X14980619Y-96341568D01*
X14980625Y-96341571D01*
X15185480Y-96434622D01*
X15350000Y-96476076D01*
X15350000Y-95299728D01*
X15388060Y-95391614D01*
X15458386Y-95461940D01*
X15550272Y-95500000D01*
X15649728Y-95500000D01*
X15741614Y-95461940D01*
X15811940Y-95391614D01*
X15850000Y-95299728D01*
X15850000Y-96476075D01*
X16014519Y-96434622D01*
X16219374Y-96341571D01*
X16219380Y-96341568D01*
X16404323Y-96213440D01*
X16404335Y-96213430D01*
X16563430Y-96054335D01*
X16563440Y-96054323D01*
X16691568Y-95869380D01*
X16691571Y-95869374D01*
X16784622Y-95664519D01*
X16839599Y-95446332D01*
X16849999Y-95314196D01*
X16850000Y-95314184D01*
X16850000Y-94750000D01*
X15850000Y-94750000D01*
X15850000Y-94250000D01*
X16849999Y-94250000D01*
X16849999Y-93685817D01*
X16849998Y-93685802D01*
X16839599Y-93553667D01*
X16784622Y-93335480D01*
X16691571Y-93130625D01*
X16691568Y-93130619D01*
X16563440Y-92945676D01*
X16563430Y-92945664D01*
X16404335Y-92786569D01*
X16404323Y-92786559D01*
X16219380Y-92658431D01*
X16219374Y-92658428D01*
X16014517Y-92565377D01*
X15850000Y-92523922D01*
X15850000Y-93700272D01*
X15811940Y-93608386D01*
X15741614Y-93538060D01*
X15649728Y-93500000D01*
X15550272Y-93500000D01*
X15458386Y-93538060D01*
X15388060Y-93608386D01*
X15350000Y-93700272D01*
X15350000Y-92523922D01*
X15185482Y-92565377D01*
X14980625Y-92658428D01*
X14980619Y-92658431D01*
X14795676Y-92786559D01*
X14795664Y-92786569D01*
X14636569Y-92945664D01*
X14636559Y-92945676D01*
X14508431Y-93130619D01*
X14508430Y-93130621D01*
X14463173Y-93230257D01*
X14417526Y-93283154D01*
X14350526Y-93302975D01*
X14283447Y-93283427D01*
X14237585Y-93230716D01*
X14237434Y-93230386D01*
X14192007Y-93130374D01*
X14064048Y-92945676D01*
X14063825Y-92945354D01*
X14063822Y-92945350D01*
X14063819Y-92945346D01*
X13904654Y-92786181D01*
X13904650Y-92786178D01*
X13904645Y-92786174D01*
X13719632Y-92657997D01*
X13719630Y-92657995D01*
X13719626Y-92657993D01*
X13515724Y-92565377D01*
X13514681Y-92564903D01*
X13514678Y-92564902D01*
X13296420Y-92509905D01*
X13296413Y-92509904D01*
X13230314Y-92504702D01*
X13164217Y-92499500D01*
X13164216Y-92499500D01*
X13035792Y-92499500D01*
X13035775Y-92499501D01*
X12903586Y-92509904D01*
X12903579Y-92509905D01*
X12685321Y-92564902D01*
X12685318Y-92564903D01*
X12480377Y-92657991D01*
X12480367Y-92657997D01*
X12295354Y-92786174D01*
X12295342Y-92786184D01*
X12136184Y-92945342D01*
X12136174Y-92945354D01*
X12007997Y-93130367D01*
X12007991Y-93130377D01*
X11914903Y-93335318D01*
X11914902Y-93335321D01*
X11859905Y-93553579D01*
X11859904Y-93553586D01*
X11849500Y-93685777D01*
X5850498Y-93685777D01*
X5840096Y-93553588D01*
X5785096Y-93335317D01*
X5692007Y-93130374D01*
X5564048Y-92945676D01*
X5563825Y-92945354D01*
X5563822Y-92945350D01*
X5563819Y-92945346D01*
X5404654Y-92786181D01*
X5404650Y-92786178D01*
X5404645Y-92786174D01*
X5219632Y-92657997D01*
X5219630Y-92657995D01*
X5219626Y-92657993D01*
X5015724Y-92565377D01*
X5014681Y-92564903D01*
X5014678Y-92564902D01*
X4796420Y-92509905D01*
X4796413Y-92509904D01*
X4730314Y-92504702D01*
X4664217Y-92499500D01*
X4664216Y-92499500D01*
X4535792Y-92499500D01*
X4535775Y-92499501D01*
X4403586Y-92509904D01*
X4403579Y-92509905D01*
X4185321Y-92564902D01*
X4185318Y-92564903D01*
X3980377Y-92657991D01*
X3980367Y-92657997D01*
X3795354Y-92786174D01*
X3795342Y-92786184D01*
X3636184Y-92945342D01*
X3636174Y-92945354D01*
X3507997Y-93130367D01*
X3507991Y-93130377D01*
X3414903Y-93335318D01*
X3414902Y-93335321D01*
X3359905Y-93553579D01*
X3359904Y-93553586D01*
X3349500Y-93685777D01*
X500500Y-93685777D01*
X500500Y-83774983D01*
X2687000Y-83774983D01*
X2687000Y-84975001D01*
X2687001Y-84975018D01*
X2697500Y-85077796D01*
X2697501Y-85077799D01*
X2713181Y-85125116D01*
X2752686Y-85244334D01*
X2844788Y-85393656D01*
X2968844Y-85517712D01*
X3118166Y-85609814D01*
X3284703Y-85664999D01*
X3387491Y-85675500D01*
X4587508Y-85675499D01*
X4690297Y-85664999D01*
X4856834Y-85609814D01*
X5006156Y-85517712D01*
X5130212Y-85393656D01*
X5222314Y-85244334D01*
X5245602Y-85174054D01*
X5249610Y-85166050D01*
X5267560Y-85146772D01*
X5282555Y-85125116D01*
X5290995Y-85121606D01*
X5297225Y-85114917D01*
X5322749Y-85108404D01*
X5347071Y-85098292D01*
X5363334Y-85098048D01*
X5364925Y-85097643D01*
X5366023Y-85098008D01*
X5370219Y-85097946D01*
X5408025Y-85100921D01*
X6087500Y-84421446D01*
X6087500Y-84427661D01*
X6114759Y-84529394D01*
X6167420Y-84620606D01*
X6241894Y-84695080D01*
X6333106Y-84747741D01*
X6434839Y-84775000D01*
X6441053Y-84775000D01*
X5761576Y-85454474D01*
X5806150Y-85486859D01*
X5988468Y-85579755D01*
X6183082Y-85642990D01*
X6385183Y-85675000D01*
X6589817Y-85675000D01*
X6791917Y-85642990D01*
X6986531Y-85579755D01*
X7168849Y-85486859D01*
X7213421Y-85454474D01*
X6533947Y-84775000D01*
X6540161Y-84775000D01*
X6641894Y-84747741D01*
X6733106Y-84695080D01*
X6807580Y-84620606D01*
X6860241Y-84529394D01*
X6887500Y-84427661D01*
X6887500Y-84421447D01*
X7566974Y-85100921D01*
X7599359Y-85056349D01*
X7692255Y-84874031D01*
X7755490Y-84679417D01*
X7787500Y-84477317D01*
X7787500Y-84272682D01*
X7755490Y-84070582D01*
X7692254Y-83875965D01*
X7667881Y-83828130D01*
X7667880Y-83828129D01*
X7640801Y-83774983D01*
X11224500Y-83774983D01*
X11224500Y-84975001D01*
X11224501Y-84975018D01*
X11235000Y-85077796D01*
X11235001Y-85077799D01*
X11250681Y-85125116D01*
X11290186Y-85244334D01*
X11382288Y-85393656D01*
X11506344Y-85517712D01*
X11655666Y-85609814D01*
X11822203Y-85664999D01*
X11924991Y-85675500D01*
X13125008Y-85675499D01*
X13227797Y-85664999D01*
X13394334Y-85609814D01*
X13543656Y-85517712D01*
X13667712Y-85393656D01*
X13759814Y-85244334D01*
X13783102Y-85174054D01*
X13787110Y-85166050D01*
X13805060Y-85146772D01*
X13820055Y-85125116D01*
X13828495Y-85121606D01*
X13834725Y-85114917D01*
X13860249Y-85108404D01*
X13884571Y-85098292D01*
X13900834Y-85098048D01*
X13902425Y-85097643D01*
X13903523Y-85098008D01*
X13907719Y-85097946D01*
X13945525Y-85100921D01*
X14625000Y-84421446D01*
X14625000Y-84427661D01*
X14652259Y-84529394D01*
X14704920Y-84620606D01*
X14779394Y-84695080D01*
X14870606Y-84747741D01*
X14972339Y-84775000D01*
X14978553Y-84775000D01*
X14299076Y-85454474D01*
X14343650Y-85486859D01*
X14525968Y-85579755D01*
X14720582Y-85642990D01*
X14922683Y-85675000D01*
X15127317Y-85675000D01*
X15329417Y-85642990D01*
X15524031Y-85579755D01*
X15706349Y-85486859D01*
X15750921Y-85454474D01*
X15071447Y-84775000D01*
X15077661Y-84775000D01*
X15179394Y-84747741D01*
X15270606Y-84695080D01*
X15345080Y-84620606D01*
X15397741Y-84529394D01*
X15425000Y-84427661D01*
X15425000Y-84421447D01*
X16104474Y-85100921D01*
X16136859Y-85056349D01*
X16229755Y-84874031D01*
X16292990Y-84679417D01*
X16325000Y-84477317D01*
X16325000Y-84272682D01*
X16292990Y-84070582D01*
X16229755Y-83875968D01*
X16136859Y-83693650D01*
X16104474Y-83649077D01*
X16104474Y-83649076D01*
X15425000Y-84328551D01*
X15425000Y-84322339D01*
X15397741Y-84220606D01*
X15345080Y-84129394D01*
X15270606Y-84054920D01*
X15179394Y-84002259D01*
X15077661Y-83975000D01*
X15071446Y-83975000D01*
X15750922Y-83295524D01*
X15750921Y-83295523D01*
X15706359Y-83263147D01*
X15706350Y-83263141D01*
X15524031Y-83170244D01*
X15329417Y-83107009D01*
X15127317Y-83075000D01*
X14922683Y-83075000D01*
X14720582Y-83107009D01*
X14525968Y-83170244D01*
X14343644Y-83263143D01*
X14299077Y-83295523D01*
X14299077Y-83295524D01*
X14978554Y-83975000D01*
X14972339Y-83975000D01*
X14870606Y-84002259D01*
X14779394Y-84054920D01*
X14704920Y-84129394D01*
X14652259Y-84220606D01*
X14625000Y-84322339D01*
X14625000Y-84328553D01*
X13945524Y-83649077D01*
X13907719Y-83652053D01*
X13839341Y-83637689D01*
X13789584Y-83588638D01*
X13787110Y-83583949D01*
X13783101Y-83575942D01*
X13759814Y-83505666D01*
X13667712Y-83356344D01*
X13543656Y-83232288D01*
X13394334Y-83140186D01*
X13227797Y-83085001D01*
X13227795Y-83085000D01*
X13125010Y-83074500D01*
X11924998Y-83074500D01*
X11924981Y-83074501D01*
X11822203Y-83085000D01*
X11822200Y-83085001D01*
X11655668Y-83140185D01*
X11655663Y-83140187D01*
X11506342Y-83232289D01*
X11382289Y-83356342D01*
X11290187Y-83505663D01*
X11290186Y-83505666D01*
X11235001Y-83672203D01*
X11235001Y-83672204D01*
X11235000Y-83672204D01*
X11224500Y-83774983D01*
X7640801Y-83774983D01*
X7599359Y-83693650D01*
X7566974Y-83649077D01*
X7566974Y-83649076D01*
X6887500Y-84328551D01*
X6887500Y-84322339D01*
X6860241Y-84220606D01*
X6807580Y-84129394D01*
X6733106Y-84054920D01*
X6641894Y-84002259D01*
X6540161Y-83975000D01*
X6533946Y-83975000D01*
X7213422Y-83295524D01*
X7213421Y-83295523D01*
X7168859Y-83263147D01*
X7168850Y-83263141D01*
X6986531Y-83170244D01*
X6791917Y-83107009D01*
X6589817Y-83075000D01*
X6385183Y-83075000D01*
X6183082Y-83107009D01*
X5988468Y-83170244D01*
X5806144Y-83263143D01*
X5761577Y-83295523D01*
X5761577Y-83295524D01*
X6441054Y-83975000D01*
X6434839Y-83975000D01*
X6333106Y-84002259D01*
X6241894Y-84054920D01*
X6167420Y-84129394D01*
X6114759Y-84220606D01*
X6087500Y-84322339D01*
X6087500Y-84328553D01*
X5408024Y-83649077D01*
X5370219Y-83652053D01*
X5301841Y-83637689D01*
X5252084Y-83588638D01*
X5249610Y-83583949D01*
X5245601Y-83575942D01*
X5222314Y-83505666D01*
X5130212Y-83356344D01*
X5006156Y-83232288D01*
X4856834Y-83140186D01*
X4690297Y-83085001D01*
X4690295Y-83085000D01*
X4587510Y-83074500D01*
X3387498Y-83074500D01*
X3387481Y-83074501D01*
X3284703Y-83085000D01*
X3284700Y-83085001D01*
X3118168Y-83140185D01*
X3118163Y-83140187D01*
X2968842Y-83232289D01*
X2844789Y-83356342D01*
X2752687Y-83505663D01*
X2752686Y-83505666D01*
X2697501Y-83672203D01*
X2697501Y-83672204D01*
X2697500Y-83672204D01*
X2687000Y-83774983D01*
X500500Y-83774983D01*
X500500Y-70648713D01*
X2634500Y-70648713D01*
X2634500Y-70861286D01*
X2667753Y-71071239D01*
X2733444Y-71273414D01*
X2829951Y-71462820D01*
X2954890Y-71634786D01*
X3105213Y-71785109D01*
X3277179Y-71910048D01*
X3277181Y-71910049D01*
X3277184Y-71910051D01*
X3286493Y-71914794D01*
X3337290Y-71962766D01*
X3354087Y-72030587D01*
X3331552Y-72096722D01*
X3286505Y-72135760D01*
X3277446Y-72140376D01*
X3277440Y-72140380D01*
X3223282Y-72179727D01*
X3223282Y-72179728D01*
X3855591Y-72812037D01*
X3792007Y-72829075D01*
X3677993Y-72894901D01*
X3584901Y-72987993D01*
X3519075Y-73102007D01*
X3502037Y-73165591D01*
X2869728Y-72533282D01*
X2869727Y-72533282D01*
X2830380Y-72587439D01*
X2733904Y-72776782D01*
X2668242Y-72978869D01*
X2668242Y-72978872D01*
X2635000Y-73188753D01*
X2635000Y-73401246D01*
X2668242Y-73611127D01*
X2668242Y-73611130D01*
X2733904Y-73813217D01*
X2830375Y-74002550D01*
X2869728Y-74056716D01*
X3502037Y-73424408D01*
X3519075Y-73487993D01*
X3584901Y-73602007D01*
X3677993Y-73695099D01*
X3792007Y-73760925D01*
X3855591Y-73777962D01*
X3254971Y-74378581D01*
X3333711Y-74495895D01*
X3334920Y-74499729D01*
X3337844Y-74502491D01*
X3345343Y-74532778D01*
X3354727Y-74562529D01*
X3353671Y-74566408D01*
X3354638Y-74570312D01*
X3344573Y-74599844D01*
X3336383Y-74629947D01*
X3333397Y-74632640D01*
X3332100Y-74636447D01*
X3287051Y-74675483D01*
X3277440Y-74680380D01*
X3223282Y-74719727D01*
X3223282Y-74719728D01*
X3855591Y-75352037D01*
X3792007Y-75369075D01*
X3677993Y-75434901D01*
X3584901Y-75527993D01*
X3519075Y-75642007D01*
X3502037Y-75705591D01*
X2869728Y-75073282D01*
X2869727Y-75073282D01*
X2830380Y-75127439D01*
X2733904Y-75316782D01*
X2668242Y-75518869D01*
X2668242Y-75518872D01*
X2635000Y-75728753D01*
X2635000Y-75941246D01*
X2668242Y-76151127D01*
X2668242Y-76151130D01*
X2733904Y-76353217D01*
X2830375Y-76542550D01*
X2869728Y-76596716D01*
X3502037Y-75964408D01*
X3519075Y-76027993D01*
X3584901Y-76142007D01*
X3677993Y-76235099D01*
X3792007Y-76300925D01*
X3855591Y-76317962D01*
X3254971Y-76918581D01*
X3333711Y-77035895D01*
X3334920Y-77039729D01*
X3337844Y-77042491D01*
X3345343Y-77072778D01*
X3354727Y-77102529D01*
X3353671Y-77106408D01*
X3354638Y-77110312D01*
X3344573Y-77139844D01*
X3336383Y-77169947D01*
X3333397Y-77172640D01*
X3332100Y-77176447D01*
X3287051Y-77215483D01*
X3277440Y-77220380D01*
X3223282Y-77259727D01*
X3223282Y-77259728D01*
X3855591Y-77892037D01*
X3792007Y-77909075D01*
X3677993Y-77974901D01*
X3584901Y-78067993D01*
X3519075Y-78182007D01*
X3502037Y-78245591D01*
X2869728Y-77613282D01*
X2869727Y-77613282D01*
X2830380Y-77667439D01*
X2733904Y-77856782D01*
X2668242Y-78058869D01*
X2668242Y-78058872D01*
X2635000Y-78268753D01*
X2635000Y-78481246D01*
X2668242Y-78691127D01*
X2668242Y-78691130D01*
X2733904Y-78893217D01*
X2830375Y-79082550D01*
X2869728Y-79136716D01*
X3502037Y-78504408D01*
X3519075Y-78567993D01*
X3584901Y-78682007D01*
X3677993Y-78775099D01*
X3792007Y-78840925D01*
X3855590Y-78857962D01*
X3223282Y-79490269D01*
X3223282Y-79490270D01*
X3277449Y-79529624D01*
X3466782Y-79626095D01*
X3668870Y-79691757D01*
X3878754Y-79725000D01*
X4091246Y-79725000D01*
X4301127Y-79691757D01*
X4301130Y-79691757D01*
X4503217Y-79626095D01*
X4692554Y-79529622D01*
X4746716Y-79490270D01*
X4746717Y-79490270D01*
X4114408Y-78857962D01*
X4177993Y-78840925D01*
X4292007Y-78775099D01*
X4385099Y-78682007D01*
X4450925Y-78567993D01*
X4467962Y-78504408D01*
X5138181Y-79174628D01*
X5171666Y-79235951D01*
X5174500Y-79262300D01*
X5174500Y-79272865D01*
X5174501Y-79272876D01*
X5180908Y-79332483D01*
X5231202Y-79467328D01*
X5231206Y-79467335D01*
X5317452Y-79582544D01*
X5317455Y-79582547D01*
X5432664Y-79668793D01*
X5432671Y-79668797D01*
X5567517Y-79719091D01*
X5567516Y-79719091D01*
X5574444Y-79719835D01*
X5627127Y-79725500D01*
X7422872Y-79725499D01*
X7482483Y-79719091D01*
X7617331Y-79668796D01*
X7732546Y-79582546D01*
X7818796Y-79467331D01*
X7869091Y-79332483D01*
X7875500Y-79272873D01*
X7875499Y-77477128D01*
X7869091Y-77417517D01*
X7818796Y-77282669D01*
X7818795Y-77282668D01*
X7818793Y-77282664D01*
X7732547Y-77167455D01*
X7732544Y-77167452D01*
X7617335Y-77081206D01*
X7617328Y-77081202D01*
X7485917Y-77032189D01*
X7429983Y-76990318D01*
X7405566Y-76924853D01*
X7420418Y-76856580D01*
X7441563Y-76828332D01*
X7555104Y-76714792D01*
X7680051Y-76542816D01*
X7776557Y-76353412D01*
X7842246Y-76151243D01*
X7875500Y-75941287D01*
X7875500Y-75728713D01*
X7842246Y-75518757D01*
X7776557Y-75316588D01*
X7680051Y-75127184D01*
X7680049Y-75127181D01*
X7680048Y-75127179D01*
X7555109Y-74955213D01*
X7404786Y-74804890D01*
X7232820Y-74679951D01*
X7232115Y-74679591D01*
X7224054Y-74675485D01*
X7173259Y-74627512D01*
X7156463Y-74559692D01*
X7178999Y-74493556D01*
X7224054Y-74454515D01*
X7232816Y-74450051D01*
X7331187Y-74378581D01*
X7404786Y-74325109D01*
X7404788Y-74325106D01*
X7404792Y-74325104D01*
X7555104Y-74174792D01*
X7555106Y-74174788D01*
X7555109Y-74174786D01*
X7680048Y-74002820D01*
X7680050Y-74002817D01*
X7680051Y-74002816D01*
X7776557Y-73813412D01*
X7842246Y-73611243D01*
X7875500Y-73401287D01*
X7875500Y-73188713D01*
X7842246Y-72978757D01*
X7776557Y-72776588D01*
X7680051Y-72587184D01*
X7680049Y-72587181D01*
X7680048Y-72587179D01*
X7555109Y-72415213D01*
X7404786Y-72264890D01*
X7232820Y-72139951D01*
X7224600Y-72135763D01*
X7224054Y-72135485D01*
X7173259Y-72087512D01*
X7156463Y-72019692D01*
X7178999Y-71953556D01*
X7224054Y-71914515D01*
X7232816Y-71910051D01*
X7254789Y-71894086D01*
X7404786Y-71785109D01*
X7404788Y-71785106D01*
X7404792Y-71785104D01*
X7555104Y-71634792D01*
X7555106Y-71634788D01*
X7555109Y-71634786D01*
X7680048Y-71462820D01*
X7680047Y-71462820D01*
X7680051Y-71462816D01*
X7776557Y-71273412D01*
X7842246Y-71071243D01*
X7875500Y-70861287D01*
X7875500Y-70648713D01*
X7842246Y-70438757D01*
X7776557Y-70236588D01*
X7680051Y-70047184D01*
X7680049Y-70047181D01*
X7680048Y-70047179D01*
X7555109Y-69875213D01*
X7404786Y-69724890D01*
X7232820Y-69599951D01*
X7043414Y-69503444D01*
X7043413Y-69503443D01*
X7043412Y-69503443D01*
X6841243Y-69437754D01*
X6841241Y-69437753D01*
X6841240Y-69437753D01*
X6679957Y-69412208D01*
X6631287Y-69404500D01*
X6418713Y-69404500D01*
X6370042Y-69412208D01*
X6208760Y-69437753D01*
X6006585Y-69503444D01*
X5817179Y-69599951D01*
X5645213Y-69724890D01*
X5494890Y-69875213D01*
X5369949Y-70047182D01*
X5365484Y-70055946D01*
X5317509Y-70106742D01*
X5249688Y-70123536D01*
X5183553Y-70100998D01*
X5144516Y-70055946D01*
X5140050Y-70047182D01*
X5015109Y-69875213D01*
X4864786Y-69724890D01*
X4692820Y-69599951D01*
X4503414Y-69503444D01*
X4503413Y-69503443D01*
X4503412Y-69503443D01*
X4301243Y-69437754D01*
X4301241Y-69437753D01*
X4301240Y-69437753D01*
X4139957Y-69412208D01*
X4091287Y-69404500D01*
X3878713Y-69404500D01*
X3830042Y-69412208D01*
X3668760Y-69437753D01*
X3466585Y-69503444D01*
X3277179Y-69599951D01*
X3105213Y-69724890D01*
X2954890Y-69875213D01*
X2829951Y-70047179D01*
X2733444Y-70236585D01*
X2667753Y-70438760D01*
X2634500Y-70648713D01*
X500500Y-70648713D01*
X500500Y-62381947D01*
X1500000Y-62381947D01*
X1500000Y-62618052D01*
X1536934Y-62851247D01*
X1609897Y-63075802D01*
X1717087Y-63286174D01*
X1777338Y-63369104D01*
X1777340Y-63369105D01*
X2476212Y-62670233D01*
X2487482Y-62712292D01*
X2559890Y-62837708D01*
X2662292Y-62940110D01*
X2787708Y-63012518D01*
X2829765Y-63023787D01*
X2130893Y-63722658D01*
X2213828Y-63782914D01*
X2424197Y-63890102D01*
X2648752Y-63963065D01*
X2648751Y-63963065D01*
X2881948Y-64000000D01*
X3118052Y-64000000D01*
X3351247Y-63963065D01*
X3575802Y-63890102D01*
X3786163Y-63782918D01*
X3786169Y-63782914D01*
X3869104Y-63722658D01*
X3869105Y-63722658D01*
X3170233Y-63023787D01*
X3212292Y-63012518D01*
X3337708Y-62940110D01*
X3440110Y-62837708D01*
X3512518Y-62712292D01*
X3523787Y-62670233D01*
X4222658Y-63369105D01*
X4222658Y-63369104D01*
X4282914Y-63286169D01*
X4282918Y-63286163D01*
X4390102Y-63075802D01*
X4463065Y-62851247D01*
X4500000Y-62618052D01*
X4500000Y-62381947D01*
X4499993Y-62381902D01*
X5999500Y-62381902D01*
X5999500Y-62618097D01*
X6036446Y-62851368D01*
X6109433Y-63075996D01*
X6216519Y-63286163D01*
X6216657Y-63286433D01*
X6355483Y-63477510D01*
X6522490Y-63644517D01*
X6713567Y-63783343D01*
X6812991Y-63834002D01*
X6924003Y-63890566D01*
X6924005Y-63890566D01*
X6924008Y-63890568D01*
X7044412Y-63929689D01*
X7148631Y-63963553D01*
X7381903Y-64000500D01*
X7381908Y-64000500D01*
X7618097Y-64000500D01*
X7851368Y-63963553D01*
X7852870Y-63963065D01*
X8075992Y-63890568D01*
X8286433Y-63783343D01*
X8477510Y-63644517D01*
X8644517Y-63477510D01*
X8783343Y-63286433D01*
X8890568Y-63075992D01*
X8935995Y-62936181D01*
X8975433Y-62878506D01*
X9039791Y-62851308D01*
X9053926Y-62850500D01*
X11670234Y-62850500D01*
X11737273Y-62870185D01*
X11739125Y-62871398D01*
X11870814Y-62959390D01*
X11870827Y-62959397D01*
X12016498Y-63019735D01*
X12016503Y-63019737D01*
X12168644Y-63050000D01*
X12171153Y-63050499D01*
X12171156Y-63050500D01*
X12171158Y-63050500D01*
X12328844Y-63050500D01*
X12328845Y-63050499D01*
X12483497Y-63019737D01*
X12629179Y-62959394D01*
X12760289Y-62871789D01*
X12871789Y-62760289D01*
X12959394Y-62629179D01*
X13019737Y-62483497D01*
X13050500Y-62328842D01*
X13050500Y-62171158D01*
X13050500Y-62171155D01*
X13050499Y-62171153D01*
X13019738Y-62016510D01*
X13019737Y-62016503D01*
X12981423Y-61924003D01*
X12959397Y-61870827D01*
X12959390Y-61870814D01*
X12871789Y-61739711D01*
X12871786Y-61739707D01*
X12760292Y-61628213D01*
X12760288Y-61628210D01*
X12629185Y-61540609D01*
X12629172Y-61540602D01*
X12483501Y-61480264D01*
X12483489Y-61480261D01*
X12328845Y-61449500D01*
X12328842Y-61449500D01*
X12171158Y-61449500D01*
X12171155Y-61449500D01*
X12016510Y-61480261D01*
X12016498Y-61480264D01*
X11870827Y-61540602D01*
X11870814Y-61540609D01*
X11739125Y-61628602D01*
X11672447Y-61649480D01*
X11670234Y-61649500D01*
X8799976Y-61649500D01*
X8732937Y-61629815D01*
X8699658Y-61598385D01*
X8644519Y-61522493D01*
X8644514Y-61522487D01*
X8477512Y-61355485D01*
X8477510Y-61355483D01*
X8286433Y-61216657D01*
X8075996Y-61109433D01*
X7851368Y-61036446D01*
X7618097Y-60999500D01*
X7618092Y-60999500D01*
X7381908Y-60999500D01*
X7381903Y-60999500D01*
X7148631Y-61036446D01*
X6924003Y-61109433D01*
X6713566Y-61216657D01*
X6630047Y-61277338D01*
X6522490Y-61355483D01*
X6522488Y-61355485D01*
X6522487Y-61355485D01*
X6355485Y-61522487D01*
X6355485Y-61522488D01*
X6355483Y-61522490D01*
X6355481Y-61522493D01*
X6216657Y-61713566D01*
X6109433Y-61924003D01*
X6036446Y-62148631D01*
X5999500Y-62381902D01*
X4499993Y-62381902D01*
X4463065Y-62148752D01*
X4390102Y-61924197D01*
X4282914Y-61713828D01*
X4222658Y-61630894D01*
X4222658Y-61630893D01*
X3523787Y-62329765D01*
X3512518Y-62287708D01*
X3440110Y-62162292D01*
X3337708Y-62059890D01*
X3212292Y-61987482D01*
X3170234Y-61976212D01*
X3869105Y-61277340D01*
X3869104Y-61277338D01*
X3786174Y-61217087D01*
X3575802Y-61109897D01*
X3351247Y-61036934D01*
X3351248Y-61036934D01*
X3118052Y-61000000D01*
X2881948Y-61000000D01*
X2648752Y-61036934D01*
X2424197Y-61109897D01*
X2213830Y-61217084D01*
X2130894Y-61277340D01*
X2829766Y-61976212D01*
X2787708Y-61987482D01*
X2662292Y-62059890D01*
X2559890Y-62162292D01*
X2487482Y-62287708D01*
X2476212Y-62329766D01*
X1777340Y-61630894D01*
X1717084Y-61713830D01*
X1609897Y-61924197D01*
X1536934Y-62148752D01*
X1500000Y-62381947D01*
X500500Y-62381947D01*
X500500Y-58302135D01*
X11099500Y-58302135D01*
X11099500Y-60197870D01*
X11099501Y-60197876D01*
X11105908Y-60257483D01*
X11156202Y-60392328D01*
X11156206Y-60392335D01*
X11242452Y-60507544D01*
X11242455Y-60507547D01*
X11357664Y-60593793D01*
X11357671Y-60593797D01*
X11492517Y-60644091D01*
X11492516Y-60644091D01*
X11499444Y-60644835D01*
X11552127Y-60650500D01*
X13447872Y-60650499D01*
X13507483Y-60644091D01*
X13642331Y-60593796D01*
X13757546Y-60507546D01*
X13843796Y-60392331D01*
X13871429Y-60318243D01*
X13873601Y-60312420D01*
X13915471Y-60256486D01*
X13980936Y-60232068D01*
X14049209Y-60246919D01*
X14077464Y-60268071D01*
X14127636Y-60318243D01*
X14127641Y-60318247D01*
X14229603Y-60392326D01*
X14305978Y-60447815D01*
X14434375Y-60513237D01*
X14502393Y-60547895D01*
X14502396Y-60547896D01*
X14607221Y-60581955D01*
X14712049Y-60616015D01*
X14929778Y-60650500D01*
X14929779Y-60650500D01*
X15150221Y-60650500D01*
X15150222Y-60650500D01*
X15367951Y-60616015D01*
X15577606Y-60547895D01*
X15774022Y-60447815D01*
X15952365Y-60318242D01*
X16108242Y-60162365D01*
X16237815Y-59984022D01*
X16337895Y-59787606D01*
X16406015Y-59577951D01*
X16440500Y-59360222D01*
X16440500Y-59139778D01*
X16406015Y-58922049D01*
X16337895Y-58712394D01*
X16337895Y-58712393D01*
X16303237Y-58644375D01*
X16237815Y-58515978D01*
X16179501Y-58435715D01*
X16108247Y-58337641D01*
X16108243Y-58337636D01*
X15952363Y-58181756D01*
X15952358Y-58181752D01*
X15774025Y-58052187D01*
X15774024Y-58052186D01*
X15774022Y-58052185D01*
X15656791Y-57992452D01*
X15577606Y-57952104D01*
X15577603Y-57952103D01*
X15367952Y-57883985D01*
X15259086Y-57866742D01*
X15150222Y-57849500D01*
X14929778Y-57849500D01*
X14857201Y-57860995D01*
X14712047Y-57883985D01*
X14502396Y-57952103D01*
X14502393Y-57952104D01*
X14305974Y-58052187D01*
X14127641Y-58181752D01*
X14127636Y-58181756D01*
X14077463Y-58231929D01*
X14016140Y-58265413D01*
X13946448Y-58260428D01*
X13890515Y-58218557D01*
X13873601Y-58187580D01*
X13843797Y-58107671D01*
X13843793Y-58107664D01*
X13757547Y-57992455D01*
X13757544Y-57992452D01*
X13642335Y-57906206D01*
X13642328Y-57906202D01*
X13507482Y-57855908D01*
X13507483Y-57855908D01*
X13447883Y-57849501D01*
X13447881Y-57849500D01*
X13447873Y-57849500D01*
X13447864Y-57849500D01*
X11552129Y-57849500D01*
X11552123Y-57849501D01*
X11492516Y-57855908D01*
X11357671Y-57906202D01*
X11357664Y-57906206D01*
X11242455Y-57992452D01*
X11242452Y-57992455D01*
X11156206Y-58107664D01*
X11156202Y-58107671D01*
X11105908Y-58242517D01*
X11099501Y-58302116D01*
X11099500Y-58302135D01*
X500500Y-58302135D01*
X500500Y-55881947D01*
X1500000Y-55881947D01*
X1500000Y-56118052D01*
X1536934Y-56351247D01*
X1609897Y-56575802D01*
X1717087Y-56786174D01*
X1777338Y-56869104D01*
X1777340Y-56869105D01*
X2476212Y-56170233D01*
X2487482Y-56212292D01*
X2559890Y-56337708D01*
X2662292Y-56440110D01*
X2787708Y-56512518D01*
X2829765Y-56523787D01*
X2130893Y-57222658D01*
X2213828Y-57282914D01*
X2424197Y-57390102D01*
X2648752Y-57463065D01*
X2648751Y-57463065D01*
X2881948Y-57500000D01*
X3118052Y-57500000D01*
X3351247Y-57463065D01*
X3575802Y-57390102D01*
X3786163Y-57282918D01*
X3786169Y-57282914D01*
X3869104Y-57222658D01*
X3869105Y-57222658D01*
X3170233Y-56523787D01*
X3212292Y-56512518D01*
X3337708Y-56440110D01*
X3440110Y-56337708D01*
X3512518Y-56212292D01*
X3523787Y-56170233D01*
X4222658Y-56869105D01*
X4222658Y-56869104D01*
X4282914Y-56786169D01*
X4282918Y-56786163D01*
X4390102Y-56575802D01*
X4463065Y-56351247D01*
X4500000Y-56118052D01*
X4500000Y-55881947D01*
X4499993Y-55881902D01*
X5999500Y-55881902D01*
X5999500Y-56118097D01*
X6036446Y-56351368D01*
X6109433Y-56575996D01*
X6216519Y-56786163D01*
X6216657Y-56786433D01*
X6355483Y-56977510D01*
X6522490Y-57144517D01*
X6713567Y-57283343D01*
X6812991Y-57334002D01*
X6924003Y-57390566D01*
X6924005Y-57390566D01*
X6924008Y-57390568D01*
X7044412Y-57429689D01*
X7148631Y-57463553D01*
X7381903Y-57500500D01*
X7381908Y-57500500D01*
X7618097Y-57500500D01*
X7851368Y-57463553D01*
X7852870Y-57463065D01*
X8075992Y-57390568D01*
X8286433Y-57283343D01*
X8477510Y-57144517D01*
X8644517Y-56977510D01*
X8783343Y-56786433D01*
X8890568Y-56575992D01*
X8963553Y-56351368D01*
X8965717Y-56337708D01*
X9000500Y-56118097D01*
X9000500Y-55881902D01*
X8963553Y-55648631D01*
X8890566Y-55424003D01*
X8783477Y-55213830D01*
X8783343Y-55213567D01*
X8644517Y-55022490D01*
X8477510Y-54855483D01*
X8286433Y-54716657D01*
X8075996Y-54609433D01*
X7851368Y-54536446D01*
X7618097Y-54499500D01*
X7618092Y-54499500D01*
X7381908Y-54499500D01*
X7381903Y-54499500D01*
X7148631Y-54536446D01*
X6924003Y-54609433D01*
X6713566Y-54716657D01*
X6630047Y-54777338D01*
X6522490Y-54855483D01*
X6522488Y-54855485D01*
X6522487Y-54855485D01*
X6355485Y-55022487D01*
X6355485Y-55022488D01*
X6355483Y-55022490D01*
X6295862Y-55104550D01*
X6216657Y-55213566D01*
X6109433Y-55424003D01*
X6036446Y-55648631D01*
X5999500Y-55881902D01*
X4499993Y-55881902D01*
X4463065Y-55648752D01*
X4390102Y-55424197D01*
X4282914Y-55213828D01*
X4222658Y-55130894D01*
X4222658Y-55130893D01*
X3523787Y-55829765D01*
X3512518Y-55787708D01*
X3440110Y-55662292D01*
X3337708Y-55559890D01*
X3212292Y-55487482D01*
X3170234Y-55476212D01*
X3869105Y-54777340D01*
X3869104Y-54777338D01*
X3786174Y-54717087D01*
X3575802Y-54609897D01*
X3351247Y-54536934D01*
X3351248Y-54536934D01*
X3118052Y-54500000D01*
X2881948Y-54500000D01*
X2648752Y-54536934D01*
X2424197Y-54609897D01*
X2213830Y-54717084D01*
X2130894Y-54777340D01*
X2829766Y-55476212D01*
X2787708Y-55487482D01*
X2662292Y-55559890D01*
X2559890Y-55662292D01*
X2487482Y-55787708D01*
X2476212Y-55829766D01*
X1777340Y-55130894D01*
X1717084Y-55213830D01*
X1609897Y-55424197D01*
X1536934Y-55648752D01*
X1500000Y-55881947D01*
X500500Y-55881947D01*
X500500Y-40999983D01*
X3384500Y-40999983D01*
X3384500Y-42340001D01*
X3384501Y-42340018D01*
X3395000Y-42442796D01*
X3395001Y-42442799D01*
X3450185Y-42609331D01*
X3450186Y-42609334D01*
X3542288Y-42758656D01*
X3666344Y-42882712D01*
X3815666Y-42974814D01*
X3815668Y-42974814D01*
X3815669Y-42974815D01*
X3816348Y-42975132D01*
X3816735Y-42975473D01*
X3821813Y-42978605D01*
X3821277Y-42979472D01*
X3868787Y-43021304D01*
X3887939Y-43088498D01*
X3867723Y-43155379D01*
X3851625Y-43175195D01*
X3709640Y-43317180D01*
X3582843Y-43491700D01*
X3484909Y-43683908D01*
X3418245Y-43889077D01*
X3384500Y-44102133D01*
X3384500Y-44317866D01*
X3418245Y-44530922D01*
X3418246Y-44530926D01*
X3484908Y-44736089D01*
X3582843Y-44928299D01*
X3709641Y-45102821D01*
X3862179Y-45255359D01*
X3983454Y-45343471D01*
X4033294Y-45379682D01*
X4075959Y-45435012D01*
X4081938Y-45504626D01*
X4049332Y-45566421D01*
X4033294Y-45580318D01*
X3862179Y-45704641D01*
X3862177Y-45704643D01*
X3862176Y-45704643D01*
X3709643Y-45857176D01*
X3709643Y-45857177D01*
X3709641Y-45857179D01*
X3655186Y-45932129D01*
X3582843Y-46031700D01*
X3484909Y-46223908D01*
X3418245Y-46429077D01*
X3384500Y-46642133D01*
X3384500Y-46857866D01*
X3418245Y-47070922D01*
X3418246Y-47070926D01*
X3484908Y-47276089D01*
X3582843Y-47468299D01*
X3709641Y-47642821D01*
X3862179Y-47795359D01*
X3977537Y-47879172D01*
X4033294Y-47919682D01*
X4075959Y-47975012D01*
X4081938Y-48044626D01*
X4049332Y-48106421D01*
X4033294Y-48120318D01*
X3862179Y-48244641D01*
X3862177Y-48244643D01*
X3862176Y-48244643D01*
X3709643Y-48397176D01*
X3709643Y-48397177D01*
X3709641Y-48397179D01*
X3655186Y-48472129D01*
X3582843Y-48571700D01*
X3484909Y-48763908D01*
X3418245Y-48969077D01*
X3384500Y-49182133D01*
X3384500Y-49397866D01*
X3418245Y-49610922D01*
X3418246Y-49610926D01*
X3484908Y-49816089D01*
X3582843Y-50008299D01*
X3709641Y-50182821D01*
X3862179Y-50335359D01*
X4033720Y-50459991D01*
X4076385Y-50515321D01*
X4082364Y-50584935D01*
X4049758Y-50646730D01*
X4033720Y-50660627D01*
X3862503Y-50785024D01*
X3710025Y-50937502D01*
X3710025Y-50937503D01*
X3583271Y-51111963D01*
X3485372Y-51304098D01*
X3418733Y-51509190D01*
X3407519Y-51580000D01*
X4437291Y-51580000D01*
X4425548Y-51600339D01*
X4385000Y-51751667D01*
X4385000Y-51908333D01*
X4425548Y-52059661D01*
X4437291Y-52080000D01*
X3407519Y-52080000D01*
X3418733Y-52150809D01*
X3485372Y-52355901D01*
X3583271Y-52548036D01*
X3710025Y-52722496D01*
X3710025Y-52722497D01*
X3862502Y-52874974D01*
X4036963Y-53001728D01*
X4229098Y-53099627D01*
X4434190Y-53166265D01*
X4647180Y-53200000D01*
X4730000Y-53200000D01*
X4730000Y-52372709D01*
X4750339Y-52384452D01*
X4901667Y-52425000D01*
X5058333Y-52425000D01*
X5209661Y-52384452D01*
X5230000Y-52372709D01*
X5230000Y-53200000D01*
X5312820Y-53200000D01*
X5525809Y-53166265D01*
X5730901Y-53099627D01*
X5923036Y-53001728D01*
X6097496Y-52874974D01*
X6097497Y-52874974D01*
X6249974Y-52722497D01*
X6249974Y-52722496D01*
X6376728Y-52548036D01*
X6474627Y-52355901D01*
X6541266Y-52150809D01*
X6552481Y-52080000D01*
X5522709Y-52080000D01*
X5534452Y-52059661D01*
X5575000Y-51908333D01*
X5575000Y-51751667D01*
X5534452Y-51600339D01*
X5522709Y-51580000D01*
X6552481Y-51580000D01*
X6541265Y-51509189D01*
X6541265Y-51509186D01*
X6523134Y-51453384D01*
X6512661Y-51421153D01*
X14374500Y-51421153D01*
X14374500Y-51578846D01*
X14405261Y-51733489D01*
X14405264Y-51733501D01*
X14465602Y-51879172D01*
X14465609Y-51879185D01*
X14553210Y-52010288D01*
X14553213Y-52010292D01*
X14664707Y-52121786D01*
X14664711Y-52121789D01*
X14795814Y-52209390D01*
X14795827Y-52209397D01*
X14941498Y-52269735D01*
X14941503Y-52269737D01*
X15096153Y-52300499D01*
X15096156Y-52300500D01*
X15096158Y-52300500D01*
X15253844Y-52300500D01*
X15253845Y-52300499D01*
X15408497Y-52269737D01*
X15554179Y-52209394D01*
X15685289Y-52121789D01*
X15796789Y-52010289D01*
X15884394Y-51879179D01*
X15944737Y-51733497D01*
X15975500Y-51578842D01*
X15975500Y-51421158D01*
X15975500Y-51421155D01*
X15975499Y-51421153D01*
X15944738Y-51266510D01*
X15944737Y-51266503D01*
X15931688Y-51235000D01*
X15884397Y-51120827D01*
X15884390Y-51120814D01*
X15796398Y-50989125D01*
X15775520Y-50922447D01*
X15775500Y-50920234D01*
X15775500Y-48157940D01*
X15795185Y-48090901D01*
X15811814Y-48070263D01*
X15871789Y-48010289D01*
X15959394Y-47879179D01*
X16019737Y-47733497D01*
X16050500Y-47578842D01*
X16050500Y-47421158D01*
X16050500Y-47421155D01*
X16050499Y-47421153D01*
X16021644Y-47276091D01*
X16019737Y-47266503D01*
X16019735Y-47266498D01*
X15959397Y-47120827D01*
X15959390Y-47120814D01*
X15871789Y-46989711D01*
X15871786Y-46989707D01*
X15760292Y-46878213D01*
X15760288Y-46878210D01*
X15629185Y-46790609D01*
X15629172Y-46790602D01*
X15483501Y-46730264D01*
X15483489Y-46730261D01*
X15328845Y-46699500D01*
X15328842Y-46699500D01*
X15171158Y-46699500D01*
X15171155Y-46699500D01*
X15016510Y-46730261D01*
X15016498Y-46730264D01*
X14870827Y-46790602D01*
X14870814Y-46790609D01*
X14739711Y-46878210D01*
X14739707Y-46878213D01*
X14628213Y-46989707D01*
X14628210Y-46989711D01*
X14540609Y-47120814D01*
X14540602Y-47120827D01*
X14480264Y-47266498D01*
X14480261Y-47266510D01*
X14449500Y-47421153D01*
X14449500Y-47578846D01*
X14480261Y-47733489D01*
X14480264Y-47733501D01*
X14540603Y-47879174D01*
X14540604Y-47879175D01*
X14540606Y-47879179D01*
X14553602Y-47898628D01*
X14574480Y-47965305D01*
X14574500Y-47967519D01*
X14574500Y-50920234D01*
X14554815Y-50987273D01*
X14553602Y-50989125D01*
X14465609Y-51120814D01*
X14465602Y-51120827D01*
X14405264Y-51266498D01*
X14405261Y-51266510D01*
X14374500Y-51421153D01*
X6512661Y-51421153D01*
X6474627Y-51304098D01*
X6376728Y-51111963D01*
X6249974Y-50937503D01*
X6249974Y-50937502D01*
X6097497Y-50785025D01*
X5926279Y-50660627D01*
X5883614Y-50605297D01*
X5877635Y-50535683D01*
X5910241Y-50473888D01*
X5926280Y-50459991D01*
X6097821Y-50335359D01*
X6250359Y-50182821D01*
X6377157Y-50008299D01*
X6475092Y-49816089D01*
X6541754Y-49610926D01*
X6556752Y-49516230D01*
X6575500Y-49397866D01*
X6575500Y-49182133D01*
X6541754Y-48969077D01*
X6541754Y-48969074D01*
X6475092Y-48763911D01*
X6377157Y-48571701D01*
X6250359Y-48397179D01*
X6097821Y-48244641D01*
X5926704Y-48120317D01*
X5884040Y-48064988D01*
X5878061Y-47995374D01*
X5910667Y-47933580D01*
X5926702Y-47919684D01*
X6097821Y-47795359D01*
X6250359Y-47642821D01*
X6377157Y-47468299D01*
X6475092Y-47276089D01*
X6541754Y-47070926D01*
X6572277Y-46878213D01*
X6575500Y-46857866D01*
X6575500Y-46642133D01*
X6541754Y-46429077D01*
X6541754Y-46429074D01*
X6475092Y-46223911D01*
X6377157Y-46031701D01*
X6250359Y-45857179D01*
X6097821Y-45704641D01*
X5926704Y-45580317D01*
X5884040Y-45524988D01*
X5878061Y-45455374D01*
X5910667Y-45393580D01*
X5926702Y-45379684D01*
X6097821Y-45255359D01*
X6250359Y-45102821D01*
X6377157Y-44928299D01*
X6475092Y-44736089D01*
X6541754Y-44530926D01*
X6556752Y-44436230D01*
X6575500Y-44317866D01*
X6575500Y-44102133D01*
X6541754Y-43889077D01*
X6541754Y-43889074D01*
X6475092Y-43683911D01*
X6377157Y-43491701D01*
X6250359Y-43317179D01*
X6108375Y-43175195D01*
X6074890Y-43113872D01*
X6079874Y-43044180D01*
X6121746Y-42988247D01*
X6143657Y-42975129D01*
X6144322Y-42974817D01*
X6144334Y-42974814D01*
X6293656Y-42882712D01*
X6417712Y-42758656D01*
X6509814Y-42609334D01*
X6564999Y-42442797D01*
X6575500Y-42340009D01*
X6575499Y-40999992D01*
X6564999Y-40897203D01*
X6509814Y-40730666D01*
X6417712Y-40581344D01*
X6293656Y-40457288D01*
X6144334Y-40365186D01*
X5977797Y-40310001D01*
X5977795Y-40310000D01*
X5875010Y-40299500D01*
X4084998Y-40299500D01*
X4084981Y-40299501D01*
X3982203Y-40310000D01*
X3982200Y-40310001D01*
X3815668Y-40365185D01*
X3815663Y-40365187D01*
X3666342Y-40457289D01*
X3542289Y-40581342D01*
X3450187Y-40730663D01*
X3450186Y-40730666D01*
X3395001Y-40897203D01*
X3395001Y-40897204D01*
X3395000Y-40897204D01*
X3384500Y-40999983D01*
X500500Y-40999983D01*
X500500Y-31091902D01*
X2499500Y-31091902D01*
X2499500Y-31328097D01*
X2536446Y-31561368D01*
X2609433Y-31785996D01*
X2716657Y-31996433D01*
X2855483Y-32187510D01*
X3022490Y-32354517D01*
X3057127Y-32379683D01*
X3099792Y-32435013D01*
X3105771Y-32504626D01*
X3073165Y-32566421D01*
X3057130Y-32580315D01*
X3039365Y-32593222D01*
X3022488Y-32605484D01*
X2855485Y-32772487D01*
X2855485Y-32772488D01*
X2855483Y-32772490D01*
X2795862Y-32854550D01*
X2716657Y-32963566D01*
X2609433Y-33174003D01*
X2536446Y-33398631D01*
X2499500Y-33631902D01*
X2499500Y-33868097D01*
X2536446Y-34101368D01*
X2609433Y-34325996D01*
X2716657Y-34536433D01*
X2855483Y-34727510D01*
X3022490Y-34894517D01*
X3057127Y-34919683D01*
X3099792Y-34975013D01*
X3105771Y-35044626D01*
X3073165Y-35106421D01*
X3057130Y-35120315D01*
X3039365Y-35133222D01*
X3022488Y-35145484D01*
X2855485Y-35312487D01*
X2855485Y-35312488D01*
X2855483Y-35312490D01*
X2795862Y-35394550D01*
X2716657Y-35503566D01*
X2609433Y-35714003D01*
X2536446Y-35938631D01*
X2499500Y-36171902D01*
X2499500Y-36408097D01*
X2536446Y-36641368D01*
X2609433Y-36865996D01*
X2716657Y-37076433D01*
X2855483Y-37267510D01*
X3022490Y-37434517D01*
X3213567Y-37573343D01*
X3312991Y-37624002D01*
X3424003Y-37680566D01*
X3424005Y-37680566D01*
X3424008Y-37680568D01*
X3544412Y-37719689D01*
X3648631Y-37753553D01*
X3881903Y-37790500D01*
X3881908Y-37790500D01*
X4118097Y-37790500D01*
X4351368Y-37753553D01*
X4575992Y-37680568D01*
X4786433Y-37573343D01*
X4977510Y-37434517D01*
X5144517Y-37267510D01*
X5283343Y-37076433D01*
X5390568Y-36865992D01*
X5463553Y-36641368D01*
X5500500Y-36408097D01*
X5500500Y-36171902D01*
X5463553Y-35938631D01*
X5390566Y-35714003D01*
X5283342Y-35503566D01*
X5144517Y-35312490D01*
X4977510Y-35145483D01*
X4942872Y-35120317D01*
X4900207Y-35064989D01*
X4894228Y-34995375D01*
X4926833Y-34933580D01*
X4942873Y-34919682D01*
X4977510Y-34894517D01*
X5144517Y-34727510D01*
X5283343Y-34536433D01*
X5390568Y-34325992D01*
X5463553Y-34101368D01*
X5500500Y-33868097D01*
X5500500Y-33631902D01*
X5463553Y-33398631D01*
X5390566Y-33174003D01*
X5283342Y-32963566D01*
X5144517Y-32772490D01*
X4977510Y-32605483D01*
X4942872Y-32580317D01*
X4900207Y-32524989D01*
X4894228Y-32455375D01*
X4926833Y-32393580D01*
X4942873Y-32379682D01*
X4977510Y-32354517D01*
X5144517Y-32187510D01*
X5283343Y-31996433D01*
X5390568Y-31785992D01*
X5463553Y-31561368D01*
X5500500Y-31328097D01*
X5500500Y-31091902D01*
X5463553Y-30858635D01*
X5463553Y-30858632D01*
X5422547Y-30732433D01*
X5420553Y-30662593D01*
X5452796Y-30606437D01*
X6440520Y-29618716D01*
X6519577Y-29481784D01*
X6560501Y-29329057D01*
X6560501Y-29170942D01*
X6560501Y-29163347D01*
X6560500Y-29163329D01*
X6560500Y-27490097D01*
X6580185Y-27423058D01*
X6596819Y-27402416D01*
X6730178Y-27269057D01*
X7014662Y-26984572D01*
X7075983Y-26951089D01*
X7078150Y-26950638D01*
X7136085Y-26939113D01*
X7233497Y-26919737D01*
X7379179Y-26859394D01*
X7510289Y-26771789D01*
X7621789Y-26660289D01*
X7709394Y-26529179D01*
X7769737Y-26383497D01*
X7800500Y-26228842D01*
X7800500Y-26071158D01*
X7800500Y-26071155D01*
X7800499Y-26071153D01*
X7769738Y-25916510D01*
X7769738Y-25916508D01*
X7769737Y-25916503D01*
X7737908Y-25839660D01*
X7709397Y-25770827D01*
X7709390Y-25770814D01*
X7621789Y-25639711D01*
X7621786Y-25639707D01*
X7510292Y-25528213D01*
X7510288Y-25528210D01*
X7379185Y-25440609D01*
X7379172Y-25440602D01*
X7233501Y-25380264D01*
X7233489Y-25380261D01*
X7078845Y-25349500D01*
X7078842Y-25349500D01*
X6921158Y-25349500D01*
X6921155Y-25349500D01*
X6766510Y-25380261D01*
X6766498Y-25380264D01*
X6620827Y-25440602D01*
X6620814Y-25440609D01*
X6489711Y-25528210D01*
X6489707Y-25528213D01*
X6378213Y-25639707D01*
X6378210Y-25639711D01*
X6290609Y-25770814D01*
X6290602Y-25770827D01*
X6230264Y-25916498D01*
X6230261Y-25916508D01*
X6199361Y-26071850D01*
X6166976Y-26133761D01*
X6165425Y-26135339D01*
X5479481Y-26821282D01*
X5479479Y-26821285D01*
X5429361Y-26908094D01*
X5429359Y-26908096D01*
X5400425Y-26958209D01*
X5400424Y-26958210D01*
X5400423Y-26958215D01*
X5359499Y-27110943D01*
X5359499Y-27110945D01*
X5359499Y-27279046D01*
X5359500Y-27279059D01*
X5359500Y-28949902D01*
X5339815Y-29016941D01*
X5323181Y-29037583D01*
X4603563Y-29757200D01*
X4542240Y-29790685D01*
X4477564Y-29787450D01*
X4351370Y-29746447D01*
X4118097Y-29709500D01*
X4118092Y-29709500D01*
X3881908Y-29709500D01*
X3881903Y-29709500D01*
X3648631Y-29746446D01*
X3424003Y-29819433D01*
X3213566Y-29926657D01*
X3104550Y-30005862D01*
X3022490Y-30065483D01*
X3022488Y-30065485D01*
X3022487Y-30065485D01*
X2855485Y-30232487D01*
X2855485Y-30232488D01*
X2855483Y-30232490D01*
X2795862Y-30314550D01*
X2716657Y-30423566D01*
X2609433Y-30634003D01*
X2536446Y-30858631D01*
X2499500Y-31091902D01*
X500500Y-31091902D01*
X500500Y-25746153D01*
X1024500Y-25746153D01*
X1024500Y-25903846D01*
X1055261Y-26058489D01*
X1055264Y-26058501D01*
X1115602Y-26204172D01*
X1115609Y-26204185D01*
X1203210Y-26335288D01*
X1203213Y-26335292D01*
X1314707Y-26446786D01*
X1314711Y-26446789D01*
X1445814Y-26534390D01*
X1445827Y-26534397D01*
X1591498Y-26594735D01*
X1591503Y-26594737D01*
X1746153Y-26625499D01*
X1746156Y-26625500D01*
X1746158Y-26625500D01*
X1903844Y-26625500D01*
X1903845Y-26625499D01*
X2058497Y-26594737D01*
X2204179Y-26534394D01*
X2335289Y-26446789D01*
X2446789Y-26335289D01*
X2534394Y-26204179D01*
X2594737Y-26058497D01*
X2622983Y-25916498D01*
X2625638Y-25903150D01*
X2658023Y-25841239D01*
X2659517Y-25839717D01*
X4464664Y-24034571D01*
X4525985Y-24001088D01*
X4528152Y-24000637D01*
X4528841Y-24000500D01*
X4528842Y-24000500D01*
X4683497Y-23969737D01*
X4829179Y-23909394D01*
X4960289Y-23821789D01*
X5071789Y-23710289D01*
X5159394Y-23579179D01*
X5219737Y-23433497D01*
X5250500Y-23278842D01*
X5250500Y-23121158D01*
X5250500Y-23121155D01*
X5250499Y-23121153D01*
X5219738Y-22966510D01*
X5219738Y-22966508D01*
X5219737Y-22966503D01*
X5219735Y-22966498D01*
X5159397Y-22820827D01*
X5159390Y-22820814D01*
X5071789Y-22689711D01*
X5071786Y-22689707D01*
X4960292Y-22578213D01*
X4960288Y-22578210D01*
X4829185Y-22490609D01*
X4829172Y-22490602D01*
X4683501Y-22430264D01*
X4683489Y-22430261D01*
X4528845Y-22399500D01*
X4528842Y-22399500D01*
X4371158Y-22399500D01*
X4371155Y-22399500D01*
X4216510Y-22430261D01*
X4216498Y-22430264D01*
X4070827Y-22490602D01*
X4070814Y-22490609D01*
X3939711Y-22578210D01*
X3939707Y-22578213D01*
X3828213Y-22689707D01*
X3828210Y-22689711D01*
X3740609Y-22820814D01*
X3740602Y-22820827D01*
X3680264Y-22966498D01*
X3680261Y-22966508D01*
X3649362Y-23121848D01*
X3616977Y-23183759D01*
X3615426Y-23185337D01*
X1810339Y-24990425D01*
X1749016Y-25023910D01*
X1746850Y-25024361D01*
X1591508Y-25055261D01*
X1591498Y-25055264D01*
X1445827Y-25115602D01*
X1445814Y-25115609D01*
X1314711Y-25203210D01*
X1314707Y-25203213D01*
X1203213Y-25314707D01*
X1203210Y-25314711D01*
X1115609Y-25445814D01*
X1115602Y-25445827D01*
X1055264Y-25591498D01*
X1055261Y-25591510D01*
X1024500Y-25746153D01*
X500500Y-25746153D01*
X500500Y-15685777D01*
X3349500Y-15685777D01*
X3349500Y-17314208D01*
X3349501Y-17314223D01*
X3359904Y-17446413D01*
X3359905Y-17446420D01*
X3414902Y-17664678D01*
X3414903Y-17664681D01*
X3507878Y-17869374D01*
X3507993Y-17869626D01*
X3507995Y-17869630D01*
X3507997Y-17869632D01*
X3636174Y-18054645D01*
X3636178Y-18054650D01*
X3636181Y-18054654D01*
X3795346Y-18213819D01*
X3795350Y-18213822D01*
X3795354Y-18213825D01*
X3934603Y-18310297D01*
X3980374Y-18342007D01*
X4185317Y-18435096D01*
X4185321Y-18435097D01*
X4403579Y-18490094D01*
X4403581Y-18490094D01*
X4403588Y-18490096D01*
X4535783Y-18500500D01*
X4664216Y-18500499D01*
X4796412Y-18490096D01*
X5014683Y-18435096D01*
X5219626Y-18342007D01*
X5404654Y-18213819D01*
X5563819Y-18054654D01*
X5692007Y-17869626D01*
X5785096Y-17664683D01*
X5840096Y-17446412D01*
X5850500Y-17314217D01*
X5850499Y-15685784D01*
X5850498Y-15685777D01*
X11849500Y-15685777D01*
X11849500Y-17314208D01*
X11849501Y-17314223D01*
X11859904Y-17446413D01*
X11859905Y-17446420D01*
X11914902Y-17664678D01*
X11914903Y-17664681D01*
X12007878Y-17869374D01*
X12007993Y-17869626D01*
X12007995Y-17869630D01*
X12007997Y-17869632D01*
X12136174Y-18054645D01*
X12136178Y-18054650D01*
X12136181Y-18054654D01*
X12295346Y-18213819D01*
X12295350Y-18213822D01*
X12295354Y-18213825D01*
X12434603Y-18310297D01*
X12480374Y-18342007D01*
X12685317Y-18435096D01*
X12685321Y-18435097D01*
X12903579Y-18490094D01*
X12903581Y-18490094D01*
X12903588Y-18490096D01*
X13035783Y-18500500D01*
X13164216Y-18500499D01*
X13296412Y-18490096D01*
X13514683Y-18435096D01*
X13719626Y-18342007D01*
X13904654Y-18213819D01*
X14063819Y-18054654D01*
X14192007Y-17869626D01*
X14237376Y-17769740D01*
X14283021Y-17716846D01*
X14350020Y-17697024D01*
X14417100Y-17716572D01*
X14462963Y-17769282D01*
X14463173Y-17769742D01*
X14508430Y-17869378D01*
X14508431Y-17869380D01*
X14636559Y-18054323D01*
X14636569Y-18054335D01*
X14795664Y-18213430D01*
X14795676Y-18213440D01*
X14980619Y-18341568D01*
X14980625Y-18341571D01*
X15185480Y-18434622D01*
X15350000Y-18476076D01*
X15350000Y-17299728D01*
X15388060Y-17391614D01*
X15458386Y-17461940D01*
X15550272Y-17500000D01*
X15649728Y-17500000D01*
X15741614Y-17461940D01*
X15811940Y-17391614D01*
X15850000Y-17299728D01*
X15850000Y-18476075D01*
X16014519Y-18434622D01*
X16219374Y-18341571D01*
X16219380Y-18341568D01*
X16404323Y-18213440D01*
X16404335Y-18213430D01*
X16563430Y-18054335D01*
X16563440Y-18054323D01*
X16691568Y-17869380D01*
X16691571Y-17869374D01*
X16784622Y-17664519D01*
X16839599Y-17446332D01*
X16849999Y-17314196D01*
X16850000Y-17314184D01*
X16850000Y-16750000D01*
X15850000Y-16750000D01*
X15850000Y-16250000D01*
X16849999Y-16250000D01*
X16849999Y-15685817D01*
X16849998Y-15685802D01*
X16839599Y-15553667D01*
X16784622Y-15335480D01*
X16691571Y-15130625D01*
X16691568Y-15130619D01*
X16563440Y-14945676D01*
X16563430Y-14945664D01*
X16404335Y-14786569D01*
X16404323Y-14786559D01*
X16219380Y-14658431D01*
X16219374Y-14658428D01*
X16014517Y-14565377D01*
X15850000Y-14523922D01*
X15850000Y-15700272D01*
X15811940Y-15608386D01*
X15741614Y-15538060D01*
X15649728Y-15500000D01*
X15550272Y-15500000D01*
X15458386Y-15538060D01*
X15388060Y-15608386D01*
X15350000Y-15700272D01*
X15350000Y-14523922D01*
X15185482Y-14565377D01*
X14980625Y-14658428D01*
X14980619Y-14658431D01*
X14795676Y-14786559D01*
X14795664Y-14786569D01*
X14636569Y-14945664D01*
X14636559Y-14945676D01*
X14508431Y-15130619D01*
X14508430Y-15130621D01*
X14463173Y-15230257D01*
X14417526Y-15283154D01*
X14350526Y-15302975D01*
X14283447Y-15283427D01*
X14237585Y-15230716D01*
X14237434Y-15230386D01*
X14192007Y-15130374D01*
X14064048Y-14945676D01*
X14063825Y-14945354D01*
X14063822Y-14945350D01*
X14063819Y-14945346D01*
X13904654Y-14786181D01*
X13904650Y-14786178D01*
X13904645Y-14786174D01*
X13719632Y-14657997D01*
X13719630Y-14657995D01*
X13719626Y-14657993D01*
X13515724Y-14565377D01*
X13514681Y-14564903D01*
X13514678Y-14564902D01*
X13296420Y-14509905D01*
X13296413Y-14509904D01*
X13230314Y-14504702D01*
X13164217Y-14499500D01*
X13164216Y-14499500D01*
X13035792Y-14499500D01*
X13035775Y-14499501D01*
X12903586Y-14509904D01*
X12903579Y-14509905D01*
X12685321Y-14564902D01*
X12685318Y-14564903D01*
X12480377Y-14657991D01*
X12480367Y-14657997D01*
X12295354Y-14786174D01*
X12295342Y-14786184D01*
X12136184Y-14945342D01*
X12136174Y-14945354D01*
X12007997Y-15130367D01*
X12007991Y-15130377D01*
X11914903Y-15335318D01*
X11914902Y-15335321D01*
X11859905Y-15553579D01*
X11859904Y-15553586D01*
X11849500Y-15685777D01*
X5850498Y-15685777D01*
X5840096Y-15553588D01*
X5785096Y-15335317D01*
X5692007Y-15130374D01*
X5564048Y-14945676D01*
X5563825Y-14945354D01*
X5563822Y-14945350D01*
X5563819Y-14945346D01*
X5404654Y-14786181D01*
X5404650Y-14786178D01*
X5404645Y-14786174D01*
X5219632Y-14657997D01*
X5219630Y-14657995D01*
X5219626Y-14657993D01*
X5015724Y-14565377D01*
X5014681Y-14564903D01*
X5014678Y-14564902D01*
X4796420Y-14509905D01*
X4796413Y-14509904D01*
X4730314Y-14504702D01*
X4664217Y-14499500D01*
X4664216Y-14499500D01*
X4535792Y-14499500D01*
X4535775Y-14499501D01*
X4403586Y-14509904D01*
X4403579Y-14509905D01*
X4185321Y-14564902D01*
X4185318Y-14564903D01*
X3980377Y-14657991D01*
X3980367Y-14657997D01*
X3795354Y-14786174D01*
X3795342Y-14786184D01*
X3636184Y-14945342D01*
X3636174Y-14945354D01*
X3507997Y-15130367D01*
X3507991Y-15130377D01*
X3414903Y-15335318D01*
X3414902Y-15335321D01*
X3359905Y-15553579D01*
X3359904Y-15553586D01*
X3349500Y-15685777D01*
X500500Y-15685777D01*
X500500Y-4685777D01*
X3349500Y-4685777D01*
X3349500Y-6314208D01*
X3349501Y-6314223D01*
X3359904Y-6446413D01*
X3359905Y-6446420D01*
X3414902Y-6664678D01*
X3414903Y-6664681D01*
X3507878Y-6869374D01*
X3507993Y-6869626D01*
X3507995Y-6869630D01*
X3507997Y-6869632D01*
X3636174Y-7054645D01*
X3636178Y-7054650D01*
X3636181Y-7054654D01*
X3795346Y-7213819D01*
X3795350Y-7213822D01*
X3795354Y-7213825D01*
X3934603Y-7310297D01*
X3980374Y-7342007D01*
X4185317Y-7435096D01*
X4185321Y-7435097D01*
X4403579Y-7490094D01*
X4403581Y-7490094D01*
X4403588Y-7490096D01*
X4535783Y-7500500D01*
X4664216Y-7500499D01*
X4796412Y-7490096D01*
X5014683Y-7435096D01*
X5219626Y-7342007D01*
X5404654Y-7213819D01*
X5563819Y-7054654D01*
X5692007Y-6869626D01*
X5785096Y-6664683D01*
X5840096Y-6446412D01*
X5850500Y-6314217D01*
X5850499Y-4685784D01*
X5850498Y-4685777D01*
X11849500Y-4685777D01*
X11849500Y-6314208D01*
X11849501Y-6314223D01*
X11859904Y-6446413D01*
X11859905Y-6446420D01*
X11914902Y-6664678D01*
X11914903Y-6664681D01*
X12007878Y-6869374D01*
X12007993Y-6869626D01*
X12007995Y-6869630D01*
X12007997Y-6869632D01*
X12136174Y-7054645D01*
X12136178Y-7054650D01*
X12136181Y-7054654D01*
X12295346Y-7213819D01*
X12295350Y-7213822D01*
X12295354Y-7213825D01*
X12434603Y-7310297D01*
X12480374Y-7342007D01*
X12685317Y-7435096D01*
X12685321Y-7435097D01*
X12903579Y-7490094D01*
X12903581Y-7490094D01*
X12903588Y-7490096D01*
X13035783Y-7500500D01*
X13164216Y-7500499D01*
X13296412Y-7490096D01*
X13514683Y-7435096D01*
X13719626Y-7342007D01*
X13904654Y-7213819D01*
X14063819Y-7054654D01*
X14192007Y-6869626D01*
X14237376Y-6769740D01*
X14283021Y-6716846D01*
X14350020Y-6697024D01*
X14417100Y-6716572D01*
X14462963Y-6769282D01*
X14463173Y-6769742D01*
X14508430Y-6869378D01*
X14508431Y-6869380D01*
X14636559Y-7054323D01*
X14636569Y-7054335D01*
X14795664Y-7213430D01*
X14795676Y-7213440D01*
X14980619Y-7341568D01*
X14980625Y-7341571D01*
X15185480Y-7434622D01*
X15350000Y-7476076D01*
X15350000Y-6299728D01*
X15388060Y-6391614D01*
X15458386Y-6461940D01*
X15550272Y-6500000D01*
X15649728Y-6500000D01*
X15741614Y-6461940D01*
X15811940Y-6391614D01*
X15850000Y-6299728D01*
X15850000Y-7476075D01*
X16014519Y-7434622D01*
X16219374Y-7341571D01*
X16219380Y-7341568D01*
X16404323Y-7213440D01*
X16404335Y-7213430D01*
X16563430Y-7054335D01*
X16563440Y-7054323D01*
X16691568Y-6869380D01*
X16691571Y-6869374D01*
X16784622Y-6664519D01*
X16839599Y-6446332D01*
X16849999Y-6314196D01*
X16850000Y-6314184D01*
X16850000Y-5750000D01*
X15850000Y-5750000D01*
X15850000Y-5250000D01*
X16849999Y-5250000D01*
X16849999Y-4685817D01*
X16849998Y-4685802D01*
X16839599Y-4553667D01*
X16784622Y-4335480D01*
X16691571Y-4130625D01*
X16691568Y-4130619D01*
X16563440Y-3945676D01*
X16563430Y-3945664D01*
X16404335Y-3786569D01*
X16404323Y-3786559D01*
X16219380Y-3658431D01*
X16219374Y-3658428D01*
X16014517Y-3565377D01*
X15850000Y-3523922D01*
X15850000Y-4700272D01*
X15811940Y-4608386D01*
X15741614Y-4538060D01*
X15649728Y-4500000D01*
X15550272Y-4500000D01*
X15458386Y-4538060D01*
X15388060Y-4608386D01*
X15350000Y-4700272D01*
X15350000Y-3523922D01*
X15185482Y-3565377D01*
X14980625Y-3658428D01*
X14980619Y-3658431D01*
X14795676Y-3786559D01*
X14795664Y-3786569D01*
X14636569Y-3945664D01*
X14636559Y-3945676D01*
X14508431Y-4130619D01*
X14508430Y-4130621D01*
X14463173Y-4230257D01*
X14417526Y-4283154D01*
X14350526Y-4302975D01*
X14283447Y-4283427D01*
X14237585Y-4230716D01*
X14237434Y-4230386D01*
X14192007Y-4130374D01*
X14064048Y-3945676D01*
X14063825Y-3945354D01*
X14063822Y-3945350D01*
X14063819Y-3945346D01*
X13904654Y-3786181D01*
X13904650Y-3786178D01*
X13904645Y-3786174D01*
X13719632Y-3657997D01*
X13719630Y-3657995D01*
X13719626Y-3657993D01*
X13515724Y-3565377D01*
X13514681Y-3564903D01*
X13514678Y-3564902D01*
X13296420Y-3509905D01*
X13296413Y-3509904D01*
X13230314Y-3504702D01*
X13164217Y-3499500D01*
X13164216Y-3499500D01*
X13035792Y-3499500D01*
X13035775Y-3499501D01*
X12903586Y-3509904D01*
X12903579Y-3509905D01*
X12685321Y-3564902D01*
X12685318Y-3564903D01*
X12480377Y-3657991D01*
X12480367Y-3657997D01*
X12295354Y-3786174D01*
X12295342Y-3786184D01*
X12136184Y-3945342D01*
X12136174Y-3945354D01*
X12007997Y-4130367D01*
X12007991Y-4130377D01*
X11914903Y-4335318D01*
X11914902Y-4335321D01*
X11859905Y-4553579D01*
X11859904Y-4553586D01*
X11849500Y-4685777D01*
X5850498Y-4685777D01*
X5840096Y-4553588D01*
X5785096Y-4335317D01*
X5692007Y-4130374D01*
X5564048Y-3945676D01*
X5563825Y-3945354D01*
X5563822Y-3945350D01*
X5563819Y-3945346D01*
X5404654Y-3786181D01*
X5404650Y-3786178D01*
X5404645Y-3786174D01*
X5219632Y-3657997D01*
X5219630Y-3657995D01*
X5219626Y-3657993D01*
X5015724Y-3565377D01*
X5014681Y-3564903D01*
X5014678Y-3564902D01*
X4796420Y-3509905D01*
X4796413Y-3509904D01*
X4730314Y-3504702D01*
X4664217Y-3499500D01*
X4664216Y-3499500D01*
X4535792Y-3499500D01*
X4535775Y-3499501D01*
X4403586Y-3509904D01*
X4403579Y-3509905D01*
X4185321Y-3564902D01*
X4185318Y-3564903D01*
X3980377Y-3657991D01*
X3980367Y-3657997D01*
X3795354Y-3786174D01*
X3795342Y-3786184D01*
X3636184Y-3945342D01*
X3636174Y-3945354D01*
X3507997Y-4130367D01*
X3507991Y-4130377D01*
X3414903Y-4335318D01*
X3414902Y-4335321D01*
X3359905Y-4553579D01*
X3359904Y-4553586D01*
X3349500Y-4685777D01*
X500500Y-4685777D01*
X500500Y-624500D01*
X520185Y-557461D01*
X572989Y-511706D01*
X624500Y-500500D01*
X17375500Y-500500D01*
X17442539Y-520185D01*
G37*
%TD.AperFunction*%
%TD*%
M02*
