%TF.GenerationSoftware,KiCad,Pcbnew,10.0.6*%
%TF.CreationDate,2026-09-30T20:24:19+02:00*%
%TF.ProjectId,player_melodic,706c6179-6572-45f6-9d65-6c6f6469632e,rev?*%
%TF.SameCoordinates,Original*%
%TF.FileFunction,Legend,Top*%
%TF.FilePolarity,Positive*%
%FSLAX46Y46*%
G04 Gerber Fmt 4.6, Leading zero omitted, Abs format (unit mm)*
G04 Created by KiCad (PCBNEW 10.0.6) date 2026-09-30 20:24:19*
%MOMM*%
%LPD*%
G01*
G04 APERTURE LIST*
%ADD10C,0.150000*%
%ADD11C,0.100000*%
%ADD12C,0.120000*%
G04 APERTURE END LIST*
D10*
X9833333Y-53954819D02*
X9500000Y-53478628D01*
X9261905Y-53954819D02*
X9261905Y-52954819D01*
X9261905Y-52954819D02*
X9642857Y-52954819D01*
X9642857Y-52954819D02*
X9738095Y-53002438D01*
X9738095Y-53002438D02*
X9785714Y-53050057D01*
X9785714Y-53050057D02*
X9833333Y-53145295D01*
X9833333Y-53145295D02*
X9833333Y-53288152D01*
X9833333Y-53288152D02*
X9785714Y-53383390D01*
X9785714Y-53383390D02*
X9738095Y-53431009D01*
X9738095Y-53431009D02*
X9642857Y-53478628D01*
X9642857Y-53478628D02*
X9261905Y-53478628D01*
X10404762Y-53383390D02*
X10309524Y-53335771D01*
X10309524Y-53335771D02*
X10261905Y-53288152D01*
X10261905Y-53288152D02*
X10214286Y-53192914D01*
X10214286Y-53192914D02*
X10214286Y-53145295D01*
X10214286Y-53145295D02*
X10261905Y-53050057D01*
X10261905Y-53050057D02*
X10309524Y-53002438D01*
X10309524Y-53002438D02*
X10404762Y-52954819D01*
X10404762Y-52954819D02*
X10595238Y-52954819D01*
X10595238Y-52954819D02*
X10690476Y-53002438D01*
X10690476Y-53002438D02*
X10738095Y-53050057D01*
X10738095Y-53050057D02*
X10785714Y-53145295D01*
X10785714Y-53145295D02*
X10785714Y-53192914D01*
X10785714Y-53192914D02*
X10738095Y-53288152D01*
X10738095Y-53288152D02*
X10690476Y-53335771D01*
X10690476Y-53335771D02*
X10595238Y-53383390D01*
X10595238Y-53383390D02*
X10404762Y-53383390D01*
X10404762Y-53383390D02*
X10309524Y-53431009D01*
X10309524Y-53431009D02*
X10261905Y-53478628D01*
X10261905Y-53478628D02*
X10214286Y-53573866D01*
X10214286Y-53573866D02*
X10214286Y-53764342D01*
X10214286Y-53764342D02*
X10261905Y-53859580D01*
X10261905Y-53859580D02*
X10309524Y-53907200D01*
X10309524Y-53907200D02*
X10404762Y-53954819D01*
X10404762Y-53954819D02*
X10595238Y-53954819D01*
X10595238Y-53954819D02*
X10690476Y-53907200D01*
X10690476Y-53907200D02*
X10738095Y-53859580D01*
X10738095Y-53859580D02*
X10785714Y-53764342D01*
X10785714Y-53764342D02*
X10785714Y-53573866D01*
X10785714Y-53573866D02*
X10738095Y-53478628D01*
X10738095Y-53478628D02*
X10690476Y-53431009D01*
X10690476Y-53431009D02*
X10595238Y-53383390D01*
X11859580Y-64416666D02*
X11907200Y-64464285D01*
X11907200Y-64464285D02*
X11954819Y-64607142D01*
X11954819Y-64607142D02*
X11954819Y-64702380D01*
X11954819Y-64702380D02*
X11907200Y-64845237D01*
X11907200Y-64845237D02*
X11811961Y-64940475D01*
X11811961Y-64940475D02*
X11716723Y-64988094D01*
X11716723Y-64988094D02*
X11526247Y-65035713D01*
X11526247Y-65035713D02*
X11383390Y-65035713D01*
X11383390Y-65035713D02*
X11192914Y-64988094D01*
X11192914Y-64988094D02*
X11097676Y-64940475D01*
X11097676Y-64940475D02*
X11002438Y-64845237D01*
X11002438Y-64845237D02*
X10954819Y-64702380D01*
X10954819Y-64702380D02*
X10954819Y-64607142D01*
X10954819Y-64607142D02*
X11002438Y-64464285D01*
X11002438Y-64464285D02*
X11050057Y-64416666D01*
X10954819Y-64083332D02*
X10954819Y-63416666D01*
X10954819Y-63416666D02*
X11954819Y-63845237D01*
X13833333Y-63359580D02*
X13785714Y-63407200D01*
X13785714Y-63407200D02*
X13642857Y-63454819D01*
X13642857Y-63454819D02*
X13547619Y-63454819D01*
X13547619Y-63454819D02*
X13404762Y-63407200D01*
X13404762Y-63407200D02*
X13309524Y-63311961D01*
X13309524Y-63311961D02*
X13261905Y-63216723D01*
X13261905Y-63216723D02*
X13214286Y-63026247D01*
X13214286Y-63026247D02*
X13214286Y-62883390D01*
X13214286Y-62883390D02*
X13261905Y-62692914D01*
X13261905Y-62692914D02*
X13309524Y-62597676D01*
X13309524Y-62597676D02*
X13404762Y-62502438D01*
X13404762Y-62502438D02*
X13547619Y-62454819D01*
X13547619Y-62454819D02*
X13642857Y-62454819D01*
X13642857Y-62454819D02*
X13785714Y-62502438D01*
X13785714Y-62502438D02*
X13833333Y-62550057D01*
X14404762Y-62883390D02*
X14309524Y-62835771D01*
X14309524Y-62835771D02*
X14261905Y-62788152D01*
X14261905Y-62788152D02*
X14214286Y-62692914D01*
X14214286Y-62692914D02*
X14214286Y-62645295D01*
X14214286Y-62645295D02*
X14261905Y-62550057D01*
X14261905Y-62550057D02*
X14309524Y-62502438D01*
X14309524Y-62502438D02*
X14404762Y-62454819D01*
X14404762Y-62454819D02*
X14595238Y-62454819D01*
X14595238Y-62454819D02*
X14690476Y-62502438D01*
X14690476Y-62502438D02*
X14738095Y-62550057D01*
X14738095Y-62550057D02*
X14785714Y-62645295D01*
X14785714Y-62645295D02*
X14785714Y-62692914D01*
X14785714Y-62692914D02*
X14738095Y-62788152D01*
X14738095Y-62788152D02*
X14690476Y-62835771D01*
X14690476Y-62835771D02*
X14595238Y-62883390D01*
X14595238Y-62883390D02*
X14404762Y-62883390D01*
X14404762Y-62883390D02*
X14309524Y-62931009D01*
X14309524Y-62931009D02*
X14261905Y-62978628D01*
X14261905Y-62978628D02*
X14214286Y-63073866D01*
X14214286Y-63073866D02*
X14214286Y-63264342D01*
X14214286Y-63264342D02*
X14261905Y-63359580D01*
X14261905Y-63359580D02*
X14309524Y-63407200D01*
X14309524Y-63407200D02*
X14404762Y-63454819D01*
X14404762Y-63454819D02*
X14595238Y-63454819D01*
X14595238Y-63454819D02*
X14690476Y-63407200D01*
X14690476Y-63407200D02*
X14738095Y-63359580D01*
X14738095Y-63359580D02*
X14785714Y-63264342D01*
X14785714Y-63264342D02*
X14785714Y-63073866D01*
X14785714Y-63073866D02*
X14738095Y-62978628D01*
X14738095Y-62978628D02*
X14690476Y-62931009D01*
X14690476Y-62931009D02*
X14595238Y-62883390D01*
X8554819Y-47083333D02*
X9269104Y-47083333D01*
X9269104Y-47083333D02*
X9411961Y-47130952D01*
X9411961Y-47130952D02*
X9507200Y-47226190D01*
X9507200Y-47226190D02*
X9554819Y-47369047D01*
X9554819Y-47369047D02*
X9554819Y-47464285D01*
X9554819Y-46083333D02*
X9554819Y-46654761D01*
X9554819Y-46369047D02*
X8554819Y-46369047D01*
X8554819Y-46369047D02*
X8697676Y-46464285D01*
X8697676Y-46464285D02*
X8792914Y-46559523D01*
X8792914Y-46559523D02*
X8840533Y-46654761D01*
X4921666Y-80209819D02*
X4921666Y-80924104D01*
X4921666Y-80924104D02*
X4874047Y-81066961D01*
X4874047Y-81066961D02*
X4778809Y-81162200D01*
X4778809Y-81162200D02*
X4635952Y-81209819D01*
X4635952Y-81209819D02*
X4540714Y-81209819D01*
X5350238Y-80305057D02*
X5397857Y-80257438D01*
X5397857Y-80257438D02*
X5493095Y-80209819D01*
X5493095Y-80209819D02*
X5731190Y-80209819D01*
X5731190Y-80209819D02*
X5826428Y-80257438D01*
X5826428Y-80257438D02*
X5874047Y-80305057D01*
X5874047Y-80305057D02*
X5921666Y-80400295D01*
X5921666Y-80400295D02*
X5921666Y-80495533D01*
X5921666Y-80495533D02*
X5874047Y-80638390D01*
X5874047Y-80638390D02*
X5302619Y-81209819D01*
X5302619Y-81209819D02*
X5921666Y-81209819D01*
D11*
X1395115Y-84090533D02*
X633211Y-84090533D01*
X1014163Y-83709580D02*
X1014163Y-84471485D01*
D10*
X2454819Y-10166666D02*
X1978628Y-10499999D01*
X2454819Y-10738094D02*
X1454819Y-10738094D01*
X1454819Y-10738094D02*
X1454819Y-10357142D01*
X1454819Y-10357142D02*
X1502438Y-10261904D01*
X1502438Y-10261904D02*
X1550057Y-10214285D01*
X1550057Y-10214285D02*
X1645295Y-10166666D01*
X1645295Y-10166666D02*
X1788152Y-10166666D01*
X1788152Y-10166666D02*
X1883390Y-10214285D01*
X1883390Y-10214285D02*
X1931009Y-10261904D01*
X1931009Y-10261904D02*
X1978628Y-10357142D01*
X1978628Y-10357142D02*
X1978628Y-10738094D01*
X1454819Y-9261904D02*
X1454819Y-9738094D01*
X1454819Y-9738094D02*
X1931009Y-9785713D01*
X1931009Y-9785713D02*
X1883390Y-9738094D01*
X1883390Y-9738094D02*
X1835771Y-9642856D01*
X1835771Y-9642856D02*
X1835771Y-9404761D01*
X1835771Y-9404761D02*
X1883390Y-9309523D01*
X1883390Y-9309523D02*
X1931009Y-9261904D01*
X1931009Y-9261904D02*
X2026247Y-9214285D01*
X2026247Y-9214285D02*
X2264342Y-9214285D01*
X2264342Y-9214285D02*
X2359580Y-9261904D01*
X2359580Y-9261904D02*
X2407200Y-9309523D01*
X2407200Y-9309523D02*
X2454819Y-9404761D01*
X2454819Y-9404761D02*
X2454819Y-9642856D01*
X2454819Y-9642856D02*
X2407200Y-9738094D01*
X2407200Y-9738094D02*
X2359580Y-9785713D01*
X12333333Y-88954819D02*
X12000000Y-88478628D01*
X11761905Y-88954819D02*
X11761905Y-87954819D01*
X11761905Y-87954819D02*
X12142857Y-87954819D01*
X12142857Y-87954819D02*
X12238095Y-88002438D01*
X12238095Y-88002438D02*
X12285714Y-88050057D01*
X12285714Y-88050057D02*
X12333333Y-88145295D01*
X12333333Y-88145295D02*
X12333333Y-88288152D01*
X12333333Y-88288152D02*
X12285714Y-88383390D01*
X12285714Y-88383390D02*
X12238095Y-88431009D01*
X12238095Y-88431009D02*
X12142857Y-88478628D01*
X12142857Y-88478628D02*
X11761905Y-88478628D01*
X13285714Y-88954819D02*
X12714286Y-88954819D01*
X13000000Y-88954819D02*
X13000000Y-87954819D01*
X13000000Y-87954819D02*
X12904762Y-88097676D01*
X12904762Y-88097676D02*
X12809524Y-88192914D01*
X12809524Y-88192914D02*
X12714286Y-88240533D01*
X9738095Y-23704819D02*
X9738095Y-24514342D01*
X9738095Y-24514342D02*
X9785714Y-24609580D01*
X9785714Y-24609580D02*
X9833333Y-24657200D01*
X9833333Y-24657200D02*
X9928571Y-24704819D01*
X9928571Y-24704819D02*
X10119047Y-24704819D01*
X10119047Y-24704819D02*
X10214285Y-24657200D01*
X10214285Y-24657200D02*
X10261904Y-24609580D01*
X10261904Y-24609580D02*
X10309523Y-24514342D01*
X10309523Y-24514342D02*
X10309523Y-23704819D01*
X11309523Y-24704819D02*
X10738095Y-24704819D01*
X11023809Y-24704819D02*
X11023809Y-23704819D01*
X11023809Y-23704819D02*
X10928571Y-23847676D01*
X10928571Y-23847676D02*
X10833333Y-23942914D01*
X10833333Y-23942914D02*
X10738095Y-23990533D01*
X8304819Y-85666666D02*
X7828628Y-85999999D01*
X8304819Y-86238094D02*
X7304819Y-86238094D01*
X7304819Y-86238094D02*
X7304819Y-85857142D01*
X7304819Y-85857142D02*
X7352438Y-85761904D01*
X7352438Y-85761904D02*
X7400057Y-85714285D01*
X7400057Y-85714285D02*
X7495295Y-85666666D01*
X7495295Y-85666666D02*
X7638152Y-85666666D01*
X7638152Y-85666666D02*
X7733390Y-85714285D01*
X7733390Y-85714285D02*
X7781009Y-85761904D01*
X7781009Y-85761904D02*
X7828628Y-85857142D01*
X7828628Y-85857142D02*
X7828628Y-86238094D01*
X7400057Y-85285713D02*
X7352438Y-85238094D01*
X7352438Y-85238094D02*
X7304819Y-85142856D01*
X7304819Y-85142856D02*
X7304819Y-84904761D01*
X7304819Y-84904761D02*
X7352438Y-84809523D01*
X7352438Y-84809523D02*
X7400057Y-84761904D01*
X7400057Y-84761904D02*
X7495295Y-84714285D01*
X7495295Y-84714285D02*
X7590533Y-84714285D01*
X7590533Y-84714285D02*
X7733390Y-84761904D01*
X7733390Y-84761904D02*
X8304819Y-85333332D01*
X8304819Y-85333332D02*
X8304819Y-84714285D01*
X2454819Y-20166666D02*
X1978628Y-20499999D01*
X2454819Y-20738094D02*
X1454819Y-20738094D01*
X1454819Y-20738094D02*
X1454819Y-20357142D01*
X1454819Y-20357142D02*
X1502438Y-20261904D01*
X1502438Y-20261904D02*
X1550057Y-20214285D01*
X1550057Y-20214285D02*
X1645295Y-20166666D01*
X1645295Y-20166666D02*
X1788152Y-20166666D01*
X1788152Y-20166666D02*
X1883390Y-20214285D01*
X1883390Y-20214285D02*
X1931009Y-20261904D01*
X1931009Y-20261904D02*
X1978628Y-20357142D01*
X1978628Y-20357142D02*
X1978628Y-20738094D01*
X1454819Y-19309523D02*
X1454819Y-19499999D01*
X1454819Y-19499999D02*
X1502438Y-19595237D01*
X1502438Y-19595237D02*
X1550057Y-19642856D01*
X1550057Y-19642856D02*
X1692914Y-19738094D01*
X1692914Y-19738094D02*
X1883390Y-19785713D01*
X1883390Y-19785713D02*
X2264342Y-19785713D01*
X2264342Y-19785713D02*
X2359580Y-19738094D01*
X2359580Y-19738094D02*
X2407200Y-19690475D01*
X2407200Y-19690475D02*
X2454819Y-19595237D01*
X2454819Y-19595237D02*
X2454819Y-19404761D01*
X2454819Y-19404761D02*
X2407200Y-19309523D01*
X2407200Y-19309523D02*
X2359580Y-19261904D01*
X2359580Y-19261904D02*
X2264342Y-19214285D01*
X2264342Y-19214285D02*
X2026247Y-19214285D01*
X2026247Y-19214285D02*
X1931009Y-19261904D01*
X1931009Y-19261904D02*
X1883390Y-19309523D01*
X1883390Y-19309523D02*
X1835771Y-19404761D01*
X1835771Y-19404761D02*
X1835771Y-19595237D01*
X1835771Y-19595237D02*
X1883390Y-19690475D01*
X1883390Y-19690475D02*
X1931009Y-19738094D01*
X1931009Y-19738094D02*
X2026247Y-19785713D01*
X14988095Y-40954819D02*
X14988095Y-41764342D01*
X14988095Y-41764342D02*
X15035714Y-41859580D01*
X15035714Y-41859580D02*
X15083333Y-41907200D01*
X15083333Y-41907200D02*
X15178571Y-41954819D01*
X15178571Y-41954819D02*
X15369047Y-41954819D01*
X15369047Y-41954819D02*
X15464285Y-41907200D01*
X15464285Y-41907200D02*
X15511904Y-41859580D01*
X15511904Y-41859580D02*
X15559523Y-41764342D01*
X15559523Y-41764342D02*
X15559523Y-40954819D01*
X15988095Y-41050057D02*
X16035714Y-41002438D01*
X16035714Y-41002438D02*
X16130952Y-40954819D01*
X16130952Y-40954819D02*
X16369047Y-40954819D01*
X16369047Y-40954819D02*
X16464285Y-41002438D01*
X16464285Y-41002438D02*
X16511904Y-41050057D01*
X16511904Y-41050057D02*
X16559523Y-41145295D01*
X16559523Y-41145295D02*
X16559523Y-41240533D01*
X16559523Y-41240533D02*
X16511904Y-41383390D01*
X16511904Y-41383390D02*
X15940476Y-41954819D01*
X15940476Y-41954819D02*
X16559523Y-41954819D01*
D11*
X4867824Y-39857258D02*
X4534491Y-39381067D01*
X4296396Y-39857258D02*
X4296396Y-38857258D01*
X4296396Y-38857258D02*
X4677348Y-38857258D01*
X4677348Y-38857258D02*
X4772586Y-38904877D01*
X4772586Y-38904877D02*
X4820205Y-38952496D01*
X4820205Y-38952496D02*
X4867824Y-39047734D01*
X4867824Y-39047734D02*
X4867824Y-39190591D01*
X4867824Y-39190591D02*
X4820205Y-39285829D01*
X4820205Y-39285829D02*
X4772586Y-39333448D01*
X4772586Y-39333448D02*
X4677348Y-39381067D01*
X4677348Y-39381067D02*
X4296396Y-39381067D01*
X5153539Y-38857258D02*
X5486872Y-39857258D01*
X5486872Y-39857258D02*
X5820205Y-38857258D01*
X6677348Y-39857258D02*
X6105920Y-39857258D01*
X6391634Y-39857258D02*
X6391634Y-38857258D01*
X6391634Y-38857258D02*
X6296396Y-39000115D01*
X6296396Y-39000115D02*
X6201158Y-39095353D01*
X6201158Y-39095353D02*
X6105920Y-39142972D01*
D10*
X1718268Y-27306881D02*
X1384935Y-26830690D01*
X1146840Y-27306881D02*
X1146840Y-26306881D01*
X1146840Y-26306881D02*
X1527792Y-26306881D01*
X1527792Y-26306881D02*
X1623030Y-26354500D01*
X1623030Y-26354500D02*
X1670649Y-26402119D01*
X1670649Y-26402119D02*
X1718268Y-26497357D01*
X1718268Y-26497357D02*
X1718268Y-26640214D01*
X1718268Y-26640214D02*
X1670649Y-26735452D01*
X1670649Y-26735452D02*
X1623030Y-26783071D01*
X1623030Y-26783071D02*
X1527792Y-26830690D01*
X1527792Y-26830690D02*
X1146840Y-26830690D01*
X2051602Y-26306881D02*
X2670649Y-26306881D01*
X2670649Y-26306881D02*
X2337316Y-26687833D01*
X2337316Y-26687833D02*
X2480173Y-26687833D01*
X2480173Y-26687833D02*
X2575411Y-26735452D01*
X2575411Y-26735452D02*
X2623030Y-26783071D01*
X2623030Y-26783071D02*
X2670649Y-26878309D01*
X2670649Y-26878309D02*
X2670649Y-27116404D01*
X2670649Y-27116404D02*
X2623030Y-27211642D01*
X2623030Y-27211642D02*
X2575411Y-27259262D01*
X2575411Y-27259262D02*
X2480173Y-27306881D01*
X2480173Y-27306881D02*
X2194459Y-27306881D01*
X2194459Y-27306881D02*
X2099221Y-27259262D01*
X2099221Y-27259262D02*
X2051602Y-27211642D01*
X13238095Y-78704819D02*
X13238095Y-79514342D01*
X13238095Y-79514342D02*
X13285714Y-79609580D01*
X13285714Y-79609580D02*
X13333333Y-79657200D01*
X13333333Y-79657200D02*
X13428571Y-79704819D01*
X13428571Y-79704819D02*
X13619047Y-79704819D01*
X13619047Y-79704819D02*
X13714285Y-79657200D01*
X13714285Y-79657200D02*
X13761904Y-79609580D01*
X13761904Y-79609580D02*
X13809523Y-79514342D01*
X13809523Y-79514342D02*
X13809523Y-78704819D01*
X14714285Y-79038152D02*
X14714285Y-79704819D01*
X14476190Y-78657200D02*
X14238095Y-79371485D01*
X14238095Y-79371485D02*
X14857142Y-79371485D01*
X14833333Y-22609580D02*
X14785714Y-22657200D01*
X14785714Y-22657200D02*
X14642857Y-22704819D01*
X14642857Y-22704819D02*
X14547619Y-22704819D01*
X14547619Y-22704819D02*
X14404762Y-22657200D01*
X14404762Y-22657200D02*
X14309524Y-22561961D01*
X14309524Y-22561961D02*
X14261905Y-22466723D01*
X14261905Y-22466723D02*
X14214286Y-22276247D01*
X14214286Y-22276247D02*
X14214286Y-22133390D01*
X14214286Y-22133390D02*
X14261905Y-21942914D01*
X14261905Y-21942914D02*
X14309524Y-21847676D01*
X14309524Y-21847676D02*
X14404762Y-21752438D01*
X14404762Y-21752438D02*
X14547619Y-21704819D01*
X14547619Y-21704819D02*
X14642857Y-21704819D01*
X14642857Y-21704819D02*
X14785714Y-21752438D01*
X14785714Y-21752438D02*
X14833333Y-21800057D01*
X15785714Y-22704819D02*
X15214286Y-22704819D01*
X15500000Y-22704819D02*
X15500000Y-21704819D01*
X15500000Y-21704819D02*
X15404762Y-21847676D01*
X15404762Y-21847676D02*
X15309524Y-21942914D01*
X15309524Y-21942914D02*
X15214286Y-21990533D01*
X11833333Y-32609580D02*
X11785714Y-32657200D01*
X11785714Y-32657200D02*
X11642857Y-32704819D01*
X11642857Y-32704819D02*
X11547619Y-32704819D01*
X11547619Y-32704819D02*
X11404762Y-32657200D01*
X11404762Y-32657200D02*
X11309524Y-32561961D01*
X11309524Y-32561961D02*
X11261905Y-32466723D01*
X11261905Y-32466723D02*
X11214286Y-32276247D01*
X11214286Y-32276247D02*
X11214286Y-32133390D01*
X11214286Y-32133390D02*
X11261905Y-31942914D01*
X11261905Y-31942914D02*
X11309524Y-31847676D01*
X11309524Y-31847676D02*
X11404762Y-31752438D01*
X11404762Y-31752438D02*
X11547619Y-31704819D01*
X11547619Y-31704819D02*
X11642857Y-31704819D01*
X11642857Y-31704819D02*
X11785714Y-31752438D01*
X11785714Y-31752438D02*
X11833333Y-31800057D01*
X12738095Y-31704819D02*
X12261905Y-31704819D01*
X12261905Y-31704819D02*
X12214286Y-32181009D01*
X12214286Y-32181009D02*
X12261905Y-32133390D01*
X12261905Y-32133390D02*
X12357143Y-32085771D01*
X12357143Y-32085771D02*
X12595238Y-32085771D01*
X12595238Y-32085771D02*
X12690476Y-32133390D01*
X12690476Y-32133390D02*
X12738095Y-32181009D01*
X12738095Y-32181009D02*
X12785714Y-32276247D01*
X12785714Y-32276247D02*
X12785714Y-32514342D01*
X12785714Y-32514342D02*
X12738095Y-32609580D01*
X12738095Y-32609580D02*
X12690476Y-32657200D01*
X12690476Y-32657200D02*
X12595238Y-32704819D01*
X12595238Y-32704819D02*
X12357143Y-32704819D01*
X12357143Y-32704819D02*
X12261905Y-32657200D01*
X12261905Y-32657200D02*
X12214286Y-32609580D01*
X6904761Y-93300057D02*
X6809523Y-93252438D01*
X6809523Y-93252438D02*
X6714285Y-93157200D01*
X6714285Y-93157200D02*
X6571428Y-93014342D01*
X6571428Y-93014342D02*
X6476190Y-92966723D01*
X6476190Y-92966723D02*
X6380952Y-92966723D01*
X6428571Y-93204819D02*
X6333333Y-93157200D01*
X6333333Y-93157200D02*
X6238095Y-93061961D01*
X6238095Y-93061961D02*
X6190476Y-92871485D01*
X6190476Y-92871485D02*
X6190476Y-92538152D01*
X6190476Y-92538152D02*
X6238095Y-92347676D01*
X6238095Y-92347676D02*
X6333333Y-92252438D01*
X6333333Y-92252438D02*
X6428571Y-92204819D01*
X6428571Y-92204819D02*
X6619047Y-92204819D01*
X6619047Y-92204819D02*
X6714285Y-92252438D01*
X6714285Y-92252438D02*
X6809523Y-92347676D01*
X6809523Y-92347676D02*
X6857142Y-92538152D01*
X6857142Y-92538152D02*
X6857142Y-92871485D01*
X6857142Y-92871485D02*
X6809523Y-93061961D01*
X6809523Y-93061961D02*
X6714285Y-93157200D01*
X6714285Y-93157200D02*
X6619047Y-93204819D01*
X6619047Y-93204819D02*
X6428571Y-93204819D01*
X7809523Y-93204819D02*
X7238095Y-93204819D01*
X7523809Y-93204819D02*
X7523809Y-92204819D01*
X7523809Y-92204819D02*
X7428571Y-92347676D01*
X7428571Y-92347676D02*
X7333333Y-92442914D01*
X7333333Y-92442914D02*
X7238095Y-92490533D01*
X1583333Y-88954819D02*
X1250000Y-88478628D01*
X1011905Y-88954819D02*
X1011905Y-87954819D01*
X1011905Y-87954819D02*
X1392857Y-87954819D01*
X1392857Y-87954819D02*
X1488095Y-88002438D01*
X1488095Y-88002438D02*
X1535714Y-88050057D01*
X1535714Y-88050057D02*
X1583333Y-88145295D01*
X1583333Y-88145295D02*
X1583333Y-88288152D01*
X1583333Y-88288152D02*
X1535714Y-88383390D01*
X1535714Y-88383390D02*
X1488095Y-88431009D01*
X1488095Y-88431009D02*
X1392857Y-88478628D01*
X1392857Y-88478628D02*
X1011905Y-88478628D01*
X2440476Y-88288152D02*
X2440476Y-88954819D01*
X2202381Y-87907200D02*
X1964286Y-88621485D01*
X1964286Y-88621485D02*
X2583333Y-88621485D01*
X16454819Y-68011904D02*
X17264342Y-68011904D01*
X17264342Y-68011904D02*
X17359580Y-67964285D01*
X17359580Y-67964285D02*
X17407200Y-67916666D01*
X17407200Y-67916666D02*
X17454819Y-67821428D01*
X17454819Y-67821428D02*
X17454819Y-67630952D01*
X17454819Y-67630952D02*
X17407200Y-67535714D01*
X17407200Y-67535714D02*
X17359580Y-67488095D01*
X17359580Y-67488095D02*
X17264342Y-67440476D01*
X17264342Y-67440476D02*
X16454819Y-67440476D01*
X16454819Y-66488095D02*
X16454819Y-66964285D01*
X16454819Y-66964285D02*
X16931009Y-67011904D01*
X16931009Y-67011904D02*
X16883390Y-66964285D01*
X16883390Y-66964285D02*
X16835771Y-66869047D01*
X16835771Y-66869047D02*
X16835771Y-66630952D01*
X16835771Y-66630952D02*
X16883390Y-66535714D01*
X16883390Y-66535714D02*
X16931009Y-66488095D01*
X16931009Y-66488095D02*
X17026247Y-66440476D01*
X17026247Y-66440476D02*
X17264342Y-66440476D01*
X17264342Y-66440476D02*
X17359580Y-66488095D01*
X17359580Y-66488095D02*
X17407200Y-66535714D01*
X17407200Y-66535714D02*
X17454819Y-66630952D01*
X17454819Y-66630952D02*
X17454819Y-66869047D01*
X17454819Y-66869047D02*
X17407200Y-66964285D01*
X17407200Y-66964285D02*
X17359580Y-67011904D01*
X9238095Y-40204819D02*
X9238095Y-41014342D01*
X9238095Y-41014342D02*
X9285714Y-41109580D01*
X9285714Y-41109580D02*
X9333333Y-41157200D01*
X9333333Y-41157200D02*
X9428571Y-41204819D01*
X9428571Y-41204819D02*
X9619047Y-41204819D01*
X9619047Y-41204819D02*
X9714285Y-41157200D01*
X9714285Y-41157200D02*
X9761904Y-41109580D01*
X9761904Y-41109580D02*
X9809523Y-41014342D01*
X9809523Y-41014342D02*
X9809523Y-40204819D01*
X10190476Y-40204819D02*
X10809523Y-40204819D01*
X10809523Y-40204819D02*
X10476190Y-40585771D01*
X10476190Y-40585771D02*
X10619047Y-40585771D01*
X10619047Y-40585771D02*
X10714285Y-40633390D01*
X10714285Y-40633390D02*
X10761904Y-40681009D01*
X10761904Y-40681009D02*
X10809523Y-40776247D01*
X10809523Y-40776247D02*
X10809523Y-41014342D01*
X10809523Y-41014342D02*
X10761904Y-41109580D01*
X10761904Y-41109580D02*
X10714285Y-41157200D01*
X10714285Y-41157200D02*
X10619047Y-41204819D01*
X10619047Y-41204819D02*
X10333333Y-41204819D01*
X10333333Y-41204819D02*
X10238095Y-41157200D01*
X10238095Y-41157200D02*
X10190476Y-41109580D01*
X8359580Y-25916666D02*
X8407200Y-25964285D01*
X8407200Y-25964285D02*
X8454819Y-26107142D01*
X8454819Y-26107142D02*
X8454819Y-26202380D01*
X8454819Y-26202380D02*
X8407200Y-26345237D01*
X8407200Y-26345237D02*
X8311961Y-26440475D01*
X8311961Y-26440475D02*
X8216723Y-26488094D01*
X8216723Y-26488094D02*
X8026247Y-26535713D01*
X8026247Y-26535713D02*
X7883390Y-26535713D01*
X7883390Y-26535713D02*
X7692914Y-26488094D01*
X7692914Y-26488094D02*
X7597676Y-26440475D01*
X7597676Y-26440475D02*
X7502438Y-26345237D01*
X7502438Y-26345237D02*
X7454819Y-26202380D01*
X7454819Y-26202380D02*
X7454819Y-26107142D01*
X7454819Y-26107142D02*
X7502438Y-25964285D01*
X7502438Y-25964285D02*
X7550057Y-25916666D01*
X7550057Y-25535713D02*
X7502438Y-25488094D01*
X7502438Y-25488094D02*
X7454819Y-25392856D01*
X7454819Y-25392856D02*
X7454819Y-25154761D01*
X7454819Y-25154761D02*
X7502438Y-25059523D01*
X7502438Y-25059523D02*
X7550057Y-25011904D01*
X7550057Y-25011904D02*
X7645295Y-24964285D01*
X7645295Y-24964285D02*
X7740533Y-24964285D01*
X7740533Y-24964285D02*
X7883390Y-25011904D01*
X7883390Y-25011904D02*
X8454819Y-25583332D01*
X8454819Y-25583332D02*
X8454819Y-24964285D01*
X16103467Y-34052999D02*
X15770134Y-33576808D01*
X15532039Y-34052999D02*
X15532039Y-33052999D01*
X15532039Y-33052999D02*
X15912991Y-33052999D01*
X15912991Y-33052999D02*
X16008229Y-33100618D01*
X16008229Y-33100618D02*
X16055848Y-33148237D01*
X16055848Y-33148237D02*
X16103467Y-33243475D01*
X16103467Y-33243475D02*
X16103467Y-33386332D01*
X16103467Y-33386332D02*
X16055848Y-33481570D01*
X16055848Y-33481570D02*
X16008229Y-33529189D01*
X16008229Y-33529189D02*
X15912991Y-33576808D01*
X15912991Y-33576808D02*
X15532039Y-33576808D01*
X16436801Y-33052999D02*
X17103467Y-33052999D01*
X17103467Y-33052999D02*
X16674896Y-34052999D01*
X9833333Y-51359580D02*
X9785714Y-51407200D01*
X9785714Y-51407200D02*
X9642857Y-51454819D01*
X9642857Y-51454819D02*
X9547619Y-51454819D01*
X9547619Y-51454819D02*
X9404762Y-51407200D01*
X9404762Y-51407200D02*
X9309524Y-51311961D01*
X9309524Y-51311961D02*
X9261905Y-51216723D01*
X9261905Y-51216723D02*
X9214286Y-51026247D01*
X9214286Y-51026247D02*
X9214286Y-50883390D01*
X9214286Y-50883390D02*
X9261905Y-50692914D01*
X9261905Y-50692914D02*
X9309524Y-50597676D01*
X9309524Y-50597676D02*
X9404762Y-50502438D01*
X9404762Y-50502438D02*
X9547619Y-50454819D01*
X9547619Y-50454819D02*
X9642857Y-50454819D01*
X9642857Y-50454819D02*
X9785714Y-50502438D01*
X9785714Y-50502438D02*
X9833333Y-50550057D01*
X10166667Y-50454819D02*
X10785714Y-50454819D01*
X10785714Y-50454819D02*
X10452381Y-50835771D01*
X10452381Y-50835771D02*
X10595238Y-50835771D01*
X10595238Y-50835771D02*
X10690476Y-50883390D01*
X10690476Y-50883390D02*
X10738095Y-50931009D01*
X10738095Y-50931009D02*
X10785714Y-51026247D01*
X10785714Y-51026247D02*
X10785714Y-51264342D01*
X10785714Y-51264342D02*
X10738095Y-51359580D01*
X10738095Y-51359580D02*
X10690476Y-51407200D01*
X10690476Y-51407200D02*
X10595238Y-51454819D01*
X10595238Y-51454819D02*
X10309524Y-51454819D01*
X10309524Y-51454819D02*
X10214286Y-51407200D01*
X10214286Y-51407200D02*
X10166667Y-51359580D01*
%TO.C,R8*%
D12*
X13227064Y-52765000D02*
X12772936Y-52765000D01*
X13227064Y-54235000D02*
X12772936Y-54235000D01*
%TO.C,C7*%
X10765000Y-67473752D02*
X10765000Y-66951248D01*
X12235000Y-67473752D02*
X12235000Y-66951248D01*
%TO.C,C8*%
X14761252Y-63765000D02*
X14238748Y-63765000D01*
X14761252Y-65235000D02*
X14238748Y-65235000D01*
%TO.C,J1*%
X1990000Y-41670000D02*
X2990000Y-41670000D01*
X1990000Y-41920000D02*
X2990000Y-41920000D01*
X1990000Y-51580000D02*
X2990000Y-51580000D01*
X2990000Y-41670000D02*
X2990000Y-51830000D01*
X2990000Y-41670000D02*
X3520000Y-41920000D01*
X2990000Y-51830000D02*
X1990000Y-51830000D01*
X3520000Y-41920000D02*
X3520000Y-51580000D01*
X3520000Y-51580000D02*
X2990000Y-51830000D01*
X6980000Y-40000000D02*
X2980000Y-40000000D01*
X7410000Y-40870000D02*
X7410000Y-42470000D01*
X7410000Y-42470000D02*
X8010000Y-42470000D01*
X7410000Y-43410000D02*
X7410000Y-45010000D01*
X7410000Y-45010000D02*
X8010000Y-45010000D01*
X7410000Y-45950000D02*
X7410000Y-47550000D01*
X7410000Y-47550000D02*
X8010000Y-47550000D01*
X7410000Y-48490000D02*
X7410000Y-50090000D01*
X7410000Y-50090000D02*
X8010000Y-50090000D01*
X7410000Y-51030000D02*
X7410000Y-52630000D01*
X7410000Y-52630000D02*
X8010000Y-52630000D01*
X8010000Y-40870000D02*
X7410000Y-40870000D01*
X8010000Y-43410000D02*
X7410000Y-43410000D01*
X8010000Y-45950000D02*
X7410000Y-45950000D01*
X8010000Y-48490000D02*
X7410000Y-48490000D01*
X8010000Y-51030000D02*
X7410000Y-51030000D01*
X1990000Y-40290000D02*
X8010000Y-40290000D01*
X8010000Y-53210000D01*
X1990000Y-53210000D01*
X1990000Y-40290000D01*
%TO.C,J2*%
D11*
X527690Y-65849615D02*
X527690Y-72914000D01*
X527690Y-65849615D02*
X9961737Y-65849615D01*
X527690Y-83274567D02*
X527690Y-76216000D01*
D12*
X2605000Y-79755000D02*
X2605000Y-69375000D01*
X5255000Y-77105000D02*
X5255000Y-79755000D01*
X5255000Y-79755000D02*
X2605000Y-79755000D01*
X7905000Y-69375000D02*
X2605000Y-69375000D01*
X7905000Y-77105000D02*
X5255000Y-77105000D01*
X7905000Y-77105000D02*
X7905000Y-69375000D01*
X7905000Y-78375000D02*
X7905000Y-79755000D01*
X7905000Y-79755000D02*
X6525000Y-79755000D01*
D11*
X9961737Y-65849615D02*
X9961737Y-83274567D01*
X9961737Y-83274567D02*
X527690Y-83274567D01*
%TO.C,R5*%
D12*
X1265000Y-6772936D02*
X1265000Y-7227064D01*
X2735000Y-6772936D02*
X2735000Y-7227064D01*
%TO.C,R1*%
X9272936Y-87765000D02*
X9727064Y-87765000D01*
X9272936Y-89235000D02*
X9727064Y-89235000D01*
%TO.C,U1*%
X10940000Y-25190000D02*
X15060000Y-25190000D01*
X10940000Y-25285000D02*
X10940000Y-25190000D01*
X10940000Y-30310000D02*
X10940000Y-30215000D01*
X15060000Y-25190000D02*
X15060000Y-25285000D01*
X15060000Y-30215000D02*
X15060000Y-30310000D01*
X15060000Y-30310000D02*
X10940000Y-30310000D01*
X10400000Y-25280000D02*
X10160000Y-24950000D01*
X10640000Y-24950000D01*
X10400000Y-25280000D01*
G36*
X10400000Y-25280000D02*
G01*
X10160000Y-24950000D01*
X10640000Y-24950000D01*
X10400000Y-25280000D01*
G37*
%TO.C,R2*%
X8765000Y-85727064D02*
X8765000Y-85272936D01*
X10235000Y-85727064D02*
X10235000Y-85272936D01*
%TO.C,R6*%
X1265000Y-16772936D02*
X1265000Y-17227064D01*
X2735000Y-16772936D02*
X2735000Y-17227064D01*
%TO.C,U2*%
X9865000Y-48310000D02*
X9865000Y-43690000D01*
X16635000Y-43690000D02*
X16635000Y-48310000D01*
X10320000Y-49860000D02*
X10560000Y-50190000D01*
X10080000Y-50190000D01*
X10320000Y-49860000D01*
G36*
X10560000Y-50190000D02*
G01*
X10080000Y-50190000D01*
X10320000Y-49860000D01*
X10560000Y-50190000D01*
G37*
%TO.C,RV1*%
D11*
X1500000Y-28750000D02*
X6500000Y-28750000D01*
X6500000Y-38750000D01*
X1500000Y-38750000D01*
X1500000Y-28750000D01*
X2750000Y-38000000D02*
G75*
G02*
X1750000Y-38000000I-500000J0D01*
G01*
X1750000Y-38000000D02*
G75*
G02*
X2750000Y-38000000I500000J0D01*
G01*
%TO.C,R3*%
D12*
X4272936Y-26015000D02*
X4727064Y-26015000D01*
X4272936Y-27485000D02*
X4727064Y-27485000D01*
%TO.C,U4*%
X10590000Y-71840000D02*
X11850000Y-71840000D01*
X10590000Y-75600000D02*
X10590000Y-71840000D01*
X17410000Y-71840000D02*
X16150000Y-71840000D01*
X17410000Y-75600000D02*
X17410000Y-71840000D01*
X10690000Y-76880000D02*
X10360000Y-77120000D01*
X10360000Y-76640000D01*
X10690000Y-76880000D01*
G36*
X10690000Y-76880000D02*
G01*
X10360000Y-77120000D01*
X10360000Y-76640000D01*
X10690000Y-76880000D01*
G37*
%TO.C,C1*%
X15261252Y-23015000D02*
X14738748Y-23015000D01*
X15261252Y-24485000D02*
X14738748Y-24485000D01*
%TO.C,C5*%
X9261252Y-31515000D02*
X8738748Y-31515000D01*
X9261252Y-32985000D02*
X8738748Y-32985000D01*
%TO.C,Q1*%
X8240000Y-92690000D02*
X9760000Y-92690000D01*
X8240000Y-93690000D02*
X8240000Y-92690000D01*
X8240000Y-95810000D02*
X8240000Y-94810000D01*
X9760000Y-92690000D02*
X9760000Y-92740000D01*
X9760000Y-93860000D02*
X9760000Y-94640000D01*
X9760000Y-95760000D02*
X9760000Y-95810000D01*
X9760000Y-95810000D02*
X8240000Y-95810000D01*
X10300000Y-94630000D02*
X10060000Y-94300000D01*
X10540000Y-94300000D01*
X10300000Y-94630000D01*
G36*
X10300000Y-94630000D02*
G01*
X10060000Y-94300000D01*
X10540000Y-94300000D01*
X10300000Y-94630000D01*
G37*
%TO.C,R4*%
X5022936Y-87765000D02*
X5477064Y-87765000D01*
X5022936Y-89235000D02*
X5477064Y-89235000D01*
%TO.C,U5*%
X13740000Y-65690000D02*
X15260000Y-65690000D01*
X13740000Y-66690000D02*
X13740000Y-65690000D01*
X13740000Y-68810000D02*
X13740000Y-67810000D01*
X15260000Y-65690000D02*
X15260000Y-65740000D01*
X15260000Y-66860000D02*
X15260000Y-67640000D01*
X15260000Y-68760000D02*
X15260000Y-68810000D01*
X15260000Y-68810000D02*
X13740000Y-68810000D01*
X15800000Y-67630000D02*
X15560000Y-67300000D01*
X16040000Y-67300000D01*
X15800000Y-67630000D01*
G36*
X15800000Y-67630000D02*
G01*
X15560000Y-67300000D01*
X16040000Y-67300000D01*
X15800000Y-67630000D01*
G37*
%TO.C,U3*%
X9240000Y-33540000D02*
X14760000Y-33540000D01*
X9240000Y-34285000D02*
X9240000Y-33540000D01*
X9240000Y-39960000D02*
X9240000Y-39215000D01*
X14760000Y-33540000D02*
X14760000Y-34285000D01*
X14760000Y-39215000D02*
X14760000Y-39960000D01*
X14760000Y-39960000D02*
X9240000Y-39960000D01*
X8500000Y-34280000D02*
X8160000Y-33810000D01*
X8840000Y-33810000D01*
X8500000Y-34280000D01*
G36*
X8500000Y-34280000D02*
G01*
X8160000Y-33810000D01*
X8840000Y-33810000D01*
X8500000Y-34280000D01*
G37*
%TO.C,C2*%
X7265000Y-29511252D02*
X7265000Y-28988748D01*
X8735000Y-29511252D02*
X8735000Y-28988748D01*
%TO.C,R7*%
X14772936Y-31490000D02*
X15227064Y-31490000D01*
X14772936Y-32960000D02*
X15227064Y-32960000D01*
%TO.C,C3*%
X12738748Y-50265000D02*
X13261252Y-50265000D01*
X12738748Y-51735000D02*
X13261252Y-51735000D01*
%TD*%
M02*
