%TF.GenerationSoftware,KiCad,Pcbnew,9.0.5*%
%TF.CreationDate,2025-10-05T20:18:26+02:00*%
%TF.ProjectId,11_fm_drum,31315f66-6d5f-4647-9275-6d2e6b696361,rev?*%
%TF.SameCoordinates,Original*%
%TF.FileFunction,Soldermask,Top*%
%TF.FilePolarity,Negative*%
%FSLAX46Y46*%
G04 Gerber Fmt 4.6, Leading zero omitted, Abs format (unit mm)*
G04 Created by KiCad (PCBNEW 9.0.5) date 2025-10-05 20:18:26*
%MOMM*%
%LPD*%
G01*
G04 APERTURE LIST*
G04 Aperture macros list*
%AMRoundRect*
0 Rectangle with rounded corners*
0 $1 Rounding radius*
0 $2 $3 $4 $5 $6 $7 $8 $9 X,Y pos of 4 corners*
0 Add a 4 corners polygon primitive as box body*
4,1,4,$2,$3,$4,$5,$6,$7,$8,$9,$2,$3,0*
0 Add four circle primitives for the rounded corners*
1,1,$1+$1,$2,$3*
1,1,$1+$1,$4,$5*
1,1,$1+$1,$6,$7*
1,1,$1+$1,$8,$9*
0 Add four rect primitives between the rounded corners*
20,1,$1+$1,$2,$3,$4,$5,0*
20,1,$1+$1,$4,$5,$6,$7,0*
20,1,$1+$1,$6,$7,$8,$9,0*
20,1,$1+$1,$8,$9,$2,$3,0*%
%AMHorizOval*
0 Thick line with rounded ends*
0 $1 width*
0 $2 $3 position (X,Y) of the first rounded end (center of the circle)*
0 $4 $5 position (X,Y) of the second rounded end (center of the circle)*
0 Add line between two ends*
20,1,$1,$2,$3,$4,$5,0*
0 Add two circle primitives to create the rounded ends*
1,1,$1,$2,$3*
1,1,$1,$4,$5*%
G04 Aperture macros list end*
%ADD10C,1.600000*%
%ADD11R,1.500000X1.050000*%
%ADD12O,1.500000X1.050000*%
%ADD13RoundRect,0.250000X-0.550000X-0.550000X0.550000X-0.550000X0.550000X0.550000X-0.550000X0.550000X0*%
%ADD14R,1.000000X1.000000*%
%ADD15R,1.050000X1.500000*%
%ADD16O,1.050000X1.500000*%
%ADD17C,2.000000*%
%ADD18RoundRect,0.250000X0.550000X0.550000X-0.550000X0.550000X-0.550000X-0.550000X0.550000X-0.550000X0*%
%ADD19R,1.700000X1.700000*%
%ADD20C,1.700000*%
%ADD21RoundRect,0.250000X-0.550000X0.550000X-0.550000X-0.550000X0.550000X-0.550000X0.550000X0.550000X0*%
%ADD22O,2.200000X4.000000*%
%ADD23O,4.000000X2.200000*%
%ADD24HorizOval,2.200000X0.625193X0.647406X-0.625193X-0.647406X0*%
G04 APERTURE END LIST*
D10*
%TO.C,R29*%
X124840000Y-65070000D03*
X135000000Y-65070000D03*
%TD*%
D11*
%TO.C,Q1*%
X153270000Y-130470000D03*
D12*
X153270000Y-129200000D03*
X153270000Y-127930000D03*
%TD*%
D13*
%TO.C,C2*%
X151264700Y-26164300D03*
D10*
X153764700Y-26164300D03*
%TD*%
%TO.C,R21*%
X187770000Y-71600000D03*
X187770000Y-81760000D03*
%TD*%
%TO.C,R41*%
X151430000Y-84415000D03*
X161590000Y-84415000D03*
%TD*%
D11*
%TO.C,Q13*%
X152000000Y-143000000D03*
D12*
X152000000Y-144270000D03*
X152000000Y-145540000D03*
%TD*%
D14*
%TO.C,TP4*%
X165971660Y-92538130D03*
%TD*%
D13*
%TO.C,D1*%
X125150000Y-100930000D03*
D10*
X132770000Y-100930000D03*
%TD*%
%TO.C,R33*%
X145770000Y-138010000D03*
X145770000Y-127850000D03*
%TD*%
%TO.C,R50*%
X149000000Y-53070000D03*
X138840000Y-53070000D03*
%TD*%
D15*
%TO.C,Q6*%
X130000000Y-73430000D03*
D16*
X131270000Y-73430000D03*
X132540000Y-73430000D03*
%TD*%
D13*
%TO.C,D4*%
X133070000Y-131930000D03*
D10*
X140690000Y-131930000D03*
%TD*%
%TO.C,C17*%
X151750000Y-68070000D03*
X151750000Y-63070000D03*
%TD*%
%TO.C,R6*%
X130610000Y-125930000D03*
X140770000Y-125930000D03*
%TD*%
D15*
%TO.C,Q11*%
X145230000Y-66430000D03*
D16*
X146500000Y-66430000D03*
X147770000Y-66430000D03*
%TD*%
D17*
%TO.C,C8*%
X148260000Y-73915000D03*
X148260000Y-78915000D03*
%TD*%
D10*
%TO.C,R10*%
X140850000Y-134930000D03*
X130690000Y-134930000D03*
%TD*%
%TO.C,C1*%
X123770000Y-114930000D03*
X123770000Y-109930000D03*
%TD*%
D17*
%TO.C,C7*%
X133270000Y-83430000D03*
X133270000Y-78430000D03*
%TD*%
D10*
%TO.C,R44*%
X149000000Y-56320000D03*
X138840000Y-56320000D03*
%TD*%
D14*
%TO.C,TP9*%
X167670554Y-68913886D03*
%TD*%
D17*
%TO.C,C10*%
X165270000Y-119930000D03*
X165270000Y-114930000D03*
%TD*%
D10*
%TO.C,R22*%
X135000000Y-50070000D03*
X124840000Y-50070000D03*
%TD*%
%TO.C,R37*%
X170270000Y-121660000D03*
X180430000Y-121660000D03*
%TD*%
%TO.C,R3*%
X134770000Y-94930000D03*
X124610000Y-94930000D03*
%TD*%
%TO.C,C11*%
X183020000Y-89680000D03*
X188020000Y-89680000D03*
%TD*%
%TO.C,R18*%
X152270000Y-98660000D03*
X162430000Y-98660000D03*
%TD*%
%TO.C,C15*%
X167960000Y-55680000D03*
X172960000Y-55680000D03*
%TD*%
D14*
%TO.C,TP7*%
X162000000Y-110000000D03*
%TD*%
D10*
%TO.C,R42*%
X165270000Y-111930000D03*
X175430000Y-111930000D03*
%TD*%
%TO.C,R34*%
X187770000Y-54100000D03*
X187770000Y-64260000D03*
%TD*%
%TO.C,R39*%
X138840000Y-59320000D03*
X149000000Y-59320000D03*
%TD*%
%TO.C,R43*%
X145860000Y-155680000D03*
X156020000Y-155680000D03*
%TD*%
D13*
%TO.C,C3*%
X160264700Y-26164300D03*
D10*
X162764700Y-26164300D03*
%TD*%
D13*
%TO.C,D2*%
X133150000Y-122930000D03*
D10*
X140770000Y-122930000D03*
%TD*%
D13*
%TO.C,D7*%
X155270000Y-92660000D03*
D10*
X162890000Y-92660000D03*
%TD*%
%TO.C,R4*%
X140930000Y-110930000D03*
X130770000Y-110930000D03*
%TD*%
%TO.C,R13*%
X169110000Y-96630000D03*
X179270000Y-96630000D03*
%TD*%
%TO.C,R31*%
X160520000Y-56930000D03*
X160520000Y-67090000D03*
%TD*%
%TO.C,R52*%
X152190000Y-137930000D03*
X162350000Y-137930000D03*
%TD*%
D13*
%TO.C,D3*%
X133070000Y-128930000D03*
D10*
X140690000Y-128930000D03*
%TD*%
%TO.C,R11*%
X152110000Y-134930000D03*
X162270000Y-134930000D03*
%TD*%
%TO.C,C4*%
X135770000Y-103930000D03*
X140770000Y-103930000D03*
%TD*%
%TO.C,R28*%
X168800000Y-59430000D03*
X178960000Y-59430000D03*
%TD*%
%TO.C,R9*%
X134770000Y-97930000D03*
X124610000Y-97930000D03*
%TD*%
D11*
%TO.C,Q12*%
X173270000Y-118200000D03*
D12*
X173270000Y-116930000D03*
X173270000Y-115660000D03*
%TD*%
D10*
%TO.C,C12*%
X164270000Y-52680000D03*
X159270000Y-52680000D03*
%TD*%
D13*
%TO.C,D15*%
X153950000Y-87665000D03*
D10*
X161570000Y-87665000D03*
%TD*%
D15*
%TO.C,Q7*%
X168250000Y-74430000D03*
D16*
X169520000Y-74430000D03*
X170790000Y-74430000D03*
%TD*%
D10*
%TO.C,R5*%
X130770000Y-119930000D03*
X140930000Y-119930000D03*
%TD*%
D13*
%TO.C,D6*%
X170820000Y-103880000D03*
D10*
X178440000Y-103880000D03*
%TD*%
%TO.C,R49*%
X145940000Y-152680000D03*
X156100000Y-152680000D03*
%TD*%
%TO.C,C14*%
X175960000Y-55680000D03*
X180960000Y-55680000D03*
%TD*%
D13*
%TO.C,D16*%
X171650000Y-132930000D03*
D10*
X179270000Y-132930000D03*
%TD*%
%TO.C,R48*%
X180350000Y-127930000D03*
X170190000Y-127930000D03*
%TD*%
%TO.C,R32*%
X135000000Y-62070000D03*
X124840000Y-62070000D03*
%TD*%
%TO.C,R30*%
X157270000Y-57020000D03*
X157270000Y-67180000D03*
%TD*%
D13*
%TO.C,D10*%
X171380000Y-89130000D03*
D10*
X179000000Y-89130000D03*
%TD*%
%TO.C,R2*%
X130770000Y-116930000D03*
X140930000Y-116930000D03*
%TD*%
D13*
%TO.C,D18*%
X171650000Y-138930000D03*
D10*
X179270000Y-138930000D03*
%TD*%
D14*
%TO.C,TP8*%
X185000000Y-86000000D03*
%TD*%
D10*
%TO.C,R35*%
X151430000Y-78415000D03*
X161590000Y-78415000D03*
%TD*%
D18*
%TO.C,D9*%
X179120000Y-86130000D03*
D10*
X171500000Y-86130000D03*
%TD*%
D14*
%TO.C,TP10*%
X179755140Y-106479319D03*
%TD*%
D13*
%TO.C,D5*%
X125150000Y-103930000D03*
D10*
X132770000Y-103930000D03*
%TD*%
D11*
%TO.C,Q5*%
X161000000Y-105000000D03*
D12*
X161000000Y-103730000D03*
X161000000Y-102460000D03*
%TD*%
D10*
%TO.C,R1*%
X140930000Y-113930000D03*
X130770000Y-113930000D03*
%TD*%
D11*
%TO.C,Q2*%
X160270000Y-130470000D03*
D12*
X160270000Y-129200000D03*
X160270000Y-127930000D03*
%TD*%
D15*
%TO.C,Q9*%
X174000000Y-74430000D03*
D16*
X175270000Y-74430000D03*
X176540000Y-74430000D03*
%TD*%
D10*
%TO.C,R47*%
X138840000Y-50070000D03*
X149000000Y-50070000D03*
%TD*%
%TO.C,R23*%
X122270000Y-88930000D03*
X122270000Y-78770000D03*
%TD*%
%TO.C,R8*%
X140850000Y-137930000D03*
X130690000Y-137930000D03*
%TD*%
%TO.C,C13*%
X129270000Y-83430000D03*
X129270000Y-78430000D03*
%TD*%
%TO.C,R20*%
X135000000Y-56070000D03*
X124840000Y-56070000D03*
%TD*%
D14*
%TO.C,TP5*%
X187000000Y-97000000D03*
%TD*%
D10*
%TO.C,C16*%
X184270000Y-132930000D03*
X184270000Y-137930000D03*
%TD*%
D11*
%TO.C,Q3*%
X153380000Y-104950000D03*
D12*
X153380000Y-103680000D03*
X153380000Y-102410000D03*
%TD*%
D13*
%TO.C,U2*%
X136900000Y-73730000D03*
D10*
X136900000Y-76270000D03*
X136900000Y-78810000D03*
X136900000Y-81350000D03*
X136900000Y-83890000D03*
X136900000Y-86430000D03*
X136900000Y-88970000D03*
X144520000Y-88970000D03*
X144520000Y-86430000D03*
X144520000Y-83890000D03*
X144520000Y-81350000D03*
X144520000Y-78810000D03*
X144520000Y-76270000D03*
X144520000Y-73730000D03*
%TD*%
%TO.C,R27*%
X125270000Y-88930000D03*
X125270000Y-78770000D03*
%TD*%
%TO.C,R25*%
X164020000Y-56850000D03*
X164020000Y-67010000D03*
%TD*%
D15*
%TO.C,Q8*%
X123980000Y-73540000D03*
D16*
X125250000Y-73540000D03*
X126520000Y-73540000D03*
%TD*%
D10*
%TO.C,R26*%
X135000000Y-59070000D03*
X124840000Y-59070000D03*
%TD*%
D18*
%TO.C,U1*%
X162080000Y-120740000D03*
D10*
X162080000Y-118200000D03*
X162080000Y-115660000D03*
X162080000Y-113120000D03*
X154460000Y-113120000D03*
X154460000Y-115660000D03*
X154460000Y-118200000D03*
X154460000Y-120740000D03*
%TD*%
%TO.C,R12*%
X169110000Y-92580000D03*
X179270000Y-92580000D03*
%TD*%
D17*
%TO.C,C5*%
X140514700Y-23614300D03*
X145514700Y-23614300D03*
%TD*%
D10*
%TO.C,R15*%
X152270000Y-95660000D03*
X162430000Y-95660000D03*
%TD*%
D13*
%TO.C,D11*%
X171150000Y-62430000D03*
D10*
X178770000Y-62430000D03*
%TD*%
D13*
%TO.C,D8*%
X170960000Y-79430000D03*
D10*
X178580000Y-79430000D03*
%TD*%
D14*
%TO.C,TP3*%
X182654052Y-63247334D03*
%TD*%
D15*
%TO.C,Q10*%
X138460000Y-66320000D03*
D16*
X139730000Y-66320000D03*
X141000000Y-66320000D03*
%TD*%
D18*
%TO.C,D13*%
X178710000Y-65430000D03*
D10*
X171090000Y-65430000D03*
%TD*%
D15*
%TO.C,Q4*%
X183230000Y-104930000D03*
D16*
X184500000Y-104930000D03*
X185770000Y-104930000D03*
%TD*%
D14*
%TO.C,TP6*%
X185000000Y-52000000D03*
%TD*%
D19*
%TO.C,J1*%
X186050000Y-22750000D03*
D20*
X186050000Y-25290000D03*
X183510000Y-22750000D03*
X183510000Y-25290000D03*
X180970000Y-22750000D03*
X180970000Y-25290000D03*
X178430000Y-22750000D03*
X178430000Y-25290000D03*
X175890000Y-22750000D03*
X175890000Y-25290000D03*
%TD*%
D10*
%TO.C,R51*%
X145940000Y-149680000D03*
X156100000Y-149680000D03*
%TD*%
%TO.C,R14*%
X169110000Y-100680000D03*
X179270000Y-100680000D03*
%TD*%
D18*
%TO.C,D14*%
X178830000Y-68430000D03*
D10*
X171210000Y-68430000D03*
%TD*%
D17*
%TO.C,C6*%
X140514700Y-27664300D03*
X145514700Y-27664300D03*
%TD*%
D10*
%TO.C,R40*%
X170270000Y-124660000D03*
X180430000Y-124660000D03*
%TD*%
D21*
%TO.C,D12*%
X184520000Y-73120000D03*
D10*
X184520000Y-80740000D03*
%TD*%
%TO.C,R36*%
X151430000Y-81415000D03*
X161590000Y-81415000D03*
%TD*%
D13*
%TO.C,D17*%
X171650000Y-135930000D03*
D10*
X179270000Y-135930000D03*
%TD*%
%TO.C,R24*%
X124840000Y-68070000D03*
X135000000Y-68070000D03*
%TD*%
%TO.C,R38*%
X151430000Y-75415000D03*
X161590000Y-75415000D03*
%TD*%
%TO.C,R19*%
X135000000Y-53070000D03*
X124840000Y-53070000D03*
%TD*%
D17*
%TO.C,C9*%
X151270000Y-119930000D03*
X151270000Y-114930000D03*
%TD*%
D10*
%TO.C,R16*%
X169780000Y-82880000D03*
X179940000Y-82880000D03*
%TD*%
%TO.C,R46*%
X151430000Y-72415000D03*
X161590000Y-72415000D03*
%TD*%
D14*
%TO.C,TP2*%
X140084801Y-94375944D03*
%TD*%
D10*
%TO.C,R45*%
X165270000Y-108930000D03*
X175430000Y-108930000D03*
%TD*%
D22*
%TO.C,J6*%
X166484100Y-38484100D03*
D23*
X162484100Y-32484100D03*
D24*
X155484100Y-34484100D03*
D23*
X159484100Y-45484100D03*
D22*
X153484100Y-41484100D03*
%TD*%
%TO.C,J7*%
X137000000Y-149000000D03*
D23*
X133000000Y-143000000D03*
D24*
X126000000Y-145000000D03*
D23*
X130000000Y-156000000D03*
D22*
X124000000Y-152000000D03*
%TD*%
D17*
%TO.C,RV6*%
X185270000Y-116930000D03*
X185270000Y-114390000D03*
X185270000Y-111850000D03*
%TD*%
D22*
%TO.C,J3*%
X185000000Y-149000000D03*
D23*
X181000000Y-143000000D03*
D24*
X174000000Y-145000000D03*
D23*
X178000000Y-156000000D03*
D22*
X172000000Y-152000000D03*
%TD*%
D19*
%TO.C,J2*%
X145000000Y-95000000D03*
D20*
X147540000Y-95000000D03*
X145000000Y-97540000D03*
X147540000Y-97540000D03*
X145000000Y-100080000D03*
X147540000Y-100080000D03*
X145000000Y-102620000D03*
X147540000Y-102620000D03*
X145000000Y-105160000D03*
X147540000Y-105160000D03*
X145000000Y-107700000D03*
X147540000Y-107700000D03*
X145000000Y-110240000D03*
X147540000Y-110240000D03*
X145000000Y-112780000D03*
X147540000Y-112780000D03*
X145000000Y-115320000D03*
X147540000Y-115320000D03*
X145000000Y-117860000D03*
X147540000Y-117860000D03*
%TD*%
D22*
%TO.C,J4*%
X146484100Y-38484100D03*
D23*
X142484100Y-32484100D03*
D24*
X135484100Y-34484100D03*
D23*
X139484100Y-45484100D03*
D22*
X133484100Y-41484100D03*
%TD*%
%TO.C,J5*%
X186484100Y-38484100D03*
D23*
X182484100Y-32484100D03*
D24*
X175484100Y-34484100D03*
D23*
X179484100Y-45484100D03*
D22*
X173484100Y-41484100D03*
%TD*%
M02*
