%TF.GenerationSoftware,KiCad,Pcbnew,9.0.5*%
%TF.CreationDate,2025-10-05T20:18:26+02:00*%
%TF.ProjectId,11_fm_drum,31315f66-6d5f-4647-9275-6d2e6b696361,rev?*%
%TF.SameCoordinates,Original*%
%TF.FileFunction,Copper,L2,Bot*%
%TF.FilePolarity,Positive*%
%FSLAX46Y46*%
G04 Gerber Fmt 4.6, Leading zero omitted, Abs format (unit mm)*
G04 Created by KiCad (PCBNEW 9.0.5) date 2025-10-05 20:18:26*
%MOMM*%
%LPD*%
G01*
G04 APERTURE LIST*
G04 Aperture macros list*
%AMRoundRect*
0 Rectangle with rounded corners*
0 $1 Rounding radius*
0 $2 $3 $4 $5 $6 $7 $8 $9 X,Y pos of 4 corners*
0 Add a 4 corners polygon primitive as box body*
4,1,4,$2,$3,$4,$5,$6,$7,$8,$9,$2,$3,0*
0 Add four circle primitives for the rounded corners*
1,1,$1+$1,$2,$3*
1,1,$1+$1,$4,$5*
1,1,$1+$1,$6,$7*
1,1,$1+$1,$8,$9*
0 Add four rect primitives between the rounded corners*
20,1,$1+$1,$2,$3,$4,$5,0*
20,1,$1+$1,$4,$5,$6,$7,0*
20,1,$1+$1,$6,$7,$8,$9,0*
20,1,$1+$1,$8,$9,$2,$3,0*%
%AMHorizOval*
0 Thick line with rounded ends*
0 $1 width*
0 $2 $3 position (X,Y) of the first rounded end (center of the circle)*
0 $4 $5 position (X,Y) of the second rounded end (center of the circle)*
0 Add line between two ends*
20,1,$1,$2,$3,$4,$5,0*
0 Add two circle primitives to create the rounded ends*
1,1,$1,$2,$3*
1,1,$1,$4,$5*%
G04 Aperture macros list end*
%TA.AperFunction,ComponentPad*%
%ADD10C,1.600000*%
%TD*%
%TA.AperFunction,ComponentPad*%
%ADD11R,1.500000X1.050000*%
%TD*%
%TA.AperFunction,ComponentPad*%
%ADD12O,1.500000X1.050000*%
%TD*%
%TA.AperFunction,ComponentPad*%
%ADD13RoundRect,0.250000X-0.550000X-0.550000X0.550000X-0.550000X0.550000X0.550000X-0.550000X0.550000X0*%
%TD*%
%TA.AperFunction,ComponentPad*%
%ADD14R,1.050000X1.500000*%
%TD*%
%TA.AperFunction,ComponentPad*%
%ADD15O,1.050000X1.500000*%
%TD*%
%TA.AperFunction,ComponentPad*%
%ADD16C,2.000000*%
%TD*%
%TA.AperFunction,ComponentPad*%
%ADD17RoundRect,0.250000X0.550000X0.550000X-0.550000X0.550000X-0.550000X-0.550000X0.550000X-0.550000X0*%
%TD*%
%TA.AperFunction,ComponentPad*%
%ADD18R,1.700000X1.700000*%
%TD*%
%TA.AperFunction,ComponentPad*%
%ADD19C,1.700000*%
%TD*%
%TA.AperFunction,ComponentPad*%
%ADD20RoundRect,0.250000X-0.550000X0.550000X-0.550000X-0.550000X0.550000X-0.550000X0.550000X0.550000X0*%
%TD*%
%TA.AperFunction,ComponentPad*%
%ADD21O,2.200000X4.000000*%
%TD*%
%TA.AperFunction,ComponentPad*%
%ADD22O,4.000000X2.200000*%
%TD*%
%TA.AperFunction,ComponentPad*%
%ADD23HorizOval,2.200000X0.625193X0.647406X-0.625193X-0.647406X0*%
%TD*%
%TA.AperFunction,SMDPad,CuDef*%
%ADD24R,1.000000X1.000000*%
%TD*%
%TA.AperFunction,ViaPad*%
%ADD25C,0.600000*%
%TD*%
%TA.AperFunction,Conductor*%
%ADD26C,0.200000*%
%TD*%
G04 APERTURE END LIST*
D10*
%TO.P,R29,1*%
%TO.N,GND*%
X124840000Y-65070000D03*
%TO.P,R29,2*%
%TO.N,Net-(U2B-+)*%
X135000000Y-65070000D03*
%TD*%
D11*
%TO.P,Q1,1,C*%
%TO.N,GND*%
X153270000Y-130470000D03*
D12*
%TO.P,Q1,2,B*%
%TO.N,Net-(D3-A)*%
X153270000Y-129200000D03*
%TO.P,Q1,3,E*%
%TO.N,Net-(Q1-E)*%
X153270000Y-127930000D03*
%TD*%
D13*
%TO.P,C2,1*%
%TO.N,+12V*%
X151264700Y-26164300D03*
D10*
%TO.P,C2,2*%
%TO.N,GND*%
X153764700Y-26164300D03*
%TD*%
%TO.P,R21,1*%
%TO.N,Net-(D13-A)*%
X187770000Y-71600000D03*
%TO.P,R21,2*%
%TO.N,Net-(Q7-B)*%
X187770000Y-81760000D03*
%TD*%
%TO.P,R41,1*%
%TO.N,GND*%
X151430000Y-84415000D03*
%TO.P,R41,2*%
%TO.N,Net-(U2C-+)*%
X161590000Y-84415000D03*
%TD*%
D11*
%TO.P,Q13,1,C*%
%TO.N,GND*%
X152000000Y-143000000D03*
D12*
%TO.P,Q13,2,B*%
%TO.N,Net-(D17-A)*%
X152000000Y-144270000D03*
%TO.P,Q13,3,E*%
%TO.N,Net-(Q13-E)*%
X152000000Y-145540000D03*
%TD*%
D13*
%TO.P,D1,1,K*%
%TO.N,io tune decay 1*%
X125150000Y-100930000D03*
D10*
%TO.P,D1,2,A*%
%TO.N,Net-(D1-A)*%
X132770000Y-100930000D03*
%TD*%
%TO.P,R33,1*%
%TO.N,io fm on{slash}off pin 2*%
X145770000Y-138010000D03*
%TO.P,R33,2*%
%TO.N,tune 2*%
X145770000Y-127850000D03*
%TD*%
%TO.P,R50,1*%
%TO.N,Net-(U2D-+)*%
X149000000Y-53070000D03*
%TO.P,R50,2*%
%TO.N,square 2*%
X138840000Y-53070000D03*
%TD*%
D14*
%TO.P,Q6,1,C*%
%TO.N,Net-(Q6-C)*%
X130000000Y-73430000D03*
D15*
%TO.P,Q6,2,B*%
%TO.N,Net-(Q6-B)*%
X131270000Y-73430000D03*
%TO.P,Q6,3,E*%
%TO.N,GND*%
X132540000Y-73430000D03*
%TD*%
D13*
%TO.P,D4,1,K*%
%TO.N,Net-(D3-A)*%
X133070000Y-131930000D03*
D10*
%TO.P,D4,2,A*%
%TO.N,GND*%
X140690000Y-131930000D03*
%TD*%
%TO.P,C17,1*%
%TO.N,triangle 2*%
X151750000Y-68070000D03*
%TO.P,C17,2*%
%TO.N,Net-(Q11-E)*%
X151750000Y-63070000D03*
%TD*%
%TO.P,R6,1*%
%TO.N,accent cv*%
X130610000Y-125930000D03*
%TO.P,R6,2*%
%TO.N,Net-(D3-A)*%
X140770000Y-125930000D03*
%TD*%
D14*
%TO.P,Q11,1,C*%
%TO.N,Net-(Q11-C)*%
X145230000Y-66430000D03*
D15*
%TO.P,Q11,2,B*%
%TO.N,Net-(Q11-B)*%
X146500000Y-66430000D03*
%TO.P,Q11,3,E*%
%TO.N,Net-(Q11-E)*%
X147770000Y-66430000D03*
%TD*%
D16*
%TO.P,C8,1*%
%TO.N,GND*%
X148260000Y-73915000D03*
%TO.P,C8,2*%
%TO.N,-12V*%
X148260000Y-78915000D03*
%TD*%
D10*
%TO.P,R10,1*%
%TO.N,Net-(Q1-E)*%
X140850000Y-134930000D03*
%TO.P,R10,2*%
%TO.N,Net-(Q2-B)*%
X130690000Y-134930000D03*
%TD*%
%TO.P,C1,1*%
%TO.N,gate in*%
X123770000Y-114930000D03*
%TO.P,C1,2*%
%TO.N,Net-(D2-K)*%
X123770000Y-109930000D03*
%TD*%
D16*
%TO.P,C7,1*%
%TO.N,+12V*%
X133270000Y-83430000D03*
%TO.P,C7,2*%
%TO.N,GND*%
X133270000Y-78430000D03*
%TD*%
D10*
%TO.P,R44,1*%
%TO.N,Net-(Q10-B)*%
X149000000Y-56320000D03*
%TO.P,R44,2*%
%TO.N,square 2*%
X138840000Y-56320000D03*
%TD*%
D16*
%TO.P,C10,1*%
%TO.N,GND*%
X165270000Y-119930000D03*
%TO.P,C10,2*%
%TO.N,-12V*%
X165270000Y-114930000D03*
%TD*%
D10*
%TO.P,R22,1*%
%TO.N,Net-(Q6-C)*%
X135000000Y-50070000D03*
%TO.P,R22,2*%
%TO.N,Net-(Q8-E)*%
X124840000Y-50070000D03*
%TD*%
%TO.P,R37,1*%
%TO.N,io sine{slash}pulse pin 2*%
X170270000Y-121660000D03*
%TO.P,R37,2*%
%TO.N,Net-(Q12-C)*%
X180430000Y-121660000D03*
%TD*%
%TO.P,R3,1*%
%TO.N,trigger*%
X134770000Y-94930000D03*
%TO.P,R3,2*%
%TO.N,Net-(D1-A)*%
X124610000Y-94930000D03*
%TD*%
%TO.P,C11,1*%
%TO.N,Net-(D6-K)*%
X183020000Y-89680000D03*
%TO.P,C11,2*%
%TO.N,GND*%
X188020000Y-89680000D03*
%TD*%
%TO.P,R18,1*%
%TO.N,io tune 2 pin 2*%
X152270000Y-98660000D03*
%TO.P,R18,2*%
%TO.N,tune 2*%
X162430000Y-98660000D03*
%TD*%
%TO.P,C15,1*%
%TO.N,Net-(C15-Pad1)*%
X167960000Y-55680000D03*
%TO.P,C15,2*%
%TO.N,Net-(Q9-E)*%
X172960000Y-55680000D03*
%TD*%
%TO.P,R42,1*%
%TO.N,io decay pin 1*%
X165270000Y-111930000D03*
%TO.P,R42,2*%
%TO.N,Net-(Q12-B)*%
X175430000Y-111930000D03*
%TD*%
%TO.P,R34,1*%
%TO.N,Net-(C15-Pad1)*%
X187770000Y-54100000D03*
%TO.P,R34,2*%
%TO.N,pulse*%
X187770000Y-64260000D03*
%TD*%
%TO.P,R39,1*%
%TO.N,trigger*%
X138840000Y-59320000D03*
%TO.P,R39,2*%
%TO.N,Net-(Q11-B)*%
X149000000Y-59320000D03*
%TD*%
%TO.P,R43,1*%
%TO.N,decay cv*%
X145860000Y-155680000D03*
%TO.P,R43,2*%
%TO.N,Net-(D17-A)*%
X156020000Y-155680000D03*
%TD*%
D13*
%TO.P,C3,1*%
%TO.N,GND*%
X160264700Y-26164300D03*
D10*
%TO.P,C3,2*%
%TO.N,-12V*%
X162764700Y-26164300D03*
%TD*%
D13*
%TO.P,D2,1,K*%
%TO.N,Net-(D2-K)*%
X133150000Y-122930000D03*
D10*
%TO.P,D2,2,A*%
%TO.N,GND*%
X140770000Y-122930000D03*
%TD*%
D13*
%TO.P,D7,1,K*%
%TO.N,Net-(D7-K)*%
X155270000Y-92660000D03*
D10*
%TO.P,D7,2,A*%
%TO.N,io tune lvl pin 2*%
X162890000Y-92660000D03*
%TD*%
%TO.P,R4,1*%
%TO.N,GND*%
X140930000Y-110930000D03*
%TO.P,R4,2*%
%TO.N,Net-(D2-K)*%
X130770000Y-110930000D03*
%TD*%
%TO.P,R13,1*%
%TO.N,triangle 2*%
X169110000Y-96630000D03*
%TO.P,R13,2*%
%TO.N,Net-(Q4-C)*%
X179270000Y-96630000D03*
%TD*%
%TO.P,R31,1*%
%TO.N,-12V*%
X160520000Y-56930000D03*
%TO.P,R31,2*%
%TO.N,Net-(Q9-E)*%
X160520000Y-67090000D03*
%TD*%
%TO.P,R52,1*%
%TO.N,Net-(R48-Pad2)*%
X152190000Y-137930000D03*
%TO.P,R52,2*%
%TO.N,out*%
X162350000Y-137930000D03*
%TD*%
D13*
%TO.P,D3,1,K*%
%TO.N,+12V*%
X133070000Y-128930000D03*
D10*
%TO.P,D3,2,A*%
%TO.N,Net-(D3-A)*%
X140690000Y-128930000D03*
%TD*%
%TO.P,R11,1*%
%TO.N,GND*%
X152110000Y-134930000D03*
%TO.P,R11,2*%
%TO.N,accented trigger*%
X162270000Y-134930000D03*
%TD*%
%TO.P,C4,1*%
%TO.N,io tune decay 1*%
X135770000Y-103930000D03*
%TO.P,C4,2*%
%TO.N,GND*%
X140770000Y-103930000D03*
%TD*%
%TO.P,R28,1*%
%TO.N,Net-(Q9-E)*%
X168800000Y-59430000D03*
%TO.P,R28,2*%
%TO.N,Net-(C12-Pad1)*%
X178960000Y-59430000D03*
%TD*%
%TO.P,R9,1*%
%TO.N,Net-(D5-K)*%
X134770000Y-97930000D03*
%TO.P,R9,2*%
%TO.N,io tune depth 1*%
X124610000Y-97930000D03*
%TD*%
D11*
%TO.P,Q12,1,C*%
%TO.N,Net-(Q12-C)*%
X173270000Y-118200000D03*
D12*
%TO.P,Q12,2,B*%
%TO.N,Net-(Q12-B)*%
X173270000Y-116930000D03*
%TO.P,Q12,3,E*%
%TO.N,Net-(Q12-E)*%
X173270000Y-115660000D03*
%TD*%
D10*
%TO.P,C12,1*%
%TO.N,Net-(C12-Pad1)*%
X164270000Y-52680000D03*
%TO.P,C12,2*%
%TO.N,Net-(Q7-C)*%
X159270000Y-52680000D03*
%TD*%
D13*
%TO.P,D15,1,K*%
%TO.N,Net-(D15-K)*%
X153950000Y-87665000D03*
D10*
%TO.P,D15,2,A*%
%TO.N,tune 2*%
X161570000Y-87665000D03*
%TD*%
D14*
%TO.P,Q7,1,C*%
%TO.N,Net-(Q7-C)*%
X168250000Y-74430000D03*
D15*
%TO.P,Q7,2,B*%
%TO.N,Net-(Q7-B)*%
X169520000Y-74430000D03*
%TO.P,Q7,3,E*%
%TO.N,Net-(D11-K)*%
X170790000Y-74430000D03*
%TD*%
D10*
%TO.P,R5,1*%
%TO.N,Net-(U1B--)*%
X130770000Y-119930000D03*
%TO.P,R5,2*%
%TO.N,+12V*%
X140930000Y-119930000D03*
%TD*%
D13*
%TO.P,D6,1,K*%
%TO.N,Net-(D6-K)*%
X170820000Y-103880000D03*
D10*
%TO.P,D6,2,A*%
%TO.N,accented trigger*%
X178440000Y-103880000D03*
%TD*%
%TO.P,R49,1*%
%TO.N,Net-(Q13-E)*%
X145940000Y-152680000D03*
%TO.P,R49,2*%
%TO.N,io decay pin 2*%
X156100000Y-152680000D03*
%TD*%
%TO.P,C14,1*%
%TO.N,Net-(Q9-B)*%
X175960000Y-55680000D03*
%TO.P,C14,2*%
%TO.N,Net-(C12-Pad1)*%
X180960000Y-55680000D03*
%TD*%
D13*
%TO.P,D16,1,K*%
%TO.N,io decay pin 1*%
X171650000Y-132930000D03*
D10*
%TO.P,D16,2,A*%
%TO.N,accented trigger*%
X179270000Y-132930000D03*
%TD*%
%TO.P,R48,1*%
%TO.N,Net-(Q12-E)*%
X180350000Y-127930000D03*
%TO.P,R48,2*%
%TO.N,Net-(R48-Pad2)*%
X170190000Y-127930000D03*
%TD*%
%TO.P,R32,1*%
%TO.N,Net-(U2B-+)*%
X135000000Y-62070000D03*
%TO.P,R32,2*%
%TO.N,square 1*%
X124840000Y-62070000D03*
%TD*%
%TO.P,R30,1*%
%TO.N,GND*%
X157270000Y-57020000D03*
%TO.P,R30,2*%
%TO.N,Net-(Q9-B)*%
X157270000Y-67180000D03*
%TD*%
D13*
%TO.P,D10,1,K*%
%TO.N,sine*%
X171380000Y-89130000D03*
D10*
%TO.P,D10,2,A*%
%TO.N,GND*%
X179000000Y-89130000D03*
%TD*%
%TO.P,R2,1*%
%TO.N,GND*%
X130770000Y-116930000D03*
%TO.P,R2,2*%
%TO.N,Net-(U1B--)*%
X140930000Y-116930000D03*
%TD*%
D13*
%TO.P,D18,1,K*%
%TO.N,Net-(D17-A)*%
X171650000Y-138930000D03*
D10*
%TO.P,D18,2,A*%
%TO.N,GND*%
X179270000Y-138930000D03*
%TD*%
%TO.P,R35,1*%
%TO.N,Net-(D15-K)*%
X151430000Y-78415000D03*
%TO.P,R35,2*%
%TO.N,Net-(Q11-E)*%
X161590000Y-78415000D03*
%TD*%
D17*
%TO.P,D9,1,K*%
%TO.N,GND*%
X179120000Y-86130000D03*
D10*
%TO.P,D9,2,A*%
%TO.N,sine*%
X171500000Y-86130000D03*
%TD*%
D13*
%TO.P,D5,1,K*%
%TO.N,Net-(D5-K)*%
X125150000Y-103930000D03*
D10*
%TO.P,D5,2,A*%
%TO.N,io tune decay 1*%
X132770000Y-103930000D03*
%TD*%
D11*
%TO.P,Q5,1,C*%
%TO.N,GND*%
X161000000Y-105000000D03*
D12*
%TO.P,Q5,2,B*%
%TO.N,Net-(D7-K)*%
X161000000Y-103730000D03*
%TO.P,Q5,3,E*%
%TO.N,io tune 2 pin 3*%
X161000000Y-102460000D03*
%TD*%
D10*
%TO.P,R1,1*%
%TO.N,GND*%
X140930000Y-113930000D03*
%TO.P,R1,2*%
%TO.N,gate in*%
X130770000Y-113930000D03*
%TD*%
D11*
%TO.P,Q2,1,C*%
%TO.N,+12V*%
X160270000Y-130470000D03*
D12*
%TO.P,Q2,2,B*%
%TO.N,Net-(Q2-B)*%
X160270000Y-129200000D03*
%TO.P,Q2,3,E*%
%TO.N,accented trigger*%
X160270000Y-127930000D03*
%TD*%
D14*
%TO.P,Q9,1,C*%
%TO.N,+12V*%
X174000000Y-74430000D03*
D15*
%TO.P,Q9,2,B*%
%TO.N,Net-(Q9-B)*%
X175270000Y-74430000D03*
%TO.P,Q9,3,E*%
%TO.N,Net-(Q9-E)*%
X176540000Y-74430000D03*
%TD*%
D10*
%TO.P,R47,1*%
%TO.N,GND*%
X138840000Y-50070000D03*
%TO.P,R47,2*%
%TO.N,Net-(U2D-+)*%
X149000000Y-50070000D03*
%TD*%
%TO.P,R23,1*%
%TO.N,trigger*%
X122270000Y-88930000D03*
%TO.P,R23,2*%
%TO.N,Net-(Q8-B)*%
X122270000Y-78770000D03*
%TD*%
%TO.P,R8,1*%
%TO.N,trigger*%
X140850000Y-137930000D03*
%TO.P,R8,2*%
%TO.N,Net-(Q2-B)*%
X130690000Y-137930000D03*
%TD*%
%TO.P,C13,1*%
%TO.N,io fm on{slash}off pin 1*%
X129270000Y-83430000D03*
%TO.P,C13,2*%
%TO.N,Net-(Q8-E)*%
X129270000Y-78430000D03*
%TD*%
%TO.P,R20,1*%
%TO.N,tune 1*%
X135000000Y-56070000D03*
%TO.P,R20,2*%
%TO.N,Net-(U2A-+)*%
X124840000Y-56070000D03*
%TD*%
%TO.P,C16,1*%
%TO.N,io decay pin 1*%
X184270000Y-132930000D03*
%TO.P,C16,2*%
%TO.N,GND*%
X184270000Y-137930000D03*
%TD*%
D11*
%TO.P,Q3,1,C*%
%TO.N,GND*%
X153380000Y-104950000D03*
D12*
%TO.P,Q3,2,B*%
%TO.N,Net-(D7-K)*%
X153380000Y-103680000D03*
%TO.P,Q3,3,E*%
%TO.N,io tune 1 pin 3*%
X153380000Y-102410000D03*
%TD*%
D13*
%TO.P,U2,1*%
%TO.N,io fm on{slash}off pin 1*%
X136900000Y-73730000D03*
D10*
%TO.P,U2,2,-*%
%TO.N,Net-(Q8-E)*%
X136900000Y-76270000D03*
%TO.P,U2,3,+*%
%TO.N,Net-(U2A-+)*%
X136900000Y-78810000D03*
%TO.P,U2,4,V+*%
%TO.N,+12V*%
X136900000Y-81350000D03*
%TO.P,U2,5,+*%
%TO.N,Net-(U2B-+)*%
X136900000Y-83890000D03*
%TO.P,U2,6,-*%
%TO.N,io fm on{slash}off pin 1*%
X136900000Y-86430000D03*
%TO.P,U2,7*%
%TO.N,square 1*%
X136900000Y-88970000D03*
%TO.P,U2,8*%
%TO.N,triangle 2*%
X144520000Y-88970000D03*
%TO.P,U2,9,-*%
%TO.N,Net-(Q11-E)*%
X144520000Y-86430000D03*
%TO.P,U2,10,+*%
%TO.N,Net-(U2C-+)*%
X144520000Y-83890000D03*
%TO.P,U2,11,V-*%
%TO.N,-12V*%
X144520000Y-81350000D03*
%TO.P,U2,12,+*%
%TO.N,Net-(U2D-+)*%
X144520000Y-78810000D03*
%TO.P,U2,13,-*%
%TO.N,triangle 2*%
X144520000Y-76270000D03*
%TO.P,U2,14*%
%TO.N,square 2*%
X144520000Y-73730000D03*
%TD*%
%TO.P,R27,1*%
%TO.N,Net-(Q8-C)*%
X125270000Y-88930000D03*
%TO.P,R27,2*%
%TO.N,io fm on{slash}off pin 1*%
X125270000Y-78770000D03*
%TD*%
%TO.P,R25,1*%
%TO.N,-12V*%
X164020000Y-56850000D03*
%TO.P,R25,2*%
%TO.N,Net-(Q7-C)*%
X164020000Y-67010000D03*
%TD*%
D14*
%TO.P,Q8,1,C*%
%TO.N,Net-(Q8-C)*%
X123980000Y-73540000D03*
D15*
%TO.P,Q8,2,B*%
%TO.N,Net-(Q8-B)*%
X125250000Y-73540000D03*
%TO.P,Q8,3,E*%
%TO.N,Net-(Q8-E)*%
X126520000Y-73540000D03*
%TD*%
D10*
%TO.P,R26,1*%
%TO.N,Net-(Q6-B)*%
X135000000Y-59070000D03*
%TO.P,R26,2*%
%TO.N,square 1*%
X124840000Y-59070000D03*
%TD*%
D17*
%TO.P,U1,1*%
%TO.N,Net-(R48-Pad2)*%
X162080000Y-120740000D03*
D10*
%TO.P,U1,2,-*%
%TO.N,Net-(Q12-E)*%
X162080000Y-118200000D03*
%TO.P,U1,3,+*%
%TO.N,GND*%
X162080000Y-115660000D03*
%TO.P,U1,4,V-*%
%TO.N,-12V*%
X162080000Y-113120000D03*
%TO.P,U1,5,+*%
%TO.N,Net-(D2-K)*%
X154460000Y-113120000D03*
%TO.P,U1,6,-*%
%TO.N,Net-(U1B--)*%
X154460000Y-115660000D03*
%TO.P,U1,7*%
%TO.N,trigger*%
X154460000Y-118200000D03*
%TO.P,U1,8,V+*%
%TO.N,+12V*%
X154460000Y-120740000D03*
%TD*%
%TO.P,R12,1*%
%TO.N,triangle 2*%
X169110000Y-92580000D03*
%TO.P,R12,2*%
%TO.N,sine*%
X179270000Y-92580000D03*
%TD*%
D16*
%TO.P,C5,1*%
%TO.N,+12V*%
X140514700Y-23614300D03*
%TO.P,C5,2*%
%TO.N,GND*%
X145514700Y-23614300D03*
%TD*%
D10*
%TO.P,R15,1*%
%TO.N,-12V*%
X152270000Y-95660000D03*
%TO.P,R15,2*%
%TO.N,Net-(D7-K)*%
X162430000Y-95660000D03*
%TD*%
D13*
%TO.P,D11,1,K*%
%TO.N,Net-(D11-K)*%
X171150000Y-62430000D03*
D10*
%TO.P,D11,2,A*%
%TO.N,square 1*%
X178770000Y-62430000D03*
%TD*%
D13*
%TO.P,D8,1,K*%
%TO.N,Net-(D8-K)*%
X170960000Y-79430000D03*
D10*
%TO.P,D8,2,A*%
%TO.N,trigger*%
X178580000Y-79430000D03*
%TD*%
D14*
%TO.P,Q10,1,C*%
%TO.N,Net-(Q10-C)*%
X138460000Y-66320000D03*
D15*
%TO.P,Q10,2,B*%
%TO.N,Net-(Q10-B)*%
X139730000Y-66320000D03*
%TO.P,Q10,3,E*%
%TO.N,GND*%
X141000000Y-66320000D03*
%TD*%
D17*
%TO.P,D13,1,K*%
%TO.N,square 1*%
X178710000Y-65430000D03*
D10*
%TO.P,D13,2,A*%
%TO.N,Net-(D13-A)*%
X171090000Y-65430000D03*
%TD*%
D14*
%TO.P,Q4,1,C*%
%TO.N,Net-(Q4-C)*%
X183230000Y-104930000D03*
D15*
%TO.P,Q4,2,B*%
%TO.N,Net-(Q4-B)*%
X184500000Y-104930000D03*
%TO.P,Q4,3,E*%
%TO.N,sine*%
X185770000Y-104930000D03*
%TD*%
D18*
%TO.P,J1,1,Pin_1*%
%TO.N,+12V*%
X186050000Y-22750000D03*
D19*
%TO.P,J1,2,Pin_2*%
X186050000Y-25290000D03*
%TO.P,J1,3,Pin_3*%
%TO.N,GND*%
X183510000Y-22750000D03*
%TO.P,J1,4,Pin_4*%
X183510000Y-25290000D03*
%TO.P,J1,5,Pin_5*%
X180970000Y-22750000D03*
%TO.P,J1,6,Pin_6*%
X180970000Y-25290000D03*
%TO.P,J1,7,Pin_7*%
X178430000Y-22750000D03*
%TO.P,J1,8,Pin_8*%
X178430000Y-25290000D03*
%TO.P,J1,9,Pin_9*%
%TO.N,-12V*%
X175890000Y-22750000D03*
%TO.P,J1,10,Pin_10*%
X175890000Y-25290000D03*
%TD*%
D10*
%TO.P,R51,1*%
%TO.N,GND*%
X145940000Y-149680000D03*
%TO.P,R51,2*%
%TO.N,io decay pin 2*%
X156100000Y-149680000D03*
%TD*%
%TO.P,R14,1*%
%TO.N,Net-(D6-K)*%
X169110000Y-100680000D03*
%TO.P,R14,2*%
%TO.N,Net-(Q4-B)*%
X179270000Y-100680000D03*
%TD*%
D17*
%TO.P,D14,1,K*%
%TO.N,square 2*%
X178830000Y-68430000D03*
D10*
%TO.P,D14,2,A*%
%TO.N,Net-(D13-A)*%
X171210000Y-68430000D03*
%TD*%
D16*
%TO.P,C6,1*%
%TO.N,GND*%
X140514700Y-27664300D03*
%TO.P,C6,2*%
%TO.N,-12V*%
X145514700Y-27664300D03*
%TD*%
D10*
%TO.P,R40,1*%
%TO.N,GND*%
X170270000Y-124660000D03*
%TO.P,R40,2*%
%TO.N,Net-(Q12-C)*%
X180430000Y-124660000D03*
%TD*%
D20*
%TO.P,D12,1,K*%
%TO.N,Net-(D11-K)*%
X184520000Y-73120000D03*
D10*
%TO.P,D12,2,A*%
%TO.N,square 2*%
X184520000Y-80740000D03*
%TD*%
%TO.P,R36,1*%
%TO.N,Net-(D15-K)*%
X151430000Y-81415000D03*
%TO.P,R36,2*%
%TO.N,Net-(U2C-+)*%
X161590000Y-81415000D03*
%TD*%
D13*
%TO.P,D17,1,K*%
%TO.N,+12V*%
X171650000Y-135930000D03*
D10*
%TO.P,D17,2,A*%
%TO.N,Net-(D17-A)*%
X179270000Y-135930000D03*
%TD*%
%TO.P,R24,1*%
%TO.N,GND*%
X124840000Y-68070000D03*
%TO.P,R24,2*%
%TO.N,Net-(U2A-+)*%
X135000000Y-68070000D03*
%TD*%
%TO.P,R38,1*%
%TO.N,Net-(Q10-C)*%
X151430000Y-75415000D03*
%TO.P,R38,2*%
%TO.N,Net-(Q11-E)*%
X161590000Y-75415000D03*
%TD*%
%TO.P,R19,1*%
%TO.N,tune 1*%
X135000000Y-53070000D03*
%TO.P,R19,2*%
%TO.N,Net-(Q8-E)*%
X124840000Y-53070000D03*
%TD*%
D16*
%TO.P,C9,1*%
%TO.N,+12V*%
X151270000Y-119930000D03*
%TO.P,C9,2*%
%TO.N,GND*%
X151270000Y-114930000D03*
%TD*%
D10*
%TO.P,R16,1*%
%TO.N,Net-(D8-K)*%
X169780000Y-82880000D03*
%TO.P,R16,2*%
%TO.N,sine*%
X179940000Y-82880000D03*
%TD*%
%TO.P,R46,1*%
%TO.N,Net-(Q11-C)*%
X151430000Y-72415000D03*
%TO.P,R46,2*%
%TO.N,triangle 2*%
X161590000Y-72415000D03*
%TD*%
%TO.P,R45,1*%
%TO.N,io decay pin 1*%
X165270000Y-108930000D03*
%TO.P,R45,2*%
%TO.N,Net-(R45-Pad2)*%
X175430000Y-108930000D03*
%TD*%
D21*
%TO.P,J6,R,R*%
%TO.N,unconnected-(J6-PadR)*%
X166484100Y-38484100D03*
D22*
%TO.P,J6,RN,RN*%
%TO.N,unconnected-(J6-PadRN)*%
X162484100Y-32484100D03*
D23*
%TO.P,J6,S,S*%
%TO.N,GND*%
X155484100Y-34484100D03*
D22*
%TO.P,J6,T,T*%
%TO.N,decay cv*%
X159484100Y-45484100D03*
D21*
%TO.P,J6,TN,TN*%
%TO.N,GND*%
X153484100Y-41484100D03*
%TD*%
%TO.P,J7,R,R*%
%TO.N,unconnected-(J7-PadR)*%
X137000000Y-149000000D03*
D22*
%TO.P,J7,RN,RN*%
%TO.N,unconnected-(J7-PadRN)*%
X133000000Y-143000000D03*
D23*
%TO.P,J7,S,S*%
%TO.N,GND*%
X126000000Y-145000000D03*
D22*
%TO.P,J7,T,T*%
%TO.N,out*%
X130000000Y-156000000D03*
D21*
%TO.P,J7,TN,TN*%
%TO.N,GND*%
X124000000Y-152000000D03*
%TD*%
D16*
%TO.P,RV6,1,1*%
%TO.N,Net-(Q12-E)*%
X185270000Y-116930000D03*
%TO.P,RV6,2,2*%
%TO.N,Net-(R45-Pad2)*%
X185270000Y-114390000D03*
%TO.P,RV6,3,3*%
X185270000Y-111850000D03*
%TD*%
D21*
%TO.P,J3,R,R*%
%TO.N,unconnected-(J3-PadR)*%
X185000000Y-149000000D03*
D22*
%TO.P,J3,RN,RN*%
%TO.N,unconnected-(J3-PadRN)*%
X181000000Y-143000000D03*
D23*
%TO.P,J3,S,S*%
%TO.N,GND*%
X174000000Y-145000000D03*
D22*
%TO.P,J3,T,T*%
%TO.N,gate in*%
X178000000Y-156000000D03*
D21*
%TO.P,J3,TN,TN*%
%TO.N,GND*%
X172000000Y-152000000D03*
%TD*%
D24*
%TO.P,TP1,1,1*%
%TO.N,io tune decay 1*%
X140415797Y-98885011D03*
%TD*%
D18*
%TO.P,J2,1,Pin_1*%
%TO.N,tune cv*%
X145000000Y-95000000D03*
D19*
%TO.P,J2,2,Pin_2*%
%TO.N,io tune lvl pin 2*%
X147540000Y-95000000D03*
%TO.P,J2,3,Pin_3*%
%TO.N,io tune decay 1*%
X145000000Y-97540000D03*
%TO.P,J2,4,Pin_4*%
%TO.N,io tune depth 1*%
X147540000Y-97540000D03*
%TO.P,J2,5,Pin_5*%
%TO.N,tune 2*%
X145000000Y-100080000D03*
%TO.P,J2,6,Pin_6*%
%TO.N,tune 1*%
X147540000Y-100080000D03*
%TO.P,J2,7,Pin_7*%
%TO.N,io tune 1 pin 3*%
X145000000Y-102620000D03*
%TO.P,J2,8,Pin_8*%
%TO.N,io tune 2 pin 2*%
X147540000Y-102620000D03*
%TO.P,J2,9,Pin_9*%
%TO.N,io tune 2 pin 3*%
X145000000Y-105160000D03*
%TO.P,J2,10,Pin_10*%
%TO.N,unconnected-(J2-Pin_10-Pad10)*%
X147540000Y-105160000D03*
%TO.P,J2,11,Pin_11*%
%TO.N,GND*%
X145000000Y-107700000D03*
%TO.P,J2,12,Pin_12*%
%TO.N,+12V*%
X147540000Y-107700000D03*
%TO.P,J2,13,Pin_13*%
%TO.N,unconnected-(J2-Pin_13-Pad13)*%
X145000000Y-110240000D03*
%TO.P,J2,14,Pin_14*%
%TO.N,io decay pin 2*%
X147540000Y-110240000D03*
%TO.P,J2,15,Pin_15*%
%TO.N,io decay pin 1*%
X145000000Y-112780000D03*
%TO.P,J2,16,Pin_16*%
%TO.N,pulse*%
X147540000Y-112780000D03*
%TO.P,J2,17,Pin_17*%
%TO.N,io sine{slash}pulse pin 2*%
X145000000Y-115320000D03*
%TO.P,J2,18,Pin_18*%
%TO.N,sine*%
X147540000Y-115320000D03*
%TO.P,J2,19,Pin_19*%
%TO.N,io fm on{slash}off pin 2*%
X145000000Y-117860000D03*
%TO.P,J2,20,Pin_20*%
%TO.N,io fm on{slash}off pin 1*%
X147540000Y-117860000D03*
%TD*%
D21*
%TO.P,J4,R,R*%
%TO.N,unconnected-(J4-PadR)*%
X146484100Y-38484100D03*
D22*
%TO.P,J4,RN,RN*%
%TO.N,unconnected-(J4-PadRN)*%
X142484100Y-32484100D03*
D23*
%TO.P,J4,S,S*%
%TO.N,GND*%
X135484100Y-34484100D03*
D22*
%TO.P,J4,T,T*%
%TO.N,accent cv*%
X139484100Y-45484100D03*
D21*
%TO.P,J4,TN,TN*%
%TO.N,GND*%
X133484100Y-41484100D03*
%TD*%
%TO.P,J5,R,R*%
%TO.N,unconnected-(J5-PadR)*%
X186484100Y-38484100D03*
D22*
%TO.P,J5,RN,RN*%
%TO.N,unconnected-(J5-PadRN)*%
X182484100Y-32484100D03*
D23*
%TO.P,J5,S,S*%
%TO.N,GND*%
X175484100Y-34484100D03*
D22*
%TO.P,J5,T,T*%
%TO.N,tune cv*%
X179484100Y-45484100D03*
D21*
%TO.P,J5,TN,TN*%
%TO.N,GND*%
X173484100Y-41484100D03*
%TD*%
D25*
%TO.N,GND*%
X142065300Y-71810500D03*
%TO.N,io fm on{slash}off pin 1*%
X148475400Y-119544400D03*
X142900100Y-119291300D03*
%TO.N,gate in*%
X124102100Y-143487700D03*
%TO.N,+12V*%
X159810000Y-134881900D03*
X171087500Y-24036000D03*
%TO.N,-12V*%
X153075900Y-111991000D03*
X153673600Y-80991900D03*
X156462500Y-60169500D03*
%TO.N,Net-(D1-A)*%
X131062400Y-95639700D03*
%TO.N,sine*%
X150104500Y-115983600D03*
X150900400Y-100987600D03*
%TO.N,trigger*%
X142873400Y-91977600D03*
X158110100Y-82861300D03*
X137437200Y-120675500D03*
%TO.N,square 1*%
X123371800Y-88034000D03*
%TO.N,accent cv*%
X129139600Y-51317400D03*
%TO.N,decay cv*%
X157196800Y-154682700D03*
%TO.N,tune cv*%
X177478300Y-86435200D03*
%TO.N,Net-(Q9-B)*%
X174778900Y-57890000D03*
%TO.N,pulse*%
X186619700Y-105927700D03*
%TO.N,io sine{slash}pulse pin 2*%
X143889900Y-118889600D03*
%TD*%
D26*
%TO.N,Net-(Q1-E)*%
X153270000Y-127930000D02*
X154321700Y-127930000D01*
X153642800Y-131800800D02*
X143979200Y-131800800D01*
X143979200Y-131800800D02*
X140850000Y-134930000D01*
X154321700Y-131121900D02*
X153642800Y-131800800D01*
X154321700Y-127930000D02*
X154321700Y-131121900D01*
%TO.N,io tune decay 1*%
X142160000Y-97540000D02*
X135770000Y-103930000D01*
X132770000Y-103930000D02*
X135770000Y-103930000D01*
X125150000Y-100930000D02*
X129770000Y-100930000D01*
X129770000Y-100930000D02*
X132770000Y-103930000D01*
X145000000Y-97540000D02*
X142160000Y-97540000D01*
%TO.N,triangle 2*%
X156095000Y-72415000D02*
X151970000Y-76540000D01*
X144790000Y-76540000D02*
X144520000Y-76270000D01*
X151750000Y-68070000D02*
X156095000Y-72415000D01*
X151970000Y-76540000D02*
X144790000Y-76540000D01*
X156095000Y-72415000D02*
X161590000Y-72415000D01*
%TO.N,Net-(C12-Pad1)*%
X180960000Y-55680000D02*
X177960000Y-52680000D01*
X177960000Y-52680000D02*
X164270000Y-52680000D01*
%TO.N,Net-(D5-K)*%
X124040400Y-102820400D02*
X124040400Y-100146200D01*
X126256600Y-97930000D02*
X134770000Y-97930000D01*
X125150000Y-103930000D02*
X124040400Y-102820400D01*
X124040400Y-100146200D02*
X126256600Y-97930000D01*
%TO.N,GND*%
X145940000Y-148008300D02*
X150948300Y-143000000D01*
X144540000Y-107700000D02*
X145000000Y-107700000D01*
X186903600Y-88563600D02*
X179566400Y-88563600D01*
X171249600Y-40836300D02*
X155718600Y-40836300D01*
X153270000Y-131296700D02*
X141323300Y-131296700D01*
X153380000Y-104950000D02*
X153380000Y-105776700D01*
X151214700Y-23614300D02*
X153764700Y-26164300D01*
X152000000Y-143000000D02*
X150948300Y-143000000D01*
X153270000Y-130470000D02*
X153270000Y-131296700D01*
X153484100Y-41484100D02*
X153484100Y-39182400D01*
X179566400Y-88563600D02*
X179000000Y-89130000D01*
X146723300Y-72378300D02*
X142065300Y-72378300D01*
X154481700Y-105000000D02*
X154431700Y-104950000D01*
X173484100Y-39182400D02*
X172903500Y-39182400D01*
X124840000Y-68070000D02*
X128231700Y-68070000D01*
X145514700Y-23614300D02*
X151214700Y-23614300D01*
X145000000Y-107700000D02*
X141770000Y-110930000D01*
X160945000Y-114525000D02*
X151675000Y-114525000D01*
X142065300Y-72378300D02*
X132540000Y-72378300D01*
X162874000Y-87254700D02*
X161533400Y-85914100D01*
X152929100Y-85914100D02*
X151430000Y-84415000D01*
X152726700Y-106430000D02*
X146270000Y-106430000D01*
X133484100Y-41484100D02*
X133484100Y-39182400D01*
X179120000Y-86130000D02*
X178819000Y-85829000D01*
X135484100Y-34484100D02*
X134492400Y-33457200D01*
X183270000Y-138930000D02*
X184270000Y-137930000D01*
X153764700Y-26164300D02*
X160264700Y-26164300D01*
X142065300Y-72378300D02*
X142065300Y-71810500D01*
X179270000Y-138930000D02*
X183270000Y-138930000D01*
X133484100Y-39182400D02*
X134064700Y-39182400D01*
X148260000Y-73915000D02*
X146723300Y-72378300D01*
X130770000Y-116930000D02*
X137930000Y-116930000D01*
X174916700Y-85829000D02*
X173491000Y-87254700D01*
X146270000Y-106430000D02*
X145000000Y-107700000D01*
X173491000Y-87254700D02*
X162874000Y-87254700D01*
X172903500Y-39182400D02*
X171249600Y-40836300D01*
X161000000Y-105000000D02*
X154481700Y-105000000D01*
X153380000Y-105776700D02*
X152726700Y-106430000D01*
X151675000Y-114525000D02*
X151270000Y-114930000D01*
X141323300Y-131296700D02*
X140690000Y-131930000D01*
X188020000Y-89680000D02*
X186903600Y-88563600D01*
X137930000Y-116930000D02*
X140930000Y-113930000D01*
X151249600Y-40836300D02*
X152903500Y-39182400D01*
X134064700Y-39182400D02*
X135718600Y-40836300D01*
X165540000Y-119930000D02*
X165270000Y-119930000D01*
X178430000Y-22750000D02*
X180970000Y-22750000D01*
X170270000Y-124660000D02*
X165540000Y-119930000D01*
X140770000Y-103930000D02*
X144540000Y-107700000D01*
X132540000Y-73430000D02*
X132540000Y-72378300D01*
X155718600Y-40836300D02*
X154064700Y-39182400D01*
X135753900Y-32425100D02*
X135524500Y-32425100D01*
X128231700Y-68070000D02*
X132540000Y-72378300D01*
X145940000Y-149680000D02*
X145940000Y-148008300D01*
X183510000Y-25290000D02*
X180970000Y-25290000D01*
X135524500Y-32425100D02*
X134492400Y-33457200D01*
X153380000Y-104950000D02*
X154431700Y-104950000D01*
X161533400Y-85914100D02*
X152929100Y-85914100D01*
X135718600Y-40836300D02*
X151249600Y-40836300D01*
X140514700Y-27664300D02*
X135753900Y-32425100D01*
X152903500Y-39182400D02*
X153484100Y-39182400D01*
X178819000Y-85829000D02*
X174916700Y-85829000D01*
X173484100Y-41484100D02*
X173484100Y-39182400D01*
X154064700Y-39182400D02*
X153484100Y-39182400D01*
X162080000Y-115660000D02*
X160945000Y-114525000D01*
X141770000Y-110930000D02*
X140930000Y-110930000D01*
%TO.N,Net-(C15-Pad1)*%
X169080300Y-54559700D02*
X167960000Y-55680000D01*
X171658100Y-54393400D02*
X171491800Y-54559700D01*
X179385100Y-56786400D02*
X176756700Y-54158000D01*
X171893500Y-54158000D02*
X171658100Y-54393400D01*
X176756700Y-54158000D02*
X171893500Y-54158000D01*
X185083600Y-56786400D02*
X179385100Y-56786400D01*
X171658100Y-54393400D02*
X171491800Y-54559700D01*
X171491800Y-54559700D02*
X169080300Y-54559700D01*
X187770000Y-54100000D02*
X185083600Y-56786400D01*
%TO.N,Net-(Q9-E)*%
X168800000Y-59430000D02*
X161140000Y-67090000D01*
X161140000Y-67090000D02*
X160520000Y-67090000D01*
X172960000Y-55680000D02*
X169210000Y-59430000D01*
X169210000Y-59430000D02*
X168800000Y-59430000D01*
%TO.N,Net-(Q8-B)*%
X122270000Y-78770000D02*
X125250000Y-75790000D01*
X125250000Y-75790000D02*
X125250000Y-73540000D01*
%TO.N,Net-(Q8-E)*%
X130705200Y-76994800D02*
X129270000Y-78430000D01*
X136900000Y-76270000D02*
X136175200Y-76994800D01*
X136175200Y-76994800D02*
X130705200Y-76994800D01*
%TO.N,io fm on{slash}off pin 1*%
X125270000Y-79430000D02*
X129270000Y-83430000D01*
X132270000Y-86430000D02*
X129270000Y-83430000D01*
X148475400Y-119544400D02*
X143153200Y-119544400D01*
X136900000Y-86430000D02*
X132270000Y-86430000D01*
X125270000Y-78770000D02*
X125270000Y-79430000D01*
X125270000Y-78770000D02*
X127588300Y-76451700D01*
X134178300Y-76451700D02*
X136900000Y-73730000D01*
X143153200Y-119544400D02*
X142900100Y-119291300D01*
X127588300Y-76451700D02*
X134178300Y-76451700D01*
%TO.N,Net-(D11-K)*%
X184520000Y-73120000D02*
X182158300Y-75481700D01*
X173350000Y-75481700D02*
X172298400Y-74430100D01*
X172298400Y-74430000D02*
X170790000Y-74430000D01*
X172298400Y-74430100D02*
X172298400Y-74430000D01*
X182158300Y-75481700D02*
X173350000Y-75481700D01*
%TO.N,gate in*%
X128512300Y-157401800D02*
X126389900Y-155279400D01*
X126389900Y-150124500D02*
X123917600Y-147652200D01*
X130770000Y-113930000D02*
X124770000Y-113930000D01*
X123917600Y-143672200D02*
X124102100Y-143487700D01*
X175698300Y-156000000D02*
X174296500Y-157401800D01*
X126389900Y-155279400D02*
X126389900Y-150124500D01*
X123917600Y-147652200D02*
X123917600Y-143672200D01*
X174296500Y-157401800D02*
X128512300Y-157401800D01*
X124770000Y-113930000D02*
X123770000Y-114930000D01*
X178000000Y-156000000D02*
X175698300Y-156000000D01*
%TO.N,Net-(D3-A)*%
X140960000Y-129200100D02*
X140960000Y-129200000D01*
X153270000Y-129200000D02*
X140960000Y-129200000D01*
X140960000Y-129200000D02*
X140690000Y-128930000D01*
X135799900Y-129200100D02*
X140960000Y-129200100D01*
X133070000Y-131930000D02*
X135799900Y-129200100D01*
%TO.N,io decay pin 1*%
X151388600Y-108930000D02*
X148708900Y-111609700D01*
X171650000Y-132930000D02*
X172768200Y-131811800D01*
X172768200Y-131811800D02*
X183151800Y-131811800D01*
X183151800Y-131811800D02*
X184270000Y-132930000D01*
X148708900Y-111609700D02*
X146170300Y-111609700D01*
X146170300Y-111609700D02*
X145000000Y-112780000D01*
X165270000Y-108930000D02*
X151388600Y-108930000D01*
%TO.N,+12V*%
X138255000Y-79995000D02*
X136900000Y-81350000D01*
X161586200Y-25744700D02*
X163294900Y-24036000D01*
X171087500Y-24036000D02*
X184764000Y-24036000D01*
X153650000Y-119930000D02*
X154460000Y-120740000D01*
X173173300Y-74430000D02*
X172121600Y-73378300D01*
X161041200Y-136113100D02*
X159810000Y-134881900D01*
X171650000Y-135930000D02*
X171466900Y-136113100D01*
X143064700Y-26164300D02*
X151264700Y-26164300D01*
X145300200Y-79995000D02*
X138255000Y-79995000D01*
X152764700Y-27664300D02*
X160663300Y-27664300D01*
X151270000Y-119930000D02*
X150592800Y-120607200D01*
X151270000Y-119930000D02*
X153650000Y-119930000D01*
X172121600Y-73378300D02*
X164964000Y-73378300D01*
X154544900Y-120740000D02*
X161321700Y-127516800D01*
X133070000Y-128930000D02*
X140930000Y-121070000D01*
X157115300Y-73915000D02*
X153742800Y-77287500D01*
X150592800Y-120607200D02*
X140930000Y-120607200D01*
X184764000Y-24036000D02*
X186050000Y-22750000D01*
X164964000Y-73378300D02*
X164427300Y-73915000D01*
X133270000Y-83430000D02*
X135350000Y-81350000D01*
X171466900Y-136113100D02*
X161041200Y-136113100D01*
X161321700Y-127516800D02*
X161321700Y-130470000D01*
X164427300Y-73915000D02*
X157115300Y-73915000D01*
X140514700Y-23614300D02*
X143064700Y-26164300D01*
X154460000Y-120740000D02*
X154544900Y-120740000D01*
X148007700Y-77287500D02*
X145300200Y-79995000D01*
X160270000Y-130470000D02*
X161321700Y-130470000D01*
X140930000Y-120607200D02*
X140930000Y-119930000D01*
X174000000Y-74430000D02*
X173173300Y-74430000D01*
X160663300Y-27664300D02*
X161586200Y-26741400D01*
X140930000Y-121070000D02*
X140930000Y-120607200D01*
X153742800Y-77287500D02*
X148007700Y-77287500D01*
X135350000Y-81350000D02*
X136900000Y-81350000D01*
X151264700Y-26164300D02*
X152764700Y-27664300D01*
X163294900Y-24036000D02*
X171087500Y-24036000D01*
X161586200Y-26741400D02*
X161586200Y-25744700D01*
%TO.N,-12V*%
X160520000Y-56930000D02*
X163940000Y-56930000D01*
X162080000Y-113120000D02*
X163460000Y-113120000D01*
X156462500Y-60169500D02*
X159702000Y-56930000D01*
X145916400Y-28066000D02*
X160829600Y-28066000D01*
X148260000Y-80132500D02*
X145737500Y-80132500D01*
X160829600Y-28066000D02*
X161231300Y-27664300D01*
X161231300Y-27664300D02*
X161264700Y-27664300D01*
X161264700Y-27664300D02*
X162764700Y-26164300D01*
X145737500Y-80132500D02*
X144520000Y-81350000D01*
X148260000Y-80132500D02*
X152814200Y-80132500D01*
X163940000Y-56930000D02*
X164020000Y-56850000D01*
X152814200Y-80132500D02*
X153673600Y-80991900D01*
X148260000Y-78915000D02*
X148260000Y-80132500D01*
X145514700Y-27664300D02*
X145916400Y-28066000D01*
X163460000Y-113120000D02*
X165270000Y-114930000D01*
X162764700Y-26164300D02*
X163639000Y-25290000D01*
X159702000Y-56930000D02*
X160520000Y-56930000D01*
X153075900Y-111991000D02*
X160951000Y-111991000D01*
X163639000Y-25290000D02*
X175890000Y-25290000D01*
X160951000Y-111991000D02*
X162080000Y-113120000D01*
%TO.N,Net-(D1-A)*%
X125319700Y-95639700D02*
X124610000Y-94930000D01*
X131062400Y-95639700D02*
X125319700Y-95639700D01*
%TO.N,io tune lvl pin 2*%
X147540000Y-95000000D02*
X151044900Y-91495100D01*
X161725100Y-91495100D02*
X162890000Y-92660000D01*
X151044900Y-91495100D02*
X161725100Y-91495100D01*
%TO.N,Net-(D2-K)*%
X154460000Y-113120000D02*
X151238200Y-113120000D01*
X123770000Y-109930000D02*
X129770000Y-109930000D01*
X142918300Y-112430000D02*
X132270000Y-112430000D01*
X151238200Y-113120000D02*
X150408200Y-113950000D01*
X150408200Y-113950000D02*
X144438300Y-113950000D01*
X132270000Y-112430000D02*
X130770000Y-110930000D01*
X144438300Y-113950000D02*
X142918300Y-112430000D01*
X129770000Y-109930000D02*
X130770000Y-110930000D01*
%TO.N,tune 2*%
X146154300Y-98925700D02*
X145000000Y-100080000D01*
X150499200Y-99765000D02*
X149659900Y-98925700D01*
X161325000Y-99765000D02*
X150499200Y-99765000D01*
X149659900Y-98925700D02*
X146154300Y-98925700D01*
X162430000Y-98660000D02*
X161325000Y-99765000D01*
%TO.N,sine*%
X150900400Y-100987500D02*
X150900400Y-100987600D01*
X172781600Y-90531500D02*
X171380000Y-89130000D01*
X162727200Y-100585900D02*
X151687800Y-100585900D01*
X148203600Y-115983600D02*
X150104500Y-115983600D01*
X147540000Y-115320000D02*
X148203600Y-115983600D01*
X151687800Y-100585900D02*
X151286200Y-100987500D01*
X172781600Y-90531500D02*
X162727200Y-100585900D01*
X171500000Y-86130000D02*
X174750000Y-82880000D01*
X151286200Y-100987500D02*
X150900400Y-100987500D01*
X179270000Y-92580000D02*
X174830000Y-92580000D01*
X174830000Y-92580000D02*
X172781600Y-90531500D01*
X174750000Y-82880000D02*
X179940000Y-82880000D01*
%TO.N,accented trigger*%
X179270000Y-132930000D02*
X177770000Y-134430000D01*
X162770000Y-134430000D02*
X162270000Y-134930000D01*
X177770000Y-134430000D02*
X162770000Y-134430000D01*
%TO.N,trigger*%
X164776800Y-82861300D02*
X166347800Y-81290300D01*
X139921000Y-94930000D02*
X134770000Y-94930000D01*
X158110100Y-82861300D02*
X164776800Y-82861300D01*
X128270000Y-94930000D02*
X122270000Y-88930000D01*
X142873400Y-91977600D02*
X139921000Y-94930000D01*
X137989400Y-120675500D02*
X137437200Y-120675500D01*
X139855300Y-118809600D02*
X137989400Y-120675500D01*
X142768800Y-120200600D02*
X141377800Y-118809600D01*
X134770000Y-94930000D02*
X128270000Y-94930000D01*
X166347800Y-81290300D02*
X176719700Y-81290300D01*
X176719700Y-81290300D02*
X178580000Y-79430000D01*
X150670600Y-118200000D02*
X150670600Y-118200100D01*
X154460000Y-118200000D02*
X150670600Y-118200000D01*
X141377800Y-118809600D02*
X139855300Y-118809600D01*
X148670100Y-120200600D02*
X142768800Y-120200600D01*
X150670600Y-118200100D02*
X148670100Y-120200600D01*
%TO.N,Net-(D6-K)*%
X183020000Y-90391000D02*
X183020000Y-89680000D01*
X172731000Y-100680000D02*
X183020000Y-90391000D01*
X169110000Y-100680000D02*
X172731000Y-100680000D01*
%TO.N,Net-(D7-K)*%
X162430000Y-95660000D02*
X159430000Y-92660000D01*
X159430000Y-92660000D02*
X155270000Y-92660000D01*
X161000000Y-103730000D02*
X154481700Y-103730000D01*
X154481700Y-103730000D02*
X154431700Y-103680000D01*
X153380000Y-103680000D02*
X154431700Y-103680000D01*
%TO.N,square 1*%
X147698100Y-54769500D02*
X147533300Y-54934300D01*
X178770000Y-62430000D02*
X178468100Y-62430000D01*
X136900000Y-88970000D02*
X135802600Y-90067400D01*
X165555000Y-56826900D02*
X163497600Y-54769500D01*
X169847300Y-56826900D02*
X165555000Y-56826900D01*
X123371800Y-88645400D02*
X123371800Y-88034000D01*
X147698100Y-54769500D02*
X147533300Y-54934300D01*
X124365800Y-54934300D02*
X123656200Y-55643900D01*
X163497600Y-54769500D02*
X147698100Y-54769500D01*
X123656200Y-55643900D02*
X123656200Y-57886200D01*
X124793800Y-90067400D02*
X123371800Y-88645400D01*
X147533300Y-54934300D02*
X124365800Y-54934300D01*
X178468100Y-62430000D02*
X174177200Y-58139100D01*
X172114500Y-54559700D02*
X169847300Y-56826900D01*
X135802600Y-90067400D02*
X124793800Y-90067400D01*
X123656200Y-57886200D02*
X124840000Y-59070000D01*
X173397800Y-54559700D02*
X172114500Y-54559700D01*
X174177200Y-58139100D02*
X174177200Y-55339100D01*
X174177200Y-55339100D02*
X173397800Y-54559700D01*
%TO.N,square 2*%
X178830000Y-68430000D02*
X177707000Y-67307000D01*
X148049900Y-55185900D02*
X146915800Y-56320000D01*
X166493100Y-67307000D02*
X165587600Y-68212500D01*
X153257100Y-61394500D02*
X153257100Y-58957500D01*
X153257100Y-58957500D02*
X149485500Y-55185900D01*
X149485500Y-55185900D02*
X148049900Y-55185900D01*
X165587600Y-68212500D02*
X160075100Y-68212500D01*
X177707000Y-67307000D02*
X166493100Y-67307000D01*
X146915800Y-56320000D02*
X138840000Y-56320000D01*
X160075100Y-68212500D02*
X153257100Y-61394500D01*
%TO.N,Net-(D13-A)*%
X174380000Y-71600000D02*
X171210000Y-68430000D01*
X187770000Y-71600000D02*
X174380000Y-71600000D01*
%TO.N,accent cv*%
X139484100Y-45484100D02*
X137182400Y-45484100D01*
X129139600Y-51317400D02*
X134972900Y-45484100D01*
X134972900Y-45484100D02*
X137182400Y-45484100D01*
%TO.N,decay cv*%
X145860000Y-155680000D02*
X146961700Y-154578300D01*
X157092400Y-154578300D02*
X157196800Y-154682700D01*
X146961700Y-154578300D02*
X157092400Y-154578300D01*
%TO.N,tune cv*%
X176232500Y-87681000D02*
X177478300Y-86435200D01*
X146151700Y-94712100D02*
X151572200Y-89291600D01*
X169815900Y-87681000D02*
X176232500Y-87681000D01*
X151572200Y-89291600D02*
X168205300Y-89291600D01*
X168205300Y-89291600D02*
X169815900Y-87681000D01*
X146151700Y-95000000D02*
X146151700Y-94712100D01*
X145000000Y-95000000D02*
X146151700Y-95000000D01*
%TO.N,out*%
X162350000Y-137930000D02*
X155342200Y-137930000D01*
X137272200Y-156000000D02*
X130000000Y-156000000D01*
X155342200Y-137930000D02*
X137272200Y-156000000D01*
%TO.N,Net-(D17-A)*%
X171650000Y-138930000D02*
X176270000Y-138930000D01*
X176270000Y-138930000D02*
X179270000Y-135930000D01*
X171650000Y-138930000D02*
X166310000Y-144270000D01*
X166310000Y-144270000D02*
X152000000Y-144270000D01*
%TO.N,Net-(Q2-B)*%
X147298800Y-136430000D02*
X151326400Y-132402400D01*
X151326400Y-132402400D02*
X154962900Y-132402400D01*
X158165300Y-129200000D02*
X160270000Y-129200000D01*
X130690000Y-137930000D02*
X132190000Y-136430000D01*
X154962900Y-132402400D02*
X158165300Y-129200000D01*
X132190000Y-136430000D02*
X147298800Y-136430000D01*
%TO.N,io tune 1 pin 3*%
X146160900Y-103780900D02*
X150121500Y-103780900D01*
X151492400Y-102410000D02*
X153380000Y-102410000D01*
X150121500Y-103780900D02*
X151492400Y-102410000D01*
X145000000Y-102620000D02*
X146160900Y-103780900D01*
%TO.N,Net-(Q4-B)*%
X184500000Y-103878300D02*
X181301700Y-100680000D01*
X184500000Y-104930000D02*
X184500000Y-103878300D01*
X181301700Y-100680000D02*
X179270000Y-100680000D01*
%TO.N,Net-(Q7-B)*%
X169520000Y-75481700D02*
X169921700Y-75883400D01*
X169520000Y-74430000D02*
X169520000Y-75481700D01*
X169921700Y-75883400D02*
X181893400Y-75883400D01*
X181893400Y-75883400D02*
X187770000Y-81760000D01*
%TO.N,Net-(Q9-B)*%
X175270000Y-74430000D02*
X175270000Y-73378300D01*
X174778900Y-56861100D02*
X174778900Y-57890000D01*
X175960000Y-55680000D02*
X174778900Y-56861100D01*
X157270000Y-67180000D02*
X161017500Y-70927500D01*
X172819200Y-70927500D02*
X175270000Y-73378300D01*
X161017500Y-70927500D02*
X172819200Y-70927500D01*
%TO.N,Net-(Q10-C)*%
X151430000Y-75167400D02*
X151430000Y-75415000D01*
X143634300Y-67371700D02*
X151430000Y-75167400D01*
X138460000Y-66320000D02*
X138460000Y-67371700D01*
X138460000Y-67371700D02*
X143634300Y-67371700D01*
%TO.N,Net-(Q11-C)*%
X146496700Y-67481700D02*
X151430000Y-72415000D01*
X145230000Y-67481700D02*
X146496700Y-67481700D01*
X145230000Y-66430000D02*
X145230000Y-67481700D01*
%TO.N,Net-(Q10-B)*%
X149000000Y-56320000D02*
X140051700Y-65268300D01*
X139730000Y-66320000D02*
X139730000Y-65268300D01*
X140051700Y-65268300D02*
X139730000Y-65268300D01*
%TO.N,Net-(Q11-E)*%
X144190300Y-82652500D02*
X157352500Y-82652500D01*
X143409700Y-85319700D02*
X143409700Y-83433100D01*
X148596700Y-66430000D02*
X148596700Y-66223300D01*
X157352500Y-82652500D02*
X161590000Y-78415000D01*
X147770000Y-66430000D02*
X148596700Y-66430000D01*
X143409700Y-83433100D02*
X144190300Y-82652500D01*
X144520000Y-86430000D02*
X143409700Y-85319700D01*
X148596700Y-66223300D02*
X151750000Y-63070000D01*
%TO.N,Net-(Q12-E)*%
X173270000Y-115660000D02*
X184000000Y-115660000D01*
X173270000Y-115660000D02*
X167012900Y-115660000D01*
X167012900Y-115660000D02*
X164472900Y-118200000D01*
X184000000Y-115660000D02*
X185270000Y-116930000D01*
X164472900Y-118200000D02*
X162080000Y-118200000D01*
%TO.N,Net-(Q12-C)*%
X173270000Y-118200000D02*
X173270000Y-119026700D01*
X173270000Y-119026700D02*
X177796700Y-119026700D01*
X177796700Y-119026700D02*
X180430000Y-121660000D01*
%TO.N,Net-(Q13-E)*%
X152000000Y-146366700D02*
X145940000Y-152426700D01*
X152000000Y-145540000D02*
X152000000Y-146366700D01*
X145940000Y-152426700D02*
X145940000Y-152680000D01*
%TO.N,io tune 2 pin 3*%
X143825200Y-102116600D02*
X144475300Y-101466500D01*
X150458000Y-101638000D02*
X151201600Y-101638000D01*
X150286500Y-101466500D02*
X150458000Y-101638000D01*
X144475300Y-101466500D02*
X150286500Y-101466500D01*
X160950000Y-101583300D02*
X161000000Y-101633300D01*
X143825200Y-103985200D02*
X143825200Y-102116600D01*
X151256300Y-101583300D02*
X160950000Y-101583300D01*
X151201600Y-101638000D02*
X151256300Y-101583300D01*
X161000000Y-102460000D02*
X161000000Y-101633300D01*
X145000000Y-105160000D02*
X143825200Y-103985200D01*
%TO.N,pulse*%
X167246600Y-110429400D02*
X151372900Y-110429400D01*
X151372900Y-110429400D02*
X149022300Y-112780000D01*
X170423900Y-107252100D02*
X167246600Y-110429400D01*
X185295300Y-107252100D02*
X170423900Y-107252100D01*
X186619700Y-105927700D02*
X185295300Y-107252100D01*
X149022300Y-112780000D02*
X147540000Y-112780000D01*
%TO.N,io sine{slash}pulse pin 2*%
X150097500Y-117071500D02*
X148026300Y-119142700D01*
X170270000Y-121660000D02*
X167223000Y-118613000D01*
X167223000Y-118613000D02*
X164138600Y-118613000D01*
X164138600Y-118613000D02*
X163423700Y-119327900D01*
X144143000Y-119142700D02*
X143889900Y-118889600D01*
X163423700Y-119327900D02*
X159275000Y-119327900D01*
X148026300Y-119142700D02*
X144143000Y-119142700D01*
X159275000Y-119327900D02*
X157018600Y-117071500D01*
X157018600Y-117071500D02*
X150097500Y-117071500D01*
%TO.N,io tune depth 1*%
X126190600Y-96349400D02*
X146349400Y-96349400D01*
X146349400Y-96349400D02*
X147540000Y-97540000D01*
X124610000Y-97930000D02*
X126190600Y-96349400D01*
%TO.N,Net-(U2A-+)*%
X124840000Y-56070000D02*
X133100200Y-64330200D01*
X133100200Y-64330200D02*
X133100200Y-66170200D01*
X133100200Y-66170200D02*
X135000000Y-68070000D01*
%TO.N,Net-(U2C-+)*%
X158813000Y-84415000D02*
X161590000Y-84415000D01*
X145129400Y-83280600D02*
X157678600Y-83280600D01*
X157678600Y-83280600D02*
X158813000Y-84415000D01*
X144520000Y-83890000D02*
X145129400Y-83280600D01*
%TO.N,Net-(R45-Pad2)*%
X175430000Y-108930000D02*
X182350000Y-108930000D01*
X182350000Y-108930000D02*
X185270000Y-111850000D01*
%TO.N,Net-(R48-Pad2)*%
X164776300Y-127930000D02*
X156676100Y-136030200D01*
X156676100Y-136030200D02*
X154089800Y-136030200D01*
X170190000Y-127930000D02*
X164776300Y-127930000D01*
X154089800Y-136030200D02*
X152190000Y-137930000D01*
X164776300Y-123436300D02*
X164776300Y-127930000D01*
X162080000Y-120740000D02*
X164776300Y-123436300D01*
%TO.N,Net-(U1B--)*%
X154460000Y-115660000D02*
X153530000Y-116590000D01*
X130770000Y-119930000D02*
X137930000Y-119930000D01*
X153530000Y-116590000D02*
X141270000Y-116590000D01*
X137930000Y-119930000D02*
X140930000Y-116930000D01*
X141270000Y-116590000D02*
X140930000Y-116930000D01*
%TD*%
M02*
