%TF.GenerationSoftware,KiCad,Pcbnew,9.0.5*%
%TF.CreationDate,2025-10-12T14:47:24+02:00*%
%TF.ProjectId,11_fm_drum,31315f66-6d5f-4647-9275-6d2e6b696361,rev?*%
%TF.SameCoordinates,Original*%
%TF.FileFunction,Copper,L1,Top*%
%TF.FilePolarity,Positive*%
%FSLAX46Y46*%
G04 Gerber Fmt 4.6, Leading zero omitted, Abs format (unit mm)*
G04 Created by KiCad (PCBNEW 9.0.5) date 2025-10-12 14:47:24*
%MOMM*%
%LPD*%
G01*
G04 APERTURE LIST*
G04 Aperture macros list*
%AMRoundRect*
0 Rectangle with rounded corners*
0 $1 Rounding radius*
0 $2 $3 $4 $5 $6 $7 $8 $9 X,Y pos of 4 corners*
0 Add a 4 corners polygon primitive as box body*
4,1,4,$2,$3,$4,$5,$6,$7,$8,$9,$2,$3,0*
0 Add four circle primitives for the rounded corners*
1,1,$1+$1,$2,$3*
1,1,$1+$1,$4,$5*
1,1,$1+$1,$6,$7*
1,1,$1+$1,$8,$9*
0 Add four rect primitives between the rounded corners*
20,1,$1+$1,$2,$3,$4,$5,0*
20,1,$1+$1,$4,$5,$6,$7,0*
20,1,$1+$1,$6,$7,$8,$9,0*
20,1,$1+$1,$8,$9,$2,$3,0*%
G04 Aperture macros list end*
%TA.AperFunction,ComponentPad*%
%ADD10C,1.600000*%
%TD*%
%TA.AperFunction,ComponentPad*%
%ADD11O,1.500000X1.050000*%
%TD*%
%TA.AperFunction,ComponentPad*%
%ADD12R,1.500000X1.050000*%
%TD*%
%TA.AperFunction,ComponentPad*%
%ADD13RoundRect,0.250000X-0.550000X-0.550000X0.550000X-0.550000X0.550000X0.550000X-0.550000X0.550000X0*%
%TD*%
%TA.AperFunction,ComponentPad*%
%ADD14C,1.700000*%
%TD*%
%TA.AperFunction,ComponentPad*%
%ADD15R,1.700000X1.700000*%
%TD*%
%TA.AperFunction,SMDPad,CuDef*%
%ADD16R,1.000000X1.000000*%
%TD*%
%TA.AperFunction,ComponentPad*%
%ADD17O,1.050000X1.500000*%
%TD*%
%TA.AperFunction,ComponentPad*%
%ADD18R,1.050000X1.500000*%
%TD*%
%TA.AperFunction,ComponentPad*%
%ADD19C,2.000000*%
%TD*%
%TA.AperFunction,ComponentPad*%
%ADD20RoundRect,0.250000X0.550000X0.550000X-0.550000X0.550000X-0.550000X-0.550000X0.550000X-0.550000X0*%
%TD*%
%TA.AperFunction,ComponentPad*%
%ADD21RoundRect,0.250000X-0.550000X0.550000X-0.550000X-0.550000X0.550000X-0.550000X0.550000X0.550000X0*%
%TD*%
%TA.AperFunction,ViaPad*%
%ADD22C,0.600000*%
%TD*%
%TA.AperFunction,Conductor*%
%ADD23C,0.200000*%
%TD*%
G04 APERTURE END LIST*
D10*
%TO.P,C14,1*%
%TO.N,Net-(Q9-B)*%
X177040000Y-38360000D03*
%TO.P,C14,2*%
%TO.N,Net-(C12-Pad1)*%
X182040000Y-38360000D03*
%TD*%
%TO.P,C12,1*%
%TO.N,Net-(C12-Pad1)*%
X165350000Y-35360000D03*
%TO.P,C12,2*%
%TO.N,Net-(Q7-C)*%
X160350000Y-35360000D03*
%TD*%
D11*
%TO.P,Q1,3,E*%
%TO.N,Net-(Q1-E)*%
X139918000Y-102616000D03*
%TO.P,Q1,2,B*%
%TO.N,Net-(D3-A)*%
X139918000Y-103886000D03*
D12*
%TO.P,Q1,1,C*%
%TO.N,GND*%
X139918000Y-105156000D03*
%TD*%
D10*
%TO.P,C2,2*%
%TO.N,GND*%
X166678600Y-26000000D03*
D13*
%TO.P,C2,1*%
%TO.N,+12V*%
X164178600Y-26000000D03*
%TD*%
D10*
%TO.P,R29,2*%
%TO.N,Net-(U2B-+)*%
X136080000Y-47750000D03*
%TO.P,R29,1*%
%TO.N,GND*%
X125920000Y-47750000D03*
%TD*%
%TO.P,C1,1*%
%TO.N,gate in*%
X123412000Y-94290000D03*
%TO.P,C1,2*%
%TO.N,Net-(D2-K)*%
X123412000Y-89290000D03*
%TD*%
%TO.P,R21,2*%
%TO.N,Net-(Q7-B)*%
X195800000Y-46445000D03*
%TO.P,R21,1*%
%TO.N,Net-(D13-A)*%
X195800000Y-36285000D03*
%TD*%
%TO.P,R41,2*%
%TO.N,Net-(U2C-+)*%
X161925000Y-67595000D03*
%TO.P,R41,1*%
%TO.N,GND*%
X151765000Y-67595000D03*
%TD*%
D14*
%TO.P,RV1,3,3*%
%TO.N,GND*%
X191008000Y-100076000D03*
%TO.P,RV1,2,2*%
%TO.N,Net-(D7-A)*%
X191008000Y-97536000D03*
D15*
%TO.P,RV1,1,1*%
%TO.N,tune cv*%
X191008000Y-94996000D03*
%TD*%
D11*
%TO.P,Q13,3,E*%
%TO.N,Net-(Q13-E)*%
X178456000Y-117094000D03*
%TO.P,Q13,2,B*%
%TO.N,Net-(D17-A)*%
X178456000Y-115824000D03*
D12*
%TO.P,Q13,1,C*%
%TO.N,GND*%
X178456000Y-114554000D03*
%TD*%
D16*
%TO.P,TP4,1,1*%
%TO.N,triangle 2*%
X166306700Y-75718100D03*
%TD*%
D13*
%TO.P,D1,1,K*%
%TO.N,Net-(D1-K)*%
X125476000Y-83106000D03*
D10*
%TO.P,D1,2,A*%
%TO.N,Net-(D1-A)*%
X133096000Y-83106000D03*
%TD*%
%TO.P,R33,2*%
%TO.N,tune 2*%
X144272000Y-89408000D03*
%TO.P,R33,1*%
%TO.N,Net-(SW1-B)*%
X144272000Y-99568000D03*
%TD*%
%TO.P,R50,2*%
%TO.N,square 2*%
X139920000Y-35750000D03*
%TO.P,R50,1*%
%TO.N,Net-(U2D-+)*%
X150080000Y-35750000D03*
%TD*%
D17*
%TO.P,Q6,3,E*%
%TO.N,GND*%
X132875000Y-56610000D03*
%TO.P,Q6,2,B*%
%TO.N,Net-(Q6-B)*%
X131605000Y-56610000D03*
D18*
%TO.P,Q6,1,C*%
%TO.N,Net-(Q6-C)*%
X130335000Y-56610000D03*
%TD*%
D14*
%TO.P,RV7,3,3*%
%TO.N,Net-(R49-Pad2)*%
X191262000Y-117094000D03*
%TO.P,RV7,2,2*%
X188722000Y-117094000D03*
D15*
%TO.P,RV7,1,1*%
%TO.N,Net-(D16-K)*%
X186182000Y-117094000D03*
%TD*%
D10*
%TO.P,D4,2,A*%
%TO.N,GND*%
X135122000Y-111188000D03*
D13*
%TO.P,D4,1,K*%
%TO.N,Net-(D3-A)*%
X127502000Y-111188000D03*
%TD*%
D10*
%TO.P,C17,2*%
%TO.N,Net-(Q11-E)*%
X152830000Y-45750000D03*
%TO.P,C17,1*%
%TO.N,triangle 2*%
X152830000Y-50750000D03*
%TD*%
%TO.P,R6,2*%
%TO.N,Net-(D3-A)*%
X135202000Y-105188000D03*
%TO.P,R6,1*%
%TO.N,accent cv*%
X125042000Y-105188000D03*
%TD*%
D17*
%TO.P,Q11,3,E*%
%TO.N,Net-(Q11-E)*%
X148850000Y-49110000D03*
%TO.P,Q11,2,B*%
%TO.N,Net-(Q11-B)*%
X147580000Y-49110000D03*
D18*
%TO.P,Q11,1,C*%
%TO.N,Net-(Q11-C)*%
X146310000Y-49110000D03*
%TD*%
D19*
%TO.P,C8,2*%
%TO.N,-12V*%
X148595000Y-62095000D03*
%TO.P,C8,1*%
%TO.N,GND*%
X148595000Y-57095000D03*
%TD*%
D10*
%TO.P,R10,2*%
%TO.N,Net-(Q2-B)*%
X131726000Y-114140000D03*
%TO.P,R10,1*%
%TO.N,Net-(Q1-E)*%
X141886000Y-114140000D03*
%TD*%
%TO.P,C4,2*%
%TO.N,GND*%
X141149200Y-85321000D03*
%TO.P,C4,1*%
%TO.N,Net-(D1-K)*%
X136149200Y-85321000D03*
%TD*%
%TO.P,R7,2*%
%TO.N,Net-(R7-Pad2)*%
X192024000Y-60960000D03*
%TO.P,R7,1*%
%TO.N,GND*%
X181864000Y-60960000D03*
%TD*%
%TO.P,R44,2*%
%TO.N,square 2*%
X139920000Y-39000000D03*
%TO.P,R44,1*%
%TO.N,Net-(Q10-B)*%
X150080000Y-39000000D03*
%TD*%
D16*
%TO.P,TP9,1,1*%
%TO.N,Net-(Q7-C)*%
X168750600Y-51593900D03*
%TD*%
D19*
%TO.P,C10,2*%
%TO.N,-12V*%
X162052000Y-94528000D03*
%TO.P,C10,1*%
%TO.N,GND*%
X162052000Y-99528000D03*
%TD*%
D10*
%TO.P,R22,2*%
%TO.N,Net-(Q8-E)*%
X125920000Y-32750000D03*
%TO.P,R22,1*%
%TO.N,Net-(Q6-C)*%
X136080000Y-32750000D03*
%TD*%
%TO.P,R37,2*%
%TO.N,Net-(Q12-C)*%
X180768000Y-103662000D03*
%TO.P,R37,1*%
%TO.N,Net-(SW2-B)*%
X170608000Y-103662000D03*
%TD*%
%TO.P,R3,1*%
%TO.N,trigger*%
X135096000Y-77106000D03*
%TO.P,R3,2*%
%TO.N,Net-(D1-A)*%
X124936000Y-77106000D03*
%TD*%
%TO.P,C11,2*%
%TO.N,GND*%
X188355000Y-72860000D03*
%TO.P,C11,1*%
%TO.N,Net-(D6-K)*%
X183355000Y-72860000D03*
%TD*%
%TO.P,R18,2*%
%TO.N,tune 2*%
X162765000Y-81840000D03*
%TO.P,R18,1*%
%TO.N,Net-(R18-Pad1)*%
X152605000Y-81840000D03*
%TD*%
%TO.P,C15,2*%
%TO.N,Net-(Q9-E)*%
X174040000Y-38360000D03*
%TO.P,C15,1*%
%TO.N,Net-(C15-Pad1)*%
X169040000Y-38360000D03*
%TD*%
D16*
%TO.P,TP7,1,1*%
%TO.N,Net-(D16-K)*%
X166116000Y-88392000D03*
%TD*%
D10*
%TO.P,R42,2*%
%TO.N,Net-(Q12-B)*%
X175768000Y-93932000D03*
%TO.P,R42,1*%
%TO.N,Net-(D16-K)*%
X165608000Y-93932000D03*
%TD*%
%TO.P,R34,2*%
%TO.N,pulse*%
X188850000Y-46940000D03*
%TO.P,R34,1*%
%TO.N,Net-(C15-Pad1)*%
X188850000Y-36780000D03*
%TD*%
%TO.P,R39,2*%
%TO.N,Net-(Q11-B)*%
X150080000Y-42000000D03*
%TO.P,R39,1*%
%TO.N,trigger*%
X139920000Y-42000000D03*
%TD*%
%TO.P,R43,2*%
%TO.N,Net-(D17-A)*%
X169926000Y-117094000D03*
%TO.P,R43,1*%
%TO.N,decay cv*%
X159766000Y-117094000D03*
%TD*%
%TO.P,C3,2*%
%TO.N,-12V*%
X175500000Y-26000000D03*
D13*
%TO.P,C3,1*%
%TO.N,GND*%
X173000000Y-26000000D03*
%TD*%
D10*
%TO.P,D2,2,A*%
%TO.N,GND*%
X135202000Y-102188000D03*
D13*
%TO.P,D2,1,K*%
%TO.N,Net-(D2-K)*%
X127582000Y-102188000D03*
%TD*%
D10*
%TO.P,D7,2,A*%
%TO.N,Net-(D7-A)*%
X163225000Y-75840000D03*
D13*
%TO.P,D7,1,K*%
%TO.N,Net-(D7-K)*%
X155605000Y-75840000D03*
%TD*%
D10*
%TO.P,R4,2*%
%TO.N,Net-(D2-K)*%
X131064000Y-90060000D03*
%TO.P,R4,1*%
%TO.N,GND*%
X141224000Y-90060000D03*
%TD*%
%TO.P,R13,2*%
%TO.N,Net-(Q4-C)*%
X179605000Y-79810000D03*
%TO.P,R13,1*%
%TO.N,triangle 2*%
X169445000Y-79810000D03*
%TD*%
%TO.P,R31,2*%
%TO.N,Net-(Q9-E)*%
X161600000Y-49770000D03*
%TO.P,R31,1*%
%TO.N,-12V*%
X161600000Y-39610000D03*
%TD*%
%TO.P,R52,2*%
%TO.N,out*%
X154352000Y-113696000D03*
%TO.P,R52,1*%
%TO.N,Net-(R48-Pad2)*%
X144192000Y-113696000D03*
%TD*%
D14*
%TO.P,SW2,3,C*%
%TO.N,pulse*%
X169672000Y-56388000D03*
%TO.P,SW2,2,B*%
%TO.N,Net-(SW2-B)*%
X172212000Y-56388000D03*
D15*
%TO.P,SW2,1,A*%
%TO.N,sine*%
X174752000Y-56388000D03*
%TD*%
D10*
%TO.P,D3,2,A*%
%TO.N,Net-(D3-A)*%
X135122000Y-108188000D03*
D13*
%TO.P,D3,1,K*%
%TO.N,+12V*%
X127502000Y-108188000D03*
%TD*%
D10*
%TO.P,R11,2*%
%TO.N,accented trigger*%
X147902000Y-109616000D03*
%TO.P,R11,1*%
%TO.N,GND*%
X137742000Y-109616000D03*
%TD*%
D19*
%TO.P,C9,2*%
%TO.N,GND*%
X148052000Y-94528000D03*
%TO.P,C9,1*%
%TO.N,+12V*%
X148052000Y-99528000D03*
%TD*%
D10*
%TO.P,R28,2*%
%TO.N,Net-(C12-Pad1)*%
X180040000Y-42110000D03*
%TO.P,R28,1*%
%TO.N,Net-(Q9-E)*%
X169880000Y-42110000D03*
%TD*%
%TO.P,R9,1*%
%TO.N,Net-(D5-K)*%
X135096000Y-80106000D03*
%TO.P,R9,2*%
%TO.N,Net-(R9-Pad2)*%
X124936000Y-80106000D03*
%TD*%
D11*
%TO.P,Q12,3,E*%
%TO.N,Net-(Q12-E)*%
X173608000Y-97662000D03*
%TO.P,Q12,2,B*%
%TO.N,Net-(Q12-B)*%
X173608000Y-98932000D03*
D12*
%TO.P,Q12,1,C*%
%TO.N,Net-(Q12-C)*%
X173608000Y-100202000D03*
%TD*%
D10*
%TO.P,D15,2,A*%
%TO.N,tune 2*%
X161905000Y-70845000D03*
D13*
%TO.P,D15,1,K*%
%TO.N,Net-(D15-K)*%
X154285000Y-70845000D03*
%TD*%
D17*
%TO.P,Q7,3,E*%
%TO.N,Net-(D11-K)*%
X186690000Y-54970000D03*
%TO.P,Q7,2,B*%
%TO.N,Net-(Q7-B)*%
X185420000Y-54970000D03*
D18*
%TO.P,Q7,1,C*%
%TO.N,Net-(Q7-C)*%
X184150000Y-54970000D03*
%TD*%
D10*
%TO.P,R5,2*%
%TO.N,+12V*%
X141224000Y-99060000D03*
%TO.P,R5,1*%
%TO.N,Net-(U1B--)*%
X131064000Y-99060000D03*
%TD*%
%TO.P,D6,2,A*%
%TO.N,accented trigger*%
X178775000Y-87060000D03*
D13*
%TO.P,D6,1,K*%
%TO.N,Net-(D6-K)*%
X171155000Y-87060000D03*
%TD*%
D10*
%TO.P,R49,2*%
%TO.N,Net-(R49-Pad2)*%
X170006000Y-114094000D03*
%TO.P,R49,1*%
%TO.N,Net-(Q13-E)*%
X159846000Y-114094000D03*
%TD*%
%TO.P,D16,2,A*%
%TO.N,accented trigger*%
X161801000Y-104486000D03*
D13*
%TO.P,D16,1,K*%
%TO.N,Net-(D16-K)*%
X154181000Y-104486000D03*
%TD*%
D10*
%TO.P,R48,2*%
%TO.N,Net-(R48-Pad2)*%
X170528000Y-109932000D03*
%TO.P,R48,1*%
%TO.N,Net-(Q12-E)*%
X180688000Y-109932000D03*
%TD*%
%TO.P,R32,2*%
%TO.N,square 1*%
X125920000Y-44750000D03*
%TO.P,R32,1*%
%TO.N,Net-(U2B-+)*%
X136080000Y-44750000D03*
%TD*%
%TO.P,R30,2*%
%TO.N,Net-(Q9-B)*%
X158350000Y-49860000D03*
%TO.P,R30,1*%
%TO.N,GND*%
X158350000Y-39700000D03*
%TD*%
%TO.P,D10,2,A*%
%TO.N,GND*%
X179335000Y-72310000D03*
D13*
%TO.P,D10,1,K*%
%TO.N,sine*%
X171715000Y-72310000D03*
%TD*%
D10*
%TO.P,R2,2*%
%TO.N,Net-(U1B--)*%
X141224000Y-96060000D03*
%TO.P,R2,1*%
%TO.N,GND*%
X131064000Y-96060000D03*
%TD*%
%TO.P,D18,2,A*%
%TO.N,GND*%
X161801000Y-110486000D03*
D13*
%TO.P,D18,1,K*%
%TO.N,Net-(D17-A)*%
X154181000Y-110486000D03*
%TD*%
D16*
%TO.P,TP8,1,1*%
%TO.N,square 2*%
X185335000Y-69180000D03*
%TD*%
D10*
%TO.P,R17,2*%
%TO.N,Net-(R17-Pad2)*%
X191008000Y-80264000D03*
%TO.P,R17,1*%
%TO.N,+12V*%
X191008000Y-90424000D03*
%TD*%
%TO.P,R35,2*%
%TO.N,Net-(Q11-E)*%
X161925000Y-61595000D03*
%TO.P,R35,1*%
%TO.N,Net-(D15-K)*%
X151765000Y-61595000D03*
%TD*%
%TO.P,D9,2,A*%
%TO.N,sine*%
X171835000Y-69310000D03*
D20*
%TO.P,D9,1,K*%
%TO.N,GND*%
X179455000Y-69310000D03*
%TD*%
D16*
%TO.P,TP10,1,1*%
%TO.N,accented trigger*%
X180090100Y-89659300D03*
%TD*%
D14*
%TO.P,RV2,3,3*%
%TO.N,tune 2*%
X192532000Y-104648000D03*
%TO.P,RV2,2,2*%
%TO.N,Net-(R9-Pad2)*%
X192532000Y-107188000D03*
D15*
%TO.P,RV2,1,1*%
X192532000Y-109728000D03*
%TD*%
D13*
%TO.P,D5,1,K*%
%TO.N,Net-(D5-K)*%
X125476000Y-86106000D03*
D10*
%TO.P,D5,2,A*%
%TO.N,Net-(D1-K)*%
X133096000Y-86106000D03*
%TD*%
D11*
%TO.P,Q5,3,E*%
%TO.N,Net-(Q5-E)*%
X161335000Y-85640000D03*
%TO.P,Q5,2,B*%
%TO.N,Net-(D7-K)*%
X161335000Y-86910000D03*
D12*
%TO.P,Q5,1,C*%
%TO.N,GND*%
X161335000Y-88180000D03*
%TD*%
D10*
%TO.P,R1,2*%
%TO.N,gate in*%
X131064000Y-93060000D03*
%TO.P,R1,1*%
%TO.N,GND*%
X141224000Y-93060000D03*
%TD*%
D11*
%TO.P,Q2,3,E*%
%TO.N,accented trigger*%
X146918000Y-102616000D03*
%TO.P,Q2,2,B*%
%TO.N,Net-(Q2-B)*%
X146918000Y-103886000D03*
D12*
%TO.P,Q2,1,C*%
%TO.N,+12V*%
X146918000Y-105156000D03*
%TD*%
D17*
%TO.P,Q9,3,E*%
%TO.N,Net-(Q9-E)*%
X189865000Y-54250000D03*
%TO.P,Q9,2,B*%
%TO.N,Net-(Q9-B)*%
X191135000Y-54250000D03*
D18*
%TO.P,Q9,1,C*%
%TO.N,+12V*%
X192405000Y-54250000D03*
%TD*%
D10*
%TO.P,R47,2*%
%TO.N,Net-(U2D-+)*%
X150080000Y-32750000D03*
%TO.P,R47,1*%
%TO.N,GND*%
X139920000Y-32750000D03*
%TD*%
%TO.P,R23,2*%
%TO.N,Net-(Q8-B)*%
X122730000Y-61214000D03*
%TO.P,R23,1*%
%TO.N,trigger*%
X122730000Y-71374000D03*
%TD*%
%TO.P,R8,2*%
%TO.N,Net-(Q2-B)*%
X131726000Y-117140000D03*
%TO.P,R8,1*%
%TO.N,trigger*%
X141886000Y-117140000D03*
%TD*%
D14*
%TO.P,RV3,3,3*%
%TO.N,Net-(R7-Pad2)*%
X195580000Y-67056000D03*
%TO.P,RV3,2,2*%
X193040000Y-67056000D03*
D15*
%TO.P,RV3,1,1*%
%TO.N,Net-(D1-K)*%
X190500000Y-67056000D03*
%TD*%
D14*
%TO.P,RV4,3,3*%
%TO.N,+12V*%
X195580000Y-71628000D03*
%TO.P,RV4,2,2*%
%TO.N,tune 1*%
X195580000Y-74168000D03*
D15*
%TO.P,RV4,1,1*%
%TO.N,Net-(Q3-E)*%
X195580000Y-76708000D03*
%TD*%
D10*
%TO.P,C13,2*%
%TO.N,Net-(Q8-E)*%
X129605000Y-61610000D03*
%TO.P,C13,1*%
%TO.N,Net-(SW1-A)*%
X129605000Y-66610000D03*
%TD*%
%TO.P,R20,2*%
%TO.N,Net-(U2A-+)*%
X125920000Y-38750000D03*
%TO.P,R20,1*%
%TO.N,tune 1*%
X136080000Y-38750000D03*
%TD*%
D16*
%TO.P,TP5,1,1*%
%TO.N,sine*%
X187335000Y-80180000D03*
%TD*%
D10*
%TO.P,C16,2*%
%TO.N,GND*%
X166119000Y-109526000D03*
%TO.P,C16,1*%
%TO.N,Net-(D16-K)*%
X166119000Y-104526000D03*
%TD*%
D11*
%TO.P,Q3,3,E*%
%TO.N,Net-(Q3-E)*%
X153715000Y-85590000D03*
%TO.P,Q3,2,B*%
%TO.N,Net-(D7-K)*%
X153715000Y-86860000D03*
D12*
%TO.P,Q3,1,C*%
%TO.N,GND*%
X153715000Y-88130000D03*
%TD*%
D10*
%TO.P,U2,14*%
%TO.N,square 2*%
X144855000Y-56910000D03*
%TO.P,U2,13,-*%
%TO.N,triangle 2*%
X144855000Y-59450000D03*
%TO.P,U2,12,+*%
%TO.N,Net-(U2D-+)*%
X144855000Y-61990000D03*
%TO.P,U2,11,V-*%
%TO.N,-12V*%
X144855000Y-64530000D03*
%TO.P,U2,10,+*%
%TO.N,Net-(U2C-+)*%
X144855000Y-67070000D03*
%TO.P,U2,9,-*%
%TO.N,Net-(Q11-E)*%
X144855000Y-69610000D03*
%TO.P,U2,8*%
%TO.N,triangle 2*%
X144855000Y-72150000D03*
%TO.P,U2,7*%
%TO.N,square 1*%
X137235000Y-72150000D03*
%TO.P,U2,6,-*%
%TO.N,Net-(SW1-A)*%
X137235000Y-69610000D03*
%TO.P,U2,5,+*%
%TO.N,Net-(U2B-+)*%
X137235000Y-67070000D03*
%TO.P,U2,4,V+*%
%TO.N,+12V*%
X137235000Y-64530000D03*
%TO.P,U2,3,+*%
%TO.N,Net-(U2A-+)*%
X137235000Y-61990000D03*
%TO.P,U2,2,-*%
%TO.N,Net-(Q8-E)*%
X137235000Y-59450000D03*
D13*
%TO.P,U2,1*%
%TO.N,Net-(SW1-A)*%
X137235000Y-56910000D03*
%TD*%
D10*
%TO.P,R27,2*%
%TO.N,Net-(SW1-A)*%
X125730000Y-61214000D03*
%TO.P,R27,1*%
%TO.N,Net-(Q8-C)*%
X125730000Y-71374000D03*
%TD*%
%TO.P,R25,2*%
%TO.N,Net-(Q7-C)*%
X165100000Y-49690000D03*
%TO.P,R25,1*%
%TO.N,-12V*%
X165100000Y-39530000D03*
%TD*%
D17*
%TO.P,Q8,3,E*%
%TO.N,Net-(Q8-E)*%
X126855000Y-56720000D03*
%TO.P,Q8,2,B*%
%TO.N,Net-(Q8-B)*%
X125585000Y-56720000D03*
D18*
%TO.P,Q8,1,C*%
%TO.N,Net-(Q8-C)*%
X124315000Y-56720000D03*
%TD*%
D10*
%TO.P,R26,2*%
%TO.N,square 1*%
X125920000Y-41750000D03*
%TO.P,R26,1*%
%TO.N,Net-(Q6-B)*%
X136080000Y-41750000D03*
%TD*%
%TO.P,U1,8,V+*%
%TO.N,+12V*%
X151242000Y-100338000D03*
%TO.P,U1,7*%
%TO.N,trigger*%
X151242000Y-97798000D03*
%TO.P,U1,6,-*%
%TO.N,Net-(U1B--)*%
X151242000Y-95258000D03*
%TO.P,U1,5,+*%
%TO.N,Net-(D2-K)*%
X151242000Y-92718000D03*
%TO.P,U1,4,V-*%
%TO.N,-12V*%
X158862000Y-92718000D03*
%TO.P,U1,3,+*%
%TO.N,GND*%
X158862000Y-95258000D03*
%TO.P,U1,2,-*%
%TO.N,Net-(Q12-E)*%
X158862000Y-97798000D03*
D20*
%TO.P,U1,1*%
%TO.N,Net-(R48-Pad2)*%
X158862000Y-100338000D03*
%TD*%
D10*
%TO.P,R12,2*%
%TO.N,sine*%
X179605000Y-75760000D03*
%TO.P,R12,1*%
%TO.N,triangle 2*%
X169445000Y-75760000D03*
%TD*%
D19*
%TO.P,C5,2*%
%TO.N,GND*%
X154000000Y-30000000D03*
%TO.P,C5,1*%
%TO.N,+12V*%
X154000000Y-25000000D03*
%TD*%
D10*
%TO.P,R15,2*%
%TO.N,Net-(D7-K)*%
X162765000Y-78840000D03*
%TO.P,R15,1*%
%TO.N,-12V*%
X152605000Y-78840000D03*
%TD*%
%TO.P,D11,2,A*%
%TO.N,square 1*%
X179850000Y-45110000D03*
D13*
%TO.P,D11,1,K*%
%TO.N,Net-(D11-K)*%
X172230000Y-45110000D03*
%TD*%
D14*
%TO.P,RV5,3,3*%
%TO.N,Net-(R17-Pad2)*%
X197104000Y-82804000D03*
%TO.P,RV5,2,2*%
%TO.N,Net-(R18-Pad1)*%
X197104000Y-85344000D03*
D15*
%TO.P,RV5,1,1*%
%TO.N,Net-(Q5-E)*%
X197104000Y-87884000D03*
%TD*%
D10*
%TO.P,D8,2,A*%
%TO.N,trigger*%
X178915000Y-62610000D03*
D13*
%TO.P,D8,1,K*%
%TO.N,Net-(D8-K)*%
X171295000Y-62610000D03*
%TD*%
D16*
%TO.P,TP3,1,1*%
%TO.N,square 1*%
X183734100Y-45927300D03*
%TD*%
D17*
%TO.P,Q10,3,E*%
%TO.N,GND*%
X142080000Y-49000000D03*
%TO.P,Q10,2,B*%
%TO.N,Net-(Q10-B)*%
X140810000Y-49000000D03*
D18*
%TO.P,Q10,1,C*%
%TO.N,Net-(Q10-C)*%
X139540000Y-49000000D03*
%TD*%
D10*
%TO.P,D13,2,A*%
%TO.N,Net-(D13-A)*%
X172170000Y-48110000D03*
D20*
%TO.P,D13,1,K*%
%TO.N,square 1*%
X179790000Y-48110000D03*
%TD*%
D17*
%TO.P,Q4,3,E*%
%TO.N,sine*%
X186105000Y-88110000D03*
%TO.P,Q4,2,B*%
%TO.N,Net-(Q4-B)*%
X184835000Y-88110000D03*
D18*
%TO.P,Q4,1,C*%
%TO.N,Net-(Q4-C)*%
X183565000Y-88110000D03*
%TD*%
D16*
%TO.P,TP6,1,1*%
%TO.N,Net-(C15-Pad1)*%
X186080000Y-34680000D03*
%TD*%
D14*
%TO.P,J1,10,Pin_10*%
%TO.N,-12V*%
X186055000Y-26035000D03*
%TO.P,J1,9,Pin_9*%
X186055000Y-23495000D03*
%TO.P,J1,8,Pin_8*%
%TO.N,GND*%
X188595000Y-26035000D03*
%TO.P,J1,7,Pin_7*%
X188595000Y-23495000D03*
%TO.P,J1,6,Pin_6*%
X191135000Y-26035000D03*
%TO.P,J1,5,Pin_5*%
X191135000Y-23495000D03*
%TO.P,J1,4,Pin_4*%
X193675000Y-26035000D03*
%TO.P,J1,3,Pin_3*%
X193675000Y-23495000D03*
%TO.P,J1,2,Pin_2*%
%TO.N,+12V*%
X196215000Y-26035000D03*
D15*
%TO.P,J1,1,Pin_1*%
X196215000Y-23495000D03*
%TD*%
D10*
%TO.P,R51,2*%
%TO.N,Net-(R49-Pad2)*%
X154432000Y-117348000D03*
%TO.P,R51,1*%
%TO.N,GND*%
X144272000Y-117348000D03*
%TD*%
%TO.P,R14,2*%
%TO.N,Net-(Q4-B)*%
X179605000Y-83860000D03*
%TO.P,R14,1*%
%TO.N,Net-(D6-K)*%
X169445000Y-83860000D03*
%TD*%
%TO.P,D14,2,A*%
%TO.N,Net-(D13-A)*%
X172290000Y-51110000D03*
D20*
%TO.P,D14,1,K*%
%TO.N,square 2*%
X179910000Y-51110000D03*
%TD*%
D19*
%TO.P,C6,2*%
%TO.N,-12V*%
X157000000Y-25000000D03*
%TO.P,C6,1*%
%TO.N,GND*%
X157000000Y-30000000D03*
%TD*%
D10*
%TO.P,R40,2*%
%TO.N,Net-(Q12-C)*%
X180768000Y-106662000D03*
%TO.P,R40,1*%
%TO.N,GND*%
X170608000Y-106662000D03*
%TD*%
%TO.P,D12,2,A*%
%TO.N,square 2*%
X192550000Y-45425000D03*
D21*
%TO.P,D12,1,K*%
%TO.N,Net-(D11-K)*%
X192550000Y-37805000D03*
%TD*%
D10*
%TO.P,R36,2*%
%TO.N,Net-(U2C-+)*%
X161925000Y-64595000D03*
%TO.P,R36,1*%
%TO.N,Net-(D15-K)*%
X151765000Y-64595000D03*
%TD*%
%TO.P,D17,2,A*%
%TO.N,Net-(D17-A)*%
X161801000Y-107486000D03*
D13*
%TO.P,D17,1,K*%
%TO.N,+12V*%
X154181000Y-107486000D03*
%TD*%
D10*
%TO.P,R24,2*%
%TO.N,Net-(U2A-+)*%
X136080000Y-50750000D03*
%TO.P,R24,1*%
%TO.N,GND*%
X125920000Y-50750000D03*
%TD*%
D14*
%TO.P,J2,6,Pin_6*%
%TO.N,GND*%
X196596000Y-117094000D03*
%TO.P,J2,5,Pin_5*%
%TO.N,out*%
X196596000Y-114554000D03*
%TO.P,J2,4,Pin_4*%
%TO.N,decay cv*%
X196596000Y-112014000D03*
%TO.P,J2,3,Pin_3*%
%TO.N,accent cv*%
X196596000Y-109474000D03*
%TO.P,J2,2,Pin_2*%
%TO.N,tune cv*%
X196596000Y-106934000D03*
D15*
%TO.P,J2,1,Pin_1*%
%TO.N,gate in*%
X196596000Y-104394000D03*
%TD*%
D10*
%TO.P,R38,2*%
%TO.N,Net-(Q11-E)*%
X161925000Y-58595000D03*
%TO.P,R38,1*%
%TO.N,Net-(Q10-C)*%
X151765000Y-58595000D03*
%TD*%
%TO.P,R19,2*%
%TO.N,Net-(Q8-E)*%
X125920000Y-35750000D03*
%TO.P,R19,1*%
%TO.N,tune 1*%
X136080000Y-35750000D03*
%TD*%
D14*
%TO.P,SW1,3,C*%
%TO.N,GND*%
X145415000Y-82550000D03*
%TO.P,SW1,2,B*%
%TO.N,Net-(SW1-B)*%
X145415000Y-80010000D03*
D15*
%TO.P,SW1,1,A*%
%TO.N,Net-(SW1-A)*%
X145415000Y-77470000D03*
%TD*%
D10*
%TO.P,R16,2*%
%TO.N,sine*%
X180275000Y-66060000D03*
%TO.P,R16,1*%
%TO.N,Net-(D8-K)*%
X170115000Y-66060000D03*
%TD*%
%TO.P,R46,2*%
%TO.N,triangle 2*%
X161925000Y-55595000D03*
%TO.P,R46,1*%
%TO.N,Net-(Q11-C)*%
X151765000Y-55595000D03*
%TD*%
D16*
%TO.P,TP2,1,1*%
%TO.N,Net-(SW1-A)*%
X140419800Y-77555900D03*
%TD*%
D10*
%TO.P,R45,2*%
%TO.N,Net-(R45-Pad2)*%
X175768000Y-90932000D03*
%TO.P,R45,1*%
%TO.N,Net-(D16-K)*%
X165608000Y-90932000D03*
%TD*%
D19*
%TO.P,RV6,3,3*%
%TO.N,Net-(R45-Pad2)*%
X185605000Y-95030000D03*
%TO.P,RV6,2,2*%
X185605000Y-97570000D03*
%TO.P,RV6,1,1*%
%TO.N,Net-(Q12-E)*%
X185605000Y-100110000D03*
%TD*%
%TO.P,C7,2*%
%TO.N,GND*%
X133605000Y-61610000D03*
%TO.P,C7,1*%
%TO.N,+12V*%
X133605000Y-66610000D03*
%TD*%
D22*
%TO.N,Net-(R48-Pad2)*%
X157424100Y-112338100D03*
%TO.N,Net-(R9-Pad2)*%
X134458000Y-106426200D03*
%TO.N,tune 1*%
X194579000Y-36907100D03*
%TO.N,Net-(Q11-E)*%
X154832500Y-57643300D03*
%TO.N,Net-(Q10-B)*%
X141295000Y-42855200D03*
%TO.N,Net-(Q9-B)*%
X177650500Y-56584900D03*
%TO.N,Net-(Q7-C)*%
X182673500Y-52711800D03*
%TO.N,Net-(Q3-E)*%
X154112200Y-80125800D03*
%TO.N,Net-(Q2-B)*%
X147644700Y-107747400D03*
%TO.N,accent cv*%
X141239400Y-108191300D03*
X141239400Y-105623600D03*
%TO.N,square 2*%
X144855000Y-50390300D03*
%TO.N,Net-(D6-K)*%
X183192600Y-83074500D03*
%TO.N,trigger*%
X147775000Y-76980600D03*
%TO.N,accented trigger*%
X179273200Y-100163600D03*
X161818800Y-101082100D03*
%TO.N,tune 2*%
X165063300Y-103247500D03*
%TO.N,Net-(D7-A)*%
X189704400Y-76789200D03*
%TO.N,-12V*%
X150644300Y-78944800D03*
%TO.N,Net-(D16-K)*%
X186962100Y-104011400D03*
%TO.N,Net-(Q9-E)*%
X176737700Y-56297700D03*
%TD*%
D23*
%TO.N,Net-(R48-Pad2)*%
X158862000Y-110900200D02*
X157424100Y-112338100D01*
X158862000Y-100338000D02*
X158862000Y-110900200D01*
%TO.N,Net-(U2D-+)*%
X150080000Y-35750000D02*
X150080000Y-34250000D01*
X150080000Y-34250000D02*
X150080000Y-32750000D01*
X145970500Y-60874500D02*
X144855000Y-61990000D01*
X145970500Y-56309200D02*
X145970500Y-60874500D01*
X145483300Y-55822000D02*
X145970500Y-56309200D01*
X145483300Y-40312100D02*
X145483300Y-55822000D01*
X150080000Y-35715400D02*
X145483300Y-40312100D01*
X150080000Y-34250000D02*
X150080000Y-35715400D01*
%TO.N,Net-(R45-Pad2)*%
X185605000Y-97570000D02*
X185605000Y-95030000D01*
%TO.N,Net-(U2C-+)*%
X161925000Y-64595000D02*
X161925000Y-67595000D01*
%TO.N,Net-(U2B-+)*%
X136080000Y-47750000D02*
X136080000Y-46250000D01*
X136080000Y-46250000D02*
X136080000Y-44750000D01*
X137235000Y-66470300D02*
X137235000Y-67070000D01*
X134970700Y-64206000D02*
X137235000Y-66470300D01*
X134970700Y-48625400D02*
X134970700Y-64206000D01*
X136080000Y-47516100D02*
X134970700Y-48625400D01*
X136080000Y-46250000D02*
X136080000Y-47516100D01*
%TO.N,Net-(U2A-+)*%
X136080000Y-60835000D02*
X136080000Y-50750000D01*
X137235000Y-61990000D02*
X136080000Y-60835000D01*
%TO.N,Net-(SW2-B)*%
X172963000Y-57139000D02*
X172212000Y-56388000D01*
X172963000Y-91316200D02*
X172963000Y-57139000D01*
X170608000Y-93671200D02*
X172963000Y-91316200D01*
X170608000Y-103662000D02*
X170608000Y-93671200D01*
%TO.N,Net-(SW1-B)*%
X146584700Y-97255300D02*
X144272000Y-99568000D01*
X146584700Y-81179700D02*
X146584700Y-97255300D01*
X145415000Y-80010000D02*
X146584700Y-81179700D01*
%TO.N,Net-(R9-Pad2)*%
X192532000Y-109728000D02*
X192532000Y-107188000D01*
X129935900Y-106426200D02*
X134458000Y-106426200D01*
X124892100Y-101382400D02*
X129935900Y-106426200D01*
X124892100Y-88680500D02*
X124892100Y-101382400D01*
X124349400Y-88137800D02*
X124892100Y-88680500D01*
X124349400Y-80692600D02*
X124349400Y-88137800D01*
X124936000Y-80106000D02*
X124349400Y-80692600D01*
%TO.N,Net-(R7-Pad2)*%
X193040000Y-61976000D02*
X193040000Y-67056000D01*
X192024000Y-60960000D02*
X193040000Y-61976000D01*
%TO.N,Net-(Q12-C)*%
X180768000Y-106662000D02*
X180768000Y-103662000D01*
X178134700Y-101028700D02*
X180768000Y-103662000D01*
X173608000Y-101028700D02*
X178134700Y-101028700D01*
X173608000Y-100202000D02*
X173608000Y-101028700D01*
%TO.N,tune 1*%
X136080000Y-35750000D02*
X136080000Y-38750000D01*
X196969800Y-72778200D02*
X195580000Y-74168000D01*
X196969800Y-39297900D02*
X196969800Y-72778200D01*
X194579000Y-36907100D02*
X196969800Y-39297900D01*
%TO.N,Net-(Q12-B)*%
X174659700Y-95040300D02*
X175768000Y-93932000D01*
X174659700Y-98932000D02*
X174659700Y-95040300D01*
X173608000Y-98932000D02*
X174659700Y-98932000D01*
%TO.N,Net-(Q12-E)*%
X185605000Y-105015000D02*
X185605000Y-100110000D01*
X180688000Y-109932000D02*
X185605000Y-105015000D01*
%TO.N,Net-(Q11-E)*%
X161925000Y-58595000D02*
X161925000Y-61595000D01*
X154832500Y-55092500D02*
X154832500Y-57643300D01*
X149676700Y-49936700D02*
X154832500Y-55092500D01*
X149676700Y-49110000D02*
X149676700Y-49936700D01*
X148850000Y-49110000D02*
X149676700Y-49110000D01*
%TO.N,Net-(Q10-B)*%
X140810000Y-43340200D02*
X141295000Y-42855200D01*
X140810000Y-49000000D02*
X140810000Y-43340200D01*
%TO.N,Net-(Q11-C)*%
X146331700Y-50161700D02*
X146310000Y-50161700D01*
X151765000Y-55595000D02*
X146331700Y-50161700D01*
X146310000Y-49110000D02*
X146310000Y-50161700D01*
%TO.N,Net-(Q9-B)*%
X177650500Y-38970500D02*
X177040000Y-38360000D01*
X177650500Y-56584900D02*
X177650500Y-38970500D01*
%TO.N,Net-(Q7-C)*%
X160350000Y-44940000D02*
X165100000Y-49690000D01*
X160350000Y-35360000D02*
X160350000Y-44940000D01*
X166045000Y-49690000D02*
X167948900Y-51593900D01*
X165100000Y-49690000D02*
X166045000Y-49690000D01*
X168750600Y-51593900D02*
X167948900Y-51593900D01*
X183323300Y-53361600D02*
X182673500Y-52711800D01*
X183323300Y-54970000D02*
X183323300Y-53361600D01*
X184150000Y-54970000D02*
X183323300Y-54970000D01*
%TO.N,Net-(Q6-C)*%
X130335000Y-38495000D02*
X130335000Y-56610000D01*
X136080000Y-32750000D02*
X130335000Y-38495000D01*
%TO.N,Net-(Q6-B)*%
X131605000Y-46225000D02*
X136080000Y-41750000D01*
X131605000Y-56610000D02*
X131605000Y-46225000D01*
%TO.N,Net-(Q11-B)*%
X147580000Y-44500000D02*
X150080000Y-42000000D01*
X147580000Y-49110000D02*
X147580000Y-44500000D01*
%TO.N,Net-(Q8-C)*%
X124315000Y-69959000D02*
X124315000Y-56720000D01*
X125730000Y-71374000D02*
X124315000Y-69959000D01*
%TO.N,Net-(Q4-C)*%
X181322200Y-86693900D02*
X182738300Y-88110000D01*
X181322200Y-81527200D02*
X181322200Y-86693900D01*
X179605000Y-79810000D02*
X181322200Y-81527200D01*
X183565000Y-88110000D02*
X182738300Y-88110000D01*
%TO.N,Net-(Q4-B)*%
X179605000Y-85869800D02*
X179605000Y-83860000D01*
X182896900Y-89161700D02*
X179605000Y-85869800D01*
X184835000Y-89161700D02*
X182896900Y-89161700D01*
X184835000Y-88110000D02*
X184835000Y-89161700D01*
%TO.N,Net-(Q3-E)*%
X154112200Y-84366100D02*
X153715000Y-84763300D01*
X154112200Y-80125800D02*
X154112200Y-84366100D01*
X153715000Y-85590000D02*
X153715000Y-84763300D01*
%TO.N,Net-(Q2-B)*%
X131726000Y-114140000D02*
X131726000Y-117140000D01*
X146918000Y-103886000D02*
X147969700Y-103886000D01*
X147969700Y-107422400D02*
X147969700Y-103886000D01*
X147644700Y-107747400D02*
X147969700Y-107422400D01*
%TO.N,Net-(D17-A)*%
X169926000Y-115611000D02*
X161801000Y-107486000D01*
X169926000Y-117094000D02*
X169926000Y-115611000D01*
%TO.N,tune cv*%
X191008000Y-94996000D02*
X191008000Y-96147700D01*
X191263500Y-96147700D02*
X191008000Y-96147700D01*
X192326000Y-97210200D02*
X191263500Y-96147700D01*
X192326000Y-102664000D02*
X192326000Y-97210200D01*
X196596000Y-106934000D02*
X192326000Y-102664000D01*
%TO.N,accent cv*%
X141239400Y-108191300D02*
X141239400Y-105623600D01*
%TO.N,Net-(D15-K)*%
X151765000Y-61595000D02*
X151765000Y-63095000D01*
X151765000Y-63095000D02*
X151765000Y-64595000D01*
X154285000Y-67071200D02*
X154285000Y-70845000D01*
X151765000Y-64551200D02*
X154285000Y-67071200D01*
X151765000Y-63095000D02*
X151765000Y-64551200D01*
%TO.N,Net-(D13-A)*%
X172290000Y-48230000D02*
X172170000Y-48110000D01*
X172290000Y-51110000D02*
X172290000Y-48230000D01*
%TO.N,Net-(D8-K)*%
X170115000Y-63790000D02*
X170115000Y-66060000D01*
X171295000Y-62610000D02*
X170115000Y-63790000D01*
%TO.N,square 2*%
X179910000Y-57444700D02*
X179910000Y-51110000D01*
X185335000Y-62869700D02*
X179910000Y-57444700D01*
X185335000Y-69180000D02*
X185335000Y-62869700D01*
X139920000Y-39000000D02*
X139920000Y-35750000D01*
X144855000Y-56910000D02*
X144855000Y-50390300D01*
X144855000Y-43935000D02*
X139920000Y-39000000D01*
X144855000Y-50390300D02*
X144855000Y-43935000D01*
%TO.N,square 1*%
X179790000Y-45170000D02*
X179790000Y-48110000D01*
X179850000Y-45110000D02*
X179790000Y-45170000D01*
X125920000Y-41750000D02*
X125920000Y-44750000D01*
X182115100Y-45110000D02*
X182932400Y-45927300D01*
X179850000Y-45110000D02*
X182115100Y-45110000D01*
X183734100Y-45927300D02*
X182932400Y-45927300D01*
X135795200Y-70710200D02*
X137235000Y-72150000D01*
X135795200Y-65783000D02*
X135795200Y-70710200D01*
X129508300Y-59496100D02*
X135795200Y-65783000D01*
X129508300Y-48338300D02*
X129508300Y-59496100D01*
X125920000Y-44750000D02*
X129508300Y-48338300D01*
%TO.N,Net-(D7-K)*%
X160283300Y-80518300D02*
X155605000Y-75840000D01*
X160283300Y-86910000D02*
X160283300Y-80518300D01*
X161335000Y-86910000D02*
X160283300Y-86910000D01*
%TO.N,Net-(D6-K)*%
X171155000Y-85570000D02*
X171155000Y-87060000D01*
X169445000Y-83860000D02*
X171155000Y-85570000D01*
X183355000Y-82912100D02*
X183355000Y-72860000D01*
X183192600Y-83074500D02*
X183355000Y-82912100D01*
%TO.N,trigger*%
X149802100Y-99642200D02*
X149802100Y-97798000D01*
X147993700Y-101450600D02*
X149802100Y-99642200D01*
X146677700Y-101450600D02*
X147993700Y-101450600D01*
X143038900Y-105089400D02*
X146677700Y-101450600D01*
X143038900Y-115987100D02*
X143038900Y-105089400D01*
X141886000Y-117140000D02*
X143038900Y-115987100D01*
X149802100Y-97798000D02*
X151242000Y-97798000D01*
X142111000Y-71316600D02*
X147775000Y-76980600D01*
X142111000Y-57216200D02*
X142111000Y-71316600D01*
X138678600Y-53783800D02*
X142111000Y-57216200D01*
X138678600Y-43241400D02*
X138678600Y-53783800D01*
X139920000Y-42000000D02*
X138678600Y-43241400D01*
X149802100Y-79007700D02*
X149802100Y-97798000D01*
X147775000Y-76980600D02*
X149802100Y-79007700D01*
%TO.N,accented trigger*%
X180090100Y-88375100D02*
X180090100Y-89659300D01*
X178775000Y-87060000D02*
X180090100Y-88375100D01*
X146918000Y-102616000D02*
X147969700Y-102616000D01*
X180090100Y-89659300D02*
X180090100Y-90461000D01*
X179273200Y-91277900D02*
X180090100Y-90461000D01*
X179273200Y-100163600D02*
X179273200Y-91277900D01*
X161818800Y-104468200D02*
X161818800Y-101082100D01*
X161801000Y-104486000D02*
X161818800Y-104468200D01*
X148371400Y-103017700D02*
X147969700Y-102616000D01*
X148371400Y-109146600D02*
X148371400Y-103017700D01*
X147902000Y-109616000D02*
X148371400Y-109146600D01*
%TO.N,sine*%
X171835000Y-72190000D02*
X171835000Y-69310000D01*
X171715000Y-72310000D02*
X171835000Y-72190000D01*
X174752000Y-60537000D02*
X180275000Y-66060000D01*
X174752000Y-56388000D02*
X174752000Y-60537000D01*
X186931700Y-81385000D02*
X187335000Y-80981700D01*
X186931700Y-88110000D02*
X186931700Y-81385000D01*
X187335000Y-80180000D02*
X187335000Y-80981700D01*
X186105000Y-88110000D02*
X186518400Y-88110000D01*
X186518400Y-88110000D02*
X186931700Y-88110000D01*
X181723900Y-77878900D02*
X179605000Y-75760000D01*
X181723900Y-83315500D02*
X181723900Y-77878900D01*
X186518400Y-88110000D02*
X181723900Y-83315500D01*
%TO.N,tune 2*%
X161645000Y-80720000D02*
X162765000Y-81840000D01*
X161645000Y-71105000D02*
X161645000Y-80720000D01*
X161905000Y-70845000D02*
X161645000Y-71105000D01*
X164490400Y-83565400D02*
X162765000Y-81840000D01*
X164490400Y-102674600D02*
X164490400Y-83565400D01*
X165063300Y-103247500D02*
X164490400Y-102674600D01*
%TO.N,Net-(D2-K)*%
X127582000Y-93542000D02*
X127582000Y-102188000D01*
X131064000Y-90060000D02*
X127582000Y-93542000D01*
%TO.N,Net-(D7-A)*%
X189704400Y-96232400D02*
X191008000Y-97536000D01*
X189704400Y-76789200D02*
X189704400Y-96232400D01*
%TO.N,-12V*%
X186055000Y-23495000D02*
X186055000Y-26035000D01*
X161600000Y-29600000D02*
X157000000Y-25000000D01*
X161600000Y-39610000D02*
X161600000Y-29600000D01*
X148595000Y-76895500D02*
X148595000Y-62095000D01*
X150644300Y-78944800D02*
X148595000Y-76895500D01*
X158862000Y-83796100D02*
X153905900Y-78840000D01*
X158862000Y-92718000D02*
X158862000Y-83796100D01*
X153905900Y-78840000D02*
X152605000Y-78840000D01*
X155500100Y-26499900D02*
X157000000Y-25000000D01*
X155500100Y-71511400D02*
X155500100Y-26499900D01*
X153905900Y-73105600D02*
X155500100Y-71511400D01*
X153905900Y-78840000D02*
X153905900Y-73105600D01*
%TO.N,+12V*%
X151242000Y-104547000D02*
X154181000Y-107486000D01*
X151242000Y-100338000D02*
X151242000Y-104547000D01*
X133605000Y-71725300D02*
X133605000Y-66610000D01*
X137652400Y-75772700D02*
X133605000Y-71725300D01*
X137652400Y-95488400D02*
X137652400Y-75772700D01*
X141224000Y-99060000D02*
X137652400Y-95488400D01*
X194310000Y-70358000D02*
X195580000Y-71628000D01*
X194310000Y-55328300D02*
X194310000Y-70358000D01*
X193231700Y-54250000D02*
X194310000Y-55328300D01*
X194190200Y-73017800D02*
X195580000Y-71628000D01*
X194190200Y-87241800D02*
X194190200Y-73017800D01*
X191008000Y-90424000D02*
X194190200Y-87241800D01*
X192405000Y-54250000D02*
X192818400Y-54250000D01*
X192818400Y-54250000D02*
X193231700Y-54250000D01*
X196215000Y-26035000D02*
X196215000Y-23495000D01*
X193977300Y-53091100D02*
X192818400Y-54250000D01*
X193977300Y-28272700D02*
X193977300Y-53091100D01*
X196215000Y-26035000D02*
X193977300Y-28272700D01*
%TO.N,Net-(D16-K)*%
X165608000Y-93932000D02*
X165608000Y-90932000D01*
X166119000Y-94443000D02*
X165608000Y-93932000D01*
X166119000Y-104526000D02*
X166119000Y-94443000D01*
X165608000Y-89701700D02*
X165608000Y-90932000D01*
X166116000Y-89193700D02*
X165608000Y-89701700D01*
X166116000Y-88392000D02*
X166116000Y-89193700D01*
X186182000Y-104791500D02*
X186962100Y-104011400D01*
X186182000Y-117094000D02*
X186182000Y-104791500D01*
X186962100Y-104011400D02*
X186208700Y-104764800D01*
X186208700Y-104764800D02*
X186962100Y-104011400D01*
%TO.N,Net-(D3-A)*%
X136504000Y-103886000D02*
X135202000Y-105188000D01*
X139918000Y-103886000D02*
X136504000Y-103886000D01*
X135202000Y-108108000D02*
X135202000Y-105188000D01*
X135122000Y-108188000D02*
X135202000Y-108108000D01*
%TO.N,Net-(D11-K)*%
X186690000Y-43665000D02*
X186690000Y-54970000D01*
X192550000Y-37805000D02*
X186690000Y-43665000D01*
%TO.N,Net-(SW1-A)*%
X140419800Y-72794800D02*
X137235000Y-69610000D01*
X140419800Y-77555900D02*
X140419800Y-72794800D01*
X141307400Y-77470000D02*
X141221500Y-77555900D01*
X145415000Y-77470000D02*
X141307400Y-77470000D01*
X140419800Y-77555900D02*
X141221500Y-77555900D01*
X129605000Y-65089000D02*
X129605000Y-66610000D01*
X125730000Y-61214000D02*
X129605000Y-65089000D01*
X138336700Y-68508300D02*
X137235000Y-69610000D01*
X138336700Y-58011700D02*
X138336700Y-68508300D01*
X137235000Y-56910000D02*
X138336700Y-58011700D01*
%TO.N,Net-(Q8-E)*%
X125920000Y-35750000D02*
X125920000Y-32750000D01*
X126855000Y-58860000D02*
X126855000Y-56720000D01*
X129605000Y-61610000D02*
X126855000Y-58860000D01*
X124792000Y-36878000D02*
X125920000Y-35750000D01*
X124792000Y-51180000D02*
X124792000Y-36878000D01*
X126855000Y-53243000D02*
X124792000Y-51180000D01*
X126855000Y-56720000D02*
X126855000Y-53243000D01*
%TO.N,Net-(Q9-E)*%
X169880000Y-51892400D02*
X169880000Y-42110000D01*
X169376800Y-52395600D02*
X169880000Y-51892400D01*
X164225600Y-52395600D02*
X169376800Y-52395600D01*
X161600000Y-49770000D02*
X164225600Y-52395600D01*
X176737700Y-41057700D02*
X176737700Y-56297700D01*
X174040000Y-38360000D02*
X176737700Y-41057700D01*
%TO.N,Net-(C15-Pad1)*%
X186881700Y-34811700D02*
X186881700Y-34680000D01*
X188850000Y-36780000D02*
X186881700Y-34811700D01*
X186080000Y-34680000D02*
X186881700Y-34680000D01*
%TO.N,GND*%
X193675000Y-23495000D02*
X193675000Y-26035000D01*
X191135000Y-23495000D02*
X191135000Y-26035000D01*
X157000000Y-38350000D02*
X157000000Y-30000000D01*
X158350000Y-39700000D02*
X157000000Y-38350000D01*
X125920000Y-50750000D02*
X125920000Y-47750000D01*
X188595000Y-26035000D02*
X188595000Y-23495000D01*
X139918000Y-107440000D02*
X137742000Y-109616000D01*
X139918000Y-105156000D02*
X139918000Y-107440000D01*
X135202000Y-100198000D02*
X131064000Y-96060000D01*
X135202000Y-102188000D02*
X135202000Y-100198000D01*
X132875000Y-60880000D02*
X132875000Y-56610000D01*
X133605000Y-61610000D02*
X132875000Y-60880000D01*
X181864000Y-66901000D02*
X179455000Y-69310000D01*
X181864000Y-60960000D02*
X181864000Y-66901000D01*
X179335000Y-69430000D02*
X179335000Y-72310000D01*
X179455000Y-69310000D02*
X179335000Y-69430000D01*
X141224000Y-93060000D02*
X141224000Y-90060000D01*
X141224000Y-85395800D02*
X141149200Y-85321000D01*
X141224000Y-90060000D02*
X141224000Y-85395800D01*
X162052000Y-97218000D02*
X160092000Y-95258000D01*
X162052000Y-99528000D02*
X162052000Y-97218000D01*
X160092000Y-95258000D02*
X158862000Y-95258000D01*
X160092000Y-90249700D02*
X160092000Y-95258000D01*
X161335000Y-89006700D02*
X160092000Y-90249700D01*
X161335000Y-88180000D02*
X161335000Y-89006700D01*
X138813400Y-33856600D02*
X139920000Y-32750000D01*
X138813400Y-39480100D02*
X138813400Y-33856600D01*
X139833300Y-40500000D02*
X138813400Y-39480100D01*
X139978100Y-40500000D02*
X139833300Y-40500000D01*
X142080000Y-42601900D02*
X139978100Y-40500000D01*
X142080000Y-49000000D02*
X142080000Y-42601900D01*
X160634100Y-109319100D02*
X161801000Y-110486000D01*
X160634100Y-100945900D02*
X160634100Y-109319100D01*
X162052000Y-99528000D02*
X160634100Y-100945900D01*
X153715000Y-88130000D02*
X152663300Y-88130000D01*
X151486500Y-86953200D02*
X152663300Y-88130000D01*
X151486500Y-67595000D02*
X151486500Y-86953200D01*
X151486500Y-67595000D02*
X151765000Y-67595000D01*
X150650900Y-59150900D02*
X148595000Y-57095000D01*
X150650900Y-66759400D02*
X150650900Y-59150900D01*
X151486500Y-67595000D02*
X150650900Y-66759400D01*
X188355000Y-97423000D02*
X191008000Y-100076000D01*
X188355000Y-72860000D02*
X188355000Y-97423000D01*
X191008000Y-111506000D02*
X196596000Y-117094000D01*
X191008000Y-100076000D02*
X191008000Y-111506000D01*
X177673300Y-113727300D02*
X178456000Y-113727300D01*
X170608000Y-106662000D02*
X177673300Y-113727300D01*
X178456000Y-114554000D02*
X178456000Y-113727300D01*
%TO.N,Net-(D5-K)*%
X131476000Y-80106000D02*
X135096000Y-80106000D01*
X125476000Y-86106000D02*
X131476000Y-80106000D01*
%TO.N,Net-(C12-Pad1)*%
X182040000Y-40110000D02*
X182040000Y-38360000D01*
X180040000Y-42110000D02*
X182040000Y-40110000D01*
%TO.N,triangle 2*%
X143685200Y-70980200D02*
X144855000Y-72150000D01*
X143685200Y-60619800D02*
X143685200Y-70980200D01*
X144855000Y-59450000D02*
X143685200Y-60619800D01*
X169445000Y-75760000D02*
X169445000Y-79810000D01*
X167150300Y-75760000D02*
X167108400Y-75718100D01*
X169445000Y-75760000D02*
X167150300Y-75760000D01*
X166306700Y-75718100D02*
X167108400Y-75718100D01*
X166306700Y-59976700D02*
X161925000Y-55595000D01*
X166306700Y-75718100D02*
X166306700Y-59976700D01*
%TO.N,Net-(Q1-E)*%
X141886000Y-103532300D02*
X140969700Y-102616000D01*
X141886000Y-114140000D02*
X141886000Y-103532300D01*
X139918000Y-102616000D02*
X140969700Y-102616000D01*
%TD*%
M02*
