%TF.GenerationSoftware,KiCad,Pcbnew,9.0.5*%
%TF.CreationDate,2025-10-05T20:18:26+02:00*%
%TF.ProjectId,11_fm_drum,31315f66-6d5f-4647-9275-6d2e6b696361,rev?*%
%TF.SameCoordinates,Original*%
%TF.FileFunction,Legend,Bot*%
%TF.FilePolarity,Positive*%
%FSLAX46Y46*%
G04 Gerber Fmt 4.6, Leading zero omitted, Abs format (unit mm)*
G04 Created by KiCad (PCBNEW 9.0.5) date 2025-10-05 20:18:26*
%MOMM*%
%LPD*%
G01*
G04 APERTURE LIST*
%ADD10C,0.100000*%
%ADD11C,0.150000*%
%ADD12C,0.120000*%
G04 APERTURE END LIST*
D10*
X166817433Y-47941519D02*
X166817433Y-48655804D01*
X166817433Y-48655804D02*
X166865052Y-48798661D01*
X166865052Y-48798661D02*
X166960290Y-48893900D01*
X166960290Y-48893900D02*
X167103147Y-48941519D01*
X167103147Y-48941519D02*
X167198385Y-48941519D01*
X165912671Y-47941519D02*
X166103147Y-47941519D01*
X166103147Y-47941519D02*
X166198385Y-47989138D01*
X166198385Y-47989138D02*
X166246004Y-48036757D01*
X166246004Y-48036757D02*
X166341242Y-48179614D01*
X166341242Y-48179614D02*
X166388861Y-48370090D01*
X166388861Y-48370090D02*
X166388861Y-48751042D01*
X166388861Y-48751042D02*
X166341242Y-48846280D01*
X166341242Y-48846280D02*
X166293623Y-48893900D01*
X166293623Y-48893900D02*
X166198385Y-48941519D01*
X166198385Y-48941519D02*
X166007909Y-48941519D01*
X166007909Y-48941519D02*
X165912671Y-48893900D01*
X165912671Y-48893900D02*
X165865052Y-48846280D01*
X165865052Y-48846280D02*
X165817433Y-48751042D01*
X165817433Y-48751042D02*
X165817433Y-48512947D01*
X165817433Y-48512947D02*
X165865052Y-48417709D01*
X165865052Y-48417709D02*
X165912671Y-48370090D01*
X165912671Y-48370090D02*
X166007909Y-48322471D01*
X166007909Y-48322471D02*
X166198385Y-48322471D01*
X166198385Y-48322471D02*
X166293623Y-48370090D01*
X166293623Y-48370090D02*
X166341242Y-48417709D01*
X166341242Y-48417709D02*
X166388861Y-48512947D01*
D11*
X157746004Y-48938919D02*
X157746004Y-47938919D01*
X157746004Y-47938919D02*
X157507909Y-47938919D01*
X157507909Y-47938919D02*
X157365052Y-47986538D01*
X157365052Y-47986538D02*
X157269814Y-48081776D01*
X157269814Y-48081776D02*
X157222195Y-48177014D01*
X157222195Y-48177014D02*
X157174576Y-48367490D01*
X157174576Y-48367490D02*
X157174576Y-48510347D01*
X157174576Y-48510347D02*
X157222195Y-48700823D01*
X157222195Y-48700823D02*
X157269814Y-48796061D01*
X157269814Y-48796061D02*
X157365052Y-48891300D01*
X157365052Y-48891300D02*
X157507909Y-48938919D01*
X157507909Y-48938919D02*
X157746004Y-48938919D01*
X156365052Y-48891300D02*
X156460290Y-48938919D01*
X156460290Y-48938919D02*
X156650766Y-48938919D01*
X156650766Y-48938919D02*
X156746004Y-48891300D01*
X156746004Y-48891300D02*
X156793623Y-48796061D01*
X156793623Y-48796061D02*
X156793623Y-48415109D01*
X156793623Y-48415109D02*
X156746004Y-48319871D01*
X156746004Y-48319871D02*
X156650766Y-48272252D01*
X156650766Y-48272252D02*
X156460290Y-48272252D01*
X156460290Y-48272252D02*
X156365052Y-48319871D01*
X156365052Y-48319871D02*
X156317433Y-48415109D01*
X156317433Y-48415109D02*
X156317433Y-48510347D01*
X156317433Y-48510347D02*
X156793623Y-48605585D01*
X155460290Y-48891300D02*
X155555528Y-48938919D01*
X155555528Y-48938919D02*
X155746004Y-48938919D01*
X155746004Y-48938919D02*
X155841242Y-48891300D01*
X155841242Y-48891300D02*
X155888861Y-48843680D01*
X155888861Y-48843680D02*
X155936480Y-48748442D01*
X155936480Y-48748442D02*
X155936480Y-48462728D01*
X155936480Y-48462728D02*
X155888861Y-48367490D01*
X155888861Y-48367490D02*
X155841242Y-48319871D01*
X155841242Y-48319871D02*
X155746004Y-48272252D01*
X155746004Y-48272252D02*
X155555528Y-48272252D01*
X155555528Y-48272252D02*
X155460290Y-48319871D01*
X154603147Y-48938919D02*
X154603147Y-48415109D01*
X154603147Y-48415109D02*
X154650766Y-48319871D01*
X154650766Y-48319871D02*
X154746004Y-48272252D01*
X154746004Y-48272252D02*
X154936480Y-48272252D01*
X154936480Y-48272252D02*
X155031718Y-48319871D01*
X154603147Y-48891300D02*
X154698385Y-48938919D01*
X154698385Y-48938919D02*
X154936480Y-48938919D01*
X154936480Y-48938919D02*
X155031718Y-48891300D01*
X155031718Y-48891300D02*
X155079337Y-48796061D01*
X155079337Y-48796061D02*
X155079337Y-48700823D01*
X155079337Y-48700823D02*
X155031718Y-48605585D01*
X155031718Y-48605585D02*
X154936480Y-48557966D01*
X154936480Y-48557966D02*
X154698385Y-48557966D01*
X154698385Y-48557966D02*
X154603147Y-48510347D01*
X154222194Y-48272252D02*
X153984099Y-48938919D01*
X153746004Y-48272252D02*
X153984099Y-48938919D01*
X153984099Y-48938919D02*
X154079337Y-49177014D01*
X154079337Y-49177014D02*
X154126956Y-49224633D01*
X154126956Y-49224633D02*
X154222194Y-49272252D01*
X152031718Y-48843680D02*
X152079337Y-48891300D01*
X152079337Y-48891300D02*
X152222194Y-48938919D01*
X152222194Y-48938919D02*
X152317432Y-48938919D01*
X152317432Y-48938919D02*
X152460289Y-48891300D01*
X152460289Y-48891300D02*
X152555527Y-48796061D01*
X152555527Y-48796061D02*
X152603146Y-48700823D01*
X152603146Y-48700823D02*
X152650765Y-48510347D01*
X152650765Y-48510347D02*
X152650765Y-48367490D01*
X152650765Y-48367490D02*
X152603146Y-48177014D01*
X152603146Y-48177014D02*
X152555527Y-48081776D01*
X152555527Y-48081776D02*
X152460289Y-47986538D01*
X152460289Y-47986538D02*
X152317432Y-47938919D01*
X152317432Y-47938919D02*
X152222194Y-47938919D01*
X152222194Y-47938919D02*
X152079337Y-47986538D01*
X152079337Y-47986538D02*
X152031718Y-48034157D01*
X151746003Y-47938919D02*
X151412670Y-48938919D01*
X151412670Y-48938919D02*
X151079337Y-47938919D01*
D10*
X137333333Y-158457419D02*
X137333333Y-159171704D01*
X137333333Y-159171704D02*
X137380952Y-159314561D01*
X137380952Y-159314561D02*
X137476190Y-159409800D01*
X137476190Y-159409800D02*
X137619047Y-159457419D01*
X137619047Y-159457419D02*
X137714285Y-159457419D01*
X136952380Y-158457419D02*
X136285714Y-158457419D01*
X136285714Y-158457419D02*
X136714285Y-159457419D01*
D11*
X125833333Y-158454819D02*
X125642857Y-158454819D01*
X125642857Y-158454819D02*
X125547619Y-158502438D01*
X125547619Y-158502438D02*
X125452381Y-158597676D01*
X125452381Y-158597676D02*
X125404762Y-158788152D01*
X125404762Y-158788152D02*
X125404762Y-159121485D01*
X125404762Y-159121485D02*
X125452381Y-159311961D01*
X125452381Y-159311961D02*
X125547619Y-159407200D01*
X125547619Y-159407200D02*
X125642857Y-159454819D01*
X125642857Y-159454819D02*
X125833333Y-159454819D01*
X125833333Y-159454819D02*
X125928571Y-159407200D01*
X125928571Y-159407200D02*
X126023809Y-159311961D01*
X126023809Y-159311961D02*
X126071428Y-159121485D01*
X126071428Y-159121485D02*
X126071428Y-158788152D01*
X126071428Y-158788152D02*
X126023809Y-158597676D01*
X126023809Y-158597676D02*
X125928571Y-158502438D01*
X125928571Y-158502438D02*
X125833333Y-158454819D01*
X124547619Y-158788152D02*
X124547619Y-159454819D01*
X124976190Y-158788152D02*
X124976190Y-159311961D01*
X124976190Y-159311961D02*
X124928571Y-159407200D01*
X124928571Y-159407200D02*
X124833333Y-159454819D01*
X124833333Y-159454819D02*
X124690476Y-159454819D01*
X124690476Y-159454819D02*
X124595238Y-159407200D01*
X124595238Y-159407200D02*
X124547619Y-159359580D01*
X124214285Y-158788152D02*
X123833333Y-158788152D01*
X124071428Y-158454819D02*
X124071428Y-159311961D01*
X124071428Y-159311961D02*
X124023809Y-159407200D01*
X124023809Y-159407200D02*
X123928571Y-159454819D01*
X123928571Y-159454819D02*
X123833333Y-159454819D01*
D10*
X181412580Y-118085238D02*
X181888771Y-118418571D01*
X181412580Y-118656666D02*
X182412580Y-118656666D01*
X182412580Y-118656666D02*
X182412580Y-118275714D01*
X182412580Y-118275714D02*
X182364961Y-118180476D01*
X182364961Y-118180476D02*
X182317342Y-118132857D01*
X182317342Y-118132857D02*
X182222104Y-118085238D01*
X182222104Y-118085238D02*
X182079247Y-118085238D01*
X182079247Y-118085238D02*
X181984009Y-118132857D01*
X181984009Y-118132857D02*
X181936390Y-118180476D01*
X181936390Y-118180476D02*
X181888771Y-118275714D01*
X181888771Y-118275714D02*
X181888771Y-118656666D01*
X182412580Y-117799523D02*
X181412580Y-117466190D01*
X181412580Y-117466190D02*
X182412580Y-117132857D01*
X182412580Y-116370952D02*
X182412580Y-116561428D01*
X182412580Y-116561428D02*
X182364961Y-116656666D01*
X182364961Y-116656666D02*
X182317342Y-116704285D01*
X182317342Y-116704285D02*
X182174485Y-116799523D01*
X182174485Y-116799523D02*
X181984009Y-116847142D01*
X181984009Y-116847142D02*
X181603057Y-116847142D01*
X181603057Y-116847142D02*
X181507819Y-116799523D01*
X181507819Y-116799523D02*
X181460200Y-116751904D01*
X181460200Y-116751904D02*
X181412580Y-116656666D01*
X181412580Y-116656666D02*
X181412580Y-116466190D01*
X181412580Y-116466190D02*
X181460200Y-116370952D01*
X181460200Y-116370952D02*
X181507819Y-116323333D01*
X181507819Y-116323333D02*
X181603057Y-116275714D01*
X181603057Y-116275714D02*
X181841152Y-116275714D01*
X181841152Y-116275714D02*
X181936390Y-116323333D01*
X181936390Y-116323333D02*
X181984009Y-116370952D01*
X181984009Y-116370952D02*
X182031628Y-116466190D01*
X182031628Y-116466190D02*
X182031628Y-116656666D01*
X182031628Y-116656666D02*
X181984009Y-116751904D01*
X181984009Y-116751904D02*
X181936390Y-116799523D01*
X181936390Y-116799523D02*
X181841152Y-116847142D01*
D11*
X182319942Y-111693445D02*
X182367561Y-111645826D01*
X182367561Y-111645826D02*
X182415180Y-111550588D01*
X182415180Y-111550588D02*
X182415180Y-111312493D01*
X182415180Y-111312493D02*
X182367561Y-111217255D01*
X182367561Y-111217255D02*
X182319942Y-111169636D01*
X182319942Y-111169636D02*
X182224704Y-111122017D01*
X182224704Y-111122017D02*
X182129466Y-111122017D01*
X182129466Y-111122017D02*
X181986609Y-111169636D01*
X181986609Y-111169636D02*
X181415180Y-111741064D01*
X181415180Y-111741064D02*
X181415180Y-111122017D01*
X181415180Y-110693445D02*
X182415180Y-110693445D01*
X182415180Y-110693445D02*
X181700895Y-110360112D01*
X181700895Y-110360112D02*
X182415180Y-110026779D01*
X182415180Y-110026779D02*
X181415180Y-110026779D01*
D10*
X185333333Y-158457419D02*
X185333333Y-159171704D01*
X185333333Y-159171704D02*
X185380952Y-159314561D01*
X185380952Y-159314561D02*
X185476190Y-159409800D01*
X185476190Y-159409800D02*
X185619047Y-159457419D01*
X185619047Y-159457419D02*
X185714285Y-159457419D01*
X184952380Y-158457419D02*
X184333333Y-158457419D01*
X184333333Y-158457419D02*
X184666666Y-158838371D01*
X184666666Y-158838371D02*
X184523809Y-158838371D01*
X184523809Y-158838371D02*
X184428571Y-158885990D01*
X184428571Y-158885990D02*
X184380952Y-158933609D01*
X184380952Y-158933609D02*
X184333333Y-159028847D01*
X184333333Y-159028847D02*
X184333333Y-159266942D01*
X184333333Y-159266942D02*
X184380952Y-159362180D01*
X184380952Y-159362180D02*
X184428571Y-159409800D01*
X184428571Y-159409800D02*
X184523809Y-159457419D01*
X184523809Y-159457419D02*
X184809523Y-159457419D01*
X184809523Y-159457419D02*
X184904761Y-159409800D01*
X184904761Y-159409800D02*
X184952380Y-159362180D01*
D11*
X175047619Y-158502438D02*
X175142857Y-158454819D01*
X175142857Y-158454819D02*
X175285714Y-158454819D01*
X175285714Y-158454819D02*
X175428571Y-158502438D01*
X175428571Y-158502438D02*
X175523809Y-158597676D01*
X175523809Y-158597676D02*
X175571428Y-158692914D01*
X175571428Y-158692914D02*
X175619047Y-158883390D01*
X175619047Y-158883390D02*
X175619047Y-159026247D01*
X175619047Y-159026247D02*
X175571428Y-159216723D01*
X175571428Y-159216723D02*
X175523809Y-159311961D01*
X175523809Y-159311961D02*
X175428571Y-159407200D01*
X175428571Y-159407200D02*
X175285714Y-159454819D01*
X175285714Y-159454819D02*
X175190476Y-159454819D01*
X175190476Y-159454819D02*
X175047619Y-159407200D01*
X175047619Y-159407200D02*
X175000000Y-159359580D01*
X175000000Y-159359580D02*
X175000000Y-159026247D01*
X175000000Y-159026247D02*
X175190476Y-159026247D01*
X174142857Y-159454819D02*
X174142857Y-158931009D01*
X174142857Y-158931009D02*
X174190476Y-158835771D01*
X174190476Y-158835771D02*
X174285714Y-158788152D01*
X174285714Y-158788152D02*
X174476190Y-158788152D01*
X174476190Y-158788152D02*
X174571428Y-158835771D01*
X174142857Y-159407200D02*
X174238095Y-159454819D01*
X174238095Y-159454819D02*
X174476190Y-159454819D01*
X174476190Y-159454819D02*
X174571428Y-159407200D01*
X174571428Y-159407200D02*
X174619047Y-159311961D01*
X174619047Y-159311961D02*
X174619047Y-159216723D01*
X174619047Y-159216723D02*
X174571428Y-159121485D01*
X174571428Y-159121485D02*
X174476190Y-159073866D01*
X174476190Y-159073866D02*
X174238095Y-159073866D01*
X174238095Y-159073866D02*
X174142857Y-159026247D01*
X173809523Y-158788152D02*
X173428571Y-158788152D01*
X173666666Y-158454819D02*
X173666666Y-159311961D01*
X173666666Y-159311961D02*
X173619047Y-159407200D01*
X173619047Y-159407200D02*
X173523809Y-159454819D01*
X173523809Y-159454819D02*
X173428571Y-159454819D01*
X172714285Y-159407200D02*
X172809523Y-159454819D01*
X172809523Y-159454819D02*
X172999999Y-159454819D01*
X172999999Y-159454819D02*
X173095237Y-159407200D01*
X173095237Y-159407200D02*
X173142856Y-159311961D01*
X173142856Y-159311961D02*
X173142856Y-158931009D01*
X173142856Y-158931009D02*
X173095237Y-158835771D01*
X173095237Y-158835771D02*
X172999999Y-158788152D01*
X172999999Y-158788152D02*
X172809523Y-158788152D01*
X172809523Y-158788152D02*
X172714285Y-158835771D01*
X172714285Y-158835771D02*
X172666666Y-158931009D01*
X172666666Y-158931009D02*
X172666666Y-159026247D01*
X172666666Y-159026247D02*
X173142856Y-159121485D01*
X171476189Y-159454819D02*
X171476189Y-158454819D01*
X170999999Y-159454819D02*
X170999999Y-158454819D01*
X170999999Y-158454819D02*
X170428571Y-159454819D01*
X170428571Y-159454819D02*
X170428571Y-158454819D01*
X141677701Y-96891830D02*
X141106273Y-96891830D01*
X141391987Y-97891830D02*
X141391987Y-96891830D01*
X140772939Y-97891830D02*
X140772939Y-96891830D01*
X140772939Y-96891830D02*
X140391987Y-96891830D01*
X140391987Y-96891830D02*
X140296749Y-96939449D01*
X140296749Y-96939449D02*
X140249130Y-96987068D01*
X140249130Y-96987068D02*
X140201511Y-97082306D01*
X140201511Y-97082306D02*
X140201511Y-97225163D01*
X140201511Y-97225163D02*
X140249130Y-97320401D01*
X140249130Y-97320401D02*
X140296749Y-97368020D01*
X140296749Y-97368020D02*
X140391987Y-97415639D01*
X140391987Y-97415639D02*
X140772939Y-97415639D01*
X139249130Y-97891830D02*
X139820558Y-97891830D01*
X139534844Y-97891830D02*
X139534844Y-96891830D01*
X139534844Y-96891830D02*
X139630082Y-97034687D01*
X139630082Y-97034687D02*
X139725320Y-97129925D01*
X139725320Y-97129925D02*
X139820558Y-97177544D01*
X146603333Y-91684819D02*
X146603333Y-92399104D01*
X146603333Y-92399104D02*
X146650952Y-92541961D01*
X146650952Y-92541961D02*
X146746190Y-92637200D01*
X146746190Y-92637200D02*
X146889047Y-92684819D01*
X146889047Y-92684819D02*
X146984285Y-92684819D01*
X146174761Y-91780057D02*
X146127142Y-91732438D01*
X146127142Y-91732438D02*
X146031904Y-91684819D01*
X146031904Y-91684819D02*
X145793809Y-91684819D01*
X145793809Y-91684819D02*
X145698571Y-91732438D01*
X145698571Y-91732438D02*
X145650952Y-91780057D01*
X145650952Y-91780057D02*
X145603333Y-91875295D01*
X145603333Y-91875295D02*
X145603333Y-91970533D01*
X145603333Y-91970533D02*
X145650952Y-92113390D01*
X145650952Y-92113390D02*
X146222380Y-92684819D01*
X146222380Y-92684819D02*
X145603333Y-92684819D01*
D10*
X129937419Y-34986666D02*
X130651704Y-34986666D01*
X130651704Y-34986666D02*
X130794561Y-34939047D01*
X130794561Y-34939047D02*
X130889800Y-34843809D01*
X130889800Y-34843809D02*
X130937419Y-34700952D01*
X130937419Y-34700952D02*
X130937419Y-34605714D01*
X130270752Y-35891428D02*
X130937419Y-35891428D01*
X129889800Y-35653333D02*
X130604085Y-35415238D01*
X130604085Y-35415238D02*
X130604085Y-36034285D01*
D11*
X130649104Y-39319999D02*
X130649104Y-39796189D01*
X130934819Y-39224761D02*
X129934819Y-39558094D01*
X129934819Y-39558094D02*
X130934819Y-39891427D01*
X130887200Y-40653332D02*
X130934819Y-40558094D01*
X130934819Y-40558094D02*
X130934819Y-40367618D01*
X130934819Y-40367618D02*
X130887200Y-40272380D01*
X130887200Y-40272380D02*
X130839580Y-40224761D01*
X130839580Y-40224761D02*
X130744342Y-40177142D01*
X130744342Y-40177142D02*
X130458628Y-40177142D01*
X130458628Y-40177142D02*
X130363390Y-40224761D01*
X130363390Y-40224761D02*
X130315771Y-40272380D01*
X130315771Y-40272380D02*
X130268152Y-40367618D01*
X130268152Y-40367618D02*
X130268152Y-40558094D01*
X130268152Y-40558094D02*
X130315771Y-40653332D01*
X130887200Y-41510475D02*
X130934819Y-41415237D01*
X130934819Y-41415237D02*
X130934819Y-41224761D01*
X130934819Y-41224761D02*
X130887200Y-41129523D01*
X130887200Y-41129523D02*
X130839580Y-41081904D01*
X130839580Y-41081904D02*
X130744342Y-41034285D01*
X130744342Y-41034285D02*
X130458628Y-41034285D01*
X130458628Y-41034285D02*
X130363390Y-41081904D01*
X130363390Y-41081904D02*
X130315771Y-41129523D01*
X130315771Y-41129523D02*
X130268152Y-41224761D01*
X130268152Y-41224761D02*
X130268152Y-41415237D01*
X130268152Y-41415237D02*
X130315771Y-41510475D01*
X130887200Y-42319999D02*
X130934819Y-42224761D01*
X130934819Y-42224761D02*
X130934819Y-42034285D01*
X130934819Y-42034285D02*
X130887200Y-41939047D01*
X130887200Y-41939047D02*
X130791961Y-41891428D01*
X130791961Y-41891428D02*
X130411009Y-41891428D01*
X130411009Y-41891428D02*
X130315771Y-41939047D01*
X130315771Y-41939047D02*
X130268152Y-42034285D01*
X130268152Y-42034285D02*
X130268152Y-42224761D01*
X130268152Y-42224761D02*
X130315771Y-42319999D01*
X130315771Y-42319999D02*
X130411009Y-42367618D01*
X130411009Y-42367618D02*
X130506247Y-42367618D01*
X130506247Y-42367618D02*
X130601485Y-41891428D01*
X130887200Y-43177142D02*
X130934819Y-43081904D01*
X130934819Y-43081904D02*
X130934819Y-42891428D01*
X130934819Y-42891428D02*
X130887200Y-42796190D01*
X130887200Y-42796190D02*
X130791961Y-42748571D01*
X130791961Y-42748571D02*
X130411009Y-42748571D01*
X130411009Y-42748571D02*
X130315771Y-42796190D01*
X130315771Y-42796190D02*
X130268152Y-42891428D01*
X130268152Y-42891428D02*
X130268152Y-43081904D01*
X130268152Y-43081904D02*
X130315771Y-43177142D01*
X130315771Y-43177142D02*
X130411009Y-43224761D01*
X130411009Y-43224761D02*
X130506247Y-43224761D01*
X130506247Y-43224761D02*
X130601485Y-42748571D01*
X130268152Y-43653333D02*
X130934819Y-43653333D01*
X130363390Y-43653333D02*
X130315771Y-43700952D01*
X130315771Y-43700952D02*
X130268152Y-43796190D01*
X130268152Y-43796190D02*
X130268152Y-43939047D01*
X130268152Y-43939047D02*
X130315771Y-44034285D01*
X130315771Y-44034285D02*
X130411009Y-44081904D01*
X130411009Y-44081904D02*
X130934819Y-44081904D01*
X130268152Y-44415238D02*
X130268152Y-44796190D01*
X129934819Y-44558095D02*
X130791961Y-44558095D01*
X130791961Y-44558095D02*
X130887200Y-44605714D01*
X130887200Y-44605714D02*
X130934819Y-44700952D01*
X130934819Y-44700952D02*
X130934819Y-44796190D01*
X130839580Y-46462857D02*
X130887200Y-46415238D01*
X130887200Y-46415238D02*
X130934819Y-46272381D01*
X130934819Y-46272381D02*
X130934819Y-46177143D01*
X130934819Y-46177143D02*
X130887200Y-46034286D01*
X130887200Y-46034286D02*
X130791961Y-45939048D01*
X130791961Y-45939048D02*
X130696723Y-45891429D01*
X130696723Y-45891429D02*
X130506247Y-45843810D01*
X130506247Y-45843810D02*
X130363390Y-45843810D01*
X130363390Y-45843810D02*
X130172914Y-45891429D01*
X130172914Y-45891429D02*
X130077676Y-45939048D01*
X130077676Y-45939048D02*
X129982438Y-46034286D01*
X129982438Y-46034286D02*
X129934819Y-46177143D01*
X129934819Y-46177143D02*
X129934819Y-46272381D01*
X129934819Y-46272381D02*
X129982438Y-46415238D01*
X129982438Y-46415238D02*
X130030057Y-46462857D01*
X129934819Y-46748572D02*
X130934819Y-47081905D01*
X130934819Y-47081905D02*
X129934819Y-47415238D01*
D10*
X186817433Y-47941519D02*
X186817433Y-48655804D01*
X186817433Y-48655804D02*
X186865052Y-48798661D01*
X186865052Y-48798661D02*
X186960290Y-48893900D01*
X186960290Y-48893900D02*
X187103147Y-48941519D01*
X187103147Y-48941519D02*
X187198385Y-48941519D01*
X185865052Y-47941519D02*
X186341242Y-47941519D01*
X186341242Y-47941519D02*
X186388861Y-48417709D01*
X186388861Y-48417709D02*
X186341242Y-48370090D01*
X186341242Y-48370090D02*
X186246004Y-48322471D01*
X186246004Y-48322471D02*
X186007909Y-48322471D01*
X186007909Y-48322471D02*
X185912671Y-48370090D01*
X185912671Y-48370090D02*
X185865052Y-48417709D01*
X185865052Y-48417709D02*
X185817433Y-48512947D01*
X185817433Y-48512947D02*
X185817433Y-48751042D01*
X185817433Y-48751042D02*
X185865052Y-48846280D01*
X185865052Y-48846280D02*
X185912671Y-48893900D01*
X185912671Y-48893900D02*
X186007909Y-48941519D01*
X186007909Y-48941519D02*
X186246004Y-48941519D01*
X186246004Y-48941519D02*
X186341242Y-48893900D01*
X186341242Y-48893900D02*
X186388861Y-48846280D01*
D11*
X177412671Y-47938919D02*
X176841243Y-47938919D01*
X177126957Y-48938919D02*
X177126957Y-47938919D01*
X176079338Y-48272252D02*
X176079338Y-48938919D01*
X176507909Y-48272252D02*
X176507909Y-48796061D01*
X176507909Y-48796061D02*
X176460290Y-48891300D01*
X176460290Y-48891300D02*
X176365052Y-48938919D01*
X176365052Y-48938919D02*
X176222195Y-48938919D01*
X176222195Y-48938919D02*
X176126957Y-48891300D01*
X176126957Y-48891300D02*
X176079338Y-48843680D01*
X175603147Y-48272252D02*
X175603147Y-48938919D01*
X175603147Y-48367490D02*
X175555528Y-48319871D01*
X175555528Y-48319871D02*
X175460290Y-48272252D01*
X175460290Y-48272252D02*
X175317433Y-48272252D01*
X175317433Y-48272252D02*
X175222195Y-48319871D01*
X175222195Y-48319871D02*
X175174576Y-48415109D01*
X175174576Y-48415109D02*
X175174576Y-48938919D01*
X174317433Y-48891300D02*
X174412671Y-48938919D01*
X174412671Y-48938919D02*
X174603147Y-48938919D01*
X174603147Y-48938919D02*
X174698385Y-48891300D01*
X174698385Y-48891300D02*
X174746004Y-48796061D01*
X174746004Y-48796061D02*
X174746004Y-48415109D01*
X174746004Y-48415109D02*
X174698385Y-48319871D01*
X174698385Y-48319871D02*
X174603147Y-48272252D01*
X174603147Y-48272252D02*
X174412671Y-48272252D01*
X174412671Y-48272252D02*
X174317433Y-48319871D01*
X174317433Y-48319871D02*
X174269814Y-48415109D01*
X174269814Y-48415109D02*
X174269814Y-48510347D01*
X174269814Y-48510347D02*
X174746004Y-48605585D01*
X172507909Y-48843680D02*
X172555528Y-48891300D01*
X172555528Y-48891300D02*
X172698385Y-48938919D01*
X172698385Y-48938919D02*
X172793623Y-48938919D01*
X172793623Y-48938919D02*
X172936480Y-48891300D01*
X172936480Y-48891300D02*
X173031718Y-48796061D01*
X173031718Y-48796061D02*
X173079337Y-48700823D01*
X173079337Y-48700823D02*
X173126956Y-48510347D01*
X173126956Y-48510347D02*
X173126956Y-48367490D01*
X173126956Y-48367490D02*
X173079337Y-48177014D01*
X173079337Y-48177014D02*
X173031718Y-48081776D01*
X173031718Y-48081776D02*
X172936480Y-47986538D01*
X172936480Y-47986538D02*
X172793623Y-47938919D01*
X172793623Y-47938919D02*
X172698385Y-47938919D01*
X172698385Y-47938919D02*
X172555528Y-47986538D01*
X172555528Y-47986538D02*
X172507909Y-48034157D01*
X172222194Y-47938919D02*
X171888861Y-48938919D01*
X171888861Y-48938919D02*
X171555528Y-47938919D01*
D10*
%TO.C,J6*%
X168467637Y-30500563D02*
X168515869Y-47515869D01*
X151489942Y-47478258D01*
X151484100Y-34984100D01*
X155984100Y-30484100D01*
X168467637Y-30500563D01*
%TO.C,J7*%
X138983537Y-141016463D02*
X139031769Y-158031769D01*
X122005842Y-157994158D01*
X122000000Y-145500000D01*
X126500000Y-141000000D01*
X138983537Y-141016463D01*
%TO.C,RV6*%
X187770000Y-118490000D02*
X187812208Y-118490495D01*
X187896254Y-118498400D01*
X187979190Y-118514140D01*
X188060287Y-118537577D01*
X188138834Y-118568506D01*
X188214139Y-118606654D01*
X188285542Y-118651686D01*
X188352413Y-118703206D01*
X188414166Y-118760762D01*
X188470259Y-118823847D01*
X188520197Y-118891908D01*
X188563543Y-118964346D01*
X188599915Y-119040525D01*
X188628994Y-119119775D01*
X188650523Y-119201400D01*
X188664315Y-119284682D01*
X188670248Y-119368890D01*
X188668269Y-119453283D01*
X188658396Y-119537120D01*
X188640715Y-119619665D01*
X188615383Y-119700191D01*
X188582622Y-119777991D01*
X188542719Y-119852381D01*
X188496026Y-119922708D01*
X188442952Y-119988353D01*
X188383965Y-120048740D01*
X188319581Y-120103338D01*
X188250368Y-120151668D01*
X188176934Y-120193303D01*
X188099923Y-120227879D01*
X188020013Y-120255092D01*
X187937906Y-120274703D01*
X187854324Y-120286538D01*
X187770000Y-120290495D01*
X187685676Y-120286538D01*
X187602094Y-120274703D01*
X187519987Y-120255092D01*
X187440077Y-120227879D01*
X187363066Y-120193303D01*
X187289632Y-120151668D01*
X187220419Y-120103338D01*
X187156035Y-120048740D01*
X187097048Y-119988353D01*
X187043974Y-119922708D01*
X186997281Y-119852381D01*
X186957378Y-119777991D01*
X186924617Y-119700191D01*
X186899285Y-119619665D01*
X186881604Y-119537120D01*
X186871731Y-119453283D01*
X186870247Y-119390000D01*
X182770000Y-119390000D01*
X182770000Y-109390000D01*
X187770000Y-109390000D01*
X187770000Y-118490000D01*
%TO.C,J3*%
X186983537Y-141016463D02*
X187031769Y-158031769D01*
X170005842Y-157994158D01*
X170000000Y-145500000D01*
X174500000Y-141000000D01*
X186983537Y-141016463D01*
D12*
%TO.C,TP1*%
X139715797Y-98185011D02*
X139715797Y-99585011D01*
X139715797Y-99585011D02*
X141115797Y-99585011D01*
X141115797Y-98185011D02*
X139715797Y-98185011D01*
X141115797Y-99585011D02*
X141115797Y-98185011D01*
%TO.C,J2*%
X143670000Y-93670000D02*
X143670000Y-95000000D01*
X143670000Y-96270000D02*
X143670000Y-119190000D01*
X145000000Y-93670000D02*
X143670000Y-93670000D01*
X146270000Y-93670000D02*
X146270000Y-96270000D01*
X146270000Y-96270000D02*
X143670000Y-96270000D01*
X148870000Y-93670000D02*
X146270000Y-93670000D01*
X148870000Y-93670000D02*
X148870000Y-119190000D01*
X148870000Y-119190000D02*
X143670000Y-119190000D01*
D10*
%TO.C,J4*%
X148467637Y-30500563D02*
X148515869Y-47515869D01*
X131489942Y-47478258D01*
X131484100Y-34984100D01*
X135984100Y-30484100D01*
X148467637Y-30500563D01*
%TO.C,J5*%
X188467637Y-30500563D02*
X188515869Y-47515869D01*
X171489942Y-47478258D01*
X171484100Y-34984100D01*
X175984100Y-30484100D01*
X188467637Y-30500563D01*
%TD*%
M02*
