%TF.GenerationSoftware,KiCad,Pcbnew,9.0.5*%
%TF.CreationDate,2025-10-12T14:47:24+02:00*%
%TF.ProjectId,11_fm_drum,31315f66-6d5f-4647-9275-6d2e6b696361,rev?*%
%TF.SameCoordinates,Original*%
%TF.FileFunction,Soldermask,Bot*%
%TF.FilePolarity,Negative*%
%FSLAX46Y46*%
G04 Gerber Fmt 4.6, Leading zero omitted, Abs format (unit mm)*
G04 Created by KiCad (PCBNEW 9.0.5) date 2025-10-12 14:47:24*
%MOMM*%
%LPD*%
G01*
G04 APERTURE LIST*
G04 Aperture macros list*
%AMRoundRect*
0 Rectangle with rounded corners*
0 $1 Rounding radius*
0 $2 $3 $4 $5 $6 $7 $8 $9 X,Y pos of 4 corners*
0 Add a 4 corners polygon primitive as box body*
4,1,4,$2,$3,$4,$5,$6,$7,$8,$9,$2,$3,0*
0 Add four circle primitives for the rounded corners*
1,1,$1+$1,$2,$3*
1,1,$1+$1,$4,$5*
1,1,$1+$1,$6,$7*
1,1,$1+$1,$8,$9*
0 Add four rect primitives between the rounded corners*
20,1,$1+$1,$2,$3,$4,$5,0*
20,1,$1+$1,$4,$5,$6,$7,0*
20,1,$1+$1,$6,$7,$8,$9,0*
20,1,$1+$1,$8,$9,$2,$3,0*%
G04 Aperture macros list end*
%ADD10C,1.600000*%
%ADD11C,3.200000*%
%ADD12O,1.500000X1.050000*%
%ADD13R,1.500000X1.050000*%
%ADD14RoundRect,0.250000X-0.550000X-0.550000X0.550000X-0.550000X0.550000X0.550000X-0.550000X0.550000X0*%
%ADD15C,1.700000*%
%ADD16R,1.700000X1.700000*%
%ADD17O,1.050000X1.500000*%
%ADD18R,1.050000X1.500000*%
%ADD19C,2.000000*%
%ADD20RoundRect,0.250000X0.550000X0.550000X-0.550000X0.550000X-0.550000X-0.550000X0.550000X-0.550000X0*%
%ADD21RoundRect,0.250000X-0.550000X0.550000X-0.550000X-0.550000X0.550000X-0.550000X0.550000X0.550000X0*%
%ADD22R,1.000000X1.000000*%
G04 APERTURE END LIST*
D10*
%TO.C,C14*%
X177040000Y-38360000D03*
X182040000Y-38360000D03*
%TD*%
%TO.C,C12*%
X165350000Y-35360000D03*
X160350000Y-35360000D03*
%TD*%
D11*
%TO.C,H2*%
X124000000Y-116000000D03*
%TD*%
D12*
%TO.C,Q1*%
X139918000Y-102616000D03*
X139918000Y-103886000D03*
D13*
X139918000Y-105156000D03*
%TD*%
D10*
%TO.C,C2*%
X166678600Y-26000000D03*
D14*
X164178600Y-26000000D03*
%TD*%
D10*
%TO.C,R29*%
X136080000Y-47750000D03*
X125920000Y-47750000D03*
%TD*%
%TO.C,C1*%
X123412000Y-94290000D03*
X123412000Y-89290000D03*
%TD*%
%TO.C,R21*%
X195800000Y-46445000D03*
X195800000Y-36285000D03*
%TD*%
%TO.C,R41*%
X161925000Y-67595000D03*
X151765000Y-67595000D03*
%TD*%
D15*
%TO.C,RV1*%
X191008000Y-100076000D03*
X191008000Y-97536000D03*
D16*
X191008000Y-94996000D03*
%TD*%
D12*
%TO.C,Q13*%
X178456000Y-117094000D03*
X178456000Y-115824000D03*
D13*
X178456000Y-114554000D03*
%TD*%
D14*
%TO.C,D1*%
X125476000Y-83106000D03*
D10*
X133096000Y-83106000D03*
%TD*%
%TO.C,R33*%
X144272000Y-89408000D03*
X144272000Y-99568000D03*
%TD*%
%TO.C,R50*%
X139920000Y-35750000D03*
X150080000Y-35750000D03*
%TD*%
D17*
%TO.C,Q6*%
X132875000Y-56610000D03*
X131605000Y-56610000D03*
D18*
X130335000Y-56610000D03*
%TD*%
D15*
%TO.C,RV7*%
X191262000Y-117094000D03*
X188722000Y-117094000D03*
D16*
X186182000Y-117094000D03*
%TD*%
D10*
%TO.C,D4*%
X135122000Y-111188000D03*
D14*
X127502000Y-111188000D03*
%TD*%
D10*
%TO.C,C17*%
X152830000Y-45750000D03*
X152830000Y-50750000D03*
%TD*%
%TO.C,R6*%
X135202000Y-105188000D03*
X125042000Y-105188000D03*
%TD*%
D17*
%TO.C,Q11*%
X148850000Y-49110000D03*
X147580000Y-49110000D03*
D18*
X146310000Y-49110000D03*
%TD*%
D19*
%TO.C,C8*%
X148595000Y-62095000D03*
X148595000Y-57095000D03*
%TD*%
D10*
%TO.C,R10*%
X131726000Y-114140000D03*
X141886000Y-114140000D03*
%TD*%
%TO.C,C4*%
X141149200Y-85321000D03*
X136149200Y-85321000D03*
%TD*%
%TO.C,R7*%
X192024000Y-60960000D03*
X181864000Y-60960000D03*
%TD*%
%TO.C,R44*%
X139920000Y-39000000D03*
X150080000Y-39000000D03*
%TD*%
D19*
%TO.C,C10*%
X162052000Y-94528000D03*
X162052000Y-99528000D03*
%TD*%
D10*
%TO.C,R22*%
X125920000Y-32750000D03*
X136080000Y-32750000D03*
%TD*%
%TO.C,R37*%
X180768000Y-103662000D03*
X170608000Y-103662000D03*
%TD*%
%TO.C,R3*%
X135096000Y-77106000D03*
X124936000Y-77106000D03*
%TD*%
%TO.C,C11*%
X188355000Y-72860000D03*
X183355000Y-72860000D03*
%TD*%
%TO.C,R18*%
X162765000Y-81840000D03*
X152605000Y-81840000D03*
%TD*%
%TO.C,C15*%
X174040000Y-38360000D03*
X169040000Y-38360000D03*
%TD*%
%TO.C,R42*%
X175768000Y-93932000D03*
X165608000Y-93932000D03*
%TD*%
%TO.C,R34*%
X188850000Y-46940000D03*
X188850000Y-36780000D03*
%TD*%
%TO.C,R39*%
X150080000Y-42000000D03*
X139920000Y-42000000D03*
%TD*%
%TO.C,R43*%
X169926000Y-117094000D03*
X159766000Y-117094000D03*
%TD*%
%TO.C,C3*%
X175500000Y-26000000D03*
D14*
X173000000Y-26000000D03*
%TD*%
D10*
%TO.C,D2*%
X135202000Y-102188000D03*
D14*
X127582000Y-102188000D03*
%TD*%
D10*
%TO.C,D7*%
X163225000Y-75840000D03*
D14*
X155605000Y-75840000D03*
%TD*%
D10*
%TO.C,R4*%
X131064000Y-90060000D03*
X141224000Y-90060000D03*
%TD*%
%TO.C,R13*%
X179605000Y-79810000D03*
X169445000Y-79810000D03*
%TD*%
%TO.C,R31*%
X161600000Y-49770000D03*
X161600000Y-39610000D03*
%TD*%
%TO.C,R52*%
X154352000Y-113696000D03*
X144192000Y-113696000D03*
%TD*%
D15*
%TO.C,SW2*%
X169672000Y-56388000D03*
X172212000Y-56388000D03*
D16*
X174752000Y-56388000D03*
%TD*%
D10*
%TO.C,D3*%
X135122000Y-108188000D03*
D14*
X127502000Y-108188000D03*
%TD*%
D10*
%TO.C,R11*%
X147902000Y-109616000D03*
X137742000Y-109616000D03*
%TD*%
D19*
%TO.C,C9*%
X148052000Y-94528000D03*
X148052000Y-99528000D03*
%TD*%
D10*
%TO.C,R28*%
X180040000Y-42110000D03*
X169880000Y-42110000D03*
%TD*%
%TO.C,R9*%
X135096000Y-80106000D03*
X124936000Y-80106000D03*
%TD*%
D12*
%TO.C,Q12*%
X173608000Y-97662000D03*
X173608000Y-98932000D03*
D13*
X173608000Y-100202000D03*
%TD*%
D10*
%TO.C,D15*%
X161905000Y-70845000D03*
D14*
X154285000Y-70845000D03*
%TD*%
D17*
%TO.C,Q7*%
X186690000Y-54970000D03*
X185420000Y-54970000D03*
D18*
X184150000Y-54970000D03*
%TD*%
D10*
%TO.C,R5*%
X141224000Y-99060000D03*
X131064000Y-99060000D03*
%TD*%
%TO.C,D6*%
X178775000Y-87060000D03*
D14*
X171155000Y-87060000D03*
%TD*%
D10*
%TO.C,R49*%
X170006000Y-114094000D03*
X159846000Y-114094000D03*
%TD*%
%TO.C,D16*%
X161801000Y-104486000D03*
D14*
X154181000Y-104486000D03*
%TD*%
D10*
%TO.C,R48*%
X170528000Y-109932000D03*
X180688000Y-109932000D03*
%TD*%
%TO.C,R32*%
X125920000Y-44750000D03*
X136080000Y-44750000D03*
%TD*%
%TO.C,R30*%
X158350000Y-49860000D03*
X158350000Y-39700000D03*
%TD*%
%TO.C,D10*%
X179335000Y-72310000D03*
D14*
X171715000Y-72310000D03*
%TD*%
D10*
%TO.C,R2*%
X141224000Y-96060000D03*
X131064000Y-96060000D03*
%TD*%
%TO.C,D18*%
X161801000Y-110486000D03*
D14*
X154181000Y-110486000D03*
%TD*%
D10*
%TO.C,R17*%
X191008000Y-80264000D03*
X191008000Y-90424000D03*
%TD*%
%TO.C,R35*%
X161925000Y-61595000D03*
X151765000Y-61595000D03*
%TD*%
%TO.C,D9*%
X171835000Y-69310000D03*
D20*
X179455000Y-69310000D03*
%TD*%
D15*
%TO.C,RV2*%
X192532000Y-104648000D03*
X192532000Y-107188000D03*
D16*
X192532000Y-109728000D03*
%TD*%
D14*
%TO.C,D5*%
X125476000Y-86106000D03*
D10*
X133096000Y-86106000D03*
%TD*%
D12*
%TO.C,Q5*%
X161335000Y-85640000D03*
X161335000Y-86910000D03*
D13*
X161335000Y-88180000D03*
%TD*%
D10*
%TO.C,R1*%
X131064000Y-93060000D03*
X141224000Y-93060000D03*
%TD*%
D12*
%TO.C,Q2*%
X146918000Y-102616000D03*
X146918000Y-103886000D03*
D13*
X146918000Y-105156000D03*
%TD*%
D17*
%TO.C,Q9*%
X189865000Y-54250000D03*
X191135000Y-54250000D03*
D18*
X192405000Y-54250000D03*
%TD*%
D10*
%TO.C,R47*%
X150080000Y-32750000D03*
X139920000Y-32750000D03*
%TD*%
%TO.C,R23*%
X122730000Y-61214000D03*
X122730000Y-71374000D03*
%TD*%
%TO.C,R8*%
X131726000Y-117140000D03*
X141886000Y-117140000D03*
%TD*%
D15*
%TO.C,RV3*%
X195580000Y-67056000D03*
X193040000Y-67056000D03*
D16*
X190500000Y-67056000D03*
%TD*%
D15*
%TO.C,RV4*%
X195580000Y-71628000D03*
X195580000Y-74168000D03*
D16*
X195580000Y-76708000D03*
%TD*%
D10*
%TO.C,C13*%
X129605000Y-61610000D03*
X129605000Y-66610000D03*
%TD*%
%TO.C,R20*%
X125920000Y-38750000D03*
X136080000Y-38750000D03*
%TD*%
%TO.C,C16*%
X166119000Y-109526000D03*
X166119000Y-104526000D03*
%TD*%
D12*
%TO.C,Q3*%
X153715000Y-85590000D03*
X153715000Y-86860000D03*
D13*
X153715000Y-88130000D03*
%TD*%
D10*
%TO.C,U2*%
X144855000Y-56910000D03*
X144855000Y-59450000D03*
X144855000Y-61990000D03*
X144855000Y-64530000D03*
X144855000Y-67070000D03*
X144855000Y-69610000D03*
X144855000Y-72150000D03*
X137235000Y-72150000D03*
X137235000Y-69610000D03*
X137235000Y-67070000D03*
X137235000Y-64530000D03*
X137235000Y-61990000D03*
X137235000Y-59450000D03*
D14*
X137235000Y-56910000D03*
%TD*%
D10*
%TO.C,R27*%
X125730000Y-61214000D03*
X125730000Y-71374000D03*
%TD*%
%TO.C,R25*%
X165100000Y-49690000D03*
X165100000Y-39530000D03*
%TD*%
D17*
%TO.C,Q8*%
X126855000Y-56720000D03*
X125585000Y-56720000D03*
D18*
X124315000Y-56720000D03*
%TD*%
D10*
%TO.C,R26*%
X125920000Y-41750000D03*
X136080000Y-41750000D03*
%TD*%
%TO.C,U1*%
X151242000Y-100338000D03*
X151242000Y-97798000D03*
X151242000Y-95258000D03*
X151242000Y-92718000D03*
X158862000Y-92718000D03*
X158862000Y-95258000D03*
X158862000Y-97798000D03*
D20*
X158862000Y-100338000D03*
%TD*%
D10*
%TO.C,R12*%
X179605000Y-75760000D03*
X169445000Y-75760000D03*
%TD*%
D19*
%TO.C,C5*%
X154000000Y-30000000D03*
X154000000Y-25000000D03*
%TD*%
D10*
%TO.C,R15*%
X162765000Y-78840000D03*
X152605000Y-78840000D03*
%TD*%
%TO.C,D11*%
X179850000Y-45110000D03*
D14*
X172230000Y-45110000D03*
%TD*%
D15*
%TO.C,RV5*%
X197104000Y-82804000D03*
X197104000Y-85344000D03*
D16*
X197104000Y-87884000D03*
%TD*%
D10*
%TO.C,D8*%
X178915000Y-62610000D03*
D14*
X171295000Y-62610000D03*
%TD*%
D17*
%TO.C,Q10*%
X142080000Y-49000000D03*
X140810000Y-49000000D03*
D18*
X139540000Y-49000000D03*
%TD*%
D10*
%TO.C,D13*%
X172170000Y-48110000D03*
D20*
X179790000Y-48110000D03*
%TD*%
D17*
%TO.C,Q4*%
X186105000Y-88110000D03*
X184835000Y-88110000D03*
D18*
X183565000Y-88110000D03*
%TD*%
D15*
%TO.C,J1*%
X186055000Y-26035000D03*
X186055000Y-23495000D03*
X188595000Y-26035000D03*
X188595000Y-23495000D03*
X191135000Y-26035000D03*
X191135000Y-23495000D03*
X193675000Y-26035000D03*
X193675000Y-23495000D03*
X196215000Y-26035000D03*
D16*
X196215000Y-23495000D03*
%TD*%
D10*
%TO.C,R51*%
X154432000Y-117348000D03*
X144272000Y-117348000D03*
%TD*%
%TO.C,R14*%
X179605000Y-83860000D03*
X169445000Y-83860000D03*
%TD*%
%TO.C,D14*%
X172290000Y-51110000D03*
D20*
X179910000Y-51110000D03*
%TD*%
D19*
%TO.C,C6*%
X157000000Y-25000000D03*
X157000000Y-30000000D03*
%TD*%
D10*
%TO.C,R40*%
X180768000Y-106662000D03*
X170608000Y-106662000D03*
%TD*%
%TO.C,D12*%
X192550000Y-45425000D03*
D21*
X192550000Y-37805000D03*
%TD*%
D10*
%TO.C,R36*%
X161925000Y-64595000D03*
X151765000Y-64595000D03*
%TD*%
%TO.C,D17*%
X161801000Y-107486000D03*
D14*
X154181000Y-107486000D03*
%TD*%
D10*
%TO.C,R24*%
X136080000Y-50750000D03*
X125920000Y-50750000D03*
%TD*%
D15*
%TO.C,J2*%
X196596000Y-117094000D03*
X196596000Y-114554000D03*
X196596000Y-112014000D03*
X196596000Y-109474000D03*
X196596000Y-106934000D03*
D16*
X196596000Y-104394000D03*
%TD*%
D10*
%TO.C,R38*%
X161925000Y-58595000D03*
X151765000Y-58595000D03*
%TD*%
%TO.C,R19*%
X125920000Y-35750000D03*
X136080000Y-35750000D03*
%TD*%
D15*
%TO.C,SW1*%
X145415000Y-82550000D03*
X145415000Y-80010000D03*
D16*
X145415000Y-77470000D03*
%TD*%
D10*
%TO.C,R16*%
X180275000Y-66060000D03*
X170115000Y-66060000D03*
%TD*%
%TO.C,R46*%
X161925000Y-55595000D03*
X151765000Y-55595000D03*
%TD*%
%TO.C,R45*%
X175768000Y-90932000D03*
X165608000Y-90932000D03*
%TD*%
D19*
%TO.C,RV6*%
X185605000Y-95030000D03*
X185605000Y-97570000D03*
X185605000Y-100110000D03*
%TD*%
D22*
%TO.C,TP1*%
X140716000Y-81026000D03*
%TD*%
D11*
%TO.C,H1*%
X124000000Y-26000000D03*
%TD*%
D19*
%TO.C,C7*%
X133605000Y-61610000D03*
X133605000Y-66610000D03*
%TD*%
M02*
