%TF.GenerationSoftware,KiCad,Pcbnew,9.0.5*%
%TF.CreationDate,2025-10-12T14:47:24+02:00*%
%TF.ProjectId,11_fm_drum,31315f66-6d5f-4647-9275-6d2e6b696361,rev?*%
%TF.SameCoordinates,Original*%
%TF.FileFunction,Copper,L2,Bot*%
%TF.FilePolarity,Positive*%
%FSLAX46Y46*%
G04 Gerber Fmt 4.6, Leading zero omitted, Abs format (unit mm)*
G04 Created by KiCad (PCBNEW 9.0.5) date 2025-10-12 14:47:24*
%MOMM*%
%LPD*%
G01*
G04 APERTURE LIST*
G04 Aperture macros list*
%AMRoundRect*
0 Rectangle with rounded corners*
0 $1 Rounding radius*
0 $2 $3 $4 $5 $6 $7 $8 $9 X,Y pos of 4 corners*
0 Add a 4 corners polygon primitive as box body*
4,1,4,$2,$3,$4,$5,$6,$7,$8,$9,$2,$3,0*
0 Add four circle primitives for the rounded corners*
1,1,$1+$1,$2,$3*
1,1,$1+$1,$4,$5*
1,1,$1+$1,$6,$7*
1,1,$1+$1,$8,$9*
0 Add four rect primitives between the rounded corners*
20,1,$1+$1,$2,$3,$4,$5,0*
20,1,$1+$1,$4,$5,$6,$7,0*
20,1,$1+$1,$6,$7,$8,$9,0*
20,1,$1+$1,$8,$9,$2,$3,0*%
G04 Aperture macros list end*
%TA.AperFunction,ComponentPad*%
%ADD10C,1.600000*%
%TD*%
%TA.AperFunction,ComponentPad*%
%ADD11O,1.500000X1.050000*%
%TD*%
%TA.AperFunction,ComponentPad*%
%ADD12R,1.500000X1.050000*%
%TD*%
%TA.AperFunction,ComponentPad*%
%ADD13RoundRect,0.250000X-0.550000X-0.550000X0.550000X-0.550000X0.550000X0.550000X-0.550000X0.550000X0*%
%TD*%
%TA.AperFunction,ComponentPad*%
%ADD14C,1.700000*%
%TD*%
%TA.AperFunction,ComponentPad*%
%ADD15R,1.700000X1.700000*%
%TD*%
%TA.AperFunction,ComponentPad*%
%ADD16O,1.050000X1.500000*%
%TD*%
%TA.AperFunction,ComponentPad*%
%ADD17R,1.050000X1.500000*%
%TD*%
%TA.AperFunction,ComponentPad*%
%ADD18C,2.000000*%
%TD*%
%TA.AperFunction,ComponentPad*%
%ADD19RoundRect,0.250000X0.550000X0.550000X-0.550000X0.550000X-0.550000X-0.550000X0.550000X-0.550000X0*%
%TD*%
%TA.AperFunction,ComponentPad*%
%ADD20RoundRect,0.250000X-0.550000X0.550000X-0.550000X-0.550000X0.550000X-0.550000X0.550000X0.550000X0*%
%TD*%
%TA.AperFunction,SMDPad,CuDef*%
%ADD21R,1.000000X1.000000*%
%TD*%
%TA.AperFunction,ViaPad*%
%ADD22C,0.600000*%
%TD*%
%TA.AperFunction,Conductor*%
%ADD23C,0.200000*%
%TD*%
G04 APERTURE END LIST*
D10*
%TO.P,C14,1*%
%TO.N,Net-(Q9-B)*%
X177040000Y-38360000D03*
%TO.P,C14,2*%
%TO.N,Net-(C12-Pad1)*%
X182040000Y-38360000D03*
%TD*%
%TO.P,C12,1*%
%TO.N,Net-(C12-Pad1)*%
X165350000Y-35360000D03*
%TO.P,C12,2*%
%TO.N,Net-(Q7-C)*%
X160350000Y-35360000D03*
%TD*%
D11*
%TO.P,Q1,3,E*%
%TO.N,Net-(Q1-E)*%
X139918000Y-102616000D03*
%TO.P,Q1,2,B*%
%TO.N,Net-(D3-A)*%
X139918000Y-103886000D03*
D12*
%TO.P,Q1,1,C*%
%TO.N,GND*%
X139918000Y-105156000D03*
%TD*%
D10*
%TO.P,C2,2*%
%TO.N,GND*%
X166678600Y-26000000D03*
D13*
%TO.P,C2,1*%
%TO.N,+12V*%
X164178600Y-26000000D03*
%TD*%
D10*
%TO.P,R29,2*%
%TO.N,Net-(U2B-+)*%
X136080000Y-47750000D03*
%TO.P,R29,1*%
%TO.N,GND*%
X125920000Y-47750000D03*
%TD*%
%TO.P,C1,1*%
%TO.N,gate in*%
X123412000Y-94290000D03*
%TO.P,C1,2*%
%TO.N,Net-(D2-K)*%
X123412000Y-89290000D03*
%TD*%
%TO.P,R21,2*%
%TO.N,Net-(Q7-B)*%
X195800000Y-46445000D03*
%TO.P,R21,1*%
%TO.N,Net-(D13-A)*%
X195800000Y-36285000D03*
%TD*%
%TO.P,R41,2*%
%TO.N,Net-(U2C-+)*%
X161925000Y-67595000D03*
%TO.P,R41,1*%
%TO.N,GND*%
X151765000Y-67595000D03*
%TD*%
D14*
%TO.P,RV1,3,3*%
%TO.N,GND*%
X191008000Y-100076000D03*
%TO.P,RV1,2,2*%
%TO.N,Net-(D7-A)*%
X191008000Y-97536000D03*
D15*
%TO.P,RV1,1,1*%
%TO.N,tune cv*%
X191008000Y-94996000D03*
%TD*%
D11*
%TO.P,Q13,3,E*%
%TO.N,Net-(Q13-E)*%
X178456000Y-117094000D03*
%TO.P,Q13,2,B*%
%TO.N,Net-(D17-A)*%
X178456000Y-115824000D03*
D12*
%TO.P,Q13,1,C*%
%TO.N,GND*%
X178456000Y-114554000D03*
%TD*%
D13*
%TO.P,D1,1,K*%
%TO.N,Net-(D1-K)*%
X125476000Y-83106000D03*
D10*
%TO.P,D1,2,A*%
%TO.N,Net-(D1-A)*%
X133096000Y-83106000D03*
%TD*%
%TO.P,R33,2*%
%TO.N,tune 2*%
X144272000Y-89408000D03*
%TO.P,R33,1*%
%TO.N,Net-(SW1-B)*%
X144272000Y-99568000D03*
%TD*%
%TO.P,R50,2*%
%TO.N,square 2*%
X139920000Y-35750000D03*
%TO.P,R50,1*%
%TO.N,Net-(U2D-+)*%
X150080000Y-35750000D03*
%TD*%
D16*
%TO.P,Q6,3,E*%
%TO.N,GND*%
X132875000Y-56610000D03*
%TO.P,Q6,2,B*%
%TO.N,Net-(Q6-B)*%
X131605000Y-56610000D03*
D17*
%TO.P,Q6,1,C*%
%TO.N,Net-(Q6-C)*%
X130335000Y-56610000D03*
%TD*%
D14*
%TO.P,RV7,3,3*%
%TO.N,Net-(R49-Pad2)*%
X191262000Y-117094000D03*
%TO.P,RV7,2,2*%
X188722000Y-117094000D03*
D15*
%TO.P,RV7,1,1*%
%TO.N,Net-(D16-K)*%
X186182000Y-117094000D03*
%TD*%
D10*
%TO.P,D4,2,A*%
%TO.N,GND*%
X135122000Y-111188000D03*
D13*
%TO.P,D4,1,K*%
%TO.N,Net-(D3-A)*%
X127502000Y-111188000D03*
%TD*%
D10*
%TO.P,C17,2*%
%TO.N,Net-(Q11-E)*%
X152830000Y-45750000D03*
%TO.P,C17,1*%
%TO.N,triangle 2*%
X152830000Y-50750000D03*
%TD*%
%TO.P,R6,2*%
%TO.N,Net-(D3-A)*%
X135202000Y-105188000D03*
%TO.P,R6,1*%
%TO.N,accent cv*%
X125042000Y-105188000D03*
%TD*%
D16*
%TO.P,Q11,3,E*%
%TO.N,Net-(Q11-E)*%
X148850000Y-49110000D03*
%TO.P,Q11,2,B*%
%TO.N,Net-(Q11-B)*%
X147580000Y-49110000D03*
D17*
%TO.P,Q11,1,C*%
%TO.N,Net-(Q11-C)*%
X146310000Y-49110000D03*
%TD*%
D18*
%TO.P,C8,2*%
%TO.N,-12V*%
X148595000Y-62095000D03*
%TO.P,C8,1*%
%TO.N,GND*%
X148595000Y-57095000D03*
%TD*%
D10*
%TO.P,R10,2*%
%TO.N,Net-(Q2-B)*%
X131726000Y-114140000D03*
%TO.P,R10,1*%
%TO.N,Net-(Q1-E)*%
X141886000Y-114140000D03*
%TD*%
%TO.P,C4,2*%
%TO.N,GND*%
X141149200Y-85321000D03*
%TO.P,C4,1*%
%TO.N,Net-(D1-K)*%
X136149200Y-85321000D03*
%TD*%
%TO.P,R7,2*%
%TO.N,Net-(R7-Pad2)*%
X192024000Y-60960000D03*
%TO.P,R7,1*%
%TO.N,GND*%
X181864000Y-60960000D03*
%TD*%
%TO.P,R44,2*%
%TO.N,square 2*%
X139920000Y-39000000D03*
%TO.P,R44,1*%
%TO.N,Net-(Q10-B)*%
X150080000Y-39000000D03*
%TD*%
D18*
%TO.P,C10,2*%
%TO.N,-12V*%
X162052000Y-94528000D03*
%TO.P,C10,1*%
%TO.N,GND*%
X162052000Y-99528000D03*
%TD*%
D10*
%TO.P,R22,2*%
%TO.N,Net-(Q8-E)*%
X125920000Y-32750000D03*
%TO.P,R22,1*%
%TO.N,Net-(Q6-C)*%
X136080000Y-32750000D03*
%TD*%
%TO.P,R37,2*%
%TO.N,Net-(Q12-C)*%
X180768000Y-103662000D03*
%TO.P,R37,1*%
%TO.N,Net-(SW2-B)*%
X170608000Y-103662000D03*
%TD*%
%TO.P,R3,1*%
%TO.N,trigger*%
X135096000Y-77106000D03*
%TO.P,R3,2*%
%TO.N,Net-(D1-A)*%
X124936000Y-77106000D03*
%TD*%
%TO.P,C11,2*%
%TO.N,GND*%
X188355000Y-72860000D03*
%TO.P,C11,1*%
%TO.N,Net-(D6-K)*%
X183355000Y-72860000D03*
%TD*%
%TO.P,R18,2*%
%TO.N,tune 2*%
X162765000Y-81840000D03*
%TO.P,R18,1*%
%TO.N,Net-(R18-Pad1)*%
X152605000Y-81840000D03*
%TD*%
%TO.P,C15,2*%
%TO.N,Net-(Q9-E)*%
X174040000Y-38360000D03*
%TO.P,C15,1*%
%TO.N,Net-(C15-Pad1)*%
X169040000Y-38360000D03*
%TD*%
%TO.P,R42,2*%
%TO.N,Net-(Q12-B)*%
X175768000Y-93932000D03*
%TO.P,R42,1*%
%TO.N,Net-(D16-K)*%
X165608000Y-93932000D03*
%TD*%
%TO.P,R34,2*%
%TO.N,pulse*%
X188850000Y-46940000D03*
%TO.P,R34,1*%
%TO.N,Net-(C15-Pad1)*%
X188850000Y-36780000D03*
%TD*%
%TO.P,R39,2*%
%TO.N,Net-(Q11-B)*%
X150080000Y-42000000D03*
%TO.P,R39,1*%
%TO.N,trigger*%
X139920000Y-42000000D03*
%TD*%
%TO.P,R43,2*%
%TO.N,Net-(D17-A)*%
X169926000Y-117094000D03*
%TO.P,R43,1*%
%TO.N,decay cv*%
X159766000Y-117094000D03*
%TD*%
%TO.P,C3,2*%
%TO.N,-12V*%
X175500000Y-26000000D03*
D13*
%TO.P,C3,1*%
%TO.N,GND*%
X173000000Y-26000000D03*
%TD*%
D10*
%TO.P,D2,2,A*%
%TO.N,GND*%
X135202000Y-102188000D03*
D13*
%TO.P,D2,1,K*%
%TO.N,Net-(D2-K)*%
X127582000Y-102188000D03*
%TD*%
D10*
%TO.P,D7,2,A*%
%TO.N,Net-(D7-A)*%
X163225000Y-75840000D03*
D13*
%TO.P,D7,1,K*%
%TO.N,Net-(D7-K)*%
X155605000Y-75840000D03*
%TD*%
D10*
%TO.P,R4,2*%
%TO.N,Net-(D2-K)*%
X131064000Y-90060000D03*
%TO.P,R4,1*%
%TO.N,GND*%
X141224000Y-90060000D03*
%TD*%
%TO.P,R13,2*%
%TO.N,Net-(Q4-C)*%
X179605000Y-79810000D03*
%TO.P,R13,1*%
%TO.N,triangle 2*%
X169445000Y-79810000D03*
%TD*%
%TO.P,R31,2*%
%TO.N,Net-(Q9-E)*%
X161600000Y-49770000D03*
%TO.P,R31,1*%
%TO.N,-12V*%
X161600000Y-39610000D03*
%TD*%
%TO.P,R52,2*%
%TO.N,out*%
X154352000Y-113696000D03*
%TO.P,R52,1*%
%TO.N,Net-(R48-Pad2)*%
X144192000Y-113696000D03*
%TD*%
D14*
%TO.P,SW2,3,C*%
%TO.N,pulse*%
X169672000Y-56388000D03*
%TO.P,SW2,2,B*%
%TO.N,Net-(SW2-B)*%
X172212000Y-56388000D03*
D15*
%TO.P,SW2,1,A*%
%TO.N,sine*%
X174752000Y-56388000D03*
%TD*%
D10*
%TO.P,D3,2,A*%
%TO.N,Net-(D3-A)*%
X135122000Y-108188000D03*
D13*
%TO.P,D3,1,K*%
%TO.N,+12V*%
X127502000Y-108188000D03*
%TD*%
D10*
%TO.P,R11,2*%
%TO.N,accented trigger*%
X147902000Y-109616000D03*
%TO.P,R11,1*%
%TO.N,GND*%
X137742000Y-109616000D03*
%TD*%
D18*
%TO.P,C9,2*%
%TO.N,GND*%
X148052000Y-94528000D03*
%TO.P,C9,1*%
%TO.N,+12V*%
X148052000Y-99528000D03*
%TD*%
D10*
%TO.P,R28,2*%
%TO.N,Net-(C12-Pad1)*%
X180040000Y-42110000D03*
%TO.P,R28,1*%
%TO.N,Net-(Q9-E)*%
X169880000Y-42110000D03*
%TD*%
%TO.P,R9,1*%
%TO.N,Net-(D5-K)*%
X135096000Y-80106000D03*
%TO.P,R9,2*%
%TO.N,Net-(R9-Pad2)*%
X124936000Y-80106000D03*
%TD*%
D11*
%TO.P,Q12,3,E*%
%TO.N,Net-(Q12-E)*%
X173608000Y-97662000D03*
%TO.P,Q12,2,B*%
%TO.N,Net-(Q12-B)*%
X173608000Y-98932000D03*
D12*
%TO.P,Q12,1,C*%
%TO.N,Net-(Q12-C)*%
X173608000Y-100202000D03*
%TD*%
D10*
%TO.P,D15,2,A*%
%TO.N,tune 2*%
X161905000Y-70845000D03*
D13*
%TO.P,D15,1,K*%
%TO.N,Net-(D15-K)*%
X154285000Y-70845000D03*
%TD*%
D16*
%TO.P,Q7,3,E*%
%TO.N,Net-(D11-K)*%
X186690000Y-54970000D03*
%TO.P,Q7,2,B*%
%TO.N,Net-(Q7-B)*%
X185420000Y-54970000D03*
D17*
%TO.P,Q7,1,C*%
%TO.N,Net-(Q7-C)*%
X184150000Y-54970000D03*
%TD*%
D10*
%TO.P,R5,2*%
%TO.N,+12V*%
X141224000Y-99060000D03*
%TO.P,R5,1*%
%TO.N,Net-(U1B--)*%
X131064000Y-99060000D03*
%TD*%
%TO.P,D6,2,A*%
%TO.N,accented trigger*%
X178775000Y-87060000D03*
D13*
%TO.P,D6,1,K*%
%TO.N,Net-(D6-K)*%
X171155000Y-87060000D03*
%TD*%
D10*
%TO.P,R49,2*%
%TO.N,Net-(R49-Pad2)*%
X170006000Y-114094000D03*
%TO.P,R49,1*%
%TO.N,Net-(Q13-E)*%
X159846000Y-114094000D03*
%TD*%
%TO.P,D16,2,A*%
%TO.N,accented trigger*%
X161801000Y-104486000D03*
D13*
%TO.P,D16,1,K*%
%TO.N,Net-(D16-K)*%
X154181000Y-104486000D03*
%TD*%
D10*
%TO.P,R48,2*%
%TO.N,Net-(R48-Pad2)*%
X170528000Y-109932000D03*
%TO.P,R48,1*%
%TO.N,Net-(Q12-E)*%
X180688000Y-109932000D03*
%TD*%
%TO.P,R32,2*%
%TO.N,square 1*%
X125920000Y-44750000D03*
%TO.P,R32,1*%
%TO.N,Net-(U2B-+)*%
X136080000Y-44750000D03*
%TD*%
%TO.P,R30,2*%
%TO.N,Net-(Q9-B)*%
X158350000Y-49860000D03*
%TO.P,R30,1*%
%TO.N,GND*%
X158350000Y-39700000D03*
%TD*%
%TO.P,D10,2,A*%
%TO.N,GND*%
X179335000Y-72310000D03*
D13*
%TO.P,D10,1,K*%
%TO.N,sine*%
X171715000Y-72310000D03*
%TD*%
D10*
%TO.P,R2,2*%
%TO.N,Net-(U1B--)*%
X141224000Y-96060000D03*
%TO.P,R2,1*%
%TO.N,GND*%
X131064000Y-96060000D03*
%TD*%
%TO.P,D18,2,A*%
%TO.N,GND*%
X161801000Y-110486000D03*
D13*
%TO.P,D18,1,K*%
%TO.N,Net-(D17-A)*%
X154181000Y-110486000D03*
%TD*%
D10*
%TO.P,R17,2*%
%TO.N,Net-(R17-Pad2)*%
X191008000Y-80264000D03*
%TO.P,R17,1*%
%TO.N,+12V*%
X191008000Y-90424000D03*
%TD*%
%TO.P,R35,2*%
%TO.N,Net-(Q11-E)*%
X161925000Y-61595000D03*
%TO.P,R35,1*%
%TO.N,Net-(D15-K)*%
X151765000Y-61595000D03*
%TD*%
%TO.P,D9,2,A*%
%TO.N,sine*%
X171835000Y-69310000D03*
D19*
%TO.P,D9,1,K*%
%TO.N,GND*%
X179455000Y-69310000D03*
%TD*%
D14*
%TO.P,RV2,3,3*%
%TO.N,tune 2*%
X192532000Y-104648000D03*
%TO.P,RV2,2,2*%
%TO.N,Net-(R9-Pad2)*%
X192532000Y-107188000D03*
D15*
%TO.P,RV2,1,1*%
X192532000Y-109728000D03*
%TD*%
D13*
%TO.P,D5,1,K*%
%TO.N,Net-(D5-K)*%
X125476000Y-86106000D03*
D10*
%TO.P,D5,2,A*%
%TO.N,Net-(D1-K)*%
X133096000Y-86106000D03*
%TD*%
D11*
%TO.P,Q5,3,E*%
%TO.N,Net-(Q5-E)*%
X161335000Y-85640000D03*
%TO.P,Q5,2,B*%
%TO.N,Net-(D7-K)*%
X161335000Y-86910000D03*
D12*
%TO.P,Q5,1,C*%
%TO.N,GND*%
X161335000Y-88180000D03*
%TD*%
D10*
%TO.P,R1,2*%
%TO.N,gate in*%
X131064000Y-93060000D03*
%TO.P,R1,1*%
%TO.N,GND*%
X141224000Y-93060000D03*
%TD*%
D11*
%TO.P,Q2,3,E*%
%TO.N,accented trigger*%
X146918000Y-102616000D03*
%TO.P,Q2,2,B*%
%TO.N,Net-(Q2-B)*%
X146918000Y-103886000D03*
D12*
%TO.P,Q2,1,C*%
%TO.N,+12V*%
X146918000Y-105156000D03*
%TD*%
D16*
%TO.P,Q9,3,E*%
%TO.N,Net-(Q9-E)*%
X189865000Y-54250000D03*
%TO.P,Q9,2,B*%
%TO.N,Net-(Q9-B)*%
X191135000Y-54250000D03*
D17*
%TO.P,Q9,1,C*%
%TO.N,+12V*%
X192405000Y-54250000D03*
%TD*%
D10*
%TO.P,R47,2*%
%TO.N,Net-(U2D-+)*%
X150080000Y-32750000D03*
%TO.P,R47,1*%
%TO.N,GND*%
X139920000Y-32750000D03*
%TD*%
%TO.P,R23,2*%
%TO.N,Net-(Q8-B)*%
X122730000Y-61214000D03*
%TO.P,R23,1*%
%TO.N,trigger*%
X122730000Y-71374000D03*
%TD*%
%TO.P,R8,2*%
%TO.N,Net-(Q2-B)*%
X131726000Y-117140000D03*
%TO.P,R8,1*%
%TO.N,trigger*%
X141886000Y-117140000D03*
%TD*%
D14*
%TO.P,RV3,3,3*%
%TO.N,Net-(R7-Pad2)*%
X195580000Y-67056000D03*
%TO.P,RV3,2,2*%
X193040000Y-67056000D03*
D15*
%TO.P,RV3,1,1*%
%TO.N,Net-(D1-K)*%
X190500000Y-67056000D03*
%TD*%
D14*
%TO.P,RV4,3,3*%
%TO.N,+12V*%
X195580000Y-71628000D03*
%TO.P,RV4,2,2*%
%TO.N,tune 1*%
X195580000Y-74168000D03*
D15*
%TO.P,RV4,1,1*%
%TO.N,Net-(Q3-E)*%
X195580000Y-76708000D03*
%TD*%
D10*
%TO.P,C13,2*%
%TO.N,Net-(Q8-E)*%
X129605000Y-61610000D03*
%TO.P,C13,1*%
%TO.N,Net-(SW1-A)*%
X129605000Y-66610000D03*
%TD*%
%TO.P,R20,2*%
%TO.N,Net-(U2A-+)*%
X125920000Y-38750000D03*
%TO.P,R20,1*%
%TO.N,tune 1*%
X136080000Y-38750000D03*
%TD*%
%TO.P,C16,2*%
%TO.N,GND*%
X166119000Y-109526000D03*
%TO.P,C16,1*%
%TO.N,Net-(D16-K)*%
X166119000Y-104526000D03*
%TD*%
D11*
%TO.P,Q3,3,E*%
%TO.N,Net-(Q3-E)*%
X153715000Y-85590000D03*
%TO.P,Q3,2,B*%
%TO.N,Net-(D7-K)*%
X153715000Y-86860000D03*
D12*
%TO.P,Q3,1,C*%
%TO.N,GND*%
X153715000Y-88130000D03*
%TD*%
D10*
%TO.P,U2,14*%
%TO.N,square 2*%
X144855000Y-56910000D03*
%TO.P,U2,13,-*%
%TO.N,triangle 2*%
X144855000Y-59450000D03*
%TO.P,U2,12,+*%
%TO.N,Net-(U2D-+)*%
X144855000Y-61990000D03*
%TO.P,U2,11,V-*%
%TO.N,-12V*%
X144855000Y-64530000D03*
%TO.P,U2,10,+*%
%TO.N,Net-(U2C-+)*%
X144855000Y-67070000D03*
%TO.P,U2,9,-*%
%TO.N,Net-(Q11-E)*%
X144855000Y-69610000D03*
%TO.P,U2,8*%
%TO.N,triangle 2*%
X144855000Y-72150000D03*
%TO.P,U2,7*%
%TO.N,square 1*%
X137235000Y-72150000D03*
%TO.P,U2,6,-*%
%TO.N,Net-(SW1-A)*%
X137235000Y-69610000D03*
%TO.P,U2,5,+*%
%TO.N,Net-(U2B-+)*%
X137235000Y-67070000D03*
%TO.P,U2,4,V+*%
%TO.N,+12V*%
X137235000Y-64530000D03*
%TO.P,U2,3,+*%
%TO.N,Net-(U2A-+)*%
X137235000Y-61990000D03*
%TO.P,U2,2,-*%
%TO.N,Net-(Q8-E)*%
X137235000Y-59450000D03*
D13*
%TO.P,U2,1*%
%TO.N,Net-(SW1-A)*%
X137235000Y-56910000D03*
%TD*%
D10*
%TO.P,R27,2*%
%TO.N,Net-(SW1-A)*%
X125730000Y-61214000D03*
%TO.P,R27,1*%
%TO.N,Net-(Q8-C)*%
X125730000Y-71374000D03*
%TD*%
%TO.P,R25,2*%
%TO.N,Net-(Q7-C)*%
X165100000Y-49690000D03*
%TO.P,R25,1*%
%TO.N,-12V*%
X165100000Y-39530000D03*
%TD*%
D16*
%TO.P,Q8,3,E*%
%TO.N,Net-(Q8-E)*%
X126855000Y-56720000D03*
%TO.P,Q8,2,B*%
%TO.N,Net-(Q8-B)*%
X125585000Y-56720000D03*
D17*
%TO.P,Q8,1,C*%
%TO.N,Net-(Q8-C)*%
X124315000Y-56720000D03*
%TD*%
D10*
%TO.P,R26,2*%
%TO.N,square 1*%
X125920000Y-41750000D03*
%TO.P,R26,1*%
%TO.N,Net-(Q6-B)*%
X136080000Y-41750000D03*
%TD*%
%TO.P,U1,8,V+*%
%TO.N,+12V*%
X151242000Y-100338000D03*
%TO.P,U1,7*%
%TO.N,trigger*%
X151242000Y-97798000D03*
%TO.P,U1,6,-*%
%TO.N,Net-(U1B--)*%
X151242000Y-95258000D03*
%TO.P,U1,5,+*%
%TO.N,Net-(D2-K)*%
X151242000Y-92718000D03*
%TO.P,U1,4,V-*%
%TO.N,-12V*%
X158862000Y-92718000D03*
%TO.P,U1,3,+*%
%TO.N,GND*%
X158862000Y-95258000D03*
%TO.P,U1,2,-*%
%TO.N,Net-(Q12-E)*%
X158862000Y-97798000D03*
D19*
%TO.P,U1,1*%
%TO.N,Net-(R48-Pad2)*%
X158862000Y-100338000D03*
%TD*%
D10*
%TO.P,R12,2*%
%TO.N,sine*%
X179605000Y-75760000D03*
%TO.P,R12,1*%
%TO.N,triangle 2*%
X169445000Y-75760000D03*
%TD*%
D18*
%TO.P,C5,2*%
%TO.N,GND*%
X154000000Y-30000000D03*
%TO.P,C5,1*%
%TO.N,+12V*%
X154000000Y-25000000D03*
%TD*%
D10*
%TO.P,R15,2*%
%TO.N,Net-(D7-K)*%
X162765000Y-78840000D03*
%TO.P,R15,1*%
%TO.N,-12V*%
X152605000Y-78840000D03*
%TD*%
%TO.P,D11,2,A*%
%TO.N,square 1*%
X179850000Y-45110000D03*
D13*
%TO.P,D11,1,K*%
%TO.N,Net-(D11-K)*%
X172230000Y-45110000D03*
%TD*%
D14*
%TO.P,RV5,3,3*%
%TO.N,Net-(R17-Pad2)*%
X197104000Y-82804000D03*
%TO.P,RV5,2,2*%
%TO.N,Net-(R18-Pad1)*%
X197104000Y-85344000D03*
D15*
%TO.P,RV5,1,1*%
%TO.N,Net-(Q5-E)*%
X197104000Y-87884000D03*
%TD*%
D10*
%TO.P,D8,2,A*%
%TO.N,trigger*%
X178915000Y-62610000D03*
D13*
%TO.P,D8,1,K*%
%TO.N,Net-(D8-K)*%
X171295000Y-62610000D03*
%TD*%
D16*
%TO.P,Q10,3,E*%
%TO.N,GND*%
X142080000Y-49000000D03*
%TO.P,Q10,2,B*%
%TO.N,Net-(Q10-B)*%
X140810000Y-49000000D03*
D17*
%TO.P,Q10,1,C*%
%TO.N,Net-(Q10-C)*%
X139540000Y-49000000D03*
%TD*%
D10*
%TO.P,D13,2,A*%
%TO.N,Net-(D13-A)*%
X172170000Y-48110000D03*
D19*
%TO.P,D13,1,K*%
%TO.N,square 1*%
X179790000Y-48110000D03*
%TD*%
D16*
%TO.P,Q4,3,E*%
%TO.N,sine*%
X186105000Y-88110000D03*
%TO.P,Q4,2,B*%
%TO.N,Net-(Q4-B)*%
X184835000Y-88110000D03*
D17*
%TO.P,Q4,1,C*%
%TO.N,Net-(Q4-C)*%
X183565000Y-88110000D03*
%TD*%
D14*
%TO.P,J1,10,Pin_10*%
%TO.N,-12V*%
X186055000Y-26035000D03*
%TO.P,J1,9,Pin_9*%
X186055000Y-23495000D03*
%TO.P,J1,8,Pin_8*%
%TO.N,GND*%
X188595000Y-26035000D03*
%TO.P,J1,7,Pin_7*%
X188595000Y-23495000D03*
%TO.P,J1,6,Pin_6*%
X191135000Y-26035000D03*
%TO.P,J1,5,Pin_5*%
X191135000Y-23495000D03*
%TO.P,J1,4,Pin_4*%
X193675000Y-26035000D03*
%TO.P,J1,3,Pin_3*%
X193675000Y-23495000D03*
%TO.P,J1,2,Pin_2*%
%TO.N,+12V*%
X196215000Y-26035000D03*
D15*
%TO.P,J1,1,Pin_1*%
X196215000Y-23495000D03*
%TD*%
D10*
%TO.P,R51,2*%
%TO.N,Net-(R49-Pad2)*%
X154432000Y-117348000D03*
%TO.P,R51,1*%
%TO.N,GND*%
X144272000Y-117348000D03*
%TD*%
%TO.P,R14,2*%
%TO.N,Net-(Q4-B)*%
X179605000Y-83860000D03*
%TO.P,R14,1*%
%TO.N,Net-(D6-K)*%
X169445000Y-83860000D03*
%TD*%
%TO.P,D14,2,A*%
%TO.N,Net-(D13-A)*%
X172290000Y-51110000D03*
D19*
%TO.P,D14,1,K*%
%TO.N,square 2*%
X179910000Y-51110000D03*
%TD*%
D18*
%TO.P,C6,2*%
%TO.N,-12V*%
X157000000Y-25000000D03*
%TO.P,C6,1*%
%TO.N,GND*%
X157000000Y-30000000D03*
%TD*%
D10*
%TO.P,R40,2*%
%TO.N,Net-(Q12-C)*%
X180768000Y-106662000D03*
%TO.P,R40,1*%
%TO.N,GND*%
X170608000Y-106662000D03*
%TD*%
%TO.P,D12,2,A*%
%TO.N,square 2*%
X192550000Y-45425000D03*
D20*
%TO.P,D12,1,K*%
%TO.N,Net-(D11-K)*%
X192550000Y-37805000D03*
%TD*%
D10*
%TO.P,R36,2*%
%TO.N,Net-(U2C-+)*%
X161925000Y-64595000D03*
%TO.P,R36,1*%
%TO.N,Net-(D15-K)*%
X151765000Y-64595000D03*
%TD*%
%TO.P,D17,2,A*%
%TO.N,Net-(D17-A)*%
X161801000Y-107486000D03*
D13*
%TO.P,D17,1,K*%
%TO.N,+12V*%
X154181000Y-107486000D03*
%TD*%
D10*
%TO.P,R24,2*%
%TO.N,Net-(U2A-+)*%
X136080000Y-50750000D03*
%TO.P,R24,1*%
%TO.N,GND*%
X125920000Y-50750000D03*
%TD*%
D14*
%TO.P,J2,6,Pin_6*%
%TO.N,GND*%
X196596000Y-117094000D03*
%TO.P,J2,5,Pin_5*%
%TO.N,out*%
X196596000Y-114554000D03*
%TO.P,J2,4,Pin_4*%
%TO.N,decay cv*%
X196596000Y-112014000D03*
%TO.P,J2,3,Pin_3*%
%TO.N,accent cv*%
X196596000Y-109474000D03*
%TO.P,J2,2,Pin_2*%
%TO.N,tune cv*%
X196596000Y-106934000D03*
D15*
%TO.P,J2,1,Pin_1*%
%TO.N,gate in*%
X196596000Y-104394000D03*
%TD*%
D10*
%TO.P,R38,2*%
%TO.N,Net-(Q11-E)*%
X161925000Y-58595000D03*
%TO.P,R38,1*%
%TO.N,Net-(Q10-C)*%
X151765000Y-58595000D03*
%TD*%
%TO.P,R19,2*%
%TO.N,Net-(Q8-E)*%
X125920000Y-35750000D03*
%TO.P,R19,1*%
%TO.N,tune 1*%
X136080000Y-35750000D03*
%TD*%
D14*
%TO.P,SW1,3,C*%
%TO.N,GND*%
X145415000Y-82550000D03*
%TO.P,SW1,2,B*%
%TO.N,Net-(SW1-B)*%
X145415000Y-80010000D03*
D15*
%TO.P,SW1,1,A*%
%TO.N,Net-(SW1-A)*%
X145415000Y-77470000D03*
%TD*%
D10*
%TO.P,R16,2*%
%TO.N,sine*%
X180275000Y-66060000D03*
%TO.P,R16,1*%
%TO.N,Net-(D8-K)*%
X170115000Y-66060000D03*
%TD*%
%TO.P,R46,2*%
%TO.N,triangle 2*%
X161925000Y-55595000D03*
%TO.P,R46,1*%
%TO.N,Net-(Q11-C)*%
X151765000Y-55595000D03*
%TD*%
%TO.P,R45,2*%
%TO.N,Net-(R45-Pad2)*%
X175768000Y-90932000D03*
%TO.P,R45,1*%
%TO.N,Net-(D16-K)*%
X165608000Y-90932000D03*
%TD*%
D18*
%TO.P,RV6,3,3*%
%TO.N,Net-(R45-Pad2)*%
X185605000Y-95030000D03*
%TO.P,RV6,2,2*%
X185605000Y-97570000D03*
%TO.P,RV6,1,1*%
%TO.N,Net-(Q12-E)*%
X185605000Y-100110000D03*
%TD*%
D21*
%TO.P,TP1,1,1*%
%TO.N,Net-(D1-K)*%
X140716000Y-81026000D03*
%TD*%
D18*
%TO.P,C7,2*%
%TO.N,GND*%
X133605000Y-61610000D03*
%TO.P,C7,1*%
%TO.N,+12V*%
X133605000Y-66610000D03*
%TD*%
D22*
%TO.N,Net-(R48-Pad2)*%
X157424100Y-112338100D03*
%TO.N,Net-(R9-Pad2)*%
X134458000Y-106426200D03*
%TO.N,tune 1*%
X194579000Y-36907100D03*
%TO.N,Net-(Q11-E)*%
X154832500Y-57643300D03*
%TO.N,Net-(Q10-B)*%
X141295000Y-42855200D03*
%TO.N,Net-(Q9-B)*%
X177650500Y-56584900D03*
%TO.N,Net-(Q7-C)*%
X182673500Y-52711800D03*
%TO.N,Net-(Q3-E)*%
X154112200Y-80125800D03*
%TO.N,Net-(Q2-B)*%
X147644700Y-107747400D03*
%TO.N,accent cv*%
X141239400Y-108191300D03*
X141239400Y-105623600D03*
%TO.N,square 2*%
X144855000Y-50390300D03*
%TO.N,Net-(D6-K)*%
X183192600Y-83074500D03*
%TO.N,trigger*%
X147775000Y-76980600D03*
%TO.N,accented trigger*%
X179273200Y-100163600D03*
X161818800Y-101082100D03*
%TO.N,tune 2*%
X165063300Y-103247500D03*
%TO.N,Net-(D7-A)*%
X189704400Y-76789200D03*
%TO.N,-12V*%
X150644300Y-78944800D03*
%TO.N,Net-(D16-K)*%
X186962100Y-104011400D03*
%TO.N,Net-(Q9-E)*%
X176737700Y-56297700D03*
%TD*%
D23*
%TO.N,Net-(U1B--)*%
X150440000Y-96060000D02*
X151242000Y-95258000D01*
X141224000Y-96060000D02*
X150440000Y-96060000D01*
X138224000Y-99060000D02*
X131064000Y-99060000D01*
X141224000Y-96060000D02*
X138224000Y-99060000D01*
%TO.N,Net-(R48-Pad2)*%
X152490300Y-113696000D02*
X153681900Y-112504400D01*
X144192000Y-113696000D02*
X152490300Y-113696000D01*
X153848200Y-112338100D02*
X157424100Y-112338100D01*
X153681900Y-112504400D02*
X153848200Y-112338100D01*
X153681900Y-112504400D02*
X153848200Y-112338100D01*
X168322100Y-112137900D02*
X170528000Y-109932000D01*
X157624300Y-112137900D02*
X168322100Y-112137900D01*
X157424100Y-112338100D02*
X157624300Y-112137900D01*
%TO.N,Net-(R45-Pad2)*%
X181507000Y-90932000D02*
X185605000Y-95030000D01*
X175768000Y-90932000D02*
X181507000Y-90932000D01*
%TO.N,Net-(R49-Pad2)*%
X188722000Y-117094000D02*
X191262000Y-117094000D01*
X185316800Y-113688800D02*
X188722000Y-117094000D01*
X170411200Y-113688800D02*
X185316800Y-113688800D01*
X170006000Y-114094000D02*
X170411200Y-113688800D01*
X168853300Y-112941300D02*
X170006000Y-114094000D01*
X159434600Y-112941300D02*
X168853300Y-112941300D01*
X155027900Y-117348000D02*
X159434600Y-112941300D01*
X154432000Y-117348000D02*
X155027900Y-117348000D01*
%TO.N,Net-(U2C-+)*%
X146030000Y-65895000D02*
X144855000Y-67070000D01*
X152051200Y-65895000D02*
X146030000Y-65895000D01*
X153351200Y-64595000D02*
X152051200Y-65895000D01*
X161925000Y-64595000D02*
X153351200Y-64595000D01*
%TO.N,Net-(U2A-+)*%
X134384200Y-49054200D02*
X136080000Y-50750000D01*
X125610700Y-49054200D02*
X134384200Y-49054200D01*
X124799200Y-48242700D02*
X125610700Y-49054200D01*
X124799200Y-39870800D02*
X124799200Y-48242700D01*
X125920000Y-38750000D02*
X124799200Y-39870800D01*
%TO.N,pulse*%
X188850000Y-47386200D02*
X188850000Y-46940000D01*
X182922700Y-53313500D02*
X188850000Y-47386200D01*
X172746500Y-53313500D02*
X182922700Y-53313500D01*
X169672000Y-56388000D02*
X172746500Y-53313500D01*
%TO.N,Net-(R18-Pad1)*%
X196523100Y-84763100D02*
X197104000Y-85344000D01*
X186907400Y-84763100D02*
X196523100Y-84763100D01*
X183213800Y-81069500D02*
X186907400Y-84763100D01*
X168674500Y-81069500D02*
X183213800Y-81069500D01*
X168332500Y-80727500D02*
X168674500Y-81069500D01*
X153717500Y-80727500D02*
X168332500Y-80727500D01*
X152605000Y-81840000D02*
X153717500Y-80727500D01*
%TO.N,Net-(R17-Pad2)*%
X193548000Y-82804000D02*
X191008000Y-80264000D01*
X197104000Y-82804000D02*
X193548000Y-82804000D01*
%TO.N,Net-(R9-Pad2)*%
X190843500Y-105499500D02*
X192532000Y-107188000D01*
X169963400Y-105499500D02*
X190843500Y-105499500D01*
X169404800Y-106058100D02*
X169963400Y-105499500D01*
X149861800Y-106058100D02*
X169404800Y-106058100D01*
X149292900Y-106627000D02*
X149861800Y-106058100D01*
X141617500Y-106627000D02*
X149292900Y-106627000D01*
X141458400Y-106786100D02*
X141617500Y-106627000D01*
X138710400Y-106786100D02*
X141458400Y-106786100D01*
X138350500Y-106426200D02*
X138710400Y-106786100D01*
X134458000Y-106426200D02*
X138350500Y-106426200D01*
%TO.N,Net-(R7-Pad2)*%
X195580000Y-67056000D02*
X193040000Y-67056000D01*
%TO.N,Net-(Q13-E)*%
X174809800Y-117094000D02*
X178456000Y-117094000D01*
X173240700Y-115524900D02*
X174809800Y-117094000D01*
X161276900Y-115524900D02*
X173240700Y-115524900D01*
X159846000Y-114094000D02*
X161276900Y-115524900D01*
%TO.N,tune 1*%
X191878400Y-34206500D02*
X194579000Y-36907100D01*
X137623500Y-34206500D02*
X191878400Y-34206500D01*
X136080000Y-35750000D02*
X137623500Y-34206500D01*
%TO.N,Net-(Q12-E)*%
X183157000Y-97662000D02*
X173608000Y-97662000D01*
X185605000Y-100110000D02*
X183157000Y-97662000D01*
X158998000Y-97662000D02*
X158862000Y-97798000D01*
X173608000Y-97662000D02*
X158998000Y-97662000D01*
%TO.N,Net-(Q11-E)*%
X149676700Y-48903300D02*
X152830000Y-45750000D01*
X149676700Y-49110000D02*
X149676700Y-48903300D01*
X148850000Y-49110000D02*
X149676700Y-49110000D01*
X151806900Y-69610000D02*
X144855000Y-69610000D01*
X155467300Y-65949600D02*
X151806900Y-69610000D01*
X162132000Y-65949600D02*
X155467300Y-65949600D01*
X163065200Y-65016400D02*
X162132000Y-65949600D01*
X163065200Y-62735200D02*
X163065200Y-65016400D01*
X161925000Y-61595000D02*
X163065200Y-62735200D01*
X155784200Y-58595000D02*
X161925000Y-58595000D01*
X154832500Y-57643300D02*
X155784200Y-58595000D01*
%TO.N,Net-(Q10-B)*%
X145150200Y-39000000D02*
X150080000Y-39000000D01*
X141295000Y-42855200D02*
X145150200Y-39000000D01*
%TO.N,Net-(Q10-C)*%
X143452600Y-50051700D02*
X139540000Y-50051700D01*
X151765000Y-58364100D02*
X143452600Y-50051700D01*
X151765000Y-58595000D02*
X151765000Y-58364100D01*
X139540000Y-49000000D02*
X139540000Y-50051700D01*
%TO.N,Net-(Q9-B)*%
X191135000Y-54250000D02*
X191135000Y-55301700D01*
X189851800Y-56584900D02*
X191135000Y-55301700D01*
X177650500Y-56584900D02*
X189851800Y-56584900D01*
X176668600Y-57566800D02*
X177650500Y-56584900D01*
X166056800Y-57566800D02*
X176668600Y-57566800D01*
X158350000Y-49860000D02*
X166056800Y-57566800D01*
%TO.N,Net-(Q7-C)*%
X168121800Y-52711800D02*
X165100000Y-49690000D01*
X182673500Y-52711800D02*
X168121800Y-52711800D01*
%TO.N,Net-(Q7-B)*%
X188326700Y-53918300D02*
X185420000Y-53918300D01*
X195800000Y-46445000D02*
X188326700Y-53918300D01*
X185420000Y-54970000D02*
X185420000Y-53918300D01*
%TO.N,Net-(Q5-E)*%
X197104000Y-87884000D02*
X195952300Y-87884000D01*
X193708300Y-85640000D02*
X195952300Y-87884000D01*
X161335000Y-85640000D02*
X193708300Y-85640000D01*
%TO.N,Net-(Q3-E)*%
X163037300Y-80125800D02*
X154112200Y-80125800D01*
X165726000Y-77437100D02*
X163037300Y-80125800D01*
X193699200Y-77437100D02*
X165726000Y-77437100D01*
X194428300Y-76708000D02*
X193699200Y-77437100D01*
X195580000Y-76708000D02*
X194428300Y-76708000D01*
%TO.N,Net-(Q2-B)*%
X147486800Y-107589500D02*
X147644700Y-107747400D01*
X137950500Y-107589500D02*
X147486800Y-107589500D01*
X135490900Y-110049100D02*
X137950500Y-107589500D01*
X134689300Y-110049100D02*
X135490900Y-110049100D01*
X131726000Y-113012400D02*
X134689300Y-110049100D01*
X131726000Y-114140000D02*
X131726000Y-113012400D01*
%TO.N,Net-(D17-A)*%
X178456000Y-115824000D02*
X179507700Y-115824000D01*
X157181000Y-107486000D02*
X154181000Y-110486000D01*
X161801000Y-107486000D02*
X157181000Y-107486000D01*
X170799900Y-117967900D02*
X169926000Y-117094000D01*
X179041200Y-117967900D02*
X170799900Y-117967900D01*
X179507700Y-117501400D02*
X179041200Y-117967900D01*
X179507700Y-115824000D02*
X179507700Y-117501400D01*
%TO.N,out*%
X159035800Y-112772000D02*
X158871000Y-112936800D01*
X159035800Y-112772000D02*
X158871000Y-112936800D01*
X158111800Y-113696000D02*
X154352000Y-113696000D01*
X158871000Y-112936800D02*
X158111800Y-113696000D01*
X194581600Y-112539600D02*
X196596000Y-114554000D01*
X159268200Y-112539600D02*
X194581600Y-112539600D01*
X159035800Y-112772000D02*
X159268200Y-112539600D01*
%TO.N,decay cv*%
X197753700Y-113171700D02*
X196596000Y-112014000D01*
X197753700Y-117639300D02*
X197753700Y-113171700D01*
X196694200Y-118698800D02*
X197753700Y-117639300D01*
X161370800Y-118698800D02*
X196694200Y-118698800D01*
X159766000Y-117094000D02*
X161370800Y-118698800D01*
%TO.N,accent cv*%
X144709300Y-111661200D02*
X141239400Y-108191300D01*
X165541900Y-111661200D02*
X144709300Y-111661200D01*
X168647000Y-108556100D02*
X165541900Y-111661200D01*
X195678100Y-108556100D02*
X168647000Y-108556100D01*
X196596000Y-109474000D02*
X195678100Y-108556100D01*
X140880300Y-105982700D02*
X141239400Y-105623600D01*
X139043000Y-105982700D02*
X140880300Y-105982700D01*
X138866300Y-105806000D02*
X139043000Y-105982700D01*
X138866300Y-105693500D02*
X138866300Y-105806000D01*
X138742100Y-105569300D02*
X138866300Y-105693500D01*
X137817400Y-105569300D02*
X138742100Y-105569300D01*
X135843300Y-103595200D02*
X137817400Y-105569300D01*
X126634800Y-103595200D02*
X135843300Y-103595200D01*
X125042000Y-105188000D02*
X126634800Y-103595200D01*
%TO.N,Net-(D13-A)*%
X195800000Y-36537000D02*
X195800000Y-36285000D01*
X189576400Y-42760600D02*
X195800000Y-36537000D01*
X187594400Y-42760600D02*
X189576400Y-42760600D01*
X183411100Y-46943900D02*
X187594400Y-42760600D01*
X173336100Y-46943900D02*
X183411100Y-46943900D01*
X172170000Y-48110000D02*
X173336100Y-46943900D01*
%TO.N,square 2*%
X185595000Y-45425000D02*
X179910000Y-51110000D01*
X192550000Y-45425000D02*
X185595000Y-45425000D01*
X151631700Y-50390300D02*
X144855000Y-50390300D01*
X153476000Y-48546000D02*
X151631700Y-50390300D01*
X170926000Y-48546000D02*
X153476000Y-48546000D01*
X172363500Y-49983500D02*
X170926000Y-48546000D01*
X178783500Y-49983500D02*
X172363500Y-49983500D01*
X179910000Y-51110000D02*
X178783500Y-49983500D01*
%TO.N,square 1*%
X178713600Y-46246400D02*
X179850000Y-45110000D01*
X154993400Y-46246400D02*
X178713600Y-46246400D01*
X152203900Y-43456900D02*
X154993400Y-46246400D01*
X127626900Y-43456900D02*
X152203900Y-43456900D01*
X125920000Y-41750000D02*
X127626900Y-43456900D01*
%TO.N,Net-(D7-K)*%
X158605000Y-78840000D02*
X155605000Y-75840000D01*
X162765000Y-78840000D02*
X158605000Y-78840000D01*
X154816700Y-86910000D02*
X154766700Y-86860000D01*
X161335000Y-86910000D02*
X154816700Y-86910000D01*
X153715000Y-86860000D02*
X154766700Y-86860000D01*
%TO.N,Net-(D6-K)*%
X182870200Y-82752100D02*
X183192600Y-83074500D01*
X170552900Y-82752100D02*
X182870200Y-82752100D01*
X169445000Y-83860000D02*
X170552900Y-82752100D01*
%TO.N,trigger*%
X128462000Y-77106000D02*
X135096000Y-77106000D01*
X122730000Y-71374000D02*
X128462000Y-77106000D01*
X135883700Y-76318300D02*
X147112700Y-76318300D01*
X135096000Y-77106000D02*
X135883700Y-76318300D01*
X177629800Y-63895200D02*
X178915000Y-62610000D01*
X166081200Y-63895200D02*
X177629800Y-63895200D01*
X163625100Y-66351300D02*
X166081200Y-63895200D01*
X156878000Y-66351300D02*
X163625100Y-66351300D01*
X147112700Y-76116600D02*
X156878000Y-66351300D01*
X147112700Y-76318300D02*
X147112700Y-76116600D01*
X147112700Y-76318300D02*
X147775000Y-76980600D01*
%TO.N,accented trigger*%
X159931000Y-102616000D02*
X161801000Y-104486000D01*
X146918000Y-102616000D02*
X159931000Y-102616000D01*
X178354700Y-101082100D02*
X179273200Y-100163600D01*
X161818800Y-101082100D02*
X178354700Y-101082100D01*
%TO.N,sine*%
X175165000Y-75760000D02*
X171715000Y-72310000D01*
X179605000Y-75760000D02*
X175165000Y-75760000D01*
X177025000Y-69310000D02*
X180275000Y-66060000D01*
X171835000Y-69310000D02*
X177025000Y-69310000D01*
%TO.N,tune 2*%
X149745000Y-83935000D02*
X144272000Y-89408000D01*
X160670000Y-83935000D02*
X149745000Y-83935000D01*
X162765000Y-81840000D02*
X160670000Y-83935000D01*
X165752400Y-102558400D02*
X165063300Y-103247500D01*
X190442400Y-102558400D02*
X165752400Y-102558400D01*
X192532000Y-104648000D02*
X190442400Y-102558400D01*
%TO.N,Net-(D2-K)*%
X124182000Y-90060000D02*
X123412000Y-89290000D01*
X131064000Y-90060000D02*
X124182000Y-90060000D01*
X132564000Y-91560000D02*
X131064000Y-90060000D01*
X150084000Y-91560000D02*
X132564000Y-91560000D01*
X151242000Y-92718000D02*
X150084000Y-91560000D01*
%TO.N,Net-(D7-A)*%
X164307300Y-76922300D02*
X163225000Y-75840000D01*
X189571300Y-76922300D02*
X164307300Y-76922300D01*
X189704400Y-76789200D02*
X189571300Y-76922300D01*
%TO.N,Net-(D1-A)*%
X127096000Y-77106000D02*
X124936000Y-77106000D01*
X133096000Y-83106000D02*
X127096000Y-77106000D01*
%TO.N,-12V*%
X161680000Y-39530000D02*
X161600000Y-39610000D01*
X165100000Y-39530000D02*
X161680000Y-39530000D01*
X160242000Y-92718000D02*
X158862000Y-92718000D01*
X162052000Y-94528000D02*
X160242000Y-92718000D01*
X146160000Y-64530000D02*
X144855000Y-64530000D01*
X148595000Y-62095000D02*
X146160000Y-64530000D01*
X175535000Y-26035000D02*
X175500000Y-26000000D01*
X186055000Y-26035000D02*
X175535000Y-26035000D01*
X150749100Y-78840000D02*
X150644300Y-78944800D01*
X152605000Y-78840000D02*
X150749100Y-78840000D01*
X158505000Y-23495000D02*
X186055000Y-23495000D01*
X157000000Y-25000000D02*
X158505000Y-23495000D01*
%TO.N,+12V*%
X150432000Y-99528000D02*
X151242000Y-100338000D01*
X148052000Y-99528000D02*
X150432000Y-99528000D01*
X146918000Y-105156000D02*
X146918000Y-105982700D01*
X135685000Y-64530000D02*
X137235000Y-64530000D01*
X133605000Y-66610000D02*
X135685000Y-64530000D01*
X146963100Y-98439100D02*
X147984000Y-99459900D01*
X141844900Y-98439100D02*
X146963100Y-98439100D01*
X141224000Y-99060000D02*
X141844900Y-98439100D01*
X190373500Y-89789500D02*
X191008000Y-90424000D01*
X173494300Y-89789500D02*
X190373500Y-89789500D01*
X166755800Y-96528000D02*
X173494300Y-89789500D01*
X150915900Y-96528000D02*
X166755800Y-96528000D01*
X147984000Y-99459900D02*
X150915900Y-96528000D01*
X147984000Y-99459900D02*
X148052000Y-99528000D01*
X163803600Y-26375000D02*
X164178600Y-26000000D01*
X155375000Y-26375000D02*
X163803600Y-26375000D01*
X154000000Y-25000000D02*
X155375000Y-26375000D01*
X195022200Y-24842200D02*
X196215000Y-26035000D01*
X165336400Y-24842200D02*
X195022200Y-24842200D01*
X164178600Y-26000000D02*
X165336400Y-24842200D01*
X128606800Y-107083200D02*
X127502000Y-108188000D01*
X133856300Y-107083200D02*
X128606800Y-107083200D01*
X153778200Y-107083200D02*
X154181000Y-107486000D01*
X141729300Y-107083200D02*
X153778200Y-107083200D01*
X141624700Y-107187800D02*
X141729300Y-107083200D01*
X138544100Y-107187800D02*
X141624700Y-107187800D01*
X138439500Y-107083200D02*
X138544100Y-107187800D01*
X133856300Y-107083200D02*
X138439500Y-107083200D01*
X146675400Y-106225300D02*
X146918000Y-105982700D01*
X141451200Y-106225300D02*
X146675400Y-106225300D01*
X141292100Y-106384400D02*
X141451200Y-106225300D01*
X138876700Y-106384400D02*
X141292100Y-106384400D01*
X138475000Y-105982700D02*
X138876700Y-106384400D01*
X137554800Y-105982700D02*
X138475000Y-105982700D01*
X135658400Y-104086300D02*
X137554800Y-105982700D01*
X134745700Y-104086300D02*
X135658400Y-104086300D01*
X133856300Y-104975700D02*
X134745700Y-104086300D01*
X133856300Y-107083200D02*
X133856300Y-104975700D01*
%TO.N,Net-(D16-K)*%
X165031700Y-105613300D02*
X166119000Y-104526000D01*
X155308300Y-105613300D02*
X165031700Y-105613300D01*
X154181000Y-104486000D02*
X155308300Y-105613300D01*
X166382100Y-104789100D02*
X166119000Y-104526000D01*
X186184400Y-104789100D02*
X166382100Y-104789100D01*
X186962100Y-104011400D02*
X186184400Y-104789100D01*
X186962100Y-104011400D02*
X186208700Y-104764800D01*
X186208700Y-104764800D02*
X186962100Y-104011400D01*
%TO.N,Net-(D3-A)*%
X132122000Y-111188000D02*
X127502000Y-111188000D01*
X135122000Y-108188000D02*
X132122000Y-111188000D01*
%TO.N,gate in*%
X129834000Y-94290000D02*
X131064000Y-93060000D01*
X196596000Y-104394000D02*
X195444300Y-104394000D01*
X123412000Y-94290000D02*
X129834000Y-94290000D01*
X129834000Y-99390100D02*
X129834000Y-94290000D01*
X130621800Y-100177900D02*
X129834000Y-99390100D01*
X135820000Y-100177900D02*
X130621800Y-100177900D01*
X137378300Y-101736200D02*
X135820000Y-100177900D01*
X192786500Y-101736200D02*
X137378300Y-101736200D01*
X195444300Y-104394000D02*
X192786500Y-101736200D01*
%TO.N,Net-(D11-K)*%
X191245800Y-37805000D02*
X185210500Y-43840300D01*
X192550000Y-37805000D02*
X191245800Y-37805000D01*
X173333400Y-44006600D02*
X172230000Y-45110000D01*
X185044200Y-44006600D02*
X173333400Y-44006600D01*
X185210500Y-43840300D02*
X185044200Y-44006600D01*
X185210500Y-43840300D02*
X185044200Y-44006600D01*
%TO.N,Net-(SW1-A)*%
X132605000Y-69610000D02*
X137235000Y-69610000D01*
X129605000Y-66610000D02*
X132605000Y-69610000D01*
%TO.N,Net-(Q8-E)*%
X131765000Y-59450000D02*
X129605000Y-61610000D01*
X137235000Y-59450000D02*
X131765000Y-59450000D01*
%TO.N,Net-(Q8-B)*%
X125585000Y-58359000D02*
X122730000Y-61214000D01*
X125585000Y-56720000D02*
X125585000Y-58359000D01*
%TO.N,Net-(Q9-E)*%
X170290000Y-42110000D02*
X169880000Y-42110000D01*
X174040000Y-38360000D02*
X170290000Y-42110000D01*
X187257600Y-56030700D02*
X189038300Y-54250000D01*
X177964900Y-56030700D02*
X187257600Y-56030700D01*
X177898600Y-55964400D02*
X177964900Y-56030700D01*
X177071000Y-55964400D02*
X177898600Y-55964400D01*
X176737700Y-56297700D02*
X177071000Y-55964400D01*
X189865000Y-54250000D02*
X189038300Y-54250000D01*
%TO.N,Net-(C15-Pad1)*%
X170155400Y-37244600D02*
X169040000Y-38360000D01*
X177482700Y-37244600D02*
X170155400Y-37244600D01*
X179712200Y-39474100D02*
X177482700Y-37244600D01*
X186155900Y-39474100D02*
X179712200Y-39474100D01*
X188850000Y-36780000D02*
X186155900Y-39474100D01*
%TO.N,GND*%
X162761000Y-109526000D02*
X161801000Y-110486000D01*
X166119000Y-109526000D02*
X162761000Y-109526000D01*
X160233300Y-88130000D02*
X160283300Y-88180000D01*
X153715000Y-88130000D02*
X160233300Y-88130000D01*
X161335000Y-88180000D02*
X160283300Y-88180000D01*
X143920200Y-82550000D02*
X141149200Y-85321000D01*
X145415000Y-82550000D02*
X143920200Y-82550000D01*
X191135000Y-26035000D02*
X193675000Y-26035000D01*
X166678600Y-26000000D02*
X173000000Y-26000000D01*
X162678600Y-30000000D02*
X157000000Y-30000000D01*
X166678600Y-26000000D02*
X162678600Y-30000000D01*
X139196500Y-115262500D02*
X135122000Y-111188000D01*
X142186500Y-115262500D02*
X139196500Y-115262500D01*
X144272000Y-117348000D02*
X142186500Y-115262500D01*
X132596000Y-94528000D02*
X141224000Y-94528000D01*
X131064000Y-96060000D02*
X132596000Y-94528000D01*
X141224000Y-94528000D02*
X148052000Y-94528000D01*
X141224000Y-94528000D02*
X141224000Y-93060000D01*
X195400000Y-118290000D02*
X196596000Y-117094000D01*
X185251300Y-118290000D02*
X195400000Y-118290000D01*
X181515300Y-114554000D02*
X185251300Y-118290000D01*
X178456000Y-114554000D02*
X181515300Y-114554000D01*
X188595000Y-23495000D02*
X191135000Y-23495000D01*
X179898400Y-71746600D02*
X179335000Y-72310000D01*
X187241600Y-71746600D02*
X179898400Y-71746600D01*
X188355000Y-72860000D02*
X187241600Y-71746600D01*
X174195200Y-27195200D02*
X173000000Y-26000000D01*
X187434800Y-27195200D02*
X174195200Y-27195200D01*
X188595000Y-26035000D02*
X187434800Y-27195200D01*
X168983000Y-106662000D02*
X170608000Y-106662000D01*
X166119000Y-109526000D02*
X168983000Y-106662000D01*
X154000000Y-30000000D02*
X157000000Y-30000000D01*
X148457000Y-94123000D02*
X148052000Y-94528000D01*
X157727000Y-94123000D02*
X148457000Y-94123000D01*
X158862000Y-95258000D02*
X157727000Y-94123000D01*
X128066700Y-50750000D02*
X132875000Y-55558300D01*
X125920000Y-50750000D02*
X128066700Y-50750000D01*
X132875000Y-56610000D02*
X132875000Y-56529400D01*
X132875000Y-56529400D02*
X132875000Y-55558300D01*
X147656900Y-58033100D02*
X148595000Y-57095000D01*
X134378700Y-58033100D02*
X147656900Y-58033100D01*
X132875000Y-56529400D02*
X134378700Y-58033100D01*
X142670000Y-30000000D02*
X139920000Y-32750000D01*
X154000000Y-30000000D02*
X142670000Y-30000000D01*
X127045000Y-46625000D02*
X125920000Y-47750000D01*
X140756700Y-46625000D02*
X127045000Y-46625000D01*
X142080000Y-47948300D02*
X140756700Y-46625000D01*
X142080000Y-49000000D02*
X142080000Y-47948300D01*
X136094600Y-110215400D02*
X136101300Y-110215400D01*
X135122000Y-111188000D02*
X136094600Y-110215400D01*
X136700700Y-109616000D02*
X137742000Y-109616000D01*
X136101300Y-110215400D02*
X136700700Y-109616000D01*
X136101300Y-110215400D02*
X136700700Y-109616000D01*
X138170000Y-105156000D02*
X135202000Y-102188000D01*
X139918000Y-105156000D02*
X138170000Y-105156000D01*
%TO.N,Net-(C12-Pad1)*%
X179040000Y-35360000D02*
X182040000Y-38360000D01*
X165350000Y-35360000D02*
X179040000Y-35360000D01*
%TO.N,triangle 2*%
X161268000Y-54938000D02*
X161925000Y-55595000D01*
X156687000Y-54938000D02*
X161268000Y-54938000D01*
X156687000Y-54607000D02*
X156687000Y-54938000D01*
X152830000Y-50750000D02*
X156687000Y-54607000D01*
X145132700Y-59727700D02*
X144855000Y-59450000D01*
X152228300Y-59727700D02*
X145132700Y-59727700D01*
X154230800Y-57725200D02*
X152228300Y-59727700D01*
X154230800Y-57394200D02*
X154230800Y-57725200D01*
X156687000Y-54938000D02*
X154230800Y-57394200D01*
%TO.N,Net-(D1-K)*%
X140716000Y-81026000D02*
X139914300Y-81026000D01*
X139914300Y-81555900D02*
X136149200Y-85321000D01*
X139914300Y-81026000D02*
X139914300Y-81555900D01*
X133881000Y-85321000D02*
X133096000Y-86106000D01*
X136149200Y-85321000D02*
X133881000Y-85321000D01*
X128476000Y-86106000D02*
X133096000Y-86106000D01*
X125476000Y-83106000D02*
X128476000Y-86106000D01*
X143688400Y-78855300D02*
X141517700Y-81026000D01*
X146895100Y-78855300D02*
X143688400Y-78855300D01*
X152305000Y-73445400D02*
X146895100Y-78855300D01*
X161705500Y-73445400D02*
X152305000Y-73445400D01*
X164277000Y-70873900D02*
X161705500Y-73445400D01*
X185530400Y-70873900D02*
X164277000Y-70873900D01*
X189348300Y-67056000D02*
X185530400Y-70873900D01*
X190500000Y-67056000D02*
X189348300Y-67056000D01*
X140716000Y-81026000D02*
X141517700Y-81026000D01*
%TD*%
M02*
