M48
; DRILL file {KiCad 9.0.5} date 2025-10-12T14:47:26+0200
; FORMAT={-:-/ absolute / metric / decimal}
; #@! TF.CreationDate,2025-10-12T14:47:26+02:00
; #@! TF.GenerationSoftware,Kicad,Pcbnew,9.0.5
; #@! TF.FileFunction,Plated,1,2,PTH
FMAT,2
METRIC
; #@! TA.AperFunction,Plated,PTH,ViaDrill
T1C0.300
; #@! TA.AperFunction,Plated,PTH,ComponentDrill
T2C0.750
; #@! TA.AperFunction,Plated,PTH,ComponentDrill
T3C0.800
; #@! TA.AperFunction,Plated,PTH,ComponentDrill
T4C1.000
%
G90
G05
T1
X134.458Y-106.426
X141.239Y-105.624
X141.239Y-108.191
X141.295Y-42.855
X144.855Y-50.39
X147.645Y-107.747
X147.775Y-76.981
X150.644Y-78.945
X154.112Y-80.126
X154.832Y-57.643
X157.424Y-112.338
X161.819Y-101.082
X165.063Y-103.248
X176.738Y-56.298
X177.65Y-56.585
X179.273Y-100.164
X182.673Y-52.712
X183.193Y-83.075
X186.962Y-104.011
X189.704Y-76.789
X194.579Y-36.907
T2
X124.315Y-56.72
X125.585Y-56.72
X126.855Y-56.72
X130.335Y-56.61
X131.605Y-56.61
X132.875Y-56.61
X139.54Y-49.0
X139.918Y-102.616
X139.918Y-103.886
X139.918Y-105.156
X140.81Y-49.0
X142.08Y-49.0
X146.31Y-49.11
X146.918Y-102.616
X146.918Y-103.886
X146.918Y-105.156
X147.58Y-49.11
X148.85Y-49.11
X153.715Y-85.59
X153.715Y-86.86
X153.715Y-88.13
X161.335Y-85.64
X161.335Y-86.91
X161.335Y-88.18
X173.608Y-97.662
X173.608Y-98.932
X173.608Y-100.202
X178.456Y-114.554
X178.456Y-115.824
X178.456Y-117.094
X183.565Y-88.11
X184.15Y-54.97
X184.835Y-88.11
X185.42Y-54.97
X186.105Y-88.11
X186.69Y-54.97
X189.865Y-54.25
X191.135Y-54.25
X192.405Y-54.25
T3
X122.73Y-61.214
X122.73Y-71.374
X123.412Y-89.29
X123.412Y-94.29
X124.936Y-77.106
X124.936Y-80.106
X125.042Y-105.188
X125.476Y-83.106
X125.476Y-86.106
X125.73Y-61.214
X125.73Y-71.374
X125.92Y-32.75
X125.92Y-35.75
X125.92Y-38.75
X125.92Y-41.75
X125.92Y-44.75
X125.92Y-47.75
X125.92Y-50.75
X127.502Y-108.188
X127.502Y-111.188
X127.582Y-102.188
X129.605Y-61.61
X129.605Y-66.61
X131.064Y-90.06
X131.064Y-93.06
X131.064Y-96.06
X131.064Y-99.06
X131.726Y-114.14
X131.726Y-117.14
X133.096Y-83.106
X133.096Y-86.106
X135.096Y-77.106
X135.096Y-80.106
X135.122Y-108.188
X135.122Y-111.188
X135.202Y-102.188
X135.202Y-105.188
X136.08Y-32.75
X136.08Y-35.75
X136.08Y-38.75
X136.08Y-41.75
X136.08Y-44.75
X136.08Y-47.75
X136.08Y-50.75
X136.149Y-85.321
X137.235Y-56.91
X137.235Y-59.45
X137.235Y-61.99
X137.235Y-64.53
X137.235Y-67.07
X137.235Y-69.61
X137.235Y-72.15
X137.742Y-109.616
X139.92Y-32.75
X139.92Y-35.75
X139.92Y-39.0
X139.92Y-42.0
X141.149Y-85.321
X141.224Y-90.06
X141.224Y-93.06
X141.224Y-96.06
X141.224Y-99.06
X141.886Y-114.14
X141.886Y-117.14
X144.192Y-113.696
X144.272Y-89.408
X144.272Y-99.568
X144.272Y-117.348
X144.855Y-56.91
X144.855Y-59.45
X144.855Y-61.99
X144.855Y-64.53
X144.855Y-67.07
X144.855Y-69.61
X144.855Y-72.15
X147.902Y-109.616
X150.08Y-32.75
X150.08Y-35.75
X150.08Y-39.0
X150.08Y-42.0
X151.242Y-92.718
X151.242Y-95.258
X151.242Y-97.798
X151.242Y-100.338
X151.765Y-55.595
X151.765Y-58.595
X151.765Y-61.595
X151.765Y-64.595
X151.765Y-67.595
X152.605Y-78.84
X152.605Y-81.84
X152.83Y-45.75
X152.83Y-50.75
X154.181Y-104.486
X154.181Y-107.486
X154.181Y-110.486
X154.285Y-70.845
X154.352Y-113.696
X154.432Y-117.348
X155.605Y-75.84
X158.35Y-39.7
X158.35Y-49.86
X158.862Y-92.718
X158.862Y-95.258
X158.862Y-97.798
X158.862Y-100.338
X159.766Y-117.094
X159.846Y-114.094
X160.35Y-35.36
X161.6Y-39.61
X161.6Y-49.77
X161.801Y-104.486
X161.801Y-107.486
X161.801Y-110.486
X161.905Y-70.845
X161.925Y-55.595
X161.925Y-58.595
X161.925Y-61.595
X161.925Y-64.595
X161.925Y-67.595
X162.765Y-78.84
X162.765Y-81.84
X163.225Y-75.84
X164.179Y-26.0
X165.1Y-39.53
X165.1Y-49.69
X165.35Y-35.36
X165.608Y-90.932
X165.608Y-93.932
X166.119Y-104.526
X166.119Y-109.526
X166.679Y-26.0
X169.04Y-38.36
X169.445Y-75.76
X169.445Y-79.81
X169.445Y-83.86
X169.88Y-42.11
X169.926Y-117.094
X170.006Y-114.094
X170.115Y-66.06
X170.528Y-109.932
X170.608Y-103.662
X170.608Y-106.662
X171.155Y-87.06
X171.295Y-62.61
X171.715Y-72.31
X171.835Y-69.31
X172.17Y-48.11
X172.23Y-45.11
X172.29Y-51.11
X173.0Y-26.0
X174.04Y-38.36
X175.5Y-26.0
X175.768Y-90.932
X175.768Y-93.932
X177.04Y-38.36
X178.775Y-87.06
X178.915Y-62.61
X179.335Y-72.31
X179.455Y-69.31
X179.605Y-75.76
X179.605Y-79.81
X179.605Y-83.86
X179.79Y-48.11
X179.85Y-45.11
X179.91Y-51.11
X180.04Y-42.11
X180.275Y-66.06
X180.688Y-109.932
X180.768Y-103.662
X180.768Y-106.662
X181.864Y-60.96
X182.04Y-38.36
X183.355Y-72.86
X188.355Y-72.86
X188.85Y-36.78
X188.85Y-46.94
X191.008Y-80.264
X191.008Y-90.424
X192.024Y-60.96
X192.55Y-37.805
X192.55Y-45.425
X195.8Y-36.285
X195.8Y-46.445
T4
X133.605Y-61.61
X133.605Y-66.61
X145.415Y-77.47
X145.415Y-80.01
X145.415Y-82.55
X148.052Y-94.528
X148.052Y-99.528
X148.595Y-57.095
X148.595Y-62.095
X154.0Y-25.0
X154.0Y-30.0
X157.0Y-25.0
X157.0Y-30.0
X162.052Y-94.528
X162.052Y-99.528
X169.672Y-56.388
X172.212Y-56.388
X174.752Y-56.388
X185.605Y-95.03
X185.605Y-97.57
X185.605Y-100.11
X186.055Y-23.495
X186.055Y-26.035
X186.182Y-117.094
X188.595Y-23.495
X188.595Y-26.035
X188.722Y-117.094
X190.5Y-67.056
X191.008Y-94.996
X191.008Y-97.536
X191.008Y-100.076
X191.135Y-23.495
X191.135Y-26.035
X191.262Y-117.094
X192.532Y-104.648
X192.532Y-107.188
X192.532Y-109.728
X193.04Y-67.056
X193.675Y-23.495
X193.675Y-26.035
X195.58Y-67.056
X195.58Y-71.628
X195.58Y-74.168
X195.58Y-76.708
X196.215Y-23.495
X196.215Y-26.035
X196.596Y-104.394
X196.596Y-106.934
X196.596Y-109.474
X196.596Y-112.014
X196.596Y-114.554
X196.596Y-117.094
X197.104Y-82.804
X197.104Y-85.344
X197.104Y-87.884
M30
