M48
; DRILL file {KiCad 9.0.5} date 2025-10-05T20:18:28+0200
; FORMAT={-:-/ absolute / metric / decimal}
; #@! TF.CreationDate,2025-10-05T20:18:28+02:00
; #@! TF.GenerationSoftware,Kicad,Pcbnew,9.0.5
; #@! TF.FileFunction,Plated,1,2,PTH
FMAT,2
METRIC
; #@! TA.AperFunction,Plated,PTH,ViaDrill
T1C0.300
; #@! TA.AperFunction,Plated,PTH,ComponentDrill
T2C0.750
; #@! TA.AperFunction,Plated,PTH,ComponentDrill
T3C0.800
; #@! TA.AperFunction,Plated,PTH,ComponentDrill
T4C1.000
%
G90
G05
T1
X123.372Y-88.034
X124.102Y-143.488
X129.14Y-51.317
X131.062Y-95.64
X137.437Y-120.675
X142.065Y-71.81
X142.873Y-91.978
X142.9Y-119.291
X143.89Y-118.89
X148.475Y-119.544
X150.105Y-115.984
X150.9Y-100.988
X153.076Y-111.991
X153.674Y-80.992
X156.463Y-60.169
X157.197Y-154.683
X158.11Y-82.861
X159.81Y-134.882
X171.088Y-24.036
X174.779Y-57.89
X177.478Y-86.435
X186.62Y-105.928
T2
X123.98Y-73.54
X125.25Y-73.54
X126.52Y-73.54
X130.0Y-73.43
X131.27Y-73.43
X132.54Y-73.43
X138.46Y-66.32
X139.73Y-66.32
X141.0Y-66.32
X145.23Y-66.43
X146.5Y-66.43
X147.77Y-66.43
X152.0Y-143.0
X152.0Y-144.27
X152.0Y-145.54
X153.27Y-127.93
X153.27Y-129.2
X153.27Y-130.47
X153.38Y-102.41
X153.38Y-103.68
X153.38Y-104.95
X160.27Y-127.93
X160.27Y-129.2
X160.27Y-130.47
X161.0Y-102.46
X161.0Y-103.73
X161.0Y-105.0
X168.25Y-74.43
X169.52Y-74.43
X170.79Y-74.43
X173.27Y-115.66
X173.27Y-116.93
X173.27Y-118.2
X174.0Y-74.43
X175.27Y-74.43
X176.54Y-74.43
X183.23Y-104.93
X184.5Y-104.93
X185.77Y-104.93
T3
X122.27Y-78.77
X122.27Y-88.93
X123.77Y-109.93
X123.77Y-114.93
X124.61Y-94.93
X124.61Y-97.93
X124.84Y-50.07
X124.84Y-53.07
X124.84Y-56.07
X124.84Y-59.07
X124.84Y-62.07
X124.84Y-65.07
X124.84Y-68.07
X125.15Y-100.93
X125.15Y-103.93
X125.27Y-78.77
X125.27Y-88.93
X129.27Y-78.43
X129.27Y-83.43
X130.61Y-125.93
X130.69Y-134.93
X130.69Y-137.93
X130.77Y-110.93
X130.77Y-113.93
X130.77Y-116.93
X130.77Y-119.93
X132.77Y-100.93
X132.77Y-103.93
X133.07Y-128.93
X133.07Y-131.93
X133.15Y-122.93
X134.77Y-94.93
X134.77Y-97.93
X135.0Y-50.07
X135.0Y-53.07
X135.0Y-56.07
X135.0Y-59.07
X135.0Y-62.07
X135.0Y-65.07
X135.0Y-68.07
X135.77Y-103.93
X136.9Y-73.73
X136.9Y-76.27
X136.9Y-78.81
X136.9Y-81.35
X136.9Y-83.89
X136.9Y-86.43
X136.9Y-88.97
X138.84Y-50.07
X138.84Y-53.07
X138.84Y-56.32
X138.84Y-59.32
X140.69Y-128.93
X140.69Y-131.93
X140.77Y-103.93
X140.77Y-122.93
X140.77Y-125.93
X140.85Y-134.93
X140.85Y-137.93
X140.93Y-110.93
X140.93Y-113.93
X140.93Y-116.93
X140.93Y-119.93
X144.52Y-73.73
X144.52Y-76.27
X144.52Y-78.81
X144.52Y-81.35
X144.52Y-83.89
X144.52Y-86.43
X144.52Y-88.97
X145.77Y-127.85
X145.77Y-138.01
X145.86Y-155.68
X145.94Y-149.68
X145.94Y-152.68
X149.0Y-50.07
X149.0Y-53.07
X149.0Y-56.32
X149.0Y-59.32
X151.265Y-26.164
X151.43Y-72.415
X151.43Y-75.415
X151.43Y-78.415
X151.43Y-81.415
X151.43Y-84.415
X151.75Y-63.07
X151.75Y-68.07
X152.11Y-134.93
X152.19Y-137.93
X152.27Y-95.66
X152.27Y-98.66
X153.765Y-26.164
X153.95Y-87.665
X154.46Y-113.12
X154.46Y-115.66
X154.46Y-118.2
X154.46Y-120.74
X155.27Y-92.66
X156.02Y-155.68
X156.1Y-149.68
X156.1Y-152.68
X157.27Y-57.02
X157.27Y-67.18
X159.27Y-52.68
X160.265Y-26.164
X160.52Y-56.93
X160.52Y-67.09
X161.57Y-87.665
X161.59Y-72.415
X161.59Y-75.415
X161.59Y-78.415
X161.59Y-81.415
X161.59Y-84.415
X162.08Y-113.12
X162.08Y-115.66
X162.08Y-118.2
X162.08Y-120.74
X162.27Y-134.93
X162.35Y-137.93
X162.43Y-95.66
X162.43Y-98.66
X162.765Y-26.164
X162.89Y-92.66
X164.02Y-56.85
X164.02Y-67.01
X164.27Y-52.68
X165.27Y-108.93
X165.27Y-111.93
X167.96Y-55.68
X168.8Y-59.43
X169.11Y-92.58
X169.11Y-96.63
X169.11Y-100.68
X169.78Y-82.88
X170.19Y-127.93
X170.27Y-121.66
X170.27Y-124.66
X170.82Y-103.88
X170.96Y-79.43
X171.09Y-65.43
X171.15Y-62.43
X171.21Y-68.43
X171.38Y-89.13
X171.5Y-86.13
X171.65Y-132.93
X171.65Y-135.93
X171.65Y-138.93
X172.96Y-55.68
X175.43Y-108.93
X175.43Y-111.93
X175.96Y-55.68
X178.44Y-103.88
X178.58Y-79.43
X178.71Y-65.43
X178.77Y-62.43
X178.83Y-68.43
X178.96Y-59.43
X179.0Y-89.13
X179.12Y-86.13
X179.27Y-92.58
X179.27Y-96.63
X179.27Y-100.68
X179.27Y-132.93
X179.27Y-135.93
X179.27Y-138.93
X179.94Y-82.88
X180.35Y-127.93
X180.43Y-121.66
X180.43Y-124.66
X180.96Y-55.68
X183.02Y-89.68
X184.27Y-132.93
X184.27Y-137.93
X184.52Y-73.12
X184.52Y-80.74
X187.77Y-54.1
X187.77Y-64.26
X187.77Y-71.6
X187.77Y-81.76
X188.02Y-89.68
T4
X133.27Y-78.43
X133.27Y-83.43
X140.515Y-23.614
X140.515Y-27.664
X145.0Y-95.0
X145.0Y-97.54
X145.0Y-100.08
X145.0Y-102.62
X145.0Y-105.16
X145.0Y-107.7
X145.0Y-110.24
X145.0Y-112.78
X145.0Y-115.32
X145.0Y-117.86
X145.515Y-23.614
X145.515Y-27.664
X147.54Y-95.0
X147.54Y-97.54
X147.54Y-100.08
X147.54Y-102.62
X147.54Y-105.16
X147.54Y-107.7
X147.54Y-110.24
X147.54Y-112.78
X147.54Y-115.32
X147.54Y-117.86
X148.26Y-73.915
X148.26Y-78.915
X151.27Y-114.93
X151.27Y-119.93
X165.27Y-114.93
X165.27Y-119.93
X175.89Y-22.75
X175.89Y-25.29
X178.43Y-22.75
X178.43Y-25.29
X180.97Y-22.75
X180.97Y-25.29
X183.51Y-22.75
X183.51Y-25.29
X185.27Y-111.85
X185.27Y-114.39
X185.27Y-116.93
X186.05Y-22.75
X186.05Y-25.29
T4
G00X124.0Y-152.75
M15
G01X124.0Y-151.25
M16
G05
G00X125.479Y-145.54
M15
G01X126.521Y-144.46
M16
G05
G00X130.75Y-156.0
M15
G01X129.25Y-156.0
M16
G05
G00X133.75Y-143.0
M15
G01X132.25Y-143.0
M16
G05
G00X133.484Y-42.234
M15
G01X133.484Y-40.734
M16
G05
G00X134.963Y-35.024
M15
G01X136.005Y-33.945
M16
G05
G00X137.0Y-149.75
M15
G01X137.0Y-148.25
M16
G05
G00X140.234Y-45.484
M15
G01X138.734Y-45.484
M16
G05
G00X143.234Y-32.484
M15
G01X141.734Y-32.484
M16
G05
G00X146.484Y-39.234
M15
G01X146.484Y-37.734
M16
G05
G00X153.484Y-42.234
M15
G01X153.484Y-40.734
M16
G05
G00X154.963Y-35.024
M15
G01X156.005Y-33.945
M16
G05
G00X160.234Y-45.484
M15
G01X158.734Y-45.484
M16
G05
G00X163.234Y-32.484
M15
G01X161.734Y-32.484
M16
G05
G00X166.484Y-39.234
M15
G01X166.484Y-37.734
M16
G05
G00X172.0Y-152.75
M15
G01X172.0Y-151.25
M16
G05
G00X173.484Y-42.234
M15
G01X173.484Y-40.734
M16
G05
G00X173.479Y-145.54
M15
G01X174.521Y-144.46
M16
G05
G00X174.963Y-35.024
M15
G01X176.005Y-33.945
M16
G05
G00X178.75Y-156.0
M15
G01X177.25Y-156.0
M16
G05
G00X180.234Y-45.484
M15
G01X178.734Y-45.484
M16
G05
G00X181.75Y-143.0
M15
G01X180.25Y-143.0
M16
G05
G00X183.234Y-32.484
M15
G01X181.734Y-32.484
M16
G05
G00X185.0Y-149.75
M15
G01X185.0Y-148.25
M16
G05
G00X186.484Y-39.234
M15
G01X186.484Y-37.734
M16
G05
M30
