%TF.GenerationSoftware,KiCad,Pcbnew,9.0.0*%
%TF.CreationDate,2025-03-07T09:06:22+01:00*%
%TF.ProjectId,board_io,626f6172-645f-4696-9f2e-6b696361645f,rev?*%
%TF.SameCoordinates,Original*%
%TF.FileFunction,Copper,L1,Top*%
%TF.FilePolarity,Positive*%
%FSLAX46Y46*%
G04 Gerber Fmt 4.6, Leading zero omitted, Abs format (unit mm)*
G04 Created by KiCad (PCBNEW 9.0.0) date 2025-03-07 09:06:22*
%MOMM*%
%LPD*%
G01*
G04 APERTURE LIST*
%TA.AperFunction,WasherPad*%
%ADD10C,4.000000*%
%TD*%
%TA.AperFunction,ComponentPad*%
%ADD11C,2.000000*%
%TD*%
%TA.AperFunction,ComponentPad*%
%ADD12C,2.500000*%
%TD*%
%TA.AperFunction,ComponentPad*%
%ADD13O,3.500000X2.000000*%
%TD*%
%TA.AperFunction,ComponentPad*%
%ADD14R,1.700000X1.700000*%
%TD*%
%TA.AperFunction,ComponentPad*%
%ADD15O,1.700000X1.700000*%
%TD*%
%TA.AperFunction,ViaPad*%
%ADD16C,0.600000*%
%TD*%
%TA.AperFunction,Conductor*%
%ADD17C,0.200000*%
%TD*%
G04 APERTURE END LIST*
D10*
%TO.P,RV4,*%
%TO.N,*%
X51321200Y-25792300D03*
X60321200Y-25792300D03*
D11*
%TO.P,RV4,1,1*%
%TO.N,-12V*%
X53281200Y-32792300D03*
%TO.P,RV4,2,2*%
%TO.N,Fine Tuning*%
X55821200Y-32792300D03*
%TO.P,RV4,3,3*%
%TO.N,+12V*%
X58361200Y-32792300D03*
%TD*%
D12*
%TO.P,SW1,1*%
%TO.N,Hard Sync +*%
X36357200Y-70922300D03*
%TO.P,SW1,2*%
%TO.N,Hard Sync*%
X32057200Y-66622300D03*
%TO.P,SW1,3*%
%TO.N,Hard Sync -*%
X32057200Y-61222300D03*
%TO.P,SW1,4*%
%TO.N,Soft Sync*%
X36357200Y-56922300D03*
%TO.P,SW1,5*%
%TO.N,unconnected-(SW1-Pad5)*%
X41757200Y-56922300D03*
%TO.P,SW1,6*%
%TO.N,unconnected-(SW1-Pad6)*%
X46057200Y-61222300D03*
%TO.P,SW1,7*%
%TO.N,unconnected-(SW1-Pad7)*%
X46057200Y-66622300D03*
%TO.P,SW1,8*%
%TO.N,unconnected-(SW1-Pad8)*%
X41757200Y-70922300D03*
%TO.P,SW1,9*%
%TO.N,Sync COM*%
X36357200Y-63922300D03*
%TO.P,SW1,10*%
%TO.N,unconnected-(SW1-Pad10)*%
X41757200Y-63922300D03*
%TD*%
D10*
%TO.P,RV1,*%
%TO.N,*%
X17793200Y-42810300D03*
X26793200Y-42810300D03*
D11*
%TO.P,RV1,1,1*%
%TO.N,-12V*%
X19753200Y-49810300D03*
%TO.P,RV1,2,2*%
%TO.N,PWM Offset*%
X22293200Y-49810300D03*
%TO.P,RV1,3,3*%
%TO.N,+12V*%
X24833200Y-49810300D03*
%TD*%
D13*
%TO.P,SW2,1,A*%
%TO.N,Mode LFO*%
X20769200Y-67208300D03*
%TO.P,SW2,2,B*%
%TO.N,Mode COM*%
X20769200Y-63208300D03*
%TO.P,SW2,3,C*%
%TO.N,Mode VCO*%
X20769200Y-59208300D03*
%TD*%
D10*
%TO.P,RV2,*%
%TO.N,*%
X51321200Y-42810300D03*
X60321200Y-42810300D03*
D11*
%TO.P,RV2,1,1*%
%TO.N,GND*%
X53281200Y-49810300D03*
%TO.P,RV2,2,2*%
%TO.N,FM CV Levelled*%
X55821200Y-49810300D03*
%TO.P,RV2,3,3*%
%TO.N,FM CV Hot*%
X58361200Y-49810300D03*
%TD*%
D10*
%TO.P,RV3,*%
%TO.N,*%
X34557200Y-42810300D03*
X43557200Y-42810300D03*
D11*
%TO.P,RV3,1,1*%
%TO.N,GND*%
X36517200Y-49810300D03*
%TO.P,RV3,2,2*%
%TO.N,PWM CV Levelled*%
X39057200Y-49810300D03*
%TO.P,RV3,3,3*%
%TO.N,PWM CV Hot*%
X41597200Y-49810300D03*
%TD*%
D10*
%TO.P,RV5,*%
%TO.N,*%
X17793200Y-25792300D03*
X26793200Y-25792300D03*
D11*
%TO.P,RV5,1,1*%
%TO.N,-12V*%
X19753200Y-32792300D03*
%TO.P,RV5,2,2*%
%TO.N,Coarse Tuning*%
X22293200Y-32792300D03*
%TO.P,RV5,3,3*%
%TO.N,+12V*%
X24833200Y-32792300D03*
%TD*%
D14*
%TO.P,J2,1,Pin_1*%
%TO.N,Mode COM*%
X51435200Y-65314300D03*
D15*
%TO.P,J2,2,Pin_2*%
%TO.N,FM CV Levelled*%
X51435200Y-67854300D03*
%TO.P,J2,3,Pin_3*%
%TO.N,PWM CV Levelled*%
X53975200Y-65314300D03*
%TO.P,J2,4,Pin_4*%
%TO.N,Soft Sync*%
X53975200Y-67854300D03*
%TO.P,J2,5,Pin_5*%
%TO.N,Hard Sync*%
X56515200Y-65314300D03*
%TO.P,J2,6,Pin_6*%
%TO.N,PWM Offset*%
X56515200Y-67854300D03*
%TO.P,J2,7,Pin_7*%
%TO.N,Mode VCO*%
X59055200Y-65314300D03*
%TO.P,J2,8,Pin_8*%
%TO.N,Mode LFO*%
X59055200Y-67854300D03*
%TD*%
D14*
%TO.P,J1,1,Pin_1*%
%TO.N,Coarse Tuning*%
X40435200Y-32314300D03*
D15*
%TO.P,J1,2,Pin_2*%
%TO.N,Hard Sync -*%
X42975200Y-32314300D03*
%TO.P,J1,3,Pin_3*%
%TO.N,Fine Tuning*%
X40435200Y-29774300D03*
%TO.P,J1,4,Pin_4*%
%TO.N,Hard Sync +*%
X42975200Y-29774300D03*
%TO.P,J1,5,Pin_5*%
%TO.N,GND*%
X40435200Y-27234300D03*
%TO.P,J1,6,Pin_6*%
%TO.N,-12V*%
X42975200Y-27234300D03*
%TO.P,J1,7,Pin_7*%
%TO.N,+12V*%
X40435200Y-24694300D03*
%TO.P,J1,8,Pin_8*%
%TO.N,FM CV Hot*%
X42975200Y-24694300D03*
%TO.P,J1,9,Pin_9*%
%TO.N,PWM CV Hot*%
X40435200Y-22154300D03*
%TO.P,J1,10,Pin_10*%
%TO.N,Sync COM*%
X42975200Y-22154300D03*
%TD*%
D16*
%TO.N,PWM CV Levelled*%
X53975200Y-57518100D03*
%TO.N,Hard Sync -*%
X32057200Y-31162600D03*
%TO.N,Soft Sync*%
X53181100Y-58148800D03*
%TO.N,+12V*%
X38340800Y-31942900D03*
%TD*%
D17*
%TO.N,FM CV Hot*%
X57121400Y-48570500D02*
X58361200Y-49810300D01*
X57121400Y-39704300D02*
X57121400Y-48570500D01*
X43263100Y-25846000D02*
X57121400Y-39704300D01*
X42975200Y-25846000D02*
X43263100Y-25846000D01*
X42975200Y-24694300D02*
X42975200Y-25846000D01*
%TO.N,PWM CV Levelled*%
X53975200Y-65314300D02*
X53975200Y-57518100D01*
%TO.N,PWM CV Hot*%
X40703700Y-23306000D02*
X40435200Y-23306000D01*
X41626800Y-24229100D02*
X40703700Y-23306000D01*
X41626800Y-34452500D02*
X41626800Y-24229100D01*
X41225800Y-34853500D02*
X41626800Y-34452500D01*
X41225800Y-49438900D02*
X41225800Y-34853500D01*
X41597200Y-49810300D02*
X41225800Y-49438900D01*
X40435200Y-22154300D02*
X40435200Y-23306000D01*
%TO.N,FM CV Levelled*%
X51435200Y-67854300D02*
X51435200Y-66702600D01*
X52227000Y-66702600D02*
X51435200Y-66702600D01*
X52586900Y-66342700D02*
X52227000Y-66702600D01*
X52586900Y-58405400D02*
X52586900Y-66342700D01*
X52579400Y-58397900D02*
X52586900Y-58405400D01*
X52579400Y-53052100D02*
X52579400Y-58397900D01*
X55821200Y-49810300D02*
X52579400Y-53052100D01*
%TO.N,Hard Sync -*%
X32057200Y-61222300D02*
X32057200Y-31162600D01*
%TO.N,Hard Sync +*%
X39057300Y-68222200D02*
X36357200Y-70922300D01*
X39057300Y-63414500D02*
X39057300Y-68222200D01*
X45872600Y-56599200D02*
X39057300Y-63414500D01*
X45872600Y-33535500D02*
X45872600Y-56599200D01*
X43263100Y-30926000D02*
X45872600Y-33535500D01*
X42975200Y-30926000D02*
X43263100Y-30926000D01*
X42975200Y-29774300D02*
X42975200Y-30926000D01*
%TO.N,Sync COM*%
X34802100Y-62367200D02*
X36357200Y-63922300D01*
X34802100Y-48680000D02*
X34802100Y-62367200D01*
X37255300Y-46226800D02*
X34802100Y-48680000D01*
X37255300Y-23695200D02*
X37255300Y-46226800D01*
X39972000Y-20978500D02*
X37255300Y-23695200D01*
X40935600Y-20978500D02*
X39972000Y-20978500D01*
X41823500Y-21866400D02*
X40935600Y-20978500D01*
X41823500Y-22154300D02*
X41823500Y-21866400D01*
X42975200Y-22154300D02*
X41823500Y-22154300D01*
%TO.N,Soft Sync*%
X53181100Y-57461100D02*
X53181100Y-58148800D01*
X53742200Y-56900000D02*
X53181100Y-57461100D01*
X54264300Y-56900000D02*
X53742200Y-56900000D01*
X55135800Y-57771500D02*
X54264300Y-56900000D01*
X55135800Y-65829900D02*
X55135800Y-57771500D01*
X54263100Y-66702600D02*
X55135800Y-65829900D01*
X53975200Y-66702600D02*
X54263100Y-66702600D01*
X53975200Y-67854300D02*
X53975200Y-66702600D01*
%TO.N,GND*%
X39283500Y-47044000D02*
X36517200Y-49810300D01*
X39283500Y-29249700D02*
X39283500Y-47044000D01*
X40147200Y-28386000D02*
X39283500Y-29249700D01*
X40435200Y-28386000D02*
X40147200Y-28386000D01*
X40435200Y-27234300D02*
X40435200Y-28386000D01*
%TO.N,-12V*%
X20140600Y-49422900D02*
X19753200Y-49810300D01*
X20140600Y-33179700D02*
X20140600Y-49422900D01*
X19753200Y-32792300D02*
X20140600Y-33179700D01*
%TO.N,+12V*%
X24445800Y-49422900D02*
X24833200Y-49810300D01*
X24445800Y-33179700D02*
X24445800Y-49422900D01*
X24833200Y-32792300D02*
X24445800Y-33179700D01*
X38340800Y-27652500D02*
X38340800Y-31942900D01*
X40147300Y-25846000D02*
X38340800Y-27652500D01*
X40435200Y-25846000D02*
X40147300Y-25846000D01*
X40435200Y-24694300D02*
X40435200Y-25846000D01*
%TD*%
M02*
