%TF.GenerationSoftware,KiCad,Pcbnew,9.0.0*%
%TF.CreationDate,2025-03-02T16:43:32+01:00*%
%TF.ProjectId,board_io,626f6172-645f-4696-9f2e-6b696361645f,rev?*%
%TF.SameCoordinates,Original*%
%TF.FileFunction,Copper,L1,Top*%
%TF.FilePolarity,Positive*%
%FSLAX46Y46*%
G04 Gerber Fmt 4.6, Leading zero omitted, Abs format (unit mm)*
G04 Created by KiCad (PCBNEW 9.0.0) date 2025-03-02 16:43:32*
%MOMM*%
%LPD*%
G01*
G04 APERTURE LIST*
%TA.AperFunction,ComponentPad*%
%ADD10C,3.240000*%
%TD*%
%TA.AperFunction,ComponentPad*%
%ADD11R,1.800000X1.800000*%
%TD*%
%TA.AperFunction,ComponentPad*%
%ADD12C,1.800000*%
%TD*%
%TA.AperFunction,ComponentPad*%
%ADD13C,2.500000*%
%TD*%
%TA.AperFunction,ComponentPad*%
%ADD14O,3.500000X2.000000*%
%TD*%
%TA.AperFunction,ComponentPad*%
%ADD15R,1.700000X1.700000*%
%TD*%
%TA.AperFunction,ComponentPad*%
%ADD16O,1.700000X1.700000*%
%TD*%
%TA.AperFunction,Conductor*%
%ADD17C,0.200000*%
%TD*%
G04 APERTURE END LIST*
D10*
%TO.P,RV4,*%
%TO.N,*%
X24713200Y-24222300D03*
X24713200Y-33822300D03*
D11*
%TO.P,RV4,1,1*%
%TO.N,+12V*%
X17213200Y-26522300D03*
D12*
%TO.P,RV4,2,2*%
%TO.N,Fine Tuning*%
X17213200Y-29022300D03*
%TO.P,RV4,3,3*%
%TO.N,-12V*%
X17213200Y-31522300D03*
%TD*%
D13*
%TO.P,SW1,1*%
%TO.N,Hard Sync +*%
X36959200Y-70922300D03*
%TO.P,SW1,2*%
%TO.N,Hard Sync*%
X32659200Y-66622300D03*
%TO.P,SW1,3*%
%TO.N,Hard Sync -*%
X32659200Y-61222300D03*
%TO.P,SW1,4*%
%TO.N,Soft Sync*%
X36959200Y-56922300D03*
%TO.P,SW1,5*%
%TO.N,unconnected-(SW1-Pad5)*%
X42359200Y-56922300D03*
%TO.P,SW1,6*%
%TO.N,unconnected-(SW1-Pad6)*%
X46659200Y-61222300D03*
%TO.P,SW1,7*%
%TO.N,unconnected-(SW1-Pad7)*%
X46659200Y-66622300D03*
%TO.P,SW1,8*%
%TO.N,unconnected-(SW1-Pad8)*%
X42359200Y-70922300D03*
%TO.P,SW1,9*%
%TO.N,Sync COM*%
X36959200Y-63922300D03*
%TO.P,SW1,10*%
%TO.N,unconnected-(SW1-Pad10)*%
X42359200Y-63922300D03*
%TD*%
D10*
%TO.P,RV1,*%
%TO.N,*%
X24713200Y-39956300D03*
X24713200Y-49556300D03*
D11*
%TO.P,RV1,1,1*%
%TO.N,+12V*%
X17213200Y-42256300D03*
D12*
%TO.P,RV1,2,2*%
%TO.N,PWM Offset*%
X17213200Y-44756300D03*
%TO.P,RV1,3,3*%
%TO.N,-12V*%
X17213200Y-47256300D03*
%TD*%
D14*
%TO.P,SW2,1,A*%
%TO.N,Mode LFO*%
X20007200Y-67082300D03*
%TO.P,SW2,2,B*%
%TO.N,Mode COM*%
X20007200Y-63082300D03*
%TO.P,SW2,3,C*%
%TO.N,Mode VCO*%
X20007200Y-59082300D03*
%TD*%
D10*
%TO.P,RV2,*%
%TO.N,*%
X56329200Y-39956300D03*
X56329200Y-49556300D03*
D11*
%TO.P,RV2,1,1*%
%TO.N,FM CV Hot*%
X48829200Y-42256300D03*
D12*
%TO.P,RV2,2,2*%
%TO.N,FM CV Levelled*%
X48829200Y-44756300D03*
%TO.P,RV2,3,3*%
%TO.N,GND*%
X48829200Y-47256300D03*
%TD*%
D10*
%TO.P,RV3,*%
%TO.N,*%
X40521200Y-39956300D03*
X40521200Y-49556300D03*
D11*
%TO.P,RV3,1,1*%
%TO.N,PWM CV Hot*%
X33021200Y-42256300D03*
D12*
%TO.P,RV3,2,2*%
%TO.N,PWM CV Levelled*%
X33021200Y-44756300D03*
%TO.P,RV3,3,3*%
%TO.N,GND*%
X33021200Y-47256300D03*
%TD*%
D10*
%TO.P,RV5,*%
%TO.N,*%
X56329200Y-24222300D03*
X56329200Y-33822300D03*
D11*
%TO.P,RV5,1,1*%
%TO.N,+12V*%
X48829200Y-26522300D03*
D12*
%TO.P,RV5,2,2*%
%TO.N,Coarse Tuning*%
X48829200Y-29022300D03*
%TO.P,RV5,3,3*%
%TO.N,-12V*%
X48829200Y-31522300D03*
%TD*%
D15*
%TO.P,J2,1,Pin_1*%
%TO.N,Mode COM*%
X51435200Y-65314300D03*
D16*
%TO.P,J2,2,Pin_2*%
%TO.N,FM CV Levelled*%
X51435200Y-67854300D03*
%TO.P,J2,3,Pin_3*%
%TO.N,PWM CV Levelled*%
X53975200Y-65314300D03*
%TO.P,J2,4,Pin_4*%
%TO.N,Soft Sync*%
X53975200Y-67854300D03*
%TO.P,J2,5,Pin_5*%
%TO.N,Hard Sync*%
X56515200Y-65314300D03*
%TO.P,J2,6,Pin_6*%
%TO.N,PWM Offset*%
X56515200Y-67854300D03*
%TO.P,J2,7,Pin_7*%
%TO.N,Mode VCO*%
X59055200Y-65314300D03*
%TO.P,J2,8,Pin_8*%
%TO.N,Mode LFO*%
X59055200Y-67854300D03*
%TD*%
D15*
%TO.P,J1,1,Pin_1*%
%TO.N,Coarse Tuning*%
X40435200Y-32314300D03*
D16*
%TO.P,J1,2,Pin_2*%
%TO.N,Hard Sync -*%
X42975200Y-32314300D03*
%TO.P,J1,3,Pin_3*%
%TO.N,Fine Tuning*%
X40435200Y-29774300D03*
%TO.P,J1,4,Pin_4*%
%TO.N,Hard Sync +*%
X42975200Y-29774300D03*
%TO.P,J1,5,Pin_5*%
%TO.N,GND*%
X40435200Y-27234300D03*
%TO.P,J1,6,Pin_6*%
%TO.N,-12V*%
X42975200Y-27234300D03*
%TO.P,J1,7,Pin_7*%
%TO.N,+12V*%
X40435200Y-24694300D03*
%TO.P,J1,8,Pin_8*%
%TO.N,FM CV Hot*%
X42975200Y-24694300D03*
%TO.P,J1,9,Pin_9*%
%TO.N,PWM CV Hot*%
X40435200Y-22154300D03*
%TO.P,J1,10,Pin_10*%
%TO.N,Sync COM*%
X42975200Y-22154300D03*
%TD*%
D17*
%TO.N,+12V*%
X17213200Y-26522300D02*
X17213200Y-27724000D01*
X18414900Y-39852900D02*
X17213200Y-41054600D01*
X17663800Y-27724000D02*
X18414900Y-28475100D01*
X17213200Y-27724000D02*
X17663800Y-27724000D01*
X17213200Y-42256300D02*
X17213200Y-41054600D01*
X18414900Y-28475100D02*
X18414900Y-39852900D01*
%TO.N,-12V*%
X17213200Y-47256300D02*
X16011500Y-46054600D01*
X16011500Y-32724000D02*
X17213200Y-31522300D01*
X16011500Y-46054600D02*
X16011500Y-32724000D01*
%TO.N,GND*%
X40435200Y-27234300D02*
X40435200Y-28386000D01*
X36991200Y-31561500D02*
X40166700Y-28386000D01*
X36991200Y-43286300D02*
X36991200Y-31561500D01*
X40166700Y-28386000D02*
X40435200Y-28386000D01*
X33021200Y-47256300D02*
X36991200Y-43286300D01*
%TO.N,Soft Sync*%
X39853700Y-69011300D02*
X35404900Y-64562500D01*
X51935000Y-69011300D02*
X39853700Y-69011300D01*
X35404900Y-58476600D02*
X36959200Y-56922300D01*
X35404900Y-64562500D02*
X35404900Y-58476600D01*
X53975200Y-67854300D02*
X52823500Y-67854300D01*
X52823500Y-68122800D02*
X51935000Y-69011300D01*
X52823500Y-67854300D02*
X52823500Y-68122800D01*
%TO.N,Sync COM*%
X39327100Y-61554400D02*
X39327100Y-53854400D01*
X39327100Y-53854400D02*
X44554600Y-48626900D01*
X42975200Y-22154300D02*
X42975200Y-23306000D01*
X44554600Y-24616900D02*
X43243700Y-23306000D01*
X36959200Y-63922300D02*
X39327100Y-61554400D01*
X43243700Y-23306000D02*
X42975200Y-23306000D01*
X44554600Y-48626900D02*
X44554600Y-24616900D01*
%TO.N,Hard Sync +*%
X42975200Y-29774300D02*
X42975200Y-30926000D01*
X34999100Y-52125500D02*
X34999100Y-68962200D01*
X44137700Y-31820000D02*
X44137700Y-42986900D01*
X44137700Y-42986900D02*
X34999100Y-52125500D01*
X42975200Y-30926000D02*
X43243700Y-30926000D01*
X34999100Y-68962200D02*
X36959200Y-70922300D01*
X43243700Y-30926000D02*
X44137700Y-31820000D01*
%TO.N,Hard Sync -*%
X38500000Y-43989800D02*
X38500000Y-37941200D01*
X32659200Y-61222300D02*
X32659200Y-49830600D01*
X32659200Y-49830600D02*
X38500000Y-43989800D01*
X38500000Y-37941200D02*
X42975200Y-33466000D01*
X42975200Y-32314300D02*
X42975200Y-33466000D01*
%TO.N,FM CV Levelled*%
X50620700Y-66702600D02*
X51435200Y-66702600D01*
X50283500Y-46210600D02*
X50283500Y-66365400D01*
X51435200Y-67854300D02*
X51435200Y-66702600D01*
X48829200Y-44756300D02*
X50283500Y-46210600D01*
X50283500Y-66365400D02*
X50620700Y-66702600D01*
%TO.N,PWM CV Hot*%
X40166700Y-23306000D02*
X40435200Y-23306000D01*
X33021200Y-30451500D02*
X40166700Y-23306000D01*
X33021200Y-42256300D02*
X33021200Y-30451500D01*
X40435200Y-22154300D02*
X40435200Y-23306000D01*
%TO.N,Mode VCO*%
X55245200Y-67435900D02*
X56096800Y-66584300D01*
X20007200Y-60384000D02*
X32146600Y-72523400D01*
X59055200Y-65314300D02*
X57903500Y-65314300D01*
X32146600Y-72523400D02*
X50941200Y-72523400D01*
X57903500Y-65582800D02*
X57903500Y-65314300D01*
X56902000Y-66584300D02*
X57903500Y-65582800D01*
X50941200Y-72523400D02*
X55245200Y-68219400D01*
X20007200Y-59082300D02*
X20007200Y-60384000D01*
X56096800Y-66584300D02*
X56902000Y-66584300D01*
X55245200Y-68219400D02*
X55245200Y-67435900D01*
%TD*%
M02*
