M48
; DRILL file {KiCad 9.0.0} date 2025-03-07T09:06:24+0100
; FORMAT={-:-/ absolute / metric / decimal}
; #@! TF.CreationDate,2025-03-07T09:06:24+01:00
; #@! TF.GenerationSoftware,Kicad,Pcbnew,9.0.0
; #@! TF.FileFunction,Plated,1,2,PTH
FMAT,2
METRIC
; #@! TA.AperFunction,Plated,PTH,ViaDrill
T1C0.300
; #@! TA.AperFunction,Plated,PTH,ComponentDrill
T2C1.000
; #@! TA.AperFunction,Plated,PTH,ComponentDrill
T3C1.200
; #@! TA.AperFunction,Plated,PTH,ComponentDrill
T4C1.300
%
G90
G05
T1
X32.057Y-31.163
X38.341Y-31.943
X53.181Y-58.149
X53.975Y-57.518
T2
X40.435Y-22.154
X40.435Y-24.694
X40.435Y-27.234
X40.435Y-29.774
X40.435Y-32.314
X42.975Y-22.154
X42.975Y-24.694
X42.975Y-27.234
X42.975Y-29.774
X42.975Y-32.314
X51.435Y-65.314
X51.435Y-67.854
X53.975Y-65.314
X53.975Y-67.854
X56.515Y-65.314
X56.515Y-67.854
X59.055Y-65.314
X59.055Y-67.854
T3
X19.753Y-32.792
X19.753Y-49.81
X22.293Y-32.792
X22.293Y-49.81
X24.833Y-32.792
X24.833Y-49.81
X36.517Y-49.81
X39.057Y-49.81
X41.597Y-49.81
X53.281Y-32.792
X53.281Y-49.81
X55.821Y-32.792
X55.821Y-49.81
X58.361Y-32.792
X58.361Y-49.81
T4
X32.057Y-61.222
X32.057Y-66.622
X36.357Y-56.922
X36.357Y-63.922
X36.357Y-70.922
X41.757Y-56.922
X41.757Y-63.922
X41.757Y-70.922
X46.057Y-61.222
X46.057Y-66.622
T2
G00X21.369Y-59.208
M15
G01X20.169Y-59.208
M16
G05
G00X21.369Y-63.208
M15
G01X20.169Y-63.208
M16
G05
G00X21.369Y-67.208
M15
G01X20.169Y-67.208
M16
G05
M30
