%TF.GenerationSoftware,KiCad,Pcbnew,9.0.0*%
%TF.CreationDate,2025-03-04T21:50:42+01:00*%
%TF.ProjectId,board_io,626f6172-645f-4696-9f2e-6b696361645f,rev?*%
%TF.SameCoordinates,Original*%
%TF.FileFunction,Copper,L2,Bot*%
%TF.FilePolarity,Positive*%
%FSLAX46Y46*%
G04 Gerber Fmt 4.6, Leading zero omitted, Abs format (unit mm)*
G04 Created by KiCad (PCBNEW 9.0.0) date 2025-03-04 21:50:42*
%MOMM*%
%LPD*%
G01*
G04 APERTURE LIST*
%TA.AperFunction,ComponentPad*%
%ADD10C,3.240000*%
%TD*%
%TA.AperFunction,ComponentPad*%
%ADD11R,1.800000X1.800000*%
%TD*%
%TA.AperFunction,ComponentPad*%
%ADD12C,1.800000*%
%TD*%
%TA.AperFunction,ComponentPad*%
%ADD13C,2.500000*%
%TD*%
%TA.AperFunction,ComponentPad*%
%ADD14O,3.500000X2.000000*%
%TD*%
%TA.AperFunction,ComponentPad*%
%ADD15R,1.700000X1.700000*%
%TD*%
%TA.AperFunction,ComponentPad*%
%ADD16O,1.700000X1.700000*%
%TD*%
%TA.AperFunction,ViaPad*%
%ADD17C,0.600000*%
%TD*%
%TA.AperFunction,Conductor*%
%ADD18C,0.200000*%
%TD*%
G04 APERTURE END LIST*
D10*
%TO.P,RV4,*%
%TO.N,*%
X56329200Y-24156300D03*
X56329200Y-33756300D03*
D11*
%TO.P,RV4,1,1*%
%TO.N,-12V*%
X48829200Y-26456300D03*
D12*
%TO.P,RV4,2,2*%
%TO.N,Fine Tuning*%
X48829200Y-28956300D03*
%TO.P,RV4,3,3*%
%TO.N,+12V*%
X48829200Y-31456300D03*
%TD*%
D13*
%TO.P,SW1,1*%
%TO.N,Hard Sync +*%
X36659200Y-71122300D03*
%TO.P,SW1,2*%
%TO.N,Hard Sync*%
X32459200Y-66922300D03*
%TO.P,SW1,3*%
%TO.N,Hard Sync -*%
X32459200Y-60922300D03*
%TO.P,SW1,4*%
%TO.N,Soft Sync*%
X36659200Y-56722300D03*
%TO.P,SW1,5*%
%TO.N,unconnected-(SW1-Pad5)*%
X42659200Y-56722300D03*
%TO.P,SW1,6*%
%TO.N,unconnected-(SW1-Pad6)*%
X46859200Y-60922300D03*
%TO.P,SW1,7*%
%TO.N,unconnected-(SW1-Pad7)*%
X46859200Y-66922300D03*
%TO.P,SW1,8*%
%TO.N,unconnected-(SW1-Pad8)*%
X42659200Y-71122300D03*
%TO.P,SW1,9*%
%TO.N,Sync COM*%
X37119200Y-63922300D03*
%TO.P,SW1,10*%
%TO.N,unconnected-(SW1-Pad10)*%
X42199200Y-63922300D03*
%TD*%
D10*
%TO.P,RV1,*%
%TO.N,*%
X24713200Y-39956300D03*
X24713200Y-49556300D03*
D11*
%TO.P,RV1,1,1*%
%TO.N,-12V*%
X17213200Y-42256300D03*
D12*
%TO.P,RV1,2,2*%
%TO.N,PWM Offset*%
X17213200Y-44756300D03*
%TO.P,RV1,3,3*%
%TO.N,+12V*%
X17213200Y-47256300D03*
%TD*%
D14*
%TO.P,SW2,1,A*%
%TO.N,Mode LFO*%
X20007200Y-67082300D03*
%TO.P,SW2,2,B*%
%TO.N,Mode COM*%
X20007200Y-63082300D03*
%TO.P,SW2,3,C*%
%TO.N,Mode VCO*%
X20007200Y-59082300D03*
%TD*%
D10*
%TO.P,RV2,*%
%TO.N,*%
X56329200Y-39956300D03*
X56329200Y-49556300D03*
D11*
%TO.P,RV2,1,1*%
%TO.N,GND*%
X48829200Y-42256300D03*
D12*
%TO.P,RV2,2,2*%
%TO.N,FM CV Levelled*%
X48829200Y-44756300D03*
%TO.P,RV2,3,3*%
%TO.N,FM CV Hot*%
X48829200Y-47256300D03*
%TD*%
D10*
%TO.P,RV3,*%
%TO.N,*%
X40521200Y-39956300D03*
X40521200Y-49556300D03*
D11*
%TO.P,RV3,1,1*%
%TO.N,GND*%
X33021200Y-42256300D03*
D12*
%TO.P,RV3,2,2*%
%TO.N,PWM CV Levelled*%
X33021200Y-44756300D03*
%TO.P,RV3,3,3*%
%TO.N,PWM CV Hot*%
X33021200Y-47256300D03*
%TD*%
D10*
%TO.P,RV5,*%
%TO.N,*%
X24713200Y-24156300D03*
X24713200Y-33756300D03*
D11*
%TO.P,RV5,1,1*%
%TO.N,-12V*%
X17213200Y-26456300D03*
D12*
%TO.P,RV5,2,2*%
%TO.N,Coarse Tuning*%
X17213200Y-28956300D03*
%TO.P,RV5,3,3*%
%TO.N,+12V*%
X17213200Y-31456300D03*
%TD*%
D15*
%TO.P,J2,1,Pin_1*%
%TO.N,Mode COM*%
X51435200Y-65314300D03*
D16*
%TO.P,J2,2,Pin_2*%
%TO.N,FM CV Levelled*%
X51435200Y-67854300D03*
%TO.P,J2,3,Pin_3*%
%TO.N,PWM CV Levelled*%
X53975200Y-65314300D03*
%TO.P,J2,4,Pin_4*%
%TO.N,Soft Sync*%
X53975200Y-67854300D03*
%TO.P,J2,5,Pin_5*%
%TO.N,Hard Sync*%
X56515200Y-65314300D03*
%TO.P,J2,6,Pin_6*%
%TO.N,PWM Offset*%
X56515200Y-67854300D03*
%TO.P,J2,7,Pin_7*%
%TO.N,Mode VCO*%
X59055200Y-65314300D03*
%TO.P,J2,8,Pin_8*%
%TO.N,Mode LFO*%
X59055200Y-67854300D03*
%TD*%
D15*
%TO.P,J1,1,Pin_1*%
%TO.N,Coarse Tuning*%
X40435200Y-32314300D03*
D16*
%TO.P,J1,2,Pin_2*%
%TO.N,Hard Sync -*%
X42975200Y-32314300D03*
%TO.P,J1,3,Pin_3*%
%TO.N,Fine Tuning*%
X40435200Y-29774300D03*
%TO.P,J1,4,Pin_4*%
%TO.N,Hard Sync +*%
X42975200Y-29774300D03*
%TO.P,J1,5,Pin_5*%
%TO.N,GND*%
X40435200Y-27234300D03*
%TO.P,J1,6,Pin_6*%
%TO.N,-12V*%
X42975200Y-27234300D03*
%TO.P,J1,7,Pin_7*%
%TO.N,+12V*%
X40435200Y-24694300D03*
%TO.P,J1,8,Pin_8*%
%TO.N,FM CV Hot*%
X42975200Y-24694300D03*
%TO.P,J1,9,Pin_9*%
%TO.N,PWM CV Hot*%
X40435200Y-22154300D03*
%TO.P,J1,10,Pin_10*%
%TO.N,Sync COM*%
X42975200Y-22154300D03*
%TD*%
D17*
%TO.N,PWM CV Levelled*%
X53975200Y-46006300D03*
%TO.N,PWM Offset*%
X55245200Y-55645500D03*
%TO.N,GND*%
X38586300Y-42256300D03*
%TD*%
D18*
%TO.N,Fine Tuning*%
X48490200Y-28617300D02*
X48829200Y-28956300D01*
X42456000Y-28617300D02*
X48490200Y-28617300D01*
X41586900Y-29486400D02*
X42456000Y-28617300D01*
X41586900Y-29774300D02*
X41586900Y-29486400D01*
X40435200Y-29774300D02*
X41586900Y-29774300D01*
%TO.N,Coarse Tuning*%
X35925500Y-28956300D02*
X17213200Y-28956300D01*
X39283500Y-32314300D02*
X35925500Y-28956300D01*
X40435200Y-32314300D02*
X39283500Y-32314300D01*
%TO.N,Mode COM*%
X32427000Y-63082300D02*
X20007200Y-63082300D01*
X34846100Y-65501400D02*
X32427000Y-63082300D01*
X42814600Y-65501400D02*
X34846100Y-65501400D01*
X43001700Y-65314300D02*
X42814600Y-65501400D01*
X51435200Y-65314300D02*
X43001700Y-65314300D01*
%TO.N,Mode VCO*%
X51959400Y-59082300D02*
X20007200Y-59082300D01*
X57903500Y-65026400D02*
X51959400Y-59082300D01*
X57903500Y-65314300D02*
X57903500Y-65026400D01*
X59055200Y-65314300D02*
X57903500Y-65314300D01*
%TO.N,PWM CV Levelled*%
X47214900Y-46006300D02*
X53975200Y-46006300D01*
X45964900Y-44756300D02*
X47214900Y-46006300D01*
X33021200Y-44756300D02*
X45964900Y-44756300D01*
%TO.N,Mode LFO*%
X59055200Y-67854300D02*
X57903500Y-67854300D01*
X20007200Y-67082300D02*
X20007200Y-68384000D01*
X57903500Y-68142200D02*
X57903500Y-67854300D01*
X56988800Y-69056900D02*
X57903500Y-68142200D01*
X20680100Y-69056900D02*
X56988800Y-69056900D01*
X20007200Y-68384000D02*
X20680100Y-69056900D01*
%TO.N,Hard Sync*%
X55363500Y-65582800D02*
X55363500Y-65314300D01*
X54302000Y-66644300D02*
X55363500Y-65582800D01*
X49685300Y-66644300D02*
X54302000Y-66644300D01*
X47817100Y-68512500D02*
X49685300Y-66644300D01*
X34049400Y-68512500D02*
X47817100Y-68512500D01*
X32459200Y-66922300D02*
X34049400Y-68512500D01*
X56515200Y-65314300D02*
X55363500Y-65314300D01*
%TO.N,PWM Offset*%
X45607500Y-46007800D02*
X55245200Y-55645500D01*
X18464700Y-46007800D02*
X45607500Y-46007800D01*
X17213200Y-44756300D02*
X18464700Y-46007800D01*
%TO.N,Soft Sync*%
X38555700Y-58618800D02*
X36659200Y-56722300D01*
X54047800Y-58618800D02*
X38555700Y-58618800D01*
X60232500Y-64803500D02*
X54047800Y-58618800D01*
X60232500Y-65799500D02*
X60232500Y-64803500D01*
X59329400Y-66702600D02*
X60232500Y-65799500D01*
X55990600Y-66702600D02*
X59329400Y-66702600D01*
X55126900Y-67566300D02*
X55990600Y-66702600D01*
X55126900Y-67854300D02*
X55126900Y-67566300D01*
X53975200Y-67854300D02*
X55126900Y-67854300D01*
%TO.N,GND*%
X33021200Y-42256300D02*
X38586300Y-42256300D01*
X38586300Y-42256300D02*
X48829200Y-42256300D01*
%TO.N,-12V*%
X44904900Y-26456300D02*
X48829200Y-26456300D01*
X44126900Y-27234300D02*
X44904900Y-26456300D01*
X42975200Y-27234300D02*
X44126900Y-27234300D01*
X42972200Y-26079600D02*
X44126900Y-27234300D01*
X18791600Y-26079600D02*
X42972200Y-26079600D01*
X18414900Y-26456300D02*
X18791600Y-26079600D01*
X17213200Y-26456300D02*
X18414900Y-26456300D01*
%TO.N,+12V*%
X46787100Y-33498400D02*
X48829200Y-31456300D01*
X39492600Y-33498400D02*
X46787100Y-33498400D01*
X37450500Y-31456300D02*
X39492600Y-33498400D01*
X17213200Y-31456300D02*
X37450500Y-31456300D01*
%TD*%
M02*
