M48
; DRILL file {KiCad 9.0.0} date 2025-03-04T21:50:46+0100
; FORMAT={-:-/ absolute / metric / decimal}
; #@! TF.CreationDate,2025-03-04T21:50:46+01:00
; #@! TF.GenerationSoftware,Kicad,Pcbnew,9.0.0
; #@! TF.FileFunction,Plated,1,2,PTH
FMAT,2
METRIC
; #@! TA.AperFunction,Plated,PTH,ViaDrill
T1C0.300
; #@! TA.AperFunction,Plated,PTH,ComponentDrill
T2C1.000
; #@! TA.AperFunction,Plated,PTH,ComponentDrill
T3C1.300
; #@! TA.AperFunction,Plated,PTH,ComponentDrill
T4C1.800
%
G90
G05
T1
X38.586Y-42.256
X53.975Y-46.006
X55.245Y-55.645
T2
X17.213Y-26.456
X17.213Y-28.956
X17.213Y-31.456
X17.213Y-42.256
X17.213Y-44.756
X17.213Y-47.256
X33.021Y-42.256
X33.021Y-44.756
X33.021Y-47.256
X40.435Y-22.154
X40.435Y-24.694
X40.435Y-27.234
X40.435Y-29.774
X40.435Y-32.314
X42.975Y-22.154
X42.975Y-24.694
X42.975Y-27.234
X42.975Y-29.774
X42.975Y-32.314
X48.829Y-26.456
X48.829Y-28.956
X48.829Y-31.456
X48.829Y-42.256
X48.829Y-44.756
X48.829Y-47.256
X51.435Y-65.314
X51.435Y-67.854
X53.975Y-65.314
X53.975Y-67.854
X56.515Y-65.314
X56.515Y-67.854
X59.055Y-65.314
X59.055Y-67.854
T3
X32.459Y-60.922
X32.459Y-66.922
X36.659Y-56.722
X36.659Y-71.122
X37.119Y-63.922
X42.199Y-63.922
X42.659Y-56.722
X42.659Y-71.122
X46.859Y-60.922
X46.859Y-66.922
T4
X24.713Y-24.156
X24.713Y-33.756
X24.713Y-39.956
X24.713Y-49.556
X40.521Y-39.956
X40.521Y-49.556
X56.329Y-24.156
X56.329Y-33.756
X56.329Y-39.956
X56.329Y-49.556
T2
G00X20.607Y-59.082
M15
G01X19.407Y-59.082
M16
G05
G00X20.607Y-63.082
M15
G01X19.407Y-63.082
M16
G05
G00X20.607Y-67.082
M15
G01X19.407Y-67.082
M16
G05
M30
